%TF.GenerationSoftware,KiCad,Pcbnew,10.0.6*%
%TF.CreationDate,2026-10-09T20:00:13+08:00*%
%TF.ProjectId,minibox-carrier,6d696e69-626f-4782-9d63-617272696572,rev?*%
%TF.SameCoordinates,Original*%
%TF.FileFunction,Soldermask,Bot*%
%TF.FilePolarity,Negative*%
%FSLAX46Y46*%
G04 Gerber Fmt 4.6, Leading zero omitted, Abs format (unit mm)*
G04 Created by KiCad (PCBNEW 10.0.6) date 2026-10-09 20:00:13*
%MOMM*%
%LPD*%
G01*
G04 APERTURE LIST*
G04 APERTURE END LIST*
G36*
X5354837Y6478002D02*
G01*
X5581679Y6404297D01*
X5794198Y6296013D01*
X5987161Y6155817D01*
X6155817Y5987161D01*
X6296013Y5794198D01*
X6404297Y5581679D01*
X6478002Y5354837D01*
X6515314Y5119258D01*
X6515314Y4880742D01*
X6478002Y4645163D01*
X6404297Y4418321D01*
X6296013Y4205802D01*
X6155817Y4012839D01*
X5987161Y3844183D01*
X5794198Y3703987D01*
X5581679Y3595703D01*
X5354837Y3521998D01*
X5119258Y3484686D01*
X4880742Y3484686D01*
X4645163Y3521998D01*
X4418321Y3595703D01*
X4205802Y3703987D01*
X4012839Y3844183D01*
X3844183Y4012839D01*
X3703987Y4205802D01*
X3595703Y4418321D01*
X3521998Y4645163D01*
X3484686Y4880742D01*
X3484686Y5119258D01*
X3521998Y5354837D01*
X3595703Y5581679D01*
X3703987Y5794198D01*
X3844183Y5987161D01*
X4012839Y6155817D01*
X4205802Y6296013D01*
X4418321Y6404297D01*
X4645163Y6478002D01*
X4880742Y6515314D01*
X5119258Y6515314D01*
X5354837Y6478002D01*
G37*
G36*
X89854837Y6478002D02*
G01*
X90081679Y6404297D01*
X90294198Y6296013D01*
X90487161Y6155817D01*
X90655817Y5987161D01*
X90796013Y5794198D01*
X90904297Y5581679D01*
X90978002Y5354837D01*
X91015314Y5119258D01*
X91015314Y4880742D01*
X90978002Y4645163D01*
X90904297Y4418321D01*
X90796013Y4205802D01*
X90655817Y4012839D01*
X90487161Y3844183D01*
X90294198Y3703987D01*
X90081679Y3595703D01*
X89854837Y3521998D01*
X89619258Y3484686D01*
X89380742Y3484686D01*
X89145163Y3521998D01*
X88918321Y3595703D01*
X88705802Y3703987D01*
X88512839Y3844183D01*
X88344183Y4012839D01*
X88203987Y4205802D01*
X88095703Y4418321D01*
X88021998Y4645163D01*
X87984686Y4880742D01*
X87984686Y5119258D01*
X88021998Y5354837D01*
X88095703Y5581679D01*
X88203987Y5794198D01*
X88344183Y5987161D01*
X88512839Y6155817D01*
X88705802Y6296013D01*
X88918321Y6404297D01*
X89145163Y6478002D01*
X89380742Y6515314D01*
X89619258Y6515314D01*
X89854837Y6478002D01*
G37*
G36*
X56709327Y13382147D02*
G01*
X56958235Y13315452D01*
X57196308Y13216839D01*
X57419472Y13087995D01*
X57623910Y12931124D01*
X57806123Y12748911D01*
X57962994Y12544473D01*
X58091838Y12321309D01*
X58190451Y12083236D01*
X58257146Y11834328D01*
X58290781Y11578844D01*
X58290781Y11321156D01*
X58257146Y11065672D01*
X58190451Y10816764D01*
X58091838Y10578691D01*
X57962994Y10355527D01*
X57806123Y10151089D01*
X57623910Y9968876D01*
X57419472Y9812005D01*
X57196308Y9683161D01*
X56958235Y9584548D01*
X56709327Y9517853D01*
X56453843Y9484218D01*
X56196155Y9484218D01*
X55940671Y9517853D01*
X55691763Y9584548D01*
X55453690Y9683161D01*
X55230526Y9812005D01*
X55026088Y9968876D01*
X54843875Y10151089D01*
X54687004Y10355527D01*
X54558160Y10578691D01*
X54459547Y10816764D01*
X54392852Y11065672D01*
X54359217Y11321156D01*
X54359217Y11578844D01*
X54392852Y11834328D01*
X54459547Y12083236D01*
X54558160Y12321309D01*
X54687004Y12544473D01*
X54843875Y12748911D01*
X55026088Y12931124D01*
X55230526Y13087995D01*
X55453690Y13216839D01*
X55691763Y13315452D01*
X55940671Y13382147D01*
X56196155Y13415782D01*
X56453843Y13415782D01*
X56709327Y13382147D01*
G37*
G36*
X75759328Y13382147D02*
G01*
X76008236Y13315452D01*
X76246309Y13216839D01*
X76469473Y13087995D01*
X76673911Y12931124D01*
X76856124Y12748911D01*
X77012995Y12544473D01*
X77141839Y12321309D01*
X77240452Y12083236D01*
X77307147Y11834328D01*
X77340782Y11578844D01*
X77340782Y11321156D01*
X77307147Y11065672D01*
X77240452Y10816764D01*
X77141839Y10578691D01*
X77012995Y10355527D01*
X76856124Y10151089D01*
X76673911Y9968876D01*
X76469473Y9812005D01*
X76246309Y9683161D01*
X76008236Y9584548D01*
X75759328Y9517853D01*
X75503844Y9484218D01*
X75246156Y9484218D01*
X74990672Y9517853D01*
X74741764Y9584548D01*
X74503691Y9683161D01*
X74280527Y9812005D01*
X74076089Y9968876D01*
X73893876Y10151089D01*
X73737005Y10355527D01*
X73608161Y10578691D01*
X73509548Y10816764D01*
X73442853Y11065672D01*
X73409218Y11321156D01*
X73409218Y11578844D01*
X73442853Y11834328D01*
X73509548Y12083236D01*
X73608161Y12321309D01*
X73737005Y12544473D01*
X73893876Y12748911D01*
X74076089Y12931124D01*
X74280527Y13087995D01*
X74503691Y13216839D01*
X74741764Y13315452D01*
X74990672Y13382147D01*
X75246156Y13415782D01*
X75503844Y13415782D01*
X75759328Y13382147D01*
G37*
G36*
X13502548Y14602538D02*
G01*
X13660115Y14537271D01*
X13801922Y14442519D01*
X13922519Y14321922D01*
X14017271Y14180115D01*
X14082538Y14022548D01*
X14115811Y13855275D01*
X14115811Y13684725D01*
X14082538Y13517452D01*
X14017271Y13359885D01*
X13922519Y13218078D01*
X13801922Y13097481D01*
X13660115Y13002729D01*
X13502548Y12937462D01*
X13335275Y12904189D01*
X13164725Y12904189D01*
X12997452Y12937462D01*
X12839885Y13002729D01*
X12698078Y13097481D01*
X12577481Y13218078D01*
X12482729Y13359885D01*
X12417462Y13517452D01*
X12384189Y13684725D01*
X12384189Y13855275D01*
X12417462Y14022548D01*
X12482729Y14180115D01*
X12577481Y14321922D01*
X12698078Y14442519D01*
X12839885Y14537271D01*
X12997452Y14602538D01*
X13164725Y14635811D01*
X13335275Y14635811D01*
X13502548Y14602538D01*
G37*
G36*
X16002548Y14602538D02*
G01*
X16160115Y14537271D01*
X16301922Y14442519D01*
X16422519Y14321922D01*
X16517271Y14180115D01*
X16582538Y14022548D01*
X16615811Y13855275D01*
X16615811Y13684725D01*
X16582538Y13517452D01*
X16517271Y13359885D01*
X16422519Y13218078D01*
X16301922Y13097481D01*
X16160115Y13002729D01*
X16002548Y12937462D01*
X15835275Y12904189D01*
X15664725Y12904189D01*
X15497452Y12937462D01*
X15339885Y13002729D01*
X15198078Y13097481D01*
X15077481Y13218078D01*
X14982729Y13359885D01*
X14917462Y13517452D01*
X14884189Y13684725D01*
X14884189Y13855275D01*
X14917462Y14022548D01*
X14982729Y14180115D01*
X15077481Y14321922D01*
X15198078Y14442519D01*
X15339885Y14537271D01*
X15497452Y14602538D01*
X15664725Y14635811D01*
X15835275Y14635811D01*
X16002548Y14602538D01*
G37*
G36*
X18502548Y14602538D02*
G01*
X18660115Y14537271D01*
X18801922Y14442519D01*
X18922519Y14321922D01*
X19017271Y14180115D01*
X19082538Y14022548D01*
X19115811Y13855275D01*
X19115811Y13684725D01*
X19082538Y13517452D01*
X19017271Y13359885D01*
X18922519Y13218078D01*
X18801922Y13097481D01*
X18660115Y13002729D01*
X18502548Y12937462D01*
X18335275Y12904189D01*
X18164725Y12904189D01*
X17997452Y12937462D01*
X17839885Y13002729D01*
X17698078Y13097481D01*
X17577481Y13218078D01*
X17482729Y13359885D01*
X17417462Y13517452D01*
X17384189Y13684725D01*
X17384189Y13855275D01*
X17417462Y14022548D01*
X17482729Y14180115D01*
X17577481Y14321922D01*
X17698078Y14442519D01*
X17839885Y14537271D01*
X17997452Y14602538D01*
X18164725Y14635811D01*
X18335275Y14635811D01*
X18502548Y14602538D01*
G37*
G36*
X52609668Y15054848D02*
G01*
X52619877Y15054848D01*
X52659766Y15046914D01*
X52764746Y15030287D01*
X52798517Y15019314D01*
X52825604Y15013926D01*
X52863829Y14998093D01*
X52924415Y14978407D01*
X52981171Y14949489D01*
X53019394Y14933656D01*
X53042355Y14918314D01*
X53073988Y14902196D01*
X53159982Y14839718D01*
X53193800Y14817121D01*
X53201017Y14809904D01*
X53209805Y14803519D01*
X53328517Y14684807D01*
X53334901Y14676020D01*
X53342120Y14668801D01*
X53364719Y14634979D01*
X53427194Y14548990D01*
X53443310Y14517360D01*
X53458655Y14494395D01*
X53474489Y14456168D01*
X53503405Y14399417D01*
X53523088Y14338839D01*
X53538925Y14300605D01*
X53544313Y14273514D01*
X53555285Y14239748D01*
X53571911Y14134773D01*
X53579847Y14094878D01*
X53579847Y14084670D01*
X53581546Y14073942D01*
X53581546Y13906059D01*
X53579847Y13895332D01*
X53579847Y13885122D01*
X53571910Y13845224D01*
X53555285Y13740253D01*
X53544314Y13706490D01*
X53538925Y13679395D01*
X53523086Y13641159D01*
X53503405Y13580584D01*
X53474491Y13523838D01*
X53458655Y13485605D01*
X53443308Y13462638D01*
X53427194Y13431011D01*
X53364727Y13345035D01*
X53342120Y13311199D01*
X53334898Y13303978D01*
X53328517Y13295194D01*
X53209805Y13176482D01*
X53201021Y13170101D01*
X53193800Y13162879D01*
X53159964Y13140272D01*
X53073988Y13077805D01*
X53042361Y13061691D01*
X53019394Y13046344D01*
X52981161Y13030508D01*
X52924415Y13001594D01*
X52863840Y12981913D01*
X52825604Y12966074D01*
X52798509Y12960685D01*
X52764746Y12949714D01*
X52659775Y12933089D01*
X52619877Y12925152D01*
X52609667Y12925152D01*
X52598940Y12923453D01*
X52431058Y12923453D01*
X52420331Y12925152D01*
X52410121Y12925152D01*
X52370224Y12933089D01*
X52265251Y12949714D01*
X52231485Y12960686D01*
X52204394Y12966074D01*
X52166160Y12981911D01*
X52105582Y13001594D01*
X52048831Y13030510D01*
X52010604Y13046344D01*
X51987639Y13061689D01*
X51956009Y13077805D01*
X51870020Y13140280D01*
X51836198Y13162879D01*
X51828979Y13170098D01*
X51820192Y13176482D01*
X51701480Y13295194D01*
X51695095Y13303982D01*
X51687878Y13311199D01*
X51665281Y13345017D01*
X51602803Y13431011D01*
X51586685Y13462644D01*
X51571343Y13485605D01*
X51555510Y13523828D01*
X51526592Y13580584D01*
X51506906Y13641170D01*
X51491073Y13679395D01*
X51485685Y13706482D01*
X51474712Y13740253D01*
X51458085Y13845233D01*
X51450151Y13885122D01*
X51450151Y13895332D01*
X51448452Y13906059D01*
X51448452Y14073942D01*
X51450151Y14084670D01*
X51450151Y14094878D01*
X51458084Y14134764D01*
X51474712Y14239748D01*
X51485685Y14273522D01*
X51491073Y14300605D01*
X51506904Y14338827D01*
X51526592Y14399417D01*
X51555513Y14456179D01*
X51571343Y14494395D01*
X51586683Y14517354D01*
X51602803Y14548990D01*
X51665289Y14634996D01*
X51687878Y14668801D01*
X51695092Y14676016D01*
X51701480Y14684807D01*
X51820192Y14803519D01*
X51828983Y14809907D01*
X51836198Y14817121D01*
X51870003Y14839710D01*
X51956009Y14902196D01*
X51987645Y14918316D01*
X52010604Y14933656D01*
X52048820Y14949486D01*
X52105582Y14978407D01*
X52166172Y14998095D01*
X52204394Y15013926D01*
X52231477Y15019314D01*
X52265251Y15030287D01*
X52370233Y15046914D01*
X52410121Y15054848D01*
X52420330Y15054848D01*
X52431058Y15056547D01*
X52598940Y15056547D01*
X52609668Y15054848D01*
G37*
G36*
X71659669Y15054848D02*
G01*
X71669878Y15054848D01*
X71709767Y15046914D01*
X71814747Y15030287D01*
X71848518Y15019314D01*
X71875605Y15013926D01*
X71913830Y14998093D01*
X71974416Y14978407D01*
X72031172Y14949489D01*
X72069395Y14933656D01*
X72092356Y14918314D01*
X72123989Y14902196D01*
X72209983Y14839718D01*
X72243801Y14817121D01*
X72251018Y14809904D01*
X72259806Y14803519D01*
X72378518Y14684807D01*
X72384902Y14676020D01*
X72392121Y14668801D01*
X72414720Y14634979D01*
X72477195Y14548990D01*
X72493311Y14517360D01*
X72508656Y14494395D01*
X72524490Y14456168D01*
X72553406Y14399417D01*
X72573089Y14338839D01*
X72588926Y14300605D01*
X72594314Y14273514D01*
X72605286Y14239748D01*
X72621912Y14134773D01*
X72629848Y14094878D01*
X72629848Y14084670D01*
X72631547Y14073942D01*
X72631547Y13906059D01*
X72629848Y13895332D01*
X72629848Y13885122D01*
X72621911Y13845224D01*
X72605286Y13740253D01*
X72594315Y13706490D01*
X72588926Y13679395D01*
X72573087Y13641159D01*
X72553406Y13580584D01*
X72524492Y13523838D01*
X72508656Y13485605D01*
X72493309Y13462638D01*
X72477195Y13431011D01*
X72414728Y13345035D01*
X72392121Y13311199D01*
X72384899Y13303978D01*
X72378518Y13295194D01*
X72259806Y13176482D01*
X72251022Y13170101D01*
X72243801Y13162879D01*
X72209965Y13140272D01*
X72123989Y13077805D01*
X72092362Y13061691D01*
X72069395Y13046344D01*
X72031162Y13030508D01*
X71974416Y13001594D01*
X71913841Y12981913D01*
X71875605Y12966074D01*
X71848510Y12960685D01*
X71814747Y12949714D01*
X71709776Y12933089D01*
X71669878Y12925152D01*
X71659668Y12925152D01*
X71648941Y12923453D01*
X71481059Y12923453D01*
X71470332Y12925152D01*
X71460122Y12925152D01*
X71420225Y12933089D01*
X71315252Y12949714D01*
X71281486Y12960686D01*
X71254395Y12966074D01*
X71216161Y12981911D01*
X71155583Y13001594D01*
X71098832Y13030510D01*
X71060605Y13046344D01*
X71037640Y13061689D01*
X71006010Y13077805D01*
X70920021Y13140280D01*
X70886199Y13162879D01*
X70878980Y13170098D01*
X70870193Y13176482D01*
X70751481Y13295194D01*
X70745096Y13303982D01*
X70737879Y13311199D01*
X70715282Y13345017D01*
X70652804Y13431011D01*
X70636686Y13462644D01*
X70621344Y13485605D01*
X70605511Y13523828D01*
X70576593Y13580584D01*
X70556907Y13641170D01*
X70541074Y13679395D01*
X70535686Y13706482D01*
X70524713Y13740253D01*
X70508086Y13845233D01*
X70500152Y13885122D01*
X70500152Y13895332D01*
X70498453Y13906059D01*
X70498453Y14073942D01*
X70500152Y14084670D01*
X70500152Y14094878D01*
X70508085Y14134764D01*
X70524713Y14239748D01*
X70535686Y14273522D01*
X70541074Y14300605D01*
X70556905Y14338827D01*
X70576593Y14399417D01*
X70605514Y14456179D01*
X70621344Y14494395D01*
X70636684Y14517354D01*
X70652804Y14548990D01*
X70715290Y14634996D01*
X70737879Y14668801D01*
X70745093Y14676016D01*
X70751481Y14684807D01*
X70870193Y14803519D01*
X70878984Y14809907D01*
X70886199Y14817121D01*
X70920004Y14839710D01*
X71006010Y14902196D01*
X71037646Y14918316D01*
X71060605Y14933656D01*
X71098821Y14949486D01*
X71155583Y14978407D01*
X71216173Y14998095D01*
X71254395Y15013926D01*
X71281478Y15019314D01*
X71315252Y15030287D01*
X71420234Y15046914D01*
X71460122Y15054848D01*
X71470331Y15054848D01*
X71481059Y15056547D01*
X71648941Y15056547D01*
X71659669Y15054848D01*
G37*
G36*
X58959668Y17594848D02*
G01*
X58969877Y17594848D01*
X59009766Y17586914D01*
X59114746Y17570287D01*
X59148517Y17559314D01*
X59175604Y17553926D01*
X59213829Y17538093D01*
X59274415Y17518407D01*
X59331171Y17489489D01*
X59369394Y17473656D01*
X59392355Y17458314D01*
X59423988Y17442196D01*
X59509982Y17379718D01*
X59543800Y17357121D01*
X59551017Y17349904D01*
X59559805Y17343519D01*
X59678517Y17224807D01*
X59684901Y17216020D01*
X59692120Y17208801D01*
X59714719Y17174979D01*
X59777194Y17088990D01*
X59793310Y17057360D01*
X59808655Y17034395D01*
X59824489Y16996168D01*
X59853405Y16939417D01*
X59873088Y16878839D01*
X59888925Y16840605D01*
X59894313Y16813514D01*
X59905285Y16779748D01*
X59921911Y16674773D01*
X59929847Y16634878D01*
X59929847Y16624670D01*
X59931546Y16613942D01*
X59931546Y16446059D01*
X59929847Y16435332D01*
X59929847Y16425122D01*
X59921910Y16385224D01*
X59905285Y16280253D01*
X59894314Y16246490D01*
X59888925Y16219395D01*
X59873086Y16181159D01*
X59853405Y16120584D01*
X59824491Y16063838D01*
X59808655Y16025605D01*
X59793308Y16002638D01*
X59777194Y15971011D01*
X59714727Y15885035D01*
X59692120Y15851199D01*
X59684898Y15843978D01*
X59678517Y15835194D01*
X59559805Y15716482D01*
X59551021Y15710101D01*
X59543800Y15702879D01*
X59509964Y15680272D01*
X59423988Y15617805D01*
X59392361Y15601691D01*
X59369394Y15586344D01*
X59331161Y15570508D01*
X59274415Y15541594D01*
X59213840Y15521913D01*
X59175604Y15506074D01*
X59148509Y15500685D01*
X59114746Y15489714D01*
X59009775Y15473089D01*
X58969877Y15465152D01*
X58959667Y15465152D01*
X58948940Y15463453D01*
X58781058Y15463453D01*
X58770331Y15465152D01*
X58760121Y15465152D01*
X58720224Y15473089D01*
X58615251Y15489714D01*
X58581485Y15500686D01*
X58554394Y15506074D01*
X58516160Y15521911D01*
X58455582Y15541594D01*
X58398831Y15570510D01*
X58360604Y15586344D01*
X58337639Y15601689D01*
X58306009Y15617805D01*
X58220020Y15680280D01*
X58186198Y15702879D01*
X58178979Y15710098D01*
X58170192Y15716482D01*
X58051480Y15835194D01*
X58045095Y15843982D01*
X58037878Y15851199D01*
X58015281Y15885017D01*
X57952803Y15971011D01*
X57936685Y16002644D01*
X57921343Y16025605D01*
X57905510Y16063828D01*
X57876592Y16120584D01*
X57856906Y16181170D01*
X57841073Y16219395D01*
X57835685Y16246482D01*
X57824712Y16280253D01*
X57808085Y16385233D01*
X57800151Y16425122D01*
X57800151Y16435332D01*
X57798452Y16446059D01*
X57798452Y16613942D01*
X57800151Y16624670D01*
X57800151Y16634878D01*
X57808084Y16674764D01*
X57824712Y16779748D01*
X57835685Y16813522D01*
X57841073Y16840605D01*
X57856904Y16878827D01*
X57876592Y16939417D01*
X57905513Y16996179D01*
X57921343Y17034395D01*
X57936683Y17057354D01*
X57952803Y17088990D01*
X58015289Y17174996D01*
X58037878Y17208801D01*
X58045092Y17216016D01*
X58051480Y17224807D01*
X58170192Y17343519D01*
X58178983Y17349907D01*
X58186198Y17357121D01*
X58220003Y17379710D01*
X58306009Y17442196D01*
X58337645Y17458316D01*
X58360604Y17473656D01*
X58398820Y17489486D01*
X58455582Y17518407D01*
X58516172Y17538095D01*
X58554394Y17553926D01*
X58581477Y17559314D01*
X58615251Y17570287D01*
X58720233Y17586914D01*
X58760121Y17594848D01*
X58770330Y17594848D01*
X58781058Y17596547D01*
X58948940Y17596547D01*
X58959668Y17594848D01*
G37*
G36*
X78009669Y17594848D02*
G01*
X78019878Y17594848D01*
X78059767Y17586914D01*
X78164747Y17570287D01*
X78198518Y17559314D01*
X78225605Y17553926D01*
X78263830Y17538093D01*
X78324416Y17518407D01*
X78381172Y17489489D01*
X78419395Y17473656D01*
X78442356Y17458314D01*
X78473989Y17442196D01*
X78559983Y17379718D01*
X78593801Y17357121D01*
X78601018Y17349904D01*
X78609806Y17343519D01*
X78728518Y17224807D01*
X78734902Y17216020D01*
X78742121Y17208801D01*
X78764720Y17174979D01*
X78827195Y17088990D01*
X78843311Y17057360D01*
X78858656Y17034395D01*
X78874490Y16996168D01*
X78903406Y16939417D01*
X78923089Y16878839D01*
X78938926Y16840605D01*
X78944314Y16813514D01*
X78955286Y16779748D01*
X78971912Y16674773D01*
X78979848Y16634878D01*
X78979848Y16624670D01*
X78981547Y16613942D01*
X78981547Y16446059D01*
X78979848Y16435332D01*
X78979848Y16425122D01*
X78971911Y16385224D01*
X78955286Y16280253D01*
X78944315Y16246490D01*
X78938926Y16219395D01*
X78923087Y16181159D01*
X78903406Y16120584D01*
X78874492Y16063838D01*
X78858656Y16025605D01*
X78843309Y16002638D01*
X78827195Y15971011D01*
X78764728Y15885035D01*
X78742121Y15851199D01*
X78734899Y15843978D01*
X78728518Y15835194D01*
X78609806Y15716482D01*
X78601022Y15710101D01*
X78593801Y15702879D01*
X78559965Y15680272D01*
X78473989Y15617805D01*
X78442362Y15601691D01*
X78419395Y15586344D01*
X78381162Y15570508D01*
X78324416Y15541594D01*
X78263841Y15521913D01*
X78225605Y15506074D01*
X78198510Y15500685D01*
X78164747Y15489714D01*
X78059776Y15473089D01*
X78019878Y15465152D01*
X78009668Y15465152D01*
X77998941Y15463453D01*
X77831059Y15463453D01*
X77820332Y15465152D01*
X77810122Y15465152D01*
X77770225Y15473089D01*
X77665252Y15489714D01*
X77631486Y15500686D01*
X77604395Y15506074D01*
X77566161Y15521911D01*
X77505583Y15541594D01*
X77448832Y15570510D01*
X77410605Y15586344D01*
X77387640Y15601689D01*
X77356010Y15617805D01*
X77270021Y15680280D01*
X77236199Y15702879D01*
X77228980Y15710098D01*
X77220193Y15716482D01*
X77101481Y15835194D01*
X77095096Y15843982D01*
X77087879Y15851199D01*
X77065282Y15885017D01*
X77002804Y15971011D01*
X76986686Y16002644D01*
X76971344Y16025605D01*
X76955511Y16063828D01*
X76926593Y16120584D01*
X76906907Y16181170D01*
X76891074Y16219395D01*
X76885686Y16246482D01*
X76874713Y16280253D01*
X76858086Y16385233D01*
X76850152Y16425122D01*
X76850152Y16435332D01*
X76848453Y16446059D01*
X76848453Y16613942D01*
X76850152Y16624670D01*
X76850152Y16634878D01*
X76858085Y16674764D01*
X76874713Y16779748D01*
X76885686Y16813522D01*
X76891074Y16840605D01*
X76906905Y16878827D01*
X76926593Y16939417D01*
X76955514Y16996179D01*
X76971344Y17034395D01*
X76986684Y17057354D01*
X77002804Y17088990D01*
X77065290Y17174996D01*
X77087879Y17208801D01*
X77095093Y17216016D01*
X77101481Y17224807D01*
X77220193Y17343519D01*
X77228984Y17349907D01*
X77236199Y17357121D01*
X77270004Y17379710D01*
X77356010Y17442196D01*
X77387646Y17458316D01*
X77410605Y17473656D01*
X77448821Y17489486D01*
X77505583Y17518407D01*
X77566173Y17538095D01*
X77604395Y17553926D01*
X77631478Y17559314D01*
X77665252Y17570287D01*
X77770234Y17586914D01*
X77810122Y17594848D01*
X77820331Y17594848D01*
X77831059Y17596547D01*
X77998941Y17596547D01*
X78009669Y17594848D01*
G37*
G36*
X9519669Y18564848D02*
G01*
X9529878Y18564848D01*
X9569767Y18556914D01*
X9674747Y18540287D01*
X9708518Y18529314D01*
X9735605Y18523926D01*
X9773830Y18508093D01*
X9834416Y18488407D01*
X9891172Y18459489D01*
X9929395Y18443656D01*
X9952356Y18428314D01*
X9983989Y18412196D01*
X10069983Y18349718D01*
X10103801Y18327121D01*
X10111018Y18319904D01*
X10119806Y18313519D01*
X10238518Y18194807D01*
X10244902Y18186020D01*
X10252121Y18178801D01*
X10274720Y18144979D01*
X10337195Y18058990D01*
X10353311Y18027360D01*
X10368656Y18004395D01*
X10384490Y17966168D01*
X10413406Y17909417D01*
X10433089Y17848839D01*
X10448926Y17810605D01*
X10454314Y17783514D01*
X10465286Y17749748D01*
X10481912Y17644773D01*
X10489848Y17604878D01*
X10489848Y17594670D01*
X10491547Y17583942D01*
X10491547Y17416059D01*
X10489848Y17405332D01*
X10489848Y17395122D01*
X10481911Y17355224D01*
X10465286Y17250253D01*
X10454315Y17216490D01*
X10448926Y17189395D01*
X10433087Y17151159D01*
X10413406Y17090584D01*
X10384492Y17033838D01*
X10368656Y16995605D01*
X10353309Y16972638D01*
X10337195Y16941011D01*
X10274728Y16855035D01*
X10252121Y16821199D01*
X10244899Y16813978D01*
X10238518Y16805194D01*
X10119806Y16686482D01*
X10111022Y16680101D01*
X10103801Y16672879D01*
X10069965Y16650272D01*
X9983989Y16587805D01*
X9952362Y16571691D01*
X9929395Y16556344D01*
X9891162Y16540508D01*
X9834416Y16511594D01*
X9773841Y16491913D01*
X9735605Y16476074D01*
X9708510Y16470685D01*
X9674747Y16459714D01*
X9569776Y16443089D01*
X9529878Y16435152D01*
X9519668Y16435152D01*
X9508941Y16433453D01*
X9341059Y16433453D01*
X9330332Y16435152D01*
X9320122Y16435152D01*
X9280225Y16443089D01*
X9175252Y16459714D01*
X9141486Y16470686D01*
X9114395Y16476074D01*
X9076161Y16491911D01*
X9015583Y16511594D01*
X8958832Y16540510D01*
X8920605Y16556344D01*
X8897640Y16571689D01*
X8866010Y16587805D01*
X8780021Y16650280D01*
X8746199Y16672879D01*
X8738980Y16680098D01*
X8730193Y16686482D01*
X8611481Y16805194D01*
X8605096Y16813982D01*
X8597879Y16821199D01*
X8575282Y16855017D01*
X8512804Y16941011D01*
X8496686Y16972644D01*
X8481344Y16995605D01*
X8465511Y17033828D01*
X8436593Y17090584D01*
X8416907Y17151170D01*
X8401074Y17189395D01*
X8395686Y17216482D01*
X8384713Y17250253D01*
X8368086Y17355233D01*
X8360152Y17395122D01*
X8360152Y17405332D01*
X8358453Y17416059D01*
X8358453Y17583942D01*
X8360152Y17594670D01*
X8360152Y17604878D01*
X8368085Y17644764D01*
X8384713Y17749748D01*
X8395686Y17783522D01*
X8401074Y17810605D01*
X8416905Y17848827D01*
X8436593Y17909417D01*
X8465514Y17966179D01*
X8481344Y18004395D01*
X8496684Y18027354D01*
X8512804Y18058990D01*
X8575290Y18144996D01*
X8597879Y18178801D01*
X8605093Y18186016D01*
X8611481Y18194807D01*
X8730193Y18313519D01*
X8738984Y18319907D01*
X8746199Y18327121D01*
X8780004Y18349710D01*
X8866010Y18412196D01*
X8897646Y18428316D01*
X8920605Y18443656D01*
X8958821Y18459486D01*
X9015583Y18488407D01*
X9076173Y18508095D01*
X9114395Y18523926D01*
X9141478Y18529314D01*
X9175252Y18540287D01*
X9280234Y18556914D01*
X9320122Y18564848D01*
X9330331Y18564848D01*
X9341059Y18566547D01*
X9508941Y18566547D01*
X9519669Y18564848D01*
G37*
G36*
X22169669Y18564848D02*
G01*
X22179878Y18564848D01*
X22219767Y18556914D01*
X22324747Y18540287D01*
X22358518Y18529314D01*
X22385605Y18523926D01*
X22423830Y18508093D01*
X22484416Y18488407D01*
X22541172Y18459489D01*
X22579395Y18443656D01*
X22602356Y18428314D01*
X22633989Y18412196D01*
X22719983Y18349718D01*
X22753801Y18327121D01*
X22761018Y18319904D01*
X22769806Y18313519D01*
X22888518Y18194807D01*
X22894902Y18186020D01*
X22902121Y18178801D01*
X22924720Y18144979D01*
X22987195Y18058990D01*
X23003311Y18027360D01*
X23018656Y18004395D01*
X23034490Y17966168D01*
X23063406Y17909417D01*
X23083089Y17848839D01*
X23098926Y17810605D01*
X23104314Y17783514D01*
X23115286Y17749748D01*
X23131912Y17644773D01*
X23139848Y17604878D01*
X23139848Y17594670D01*
X23141547Y17583942D01*
X23141547Y17416059D01*
X23139848Y17405332D01*
X23139848Y17395122D01*
X23131911Y17355224D01*
X23115286Y17250253D01*
X23104315Y17216490D01*
X23098926Y17189395D01*
X23083087Y17151159D01*
X23063406Y17090584D01*
X23034492Y17033838D01*
X23018656Y16995605D01*
X23003309Y16972638D01*
X22987195Y16941011D01*
X22924728Y16855035D01*
X22902121Y16821199D01*
X22894899Y16813978D01*
X22888518Y16805194D01*
X22769806Y16686482D01*
X22761022Y16680101D01*
X22753801Y16672879D01*
X22719965Y16650272D01*
X22633989Y16587805D01*
X22602362Y16571691D01*
X22579395Y16556344D01*
X22541162Y16540508D01*
X22484416Y16511594D01*
X22423841Y16491913D01*
X22385605Y16476074D01*
X22358510Y16470685D01*
X22324747Y16459714D01*
X22219776Y16443089D01*
X22179878Y16435152D01*
X22169668Y16435152D01*
X22158941Y16433453D01*
X21991059Y16433453D01*
X21980332Y16435152D01*
X21970122Y16435152D01*
X21930225Y16443089D01*
X21825252Y16459714D01*
X21791486Y16470686D01*
X21764395Y16476074D01*
X21726161Y16491911D01*
X21665583Y16511594D01*
X21608832Y16540510D01*
X21570605Y16556344D01*
X21547640Y16571689D01*
X21516010Y16587805D01*
X21430021Y16650280D01*
X21396199Y16672879D01*
X21388980Y16680098D01*
X21380193Y16686482D01*
X21261481Y16805194D01*
X21255096Y16813982D01*
X21247879Y16821199D01*
X21225282Y16855017D01*
X21162804Y16941011D01*
X21146686Y16972644D01*
X21131344Y16995605D01*
X21115511Y17033828D01*
X21086593Y17090584D01*
X21066907Y17151170D01*
X21051074Y17189395D01*
X21045686Y17216482D01*
X21034713Y17250253D01*
X21018086Y17355233D01*
X21010152Y17395122D01*
X21010152Y17405332D01*
X21008453Y17416059D01*
X21008453Y17583942D01*
X21010152Y17594670D01*
X21010152Y17604878D01*
X21018085Y17644764D01*
X21034713Y17749748D01*
X21045686Y17783522D01*
X21051074Y17810605D01*
X21066905Y17848827D01*
X21086593Y17909417D01*
X21115514Y17966179D01*
X21131344Y18004395D01*
X21146684Y18027354D01*
X21162804Y18058990D01*
X21225290Y18144996D01*
X21247879Y18178801D01*
X21255093Y18186016D01*
X21261481Y18194807D01*
X21380193Y18313519D01*
X21388984Y18319907D01*
X21396199Y18327121D01*
X21430004Y18349710D01*
X21516010Y18412196D01*
X21547646Y18428316D01*
X21570605Y18443656D01*
X21608821Y18459486D01*
X21665583Y18488407D01*
X21726173Y18508095D01*
X21764395Y18523926D01*
X21791478Y18529314D01*
X21825252Y18540287D01*
X21930234Y18556914D01*
X21970122Y18564848D01*
X21980331Y18564848D01*
X21991059Y18566547D01*
X22158941Y18566547D01*
X22169669Y18564848D01*
G37*
G36*
X7272548Y20832538D02*
G01*
X7430115Y20767271D01*
X7571922Y20672519D01*
X7692519Y20551922D01*
X7787271Y20410115D01*
X7852538Y20252548D01*
X7885811Y20085275D01*
X7885811Y19914725D01*
X7852538Y19747452D01*
X7787271Y19589885D01*
X7692519Y19448078D01*
X7571922Y19327481D01*
X7430115Y19232729D01*
X7272548Y19167462D01*
X7105275Y19134189D01*
X6934725Y19134189D01*
X6767452Y19167462D01*
X6609885Y19232729D01*
X6468078Y19327481D01*
X6347481Y19448078D01*
X6252729Y19589885D01*
X6187462Y19747452D01*
X6154189Y19914725D01*
X6154189Y20085275D01*
X6187462Y20252548D01*
X6252729Y20410115D01*
X6347481Y20551922D01*
X6468078Y20672519D01*
X6609885Y20767271D01*
X6767452Y20832538D01*
X6934725Y20865811D01*
X7105275Y20865811D01*
X7272548Y20832538D01*
G37*
G36*
X7272548Y23332538D02*
G01*
X7430115Y23267271D01*
X7571922Y23172519D01*
X7692519Y23051922D01*
X7787271Y22910115D01*
X7852538Y22752548D01*
X7885811Y22585275D01*
X7885811Y22414725D01*
X7852538Y22247452D01*
X7787271Y22089885D01*
X7692519Y21948078D01*
X7571922Y21827481D01*
X7430115Y21732729D01*
X7272548Y21667462D01*
X7105275Y21634189D01*
X6934725Y21634189D01*
X6767452Y21667462D01*
X6609885Y21732729D01*
X6468078Y21827481D01*
X6347481Y21948078D01*
X6252729Y22089885D01*
X6187462Y22247452D01*
X6154189Y22414725D01*
X6154189Y22585275D01*
X6187462Y22752548D01*
X6252729Y22910115D01*
X6347481Y23051922D01*
X6468078Y23172519D01*
X6609885Y23267271D01*
X6767452Y23332538D01*
X6934725Y23365811D01*
X7105275Y23365811D01*
X7272548Y23332538D01*
G37*
G36*
X7272548Y25832538D02*
G01*
X7430115Y25767271D01*
X7571922Y25672519D01*
X7692519Y25551922D01*
X7787271Y25410115D01*
X7852538Y25252548D01*
X7885811Y25085275D01*
X7885811Y24914725D01*
X7852538Y24747452D01*
X7787271Y24589885D01*
X7692519Y24448078D01*
X7571922Y24327481D01*
X7430115Y24232729D01*
X7272548Y24167462D01*
X7105275Y24134189D01*
X6934725Y24134189D01*
X6767452Y24167462D01*
X6609885Y24232729D01*
X6468078Y24327481D01*
X6347481Y24448078D01*
X6252729Y24589885D01*
X6187462Y24747452D01*
X6154189Y24914725D01*
X6154189Y25085275D01*
X6187462Y25252548D01*
X6252729Y25410115D01*
X6347481Y25551922D01*
X6468078Y25672519D01*
X6609885Y25767271D01*
X6767452Y25832538D01*
X6934725Y25865811D01*
X7105275Y25865811D01*
X7272548Y25832538D01*
G37*
G36*
X37942548Y28042538D02*
G01*
X38100115Y27977271D01*
X38241922Y27882519D01*
X38362519Y27761922D01*
X38457271Y27620115D01*
X38522538Y27462548D01*
X38555811Y27295275D01*
X38555811Y27124725D01*
X38522538Y26957452D01*
X38457271Y26799885D01*
X38362519Y26658078D01*
X38241922Y26537481D01*
X38100115Y26442729D01*
X37942548Y26377462D01*
X37775275Y26344189D01*
X37604725Y26344189D01*
X37437452Y26377462D01*
X37279885Y26442729D01*
X37138078Y26537481D01*
X37017481Y26658078D01*
X36922729Y26799885D01*
X36857462Y26957452D01*
X36824189Y27124725D01*
X36824189Y27295275D01*
X36857462Y27462548D01*
X36922729Y27620115D01*
X37017481Y27761922D01*
X37138078Y27882519D01*
X37279885Y27977271D01*
X37437452Y28042538D01*
X37604725Y28075811D01*
X37775275Y28075811D01*
X37942548Y28042538D01*
G37*
G36*
X45562548Y28042538D02*
G01*
X45720115Y27977271D01*
X45861922Y27882519D01*
X45982519Y27761922D01*
X46077271Y27620115D01*
X46142538Y27462548D01*
X46175811Y27295275D01*
X46175811Y27124725D01*
X46142538Y26957452D01*
X46077271Y26799885D01*
X45982519Y26658078D01*
X45861922Y26537481D01*
X45720115Y26442729D01*
X45562548Y26377462D01*
X45395275Y26344189D01*
X45224725Y26344189D01*
X45057452Y26377462D01*
X44899885Y26442729D01*
X44758078Y26537481D01*
X44637481Y26658078D01*
X44542729Y26799885D01*
X44477462Y26957452D01*
X44444189Y27124725D01*
X44444189Y27295275D01*
X44477462Y27462548D01*
X44542729Y27620115D01*
X44637481Y27761922D01*
X44758078Y27882519D01*
X44899885Y27977271D01*
X45057452Y28042538D01*
X45224725Y28075811D01*
X45395275Y28075811D01*
X45562548Y28042538D01*
G37*
G36*
X9519669Y28564848D02*
G01*
X9529878Y28564848D01*
X9569767Y28556914D01*
X9674747Y28540287D01*
X9708518Y28529314D01*
X9735605Y28523926D01*
X9773830Y28508093D01*
X9834416Y28488407D01*
X9891172Y28459489D01*
X9929395Y28443656D01*
X9952356Y28428314D01*
X9983989Y28412196D01*
X10069983Y28349718D01*
X10103801Y28327121D01*
X10111018Y28319904D01*
X10119806Y28313519D01*
X10238518Y28194807D01*
X10244902Y28186020D01*
X10252121Y28178801D01*
X10274720Y28144979D01*
X10337195Y28058990D01*
X10353311Y28027360D01*
X10368656Y28004395D01*
X10384490Y27966168D01*
X10413406Y27909417D01*
X10433089Y27848839D01*
X10448926Y27810605D01*
X10454314Y27783514D01*
X10465286Y27749748D01*
X10481912Y27644773D01*
X10489848Y27604878D01*
X10489848Y27594670D01*
X10491547Y27583942D01*
X10491547Y27416059D01*
X10489848Y27405332D01*
X10489848Y27395122D01*
X10481911Y27355224D01*
X10465286Y27250253D01*
X10454315Y27216490D01*
X10448926Y27189395D01*
X10433087Y27151159D01*
X10413406Y27090584D01*
X10384492Y27033838D01*
X10368656Y26995605D01*
X10353309Y26972638D01*
X10337195Y26941011D01*
X10274728Y26855035D01*
X10252121Y26821199D01*
X10244899Y26813978D01*
X10238518Y26805194D01*
X10119806Y26686482D01*
X10111022Y26680101D01*
X10103801Y26672879D01*
X10069965Y26650272D01*
X9983989Y26587805D01*
X9952362Y26571691D01*
X9929395Y26556344D01*
X9891162Y26540508D01*
X9834416Y26511594D01*
X9773841Y26491913D01*
X9735605Y26476074D01*
X9708510Y26470685D01*
X9674747Y26459714D01*
X9569776Y26443089D01*
X9529878Y26435152D01*
X9519668Y26435152D01*
X9508941Y26433453D01*
X9341059Y26433453D01*
X9330332Y26435152D01*
X9320122Y26435152D01*
X9280225Y26443089D01*
X9175252Y26459714D01*
X9141486Y26470686D01*
X9114395Y26476074D01*
X9076161Y26491911D01*
X9015583Y26511594D01*
X8958832Y26540510D01*
X8920605Y26556344D01*
X8897640Y26571689D01*
X8866010Y26587805D01*
X8780021Y26650280D01*
X8746199Y26672879D01*
X8738980Y26680098D01*
X8730193Y26686482D01*
X8611481Y26805194D01*
X8605096Y26813982D01*
X8597879Y26821199D01*
X8575282Y26855017D01*
X8512804Y26941011D01*
X8496686Y26972644D01*
X8481344Y26995605D01*
X8465511Y27033828D01*
X8436593Y27090584D01*
X8416907Y27151170D01*
X8401074Y27189395D01*
X8395686Y27216482D01*
X8384713Y27250253D01*
X8368086Y27355233D01*
X8360152Y27395122D01*
X8360152Y27405332D01*
X8358453Y27416059D01*
X8358453Y27583942D01*
X8360152Y27594670D01*
X8360152Y27604878D01*
X8368085Y27644764D01*
X8384713Y27749748D01*
X8395686Y27783522D01*
X8401074Y27810605D01*
X8416905Y27848827D01*
X8436593Y27909417D01*
X8465514Y27966179D01*
X8481344Y28004395D01*
X8496684Y28027354D01*
X8512804Y28058990D01*
X8575290Y28144996D01*
X8597879Y28178801D01*
X8605093Y28186016D01*
X8611481Y28194807D01*
X8730193Y28313519D01*
X8738984Y28319907D01*
X8746199Y28327121D01*
X8780004Y28349710D01*
X8866010Y28412196D01*
X8897646Y28428316D01*
X8920605Y28443656D01*
X8958821Y28459486D01*
X9015583Y28488407D01*
X9076173Y28508095D01*
X9114395Y28523926D01*
X9141478Y28529314D01*
X9175252Y28540287D01*
X9280234Y28556914D01*
X9320122Y28564848D01*
X9330331Y28564848D01*
X9341059Y28566547D01*
X9508941Y28566547D01*
X9519669Y28564848D01*
G37*
G36*
X22169669Y28564848D02*
G01*
X22179878Y28564848D01*
X22219767Y28556914D01*
X22324747Y28540287D01*
X22358518Y28529314D01*
X22385605Y28523926D01*
X22423830Y28508093D01*
X22484416Y28488407D01*
X22541172Y28459489D01*
X22579395Y28443656D01*
X22602356Y28428314D01*
X22633989Y28412196D01*
X22719983Y28349718D01*
X22753801Y28327121D01*
X22761018Y28319904D01*
X22769806Y28313519D01*
X22888518Y28194807D01*
X22894902Y28186020D01*
X22902121Y28178801D01*
X22924720Y28144979D01*
X22987195Y28058990D01*
X23003311Y28027360D01*
X23018656Y28004395D01*
X23034490Y27966168D01*
X23063406Y27909417D01*
X23083089Y27848839D01*
X23098926Y27810605D01*
X23104314Y27783514D01*
X23115286Y27749748D01*
X23131912Y27644773D01*
X23139848Y27604878D01*
X23139848Y27594670D01*
X23141547Y27583942D01*
X23141547Y27416059D01*
X23139848Y27405332D01*
X23139848Y27395122D01*
X23131911Y27355224D01*
X23115286Y27250253D01*
X23104315Y27216490D01*
X23098926Y27189395D01*
X23083087Y27151159D01*
X23063406Y27090584D01*
X23034492Y27033838D01*
X23018656Y26995605D01*
X23003309Y26972638D01*
X22987195Y26941011D01*
X22924728Y26855035D01*
X22902121Y26821199D01*
X22894899Y26813978D01*
X22888518Y26805194D01*
X22769806Y26686482D01*
X22761022Y26680101D01*
X22753801Y26672879D01*
X22719965Y26650272D01*
X22633989Y26587805D01*
X22602362Y26571691D01*
X22579395Y26556344D01*
X22541162Y26540508D01*
X22484416Y26511594D01*
X22423841Y26491913D01*
X22385605Y26476074D01*
X22358510Y26470685D01*
X22324747Y26459714D01*
X22219776Y26443089D01*
X22179878Y26435152D01*
X22169668Y26435152D01*
X22158941Y26433453D01*
X21991059Y26433453D01*
X21980332Y26435152D01*
X21970122Y26435152D01*
X21930225Y26443089D01*
X21825252Y26459714D01*
X21791486Y26470686D01*
X21764395Y26476074D01*
X21726161Y26491911D01*
X21665583Y26511594D01*
X21608832Y26540510D01*
X21570605Y26556344D01*
X21547640Y26571689D01*
X21516010Y26587805D01*
X21430021Y26650280D01*
X21396199Y26672879D01*
X21388980Y26680098D01*
X21380193Y26686482D01*
X21261481Y26805194D01*
X21255096Y26813982D01*
X21247879Y26821199D01*
X21225282Y26855017D01*
X21162804Y26941011D01*
X21146686Y26972644D01*
X21131344Y26995605D01*
X21115511Y27033828D01*
X21086593Y27090584D01*
X21066907Y27151170D01*
X21051074Y27189395D01*
X21045686Y27216482D01*
X21034713Y27250253D01*
X21018086Y27355233D01*
X21010152Y27395122D01*
X21010152Y27405332D01*
X21008453Y27416059D01*
X21008453Y27583942D01*
X21010152Y27594670D01*
X21010152Y27604878D01*
X21018085Y27644764D01*
X21034713Y27749748D01*
X21045686Y27783522D01*
X21051074Y27810605D01*
X21066905Y27848827D01*
X21086593Y27909417D01*
X21115514Y27966179D01*
X21131344Y28004395D01*
X21146684Y28027354D01*
X21162804Y28058990D01*
X21225290Y28144996D01*
X21247879Y28178801D01*
X21255093Y28186016D01*
X21261481Y28194807D01*
X21380193Y28313519D01*
X21388984Y28319907D01*
X21396199Y28327121D01*
X21430004Y28349710D01*
X21516010Y28412196D01*
X21547646Y28428316D01*
X21570605Y28443656D01*
X21608821Y28459486D01*
X21665583Y28488407D01*
X21726173Y28508095D01*
X21764395Y28523926D01*
X21791478Y28529314D01*
X21825252Y28540287D01*
X21930234Y28556914D01*
X21970122Y28564848D01*
X21980331Y28564848D01*
X21991059Y28566547D01*
X22158941Y28566547D01*
X22169669Y28564848D01*
G37*
G36*
X12781576Y29178232D02*
G01*
X12957255Y29105464D01*
X13115361Y28999820D01*
X13249820Y28865361D01*
X13355464Y28707255D01*
X13428232Y28531576D01*
X13465329Y28345077D01*
X13465329Y28154923D01*
X13428232Y27968424D01*
X13355464Y27792745D01*
X13249820Y27634639D01*
X13115361Y27500180D01*
X12957255Y27394536D01*
X12781576Y27321768D01*
X12595077Y27284671D01*
X12404923Y27284671D01*
X12218424Y27321768D01*
X12042745Y27394536D01*
X11884639Y27500180D01*
X11750180Y27634639D01*
X11644536Y27792745D01*
X11571768Y27968424D01*
X11534671Y28154923D01*
X11534671Y28345077D01*
X11571768Y28531576D01*
X11644536Y28707255D01*
X11750180Y28865361D01*
X11884639Y28999820D01*
X12042745Y29105464D01*
X12218424Y29178232D01*
X12404923Y29215329D01*
X12595077Y29215329D01*
X12781576Y29178232D01*
G37*
G36*
X19281576Y29178232D02*
G01*
X19457255Y29105464D01*
X19615361Y28999820D01*
X19749820Y28865361D01*
X19855464Y28707255D01*
X19928232Y28531576D01*
X19965329Y28345077D01*
X19965329Y28154923D01*
X19928232Y27968424D01*
X19855464Y27792745D01*
X19749820Y27634639D01*
X19615361Y27500180D01*
X19457255Y27394536D01*
X19281576Y27321768D01*
X19095077Y27284671D01*
X18904923Y27284671D01*
X18718424Y27321768D01*
X18542745Y27394536D01*
X18384639Y27500180D01*
X18250180Y27634639D01*
X18144536Y27792745D01*
X18071768Y27968424D01*
X18034671Y28154923D01*
X18034671Y28345077D01*
X18071768Y28531576D01*
X18144536Y28707255D01*
X18250180Y28865361D01*
X18384639Y28999820D01*
X18542745Y29105464D01*
X18718424Y29178232D01*
X18904923Y29215329D01*
X19095077Y29215329D01*
X19281576Y29178232D01*
G37*
G36*
X66234328Y32432147D02*
G01*
X66483236Y32365452D01*
X66721309Y32266839D01*
X66944473Y32137995D01*
X67148911Y31981124D01*
X67331124Y31798911D01*
X67487995Y31594473D01*
X67616839Y31371309D01*
X67715452Y31133236D01*
X67782147Y30884328D01*
X67815782Y30628844D01*
X67815782Y30371156D01*
X67782147Y30115672D01*
X67715452Y29866764D01*
X67616839Y29628691D01*
X67487995Y29405527D01*
X67331124Y29201089D01*
X67148911Y29018876D01*
X66944473Y28862005D01*
X66721309Y28733161D01*
X66483236Y28634548D01*
X66234328Y28567853D01*
X65978844Y28534218D01*
X65721156Y28534218D01*
X65465672Y28567853D01*
X65216764Y28634548D01*
X64978691Y28733161D01*
X64755527Y28862005D01*
X64551089Y29018876D01*
X64368876Y29201089D01*
X64212005Y29405527D01*
X64083161Y29628691D01*
X63984548Y29866764D01*
X63917853Y30115672D01*
X63884218Y30371156D01*
X63884218Y30628844D01*
X63917853Y30884328D01*
X63984548Y31133236D01*
X64083161Y31371309D01*
X64212005Y31594473D01*
X64368876Y31798911D01*
X64551089Y31981124D01*
X64755527Y32137995D01*
X64978691Y32266839D01*
X65216764Y32365452D01*
X65465672Y32432147D01*
X65721156Y32465782D01*
X65978844Y32465782D01*
X66234328Y32432147D01*
G37*
G36*
X85284327Y32432147D02*
G01*
X85533235Y32365452D01*
X85771308Y32266839D01*
X85994472Y32137995D01*
X86198910Y31981124D01*
X86381123Y31798911D01*
X86537994Y31594473D01*
X86666838Y31371309D01*
X86765451Y31133236D01*
X86832146Y30884328D01*
X86865781Y30628844D01*
X86865781Y30371156D01*
X86832146Y30115672D01*
X86765451Y29866764D01*
X86666838Y29628691D01*
X86537994Y29405527D01*
X86381123Y29201089D01*
X86198910Y29018876D01*
X85994472Y28862005D01*
X85771308Y28733161D01*
X85533235Y28634548D01*
X85284327Y28567853D01*
X85028843Y28534218D01*
X84771155Y28534218D01*
X84515671Y28567853D01*
X84266763Y28634548D01*
X84028690Y28733161D01*
X83805526Y28862005D01*
X83601088Y29018876D01*
X83418875Y29201089D01*
X83262004Y29405527D01*
X83133160Y29628691D01*
X83034547Y29866764D01*
X82967852Y30115672D01*
X82934217Y30371156D01*
X82934217Y30628844D01*
X82967852Y30884328D01*
X83034547Y31133236D01*
X83133160Y31371309D01*
X83262004Y31594473D01*
X83418875Y31798911D01*
X83601088Y31981124D01*
X83805526Y32137995D01*
X84028690Y32266839D01*
X84266763Y32365452D01*
X84515671Y32432147D01*
X84771155Y32465782D01*
X85028843Y32465782D01*
X85284327Y32432147D01*
G37*
G36*
X37942548Y30582538D02*
G01*
X38100115Y30517271D01*
X38241922Y30422519D01*
X38362519Y30301922D01*
X38457271Y30160115D01*
X38522538Y30002548D01*
X38555811Y29835275D01*
X38555811Y29664725D01*
X38522538Y29497452D01*
X38457271Y29339885D01*
X38362519Y29198078D01*
X38241922Y29077481D01*
X38100115Y28982729D01*
X37942548Y28917462D01*
X37775275Y28884189D01*
X37604725Y28884189D01*
X37437452Y28917462D01*
X37279885Y28982729D01*
X37138078Y29077481D01*
X37017481Y29198078D01*
X36922729Y29339885D01*
X36857462Y29497452D01*
X36824189Y29664725D01*
X36824189Y29835275D01*
X36857462Y30002548D01*
X36922729Y30160115D01*
X37017481Y30301922D01*
X37138078Y30422519D01*
X37279885Y30517271D01*
X37437452Y30582538D01*
X37604725Y30615811D01*
X37775275Y30615811D01*
X37942548Y30582538D01*
G37*
G36*
X45562548Y30582538D02*
G01*
X45720115Y30517271D01*
X45861922Y30422519D01*
X45982519Y30301922D01*
X46077271Y30160115D01*
X46142538Y30002548D01*
X46175811Y29835275D01*
X46175811Y29664725D01*
X46142538Y29497452D01*
X46077271Y29339885D01*
X45982519Y29198078D01*
X45861922Y29077481D01*
X45720115Y28982729D01*
X45562548Y28917462D01*
X45395275Y28884189D01*
X45224725Y28884189D01*
X45057452Y28917462D01*
X44899885Y28982729D01*
X44758078Y29077481D01*
X44637481Y29198078D01*
X44542729Y29339885D01*
X44477462Y29497452D01*
X44444189Y29664725D01*
X44444189Y29835275D01*
X44477462Y30002548D01*
X44542729Y30160115D01*
X44637481Y30301922D01*
X44758078Y30422519D01*
X44899885Y30517271D01*
X45057452Y30582538D01*
X45224725Y30615811D01*
X45395275Y30615811D01*
X45562548Y30582538D01*
G37*
G36*
X46167654Y33158478D02*
G01*
X46174142Y33154142D01*
X46178478Y33147654D01*
X46180000Y33140000D01*
X46180000Y31440000D01*
X46178478Y31432346D01*
X46174142Y31425858D01*
X46167654Y31421522D01*
X46160000Y31420000D01*
X44460000Y31420000D01*
X44452346Y31421522D01*
X44445858Y31425858D01*
X44441522Y31432346D01*
X44440000Y31440000D01*
X44440000Y33140000D01*
X44441522Y33147654D01*
X44445858Y33154142D01*
X44452346Y33158478D01*
X44460000Y33160000D01*
X46160000Y33160000D01*
X46167654Y33158478D01*
G37*
G36*
X37942548Y33122538D02*
G01*
X38100115Y33057271D01*
X38241922Y32962519D01*
X38362519Y32841922D01*
X38457271Y32700115D01*
X38522538Y32542548D01*
X38555811Y32375275D01*
X38555811Y32204725D01*
X38522538Y32037452D01*
X38457271Y31879885D01*
X38362519Y31738078D01*
X38241922Y31617481D01*
X38100115Y31522729D01*
X37942548Y31457462D01*
X37775275Y31424189D01*
X37604725Y31424189D01*
X37437452Y31457462D01*
X37279885Y31522729D01*
X37138078Y31617481D01*
X37017481Y31738078D01*
X36922729Y31879885D01*
X36857462Y32037452D01*
X36824189Y32204725D01*
X36824189Y32375275D01*
X36857462Y32542548D01*
X36922729Y32700115D01*
X37017481Y32841922D01*
X37138078Y32962519D01*
X37279885Y33057271D01*
X37437452Y33122538D01*
X37604725Y33155811D01*
X37775275Y33155811D01*
X37942548Y33122538D01*
G37*
G36*
X12781576Y33678232D02*
G01*
X12957255Y33605464D01*
X13115361Y33499820D01*
X13249820Y33365361D01*
X13355464Y33207255D01*
X13428232Y33031576D01*
X13465329Y32845077D01*
X13465329Y32654923D01*
X13428232Y32468424D01*
X13355464Y32292745D01*
X13249820Y32134639D01*
X13115361Y32000180D01*
X12957255Y31894536D01*
X12781576Y31821768D01*
X12595077Y31784671D01*
X12404923Y31784671D01*
X12218424Y31821768D01*
X12042745Y31894536D01*
X11884639Y32000180D01*
X11750180Y32134639D01*
X11644536Y32292745D01*
X11571768Y32468424D01*
X11534671Y32654923D01*
X11534671Y32845077D01*
X11571768Y33031576D01*
X11644536Y33207255D01*
X11750180Y33365361D01*
X11884639Y33499820D01*
X12042745Y33605464D01*
X12218424Y33678232D01*
X12404923Y33715329D01*
X12595077Y33715329D01*
X12781576Y33678232D01*
G37*
G36*
X19281576Y33678232D02*
G01*
X19457255Y33605464D01*
X19615361Y33499820D01*
X19749820Y33365361D01*
X19855464Y33207255D01*
X19928232Y33031576D01*
X19965329Y32845077D01*
X19965329Y32654923D01*
X19928232Y32468424D01*
X19855464Y32292745D01*
X19749820Y32134639D01*
X19615361Y32000180D01*
X19457255Y31894536D01*
X19281576Y31821768D01*
X19095077Y31784671D01*
X18904923Y31784671D01*
X18718424Y31821768D01*
X18542745Y31894536D01*
X18384639Y32000180D01*
X18250180Y32134639D01*
X18144536Y32292745D01*
X18071768Y32468424D01*
X18034671Y32654923D01*
X18034671Y32845077D01*
X18071768Y33031576D01*
X18144536Y33207255D01*
X18250180Y33365361D01*
X18384639Y33499820D01*
X18542745Y33605464D01*
X18718424Y33678232D01*
X18904923Y33715329D01*
X19095077Y33715329D01*
X19281576Y33678232D01*
G37*
G36*
X62134669Y34104848D02*
G01*
X62144878Y34104848D01*
X62184767Y34096914D01*
X62289747Y34080287D01*
X62323518Y34069314D01*
X62350605Y34063926D01*
X62388830Y34048093D01*
X62449416Y34028407D01*
X62506172Y33999489D01*
X62544395Y33983656D01*
X62567356Y33968314D01*
X62598989Y33952196D01*
X62684983Y33889718D01*
X62718801Y33867121D01*
X62726018Y33859904D01*
X62734806Y33853519D01*
X62853518Y33734807D01*
X62859902Y33726020D01*
X62867121Y33718801D01*
X62889720Y33684979D01*
X62952195Y33598990D01*
X62968311Y33567360D01*
X62983656Y33544395D01*
X62999490Y33506168D01*
X63028406Y33449417D01*
X63048089Y33388839D01*
X63063926Y33350605D01*
X63069314Y33323514D01*
X63080286Y33289748D01*
X63096912Y33184773D01*
X63104848Y33144878D01*
X63104848Y33134670D01*
X63106547Y33123942D01*
X63106547Y32956059D01*
X63104848Y32945332D01*
X63104848Y32935122D01*
X63096911Y32895224D01*
X63080286Y32790253D01*
X63069315Y32756490D01*
X63063926Y32729395D01*
X63048087Y32691159D01*
X63028406Y32630584D01*
X62999492Y32573838D01*
X62983656Y32535605D01*
X62968309Y32512638D01*
X62952195Y32481011D01*
X62889728Y32395035D01*
X62867121Y32361199D01*
X62859899Y32353978D01*
X62853518Y32345194D01*
X62734806Y32226482D01*
X62726022Y32220101D01*
X62718801Y32212879D01*
X62684965Y32190272D01*
X62598989Y32127805D01*
X62567362Y32111691D01*
X62544395Y32096344D01*
X62506162Y32080508D01*
X62449416Y32051594D01*
X62388841Y32031913D01*
X62350605Y32016074D01*
X62323510Y32010685D01*
X62289747Y31999714D01*
X62184776Y31983089D01*
X62144878Y31975152D01*
X62134668Y31975152D01*
X62123941Y31973453D01*
X61956059Y31973453D01*
X61945332Y31975152D01*
X61935122Y31975152D01*
X61895225Y31983089D01*
X61790252Y31999714D01*
X61756486Y32010686D01*
X61729395Y32016074D01*
X61691161Y32031911D01*
X61630583Y32051594D01*
X61573832Y32080510D01*
X61535605Y32096344D01*
X61512640Y32111689D01*
X61481010Y32127805D01*
X61395021Y32190280D01*
X61361199Y32212879D01*
X61353980Y32220098D01*
X61345193Y32226482D01*
X61226481Y32345194D01*
X61220096Y32353982D01*
X61212879Y32361199D01*
X61190282Y32395017D01*
X61127804Y32481011D01*
X61111686Y32512644D01*
X61096344Y32535605D01*
X61080511Y32573828D01*
X61051593Y32630584D01*
X61031907Y32691170D01*
X61016074Y32729395D01*
X61010686Y32756482D01*
X60999713Y32790253D01*
X60983086Y32895233D01*
X60975152Y32935122D01*
X60975152Y32945332D01*
X60973453Y32956059D01*
X60973453Y33123942D01*
X60975152Y33134670D01*
X60975152Y33144878D01*
X60983085Y33184764D01*
X60999713Y33289748D01*
X61010686Y33323522D01*
X61016074Y33350605D01*
X61031905Y33388827D01*
X61051593Y33449417D01*
X61080514Y33506179D01*
X61096344Y33544395D01*
X61111684Y33567354D01*
X61127804Y33598990D01*
X61190290Y33684996D01*
X61212879Y33718801D01*
X61220093Y33726016D01*
X61226481Y33734807D01*
X61345193Y33853519D01*
X61353984Y33859907D01*
X61361199Y33867121D01*
X61395004Y33889710D01*
X61481010Y33952196D01*
X61512646Y33968316D01*
X61535605Y33983656D01*
X61573821Y33999486D01*
X61630583Y34028407D01*
X61691173Y34048095D01*
X61729395Y34063926D01*
X61756478Y34069314D01*
X61790252Y34080287D01*
X61895234Y34096914D01*
X61935122Y34104848D01*
X61945331Y34104848D01*
X61956059Y34106547D01*
X62123941Y34106547D01*
X62134669Y34104848D01*
G37*
G36*
X81184668Y34104848D02*
G01*
X81194877Y34104848D01*
X81234766Y34096914D01*
X81339746Y34080287D01*
X81373517Y34069314D01*
X81400604Y34063926D01*
X81438829Y34048093D01*
X81499415Y34028407D01*
X81556171Y33999489D01*
X81594394Y33983656D01*
X81617355Y33968314D01*
X81648988Y33952196D01*
X81734982Y33889718D01*
X81768800Y33867121D01*
X81776017Y33859904D01*
X81784805Y33853519D01*
X81903517Y33734807D01*
X81909901Y33726020D01*
X81917120Y33718801D01*
X81939719Y33684979D01*
X82002194Y33598990D01*
X82018310Y33567360D01*
X82033655Y33544395D01*
X82049489Y33506168D01*
X82078405Y33449417D01*
X82098088Y33388839D01*
X82113925Y33350605D01*
X82119313Y33323514D01*
X82130285Y33289748D01*
X82146911Y33184773D01*
X82154847Y33144878D01*
X82154847Y33134670D01*
X82156546Y33123942D01*
X82156546Y32956059D01*
X82154847Y32945332D01*
X82154847Y32935122D01*
X82146910Y32895224D01*
X82130285Y32790253D01*
X82119314Y32756490D01*
X82113925Y32729395D01*
X82098086Y32691159D01*
X82078405Y32630584D01*
X82049491Y32573838D01*
X82033655Y32535605D01*
X82018308Y32512638D01*
X82002194Y32481011D01*
X81939727Y32395035D01*
X81917120Y32361199D01*
X81909898Y32353978D01*
X81903517Y32345194D01*
X81784805Y32226482D01*
X81776021Y32220101D01*
X81768800Y32212879D01*
X81734964Y32190272D01*
X81648988Y32127805D01*
X81617361Y32111691D01*
X81594394Y32096344D01*
X81556161Y32080508D01*
X81499415Y32051594D01*
X81438840Y32031913D01*
X81400604Y32016074D01*
X81373509Y32010685D01*
X81339746Y31999714D01*
X81234775Y31983089D01*
X81194877Y31975152D01*
X81184667Y31975152D01*
X81173940Y31973453D01*
X81006058Y31973453D01*
X80995331Y31975152D01*
X80985121Y31975152D01*
X80945224Y31983089D01*
X80840251Y31999714D01*
X80806485Y32010686D01*
X80779394Y32016074D01*
X80741160Y32031911D01*
X80680582Y32051594D01*
X80623831Y32080510D01*
X80585604Y32096344D01*
X80562639Y32111689D01*
X80531009Y32127805D01*
X80445020Y32190280D01*
X80411198Y32212879D01*
X80403979Y32220098D01*
X80395192Y32226482D01*
X80276480Y32345194D01*
X80270095Y32353982D01*
X80262878Y32361199D01*
X80240281Y32395017D01*
X80177803Y32481011D01*
X80161685Y32512644D01*
X80146343Y32535605D01*
X80130510Y32573828D01*
X80101592Y32630584D01*
X80081906Y32691170D01*
X80066073Y32729395D01*
X80060685Y32756482D01*
X80049712Y32790253D01*
X80033085Y32895233D01*
X80025151Y32935122D01*
X80025151Y32945332D01*
X80023452Y32956059D01*
X80023452Y33123942D01*
X80025151Y33134670D01*
X80025151Y33144878D01*
X80033084Y33184764D01*
X80049712Y33289748D01*
X80060685Y33323522D01*
X80066073Y33350605D01*
X80081904Y33388827D01*
X80101592Y33449417D01*
X80130513Y33506179D01*
X80146343Y33544395D01*
X80161683Y33567354D01*
X80177803Y33598990D01*
X80240289Y33684996D01*
X80262878Y33718801D01*
X80270092Y33726016D01*
X80276480Y33734807D01*
X80395192Y33853519D01*
X80403983Y33859907D01*
X80411198Y33867121D01*
X80445003Y33889710D01*
X80531009Y33952196D01*
X80562645Y33968316D01*
X80585604Y33983656D01*
X80623820Y33999486D01*
X80680582Y34028407D01*
X80741172Y34048095D01*
X80779394Y34063926D01*
X80806477Y34069314D01*
X80840251Y34080287D01*
X80945233Y34096914D01*
X80985121Y34104848D01*
X80995330Y34104848D01*
X81006058Y34106547D01*
X81173940Y34106547D01*
X81184668Y34104848D01*
G37*
G36*
X68484669Y36644848D02*
G01*
X68494878Y36644848D01*
X68534767Y36636914D01*
X68639747Y36620287D01*
X68673518Y36609314D01*
X68700605Y36603926D01*
X68738830Y36588093D01*
X68799416Y36568407D01*
X68856172Y36539489D01*
X68894395Y36523656D01*
X68917356Y36508314D01*
X68948989Y36492196D01*
X69034983Y36429718D01*
X69068801Y36407121D01*
X69076018Y36399904D01*
X69084806Y36393519D01*
X69203518Y36274807D01*
X69209902Y36266020D01*
X69217121Y36258801D01*
X69239720Y36224979D01*
X69302195Y36138990D01*
X69318311Y36107360D01*
X69333656Y36084395D01*
X69349490Y36046168D01*
X69378406Y35989417D01*
X69398089Y35928839D01*
X69413926Y35890605D01*
X69419314Y35863514D01*
X69430286Y35829748D01*
X69446912Y35724773D01*
X69454848Y35684878D01*
X69454848Y35674670D01*
X69456547Y35663942D01*
X69456547Y35496059D01*
X69454848Y35485332D01*
X69454848Y35475122D01*
X69446911Y35435224D01*
X69430286Y35330253D01*
X69419315Y35296490D01*
X69413926Y35269395D01*
X69398087Y35231159D01*
X69378406Y35170584D01*
X69349492Y35113838D01*
X69333656Y35075605D01*
X69318309Y35052638D01*
X69302195Y35021011D01*
X69239728Y34935035D01*
X69217121Y34901199D01*
X69209899Y34893978D01*
X69203518Y34885194D01*
X69084806Y34766482D01*
X69076022Y34760101D01*
X69068801Y34752879D01*
X69034965Y34730272D01*
X68948989Y34667805D01*
X68917362Y34651691D01*
X68894395Y34636344D01*
X68856162Y34620508D01*
X68799416Y34591594D01*
X68738841Y34571913D01*
X68700605Y34556074D01*
X68673510Y34550685D01*
X68639747Y34539714D01*
X68534776Y34523089D01*
X68494878Y34515152D01*
X68484668Y34515152D01*
X68473941Y34513453D01*
X68306059Y34513453D01*
X68295332Y34515152D01*
X68285122Y34515152D01*
X68245225Y34523089D01*
X68140252Y34539714D01*
X68106486Y34550686D01*
X68079395Y34556074D01*
X68041161Y34571911D01*
X67980583Y34591594D01*
X67923832Y34620510D01*
X67885605Y34636344D01*
X67862640Y34651689D01*
X67831010Y34667805D01*
X67745021Y34730280D01*
X67711199Y34752879D01*
X67703980Y34760098D01*
X67695193Y34766482D01*
X67576481Y34885194D01*
X67570096Y34893982D01*
X67562879Y34901199D01*
X67540282Y34935017D01*
X67477804Y35021011D01*
X67461686Y35052644D01*
X67446344Y35075605D01*
X67430511Y35113828D01*
X67401593Y35170584D01*
X67381907Y35231170D01*
X67366074Y35269395D01*
X67360686Y35296482D01*
X67349713Y35330253D01*
X67333086Y35435233D01*
X67325152Y35475122D01*
X67325152Y35485332D01*
X67323453Y35496059D01*
X67323453Y35663942D01*
X67325152Y35674670D01*
X67325152Y35684878D01*
X67333085Y35724764D01*
X67349713Y35829748D01*
X67360686Y35863522D01*
X67366074Y35890605D01*
X67381905Y35928827D01*
X67401593Y35989417D01*
X67430514Y36046179D01*
X67446344Y36084395D01*
X67461684Y36107354D01*
X67477804Y36138990D01*
X67540290Y36224996D01*
X67562879Y36258801D01*
X67570093Y36266016D01*
X67576481Y36274807D01*
X67695193Y36393519D01*
X67703984Y36399907D01*
X67711199Y36407121D01*
X67745004Y36429710D01*
X67831010Y36492196D01*
X67862646Y36508316D01*
X67885605Y36523656D01*
X67923821Y36539486D01*
X67980583Y36568407D01*
X68041173Y36588095D01*
X68079395Y36603926D01*
X68106478Y36609314D01*
X68140252Y36620287D01*
X68245234Y36636914D01*
X68285122Y36644848D01*
X68295331Y36644848D01*
X68306059Y36646547D01*
X68473941Y36646547D01*
X68484669Y36644848D01*
G37*
G36*
X87534668Y36644848D02*
G01*
X87544877Y36644848D01*
X87584766Y36636914D01*
X87689746Y36620287D01*
X87723517Y36609314D01*
X87750604Y36603926D01*
X87788829Y36588093D01*
X87849415Y36568407D01*
X87906171Y36539489D01*
X87944394Y36523656D01*
X87967355Y36508314D01*
X87998988Y36492196D01*
X88084982Y36429718D01*
X88118800Y36407121D01*
X88126017Y36399904D01*
X88134805Y36393519D01*
X88253517Y36274807D01*
X88259901Y36266020D01*
X88267120Y36258801D01*
X88289719Y36224979D01*
X88352194Y36138990D01*
X88368310Y36107360D01*
X88383655Y36084395D01*
X88399489Y36046168D01*
X88428405Y35989417D01*
X88448088Y35928839D01*
X88463925Y35890605D01*
X88469313Y35863514D01*
X88480285Y35829748D01*
X88496911Y35724773D01*
X88504847Y35684878D01*
X88504847Y35674670D01*
X88506546Y35663942D01*
X88506546Y35496059D01*
X88504847Y35485332D01*
X88504847Y35475122D01*
X88496910Y35435224D01*
X88480285Y35330253D01*
X88469314Y35296490D01*
X88463925Y35269395D01*
X88448086Y35231159D01*
X88428405Y35170584D01*
X88399491Y35113838D01*
X88383655Y35075605D01*
X88368308Y35052638D01*
X88352194Y35021011D01*
X88289727Y34935035D01*
X88267120Y34901199D01*
X88259898Y34893978D01*
X88253517Y34885194D01*
X88134805Y34766482D01*
X88126021Y34760101D01*
X88118800Y34752879D01*
X88084964Y34730272D01*
X87998988Y34667805D01*
X87967361Y34651691D01*
X87944394Y34636344D01*
X87906161Y34620508D01*
X87849415Y34591594D01*
X87788840Y34571913D01*
X87750604Y34556074D01*
X87723509Y34550685D01*
X87689746Y34539714D01*
X87584775Y34523089D01*
X87544877Y34515152D01*
X87534667Y34515152D01*
X87523940Y34513453D01*
X87356058Y34513453D01*
X87345331Y34515152D01*
X87335121Y34515152D01*
X87295224Y34523089D01*
X87190251Y34539714D01*
X87156485Y34550686D01*
X87129394Y34556074D01*
X87091160Y34571911D01*
X87030582Y34591594D01*
X86973831Y34620510D01*
X86935604Y34636344D01*
X86912639Y34651689D01*
X86881009Y34667805D01*
X86795020Y34730280D01*
X86761198Y34752879D01*
X86753979Y34760098D01*
X86745192Y34766482D01*
X86626480Y34885194D01*
X86620095Y34893982D01*
X86612878Y34901199D01*
X86590281Y34935017D01*
X86527803Y35021011D01*
X86511685Y35052644D01*
X86496343Y35075605D01*
X86480510Y35113828D01*
X86451592Y35170584D01*
X86431906Y35231170D01*
X86416073Y35269395D01*
X86410685Y35296482D01*
X86399712Y35330253D01*
X86383085Y35435233D01*
X86375151Y35475122D01*
X86375151Y35485332D01*
X86373452Y35496059D01*
X86373452Y35663942D01*
X86375151Y35674670D01*
X86375151Y35684878D01*
X86383084Y35724764D01*
X86399712Y35829748D01*
X86410685Y35863522D01*
X86416073Y35890605D01*
X86431904Y35928827D01*
X86451592Y35989417D01*
X86480513Y36046179D01*
X86496343Y36084395D01*
X86511683Y36107354D01*
X86527803Y36138990D01*
X86590289Y36224996D01*
X86612878Y36258801D01*
X86620092Y36266016D01*
X86626480Y36274807D01*
X86745192Y36393519D01*
X86753983Y36399907D01*
X86761198Y36407121D01*
X86795003Y36429710D01*
X86881009Y36492196D01*
X86912645Y36508316D01*
X86935604Y36523656D01*
X86973820Y36539486D01*
X87030582Y36568407D01*
X87091172Y36588095D01*
X87129394Y36603926D01*
X87156477Y36609314D01*
X87190251Y36620287D01*
X87295233Y36636914D01*
X87335121Y36644848D01*
X87345330Y36644848D01*
X87356058Y36646547D01*
X87523940Y36646547D01*
X87534668Y36644848D01*
G37*
G36*
X9308148Y51203528D02*
G01*
X9505142Y51139521D01*
X9689698Y51045485D01*
X9857271Y50923736D01*
X10003736Y50777271D01*
X10125485Y50609698D01*
X10219521Y50425142D01*
X10283528Y50228148D01*
X10315931Y50023566D01*
X10315931Y49816434D01*
X10283528Y49611852D01*
X10219521Y49414858D01*
X10125485Y49230302D01*
X10003736Y49062729D01*
X9857271Y48916264D01*
X9689698Y48794515D01*
X9505142Y48700479D01*
X9308148Y48636472D01*
X9103566Y48604069D01*
X8896434Y48604069D01*
X8691852Y48636472D01*
X8494858Y48700479D01*
X8310302Y48794515D01*
X8142729Y48916264D01*
X7996264Y49062729D01*
X7874515Y49230302D01*
X7780479Y49414858D01*
X7716472Y49611852D01*
X7684069Y49816434D01*
X7684069Y50023566D01*
X7716472Y50228148D01*
X7780479Y50425142D01*
X7874515Y50609698D01*
X7996264Y50777271D01*
X8142729Y50923736D01*
X8310302Y51045485D01*
X8494858Y51139521D01*
X8691852Y51203528D01*
X8896434Y51235931D01*
X9103566Y51235931D01*
X9308148Y51203528D01*
G37*
G36*
X35252548Y53592538D02*
G01*
X35410115Y53527271D01*
X35551922Y53432519D01*
X35672519Y53311922D01*
X35767271Y53170115D01*
X35832538Y53012548D01*
X35865811Y52845275D01*
X35865811Y52674725D01*
X35832538Y52507452D01*
X35767271Y52349885D01*
X35672519Y52208078D01*
X35551922Y52087481D01*
X35410115Y51992729D01*
X35252548Y51927462D01*
X35085275Y51894189D01*
X34914725Y51894189D01*
X34747452Y51927462D01*
X34589885Y51992729D01*
X34448078Y52087481D01*
X34327481Y52208078D01*
X34232729Y52349885D01*
X34167462Y52507452D01*
X34134189Y52674725D01*
X34134189Y52845275D01*
X34167462Y53012548D01*
X34232729Y53170115D01*
X34327481Y53311922D01*
X34448078Y53432519D01*
X34589885Y53527271D01*
X34747452Y53592538D01*
X34914725Y53625811D01*
X35085275Y53625811D01*
X35252548Y53592538D01*
G37*
G36*
X10056411Y56318725D02*
G01*
X10118664Y56310529D01*
X10134324Y56303227D01*
X10153325Y56299447D01*
X10178491Y56282632D01*
X10204422Y56270540D01*
X10220197Y56254765D01*
X10240919Y56240919D01*
X10254764Y56220198D01*
X10270539Y56204423D01*
X10282629Y56178495D01*
X10299447Y56153325D01*
X10303226Y56134323D01*
X10310528Y56118665D01*
X10318722Y56056425D01*
X10320000Y56050000D01*
X10320000Y53950000D01*
X10318721Y53943574D01*
X10310528Y53881336D01*
X10303227Y53865680D01*
X10299447Y53846675D01*
X10282628Y53821504D01*
X10270539Y53795578D01*
X10254766Y53779806D01*
X10240919Y53759081D01*
X10220194Y53745234D01*
X10204422Y53729461D01*
X10178496Y53717372D01*
X10153325Y53700553D01*
X10134320Y53696773D01*
X10118664Y53689472D01*
X10056426Y53681279D01*
X10050000Y53680000D01*
X7950000Y53680000D01*
X7943575Y53681278D01*
X7881335Y53689472D01*
X7865677Y53696774D01*
X7846675Y53700553D01*
X7821505Y53717371D01*
X7795577Y53729461D01*
X7779802Y53745236D01*
X7759081Y53759081D01*
X7745235Y53779803D01*
X7729460Y53795578D01*
X7717368Y53821509D01*
X7700553Y53846675D01*
X7696773Y53865676D01*
X7689471Y53881336D01*
X7681275Y53943589D01*
X7680000Y53950000D01*
X7680000Y56050000D01*
X7681275Y56056410D01*
X7689471Y56118665D01*
X7696773Y56134327D01*
X7700553Y56153325D01*
X7717367Y56178490D01*
X7729460Y56204423D01*
X7745237Y56220201D01*
X7759081Y56240919D01*
X7779799Y56254763D01*
X7795577Y56270540D01*
X7821510Y56282633D01*
X7846675Y56299447D01*
X7865673Y56303227D01*
X7881335Y56310529D01*
X7943590Y56318725D01*
X7950000Y56320000D01*
X10050000Y56320000D01*
X10056411Y56318725D01*
G37*
G36*
X84056411Y56318725D02*
G01*
X84118664Y56310529D01*
X84134324Y56303227D01*
X84153325Y56299447D01*
X84178491Y56282632D01*
X84204422Y56270540D01*
X84220197Y56254765D01*
X84240919Y56240919D01*
X84254764Y56220198D01*
X84270539Y56204423D01*
X84282629Y56178495D01*
X84299447Y56153325D01*
X84303226Y56134323D01*
X84310528Y56118665D01*
X84318722Y56056425D01*
X84320000Y56050000D01*
X84320000Y53950000D01*
X84318721Y53943574D01*
X84310528Y53881336D01*
X84303227Y53865680D01*
X84299447Y53846675D01*
X84282628Y53821504D01*
X84270539Y53795578D01*
X84254766Y53779806D01*
X84240919Y53759081D01*
X84220194Y53745234D01*
X84204422Y53729461D01*
X84178496Y53717372D01*
X84153325Y53700553D01*
X84134320Y53696773D01*
X84118664Y53689472D01*
X84056426Y53681279D01*
X84050000Y53680000D01*
X81950000Y53680000D01*
X81943575Y53681278D01*
X81881335Y53689472D01*
X81865677Y53696774D01*
X81846675Y53700553D01*
X81821505Y53717371D01*
X81795577Y53729461D01*
X81779802Y53745236D01*
X81759081Y53759081D01*
X81745235Y53779803D01*
X81729460Y53795578D01*
X81717368Y53821509D01*
X81700553Y53846675D01*
X81696773Y53865676D01*
X81689471Y53881336D01*
X81681275Y53943589D01*
X81680000Y53950000D01*
X81680000Y56050000D01*
X81681275Y56056410D01*
X81689471Y56118665D01*
X81696773Y56134327D01*
X81700553Y56153325D01*
X81717367Y56178490D01*
X81729460Y56204423D01*
X81745237Y56220201D01*
X81759081Y56240919D01*
X81779799Y56254763D01*
X81795577Y56270540D01*
X81821510Y56282633D01*
X81846675Y56299447D01*
X81865673Y56303227D01*
X81881335Y56310529D01*
X81943590Y56318725D01*
X81950000Y56320000D01*
X84050000Y56320000D01*
X84056411Y56318725D01*
G37*
G36*
X35252548Y56132538D02*
G01*
X35410115Y56067271D01*
X35551922Y55972519D01*
X35672519Y55851922D01*
X35767271Y55710115D01*
X35832538Y55552548D01*
X35865811Y55385275D01*
X35865811Y55214725D01*
X35832538Y55047452D01*
X35767271Y54889885D01*
X35672519Y54748078D01*
X35551922Y54627481D01*
X35410115Y54532729D01*
X35252548Y54467462D01*
X35085275Y54434189D01*
X34914725Y54434189D01*
X34747452Y54467462D01*
X34589885Y54532729D01*
X34448078Y54627481D01*
X34327481Y54748078D01*
X34232729Y54889885D01*
X34167462Y55047452D01*
X34134189Y55214725D01*
X34134189Y55385275D01*
X34167462Y55552548D01*
X34232729Y55710115D01*
X34327481Y55851922D01*
X34448078Y55972519D01*
X34589885Y56067271D01*
X34747452Y56132538D01*
X34914725Y56165811D01*
X35085275Y56165811D01*
X35252548Y56132538D01*
G37*
G36*
X35252548Y58672538D02*
G01*
X35410115Y58607271D01*
X35551922Y58512519D01*
X35672519Y58391922D01*
X35767271Y58250115D01*
X35832538Y58092548D01*
X35865811Y57925275D01*
X35865811Y57754725D01*
X35832538Y57587452D01*
X35767271Y57429885D01*
X35672519Y57288078D01*
X35551922Y57167481D01*
X35410115Y57072729D01*
X35252548Y57007462D01*
X35085275Y56974189D01*
X34914725Y56974189D01*
X34747452Y57007462D01*
X34589885Y57072729D01*
X34448078Y57167481D01*
X34327481Y57288078D01*
X34232729Y57429885D01*
X34167462Y57587452D01*
X34134189Y57754725D01*
X34134189Y57925275D01*
X34167462Y58092548D01*
X34232729Y58250115D01*
X34327481Y58391922D01*
X34448078Y58512519D01*
X34589885Y58607271D01*
X34747452Y58672538D01*
X34914725Y58705811D01*
X35085275Y58705811D01*
X35252548Y58672538D01*
G37*
G36*
X83308148Y61363528D02*
G01*
X83505142Y61299521D01*
X83689698Y61205485D01*
X83857271Y61083736D01*
X84003736Y60937271D01*
X84125485Y60769698D01*
X84219521Y60585142D01*
X84283528Y60388148D01*
X84315931Y60183566D01*
X84315931Y59976434D01*
X84283528Y59771852D01*
X84219521Y59574858D01*
X84125485Y59390302D01*
X84003736Y59222729D01*
X83857271Y59076264D01*
X83689698Y58954515D01*
X83505142Y58860479D01*
X83308148Y58796472D01*
X83103566Y58764069D01*
X82896434Y58764069D01*
X82691852Y58796472D01*
X82494858Y58860479D01*
X82310302Y58954515D01*
X82142729Y59076264D01*
X81996264Y59222729D01*
X81874515Y59390302D01*
X81780479Y59574858D01*
X81716472Y59771852D01*
X81684069Y59976434D01*
X81684069Y60183566D01*
X81716472Y60388148D01*
X81780479Y60585142D01*
X81874515Y60769698D01*
X81996264Y60937271D01*
X82142729Y61083736D01*
X82310302Y61205485D01*
X82494858Y61299521D01*
X82691852Y61363528D01*
X82896434Y61395931D01*
X83103566Y61395931D01*
X83308148Y61363528D01*
G37*
G36*
X35252548Y61212538D02*
G01*
X35410115Y61147271D01*
X35551922Y61052519D01*
X35672519Y60931922D01*
X35767271Y60790115D01*
X35832538Y60632548D01*
X35865811Y60465275D01*
X35865811Y60294725D01*
X35832538Y60127452D01*
X35767271Y59969885D01*
X35672519Y59828078D01*
X35551922Y59707481D01*
X35410115Y59612729D01*
X35252548Y59547462D01*
X35085275Y59514189D01*
X34914725Y59514189D01*
X34747452Y59547462D01*
X34589885Y59612729D01*
X34448078Y59707481D01*
X34327481Y59828078D01*
X34232729Y59969885D01*
X34167462Y60127452D01*
X34134189Y60294725D01*
X34134189Y60465275D01*
X34167462Y60632548D01*
X34232729Y60790115D01*
X34327481Y60931922D01*
X34448078Y61052519D01*
X34589885Y61147271D01*
X34747452Y61212538D01*
X34914725Y61245811D01*
X35085275Y61245811D01*
X35252548Y61212538D01*
G37*
G36*
X9308148Y63703528D02*
G01*
X9505142Y63639521D01*
X9689698Y63545485D01*
X9857271Y63423736D01*
X10003736Y63277271D01*
X10125485Y63109698D01*
X10219521Y62925142D01*
X10283528Y62728148D01*
X10315931Y62523566D01*
X10315931Y62316434D01*
X10283528Y62111852D01*
X10219521Y61914858D01*
X10125485Y61730302D01*
X10003736Y61562729D01*
X9857271Y61416264D01*
X9689698Y61294515D01*
X9505142Y61200479D01*
X9308148Y61136472D01*
X9103566Y61104069D01*
X8896434Y61104069D01*
X8691852Y61136472D01*
X8494858Y61200479D01*
X8310302Y61294515D01*
X8142729Y61416264D01*
X7996264Y61562729D01*
X7874515Y61730302D01*
X7780479Y61914858D01*
X7716472Y62111852D01*
X7684069Y62316434D01*
X7684069Y62523566D01*
X7716472Y62728148D01*
X7780479Y62925142D01*
X7874515Y63109698D01*
X7996264Y63277271D01*
X8142729Y63423736D01*
X8310302Y63545485D01*
X8494858Y63639521D01*
X8691852Y63703528D01*
X8896434Y63735931D01*
X9103566Y63735931D01*
X9308148Y63703528D01*
G37*
G36*
X35252548Y63752538D02*
G01*
X35410115Y63687271D01*
X35551922Y63592519D01*
X35672519Y63471922D01*
X35767271Y63330115D01*
X35832538Y63172548D01*
X35865811Y63005275D01*
X35865811Y62834725D01*
X35832538Y62667452D01*
X35767271Y62509885D01*
X35672519Y62368078D01*
X35551922Y62247481D01*
X35410115Y62152729D01*
X35252548Y62087462D01*
X35085275Y62054189D01*
X34914725Y62054189D01*
X34747452Y62087462D01*
X34589885Y62152729D01*
X34448078Y62247481D01*
X34327481Y62368078D01*
X34232729Y62509885D01*
X34167462Y62667452D01*
X34134189Y62834725D01*
X34134189Y63005275D01*
X34167462Y63172548D01*
X34232729Y63330115D01*
X34327481Y63471922D01*
X34448078Y63592519D01*
X34589885Y63687271D01*
X34747452Y63752538D01*
X34914725Y63785811D01*
X35085275Y63785811D01*
X35252548Y63752538D01*
G37*
G36*
X83308148Y66443528D02*
G01*
X83505142Y66379521D01*
X83689698Y66285485D01*
X83857271Y66163736D01*
X84003736Y66017271D01*
X84125485Y65849698D01*
X84219521Y65665142D01*
X84283528Y65468148D01*
X84315931Y65263566D01*
X84315931Y65056434D01*
X84283528Y64851852D01*
X84219521Y64654858D01*
X84125485Y64470302D01*
X84003736Y64302729D01*
X83857271Y64156264D01*
X83689698Y64034515D01*
X83505142Y63940479D01*
X83308148Y63876472D01*
X83103566Y63844069D01*
X82896434Y63844069D01*
X82691852Y63876472D01*
X82494858Y63940479D01*
X82310302Y64034515D01*
X82142729Y64156264D01*
X81996264Y64302729D01*
X81874515Y64470302D01*
X81780479Y64654858D01*
X81716472Y64851852D01*
X81684069Y65056434D01*
X81684069Y65263566D01*
X81716472Y65468148D01*
X81780479Y65665142D01*
X81874515Y65849698D01*
X81996264Y66017271D01*
X82142729Y66163736D01*
X82310302Y66285485D01*
X82494858Y66379521D01*
X82691852Y66443528D01*
X82896434Y66475931D01*
X83103566Y66475931D01*
X83308148Y66443528D01*
G37*
G36*
X35252548Y66292538D02*
G01*
X35410115Y66227271D01*
X35551922Y66132519D01*
X35672519Y66011922D01*
X35767271Y65870115D01*
X35832538Y65712548D01*
X35865811Y65545275D01*
X35865811Y65374725D01*
X35832538Y65207452D01*
X35767271Y65049885D01*
X35672519Y64908078D01*
X35551922Y64787481D01*
X35410115Y64692729D01*
X35252548Y64627462D01*
X35085275Y64594189D01*
X34914725Y64594189D01*
X34747452Y64627462D01*
X34589885Y64692729D01*
X34448078Y64787481D01*
X34327481Y64908078D01*
X34232729Y65049885D01*
X34167462Y65207452D01*
X34134189Y65374725D01*
X34134189Y65545275D01*
X34167462Y65712548D01*
X34232729Y65870115D01*
X34327481Y66011922D01*
X34448078Y66132519D01*
X34589885Y66227271D01*
X34747452Y66292538D01*
X34914725Y66325811D01*
X35085275Y66325811D01*
X35252548Y66292538D01*
G37*
G36*
X10056411Y68818725D02*
G01*
X10118664Y68810529D01*
X10134324Y68803227D01*
X10153325Y68799447D01*
X10178491Y68782632D01*
X10204422Y68770540D01*
X10220197Y68754765D01*
X10240919Y68740919D01*
X10254764Y68720198D01*
X10270539Y68704423D01*
X10282629Y68678495D01*
X10299447Y68653325D01*
X10303226Y68634323D01*
X10310528Y68618665D01*
X10318722Y68556425D01*
X10320000Y68550000D01*
X10320000Y66450000D01*
X10318721Y66443574D01*
X10310528Y66381336D01*
X10303227Y66365680D01*
X10299447Y66346675D01*
X10282628Y66321504D01*
X10270539Y66295578D01*
X10254766Y66279806D01*
X10240919Y66259081D01*
X10220194Y66245234D01*
X10204422Y66229461D01*
X10178496Y66217372D01*
X10153325Y66200553D01*
X10134320Y66196773D01*
X10118664Y66189472D01*
X10056426Y66181279D01*
X10050000Y66180000D01*
X7950000Y66180000D01*
X7943575Y66181278D01*
X7881335Y66189472D01*
X7865677Y66196774D01*
X7846675Y66200553D01*
X7821505Y66217371D01*
X7795577Y66229461D01*
X7779802Y66245236D01*
X7759081Y66259081D01*
X7745235Y66279803D01*
X7729460Y66295578D01*
X7717368Y66321509D01*
X7700553Y66346675D01*
X7696773Y66365676D01*
X7689471Y66381336D01*
X7681275Y66443589D01*
X7680000Y66450000D01*
X7680000Y68550000D01*
X7681275Y68556410D01*
X7689471Y68618665D01*
X7696773Y68634327D01*
X7700553Y68653325D01*
X7717367Y68678490D01*
X7729460Y68704423D01*
X7745237Y68720201D01*
X7759081Y68740919D01*
X7779799Y68754763D01*
X7795577Y68770540D01*
X7821510Y68782633D01*
X7846675Y68799447D01*
X7865673Y68803227D01*
X7881335Y68810529D01*
X7943590Y68818725D01*
X7950000Y68820000D01*
X10050000Y68820000D01*
X10056411Y68818725D01*
G37*
G36*
X35857654Y68868478D02*
G01*
X35864142Y68864142D01*
X35868478Y68857654D01*
X35870000Y68850000D01*
X35870000Y67150000D01*
X35868478Y67142346D01*
X35864142Y67135858D01*
X35857654Y67131522D01*
X35850000Y67130000D01*
X34150000Y67130000D01*
X34142346Y67131522D01*
X34135858Y67135858D01*
X34131522Y67142346D01*
X34130000Y67150000D01*
X34130000Y68850000D01*
X34131522Y68857654D01*
X34135858Y68864142D01*
X34142346Y68868478D01*
X34150000Y68870000D01*
X35850000Y68870000D01*
X35857654Y68868478D01*
G37*
G36*
X75857654Y76168478D02*
G01*
X75864142Y76164142D01*
X75868478Y76157654D01*
X75870000Y76150000D01*
X75870000Y74450000D01*
X75868478Y74442346D01*
X75864142Y74435858D01*
X75857654Y74431522D01*
X75850000Y74430000D01*
X74150000Y74430000D01*
X74142346Y74431522D01*
X74135858Y74435858D01*
X74131522Y74442346D01*
X74130000Y74450000D01*
X74130000Y76150000D01*
X74131522Y76157654D01*
X74135858Y76164142D01*
X74142346Y76168478D01*
X74150000Y76170000D01*
X75850000Y76170000D01*
X75857654Y76168478D01*
G37*
G36*
X21912548Y76132538D02*
G01*
X22070115Y76067271D01*
X22211922Y75972519D01*
X22332519Y75851922D01*
X22427271Y75710115D01*
X22492538Y75552548D01*
X22525811Y75385275D01*
X22525811Y75214725D01*
X22492538Y75047452D01*
X22427271Y74889885D01*
X22332519Y74748078D01*
X22211922Y74627481D01*
X22070115Y74532729D01*
X21912548Y74467462D01*
X21745275Y74434189D01*
X21574725Y74434189D01*
X21407452Y74467462D01*
X21249885Y74532729D01*
X21108078Y74627481D01*
X20987481Y74748078D01*
X20892729Y74889885D01*
X20827462Y75047452D01*
X20794189Y75214725D01*
X20794189Y75385275D01*
X20827462Y75552548D01*
X20892729Y75710115D01*
X20987481Y75851922D01*
X21108078Y75972519D01*
X21249885Y76067271D01*
X21407452Y76132538D01*
X21574725Y76165811D01*
X21745275Y76165811D01*
X21912548Y76132538D01*
G37*
G36*
X24452548Y76132538D02*
G01*
X24610115Y76067271D01*
X24751922Y75972519D01*
X24872519Y75851922D01*
X24967271Y75710115D01*
X25032538Y75552548D01*
X25065811Y75385275D01*
X25065811Y75214725D01*
X25032538Y75047452D01*
X24967271Y74889885D01*
X24872519Y74748078D01*
X24751922Y74627481D01*
X24610115Y74532729D01*
X24452548Y74467462D01*
X24285275Y74434189D01*
X24114725Y74434189D01*
X23947452Y74467462D01*
X23789885Y74532729D01*
X23648078Y74627481D01*
X23527481Y74748078D01*
X23432729Y74889885D01*
X23367462Y75047452D01*
X23334189Y75214725D01*
X23334189Y75385275D01*
X23367462Y75552548D01*
X23432729Y75710115D01*
X23527481Y75851922D01*
X23648078Y75972519D01*
X23789885Y76067271D01*
X23947452Y76132538D01*
X24114725Y76165811D01*
X24285275Y76165811D01*
X24452548Y76132538D01*
G37*
G36*
X26992548Y76132538D02*
G01*
X27150115Y76067271D01*
X27291922Y75972519D01*
X27412519Y75851922D01*
X27507271Y75710115D01*
X27572538Y75552548D01*
X27605811Y75385275D01*
X27605811Y75214725D01*
X27572538Y75047452D01*
X27507271Y74889885D01*
X27412519Y74748078D01*
X27291922Y74627481D01*
X27150115Y74532729D01*
X26992548Y74467462D01*
X26825275Y74434189D01*
X26654725Y74434189D01*
X26487452Y74467462D01*
X26329885Y74532729D01*
X26188078Y74627481D01*
X26067481Y74748078D01*
X25972729Y74889885D01*
X25907462Y75047452D01*
X25874189Y75214725D01*
X25874189Y75385275D01*
X25907462Y75552548D01*
X25972729Y75710115D01*
X26067481Y75851922D01*
X26188078Y75972519D01*
X26329885Y76067271D01*
X26487452Y76132538D01*
X26654725Y76165811D01*
X26825275Y76165811D01*
X26992548Y76132538D01*
G37*
G36*
X29532548Y76132538D02*
G01*
X29690115Y76067271D01*
X29831922Y75972519D01*
X29952519Y75851922D01*
X30047271Y75710115D01*
X30112538Y75552548D01*
X30145811Y75385275D01*
X30145811Y75214725D01*
X30112538Y75047452D01*
X30047271Y74889885D01*
X29952519Y74748078D01*
X29831922Y74627481D01*
X29690115Y74532729D01*
X29532548Y74467462D01*
X29365275Y74434189D01*
X29194725Y74434189D01*
X29027452Y74467462D01*
X28869885Y74532729D01*
X28728078Y74627481D01*
X28607481Y74748078D01*
X28512729Y74889885D01*
X28447462Y75047452D01*
X28414189Y75214725D01*
X28414189Y75385275D01*
X28447462Y75552548D01*
X28512729Y75710115D01*
X28607481Y75851922D01*
X28728078Y75972519D01*
X28869885Y76067271D01*
X29027452Y76132538D01*
X29194725Y76165811D01*
X29365275Y76165811D01*
X29532548Y76132538D01*
G37*
G36*
X32072548Y76132538D02*
G01*
X32230115Y76067271D01*
X32371922Y75972519D01*
X32492519Y75851922D01*
X32587271Y75710115D01*
X32652538Y75552548D01*
X32685811Y75385275D01*
X32685811Y75214725D01*
X32652538Y75047452D01*
X32587271Y74889885D01*
X32492519Y74748078D01*
X32371922Y74627481D01*
X32230115Y74532729D01*
X32072548Y74467462D01*
X31905275Y74434189D01*
X31734725Y74434189D01*
X31567452Y74467462D01*
X31409885Y74532729D01*
X31268078Y74627481D01*
X31147481Y74748078D01*
X31052729Y74889885D01*
X30987462Y75047452D01*
X30954189Y75214725D01*
X30954189Y75385275D01*
X30987462Y75552548D01*
X31052729Y75710115D01*
X31147481Y75851922D01*
X31268078Y75972519D01*
X31409885Y76067271D01*
X31567452Y76132538D01*
X31734725Y76165811D01*
X31905275Y76165811D01*
X32072548Y76132538D01*
G37*
G36*
X34612548Y76132538D02*
G01*
X34770115Y76067271D01*
X34911922Y75972519D01*
X35032519Y75851922D01*
X35127271Y75710115D01*
X35192538Y75552548D01*
X35225811Y75385275D01*
X35225811Y75214725D01*
X35192538Y75047452D01*
X35127271Y74889885D01*
X35032519Y74748078D01*
X34911922Y74627481D01*
X34770115Y74532729D01*
X34612548Y74467462D01*
X34445275Y74434189D01*
X34274725Y74434189D01*
X34107452Y74467462D01*
X33949885Y74532729D01*
X33808078Y74627481D01*
X33687481Y74748078D01*
X33592729Y74889885D01*
X33527462Y75047452D01*
X33494189Y75214725D01*
X33494189Y75385275D01*
X33527462Y75552548D01*
X33592729Y75710115D01*
X33687481Y75851922D01*
X33808078Y75972519D01*
X33949885Y76067271D01*
X34107452Y76132538D01*
X34274725Y76165811D01*
X34445275Y76165811D01*
X34612548Y76132538D01*
G37*
G36*
X37152548Y76132538D02*
G01*
X37310115Y76067271D01*
X37451922Y75972519D01*
X37572519Y75851922D01*
X37667271Y75710115D01*
X37732538Y75552548D01*
X37765811Y75385275D01*
X37765811Y75214725D01*
X37732538Y75047452D01*
X37667271Y74889885D01*
X37572519Y74748078D01*
X37451922Y74627481D01*
X37310115Y74532729D01*
X37152548Y74467462D01*
X36985275Y74434189D01*
X36814725Y74434189D01*
X36647452Y74467462D01*
X36489885Y74532729D01*
X36348078Y74627481D01*
X36227481Y74748078D01*
X36132729Y74889885D01*
X36067462Y75047452D01*
X36034189Y75214725D01*
X36034189Y75385275D01*
X36067462Y75552548D01*
X36132729Y75710115D01*
X36227481Y75851922D01*
X36348078Y75972519D01*
X36489885Y76067271D01*
X36647452Y76132538D01*
X36814725Y76165811D01*
X36985275Y76165811D01*
X37152548Y76132538D01*
G37*
G36*
X39692548Y76132538D02*
G01*
X39850115Y76067271D01*
X39991922Y75972519D01*
X40112519Y75851922D01*
X40207271Y75710115D01*
X40272538Y75552548D01*
X40305811Y75385275D01*
X40305811Y75214725D01*
X40272538Y75047452D01*
X40207271Y74889885D01*
X40112519Y74748078D01*
X39991922Y74627481D01*
X39850115Y74532729D01*
X39692548Y74467462D01*
X39525275Y74434189D01*
X39354725Y74434189D01*
X39187452Y74467462D01*
X39029885Y74532729D01*
X38888078Y74627481D01*
X38767481Y74748078D01*
X38672729Y74889885D01*
X38607462Y75047452D01*
X38574189Y75214725D01*
X38574189Y75385275D01*
X38607462Y75552548D01*
X38672729Y75710115D01*
X38767481Y75851922D01*
X38888078Y75972519D01*
X39029885Y76067271D01*
X39187452Y76132538D01*
X39354725Y76165811D01*
X39525275Y76165811D01*
X39692548Y76132538D01*
G37*
G36*
X42232548Y76132538D02*
G01*
X42390115Y76067271D01*
X42531922Y75972519D01*
X42652519Y75851922D01*
X42747271Y75710115D01*
X42812538Y75552548D01*
X42845811Y75385275D01*
X42845811Y75214725D01*
X42812538Y75047452D01*
X42747271Y74889885D01*
X42652519Y74748078D01*
X42531922Y74627481D01*
X42390115Y74532729D01*
X42232548Y74467462D01*
X42065275Y74434189D01*
X41894725Y74434189D01*
X41727452Y74467462D01*
X41569885Y74532729D01*
X41428078Y74627481D01*
X41307481Y74748078D01*
X41212729Y74889885D01*
X41147462Y75047452D01*
X41114189Y75214725D01*
X41114189Y75385275D01*
X41147462Y75552548D01*
X41212729Y75710115D01*
X41307481Y75851922D01*
X41428078Y75972519D01*
X41569885Y76067271D01*
X41727452Y76132538D01*
X41894725Y76165811D01*
X42065275Y76165811D01*
X42232548Y76132538D01*
G37*
G36*
X44772548Y76132538D02*
G01*
X44930115Y76067271D01*
X45071922Y75972519D01*
X45192519Y75851922D01*
X45287271Y75710115D01*
X45352538Y75552548D01*
X45385811Y75385275D01*
X45385811Y75214725D01*
X45352538Y75047452D01*
X45287271Y74889885D01*
X45192519Y74748078D01*
X45071922Y74627481D01*
X44930115Y74532729D01*
X44772548Y74467462D01*
X44605275Y74434189D01*
X44434725Y74434189D01*
X44267452Y74467462D01*
X44109885Y74532729D01*
X43968078Y74627481D01*
X43847481Y74748078D01*
X43752729Y74889885D01*
X43687462Y75047452D01*
X43654189Y75214725D01*
X43654189Y75385275D01*
X43687462Y75552548D01*
X43752729Y75710115D01*
X43847481Y75851922D01*
X43968078Y75972519D01*
X44109885Y76067271D01*
X44267452Y76132538D01*
X44434725Y76165811D01*
X44605275Y76165811D01*
X44772548Y76132538D01*
G37*
G36*
X47312548Y76132538D02*
G01*
X47470115Y76067271D01*
X47611922Y75972519D01*
X47732519Y75851922D01*
X47827271Y75710115D01*
X47892538Y75552548D01*
X47925811Y75385275D01*
X47925811Y75214725D01*
X47892538Y75047452D01*
X47827271Y74889885D01*
X47732519Y74748078D01*
X47611922Y74627481D01*
X47470115Y74532729D01*
X47312548Y74467462D01*
X47145275Y74434189D01*
X46974725Y74434189D01*
X46807452Y74467462D01*
X46649885Y74532729D01*
X46508078Y74627481D01*
X46387481Y74748078D01*
X46292729Y74889885D01*
X46227462Y75047452D01*
X46194189Y75214725D01*
X46194189Y75385275D01*
X46227462Y75552548D01*
X46292729Y75710115D01*
X46387481Y75851922D01*
X46508078Y75972519D01*
X46649885Y76067271D01*
X46807452Y76132538D01*
X46974725Y76165811D01*
X47145275Y76165811D01*
X47312548Y76132538D01*
G37*
G36*
X49852548Y76132538D02*
G01*
X50010115Y76067271D01*
X50151922Y75972519D01*
X50272519Y75851922D01*
X50367271Y75710115D01*
X50432538Y75552548D01*
X50465811Y75385275D01*
X50465811Y75214725D01*
X50432538Y75047452D01*
X50367271Y74889885D01*
X50272519Y74748078D01*
X50151922Y74627481D01*
X50010115Y74532729D01*
X49852548Y74467462D01*
X49685275Y74434189D01*
X49514725Y74434189D01*
X49347452Y74467462D01*
X49189885Y74532729D01*
X49048078Y74627481D01*
X48927481Y74748078D01*
X48832729Y74889885D01*
X48767462Y75047452D01*
X48734189Y75214725D01*
X48734189Y75385275D01*
X48767462Y75552548D01*
X48832729Y75710115D01*
X48927481Y75851922D01*
X49048078Y75972519D01*
X49189885Y76067271D01*
X49347452Y76132538D01*
X49514725Y76165811D01*
X49685275Y76165811D01*
X49852548Y76132538D01*
G37*
G36*
X52392548Y76132538D02*
G01*
X52550115Y76067271D01*
X52691922Y75972519D01*
X52812519Y75851922D01*
X52907271Y75710115D01*
X52972538Y75552548D01*
X53005811Y75385275D01*
X53005811Y75214725D01*
X52972538Y75047452D01*
X52907271Y74889885D01*
X52812519Y74748078D01*
X52691922Y74627481D01*
X52550115Y74532729D01*
X52392548Y74467462D01*
X52225275Y74434189D01*
X52054725Y74434189D01*
X51887452Y74467462D01*
X51729885Y74532729D01*
X51588078Y74627481D01*
X51467481Y74748078D01*
X51372729Y74889885D01*
X51307462Y75047452D01*
X51274189Y75214725D01*
X51274189Y75385275D01*
X51307462Y75552548D01*
X51372729Y75710115D01*
X51467481Y75851922D01*
X51588078Y75972519D01*
X51729885Y76067271D01*
X51887452Y76132538D01*
X52054725Y76165811D01*
X52225275Y76165811D01*
X52392548Y76132538D01*
G37*
G36*
X54932548Y76132538D02*
G01*
X55090115Y76067271D01*
X55231922Y75972519D01*
X55352519Y75851922D01*
X55447271Y75710115D01*
X55512538Y75552548D01*
X55545811Y75385275D01*
X55545811Y75214725D01*
X55512538Y75047452D01*
X55447271Y74889885D01*
X55352519Y74748078D01*
X55231922Y74627481D01*
X55090115Y74532729D01*
X54932548Y74467462D01*
X54765275Y74434189D01*
X54594725Y74434189D01*
X54427452Y74467462D01*
X54269885Y74532729D01*
X54128078Y74627481D01*
X54007481Y74748078D01*
X53912729Y74889885D01*
X53847462Y75047452D01*
X53814189Y75214725D01*
X53814189Y75385275D01*
X53847462Y75552548D01*
X53912729Y75710115D01*
X54007481Y75851922D01*
X54128078Y75972519D01*
X54269885Y76067271D01*
X54427452Y76132538D01*
X54594725Y76165811D01*
X54765275Y76165811D01*
X54932548Y76132538D01*
G37*
G36*
X57472548Y76132538D02*
G01*
X57630115Y76067271D01*
X57771922Y75972519D01*
X57892519Y75851922D01*
X57987271Y75710115D01*
X58052538Y75552548D01*
X58085811Y75385275D01*
X58085811Y75214725D01*
X58052538Y75047452D01*
X57987271Y74889885D01*
X57892519Y74748078D01*
X57771922Y74627481D01*
X57630115Y74532729D01*
X57472548Y74467462D01*
X57305275Y74434189D01*
X57134725Y74434189D01*
X56967452Y74467462D01*
X56809885Y74532729D01*
X56668078Y74627481D01*
X56547481Y74748078D01*
X56452729Y74889885D01*
X56387462Y75047452D01*
X56354189Y75214725D01*
X56354189Y75385275D01*
X56387462Y75552548D01*
X56452729Y75710115D01*
X56547481Y75851922D01*
X56668078Y75972519D01*
X56809885Y76067271D01*
X56967452Y76132538D01*
X57134725Y76165811D01*
X57305275Y76165811D01*
X57472548Y76132538D01*
G37*
G36*
X60012548Y76132538D02*
G01*
X60170115Y76067271D01*
X60311922Y75972519D01*
X60432519Y75851922D01*
X60527271Y75710115D01*
X60592538Y75552548D01*
X60625811Y75385275D01*
X60625811Y75214725D01*
X60592538Y75047452D01*
X60527271Y74889885D01*
X60432519Y74748078D01*
X60311922Y74627481D01*
X60170115Y74532729D01*
X60012548Y74467462D01*
X59845275Y74434189D01*
X59674725Y74434189D01*
X59507452Y74467462D01*
X59349885Y74532729D01*
X59208078Y74627481D01*
X59087481Y74748078D01*
X58992729Y74889885D01*
X58927462Y75047452D01*
X58894189Y75214725D01*
X58894189Y75385275D01*
X58927462Y75552548D01*
X58992729Y75710115D01*
X59087481Y75851922D01*
X59208078Y75972519D01*
X59349885Y76067271D01*
X59507452Y76132538D01*
X59674725Y76165811D01*
X59845275Y76165811D01*
X60012548Y76132538D01*
G37*
G36*
X62552548Y76132538D02*
G01*
X62710115Y76067271D01*
X62851922Y75972519D01*
X62972519Y75851922D01*
X63067271Y75710115D01*
X63132538Y75552548D01*
X63165811Y75385275D01*
X63165811Y75214725D01*
X63132538Y75047452D01*
X63067271Y74889885D01*
X62972519Y74748078D01*
X62851922Y74627481D01*
X62710115Y74532729D01*
X62552548Y74467462D01*
X62385275Y74434189D01*
X62214725Y74434189D01*
X62047452Y74467462D01*
X61889885Y74532729D01*
X61748078Y74627481D01*
X61627481Y74748078D01*
X61532729Y74889885D01*
X61467462Y75047452D01*
X61434189Y75214725D01*
X61434189Y75385275D01*
X61467462Y75552548D01*
X61532729Y75710115D01*
X61627481Y75851922D01*
X61748078Y75972519D01*
X61889885Y76067271D01*
X62047452Y76132538D01*
X62214725Y76165811D01*
X62385275Y76165811D01*
X62552548Y76132538D01*
G37*
G36*
X65092548Y76132538D02*
G01*
X65250115Y76067271D01*
X65391922Y75972519D01*
X65512519Y75851922D01*
X65607271Y75710115D01*
X65672538Y75552548D01*
X65705811Y75385275D01*
X65705811Y75214725D01*
X65672538Y75047452D01*
X65607271Y74889885D01*
X65512519Y74748078D01*
X65391922Y74627481D01*
X65250115Y74532729D01*
X65092548Y74467462D01*
X64925275Y74434189D01*
X64754725Y74434189D01*
X64587452Y74467462D01*
X64429885Y74532729D01*
X64288078Y74627481D01*
X64167481Y74748078D01*
X64072729Y74889885D01*
X64007462Y75047452D01*
X63974189Y75214725D01*
X63974189Y75385275D01*
X64007462Y75552548D01*
X64072729Y75710115D01*
X64167481Y75851922D01*
X64288078Y75972519D01*
X64429885Y76067271D01*
X64587452Y76132538D01*
X64754725Y76165811D01*
X64925275Y76165811D01*
X65092548Y76132538D01*
G37*
G36*
X67632548Y76132538D02*
G01*
X67790115Y76067271D01*
X67931922Y75972519D01*
X68052519Y75851922D01*
X68147271Y75710115D01*
X68212538Y75552548D01*
X68245811Y75385275D01*
X68245811Y75214725D01*
X68212538Y75047452D01*
X68147271Y74889885D01*
X68052519Y74748078D01*
X67931922Y74627481D01*
X67790115Y74532729D01*
X67632548Y74467462D01*
X67465275Y74434189D01*
X67294725Y74434189D01*
X67127452Y74467462D01*
X66969885Y74532729D01*
X66828078Y74627481D01*
X66707481Y74748078D01*
X66612729Y74889885D01*
X66547462Y75047452D01*
X66514189Y75214725D01*
X66514189Y75385275D01*
X66547462Y75552548D01*
X66612729Y75710115D01*
X66707481Y75851922D01*
X66828078Y75972519D01*
X66969885Y76067271D01*
X67127452Y76132538D01*
X67294725Y76165811D01*
X67465275Y76165811D01*
X67632548Y76132538D01*
G37*
G36*
X70172548Y76132538D02*
G01*
X70330115Y76067271D01*
X70471922Y75972519D01*
X70592519Y75851922D01*
X70687271Y75710115D01*
X70752538Y75552548D01*
X70785811Y75385275D01*
X70785811Y75214725D01*
X70752538Y75047452D01*
X70687271Y74889885D01*
X70592519Y74748078D01*
X70471922Y74627481D01*
X70330115Y74532729D01*
X70172548Y74467462D01*
X70005275Y74434189D01*
X69834725Y74434189D01*
X69667452Y74467462D01*
X69509885Y74532729D01*
X69368078Y74627481D01*
X69247481Y74748078D01*
X69152729Y74889885D01*
X69087462Y75047452D01*
X69054189Y75214725D01*
X69054189Y75385275D01*
X69087462Y75552548D01*
X69152729Y75710115D01*
X69247481Y75851922D01*
X69368078Y75972519D01*
X69509885Y76067271D01*
X69667452Y76132538D01*
X69834725Y76165811D01*
X70005275Y76165811D01*
X70172548Y76132538D01*
G37*
G36*
X72712548Y76132538D02*
G01*
X72870115Y76067271D01*
X73011922Y75972519D01*
X73132519Y75851922D01*
X73227271Y75710115D01*
X73292538Y75552548D01*
X73325811Y75385275D01*
X73325811Y75214725D01*
X73292538Y75047452D01*
X73227271Y74889885D01*
X73132519Y74748078D01*
X73011922Y74627481D01*
X72870115Y74532729D01*
X72712548Y74467462D01*
X72545275Y74434189D01*
X72374725Y74434189D01*
X72207452Y74467462D01*
X72049885Y74532729D01*
X71908078Y74627481D01*
X71787481Y74748078D01*
X71692729Y74889885D01*
X71627462Y75047452D01*
X71594189Y75214725D01*
X71594189Y75385275D01*
X71627462Y75552548D01*
X71692729Y75710115D01*
X71787481Y75851922D01*
X71908078Y75972519D01*
X72049885Y76067271D01*
X72207452Y76132538D01*
X72374725Y76165811D01*
X72545275Y76165811D01*
X72712548Y76132538D01*
G37*
G36*
X75857654Y101568478D02*
G01*
X75864142Y101564142D01*
X75868478Y101557654D01*
X75870000Y101550000D01*
X75870000Y99850000D01*
X75868478Y99842346D01*
X75864142Y99835858D01*
X75857654Y99831522D01*
X75850000Y99830000D01*
X74150000Y99830000D01*
X74142346Y99831522D01*
X74135858Y99835858D01*
X74131522Y99842346D01*
X74130000Y99850000D01*
X74130000Y101550000D01*
X74131522Y101557654D01*
X74135858Y101564142D01*
X74142346Y101568478D01*
X74150000Y101570000D01*
X75850000Y101570000D01*
X75857654Y101568478D01*
G37*
G36*
X21912548Y101532538D02*
G01*
X22070115Y101467271D01*
X22211922Y101372519D01*
X22332519Y101251922D01*
X22427271Y101110115D01*
X22492538Y100952548D01*
X22525811Y100785275D01*
X22525811Y100614725D01*
X22492538Y100447452D01*
X22427271Y100289885D01*
X22332519Y100148078D01*
X22211922Y100027481D01*
X22070115Y99932729D01*
X21912548Y99867462D01*
X21745275Y99834189D01*
X21574725Y99834189D01*
X21407452Y99867462D01*
X21249885Y99932729D01*
X21108078Y100027481D01*
X20987481Y100148078D01*
X20892729Y100289885D01*
X20827462Y100447452D01*
X20794189Y100614725D01*
X20794189Y100785275D01*
X20827462Y100952548D01*
X20892729Y101110115D01*
X20987481Y101251922D01*
X21108078Y101372519D01*
X21249885Y101467271D01*
X21407452Y101532538D01*
X21574725Y101565811D01*
X21745275Y101565811D01*
X21912548Y101532538D01*
G37*
G36*
X24452548Y101532538D02*
G01*
X24610115Y101467271D01*
X24751922Y101372519D01*
X24872519Y101251922D01*
X24967271Y101110115D01*
X25032538Y100952548D01*
X25065811Y100785275D01*
X25065811Y100614725D01*
X25032538Y100447452D01*
X24967271Y100289885D01*
X24872519Y100148078D01*
X24751922Y100027481D01*
X24610115Y99932729D01*
X24452548Y99867462D01*
X24285275Y99834189D01*
X24114725Y99834189D01*
X23947452Y99867462D01*
X23789885Y99932729D01*
X23648078Y100027481D01*
X23527481Y100148078D01*
X23432729Y100289885D01*
X23367462Y100447452D01*
X23334189Y100614725D01*
X23334189Y100785275D01*
X23367462Y100952548D01*
X23432729Y101110115D01*
X23527481Y101251922D01*
X23648078Y101372519D01*
X23789885Y101467271D01*
X23947452Y101532538D01*
X24114725Y101565811D01*
X24285275Y101565811D01*
X24452548Y101532538D01*
G37*
G36*
X26992548Y101532538D02*
G01*
X27150115Y101467271D01*
X27291922Y101372519D01*
X27412519Y101251922D01*
X27507271Y101110115D01*
X27572538Y100952548D01*
X27605811Y100785275D01*
X27605811Y100614725D01*
X27572538Y100447452D01*
X27507271Y100289885D01*
X27412519Y100148078D01*
X27291922Y100027481D01*
X27150115Y99932729D01*
X26992548Y99867462D01*
X26825275Y99834189D01*
X26654725Y99834189D01*
X26487452Y99867462D01*
X26329885Y99932729D01*
X26188078Y100027481D01*
X26067481Y100148078D01*
X25972729Y100289885D01*
X25907462Y100447452D01*
X25874189Y100614725D01*
X25874189Y100785275D01*
X25907462Y100952548D01*
X25972729Y101110115D01*
X26067481Y101251922D01*
X26188078Y101372519D01*
X26329885Y101467271D01*
X26487452Y101532538D01*
X26654725Y101565811D01*
X26825275Y101565811D01*
X26992548Y101532538D01*
G37*
G36*
X29532548Y101532538D02*
G01*
X29690115Y101467271D01*
X29831922Y101372519D01*
X29952519Y101251922D01*
X30047271Y101110115D01*
X30112538Y100952548D01*
X30145811Y100785275D01*
X30145811Y100614725D01*
X30112538Y100447452D01*
X30047271Y100289885D01*
X29952519Y100148078D01*
X29831922Y100027481D01*
X29690115Y99932729D01*
X29532548Y99867462D01*
X29365275Y99834189D01*
X29194725Y99834189D01*
X29027452Y99867462D01*
X28869885Y99932729D01*
X28728078Y100027481D01*
X28607481Y100148078D01*
X28512729Y100289885D01*
X28447462Y100447452D01*
X28414189Y100614725D01*
X28414189Y100785275D01*
X28447462Y100952548D01*
X28512729Y101110115D01*
X28607481Y101251922D01*
X28728078Y101372519D01*
X28869885Y101467271D01*
X29027452Y101532538D01*
X29194725Y101565811D01*
X29365275Y101565811D01*
X29532548Y101532538D01*
G37*
G36*
X32072548Y101532538D02*
G01*
X32230115Y101467271D01*
X32371922Y101372519D01*
X32492519Y101251922D01*
X32587271Y101110115D01*
X32652538Y100952548D01*
X32685811Y100785275D01*
X32685811Y100614725D01*
X32652538Y100447452D01*
X32587271Y100289885D01*
X32492519Y100148078D01*
X32371922Y100027481D01*
X32230115Y99932729D01*
X32072548Y99867462D01*
X31905275Y99834189D01*
X31734725Y99834189D01*
X31567452Y99867462D01*
X31409885Y99932729D01*
X31268078Y100027481D01*
X31147481Y100148078D01*
X31052729Y100289885D01*
X30987462Y100447452D01*
X30954189Y100614725D01*
X30954189Y100785275D01*
X30987462Y100952548D01*
X31052729Y101110115D01*
X31147481Y101251922D01*
X31268078Y101372519D01*
X31409885Y101467271D01*
X31567452Y101532538D01*
X31734725Y101565811D01*
X31905275Y101565811D01*
X32072548Y101532538D01*
G37*
G36*
X34612548Y101532538D02*
G01*
X34770115Y101467271D01*
X34911922Y101372519D01*
X35032519Y101251922D01*
X35127271Y101110115D01*
X35192538Y100952548D01*
X35225811Y100785275D01*
X35225811Y100614725D01*
X35192538Y100447452D01*
X35127271Y100289885D01*
X35032519Y100148078D01*
X34911922Y100027481D01*
X34770115Y99932729D01*
X34612548Y99867462D01*
X34445275Y99834189D01*
X34274725Y99834189D01*
X34107452Y99867462D01*
X33949885Y99932729D01*
X33808078Y100027481D01*
X33687481Y100148078D01*
X33592729Y100289885D01*
X33527462Y100447452D01*
X33494189Y100614725D01*
X33494189Y100785275D01*
X33527462Y100952548D01*
X33592729Y101110115D01*
X33687481Y101251922D01*
X33808078Y101372519D01*
X33949885Y101467271D01*
X34107452Y101532538D01*
X34274725Y101565811D01*
X34445275Y101565811D01*
X34612548Y101532538D01*
G37*
G36*
X37152548Y101532538D02*
G01*
X37310115Y101467271D01*
X37451922Y101372519D01*
X37572519Y101251922D01*
X37667271Y101110115D01*
X37732538Y100952548D01*
X37765811Y100785275D01*
X37765811Y100614725D01*
X37732538Y100447452D01*
X37667271Y100289885D01*
X37572519Y100148078D01*
X37451922Y100027481D01*
X37310115Y99932729D01*
X37152548Y99867462D01*
X36985275Y99834189D01*
X36814725Y99834189D01*
X36647452Y99867462D01*
X36489885Y99932729D01*
X36348078Y100027481D01*
X36227481Y100148078D01*
X36132729Y100289885D01*
X36067462Y100447452D01*
X36034189Y100614725D01*
X36034189Y100785275D01*
X36067462Y100952548D01*
X36132729Y101110115D01*
X36227481Y101251922D01*
X36348078Y101372519D01*
X36489885Y101467271D01*
X36647452Y101532538D01*
X36814725Y101565811D01*
X36985275Y101565811D01*
X37152548Y101532538D01*
G37*
G36*
X39692548Y101532538D02*
G01*
X39850115Y101467271D01*
X39991922Y101372519D01*
X40112519Y101251922D01*
X40207271Y101110115D01*
X40272538Y100952548D01*
X40305811Y100785275D01*
X40305811Y100614725D01*
X40272538Y100447452D01*
X40207271Y100289885D01*
X40112519Y100148078D01*
X39991922Y100027481D01*
X39850115Y99932729D01*
X39692548Y99867462D01*
X39525275Y99834189D01*
X39354725Y99834189D01*
X39187452Y99867462D01*
X39029885Y99932729D01*
X38888078Y100027481D01*
X38767481Y100148078D01*
X38672729Y100289885D01*
X38607462Y100447452D01*
X38574189Y100614725D01*
X38574189Y100785275D01*
X38607462Y100952548D01*
X38672729Y101110115D01*
X38767481Y101251922D01*
X38888078Y101372519D01*
X39029885Y101467271D01*
X39187452Y101532538D01*
X39354725Y101565811D01*
X39525275Y101565811D01*
X39692548Y101532538D01*
G37*
G36*
X42232548Y101532538D02*
G01*
X42390115Y101467271D01*
X42531922Y101372519D01*
X42652519Y101251922D01*
X42747271Y101110115D01*
X42812538Y100952548D01*
X42845811Y100785275D01*
X42845811Y100614725D01*
X42812538Y100447452D01*
X42747271Y100289885D01*
X42652519Y100148078D01*
X42531922Y100027481D01*
X42390115Y99932729D01*
X42232548Y99867462D01*
X42065275Y99834189D01*
X41894725Y99834189D01*
X41727452Y99867462D01*
X41569885Y99932729D01*
X41428078Y100027481D01*
X41307481Y100148078D01*
X41212729Y100289885D01*
X41147462Y100447452D01*
X41114189Y100614725D01*
X41114189Y100785275D01*
X41147462Y100952548D01*
X41212729Y101110115D01*
X41307481Y101251922D01*
X41428078Y101372519D01*
X41569885Y101467271D01*
X41727452Y101532538D01*
X41894725Y101565811D01*
X42065275Y101565811D01*
X42232548Y101532538D01*
G37*
G36*
X44772548Y101532538D02*
G01*
X44930115Y101467271D01*
X45071922Y101372519D01*
X45192519Y101251922D01*
X45287271Y101110115D01*
X45352538Y100952548D01*
X45385811Y100785275D01*
X45385811Y100614725D01*
X45352538Y100447452D01*
X45287271Y100289885D01*
X45192519Y100148078D01*
X45071922Y100027481D01*
X44930115Y99932729D01*
X44772548Y99867462D01*
X44605275Y99834189D01*
X44434725Y99834189D01*
X44267452Y99867462D01*
X44109885Y99932729D01*
X43968078Y100027481D01*
X43847481Y100148078D01*
X43752729Y100289885D01*
X43687462Y100447452D01*
X43654189Y100614725D01*
X43654189Y100785275D01*
X43687462Y100952548D01*
X43752729Y101110115D01*
X43847481Y101251922D01*
X43968078Y101372519D01*
X44109885Y101467271D01*
X44267452Y101532538D01*
X44434725Y101565811D01*
X44605275Y101565811D01*
X44772548Y101532538D01*
G37*
G36*
X47312548Y101532538D02*
G01*
X47470115Y101467271D01*
X47611922Y101372519D01*
X47732519Y101251922D01*
X47827271Y101110115D01*
X47892538Y100952548D01*
X47925811Y100785275D01*
X47925811Y100614725D01*
X47892538Y100447452D01*
X47827271Y100289885D01*
X47732519Y100148078D01*
X47611922Y100027481D01*
X47470115Y99932729D01*
X47312548Y99867462D01*
X47145275Y99834189D01*
X46974725Y99834189D01*
X46807452Y99867462D01*
X46649885Y99932729D01*
X46508078Y100027481D01*
X46387481Y100148078D01*
X46292729Y100289885D01*
X46227462Y100447452D01*
X46194189Y100614725D01*
X46194189Y100785275D01*
X46227462Y100952548D01*
X46292729Y101110115D01*
X46387481Y101251922D01*
X46508078Y101372519D01*
X46649885Y101467271D01*
X46807452Y101532538D01*
X46974725Y101565811D01*
X47145275Y101565811D01*
X47312548Y101532538D01*
G37*
G36*
X49852548Y101532538D02*
G01*
X50010115Y101467271D01*
X50151922Y101372519D01*
X50272519Y101251922D01*
X50367271Y101110115D01*
X50432538Y100952548D01*
X50465811Y100785275D01*
X50465811Y100614725D01*
X50432538Y100447452D01*
X50367271Y100289885D01*
X50272519Y100148078D01*
X50151922Y100027481D01*
X50010115Y99932729D01*
X49852548Y99867462D01*
X49685275Y99834189D01*
X49514725Y99834189D01*
X49347452Y99867462D01*
X49189885Y99932729D01*
X49048078Y100027481D01*
X48927481Y100148078D01*
X48832729Y100289885D01*
X48767462Y100447452D01*
X48734189Y100614725D01*
X48734189Y100785275D01*
X48767462Y100952548D01*
X48832729Y101110115D01*
X48927481Y101251922D01*
X49048078Y101372519D01*
X49189885Y101467271D01*
X49347452Y101532538D01*
X49514725Y101565811D01*
X49685275Y101565811D01*
X49852548Y101532538D01*
G37*
G36*
X52392548Y101532538D02*
G01*
X52550115Y101467271D01*
X52691922Y101372519D01*
X52812519Y101251922D01*
X52907271Y101110115D01*
X52972538Y100952548D01*
X53005811Y100785275D01*
X53005811Y100614725D01*
X52972538Y100447452D01*
X52907271Y100289885D01*
X52812519Y100148078D01*
X52691922Y100027481D01*
X52550115Y99932729D01*
X52392548Y99867462D01*
X52225275Y99834189D01*
X52054725Y99834189D01*
X51887452Y99867462D01*
X51729885Y99932729D01*
X51588078Y100027481D01*
X51467481Y100148078D01*
X51372729Y100289885D01*
X51307462Y100447452D01*
X51274189Y100614725D01*
X51274189Y100785275D01*
X51307462Y100952548D01*
X51372729Y101110115D01*
X51467481Y101251922D01*
X51588078Y101372519D01*
X51729885Y101467271D01*
X51887452Y101532538D01*
X52054725Y101565811D01*
X52225275Y101565811D01*
X52392548Y101532538D01*
G37*
G36*
X54932548Y101532538D02*
G01*
X55090115Y101467271D01*
X55231922Y101372519D01*
X55352519Y101251922D01*
X55447271Y101110115D01*
X55512538Y100952548D01*
X55545811Y100785275D01*
X55545811Y100614725D01*
X55512538Y100447452D01*
X55447271Y100289885D01*
X55352519Y100148078D01*
X55231922Y100027481D01*
X55090115Y99932729D01*
X54932548Y99867462D01*
X54765275Y99834189D01*
X54594725Y99834189D01*
X54427452Y99867462D01*
X54269885Y99932729D01*
X54128078Y100027481D01*
X54007481Y100148078D01*
X53912729Y100289885D01*
X53847462Y100447452D01*
X53814189Y100614725D01*
X53814189Y100785275D01*
X53847462Y100952548D01*
X53912729Y101110115D01*
X54007481Y101251922D01*
X54128078Y101372519D01*
X54269885Y101467271D01*
X54427452Y101532538D01*
X54594725Y101565811D01*
X54765275Y101565811D01*
X54932548Y101532538D01*
G37*
G36*
X57472548Y101532538D02*
G01*
X57630115Y101467271D01*
X57771922Y101372519D01*
X57892519Y101251922D01*
X57987271Y101110115D01*
X58052538Y100952548D01*
X58085811Y100785275D01*
X58085811Y100614725D01*
X58052538Y100447452D01*
X57987271Y100289885D01*
X57892519Y100148078D01*
X57771922Y100027481D01*
X57630115Y99932729D01*
X57472548Y99867462D01*
X57305275Y99834189D01*
X57134725Y99834189D01*
X56967452Y99867462D01*
X56809885Y99932729D01*
X56668078Y100027481D01*
X56547481Y100148078D01*
X56452729Y100289885D01*
X56387462Y100447452D01*
X56354189Y100614725D01*
X56354189Y100785275D01*
X56387462Y100952548D01*
X56452729Y101110115D01*
X56547481Y101251922D01*
X56668078Y101372519D01*
X56809885Y101467271D01*
X56967452Y101532538D01*
X57134725Y101565811D01*
X57305275Y101565811D01*
X57472548Y101532538D01*
G37*
G36*
X60012548Y101532538D02*
G01*
X60170115Y101467271D01*
X60311922Y101372519D01*
X60432519Y101251922D01*
X60527271Y101110115D01*
X60592538Y100952548D01*
X60625811Y100785275D01*
X60625811Y100614725D01*
X60592538Y100447452D01*
X60527271Y100289885D01*
X60432519Y100148078D01*
X60311922Y100027481D01*
X60170115Y99932729D01*
X60012548Y99867462D01*
X59845275Y99834189D01*
X59674725Y99834189D01*
X59507452Y99867462D01*
X59349885Y99932729D01*
X59208078Y100027481D01*
X59087481Y100148078D01*
X58992729Y100289885D01*
X58927462Y100447452D01*
X58894189Y100614725D01*
X58894189Y100785275D01*
X58927462Y100952548D01*
X58992729Y101110115D01*
X59087481Y101251922D01*
X59208078Y101372519D01*
X59349885Y101467271D01*
X59507452Y101532538D01*
X59674725Y101565811D01*
X59845275Y101565811D01*
X60012548Y101532538D01*
G37*
G36*
X62552548Y101532538D02*
G01*
X62710115Y101467271D01*
X62851922Y101372519D01*
X62972519Y101251922D01*
X63067271Y101110115D01*
X63132538Y100952548D01*
X63165811Y100785275D01*
X63165811Y100614725D01*
X63132538Y100447452D01*
X63067271Y100289885D01*
X62972519Y100148078D01*
X62851922Y100027481D01*
X62710115Y99932729D01*
X62552548Y99867462D01*
X62385275Y99834189D01*
X62214725Y99834189D01*
X62047452Y99867462D01*
X61889885Y99932729D01*
X61748078Y100027481D01*
X61627481Y100148078D01*
X61532729Y100289885D01*
X61467462Y100447452D01*
X61434189Y100614725D01*
X61434189Y100785275D01*
X61467462Y100952548D01*
X61532729Y101110115D01*
X61627481Y101251922D01*
X61748078Y101372519D01*
X61889885Y101467271D01*
X62047452Y101532538D01*
X62214725Y101565811D01*
X62385275Y101565811D01*
X62552548Y101532538D01*
G37*
G36*
X65092548Y101532538D02*
G01*
X65250115Y101467271D01*
X65391922Y101372519D01*
X65512519Y101251922D01*
X65607271Y101110115D01*
X65672538Y100952548D01*
X65705811Y100785275D01*
X65705811Y100614725D01*
X65672538Y100447452D01*
X65607271Y100289885D01*
X65512519Y100148078D01*
X65391922Y100027481D01*
X65250115Y99932729D01*
X65092548Y99867462D01*
X64925275Y99834189D01*
X64754725Y99834189D01*
X64587452Y99867462D01*
X64429885Y99932729D01*
X64288078Y100027481D01*
X64167481Y100148078D01*
X64072729Y100289885D01*
X64007462Y100447452D01*
X63974189Y100614725D01*
X63974189Y100785275D01*
X64007462Y100952548D01*
X64072729Y101110115D01*
X64167481Y101251922D01*
X64288078Y101372519D01*
X64429885Y101467271D01*
X64587452Y101532538D01*
X64754725Y101565811D01*
X64925275Y101565811D01*
X65092548Y101532538D01*
G37*
G36*
X67632548Y101532538D02*
G01*
X67790115Y101467271D01*
X67931922Y101372519D01*
X68052519Y101251922D01*
X68147271Y101110115D01*
X68212538Y100952548D01*
X68245811Y100785275D01*
X68245811Y100614725D01*
X68212538Y100447452D01*
X68147271Y100289885D01*
X68052519Y100148078D01*
X67931922Y100027481D01*
X67790115Y99932729D01*
X67632548Y99867462D01*
X67465275Y99834189D01*
X67294725Y99834189D01*
X67127452Y99867462D01*
X66969885Y99932729D01*
X66828078Y100027481D01*
X66707481Y100148078D01*
X66612729Y100289885D01*
X66547462Y100447452D01*
X66514189Y100614725D01*
X66514189Y100785275D01*
X66547462Y100952548D01*
X66612729Y101110115D01*
X66707481Y101251922D01*
X66828078Y101372519D01*
X66969885Y101467271D01*
X67127452Y101532538D01*
X67294725Y101565811D01*
X67465275Y101565811D01*
X67632548Y101532538D01*
G37*
G36*
X70172548Y101532538D02*
G01*
X70330115Y101467271D01*
X70471922Y101372519D01*
X70592519Y101251922D01*
X70687271Y101110115D01*
X70752538Y100952548D01*
X70785811Y100785275D01*
X70785811Y100614725D01*
X70752538Y100447452D01*
X70687271Y100289885D01*
X70592519Y100148078D01*
X70471922Y100027481D01*
X70330115Y99932729D01*
X70172548Y99867462D01*
X70005275Y99834189D01*
X69834725Y99834189D01*
X69667452Y99867462D01*
X69509885Y99932729D01*
X69368078Y100027481D01*
X69247481Y100148078D01*
X69152729Y100289885D01*
X69087462Y100447452D01*
X69054189Y100614725D01*
X69054189Y100785275D01*
X69087462Y100952548D01*
X69152729Y101110115D01*
X69247481Y101251922D01*
X69368078Y101372519D01*
X69509885Y101467271D01*
X69667452Y101532538D01*
X69834725Y101565811D01*
X70005275Y101565811D01*
X70172548Y101532538D01*
G37*
G36*
X72712548Y101532538D02*
G01*
X72870115Y101467271D01*
X73011922Y101372519D01*
X73132519Y101251922D01*
X73227271Y101110115D01*
X73292538Y100952548D01*
X73325811Y100785275D01*
X73325811Y100614725D01*
X73292538Y100447452D01*
X73227271Y100289885D01*
X73132519Y100148078D01*
X73011922Y100027481D01*
X72870115Y99932729D01*
X72712548Y99867462D01*
X72545275Y99834189D01*
X72374725Y99834189D01*
X72207452Y99867462D01*
X72049885Y99932729D01*
X71908078Y100027481D01*
X71787481Y100148078D01*
X71692729Y100289885D01*
X71627462Y100447452D01*
X71594189Y100614725D01*
X71594189Y100785275D01*
X71627462Y100952548D01*
X71692729Y101110115D01*
X71787481Y101251922D01*
X71908078Y101372519D01*
X72049885Y101467271D01*
X72207452Y101532538D01*
X72374725Y101565811D01*
X72545275Y101565811D01*
X72712548Y101532538D01*
G37*
G36*
X18857654Y110868478D02*
G01*
X18864142Y110864142D01*
X18868478Y110857654D01*
X18870000Y110850000D01*
X18870000Y109150000D01*
X18868478Y109142346D01*
X18864142Y109135858D01*
X18857654Y109131522D01*
X18850000Y109130000D01*
X17150000Y109130000D01*
X17142346Y109131522D01*
X17135858Y109135858D01*
X17131522Y109142346D01*
X17130000Y109150000D01*
X17130000Y110850000D01*
X17131522Y110857654D01*
X17135858Y110864142D01*
X17142346Y110868478D01*
X17150000Y110870000D01*
X18850000Y110870000D01*
X18857654Y110868478D01*
G37*
G36*
X58857654Y110868478D02*
G01*
X58864142Y110864142D01*
X58868478Y110857654D01*
X58870000Y110850000D01*
X58870000Y109150000D01*
X58868478Y109142346D01*
X58864142Y109135858D01*
X58857654Y109131522D01*
X58850000Y109130000D01*
X57150000Y109130000D01*
X57142346Y109131522D01*
X57135858Y109135858D01*
X57131522Y109142346D01*
X57130000Y109150000D01*
X57130000Y110850000D01*
X57131522Y110857654D01*
X57135858Y110864142D01*
X57142346Y110868478D01*
X57150000Y110870000D01*
X58850000Y110870000D01*
X58857654Y110868478D01*
G37*
G36*
X20792548Y110832538D02*
G01*
X20950115Y110767271D01*
X21091922Y110672519D01*
X21212519Y110551922D01*
X21307271Y110410115D01*
X21372538Y110252548D01*
X21405811Y110085275D01*
X21405811Y109914725D01*
X21372538Y109747452D01*
X21307271Y109589885D01*
X21212519Y109448078D01*
X21091922Y109327481D01*
X20950115Y109232729D01*
X20792548Y109167462D01*
X20625275Y109134189D01*
X20454725Y109134189D01*
X20287452Y109167462D01*
X20129885Y109232729D01*
X19988078Y109327481D01*
X19867481Y109448078D01*
X19772729Y109589885D01*
X19707462Y109747452D01*
X19674189Y109914725D01*
X19674189Y110085275D01*
X19707462Y110252548D01*
X19772729Y110410115D01*
X19867481Y110551922D01*
X19988078Y110672519D01*
X20129885Y110767271D01*
X20287452Y110832538D01*
X20454725Y110865811D01*
X20625275Y110865811D01*
X20792548Y110832538D01*
G37*
G36*
X23332548Y110832538D02*
G01*
X23490115Y110767271D01*
X23631922Y110672519D01*
X23752519Y110551922D01*
X23847271Y110410115D01*
X23912538Y110252548D01*
X23945811Y110085275D01*
X23945811Y109914725D01*
X23912538Y109747452D01*
X23847271Y109589885D01*
X23752519Y109448078D01*
X23631922Y109327481D01*
X23490115Y109232729D01*
X23332548Y109167462D01*
X23165275Y109134189D01*
X22994725Y109134189D01*
X22827452Y109167462D01*
X22669885Y109232729D01*
X22528078Y109327481D01*
X22407481Y109448078D01*
X22312729Y109589885D01*
X22247462Y109747452D01*
X22214189Y109914725D01*
X22214189Y110085275D01*
X22247462Y110252548D01*
X22312729Y110410115D01*
X22407481Y110551922D01*
X22528078Y110672519D01*
X22669885Y110767271D01*
X22827452Y110832538D01*
X22994725Y110865811D01*
X23165275Y110865811D01*
X23332548Y110832538D01*
G37*
G36*
X25872548Y110832538D02*
G01*
X26030115Y110767271D01*
X26171922Y110672519D01*
X26292519Y110551922D01*
X26387271Y110410115D01*
X26452538Y110252548D01*
X26485811Y110085275D01*
X26485811Y109914725D01*
X26452538Y109747452D01*
X26387271Y109589885D01*
X26292519Y109448078D01*
X26171922Y109327481D01*
X26030115Y109232729D01*
X25872548Y109167462D01*
X25705275Y109134189D01*
X25534725Y109134189D01*
X25367452Y109167462D01*
X25209885Y109232729D01*
X25068078Y109327481D01*
X24947481Y109448078D01*
X24852729Y109589885D01*
X24787462Y109747452D01*
X24754189Y109914725D01*
X24754189Y110085275D01*
X24787462Y110252548D01*
X24852729Y110410115D01*
X24947481Y110551922D01*
X25068078Y110672519D01*
X25209885Y110767271D01*
X25367452Y110832538D01*
X25534725Y110865811D01*
X25705275Y110865811D01*
X25872548Y110832538D01*
G37*
G36*
X28412548Y110832538D02*
G01*
X28570115Y110767271D01*
X28711922Y110672519D01*
X28832519Y110551922D01*
X28927271Y110410115D01*
X28992538Y110252548D01*
X29025811Y110085275D01*
X29025811Y109914725D01*
X28992538Y109747452D01*
X28927271Y109589885D01*
X28832519Y109448078D01*
X28711922Y109327481D01*
X28570115Y109232729D01*
X28412548Y109167462D01*
X28245275Y109134189D01*
X28074725Y109134189D01*
X27907452Y109167462D01*
X27749885Y109232729D01*
X27608078Y109327481D01*
X27487481Y109448078D01*
X27392729Y109589885D01*
X27327462Y109747452D01*
X27294189Y109914725D01*
X27294189Y110085275D01*
X27327462Y110252548D01*
X27392729Y110410115D01*
X27487481Y110551922D01*
X27608078Y110672519D01*
X27749885Y110767271D01*
X27907452Y110832538D01*
X28074725Y110865811D01*
X28245275Y110865811D01*
X28412548Y110832538D01*
G37*
G36*
X30952548Y110832538D02*
G01*
X31110115Y110767271D01*
X31251922Y110672519D01*
X31372519Y110551922D01*
X31467271Y110410115D01*
X31532538Y110252548D01*
X31565811Y110085275D01*
X31565811Y109914725D01*
X31532538Y109747452D01*
X31467271Y109589885D01*
X31372519Y109448078D01*
X31251922Y109327481D01*
X31110115Y109232729D01*
X30952548Y109167462D01*
X30785275Y109134189D01*
X30614725Y109134189D01*
X30447452Y109167462D01*
X30289885Y109232729D01*
X30148078Y109327481D01*
X30027481Y109448078D01*
X29932729Y109589885D01*
X29867462Y109747452D01*
X29834189Y109914725D01*
X29834189Y110085275D01*
X29867462Y110252548D01*
X29932729Y110410115D01*
X30027481Y110551922D01*
X30148078Y110672519D01*
X30289885Y110767271D01*
X30447452Y110832538D01*
X30614725Y110865811D01*
X30785275Y110865811D01*
X30952548Y110832538D01*
G37*
G36*
X33492548Y110832538D02*
G01*
X33650115Y110767271D01*
X33791922Y110672519D01*
X33912519Y110551922D01*
X34007271Y110410115D01*
X34072538Y110252548D01*
X34105811Y110085275D01*
X34105811Y109914725D01*
X34072538Y109747452D01*
X34007271Y109589885D01*
X33912519Y109448078D01*
X33791922Y109327481D01*
X33650115Y109232729D01*
X33492548Y109167462D01*
X33325275Y109134189D01*
X33154725Y109134189D01*
X32987452Y109167462D01*
X32829885Y109232729D01*
X32688078Y109327481D01*
X32567481Y109448078D01*
X32472729Y109589885D01*
X32407462Y109747452D01*
X32374189Y109914725D01*
X32374189Y110085275D01*
X32407462Y110252548D01*
X32472729Y110410115D01*
X32567481Y110551922D01*
X32688078Y110672519D01*
X32829885Y110767271D01*
X32987452Y110832538D01*
X33154725Y110865811D01*
X33325275Y110865811D01*
X33492548Y110832538D01*
G37*
G36*
X36032548Y110832538D02*
G01*
X36190115Y110767271D01*
X36331922Y110672519D01*
X36452519Y110551922D01*
X36547271Y110410115D01*
X36612538Y110252548D01*
X36645811Y110085275D01*
X36645811Y109914725D01*
X36612538Y109747452D01*
X36547271Y109589885D01*
X36452519Y109448078D01*
X36331922Y109327481D01*
X36190115Y109232729D01*
X36032548Y109167462D01*
X35865275Y109134189D01*
X35694725Y109134189D01*
X35527452Y109167462D01*
X35369885Y109232729D01*
X35228078Y109327481D01*
X35107481Y109448078D01*
X35012729Y109589885D01*
X34947462Y109747452D01*
X34914189Y109914725D01*
X34914189Y110085275D01*
X34947462Y110252548D01*
X35012729Y110410115D01*
X35107481Y110551922D01*
X35228078Y110672519D01*
X35369885Y110767271D01*
X35527452Y110832538D01*
X35694725Y110865811D01*
X35865275Y110865811D01*
X36032548Y110832538D01*
G37*
G36*
X38572548Y110832538D02*
G01*
X38730115Y110767271D01*
X38871922Y110672519D01*
X38992519Y110551922D01*
X39087271Y110410115D01*
X39152538Y110252548D01*
X39185811Y110085275D01*
X39185811Y109914725D01*
X39152538Y109747452D01*
X39087271Y109589885D01*
X38992519Y109448078D01*
X38871922Y109327481D01*
X38730115Y109232729D01*
X38572548Y109167462D01*
X38405275Y109134189D01*
X38234725Y109134189D01*
X38067452Y109167462D01*
X37909885Y109232729D01*
X37768078Y109327481D01*
X37647481Y109448078D01*
X37552729Y109589885D01*
X37487462Y109747452D01*
X37454189Y109914725D01*
X37454189Y110085275D01*
X37487462Y110252548D01*
X37552729Y110410115D01*
X37647481Y110551922D01*
X37768078Y110672519D01*
X37909885Y110767271D01*
X38067452Y110832538D01*
X38234725Y110865811D01*
X38405275Y110865811D01*
X38572548Y110832538D01*
G37*
G36*
X41112548Y110832538D02*
G01*
X41270115Y110767271D01*
X41411922Y110672519D01*
X41532519Y110551922D01*
X41627271Y110410115D01*
X41692538Y110252548D01*
X41725811Y110085275D01*
X41725811Y109914725D01*
X41692538Y109747452D01*
X41627271Y109589885D01*
X41532519Y109448078D01*
X41411922Y109327481D01*
X41270115Y109232729D01*
X41112548Y109167462D01*
X40945275Y109134189D01*
X40774725Y109134189D01*
X40607452Y109167462D01*
X40449885Y109232729D01*
X40308078Y109327481D01*
X40187481Y109448078D01*
X40092729Y109589885D01*
X40027462Y109747452D01*
X39994189Y109914725D01*
X39994189Y110085275D01*
X40027462Y110252548D01*
X40092729Y110410115D01*
X40187481Y110551922D01*
X40308078Y110672519D01*
X40449885Y110767271D01*
X40607452Y110832538D01*
X40774725Y110865811D01*
X40945275Y110865811D01*
X41112548Y110832538D01*
G37*
G36*
X43652548Y110832538D02*
G01*
X43810115Y110767271D01*
X43951922Y110672519D01*
X44072519Y110551922D01*
X44167271Y110410115D01*
X44232538Y110252548D01*
X44265811Y110085275D01*
X44265811Y109914725D01*
X44232538Y109747452D01*
X44167271Y109589885D01*
X44072519Y109448078D01*
X43951922Y109327481D01*
X43810115Y109232729D01*
X43652548Y109167462D01*
X43485275Y109134189D01*
X43314725Y109134189D01*
X43147452Y109167462D01*
X42989885Y109232729D01*
X42848078Y109327481D01*
X42727481Y109448078D01*
X42632729Y109589885D01*
X42567462Y109747452D01*
X42534189Y109914725D01*
X42534189Y110085275D01*
X42567462Y110252548D01*
X42632729Y110410115D01*
X42727481Y110551922D01*
X42848078Y110672519D01*
X42989885Y110767271D01*
X43147452Y110832538D01*
X43314725Y110865811D01*
X43485275Y110865811D01*
X43652548Y110832538D01*
G37*
G36*
X46192548Y110832538D02*
G01*
X46350115Y110767271D01*
X46491922Y110672519D01*
X46612519Y110551922D01*
X46707271Y110410115D01*
X46772538Y110252548D01*
X46805811Y110085275D01*
X46805811Y109914725D01*
X46772538Y109747452D01*
X46707271Y109589885D01*
X46612519Y109448078D01*
X46491922Y109327481D01*
X46350115Y109232729D01*
X46192548Y109167462D01*
X46025275Y109134189D01*
X45854725Y109134189D01*
X45687452Y109167462D01*
X45529885Y109232729D01*
X45388078Y109327481D01*
X45267481Y109448078D01*
X45172729Y109589885D01*
X45107462Y109747452D01*
X45074189Y109914725D01*
X45074189Y110085275D01*
X45107462Y110252548D01*
X45172729Y110410115D01*
X45267481Y110551922D01*
X45388078Y110672519D01*
X45529885Y110767271D01*
X45687452Y110832538D01*
X45854725Y110865811D01*
X46025275Y110865811D01*
X46192548Y110832538D01*
G37*
G36*
X48732548Y110832538D02*
G01*
X48890115Y110767271D01*
X49031922Y110672519D01*
X49152519Y110551922D01*
X49247271Y110410115D01*
X49312538Y110252548D01*
X49345811Y110085275D01*
X49345811Y109914725D01*
X49312538Y109747452D01*
X49247271Y109589885D01*
X49152519Y109448078D01*
X49031922Y109327481D01*
X48890115Y109232729D01*
X48732548Y109167462D01*
X48565275Y109134189D01*
X48394725Y109134189D01*
X48227452Y109167462D01*
X48069885Y109232729D01*
X47928078Y109327481D01*
X47807481Y109448078D01*
X47712729Y109589885D01*
X47647462Y109747452D01*
X47614189Y109914725D01*
X47614189Y110085275D01*
X47647462Y110252548D01*
X47712729Y110410115D01*
X47807481Y110551922D01*
X47928078Y110672519D01*
X48069885Y110767271D01*
X48227452Y110832538D01*
X48394725Y110865811D01*
X48565275Y110865811D01*
X48732548Y110832538D01*
G37*
G36*
X51272548Y110832538D02*
G01*
X51430115Y110767271D01*
X51571922Y110672519D01*
X51692519Y110551922D01*
X51787271Y110410115D01*
X51852538Y110252548D01*
X51885811Y110085275D01*
X51885811Y109914725D01*
X51852538Y109747452D01*
X51787271Y109589885D01*
X51692519Y109448078D01*
X51571922Y109327481D01*
X51430115Y109232729D01*
X51272548Y109167462D01*
X51105275Y109134189D01*
X50934725Y109134189D01*
X50767452Y109167462D01*
X50609885Y109232729D01*
X50468078Y109327481D01*
X50347481Y109448078D01*
X50252729Y109589885D01*
X50187462Y109747452D01*
X50154189Y109914725D01*
X50154189Y110085275D01*
X50187462Y110252548D01*
X50252729Y110410115D01*
X50347481Y110551922D01*
X50468078Y110672519D01*
X50609885Y110767271D01*
X50767452Y110832538D01*
X50934725Y110865811D01*
X51105275Y110865811D01*
X51272548Y110832538D01*
G37*
G36*
X60792548Y110832538D02*
G01*
X60950115Y110767271D01*
X61091922Y110672519D01*
X61212519Y110551922D01*
X61307271Y110410115D01*
X61372538Y110252548D01*
X61405811Y110085275D01*
X61405811Y109914725D01*
X61372538Y109747452D01*
X61307271Y109589885D01*
X61212519Y109448078D01*
X61091922Y109327481D01*
X60950115Y109232729D01*
X60792548Y109167462D01*
X60625275Y109134189D01*
X60454725Y109134189D01*
X60287452Y109167462D01*
X60129885Y109232729D01*
X59988078Y109327481D01*
X59867481Y109448078D01*
X59772729Y109589885D01*
X59707462Y109747452D01*
X59674189Y109914725D01*
X59674189Y110085275D01*
X59707462Y110252548D01*
X59772729Y110410115D01*
X59867481Y110551922D01*
X59988078Y110672519D01*
X60129885Y110767271D01*
X60287452Y110832538D01*
X60454725Y110865811D01*
X60625275Y110865811D01*
X60792548Y110832538D01*
G37*
G36*
X63332548Y110832538D02*
G01*
X63490115Y110767271D01*
X63631922Y110672519D01*
X63752519Y110551922D01*
X63847271Y110410115D01*
X63912538Y110252548D01*
X63945811Y110085275D01*
X63945811Y109914725D01*
X63912538Y109747452D01*
X63847271Y109589885D01*
X63752519Y109448078D01*
X63631922Y109327481D01*
X63490115Y109232729D01*
X63332548Y109167462D01*
X63165275Y109134189D01*
X62994725Y109134189D01*
X62827452Y109167462D01*
X62669885Y109232729D01*
X62528078Y109327481D01*
X62407481Y109448078D01*
X62312729Y109589885D01*
X62247462Y109747452D01*
X62214189Y109914725D01*
X62214189Y110085275D01*
X62247462Y110252548D01*
X62312729Y110410115D01*
X62407481Y110551922D01*
X62528078Y110672519D01*
X62669885Y110767271D01*
X62827452Y110832538D01*
X62994725Y110865811D01*
X63165275Y110865811D01*
X63332548Y110832538D01*
G37*
G36*
X65872548Y110832538D02*
G01*
X66030115Y110767271D01*
X66171922Y110672519D01*
X66292519Y110551922D01*
X66387271Y110410115D01*
X66452538Y110252548D01*
X66485811Y110085275D01*
X66485811Y109914725D01*
X66452538Y109747452D01*
X66387271Y109589885D01*
X66292519Y109448078D01*
X66171922Y109327481D01*
X66030115Y109232729D01*
X65872548Y109167462D01*
X65705275Y109134189D01*
X65534725Y109134189D01*
X65367452Y109167462D01*
X65209885Y109232729D01*
X65068078Y109327481D01*
X64947481Y109448078D01*
X64852729Y109589885D01*
X64787462Y109747452D01*
X64754189Y109914725D01*
X64754189Y110085275D01*
X64787462Y110252548D01*
X64852729Y110410115D01*
X64947481Y110551922D01*
X65068078Y110672519D01*
X65209885Y110767271D01*
X65367452Y110832538D01*
X65534725Y110865811D01*
X65705275Y110865811D01*
X65872548Y110832538D01*
G37*
G36*
X68412548Y110832538D02*
G01*
X68570115Y110767271D01*
X68711922Y110672519D01*
X68832519Y110551922D01*
X68927271Y110410115D01*
X68992538Y110252548D01*
X69025811Y110085275D01*
X69025811Y109914725D01*
X68992538Y109747452D01*
X68927271Y109589885D01*
X68832519Y109448078D01*
X68711922Y109327481D01*
X68570115Y109232729D01*
X68412548Y109167462D01*
X68245275Y109134189D01*
X68074725Y109134189D01*
X67907452Y109167462D01*
X67749885Y109232729D01*
X67608078Y109327481D01*
X67487481Y109448078D01*
X67392729Y109589885D01*
X67327462Y109747452D01*
X67294189Y109914725D01*
X67294189Y110085275D01*
X67327462Y110252548D01*
X67392729Y110410115D01*
X67487481Y110551922D01*
X67608078Y110672519D01*
X67749885Y110767271D01*
X67907452Y110832538D01*
X68074725Y110865811D01*
X68245275Y110865811D01*
X68412548Y110832538D01*
G37*
G36*
X70952548Y110832538D02*
G01*
X71110115Y110767271D01*
X71251922Y110672519D01*
X71372519Y110551922D01*
X71467271Y110410115D01*
X71532538Y110252548D01*
X71565811Y110085275D01*
X71565811Y109914725D01*
X71532538Y109747452D01*
X71467271Y109589885D01*
X71372519Y109448078D01*
X71251922Y109327481D01*
X71110115Y109232729D01*
X70952548Y109167462D01*
X70785275Y109134189D01*
X70614725Y109134189D01*
X70447452Y109167462D01*
X70289885Y109232729D01*
X70148078Y109327481D01*
X70027481Y109448078D01*
X69932729Y109589885D01*
X69867462Y109747452D01*
X69834189Y109914725D01*
X69834189Y110085275D01*
X69867462Y110252548D01*
X69932729Y110410115D01*
X70027481Y110551922D01*
X70148078Y110672519D01*
X70289885Y110767271D01*
X70447452Y110832538D01*
X70614725Y110865811D01*
X70785275Y110865811D01*
X70952548Y110832538D01*
G37*
G36*
X5354837Y113478002D02*
G01*
X5581679Y113404297D01*
X5794198Y113296013D01*
X5987161Y113155817D01*
X6155817Y112987161D01*
X6296013Y112794198D01*
X6404297Y112581679D01*
X6478002Y112354837D01*
X6515314Y112119258D01*
X6515314Y111880742D01*
X6478002Y111645163D01*
X6404297Y111418321D01*
X6296013Y111205802D01*
X6155817Y111012839D01*
X5987161Y110844183D01*
X5794198Y110703987D01*
X5581679Y110595703D01*
X5354837Y110521998D01*
X5119258Y110484686D01*
X4880742Y110484686D01*
X4645163Y110521998D01*
X4418321Y110595703D01*
X4205802Y110703987D01*
X4012839Y110844183D01*
X3844183Y111012839D01*
X3703987Y111205802D01*
X3595703Y111418321D01*
X3521998Y111645163D01*
X3484686Y111880742D01*
X3484686Y112119258D01*
X3521998Y112354837D01*
X3595703Y112581679D01*
X3703987Y112794198D01*
X3844183Y112987161D01*
X4012839Y113155817D01*
X4205802Y113296013D01*
X4418321Y113404297D01*
X4645163Y113478002D01*
X4880742Y113515314D01*
X5119258Y113515314D01*
X5354837Y113478002D01*
G37*
G36*
X89854837Y113478002D02*
G01*
X90081679Y113404297D01*
X90294198Y113296013D01*
X90487161Y113155817D01*
X90655817Y112987161D01*
X90796013Y112794198D01*
X90904297Y112581679D01*
X90978002Y112354837D01*
X91015314Y112119258D01*
X91015314Y111880742D01*
X90978002Y111645163D01*
X90904297Y111418321D01*
X90796013Y111205802D01*
X90655817Y111012839D01*
X90487161Y110844183D01*
X90294198Y110703987D01*
X90081679Y110595703D01*
X89854837Y110521998D01*
X89619258Y110484686D01*
X89380742Y110484686D01*
X89145163Y110521998D01*
X88918321Y110595703D01*
X88705802Y110703987D01*
X88512839Y110844183D01*
X88344183Y111012839D01*
X88203987Y111205802D01*
X88095703Y111418321D01*
X88021998Y111645163D01*
X87984686Y111880742D01*
X87984686Y112119258D01*
X88021998Y112354837D01*
X88095703Y112581679D01*
X88203987Y112794198D01*
X88344183Y112987161D01*
X88512839Y113155817D01*
X88705802Y113296013D01*
X88918321Y113404297D01*
X89145163Y113478002D01*
X89380742Y113515314D01*
X89619258Y113515314D01*
X89854837Y113478002D01*
G37*
M02*
