M48
; DRILL file KiCad 10.0.6 date 2026-10-10T09:40:18
; FORMAT={-:-/ absolute / metric / decimal}
; #@! TF.CreationDate,2026-10-10T09:40:18+08:00
; #@! TF.GenerationSoftware,Kicad,Pcbnew,10.0.6
; #@! TF.FileFunction,Plated,1,4,PTH
FMAT,2
METRIC
; #@! TA.AperFunction,Plated,PTH,ViaDrill
T1C0.300
; #@! TA.AperFunction,Plated,PTH,ComponentDrill
T2C1.000
; #@! TA.AperFunction,Plated,PTH,ComponentDrill
T3C1.200
; #@! TA.AperFunction,Plated,PTH,ComponentDrill
T4C1.500
%
G90
G05
T1
X17.75Y108.5
X18.0Y68.5
X18.75Y108.5
X18.75Y69.0
X22.75Y73.75
X22.75Y71.75
X24.0Y72.5
X27.0Y69.25
X27.0Y68.25
X27.0Y64.75
X27.75Y70.75
X28.0Y64.75
X29.25Y71.75
X30.0Y73.0
X30.5Y73.75
X32.5Y73.75
X34.5Y95.5
X35.5Y70.75
X35.5Y69.75
X36.5Y51.75
X37.25Y94.75
X37.5Y53.75
X37.75Y95.5
X40.75Y41.5
X41.0Y67.5
X41.5Y66.25
X42.0Y39.75
X44.5Y69.5
X45.25Y68.0
X48.0Y65.5
X49.25Y95.5
X49.25Y63.5
X50.0Y58.25
X50.5Y96.25
X50.5Y57.5
X51.0Y97.0
X51.25Y73.75
X51.25Y72.75
X52.5Y61.0
X52.5Y60.0
X53.25Y54.5
X54.0Y54.0
X61.75Y62.0
X62.25Y71.5
X62.25Y62.75
X62.5Y96.25
X63.0Y97.0
X63.0Y95.5
X63.0Y72.0
X64.5Y62.75
X65.25Y57.0
X65.75Y57.75
X72.25Y33.75
X72.75Y33.0
T2
X3.07Y27.0
X3.07Y24.5
X3.07Y22.0
X9.3Y15.77
X11.8Y15.77
X14.3Y15.77
X18.0Y110.0
X20.54Y110.0
X21.66Y100.7
X21.66Y75.3
X23.08Y110.0
X24.2Y100.7
X24.2Y75.3
X25.62Y110.0
X26.74Y100.7
X26.74Y75.3
X28.16Y110.0
X29.28Y100.7
X29.28Y75.3
X30.7Y110.0
X31.82Y100.7
X31.82Y75.3
X33.24Y110.0
X34.36Y100.7
X34.36Y75.3
X35.0Y68.0
X35.0Y65.46
X35.0Y62.92
X35.0Y60.38
X35.0Y57.84
X35.0Y55.3
X35.0Y52.76
X35.645Y32.29
X35.645Y29.75
X35.645Y27.21
X35.78Y110.0
X36.9Y100.7
X36.9Y75.3
X38.32Y110.0
X39.44Y100.7
X39.44Y75.3
X40.86Y110.0
X41.98Y100.7
X41.98Y75.3
X43.265Y32.29
X43.265Y29.75
X43.265Y27.21
X43.4Y110.0
X44.52Y100.7
X44.52Y75.3
X45.94Y110.0
X47.06Y100.7
X47.06Y75.3
X48.48Y110.0
X49.6Y100.7
X49.6Y75.3
X51.02Y110.0
X52.14Y100.7
X52.14Y75.3
X54.68Y100.7
X54.68Y75.3
X57.22Y100.7
X57.22Y75.3
X58.0Y110.0
X59.76Y100.7
X59.76Y75.3
X60.54Y110.0
X62.3Y100.7
X62.3Y75.3
X63.08Y110.0
X64.84Y100.7
X64.84Y75.3
X65.62Y110.0
X67.38Y100.7
X67.38Y75.3
X68.16Y110.0
X69.92Y100.7
X69.92Y75.3
X70.7Y110.0
X72.46Y100.7
X72.46Y75.3
X75.0Y100.7
X75.0Y75.3
T3
X8.55Y34.75
X8.55Y30.25
X15.05Y34.75
X15.05Y30.25
T4
X5.475Y29.5
X5.475Y19.5
X6.5Y71.44
X6.5Y66.36
X6.5Y58.94
X6.5Y53.86
X18.125Y29.5
X18.125Y19.5
X53.94Y13.99
X60.29Y16.53
X62.04Y33.04
X68.39Y35.58
X72.99Y13.99
X79.34Y16.53
X81.09Y33.04
X83.0Y65.16
X83.0Y60.08
X83.0Y55.0
X87.44Y35.58
M30
