%TF.GenerationSoftware,KiCad,Pcbnew,10.0.6*%
%TF.CreationDate,2026-10-10T09:40:16+08:00*%
%TF.ProjectId,minibox-carrier,6d696e69-626f-4782-9d63-617272696572,rev?*%
%TF.SameCoordinates,Original*%
%TF.FileFunction,Soldermask,Top*%
%TF.FilePolarity,Negative*%
%FSLAX46Y46*%
G04 Gerber Fmt 4.6, Leading zero omitted, Abs format (unit mm)*
G04 Created by KiCad (PCBNEW 10.0.6) date 2026-10-10 09:40:16*
%MOMM*%
%LPD*%
G01*
G04 APERTURE LIST*
G04 APERTURE END LIST*
G36*
X5354837Y6478002D02*
G01*
X5581679Y6404297D01*
X5794198Y6296013D01*
X5987161Y6155817D01*
X6155817Y5987161D01*
X6296013Y5794198D01*
X6404297Y5581679D01*
X6478002Y5354837D01*
X6515314Y5119258D01*
X6515314Y4880742D01*
X6478002Y4645163D01*
X6404297Y4418321D01*
X6296013Y4205802D01*
X6155817Y4012839D01*
X5987161Y3844183D01*
X5794198Y3703987D01*
X5581679Y3595703D01*
X5354837Y3521998D01*
X5119258Y3484686D01*
X4880742Y3484686D01*
X4645163Y3521998D01*
X4418321Y3595703D01*
X4205802Y3703987D01*
X4012839Y3844183D01*
X3844183Y4012839D01*
X3703987Y4205802D01*
X3595703Y4418321D01*
X3521998Y4645163D01*
X3484686Y4880742D01*
X3484686Y5119258D01*
X3521998Y5354837D01*
X3595703Y5581679D01*
X3703987Y5794198D01*
X3844183Y5987161D01*
X4012839Y6155817D01*
X4205802Y6296013D01*
X4418321Y6404297D01*
X4645163Y6478002D01*
X4880742Y6515314D01*
X5119258Y6515314D01*
X5354837Y6478002D01*
G37*
G36*
X89854837Y6478002D02*
G01*
X90081679Y6404297D01*
X90294198Y6296013D01*
X90487161Y6155817D01*
X90655817Y5987161D01*
X90796013Y5794198D01*
X90904297Y5581679D01*
X90978002Y5354837D01*
X91015314Y5119258D01*
X91015314Y4880742D01*
X90978002Y4645163D01*
X90904297Y4418321D01*
X90796013Y4205802D01*
X90655817Y4012839D01*
X90487161Y3844183D01*
X90294198Y3703987D01*
X90081679Y3595703D01*
X89854837Y3521998D01*
X89619258Y3484686D01*
X89380742Y3484686D01*
X89145163Y3521998D01*
X88918321Y3595703D01*
X88705802Y3703987D01*
X88512839Y3844183D01*
X88344183Y4012839D01*
X88203987Y4205802D01*
X88095703Y4418321D01*
X88021998Y4645163D01*
X87984686Y4880742D01*
X87984686Y5119258D01*
X88021998Y5354837D01*
X88095703Y5581679D01*
X88203987Y5794198D01*
X88344183Y5987161D01*
X88512839Y6155817D01*
X88705802Y6296013D01*
X88918321Y6404297D01*
X89145163Y6478002D01*
X89380742Y6515314D01*
X89619258Y6515314D01*
X89854837Y6478002D01*
G37*
G36*
X58134327Y13382147D02*
G01*
X58383235Y13315452D01*
X58621308Y13216839D01*
X58844472Y13087995D01*
X59048910Y12931124D01*
X59231123Y12748911D01*
X59387994Y12544473D01*
X59516838Y12321309D01*
X59615451Y12083236D01*
X59682146Y11834328D01*
X59715781Y11578844D01*
X59715781Y11321156D01*
X59682146Y11065672D01*
X59615451Y10816764D01*
X59516838Y10578691D01*
X59387994Y10355527D01*
X59231123Y10151089D01*
X59048910Y9968876D01*
X58844472Y9812005D01*
X58621308Y9683161D01*
X58383235Y9584548D01*
X58134327Y9517853D01*
X57878843Y9484218D01*
X57621155Y9484218D01*
X57365671Y9517853D01*
X57116763Y9584548D01*
X56878690Y9683161D01*
X56655526Y9812005D01*
X56451088Y9968876D01*
X56268875Y10151089D01*
X56112004Y10355527D01*
X55983160Y10578691D01*
X55884547Y10816764D01*
X55817852Y11065672D01*
X55784217Y11321156D01*
X55784217Y11578844D01*
X55817852Y11834328D01*
X55884547Y12083236D01*
X55983160Y12321309D01*
X56112004Y12544473D01*
X56268875Y12748911D01*
X56451088Y12931124D01*
X56655526Y13087995D01*
X56878690Y13216839D01*
X57116763Y13315452D01*
X57365671Y13382147D01*
X57621155Y13415782D01*
X57878843Y13415782D01*
X58134327Y13382147D01*
G37*
G36*
X77184328Y13382147D02*
G01*
X77433236Y13315452D01*
X77671309Y13216839D01*
X77894473Y13087995D01*
X78098911Y12931124D01*
X78281124Y12748911D01*
X78437995Y12544473D01*
X78566839Y12321309D01*
X78665452Y12083236D01*
X78732147Y11834328D01*
X78765782Y11578844D01*
X78765782Y11321156D01*
X78732147Y11065672D01*
X78665452Y10816764D01*
X78566839Y10578691D01*
X78437995Y10355527D01*
X78281124Y10151089D01*
X78098911Y9968876D01*
X77894473Y9812005D01*
X77671309Y9683161D01*
X77433236Y9584548D01*
X77184328Y9517853D01*
X76928844Y9484218D01*
X76671156Y9484218D01*
X76415672Y9517853D01*
X76166764Y9584548D01*
X75928691Y9683161D01*
X75705527Y9812005D01*
X75501089Y9968876D01*
X75318876Y10151089D01*
X75162005Y10355527D01*
X75033161Y10578691D01*
X74934548Y10816764D01*
X74867853Y11065672D01*
X74834218Y11321156D01*
X74834218Y11578844D01*
X74867853Y11834328D01*
X74934548Y12083236D01*
X75033161Y12321309D01*
X75162005Y12544473D01*
X75318876Y12748911D01*
X75501089Y12931124D01*
X75705527Y13087995D01*
X75928691Y13216839D01*
X76166764Y13315452D01*
X76415672Y13382147D01*
X76671156Y13415782D01*
X76928844Y13415782D01*
X77184328Y13382147D01*
G37*
G36*
X54034668Y15054848D02*
G01*
X54044877Y15054848D01*
X54084766Y15046914D01*
X54189746Y15030287D01*
X54223517Y15019314D01*
X54250604Y15013926D01*
X54288829Y14998093D01*
X54349415Y14978407D01*
X54406171Y14949489D01*
X54444394Y14933656D01*
X54467355Y14918314D01*
X54498988Y14902196D01*
X54584982Y14839718D01*
X54618800Y14817121D01*
X54626017Y14809904D01*
X54634805Y14803519D01*
X54753517Y14684807D01*
X54759901Y14676020D01*
X54767120Y14668801D01*
X54789719Y14634979D01*
X54852194Y14548990D01*
X54868310Y14517360D01*
X54883655Y14494395D01*
X54899489Y14456168D01*
X54928405Y14399417D01*
X54948088Y14338839D01*
X54963925Y14300605D01*
X54969313Y14273514D01*
X54980285Y14239748D01*
X54996911Y14134773D01*
X55004847Y14094878D01*
X55004847Y14084670D01*
X55006546Y14073942D01*
X55006546Y13906059D01*
X55004847Y13895332D01*
X55004847Y13885122D01*
X54996910Y13845224D01*
X54980285Y13740253D01*
X54969314Y13706490D01*
X54963925Y13679395D01*
X54948086Y13641159D01*
X54928405Y13580584D01*
X54899491Y13523838D01*
X54883655Y13485605D01*
X54868308Y13462638D01*
X54852194Y13431011D01*
X54789727Y13345035D01*
X54767120Y13311199D01*
X54759898Y13303978D01*
X54753517Y13295194D01*
X54634805Y13176482D01*
X54626021Y13170101D01*
X54618800Y13162879D01*
X54584964Y13140272D01*
X54498988Y13077805D01*
X54467361Y13061691D01*
X54444394Y13046344D01*
X54406161Y13030508D01*
X54349415Y13001594D01*
X54288840Y12981913D01*
X54250604Y12966074D01*
X54223509Y12960685D01*
X54189746Y12949714D01*
X54084775Y12933089D01*
X54044877Y12925152D01*
X54034667Y12925152D01*
X54023940Y12923453D01*
X53856058Y12923453D01*
X53845331Y12925152D01*
X53835121Y12925152D01*
X53795224Y12933089D01*
X53690251Y12949714D01*
X53656485Y12960686D01*
X53629394Y12966074D01*
X53591160Y12981911D01*
X53530582Y13001594D01*
X53473831Y13030510D01*
X53435604Y13046344D01*
X53412639Y13061689D01*
X53381009Y13077805D01*
X53295020Y13140280D01*
X53261198Y13162879D01*
X53253979Y13170098D01*
X53245192Y13176482D01*
X53126480Y13295194D01*
X53120095Y13303982D01*
X53112878Y13311199D01*
X53090281Y13345017D01*
X53027803Y13431011D01*
X53011685Y13462644D01*
X52996343Y13485605D01*
X52980510Y13523828D01*
X52951592Y13580584D01*
X52931906Y13641170D01*
X52916073Y13679395D01*
X52910685Y13706482D01*
X52899712Y13740253D01*
X52883085Y13845233D01*
X52875151Y13885122D01*
X52875151Y13895332D01*
X52873452Y13906059D01*
X52873452Y14073942D01*
X52875151Y14084670D01*
X52875151Y14094878D01*
X52883084Y14134764D01*
X52899712Y14239748D01*
X52910685Y14273522D01*
X52916073Y14300605D01*
X52931904Y14338827D01*
X52951592Y14399417D01*
X52980513Y14456179D01*
X52996343Y14494395D01*
X53011683Y14517354D01*
X53027803Y14548990D01*
X53090289Y14634996D01*
X53112878Y14668801D01*
X53120092Y14676016D01*
X53126480Y14684807D01*
X53245192Y14803519D01*
X53253983Y14809907D01*
X53261198Y14817121D01*
X53295003Y14839710D01*
X53381009Y14902196D01*
X53412645Y14918316D01*
X53435604Y14933656D01*
X53473820Y14949486D01*
X53530582Y14978407D01*
X53591172Y14998095D01*
X53629394Y15013926D01*
X53656477Y15019314D01*
X53690251Y15030287D01*
X53795233Y15046914D01*
X53835121Y15054848D01*
X53845330Y15054848D01*
X53856058Y15056547D01*
X54023940Y15056547D01*
X54034668Y15054848D01*
G37*
G36*
X73084669Y15054848D02*
G01*
X73094878Y15054848D01*
X73134767Y15046914D01*
X73239747Y15030287D01*
X73273518Y15019314D01*
X73300605Y15013926D01*
X73338830Y14998093D01*
X73399416Y14978407D01*
X73456172Y14949489D01*
X73494395Y14933656D01*
X73517356Y14918314D01*
X73548989Y14902196D01*
X73634983Y14839718D01*
X73668801Y14817121D01*
X73676018Y14809904D01*
X73684806Y14803519D01*
X73803518Y14684807D01*
X73809902Y14676020D01*
X73817121Y14668801D01*
X73839720Y14634979D01*
X73902195Y14548990D01*
X73918311Y14517360D01*
X73933656Y14494395D01*
X73949490Y14456168D01*
X73978406Y14399417D01*
X73998089Y14338839D01*
X74013926Y14300605D01*
X74019314Y14273514D01*
X74030286Y14239748D01*
X74046912Y14134773D01*
X74054848Y14094878D01*
X74054848Y14084670D01*
X74056547Y14073942D01*
X74056547Y13906059D01*
X74054848Y13895332D01*
X74054848Y13885122D01*
X74046911Y13845224D01*
X74030286Y13740253D01*
X74019315Y13706490D01*
X74013926Y13679395D01*
X73998087Y13641159D01*
X73978406Y13580584D01*
X73949492Y13523838D01*
X73933656Y13485605D01*
X73918309Y13462638D01*
X73902195Y13431011D01*
X73839728Y13345035D01*
X73817121Y13311199D01*
X73809899Y13303978D01*
X73803518Y13295194D01*
X73684806Y13176482D01*
X73676022Y13170101D01*
X73668801Y13162879D01*
X73634965Y13140272D01*
X73548989Y13077805D01*
X73517362Y13061691D01*
X73494395Y13046344D01*
X73456162Y13030508D01*
X73399416Y13001594D01*
X73338841Y12981913D01*
X73300605Y12966074D01*
X73273510Y12960685D01*
X73239747Y12949714D01*
X73134776Y12933089D01*
X73094878Y12925152D01*
X73084668Y12925152D01*
X73073941Y12923453D01*
X72906059Y12923453D01*
X72895332Y12925152D01*
X72885122Y12925152D01*
X72845225Y12933089D01*
X72740252Y12949714D01*
X72706486Y12960686D01*
X72679395Y12966074D01*
X72641161Y12981911D01*
X72580583Y13001594D01*
X72523832Y13030510D01*
X72485605Y13046344D01*
X72462640Y13061689D01*
X72431010Y13077805D01*
X72345021Y13140280D01*
X72311199Y13162879D01*
X72303980Y13170098D01*
X72295193Y13176482D01*
X72176481Y13295194D01*
X72170096Y13303982D01*
X72162879Y13311199D01*
X72140282Y13345017D01*
X72077804Y13431011D01*
X72061686Y13462644D01*
X72046344Y13485605D01*
X72030511Y13523828D01*
X72001593Y13580584D01*
X71981907Y13641170D01*
X71966074Y13679395D01*
X71960686Y13706482D01*
X71949713Y13740253D01*
X71933086Y13845233D01*
X71925152Y13885122D01*
X71925152Y13895332D01*
X71923453Y13906059D01*
X71923453Y14073942D01*
X71925152Y14084670D01*
X71925152Y14094878D01*
X71933085Y14134764D01*
X71949713Y14239748D01*
X71960686Y14273522D01*
X71966074Y14300605D01*
X71981905Y14338827D01*
X72001593Y14399417D01*
X72030514Y14456179D01*
X72046344Y14494395D01*
X72061684Y14517354D01*
X72077804Y14548990D01*
X72140290Y14634996D01*
X72162879Y14668801D01*
X72170093Y14676016D01*
X72176481Y14684807D01*
X72295193Y14803519D01*
X72303984Y14809907D01*
X72311199Y14817121D01*
X72345004Y14839710D01*
X72431010Y14902196D01*
X72462646Y14918316D01*
X72485605Y14933656D01*
X72523821Y14949486D01*
X72580583Y14978407D01*
X72641173Y14998095D01*
X72679395Y15013926D01*
X72706478Y15019314D01*
X72740252Y15030287D01*
X72845234Y15046914D01*
X72885122Y15054848D01*
X72895331Y15054848D01*
X72906059Y15056547D01*
X73073941Y15056547D01*
X73084669Y15054848D01*
G37*
G36*
X9552548Y16602538D02*
G01*
X9710115Y16537271D01*
X9851922Y16442519D01*
X9972519Y16321922D01*
X10067271Y16180115D01*
X10132538Y16022548D01*
X10165811Y15855275D01*
X10165811Y15684725D01*
X10132538Y15517452D01*
X10067271Y15359885D01*
X9972519Y15218078D01*
X9851922Y15097481D01*
X9710115Y15002729D01*
X9552548Y14937462D01*
X9385275Y14904189D01*
X9214725Y14904189D01*
X9047452Y14937462D01*
X8889885Y15002729D01*
X8748078Y15097481D01*
X8627481Y15218078D01*
X8532729Y15359885D01*
X8467462Y15517452D01*
X8434189Y15684725D01*
X8434189Y15855275D01*
X8467462Y16022548D01*
X8532729Y16180115D01*
X8627481Y16321922D01*
X8748078Y16442519D01*
X8889885Y16537271D01*
X9047452Y16602538D01*
X9214725Y16635811D01*
X9385275Y16635811D01*
X9552548Y16602538D01*
G37*
G36*
X12052548Y16602538D02*
G01*
X12210115Y16537271D01*
X12351922Y16442519D01*
X12472519Y16321922D01*
X12567271Y16180115D01*
X12632538Y16022548D01*
X12665811Y15855275D01*
X12665811Y15684725D01*
X12632538Y15517452D01*
X12567271Y15359885D01*
X12472519Y15218078D01*
X12351922Y15097481D01*
X12210115Y15002729D01*
X12052548Y14937462D01*
X11885275Y14904189D01*
X11714725Y14904189D01*
X11547452Y14937462D01*
X11389885Y15002729D01*
X11248078Y15097481D01*
X11127481Y15218078D01*
X11032729Y15359885D01*
X10967462Y15517452D01*
X10934189Y15684725D01*
X10934189Y15855275D01*
X10967462Y16022548D01*
X11032729Y16180115D01*
X11127481Y16321922D01*
X11248078Y16442519D01*
X11389885Y16537271D01*
X11547452Y16602538D01*
X11714725Y16635811D01*
X11885275Y16635811D01*
X12052548Y16602538D01*
G37*
G36*
X14552548Y16602538D02*
G01*
X14710115Y16537271D01*
X14851922Y16442519D01*
X14972519Y16321922D01*
X15067271Y16180115D01*
X15132538Y16022548D01*
X15165811Y15855275D01*
X15165811Y15684725D01*
X15132538Y15517452D01*
X15067271Y15359885D01*
X14972519Y15218078D01*
X14851922Y15097481D01*
X14710115Y15002729D01*
X14552548Y14937462D01*
X14385275Y14904189D01*
X14214725Y14904189D01*
X14047452Y14937462D01*
X13889885Y15002729D01*
X13748078Y15097481D01*
X13627481Y15218078D01*
X13532729Y15359885D01*
X13467462Y15517452D01*
X13434189Y15684725D01*
X13434189Y15855275D01*
X13467462Y16022548D01*
X13532729Y16180115D01*
X13627481Y16321922D01*
X13748078Y16442519D01*
X13889885Y16537271D01*
X14047452Y16602538D01*
X14214725Y16635811D01*
X14385275Y16635811D01*
X14552548Y16602538D01*
G37*
G36*
X60384668Y17594848D02*
G01*
X60394877Y17594848D01*
X60434766Y17586914D01*
X60539746Y17570287D01*
X60573517Y17559314D01*
X60600604Y17553926D01*
X60638829Y17538093D01*
X60699415Y17518407D01*
X60756171Y17489489D01*
X60794394Y17473656D01*
X60817355Y17458314D01*
X60848988Y17442196D01*
X60934982Y17379718D01*
X60968800Y17357121D01*
X60976017Y17349904D01*
X60984805Y17343519D01*
X61103517Y17224807D01*
X61109901Y17216020D01*
X61117120Y17208801D01*
X61139719Y17174979D01*
X61202194Y17088990D01*
X61218310Y17057360D01*
X61233655Y17034395D01*
X61249489Y16996168D01*
X61278405Y16939417D01*
X61298088Y16878839D01*
X61313925Y16840605D01*
X61319313Y16813514D01*
X61330285Y16779748D01*
X61346911Y16674773D01*
X61354847Y16634878D01*
X61354847Y16624670D01*
X61356546Y16613942D01*
X61356546Y16446059D01*
X61354847Y16435332D01*
X61354847Y16425122D01*
X61346910Y16385224D01*
X61330285Y16280253D01*
X61319314Y16246490D01*
X61313925Y16219395D01*
X61298086Y16181159D01*
X61278405Y16120584D01*
X61249491Y16063838D01*
X61233655Y16025605D01*
X61218308Y16002638D01*
X61202194Y15971011D01*
X61139727Y15885035D01*
X61117120Y15851199D01*
X61109898Y15843978D01*
X61103517Y15835194D01*
X60984805Y15716482D01*
X60976021Y15710101D01*
X60968800Y15702879D01*
X60934964Y15680272D01*
X60848988Y15617805D01*
X60817361Y15601691D01*
X60794394Y15586344D01*
X60756161Y15570508D01*
X60699415Y15541594D01*
X60638840Y15521913D01*
X60600604Y15506074D01*
X60573509Y15500685D01*
X60539746Y15489714D01*
X60434775Y15473089D01*
X60394877Y15465152D01*
X60384667Y15465152D01*
X60373940Y15463453D01*
X60206058Y15463453D01*
X60195331Y15465152D01*
X60185121Y15465152D01*
X60145224Y15473089D01*
X60040251Y15489714D01*
X60006485Y15500686D01*
X59979394Y15506074D01*
X59941160Y15521911D01*
X59880582Y15541594D01*
X59823831Y15570510D01*
X59785604Y15586344D01*
X59762639Y15601689D01*
X59731009Y15617805D01*
X59645020Y15680280D01*
X59611198Y15702879D01*
X59603979Y15710098D01*
X59595192Y15716482D01*
X59476480Y15835194D01*
X59470095Y15843982D01*
X59462878Y15851199D01*
X59440281Y15885017D01*
X59377803Y15971011D01*
X59361685Y16002644D01*
X59346343Y16025605D01*
X59330510Y16063828D01*
X59301592Y16120584D01*
X59281906Y16181170D01*
X59266073Y16219395D01*
X59260685Y16246482D01*
X59249712Y16280253D01*
X59233085Y16385233D01*
X59225151Y16425122D01*
X59225151Y16435332D01*
X59223452Y16446059D01*
X59223452Y16613942D01*
X59225151Y16624670D01*
X59225151Y16634878D01*
X59233084Y16674764D01*
X59249712Y16779748D01*
X59260685Y16813522D01*
X59266073Y16840605D01*
X59281904Y16878827D01*
X59301592Y16939417D01*
X59330513Y16996179D01*
X59346343Y17034395D01*
X59361683Y17057354D01*
X59377803Y17088990D01*
X59440289Y17174996D01*
X59462878Y17208801D01*
X59470092Y17216016D01*
X59476480Y17224807D01*
X59595192Y17343519D01*
X59603983Y17349907D01*
X59611198Y17357121D01*
X59645003Y17379710D01*
X59731009Y17442196D01*
X59762645Y17458316D01*
X59785604Y17473656D01*
X59823820Y17489486D01*
X59880582Y17518407D01*
X59941172Y17538095D01*
X59979394Y17553926D01*
X60006477Y17559314D01*
X60040251Y17570287D01*
X60145233Y17586914D01*
X60185121Y17594848D01*
X60195330Y17594848D01*
X60206058Y17596547D01*
X60373940Y17596547D01*
X60384668Y17594848D01*
G37*
G36*
X79434669Y17594848D02*
G01*
X79444878Y17594848D01*
X79484767Y17586914D01*
X79589747Y17570287D01*
X79623518Y17559314D01*
X79650605Y17553926D01*
X79688830Y17538093D01*
X79749416Y17518407D01*
X79806172Y17489489D01*
X79844395Y17473656D01*
X79867356Y17458314D01*
X79898989Y17442196D01*
X79984983Y17379718D01*
X80018801Y17357121D01*
X80026018Y17349904D01*
X80034806Y17343519D01*
X80153518Y17224807D01*
X80159902Y17216020D01*
X80167121Y17208801D01*
X80189720Y17174979D01*
X80252195Y17088990D01*
X80268311Y17057360D01*
X80283656Y17034395D01*
X80299490Y16996168D01*
X80328406Y16939417D01*
X80348089Y16878839D01*
X80363926Y16840605D01*
X80369314Y16813514D01*
X80380286Y16779748D01*
X80396912Y16674773D01*
X80404848Y16634878D01*
X80404848Y16624670D01*
X80406547Y16613942D01*
X80406547Y16446059D01*
X80404848Y16435332D01*
X80404848Y16425122D01*
X80396911Y16385224D01*
X80380286Y16280253D01*
X80369315Y16246490D01*
X80363926Y16219395D01*
X80348087Y16181159D01*
X80328406Y16120584D01*
X80299492Y16063838D01*
X80283656Y16025605D01*
X80268309Y16002638D01*
X80252195Y15971011D01*
X80189728Y15885035D01*
X80167121Y15851199D01*
X80159899Y15843978D01*
X80153518Y15835194D01*
X80034806Y15716482D01*
X80026022Y15710101D01*
X80018801Y15702879D01*
X79984965Y15680272D01*
X79898989Y15617805D01*
X79867362Y15601691D01*
X79844395Y15586344D01*
X79806162Y15570508D01*
X79749416Y15541594D01*
X79688841Y15521913D01*
X79650605Y15506074D01*
X79623510Y15500685D01*
X79589747Y15489714D01*
X79484776Y15473089D01*
X79444878Y15465152D01*
X79434668Y15465152D01*
X79423941Y15463453D01*
X79256059Y15463453D01*
X79245332Y15465152D01*
X79235122Y15465152D01*
X79195225Y15473089D01*
X79090252Y15489714D01*
X79056486Y15500686D01*
X79029395Y15506074D01*
X78991161Y15521911D01*
X78930583Y15541594D01*
X78873832Y15570510D01*
X78835605Y15586344D01*
X78812640Y15601689D01*
X78781010Y15617805D01*
X78695021Y15680280D01*
X78661199Y15702879D01*
X78653980Y15710098D01*
X78645193Y15716482D01*
X78526481Y15835194D01*
X78520096Y15843982D01*
X78512879Y15851199D01*
X78490282Y15885017D01*
X78427804Y15971011D01*
X78411686Y16002644D01*
X78396344Y16025605D01*
X78380511Y16063828D01*
X78351593Y16120584D01*
X78331907Y16181170D01*
X78316074Y16219395D01*
X78310686Y16246482D01*
X78299713Y16280253D01*
X78283086Y16385233D01*
X78275152Y16425122D01*
X78275152Y16435332D01*
X78273453Y16446059D01*
X78273453Y16613942D01*
X78275152Y16624670D01*
X78275152Y16634878D01*
X78283085Y16674764D01*
X78299713Y16779748D01*
X78310686Y16813522D01*
X78316074Y16840605D01*
X78331905Y16878827D01*
X78351593Y16939417D01*
X78380514Y16996179D01*
X78396344Y17034395D01*
X78411684Y17057354D01*
X78427804Y17088990D01*
X78490290Y17174996D01*
X78512879Y17208801D01*
X78520093Y17216016D01*
X78526481Y17224807D01*
X78645193Y17343519D01*
X78653984Y17349907D01*
X78661199Y17357121D01*
X78695004Y17379710D01*
X78781010Y17442196D01*
X78812646Y17458316D01*
X78835605Y17473656D01*
X78873821Y17489486D01*
X78930583Y17518407D01*
X78991173Y17538095D01*
X79029395Y17553926D01*
X79056478Y17559314D01*
X79090252Y17570287D01*
X79195234Y17586914D01*
X79235122Y17594848D01*
X79245331Y17594848D01*
X79256059Y17596547D01*
X79423941Y17596547D01*
X79434669Y17594848D01*
G37*
G36*
X5569669Y20564848D02*
G01*
X5579878Y20564848D01*
X5619767Y20556914D01*
X5724747Y20540287D01*
X5758518Y20529314D01*
X5785605Y20523926D01*
X5823830Y20508093D01*
X5884416Y20488407D01*
X5941172Y20459489D01*
X5979395Y20443656D01*
X6002356Y20428314D01*
X6033989Y20412196D01*
X6119983Y20349718D01*
X6153801Y20327121D01*
X6161018Y20319904D01*
X6169806Y20313519D01*
X6288518Y20194807D01*
X6294902Y20186020D01*
X6302121Y20178801D01*
X6324720Y20144979D01*
X6387195Y20058990D01*
X6403311Y20027360D01*
X6418656Y20004395D01*
X6434490Y19966168D01*
X6463406Y19909417D01*
X6483089Y19848839D01*
X6498926Y19810605D01*
X6504314Y19783514D01*
X6515286Y19749748D01*
X6531912Y19644773D01*
X6539848Y19604878D01*
X6539848Y19594670D01*
X6541547Y19583942D01*
X6541547Y19416059D01*
X6539848Y19405332D01*
X6539848Y19395122D01*
X6531911Y19355224D01*
X6515286Y19250253D01*
X6504315Y19216490D01*
X6498926Y19189395D01*
X6483087Y19151159D01*
X6463406Y19090584D01*
X6434492Y19033838D01*
X6418656Y18995605D01*
X6403309Y18972638D01*
X6387195Y18941011D01*
X6324728Y18855035D01*
X6302121Y18821199D01*
X6294899Y18813978D01*
X6288518Y18805194D01*
X6169806Y18686482D01*
X6161022Y18680101D01*
X6153801Y18672879D01*
X6119965Y18650272D01*
X6033989Y18587805D01*
X6002362Y18571691D01*
X5979395Y18556344D01*
X5941162Y18540508D01*
X5884416Y18511594D01*
X5823841Y18491913D01*
X5785605Y18476074D01*
X5758510Y18470685D01*
X5724747Y18459714D01*
X5619776Y18443089D01*
X5579878Y18435152D01*
X5569668Y18435152D01*
X5558941Y18433453D01*
X5391059Y18433453D01*
X5380332Y18435152D01*
X5370122Y18435152D01*
X5330225Y18443089D01*
X5225252Y18459714D01*
X5191486Y18470686D01*
X5164395Y18476074D01*
X5126161Y18491911D01*
X5065583Y18511594D01*
X5008832Y18540510D01*
X4970605Y18556344D01*
X4947640Y18571689D01*
X4916010Y18587805D01*
X4830021Y18650280D01*
X4796199Y18672879D01*
X4788980Y18680098D01*
X4780193Y18686482D01*
X4661481Y18805194D01*
X4655096Y18813982D01*
X4647879Y18821199D01*
X4625282Y18855017D01*
X4562804Y18941011D01*
X4546686Y18972644D01*
X4531344Y18995605D01*
X4515511Y19033828D01*
X4486593Y19090584D01*
X4466907Y19151170D01*
X4451074Y19189395D01*
X4445686Y19216482D01*
X4434713Y19250253D01*
X4418086Y19355233D01*
X4410152Y19395122D01*
X4410152Y19405332D01*
X4408453Y19416059D01*
X4408453Y19583942D01*
X4410152Y19594670D01*
X4410152Y19604878D01*
X4418085Y19644764D01*
X4434713Y19749748D01*
X4445686Y19783522D01*
X4451074Y19810605D01*
X4466905Y19848827D01*
X4486593Y19909417D01*
X4515514Y19966179D01*
X4531344Y20004395D01*
X4546684Y20027354D01*
X4562804Y20058990D01*
X4625290Y20144996D01*
X4647879Y20178801D01*
X4655093Y20186016D01*
X4661481Y20194807D01*
X4780193Y20313519D01*
X4788984Y20319907D01*
X4796199Y20327121D01*
X4830004Y20349710D01*
X4916010Y20412196D01*
X4947646Y20428316D01*
X4970605Y20443656D01*
X5008821Y20459486D01*
X5065583Y20488407D01*
X5126173Y20508095D01*
X5164395Y20523926D01*
X5191478Y20529314D01*
X5225252Y20540287D01*
X5330234Y20556914D01*
X5370122Y20564848D01*
X5380331Y20564848D01*
X5391059Y20566547D01*
X5558941Y20566547D01*
X5569669Y20564848D01*
G37*
G36*
X18219669Y20564848D02*
G01*
X18229878Y20564848D01*
X18269767Y20556914D01*
X18374747Y20540287D01*
X18408518Y20529314D01*
X18435605Y20523926D01*
X18473830Y20508093D01*
X18534416Y20488407D01*
X18591172Y20459489D01*
X18629395Y20443656D01*
X18652356Y20428314D01*
X18683989Y20412196D01*
X18769983Y20349718D01*
X18803801Y20327121D01*
X18811018Y20319904D01*
X18819806Y20313519D01*
X18938518Y20194807D01*
X18944902Y20186020D01*
X18952121Y20178801D01*
X18974720Y20144979D01*
X19037195Y20058990D01*
X19053311Y20027360D01*
X19068656Y20004395D01*
X19084490Y19966168D01*
X19113406Y19909417D01*
X19133089Y19848839D01*
X19148926Y19810605D01*
X19154314Y19783514D01*
X19165286Y19749748D01*
X19181912Y19644773D01*
X19189848Y19604878D01*
X19189848Y19594670D01*
X19191547Y19583942D01*
X19191547Y19416059D01*
X19189848Y19405332D01*
X19189848Y19395122D01*
X19181911Y19355224D01*
X19165286Y19250253D01*
X19154315Y19216490D01*
X19148926Y19189395D01*
X19133087Y19151159D01*
X19113406Y19090584D01*
X19084492Y19033838D01*
X19068656Y18995605D01*
X19053309Y18972638D01*
X19037195Y18941011D01*
X18974728Y18855035D01*
X18952121Y18821199D01*
X18944899Y18813978D01*
X18938518Y18805194D01*
X18819806Y18686482D01*
X18811022Y18680101D01*
X18803801Y18672879D01*
X18769965Y18650272D01*
X18683989Y18587805D01*
X18652362Y18571691D01*
X18629395Y18556344D01*
X18591162Y18540508D01*
X18534416Y18511594D01*
X18473841Y18491913D01*
X18435605Y18476074D01*
X18408510Y18470685D01*
X18374747Y18459714D01*
X18269776Y18443089D01*
X18229878Y18435152D01*
X18219668Y18435152D01*
X18208941Y18433453D01*
X18041059Y18433453D01*
X18030332Y18435152D01*
X18020122Y18435152D01*
X17980225Y18443089D01*
X17875252Y18459714D01*
X17841486Y18470686D01*
X17814395Y18476074D01*
X17776161Y18491911D01*
X17715583Y18511594D01*
X17658832Y18540510D01*
X17620605Y18556344D01*
X17597640Y18571689D01*
X17566010Y18587805D01*
X17480021Y18650280D01*
X17446199Y18672879D01*
X17438980Y18680098D01*
X17430193Y18686482D01*
X17311481Y18805194D01*
X17305096Y18813982D01*
X17297879Y18821199D01*
X17275282Y18855017D01*
X17212804Y18941011D01*
X17196686Y18972644D01*
X17181344Y18995605D01*
X17165511Y19033828D01*
X17136593Y19090584D01*
X17116907Y19151170D01*
X17101074Y19189395D01*
X17095686Y19216482D01*
X17084713Y19250253D01*
X17068086Y19355233D01*
X17060152Y19395122D01*
X17060152Y19405332D01*
X17058453Y19416059D01*
X17058453Y19583942D01*
X17060152Y19594670D01*
X17060152Y19604878D01*
X17068085Y19644764D01*
X17084713Y19749748D01*
X17095686Y19783522D01*
X17101074Y19810605D01*
X17116905Y19848827D01*
X17136593Y19909417D01*
X17165514Y19966179D01*
X17181344Y20004395D01*
X17196684Y20027354D01*
X17212804Y20058990D01*
X17275290Y20144996D01*
X17297879Y20178801D01*
X17305093Y20186016D01*
X17311481Y20194807D01*
X17430193Y20313519D01*
X17438984Y20319907D01*
X17446199Y20327121D01*
X17480004Y20349710D01*
X17566010Y20412196D01*
X17597646Y20428316D01*
X17620605Y20443656D01*
X17658821Y20459486D01*
X17715583Y20488407D01*
X17776173Y20508095D01*
X17814395Y20523926D01*
X17841478Y20529314D01*
X17875252Y20540287D01*
X17980234Y20556914D01*
X18020122Y20564848D01*
X18030331Y20564848D01*
X18041059Y20566547D01*
X18208941Y20566547D01*
X18219669Y20564848D01*
G37*
G36*
X3322548Y22832538D02*
G01*
X3480115Y22767271D01*
X3621922Y22672519D01*
X3742519Y22551922D01*
X3837271Y22410115D01*
X3902538Y22252548D01*
X3935811Y22085275D01*
X3935811Y21914725D01*
X3902538Y21747452D01*
X3837271Y21589885D01*
X3742519Y21448078D01*
X3621922Y21327481D01*
X3480115Y21232729D01*
X3322548Y21167462D01*
X3155275Y21134189D01*
X2984725Y21134189D01*
X2817452Y21167462D01*
X2659885Y21232729D01*
X2518078Y21327481D01*
X2397481Y21448078D01*
X2302729Y21589885D01*
X2237462Y21747452D01*
X2204189Y21914725D01*
X2204189Y22085275D01*
X2237462Y22252548D01*
X2302729Y22410115D01*
X2397481Y22551922D01*
X2518078Y22672519D01*
X2659885Y22767271D01*
X2817452Y22832538D01*
X2984725Y22865811D01*
X3155275Y22865811D01*
X3322548Y22832538D01*
G37*
G36*
X3322548Y25332538D02*
G01*
X3480115Y25267271D01*
X3621922Y25172519D01*
X3742519Y25051922D01*
X3837271Y24910115D01*
X3902538Y24752548D01*
X3935811Y24585275D01*
X3935811Y24414725D01*
X3902538Y24247452D01*
X3837271Y24089885D01*
X3742519Y23948078D01*
X3621922Y23827481D01*
X3480115Y23732729D01*
X3322548Y23667462D01*
X3155275Y23634189D01*
X2984725Y23634189D01*
X2817452Y23667462D01*
X2659885Y23732729D01*
X2518078Y23827481D01*
X2397481Y23948078D01*
X2302729Y24089885D01*
X2237462Y24247452D01*
X2204189Y24414725D01*
X2204189Y24585275D01*
X2237462Y24752548D01*
X2302729Y24910115D01*
X2397481Y25051922D01*
X2518078Y25172519D01*
X2659885Y25267271D01*
X2817452Y25332538D01*
X2984725Y25365811D01*
X3155275Y25365811D01*
X3322548Y25332538D01*
G37*
G36*
X3322548Y27832538D02*
G01*
X3480115Y27767271D01*
X3621922Y27672519D01*
X3742519Y27551922D01*
X3837271Y27410115D01*
X3902538Y27252548D01*
X3935811Y27085275D01*
X3935811Y26914725D01*
X3902538Y26747452D01*
X3837271Y26589885D01*
X3742519Y26448078D01*
X3621922Y26327481D01*
X3480115Y26232729D01*
X3322548Y26167462D01*
X3155275Y26134189D01*
X2984725Y26134189D01*
X2817452Y26167462D01*
X2659885Y26232729D01*
X2518078Y26327481D01*
X2397481Y26448078D01*
X2302729Y26589885D01*
X2237462Y26747452D01*
X2204189Y26914725D01*
X2204189Y27085275D01*
X2237462Y27252548D01*
X2302729Y27410115D01*
X2397481Y27551922D01*
X2518078Y27672519D01*
X2659885Y27767271D01*
X2817452Y27832538D01*
X2984725Y27865811D01*
X3155275Y27865811D01*
X3322548Y27832538D01*
G37*
G36*
X35897548Y28042538D02*
G01*
X36055115Y27977271D01*
X36196922Y27882519D01*
X36317519Y27761922D01*
X36412271Y27620115D01*
X36477538Y27462548D01*
X36510811Y27295275D01*
X36510811Y27124725D01*
X36477538Y26957452D01*
X36412271Y26799885D01*
X36317519Y26658078D01*
X36196922Y26537481D01*
X36055115Y26442729D01*
X35897548Y26377462D01*
X35730275Y26344189D01*
X35559725Y26344189D01*
X35392452Y26377462D01*
X35234885Y26442729D01*
X35093078Y26537481D01*
X34972481Y26658078D01*
X34877729Y26799885D01*
X34812462Y26957452D01*
X34779189Y27124725D01*
X34779189Y27295275D01*
X34812462Y27462548D01*
X34877729Y27620115D01*
X34972481Y27761922D01*
X35093078Y27882519D01*
X35234885Y27977271D01*
X35392452Y28042538D01*
X35559725Y28075811D01*
X35730275Y28075811D01*
X35897548Y28042538D01*
G37*
G36*
X43517548Y28042538D02*
G01*
X43675115Y27977271D01*
X43816922Y27882519D01*
X43937519Y27761922D01*
X44032271Y27620115D01*
X44097538Y27462548D01*
X44130811Y27295275D01*
X44130811Y27124725D01*
X44097538Y26957452D01*
X44032271Y26799885D01*
X43937519Y26658078D01*
X43816922Y26537481D01*
X43675115Y26442729D01*
X43517548Y26377462D01*
X43350275Y26344189D01*
X43179725Y26344189D01*
X43012452Y26377462D01*
X42854885Y26442729D01*
X42713078Y26537481D01*
X42592481Y26658078D01*
X42497729Y26799885D01*
X42432462Y26957452D01*
X42399189Y27124725D01*
X42399189Y27295275D01*
X42432462Y27462548D01*
X42497729Y27620115D01*
X42592481Y27761922D01*
X42713078Y27882519D01*
X42854885Y27977271D01*
X43012452Y28042538D01*
X43179725Y28075811D01*
X43350275Y28075811D01*
X43517548Y28042538D01*
G37*
G36*
X5569669Y30564848D02*
G01*
X5579878Y30564848D01*
X5619767Y30556914D01*
X5724747Y30540287D01*
X5758518Y30529314D01*
X5785605Y30523926D01*
X5823830Y30508093D01*
X5884416Y30488407D01*
X5941172Y30459489D01*
X5979395Y30443656D01*
X6002356Y30428314D01*
X6033989Y30412196D01*
X6119983Y30349718D01*
X6153801Y30327121D01*
X6161018Y30319904D01*
X6169806Y30313519D01*
X6288518Y30194807D01*
X6294902Y30186020D01*
X6302121Y30178801D01*
X6324720Y30144979D01*
X6387195Y30058990D01*
X6403311Y30027360D01*
X6418656Y30004395D01*
X6434490Y29966168D01*
X6463406Y29909417D01*
X6483089Y29848839D01*
X6498926Y29810605D01*
X6504314Y29783514D01*
X6515286Y29749748D01*
X6531912Y29644773D01*
X6539848Y29604878D01*
X6539848Y29594670D01*
X6541547Y29583942D01*
X6541547Y29416059D01*
X6539848Y29405332D01*
X6539848Y29395122D01*
X6531911Y29355224D01*
X6515286Y29250253D01*
X6504315Y29216490D01*
X6498926Y29189395D01*
X6483087Y29151159D01*
X6463406Y29090584D01*
X6434492Y29033838D01*
X6418656Y28995605D01*
X6403309Y28972638D01*
X6387195Y28941011D01*
X6324728Y28855035D01*
X6302121Y28821199D01*
X6294899Y28813978D01*
X6288518Y28805194D01*
X6169806Y28686482D01*
X6161022Y28680101D01*
X6153801Y28672879D01*
X6119965Y28650272D01*
X6033989Y28587805D01*
X6002362Y28571691D01*
X5979395Y28556344D01*
X5941162Y28540508D01*
X5884416Y28511594D01*
X5823841Y28491913D01*
X5785605Y28476074D01*
X5758510Y28470685D01*
X5724747Y28459714D01*
X5619776Y28443089D01*
X5579878Y28435152D01*
X5569668Y28435152D01*
X5558941Y28433453D01*
X5391059Y28433453D01*
X5380332Y28435152D01*
X5370122Y28435152D01*
X5330225Y28443089D01*
X5225252Y28459714D01*
X5191486Y28470686D01*
X5164395Y28476074D01*
X5126161Y28491911D01*
X5065583Y28511594D01*
X5008832Y28540510D01*
X4970605Y28556344D01*
X4947640Y28571689D01*
X4916010Y28587805D01*
X4830021Y28650280D01*
X4796199Y28672879D01*
X4788980Y28680098D01*
X4780193Y28686482D01*
X4661481Y28805194D01*
X4655096Y28813982D01*
X4647879Y28821199D01*
X4625282Y28855017D01*
X4562804Y28941011D01*
X4546686Y28972644D01*
X4531344Y28995605D01*
X4515511Y29033828D01*
X4486593Y29090584D01*
X4466907Y29151170D01*
X4451074Y29189395D01*
X4445686Y29216482D01*
X4434713Y29250253D01*
X4418086Y29355233D01*
X4410152Y29395122D01*
X4410152Y29405332D01*
X4408453Y29416059D01*
X4408453Y29583942D01*
X4410152Y29594670D01*
X4410152Y29604878D01*
X4418085Y29644764D01*
X4434713Y29749748D01*
X4445686Y29783522D01*
X4451074Y29810605D01*
X4466905Y29848827D01*
X4486593Y29909417D01*
X4515514Y29966179D01*
X4531344Y30004395D01*
X4546684Y30027354D01*
X4562804Y30058990D01*
X4625290Y30144996D01*
X4647879Y30178801D01*
X4655093Y30186016D01*
X4661481Y30194807D01*
X4780193Y30313519D01*
X4788984Y30319907D01*
X4796199Y30327121D01*
X4830004Y30349710D01*
X4916010Y30412196D01*
X4947646Y30428316D01*
X4970605Y30443656D01*
X5008821Y30459486D01*
X5065583Y30488407D01*
X5126173Y30508095D01*
X5164395Y30523926D01*
X5191478Y30529314D01*
X5225252Y30540287D01*
X5330234Y30556914D01*
X5370122Y30564848D01*
X5380331Y30564848D01*
X5391059Y30566547D01*
X5558941Y30566547D01*
X5569669Y30564848D01*
G37*
G36*
X18219669Y30564848D02*
G01*
X18229878Y30564848D01*
X18269767Y30556914D01*
X18374747Y30540287D01*
X18408518Y30529314D01*
X18435605Y30523926D01*
X18473830Y30508093D01*
X18534416Y30488407D01*
X18591172Y30459489D01*
X18629395Y30443656D01*
X18652356Y30428314D01*
X18683989Y30412196D01*
X18769983Y30349718D01*
X18803801Y30327121D01*
X18811018Y30319904D01*
X18819806Y30313519D01*
X18938518Y30194807D01*
X18944902Y30186020D01*
X18952121Y30178801D01*
X18974720Y30144979D01*
X19037195Y30058990D01*
X19053311Y30027360D01*
X19068656Y30004395D01*
X19084490Y29966168D01*
X19113406Y29909417D01*
X19133089Y29848839D01*
X19148926Y29810605D01*
X19154314Y29783514D01*
X19165286Y29749748D01*
X19181912Y29644773D01*
X19189848Y29604878D01*
X19189848Y29594670D01*
X19191547Y29583942D01*
X19191547Y29416059D01*
X19189848Y29405332D01*
X19189848Y29395122D01*
X19181911Y29355224D01*
X19165286Y29250253D01*
X19154315Y29216490D01*
X19148926Y29189395D01*
X19133087Y29151159D01*
X19113406Y29090584D01*
X19084492Y29033838D01*
X19068656Y28995605D01*
X19053309Y28972638D01*
X19037195Y28941011D01*
X18974728Y28855035D01*
X18952121Y28821199D01*
X18944899Y28813978D01*
X18938518Y28805194D01*
X18819806Y28686482D01*
X18811022Y28680101D01*
X18803801Y28672879D01*
X18769965Y28650272D01*
X18683989Y28587805D01*
X18652362Y28571691D01*
X18629395Y28556344D01*
X18591162Y28540508D01*
X18534416Y28511594D01*
X18473841Y28491913D01*
X18435605Y28476074D01*
X18408510Y28470685D01*
X18374747Y28459714D01*
X18269776Y28443089D01*
X18229878Y28435152D01*
X18219668Y28435152D01*
X18208941Y28433453D01*
X18041059Y28433453D01*
X18030332Y28435152D01*
X18020122Y28435152D01*
X17980225Y28443089D01*
X17875252Y28459714D01*
X17841486Y28470686D01*
X17814395Y28476074D01*
X17776161Y28491911D01*
X17715583Y28511594D01*
X17658832Y28540510D01*
X17620605Y28556344D01*
X17597640Y28571689D01*
X17566010Y28587805D01*
X17480021Y28650280D01*
X17446199Y28672879D01*
X17438980Y28680098D01*
X17430193Y28686482D01*
X17311481Y28805194D01*
X17305096Y28813982D01*
X17297879Y28821199D01*
X17275282Y28855017D01*
X17212804Y28941011D01*
X17196686Y28972644D01*
X17181344Y28995605D01*
X17165511Y29033828D01*
X17136593Y29090584D01*
X17116907Y29151170D01*
X17101074Y29189395D01*
X17095686Y29216482D01*
X17084713Y29250253D01*
X17068086Y29355233D01*
X17060152Y29395122D01*
X17060152Y29405332D01*
X17058453Y29416059D01*
X17058453Y29583942D01*
X17060152Y29594670D01*
X17060152Y29604878D01*
X17068085Y29644764D01*
X17084713Y29749748D01*
X17095686Y29783522D01*
X17101074Y29810605D01*
X17116905Y29848827D01*
X17136593Y29909417D01*
X17165514Y29966179D01*
X17181344Y30004395D01*
X17196684Y30027354D01*
X17212804Y30058990D01*
X17275290Y30144996D01*
X17297879Y30178801D01*
X17305093Y30186016D01*
X17311481Y30194807D01*
X17430193Y30313519D01*
X17438984Y30319907D01*
X17446199Y30327121D01*
X17480004Y30349710D01*
X17566010Y30412196D01*
X17597646Y30428316D01*
X17620605Y30443656D01*
X17658821Y30459486D01*
X17715583Y30488407D01*
X17776173Y30508095D01*
X17814395Y30523926D01*
X17841478Y30529314D01*
X17875252Y30540287D01*
X17980234Y30556914D01*
X18020122Y30564848D01*
X18030331Y30564848D01*
X18041059Y30566547D01*
X18208941Y30566547D01*
X18219669Y30564848D01*
G37*
G36*
X66234328Y32432147D02*
G01*
X66483236Y32365452D01*
X66721309Y32266839D01*
X66944473Y32137995D01*
X67148911Y31981124D01*
X67331124Y31798911D01*
X67487995Y31594473D01*
X67616839Y31371309D01*
X67715452Y31133236D01*
X67782147Y30884328D01*
X67815782Y30628844D01*
X67815782Y30371156D01*
X67782147Y30115672D01*
X67715452Y29866764D01*
X67616839Y29628691D01*
X67487995Y29405527D01*
X67331124Y29201089D01*
X67148911Y29018876D01*
X66944473Y28862005D01*
X66721309Y28733161D01*
X66483236Y28634548D01*
X66234328Y28567853D01*
X65978844Y28534218D01*
X65721156Y28534218D01*
X65465672Y28567853D01*
X65216764Y28634548D01*
X64978691Y28733161D01*
X64755527Y28862005D01*
X64551089Y29018876D01*
X64368876Y29201089D01*
X64212005Y29405527D01*
X64083161Y29628691D01*
X63984548Y29866764D01*
X63917853Y30115672D01*
X63884218Y30371156D01*
X63884218Y30628844D01*
X63917853Y30884328D01*
X63984548Y31133236D01*
X64083161Y31371309D01*
X64212005Y31594473D01*
X64368876Y31798911D01*
X64551089Y31981124D01*
X64755527Y32137995D01*
X64978691Y32266839D01*
X65216764Y32365452D01*
X65465672Y32432147D01*
X65721156Y32465782D01*
X65978844Y32465782D01*
X66234328Y32432147D01*
G37*
G36*
X85284327Y32432147D02*
G01*
X85533235Y32365452D01*
X85771308Y32266839D01*
X85994472Y32137995D01*
X86198910Y31981124D01*
X86381123Y31798911D01*
X86537994Y31594473D01*
X86666838Y31371309D01*
X86765451Y31133236D01*
X86832146Y30884328D01*
X86865781Y30628844D01*
X86865781Y30371156D01*
X86832146Y30115672D01*
X86765451Y29866764D01*
X86666838Y29628691D01*
X86537994Y29405527D01*
X86381123Y29201089D01*
X86198910Y29018876D01*
X85994472Y28862005D01*
X85771308Y28733161D01*
X85533235Y28634548D01*
X85284327Y28567853D01*
X85028843Y28534218D01*
X84771155Y28534218D01*
X84515671Y28567853D01*
X84266763Y28634548D01*
X84028690Y28733161D01*
X83805526Y28862005D01*
X83601088Y29018876D01*
X83418875Y29201089D01*
X83262004Y29405527D01*
X83133160Y29628691D01*
X83034547Y29866764D01*
X82967852Y30115672D01*
X82934217Y30371156D01*
X82934217Y30628844D01*
X82967852Y30884328D01*
X83034547Y31133236D01*
X83133160Y31371309D01*
X83262004Y31594473D01*
X83418875Y31798911D01*
X83601088Y31981124D01*
X83805526Y32137995D01*
X84028690Y32266839D01*
X84266763Y32365452D01*
X84515671Y32432147D01*
X84771155Y32465782D01*
X85028843Y32465782D01*
X85284327Y32432147D01*
G37*
G36*
X35897548Y30582538D02*
G01*
X36055115Y30517271D01*
X36196922Y30422519D01*
X36317519Y30301922D01*
X36412271Y30160115D01*
X36477538Y30002548D01*
X36510811Y29835275D01*
X36510811Y29664725D01*
X36477538Y29497452D01*
X36412271Y29339885D01*
X36317519Y29198078D01*
X36196922Y29077481D01*
X36055115Y28982729D01*
X35897548Y28917462D01*
X35730275Y28884189D01*
X35559725Y28884189D01*
X35392452Y28917462D01*
X35234885Y28982729D01*
X35093078Y29077481D01*
X34972481Y29198078D01*
X34877729Y29339885D01*
X34812462Y29497452D01*
X34779189Y29664725D01*
X34779189Y29835275D01*
X34812462Y30002548D01*
X34877729Y30160115D01*
X34972481Y30301922D01*
X35093078Y30422519D01*
X35234885Y30517271D01*
X35392452Y30582538D01*
X35559725Y30615811D01*
X35730275Y30615811D01*
X35897548Y30582538D01*
G37*
G36*
X43517548Y30582538D02*
G01*
X43675115Y30517271D01*
X43816922Y30422519D01*
X43937519Y30301922D01*
X44032271Y30160115D01*
X44097538Y30002548D01*
X44130811Y29835275D01*
X44130811Y29664725D01*
X44097538Y29497452D01*
X44032271Y29339885D01*
X43937519Y29198078D01*
X43816922Y29077481D01*
X43675115Y28982729D01*
X43517548Y28917462D01*
X43350275Y28884189D01*
X43179725Y28884189D01*
X43012452Y28917462D01*
X42854885Y28982729D01*
X42713078Y29077481D01*
X42592481Y29198078D01*
X42497729Y29339885D01*
X42432462Y29497452D01*
X42399189Y29664725D01*
X42399189Y29835275D01*
X42432462Y30002548D01*
X42497729Y30160115D01*
X42592481Y30301922D01*
X42713078Y30422519D01*
X42854885Y30517271D01*
X43012452Y30582538D01*
X43179725Y30615811D01*
X43350275Y30615811D01*
X43517548Y30582538D01*
G37*
G36*
X8831576Y31178232D02*
G01*
X9007255Y31105464D01*
X9165361Y30999820D01*
X9299820Y30865361D01*
X9405464Y30707255D01*
X9478232Y30531576D01*
X9515329Y30345077D01*
X9515329Y30154923D01*
X9478232Y29968424D01*
X9405464Y29792745D01*
X9299820Y29634639D01*
X9165361Y29500180D01*
X9007255Y29394536D01*
X8831576Y29321768D01*
X8645077Y29284671D01*
X8454923Y29284671D01*
X8268424Y29321768D01*
X8092745Y29394536D01*
X7934639Y29500180D01*
X7800180Y29634639D01*
X7694536Y29792745D01*
X7621768Y29968424D01*
X7584671Y30154923D01*
X7584671Y30345077D01*
X7621768Y30531576D01*
X7694536Y30707255D01*
X7800180Y30865361D01*
X7934639Y30999820D01*
X8092745Y31105464D01*
X8268424Y31178232D01*
X8454923Y31215329D01*
X8645077Y31215329D01*
X8831576Y31178232D01*
G37*
G36*
X15331576Y31178232D02*
G01*
X15507255Y31105464D01*
X15665361Y30999820D01*
X15799820Y30865361D01*
X15905464Y30707255D01*
X15978232Y30531576D01*
X16015329Y30345077D01*
X16015329Y30154923D01*
X15978232Y29968424D01*
X15905464Y29792745D01*
X15799820Y29634639D01*
X15665361Y29500180D01*
X15507255Y29394536D01*
X15331576Y29321768D01*
X15145077Y29284671D01*
X14954923Y29284671D01*
X14768424Y29321768D01*
X14592745Y29394536D01*
X14434639Y29500180D01*
X14300180Y29634639D01*
X14194536Y29792745D01*
X14121768Y29968424D01*
X14084671Y30154923D01*
X14084671Y30345077D01*
X14121768Y30531576D01*
X14194536Y30707255D01*
X14300180Y30865361D01*
X14434639Y30999820D01*
X14592745Y31105464D01*
X14768424Y31178232D01*
X14954923Y31215329D01*
X15145077Y31215329D01*
X15331576Y31178232D01*
G37*
G36*
X44122654Y33158478D02*
G01*
X44129142Y33154142D01*
X44133478Y33147654D01*
X44135000Y33140000D01*
X44135000Y31440000D01*
X44133478Y31432346D01*
X44129142Y31425858D01*
X44122654Y31421522D01*
X44115000Y31420000D01*
X42415000Y31420000D01*
X42407346Y31421522D01*
X42400858Y31425858D01*
X42396522Y31432346D01*
X42395000Y31440000D01*
X42395000Y33140000D01*
X42396522Y33147654D01*
X42400858Y33154142D01*
X42407346Y33158478D01*
X42415000Y33160000D01*
X44115000Y33160000D01*
X44122654Y33158478D01*
G37*
G36*
X35897548Y33122538D02*
G01*
X36055115Y33057271D01*
X36196922Y32962519D01*
X36317519Y32841922D01*
X36412271Y32700115D01*
X36477538Y32542548D01*
X36510811Y32375275D01*
X36510811Y32204725D01*
X36477538Y32037452D01*
X36412271Y31879885D01*
X36317519Y31738078D01*
X36196922Y31617481D01*
X36055115Y31522729D01*
X35897548Y31457462D01*
X35730275Y31424189D01*
X35559725Y31424189D01*
X35392452Y31457462D01*
X35234885Y31522729D01*
X35093078Y31617481D01*
X34972481Y31738078D01*
X34877729Y31879885D01*
X34812462Y32037452D01*
X34779189Y32204725D01*
X34779189Y32375275D01*
X34812462Y32542548D01*
X34877729Y32700115D01*
X34972481Y32841922D01*
X35093078Y32962519D01*
X35234885Y33057271D01*
X35392452Y33122538D01*
X35559725Y33155811D01*
X35730275Y33155811D01*
X35897548Y33122538D01*
G37*
G36*
X62134669Y34104848D02*
G01*
X62144878Y34104848D01*
X62184767Y34096914D01*
X62289747Y34080287D01*
X62323518Y34069314D01*
X62350605Y34063926D01*
X62388830Y34048093D01*
X62449416Y34028407D01*
X62506172Y33999489D01*
X62544395Y33983656D01*
X62567356Y33968314D01*
X62598989Y33952196D01*
X62684983Y33889718D01*
X62718801Y33867121D01*
X62726018Y33859904D01*
X62734806Y33853519D01*
X62853518Y33734807D01*
X62859902Y33726020D01*
X62867121Y33718801D01*
X62889720Y33684979D01*
X62952195Y33598990D01*
X62968311Y33567360D01*
X62983656Y33544395D01*
X62999490Y33506168D01*
X63028406Y33449417D01*
X63048089Y33388839D01*
X63063926Y33350605D01*
X63069314Y33323514D01*
X63080286Y33289748D01*
X63096912Y33184773D01*
X63104848Y33144878D01*
X63104848Y33134670D01*
X63106547Y33123942D01*
X63106547Y32956059D01*
X63104848Y32945332D01*
X63104848Y32935122D01*
X63096911Y32895224D01*
X63080286Y32790253D01*
X63069315Y32756490D01*
X63063926Y32729395D01*
X63048087Y32691159D01*
X63028406Y32630584D01*
X62999492Y32573838D01*
X62983656Y32535605D01*
X62968309Y32512638D01*
X62952195Y32481011D01*
X62889728Y32395035D01*
X62867121Y32361199D01*
X62859899Y32353978D01*
X62853518Y32345194D01*
X62734806Y32226482D01*
X62726022Y32220101D01*
X62718801Y32212879D01*
X62684965Y32190272D01*
X62598989Y32127805D01*
X62567362Y32111691D01*
X62544395Y32096344D01*
X62506162Y32080508D01*
X62449416Y32051594D01*
X62388841Y32031913D01*
X62350605Y32016074D01*
X62323510Y32010685D01*
X62289747Y31999714D01*
X62184776Y31983089D01*
X62144878Y31975152D01*
X62134668Y31975152D01*
X62123941Y31973453D01*
X61956059Y31973453D01*
X61945332Y31975152D01*
X61935122Y31975152D01*
X61895225Y31983089D01*
X61790252Y31999714D01*
X61756486Y32010686D01*
X61729395Y32016074D01*
X61691161Y32031911D01*
X61630583Y32051594D01*
X61573832Y32080510D01*
X61535605Y32096344D01*
X61512640Y32111689D01*
X61481010Y32127805D01*
X61395021Y32190280D01*
X61361199Y32212879D01*
X61353980Y32220098D01*
X61345193Y32226482D01*
X61226481Y32345194D01*
X61220096Y32353982D01*
X61212879Y32361199D01*
X61190282Y32395017D01*
X61127804Y32481011D01*
X61111686Y32512644D01*
X61096344Y32535605D01*
X61080511Y32573828D01*
X61051593Y32630584D01*
X61031907Y32691170D01*
X61016074Y32729395D01*
X61010686Y32756482D01*
X60999713Y32790253D01*
X60983086Y32895233D01*
X60975152Y32935122D01*
X60975152Y32945332D01*
X60973453Y32956059D01*
X60973453Y33123942D01*
X60975152Y33134670D01*
X60975152Y33144878D01*
X60983085Y33184764D01*
X60999713Y33289748D01*
X61010686Y33323522D01*
X61016074Y33350605D01*
X61031905Y33388827D01*
X61051593Y33449417D01*
X61080514Y33506179D01*
X61096344Y33544395D01*
X61111684Y33567354D01*
X61127804Y33598990D01*
X61190290Y33684996D01*
X61212879Y33718801D01*
X61220093Y33726016D01*
X61226481Y33734807D01*
X61345193Y33853519D01*
X61353984Y33859907D01*
X61361199Y33867121D01*
X61395004Y33889710D01*
X61481010Y33952196D01*
X61512646Y33968316D01*
X61535605Y33983656D01*
X61573821Y33999486D01*
X61630583Y34028407D01*
X61691173Y34048095D01*
X61729395Y34063926D01*
X61756478Y34069314D01*
X61790252Y34080287D01*
X61895234Y34096914D01*
X61935122Y34104848D01*
X61945331Y34104848D01*
X61956059Y34106547D01*
X62123941Y34106547D01*
X62134669Y34104848D01*
G37*
G36*
X81184668Y34104848D02*
G01*
X81194877Y34104848D01*
X81234766Y34096914D01*
X81339746Y34080287D01*
X81373517Y34069314D01*
X81400604Y34063926D01*
X81438829Y34048093D01*
X81499415Y34028407D01*
X81556171Y33999489D01*
X81594394Y33983656D01*
X81617355Y33968314D01*
X81648988Y33952196D01*
X81734982Y33889718D01*
X81768800Y33867121D01*
X81776017Y33859904D01*
X81784805Y33853519D01*
X81903517Y33734807D01*
X81909901Y33726020D01*
X81917120Y33718801D01*
X81939719Y33684979D01*
X82002194Y33598990D01*
X82018310Y33567360D01*
X82033655Y33544395D01*
X82049489Y33506168D01*
X82078405Y33449417D01*
X82098088Y33388839D01*
X82113925Y33350605D01*
X82119313Y33323514D01*
X82130285Y33289748D01*
X82146911Y33184773D01*
X82154847Y33144878D01*
X82154847Y33134670D01*
X82156546Y33123942D01*
X82156546Y32956059D01*
X82154847Y32945332D01*
X82154847Y32935122D01*
X82146910Y32895224D01*
X82130285Y32790253D01*
X82119314Y32756490D01*
X82113925Y32729395D01*
X82098086Y32691159D01*
X82078405Y32630584D01*
X82049491Y32573838D01*
X82033655Y32535605D01*
X82018308Y32512638D01*
X82002194Y32481011D01*
X81939727Y32395035D01*
X81917120Y32361199D01*
X81909898Y32353978D01*
X81903517Y32345194D01*
X81784805Y32226482D01*
X81776021Y32220101D01*
X81768800Y32212879D01*
X81734964Y32190272D01*
X81648988Y32127805D01*
X81617361Y32111691D01*
X81594394Y32096344D01*
X81556161Y32080508D01*
X81499415Y32051594D01*
X81438840Y32031913D01*
X81400604Y32016074D01*
X81373509Y32010685D01*
X81339746Y31999714D01*
X81234775Y31983089D01*
X81194877Y31975152D01*
X81184667Y31975152D01*
X81173940Y31973453D01*
X81006058Y31973453D01*
X80995331Y31975152D01*
X80985121Y31975152D01*
X80945224Y31983089D01*
X80840251Y31999714D01*
X80806485Y32010686D01*
X80779394Y32016074D01*
X80741160Y32031911D01*
X80680582Y32051594D01*
X80623831Y32080510D01*
X80585604Y32096344D01*
X80562639Y32111689D01*
X80531009Y32127805D01*
X80445020Y32190280D01*
X80411198Y32212879D01*
X80403979Y32220098D01*
X80395192Y32226482D01*
X80276480Y32345194D01*
X80270095Y32353982D01*
X80262878Y32361199D01*
X80240281Y32395017D01*
X80177803Y32481011D01*
X80161685Y32512644D01*
X80146343Y32535605D01*
X80130510Y32573828D01*
X80101592Y32630584D01*
X80081906Y32691170D01*
X80066073Y32729395D01*
X80060685Y32756482D01*
X80049712Y32790253D01*
X80033085Y32895233D01*
X80025151Y32935122D01*
X80025151Y32945332D01*
X80023452Y32956059D01*
X80023452Y33123942D01*
X80025151Y33134670D01*
X80025151Y33144878D01*
X80033084Y33184764D01*
X80049712Y33289748D01*
X80060685Y33323522D01*
X80066073Y33350605D01*
X80081904Y33388827D01*
X80101592Y33449417D01*
X80130513Y33506179D01*
X80146343Y33544395D01*
X80161683Y33567354D01*
X80177803Y33598990D01*
X80240289Y33684996D01*
X80262878Y33718801D01*
X80270092Y33726016D01*
X80276480Y33734807D01*
X80395192Y33853519D01*
X80403983Y33859907D01*
X80411198Y33867121D01*
X80445003Y33889710D01*
X80531009Y33952196D01*
X80562645Y33968316D01*
X80585604Y33983656D01*
X80623820Y33999486D01*
X80680582Y34028407D01*
X80741172Y34048095D01*
X80779394Y34063926D01*
X80806477Y34069314D01*
X80840251Y34080287D01*
X80945233Y34096914D01*
X80985121Y34104848D01*
X80995330Y34104848D01*
X81006058Y34106547D01*
X81173940Y34106547D01*
X81184668Y34104848D01*
G37*
G36*
X8831576Y35678232D02*
G01*
X9007255Y35605464D01*
X9165361Y35499820D01*
X9299820Y35365361D01*
X9405464Y35207255D01*
X9478232Y35031576D01*
X9515329Y34845077D01*
X9515329Y34654923D01*
X9478232Y34468424D01*
X9405464Y34292745D01*
X9299820Y34134639D01*
X9165361Y34000180D01*
X9007255Y33894536D01*
X8831576Y33821768D01*
X8645077Y33784671D01*
X8454923Y33784671D01*
X8268424Y33821768D01*
X8092745Y33894536D01*
X7934639Y34000180D01*
X7800180Y34134639D01*
X7694536Y34292745D01*
X7621768Y34468424D01*
X7584671Y34654923D01*
X7584671Y34845077D01*
X7621768Y35031576D01*
X7694536Y35207255D01*
X7800180Y35365361D01*
X7934639Y35499820D01*
X8092745Y35605464D01*
X8268424Y35678232D01*
X8454923Y35715329D01*
X8645077Y35715329D01*
X8831576Y35678232D01*
G37*
G36*
X15331576Y35678232D02*
G01*
X15507255Y35605464D01*
X15665361Y35499820D01*
X15799820Y35365361D01*
X15905464Y35207255D01*
X15978232Y35031576D01*
X16015329Y34845077D01*
X16015329Y34654923D01*
X15978232Y34468424D01*
X15905464Y34292745D01*
X15799820Y34134639D01*
X15665361Y34000180D01*
X15507255Y33894536D01*
X15331576Y33821768D01*
X15145077Y33784671D01*
X14954923Y33784671D01*
X14768424Y33821768D01*
X14592745Y33894536D01*
X14434639Y34000180D01*
X14300180Y34134639D01*
X14194536Y34292745D01*
X14121768Y34468424D01*
X14084671Y34654923D01*
X14084671Y34845077D01*
X14121768Y35031576D01*
X14194536Y35207255D01*
X14300180Y35365361D01*
X14434639Y35499820D01*
X14592745Y35605464D01*
X14768424Y35678232D01*
X14954923Y35715329D01*
X15145077Y35715329D01*
X15331576Y35678232D01*
G37*
G36*
X68484669Y36644848D02*
G01*
X68494878Y36644848D01*
X68534767Y36636914D01*
X68639747Y36620287D01*
X68673518Y36609314D01*
X68700605Y36603926D01*
X68738830Y36588093D01*
X68799416Y36568407D01*
X68856172Y36539489D01*
X68894395Y36523656D01*
X68917356Y36508314D01*
X68948989Y36492196D01*
X69034983Y36429718D01*
X69068801Y36407121D01*
X69076018Y36399904D01*
X69084806Y36393519D01*
X69203518Y36274807D01*
X69209902Y36266020D01*
X69217121Y36258801D01*
X69239720Y36224979D01*
X69302195Y36138990D01*
X69318311Y36107360D01*
X69333656Y36084395D01*
X69349490Y36046168D01*
X69378406Y35989417D01*
X69398089Y35928839D01*
X69413926Y35890605D01*
X69419314Y35863514D01*
X69430286Y35829748D01*
X69446912Y35724773D01*
X69454848Y35684878D01*
X69454848Y35674670D01*
X69456547Y35663942D01*
X69456547Y35496059D01*
X69454848Y35485332D01*
X69454848Y35475122D01*
X69446911Y35435224D01*
X69430286Y35330253D01*
X69419315Y35296490D01*
X69413926Y35269395D01*
X69398087Y35231159D01*
X69378406Y35170584D01*
X69349492Y35113838D01*
X69333656Y35075605D01*
X69318309Y35052638D01*
X69302195Y35021011D01*
X69239728Y34935035D01*
X69217121Y34901199D01*
X69209899Y34893978D01*
X69203518Y34885194D01*
X69084806Y34766482D01*
X69076022Y34760101D01*
X69068801Y34752879D01*
X69034965Y34730272D01*
X68948989Y34667805D01*
X68917362Y34651691D01*
X68894395Y34636344D01*
X68856162Y34620508D01*
X68799416Y34591594D01*
X68738841Y34571913D01*
X68700605Y34556074D01*
X68673510Y34550685D01*
X68639747Y34539714D01*
X68534776Y34523089D01*
X68494878Y34515152D01*
X68484668Y34515152D01*
X68473941Y34513453D01*
X68306059Y34513453D01*
X68295332Y34515152D01*
X68285122Y34515152D01*
X68245225Y34523089D01*
X68140252Y34539714D01*
X68106486Y34550686D01*
X68079395Y34556074D01*
X68041161Y34571911D01*
X67980583Y34591594D01*
X67923832Y34620510D01*
X67885605Y34636344D01*
X67862640Y34651689D01*
X67831010Y34667805D01*
X67745021Y34730280D01*
X67711199Y34752879D01*
X67703980Y34760098D01*
X67695193Y34766482D01*
X67576481Y34885194D01*
X67570096Y34893982D01*
X67562879Y34901199D01*
X67540282Y34935017D01*
X67477804Y35021011D01*
X67461686Y35052644D01*
X67446344Y35075605D01*
X67430511Y35113828D01*
X67401593Y35170584D01*
X67381907Y35231170D01*
X67366074Y35269395D01*
X67360686Y35296482D01*
X67349713Y35330253D01*
X67333086Y35435233D01*
X67325152Y35475122D01*
X67325152Y35485332D01*
X67323453Y35496059D01*
X67323453Y35663942D01*
X67325152Y35674670D01*
X67325152Y35684878D01*
X67333085Y35724764D01*
X67349713Y35829748D01*
X67360686Y35863522D01*
X67366074Y35890605D01*
X67381905Y35928827D01*
X67401593Y35989417D01*
X67430514Y36046179D01*
X67446344Y36084395D01*
X67461684Y36107354D01*
X67477804Y36138990D01*
X67540290Y36224996D01*
X67562879Y36258801D01*
X67570093Y36266016D01*
X67576481Y36274807D01*
X67695193Y36393519D01*
X67703984Y36399907D01*
X67711199Y36407121D01*
X67745004Y36429710D01*
X67831010Y36492196D01*
X67862646Y36508316D01*
X67885605Y36523656D01*
X67923821Y36539486D01*
X67980583Y36568407D01*
X68041173Y36588095D01*
X68079395Y36603926D01*
X68106478Y36609314D01*
X68140252Y36620287D01*
X68245234Y36636914D01*
X68285122Y36644848D01*
X68295331Y36644848D01*
X68306059Y36646547D01*
X68473941Y36646547D01*
X68484669Y36644848D01*
G37*
G36*
X87534668Y36644848D02*
G01*
X87544877Y36644848D01*
X87584766Y36636914D01*
X87689746Y36620287D01*
X87723517Y36609314D01*
X87750604Y36603926D01*
X87788829Y36588093D01*
X87849415Y36568407D01*
X87906171Y36539489D01*
X87944394Y36523656D01*
X87967355Y36508314D01*
X87998988Y36492196D01*
X88084982Y36429718D01*
X88118800Y36407121D01*
X88126017Y36399904D01*
X88134805Y36393519D01*
X88253517Y36274807D01*
X88259901Y36266020D01*
X88267120Y36258801D01*
X88289719Y36224979D01*
X88352194Y36138990D01*
X88368310Y36107360D01*
X88383655Y36084395D01*
X88399489Y36046168D01*
X88428405Y35989417D01*
X88448088Y35928839D01*
X88463925Y35890605D01*
X88469313Y35863514D01*
X88480285Y35829748D01*
X88496911Y35724773D01*
X88504847Y35684878D01*
X88504847Y35674670D01*
X88506546Y35663942D01*
X88506546Y35496059D01*
X88504847Y35485332D01*
X88504847Y35475122D01*
X88496910Y35435224D01*
X88480285Y35330253D01*
X88469314Y35296490D01*
X88463925Y35269395D01*
X88448086Y35231159D01*
X88428405Y35170584D01*
X88399491Y35113838D01*
X88383655Y35075605D01*
X88368308Y35052638D01*
X88352194Y35021011D01*
X88289727Y34935035D01*
X88267120Y34901199D01*
X88259898Y34893978D01*
X88253517Y34885194D01*
X88134805Y34766482D01*
X88126021Y34760101D01*
X88118800Y34752879D01*
X88084964Y34730272D01*
X87998988Y34667805D01*
X87967361Y34651691D01*
X87944394Y34636344D01*
X87906161Y34620508D01*
X87849415Y34591594D01*
X87788840Y34571913D01*
X87750604Y34556074D01*
X87723509Y34550685D01*
X87689746Y34539714D01*
X87584775Y34523089D01*
X87544877Y34515152D01*
X87534667Y34515152D01*
X87523940Y34513453D01*
X87356058Y34513453D01*
X87345331Y34515152D01*
X87335121Y34515152D01*
X87295224Y34523089D01*
X87190251Y34539714D01*
X87156485Y34550686D01*
X87129394Y34556074D01*
X87091160Y34571911D01*
X87030582Y34591594D01*
X86973831Y34620510D01*
X86935604Y34636344D01*
X86912639Y34651689D01*
X86881009Y34667805D01*
X86795020Y34730280D01*
X86761198Y34752879D01*
X86753979Y34760098D01*
X86745192Y34766482D01*
X86626480Y34885194D01*
X86620095Y34893982D01*
X86612878Y34901199D01*
X86590281Y34935017D01*
X86527803Y35021011D01*
X86511685Y35052644D01*
X86496343Y35075605D01*
X86480510Y35113828D01*
X86451592Y35170584D01*
X86431906Y35231170D01*
X86416073Y35269395D01*
X86410685Y35296482D01*
X86399712Y35330253D01*
X86383085Y35435233D01*
X86375151Y35475122D01*
X86375151Y35485332D01*
X86373452Y35496059D01*
X86373452Y35663942D01*
X86375151Y35674670D01*
X86375151Y35684878D01*
X86383084Y35724764D01*
X86399712Y35829748D01*
X86410685Y35863522D01*
X86416073Y35890605D01*
X86431904Y35928827D01*
X86451592Y35989417D01*
X86480513Y36046179D01*
X86496343Y36084395D01*
X86511683Y36107354D01*
X86527803Y36138990D01*
X86590289Y36224996D01*
X86612878Y36258801D01*
X86620092Y36266016D01*
X86626480Y36274807D01*
X86745192Y36393519D01*
X86753983Y36399907D01*
X86761198Y36407121D01*
X86795003Y36429710D01*
X86881009Y36492196D01*
X86912645Y36508316D01*
X86935604Y36523656D01*
X86973820Y36539486D01*
X87030582Y36568407D01*
X87091172Y36588095D01*
X87129394Y36603926D01*
X87156477Y36609314D01*
X87190251Y36620287D01*
X87295233Y36636914D01*
X87335121Y36644848D01*
X87345330Y36644848D01*
X87356058Y36646547D01*
X87523940Y36646547D01*
X87534668Y36644848D01*
G37*
G36*
X35252548Y53592538D02*
G01*
X35410115Y53527271D01*
X35551922Y53432519D01*
X35672519Y53311922D01*
X35767271Y53170115D01*
X35832538Y53012548D01*
X35865811Y52845275D01*
X35865811Y52674725D01*
X35832538Y52507452D01*
X35767271Y52349885D01*
X35672519Y52208078D01*
X35551922Y52087481D01*
X35410115Y51992729D01*
X35252548Y51927462D01*
X35085275Y51894189D01*
X34914725Y51894189D01*
X34747452Y51927462D01*
X34589885Y51992729D01*
X34448078Y52087481D01*
X34327481Y52208078D01*
X34232729Y52349885D01*
X34167462Y52507452D01*
X34134189Y52674725D01*
X34134189Y52845275D01*
X34167462Y53012548D01*
X34232729Y53170115D01*
X34327481Y53311922D01*
X34448078Y53432519D01*
X34589885Y53527271D01*
X34747452Y53592538D01*
X34914725Y53625811D01*
X35085275Y53625811D01*
X35252548Y53592538D01*
G37*
G36*
X6808148Y55143528D02*
G01*
X7005142Y55079521D01*
X7189698Y54985485D01*
X7357271Y54863736D01*
X7503736Y54717271D01*
X7625485Y54549698D01*
X7719521Y54365142D01*
X7783528Y54168148D01*
X7815931Y53963566D01*
X7815931Y53756434D01*
X7783528Y53551852D01*
X7719521Y53354858D01*
X7625485Y53170302D01*
X7503736Y53002729D01*
X7357271Y52856264D01*
X7189698Y52734515D01*
X7005142Y52640479D01*
X6808148Y52576472D01*
X6603566Y52544069D01*
X6396434Y52544069D01*
X6191852Y52576472D01*
X5994858Y52640479D01*
X5810302Y52734515D01*
X5642729Y52856264D01*
X5496264Y53002729D01*
X5374515Y53170302D01*
X5280479Y53354858D01*
X5216472Y53551852D01*
X5184069Y53756434D01*
X5184069Y53963566D01*
X5216472Y54168148D01*
X5280479Y54365142D01*
X5374515Y54549698D01*
X5496264Y54717271D01*
X5642729Y54863736D01*
X5810302Y54985485D01*
X5994858Y55079521D01*
X6191852Y55143528D01*
X6396434Y55175931D01*
X6603566Y55175931D01*
X6808148Y55143528D01*
G37*
G36*
X84056411Y56318725D02*
G01*
X84118664Y56310529D01*
X84134324Y56303227D01*
X84153325Y56299447D01*
X84178491Y56282632D01*
X84204422Y56270540D01*
X84220197Y56254765D01*
X84240919Y56240919D01*
X84254764Y56220198D01*
X84270539Y56204423D01*
X84282629Y56178495D01*
X84299447Y56153325D01*
X84303226Y56134323D01*
X84310528Y56118665D01*
X84318722Y56056425D01*
X84320000Y56050000D01*
X84320000Y53950000D01*
X84318721Y53943574D01*
X84310528Y53881336D01*
X84303227Y53865680D01*
X84299447Y53846675D01*
X84282628Y53821504D01*
X84270539Y53795578D01*
X84254766Y53779806D01*
X84240919Y53759081D01*
X84220194Y53745234D01*
X84204422Y53729461D01*
X84178496Y53717372D01*
X84153325Y53700553D01*
X84134320Y53696773D01*
X84118664Y53689472D01*
X84056426Y53681279D01*
X84050000Y53680000D01*
X81950000Y53680000D01*
X81943575Y53681278D01*
X81881335Y53689472D01*
X81865677Y53696774D01*
X81846675Y53700553D01*
X81821505Y53717371D01*
X81795577Y53729461D01*
X81779802Y53745236D01*
X81759081Y53759081D01*
X81745235Y53779803D01*
X81729460Y53795578D01*
X81717368Y53821509D01*
X81700553Y53846675D01*
X81696773Y53865676D01*
X81689471Y53881336D01*
X81681275Y53943589D01*
X81680000Y53950000D01*
X81680000Y56050000D01*
X81681275Y56056410D01*
X81689471Y56118665D01*
X81696773Y56134327D01*
X81700553Y56153325D01*
X81717367Y56178490D01*
X81729460Y56204423D01*
X81745237Y56220201D01*
X81759081Y56240919D01*
X81779799Y56254763D01*
X81795577Y56270540D01*
X81821510Y56282633D01*
X81846675Y56299447D01*
X81865673Y56303227D01*
X81881335Y56310529D01*
X81943590Y56318725D01*
X81950000Y56320000D01*
X84050000Y56320000D01*
X84056411Y56318725D01*
G37*
G36*
X35252548Y56132538D02*
G01*
X35410115Y56067271D01*
X35551922Y55972519D01*
X35672519Y55851922D01*
X35767271Y55710115D01*
X35832538Y55552548D01*
X35865811Y55385275D01*
X35865811Y55214725D01*
X35832538Y55047452D01*
X35767271Y54889885D01*
X35672519Y54748078D01*
X35551922Y54627481D01*
X35410115Y54532729D01*
X35252548Y54467462D01*
X35085275Y54434189D01*
X34914725Y54434189D01*
X34747452Y54467462D01*
X34589885Y54532729D01*
X34448078Y54627481D01*
X34327481Y54748078D01*
X34232729Y54889885D01*
X34167462Y55047452D01*
X34134189Y55214725D01*
X34134189Y55385275D01*
X34167462Y55552548D01*
X34232729Y55710115D01*
X34327481Y55851922D01*
X34448078Y55972519D01*
X34589885Y56067271D01*
X34747452Y56132538D01*
X34914725Y56165811D01*
X35085275Y56165811D01*
X35252548Y56132538D01*
G37*
G36*
X21684316Y57328201D02*
G01*
X21734602Y57294602D01*
X21768201Y57244316D01*
X21780000Y57185000D01*
X21780000Y56815000D01*
X21768201Y56755684D01*
X21734602Y56705398D01*
X21684316Y56671799D01*
X21625000Y56660000D01*
X21355000Y56660000D01*
X21295684Y56671799D01*
X21245398Y56705398D01*
X21211799Y56755684D01*
X21200000Y56815000D01*
X21200000Y57185000D01*
X21211799Y57244316D01*
X21245398Y57294602D01*
X21295684Y57328201D01*
X21355000Y57340000D01*
X21625000Y57340000D01*
X21684316Y57328201D01*
G37*
G36*
X22704316Y57328201D02*
G01*
X22754602Y57294602D01*
X22788201Y57244316D01*
X22800000Y57185000D01*
X22800000Y56815000D01*
X22788201Y56755684D01*
X22754602Y56705398D01*
X22704316Y56671799D01*
X22645000Y56660000D01*
X22375000Y56660000D01*
X22315684Y56671799D01*
X22265398Y56705398D01*
X22231799Y56755684D01*
X22220000Y56815000D01*
X22220000Y57185000D01*
X22231799Y57244316D01*
X22265398Y57294602D01*
X22315684Y57328201D01*
X22375000Y57340000D01*
X22645000Y57340000D01*
X22704316Y57328201D01*
G37*
G36*
X35252548Y58672538D02*
G01*
X35410115Y58607271D01*
X35551922Y58512519D01*
X35672519Y58391922D01*
X35767271Y58250115D01*
X35832538Y58092548D01*
X35865811Y57925275D01*
X35865811Y57754725D01*
X35832538Y57587452D01*
X35767271Y57429885D01*
X35672519Y57288078D01*
X35551922Y57167481D01*
X35410115Y57072729D01*
X35252548Y57007462D01*
X35085275Y56974189D01*
X34914725Y56974189D01*
X34747452Y57007462D01*
X34589885Y57072729D01*
X34448078Y57167481D01*
X34327481Y57288078D01*
X34232729Y57429885D01*
X34167462Y57587452D01*
X34134189Y57754725D01*
X34134189Y57925275D01*
X34167462Y58092548D01*
X34232729Y58250115D01*
X34327481Y58391922D01*
X34448078Y58512519D01*
X34589885Y58607271D01*
X34747452Y58672538D01*
X34914725Y58705811D01*
X35085275Y58705811D01*
X35252548Y58672538D01*
G37*
G36*
X7556411Y60258725D02*
G01*
X7618664Y60250529D01*
X7634324Y60243227D01*
X7653325Y60239447D01*
X7678491Y60222632D01*
X7704422Y60210540D01*
X7720197Y60194765D01*
X7740919Y60180919D01*
X7754764Y60160198D01*
X7770539Y60144423D01*
X7782629Y60118495D01*
X7799447Y60093325D01*
X7803226Y60074323D01*
X7810528Y60058665D01*
X7818722Y59996425D01*
X7820000Y59990000D01*
X7820000Y57890000D01*
X7818721Y57883574D01*
X7810528Y57821336D01*
X7803227Y57805680D01*
X7799447Y57786675D01*
X7782628Y57761504D01*
X7770539Y57735578D01*
X7754766Y57719806D01*
X7740919Y57699081D01*
X7720194Y57685234D01*
X7704422Y57669461D01*
X7678496Y57657372D01*
X7653325Y57640553D01*
X7634320Y57636773D01*
X7618664Y57629472D01*
X7556426Y57621279D01*
X7550000Y57620000D01*
X5450000Y57620000D01*
X5443575Y57621278D01*
X5381335Y57629472D01*
X5365677Y57636774D01*
X5346675Y57640553D01*
X5321505Y57657371D01*
X5295577Y57669461D01*
X5279802Y57685236D01*
X5259081Y57699081D01*
X5245235Y57719803D01*
X5229460Y57735578D01*
X5217368Y57761509D01*
X5200553Y57786675D01*
X5196773Y57805676D01*
X5189471Y57821336D01*
X5181275Y57883589D01*
X5180000Y57890000D01*
X5180000Y59990000D01*
X5181275Y59996410D01*
X5189471Y60058665D01*
X5196773Y60074327D01*
X5200553Y60093325D01*
X5217367Y60118490D01*
X5229460Y60144423D01*
X5245237Y60160201D01*
X5259081Y60180919D01*
X5279799Y60194763D01*
X5295577Y60210540D01*
X5321510Y60222633D01*
X5346675Y60239447D01*
X5365673Y60243227D01*
X5381335Y60250529D01*
X5443590Y60258725D01*
X5450000Y60260000D01*
X7550000Y60260000D01*
X7556411Y60258725D01*
G37*
G36*
X83308148Y61363528D02*
G01*
X83505142Y61299521D01*
X83689698Y61205485D01*
X83857271Y61083736D01*
X84003736Y60937271D01*
X84125485Y60769698D01*
X84219521Y60585142D01*
X84283528Y60388148D01*
X84315931Y60183566D01*
X84315931Y59976434D01*
X84283528Y59771852D01*
X84219521Y59574858D01*
X84125485Y59390302D01*
X84003736Y59222729D01*
X83857271Y59076264D01*
X83689698Y58954515D01*
X83505142Y58860479D01*
X83308148Y58796472D01*
X83103566Y58764069D01*
X82896434Y58764069D01*
X82691852Y58796472D01*
X82494858Y58860479D01*
X82310302Y58954515D01*
X82142729Y59076264D01*
X81996264Y59222729D01*
X81874515Y59390302D01*
X81780479Y59574858D01*
X81716472Y59771852D01*
X81684069Y59976434D01*
X81684069Y60183566D01*
X81716472Y60388148D01*
X81780479Y60585142D01*
X81874515Y60769698D01*
X81996264Y60937271D01*
X82142729Y61083736D01*
X82310302Y61205485D01*
X82494858Y61299521D01*
X82691852Y61363528D01*
X82896434Y61395931D01*
X83103566Y61395931D01*
X83308148Y61363528D01*
G37*
G36*
X35252548Y61212538D02*
G01*
X35410115Y61147271D01*
X35551922Y61052519D01*
X35672519Y60931922D01*
X35767271Y60790115D01*
X35832538Y60632548D01*
X35865811Y60465275D01*
X35865811Y60294725D01*
X35832538Y60127452D01*
X35767271Y59969885D01*
X35672519Y59828078D01*
X35551922Y59707481D01*
X35410115Y59612729D01*
X35252548Y59547462D01*
X35085275Y59514189D01*
X34914725Y59514189D01*
X34747452Y59547462D01*
X34589885Y59612729D01*
X34448078Y59707481D01*
X34327481Y59828078D01*
X34232729Y59969885D01*
X34167462Y60127452D01*
X34134189Y60294725D01*
X34134189Y60465275D01*
X34167462Y60632548D01*
X34232729Y60790115D01*
X34327481Y60931922D01*
X34448078Y61052519D01*
X34589885Y61147271D01*
X34747452Y61212538D01*
X34914725Y61245811D01*
X35085275Y61245811D01*
X35252548Y61212538D01*
G37*
G36*
X21684316Y62328201D02*
G01*
X21734602Y62294602D01*
X21768201Y62244316D01*
X21780000Y62185000D01*
X21780000Y61815000D01*
X21768201Y61755684D01*
X21734602Y61705398D01*
X21684316Y61671799D01*
X21625000Y61660000D01*
X21355000Y61660000D01*
X21295684Y61671799D01*
X21245398Y61705398D01*
X21211799Y61755684D01*
X21200000Y61815000D01*
X21200000Y62185000D01*
X21211799Y62244316D01*
X21245398Y62294602D01*
X21295684Y62328201D01*
X21355000Y62340000D01*
X21625000Y62340000D01*
X21684316Y62328201D01*
G37*
G36*
X22704316Y62328201D02*
G01*
X22754602Y62294602D01*
X22788201Y62244316D01*
X22800000Y62185000D01*
X22800000Y61815000D01*
X22788201Y61755684D01*
X22754602Y61705398D01*
X22704316Y61671799D01*
X22645000Y61660000D01*
X22375000Y61660000D01*
X22315684Y61671799D01*
X22265398Y61705398D01*
X22231799Y61755684D01*
X22220000Y61815000D01*
X22220000Y62185000D01*
X22231799Y62244316D01*
X22265398Y62294602D01*
X22315684Y62328201D01*
X22375000Y62340000D01*
X22645000Y62340000D01*
X22704316Y62328201D01*
G37*
G36*
X35252548Y63752538D02*
G01*
X35410115Y63687271D01*
X35551922Y63592519D01*
X35672519Y63471922D01*
X35767271Y63330115D01*
X35832538Y63172548D01*
X35865811Y63005275D01*
X35865811Y62834725D01*
X35832538Y62667452D01*
X35767271Y62509885D01*
X35672519Y62368078D01*
X35551922Y62247481D01*
X35410115Y62152729D01*
X35252548Y62087462D01*
X35085275Y62054189D01*
X34914725Y62054189D01*
X34747452Y62087462D01*
X34589885Y62152729D01*
X34448078Y62247481D01*
X34327481Y62368078D01*
X34232729Y62509885D01*
X34167462Y62667452D01*
X34134189Y62834725D01*
X34134189Y63005275D01*
X34167462Y63172548D01*
X34232729Y63330115D01*
X34327481Y63471922D01*
X34448078Y63592519D01*
X34589885Y63687271D01*
X34747452Y63752538D01*
X34914725Y63785811D01*
X35085275Y63785811D01*
X35252548Y63752538D01*
G37*
G36*
X83308148Y66443528D02*
G01*
X83505142Y66379521D01*
X83689698Y66285485D01*
X83857271Y66163736D01*
X84003736Y66017271D01*
X84125485Y65849698D01*
X84219521Y65665142D01*
X84283528Y65468148D01*
X84315931Y65263566D01*
X84315931Y65056434D01*
X84283528Y64851852D01*
X84219521Y64654858D01*
X84125485Y64470302D01*
X84003736Y64302729D01*
X83857271Y64156264D01*
X83689698Y64034515D01*
X83505142Y63940479D01*
X83308148Y63876472D01*
X83103566Y63844069D01*
X82896434Y63844069D01*
X82691852Y63876472D01*
X82494858Y63940479D01*
X82310302Y64034515D01*
X82142729Y64156264D01*
X81996264Y64302729D01*
X81874515Y64470302D01*
X81780479Y64654858D01*
X81716472Y64851852D01*
X81684069Y65056434D01*
X81684069Y65263566D01*
X81716472Y65468148D01*
X81780479Y65665142D01*
X81874515Y65849698D01*
X81996264Y66017271D01*
X82142729Y66163736D01*
X82310302Y66285485D01*
X82494858Y66379521D01*
X82691852Y66443528D01*
X82896434Y66475931D01*
X83103566Y66475931D01*
X83308148Y66443528D01*
G37*
G36*
X35252548Y66292538D02*
G01*
X35410115Y66227271D01*
X35551922Y66132519D01*
X35672519Y66011922D01*
X35767271Y65870115D01*
X35832538Y65712548D01*
X35865811Y65545275D01*
X35865811Y65374725D01*
X35832538Y65207452D01*
X35767271Y65049885D01*
X35672519Y64908078D01*
X35551922Y64787481D01*
X35410115Y64692729D01*
X35252548Y64627462D01*
X35085275Y64594189D01*
X34914725Y64594189D01*
X34747452Y64627462D01*
X34589885Y64692729D01*
X34448078Y64787481D01*
X34327481Y64908078D01*
X34232729Y65049885D01*
X34167462Y65207452D01*
X34134189Y65374725D01*
X34134189Y65545275D01*
X34167462Y65712548D01*
X34232729Y65870115D01*
X34327481Y66011922D01*
X34448078Y66132519D01*
X34589885Y66227271D01*
X34747452Y66292538D01*
X34914725Y66325811D01*
X35085275Y66325811D01*
X35252548Y66292538D01*
G37*
G36*
X6808148Y67643528D02*
G01*
X7005142Y67579521D01*
X7189698Y67485485D01*
X7357271Y67363736D01*
X7503736Y67217271D01*
X7625485Y67049698D01*
X7719521Y66865142D01*
X7783528Y66668148D01*
X7815931Y66463566D01*
X7815931Y66256434D01*
X7783528Y66051852D01*
X7719521Y65854858D01*
X7625485Y65670302D01*
X7503736Y65502729D01*
X7357271Y65356264D01*
X7189698Y65234515D01*
X7005142Y65140479D01*
X6808148Y65076472D01*
X6603566Y65044069D01*
X6396434Y65044069D01*
X6191852Y65076472D01*
X5994858Y65140479D01*
X5810302Y65234515D01*
X5642729Y65356264D01*
X5496264Y65502729D01*
X5374515Y65670302D01*
X5280479Y65854858D01*
X5216472Y66051852D01*
X5184069Y66256434D01*
X5184069Y66463566D01*
X5216472Y66668148D01*
X5280479Y66865142D01*
X5374515Y67049698D01*
X5496264Y67217271D01*
X5642729Y67363736D01*
X5810302Y67485485D01*
X5994858Y67579521D01*
X6191852Y67643528D01*
X6396434Y67675931D01*
X6603566Y67675931D01*
X6808148Y67643528D01*
G37*
G36*
X35857654Y68868478D02*
G01*
X35864142Y68864142D01*
X35868478Y68857654D01*
X35870000Y68850000D01*
X35870000Y67150000D01*
X35868478Y67142346D01*
X35864142Y67135858D01*
X35857654Y67131522D01*
X35850000Y67130000D01*
X34150000Y67130000D01*
X34142346Y67131522D01*
X34135858Y67135858D01*
X34131522Y67142346D01*
X34130000Y67150000D01*
X34130000Y68850000D01*
X34131522Y68857654D01*
X34135858Y68864142D01*
X34142346Y68868478D01*
X34150000Y68870000D01*
X35850000Y68870000D01*
X35857654Y68868478D01*
G37*
G36*
X7556411Y72758725D02*
G01*
X7618664Y72750529D01*
X7634324Y72743227D01*
X7653325Y72739447D01*
X7678491Y72722632D01*
X7704422Y72710540D01*
X7720197Y72694765D01*
X7740919Y72680919D01*
X7754764Y72660198D01*
X7770539Y72644423D01*
X7782629Y72618495D01*
X7799447Y72593325D01*
X7803226Y72574323D01*
X7810528Y72558665D01*
X7818722Y72496425D01*
X7820000Y72490000D01*
X7820000Y70390000D01*
X7818721Y70383574D01*
X7810528Y70321336D01*
X7803227Y70305680D01*
X7799447Y70286675D01*
X7782628Y70261504D01*
X7770539Y70235578D01*
X7754766Y70219806D01*
X7740919Y70199081D01*
X7720194Y70185234D01*
X7704422Y70169461D01*
X7678496Y70157372D01*
X7653325Y70140553D01*
X7634320Y70136773D01*
X7618664Y70129472D01*
X7556426Y70121279D01*
X7550000Y70120000D01*
X5450000Y70120000D01*
X5443575Y70121278D01*
X5381335Y70129472D01*
X5365677Y70136774D01*
X5346675Y70140553D01*
X5321505Y70157371D01*
X5295577Y70169461D01*
X5279802Y70185236D01*
X5259081Y70199081D01*
X5245235Y70219803D01*
X5229460Y70235578D01*
X5217368Y70261509D01*
X5200553Y70286675D01*
X5196773Y70305676D01*
X5189471Y70321336D01*
X5181275Y70383589D01*
X5180000Y70390000D01*
X5180000Y72490000D01*
X5181275Y72496410D01*
X5189471Y72558665D01*
X5196773Y72574327D01*
X5200553Y72593325D01*
X5217367Y72618490D01*
X5229460Y72644423D01*
X5245237Y72660201D01*
X5259081Y72680919D01*
X5279799Y72694763D01*
X5295577Y72710540D01*
X5321510Y72722633D01*
X5346675Y72739447D01*
X5365673Y72743227D01*
X5381335Y72750529D01*
X5443590Y72758725D01*
X5450000Y72760000D01*
X7550000Y72760000D01*
X7556411Y72758725D01*
G37*
G36*
X75857654Y76168478D02*
G01*
X75864142Y76164142D01*
X75868478Y76157654D01*
X75870000Y76150000D01*
X75870000Y74450000D01*
X75868478Y74442346D01*
X75864142Y74435858D01*
X75857654Y74431522D01*
X75850000Y74430000D01*
X74150000Y74430000D01*
X74142346Y74431522D01*
X74135858Y74435858D01*
X74131522Y74442346D01*
X74130000Y74450000D01*
X74130000Y76150000D01*
X74131522Y76157654D01*
X74135858Y76164142D01*
X74142346Y76168478D01*
X74150000Y76170000D01*
X75850000Y76170000D01*
X75857654Y76168478D01*
G37*
G36*
X21912548Y76132538D02*
G01*
X22070115Y76067271D01*
X22211922Y75972519D01*
X22332519Y75851922D01*
X22427271Y75710115D01*
X22492538Y75552548D01*
X22525811Y75385275D01*
X22525811Y75214725D01*
X22492538Y75047452D01*
X22427271Y74889885D01*
X22332519Y74748078D01*
X22211922Y74627481D01*
X22070115Y74532729D01*
X21912548Y74467462D01*
X21745275Y74434189D01*
X21574725Y74434189D01*
X21407452Y74467462D01*
X21249885Y74532729D01*
X21108078Y74627481D01*
X20987481Y74748078D01*
X20892729Y74889885D01*
X20827462Y75047452D01*
X20794189Y75214725D01*
X20794189Y75385275D01*
X20827462Y75552548D01*
X20892729Y75710115D01*
X20987481Y75851922D01*
X21108078Y75972519D01*
X21249885Y76067271D01*
X21407452Y76132538D01*
X21574725Y76165811D01*
X21745275Y76165811D01*
X21912548Y76132538D01*
G37*
G36*
X24452548Y76132538D02*
G01*
X24610115Y76067271D01*
X24751922Y75972519D01*
X24872519Y75851922D01*
X24967271Y75710115D01*
X25032538Y75552548D01*
X25065811Y75385275D01*
X25065811Y75214725D01*
X25032538Y75047452D01*
X24967271Y74889885D01*
X24872519Y74748078D01*
X24751922Y74627481D01*
X24610115Y74532729D01*
X24452548Y74467462D01*
X24285275Y74434189D01*
X24114725Y74434189D01*
X23947452Y74467462D01*
X23789885Y74532729D01*
X23648078Y74627481D01*
X23527481Y74748078D01*
X23432729Y74889885D01*
X23367462Y75047452D01*
X23334189Y75214725D01*
X23334189Y75385275D01*
X23367462Y75552548D01*
X23432729Y75710115D01*
X23527481Y75851922D01*
X23648078Y75972519D01*
X23789885Y76067271D01*
X23947452Y76132538D01*
X24114725Y76165811D01*
X24285275Y76165811D01*
X24452548Y76132538D01*
G37*
G36*
X26992548Y76132538D02*
G01*
X27150115Y76067271D01*
X27291922Y75972519D01*
X27412519Y75851922D01*
X27507271Y75710115D01*
X27572538Y75552548D01*
X27605811Y75385275D01*
X27605811Y75214725D01*
X27572538Y75047452D01*
X27507271Y74889885D01*
X27412519Y74748078D01*
X27291922Y74627481D01*
X27150115Y74532729D01*
X26992548Y74467462D01*
X26825275Y74434189D01*
X26654725Y74434189D01*
X26487452Y74467462D01*
X26329885Y74532729D01*
X26188078Y74627481D01*
X26067481Y74748078D01*
X25972729Y74889885D01*
X25907462Y75047452D01*
X25874189Y75214725D01*
X25874189Y75385275D01*
X25907462Y75552548D01*
X25972729Y75710115D01*
X26067481Y75851922D01*
X26188078Y75972519D01*
X26329885Y76067271D01*
X26487452Y76132538D01*
X26654725Y76165811D01*
X26825275Y76165811D01*
X26992548Y76132538D01*
G37*
G36*
X29532548Y76132538D02*
G01*
X29690115Y76067271D01*
X29831922Y75972519D01*
X29952519Y75851922D01*
X30047271Y75710115D01*
X30112538Y75552548D01*
X30145811Y75385275D01*
X30145811Y75214725D01*
X30112538Y75047452D01*
X30047271Y74889885D01*
X29952519Y74748078D01*
X29831922Y74627481D01*
X29690115Y74532729D01*
X29532548Y74467462D01*
X29365275Y74434189D01*
X29194725Y74434189D01*
X29027452Y74467462D01*
X28869885Y74532729D01*
X28728078Y74627481D01*
X28607481Y74748078D01*
X28512729Y74889885D01*
X28447462Y75047452D01*
X28414189Y75214725D01*
X28414189Y75385275D01*
X28447462Y75552548D01*
X28512729Y75710115D01*
X28607481Y75851922D01*
X28728078Y75972519D01*
X28869885Y76067271D01*
X29027452Y76132538D01*
X29194725Y76165811D01*
X29365275Y76165811D01*
X29532548Y76132538D01*
G37*
G36*
X32072548Y76132538D02*
G01*
X32230115Y76067271D01*
X32371922Y75972519D01*
X32492519Y75851922D01*
X32587271Y75710115D01*
X32652538Y75552548D01*
X32685811Y75385275D01*
X32685811Y75214725D01*
X32652538Y75047452D01*
X32587271Y74889885D01*
X32492519Y74748078D01*
X32371922Y74627481D01*
X32230115Y74532729D01*
X32072548Y74467462D01*
X31905275Y74434189D01*
X31734725Y74434189D01*
X31567452Y74467462D01*
X31409885Y74532729D01*
X31268078Y74627481D01*
X31147481Y74748078D01*
X31052729Y74889885D01*
X30987462Y75047452D01*
X30954189Y75214725D01*
X30954189Y75385275D01*
X30987462Y75552548D01*
X31052729Y75710115D01*
X31147481Y75851922D01*
X31268078Y75972519D01*
X31409885Y76067271D01*
X31567452Y76132538D01*
X31734725Y76165811D01*
X31905275Y76165811D01*
X32072548Y76132538D01*
G37*
G36*
X34612548Y76132538D02*
G01*
X34770115Y76067271D01*
X34911922Y75972519D01*
X35032519Y75851922D01*
X35127271Y75710115D01*
X35192538Y75552548D01*
X35225811Y75385275D01*
X35225811Y75214725D01*
X35192538Y75047452D01*
X35127271Y74889885D01*
X35032519Y74748078D01*
X34911922Y74627481D01*
X34770115Y74532729D01*
X34612548Y74467462D01*
X34445275Y74434189D01*
X34274725Y74434189D01*
X34107452Y74467462D01*
X33949885Y74532729D01*
X33808078Y74627481D01*
X33687481Y74748078D01*
X33592729Y74889885D01*
X33527462Y75047452D01*
X33494189Y75214725D01*
X33494189Y75385275D01*
X33527462Y75552548D01*
X33592729Y75710115D01*
X33687481Y75851922D01*
X33808078Y75972519D01*
X33949885Y76067271D01*
X34107452Y76132538D01*
X34274725Y76165811D01*
X34445275Y76165811D01*
X34612548Y76132538D01*
G37*
G36*
X37152548Y76132538D02*
G01*
X37310115Y76067271D01*
X37451922Y75972519D01*
X37572519Y75851922D01*
X37667271Y75710115D01*
X37732538Y75552548D01*
X37765811Y75385275D01*
X37765811Y75214725D01*
X37732538Y75047452D01*
X37667271Y74889885D01*
X37572519Y74748078D01*
X37451922Y74627481D01*
X37310115Y74532729D01*
X37152548Y74467462D01*
X36985275Y74434189D01*
X36814725Y74434189D01*
X36647452Y74467462D01*
X36489885Y74532729D01*
X36348078Y74627481D01*
X36227481Y74748078D01*
X36132729Y74889885D01*
X36067462Y75047452D01*
X36034189Y75214725D01*
X36034189Y75385275D01*
X36067462Y75552548D01*
X36132729Y75710115D01*
X36227481Y75851922D01*
X36348078Y75972519D01*
X36489885Y76067271D01*
X36647452Y76132538D01*
X36814725Y76165811D01*
X36985275Y76165811D01*
X37152548Y76132538D01*
G37*
G36*
X39692548Y76132538D02*
G01*
X39850115Y76067271D01*
X39991922Y75972519D01*
X40112519Y75851922D01*
X40207271Y75710115D01*
X40272538Y75552548D01*
X40305811Y75385275D01*
X40305811Y75214725D01*
X40272538Y75047452D01*
X40207271Y74889885D01*
X40112519Y74748078D01*
X39991922Y74627481D01*
X39850115Y74532729D01*
X39692548Y74467462D01*
X39525275Y74434189D01*
X39354725Y74434189D01*
X39187452Y74467462D01*
X39029885Y74532729D01*
X38888078Y74627481D01*
X38767481Y74748078D01*
X38672729Y74889885D01*
X38607462Y75047452D01*
X38574189Y75214725D01*
X38574189Y75385275D01*
X38607462Y75552548D01*
X38672729Y75710115D01*
X38767481Y75851922D01*
X38888078Y75972519D01*
X39029885Y76067271D01*
X39187452Y76132538D01*
X39354725Y76165811D01*
X39525275Y76165811D01*
X39692548Y76132538D01*
G37*
G36*
X42232548Y76132538D02*
G01*
X42390115Y76067271D01*
X42531922Y75972519D01*
X42652519Y75851922D01*
X42747271Y75710115D01*
X42812538Y75552548D01*
X42845811Y75385275D01*
X42845811Y75214725D01*
X42812538Y75047452D01*
X42747271Y74889885D01*
X42652519Y74748078D01*
X42531922Y74627481D01*
X42390115Y74532729D01*
X42232548Y74467462D01*
X42065275Y74434189D01*
X41894725Y74434189D01*
X41727452Y74467462D01*
X41569885Y74532729D01*
X41428078Y74627481D01*
X41307481Y74748078D01*
X41212729Y74889885D01*
X41147462Y75047452D01*
X41114189Y75214725D01*
X41114189Y75385275D01*
X41147462Y75552548D01*
X41212729Y75710115D01*
X41307481Y75851922D01*
X41428078Y75972519D01*
X41569885Y76067271D01*
X41727452Y76132538D01*
X41894725Y76165811D01*
X42065275Y76165811D01*
X42232548Y76132538D01*
G37*
G36*
X44772548Y76132538D02*
G01*
X44930115Y76067271D01*
X45071922Y75972519D01*
X45192519Y75851922D01*
X45287271Y75710115D01*
X45352538Y75552548D01*
X45385811Y75385275D01*
X45385811Y75214725D01*
X45352538Y75047452D01*
X45287271Y74889885D01*
X45192519Y74748078D01*
X45071922Y74627481D01*
X44930115Y74532729D01*
X44772548Y74467462D01*
X44605275Y74434189D01*
X44434725Y74434189D01*
X44267452Y74467462D01*
X44109885Y74532729D01*
X43968078Y74627481D01*
X43847481Y74748078D01*
X43752729Y74889885D01*
X43687462Y75047452D01*
X43654189Y75214725D01*
X43654189Y75385275D01*
X43687462Y75552548D01*
X43752729Y75710115D01*
X43847481Y75851922D01*
X43968078Y75972519D01*
X44109885Y76067271D01*
X44267452Y76132538D01*
X44434725Y76165811D01*
X44605275Y76165811D01*
X44772548Y76132538D01*
G37*
G36*
X47312548Y76132538D02*
G01*
X47470115Y76067271D01*
X47611922Y75972519D01*
X47732519Y75851922D01*
X47827271Y75710115D01*
X47892538Y75552548D01*
X47925811Y75385275D01*
X47925811Y75214725D01*
X47892538Y75047452D01*
X47827271Y74889885D01*
X47732519Y74748078D01*
X47611922Y74627481D01*
X47470115Y74532729D01*
X47312548Y74467462D01*
X47145275Y74434189D01*
X46974725Y74434189D01*
X46807452Y74467462D01*
X46649885Y74532729D01*
X46508078Y74627481D01*
X46387481Y74748078D01*
X46292729Y74889885D01*
X46227462Y75047452D01*
X46194189Y75214725D01*
X46194189Y75385275D01*
X46227462Y75552548D01*
X46292729Y75710115D01*
X46387481Y75851922D01*
X46508078Y75972519D01*
X46649885Y76067271D01*
X46807452Y76132538D01*
X46974725Y76165811D01*
X47145275Y76165811D01*
X47312548Y76132538D01*
G37*
G36*
X49852548Y76132538D02*
G01*
X50010115Y76067271D01*
X50151922Y75972519D01*
X50272519Y75851922D01*
X50367271Y75710115D01*
X50432538Y75552548D01*
X50465811Y75385275D01*
X50465811Y75214725D01*
X50432538Y75047452D01*
X50367271Y74889885D01*
X50272519Y74748078D01*
X50151922Y74627481D01*
X50010115Y74532729D01*
X49852548Y74467462D01*
X49685275Y74434189D01*
X49514725Y74434189D01*
X49347452Y74467462D01*
X49189885Y74532729D01*
X49048078Y74627481D01*
X48927481Y74748078D01*
X48832729Y74889885D01*
X48767462Y75047452D01*
X48734189Y75214725D01*
X48734189Y75385275D01*
X48767462Y75552548D01*
X48832729Y75710115D01*
X48927481Y75851922D01*
X49048078Y75972519D01*
X49189885Y76067271D01*
X49347452Y76132538D01*
X49514725Y76165811D01*
X49685275Y76165811D01*
X49852548Y76132538D01*
G37*
G36*
X52392548Y76132538D02*
G01*
X52550115Y76067271D01*
X52691922Y75972519D01*
X52812519Y75851922D01*
X52907271Y75710115D01*
X52972538Y75552548D01*
X53005811Y75385275D01*
X53005811Y75214725D01*
X52972538Y75047452D01*
X52907271Y74889885D01*
X52812519Y74748078D01*
X52691922Y74627481D01*
X52550115Y74532729D01*
X52392548Y74467462D01*
X52225275Y74434189D01*
X52054725Y74434189D01*
X51887452Y74467462D01*
X51729885Y74532729D01*
X51588078Y74627481D01*
X51467481Y74748078D01*
X51372729Y74889885D01*
X51307462Y75047452D01*
X51274189Y75214725D01*
X51274189Y75385275D01*
X51307462Y75552548D01*
X51372729Y75710115D01*
X51467481Y75851922D01*
X51588078Y75972519D01*
X51729885Y76067271D01*
X51887452Y76132538D01*
X52054725Y76165811D01*
X52225275Y76165811D01*
X52392548Y76132538D01*
G37*
G36*
X54932548Y76132538D02*
G01*
X55090115Y76067271D01*
X55231922Y75972519D01*
X55352519Y75851922D01*
X55447271Y75710115D01*
X55512538Y75552548D01*
X55545811Y75385275D01*
X55545811Y75214725D01*
X55512538Y75047452D01*
X55447271Y74889885D01*
X55352519Y74748078D01*
X55231922Y74627481D01*
X55090115Y74532729D01*
X54932548Y74467462D01*
X54765275Y74434189D01*
X54594725Y74434189D01*
X54427452Y74467462D01*
X54269885Y74532729D01*
X54128078Y74627481D01*
X54007481Y74748078D01*
X53912729Y74889885D01*
X53847462Y75047452D01*
X53814189Y75214725D01*
X53814189Y75385275D01*
X53847462Y75552548D01*
X53912729Y75710115D01*
X54007481Y75851922D01*
X54128078Y75972519D01*
X54269885Y76067271D01*
X54427452Y76132538D01*
X54594725Y76165811D01*
X54765275Y76165811D01*
X54932548Y76132538D01*
G37*
G36*
X57472548Y76132538D02*
G01*
X57630115Y76067271D01*
X57771922Y75972519D01*
X57892519Y75851922D01*
X57987271Y75710115D01*
X58052538Y75552548D01*
X58085811Y75385275D01*
X58085811Y75214725D01*
X58052538Y75047452D01*
X57987271Y74889885D01*
X57892519Y74748078D01*
X57771922Y74627481D01*
X57630115Y74532729D01*
X57472548Y74467462D01*
X57305275Y74434189D01*
X57134725Y74434189D01*
X56967452Y74467462D01*
X56809885Y74532729D01*
X56668078Y74627481D01*
X56547481Y74748078D01*
X56452729Y74889885D01*
X56387462Y75047452D01*
X56354189Y75214725D01*
X56354189Y75385275D01*
X56387462Y75552548D01*
X56452729Y75710115D01*
X56547481Y75851922D01*
X56668078Y75972519D01*
X56809885Y76067271D01*
X56967452Y76132538D01*
X57134725Y76165811D01*
X57305275Y76165811D01*
X57472548Y76132538D01*
G37*
G36*
X60012548Y76132538D02*
G01*
X60170115Y76067271D01*
X60311922Y75972519D01*
X60432519Y75851922D01*
X60527271Y75710115D01*
X60592538Y75552548D01*
X60625811Y75385275D01*
X60625811Y75214725D01*
X60592538Y75047452D01*
X60527271Y74889885D01*
X60432519Y74748078D01*
X60311922Y74627481D01*
X60170115Y74532729D01*
X60012548Y74467462D01*
X59845275Y74434189D01*
X59674725Y74434189D01*
X59507452Y74467462D01*
X59349885Y74532729D01*
X59208078Y74627481D01*
X59087481Y74748078D01*
X58992729Y74889885D01*
X58927462Y75047452D01*
X58894189Y75214725D01*
X58894189Y75385275D01*
X58927462Y75552548D01*
X58992729Y75710115D01*
X59087481Y75851922D01*
X59208078Y75972519D01*
X59349885Y76067271D01*
X59507452Y76132538D01*
X59674725Y76165811D01*
X59845275Y76165811D01*
X60012548Y76132538D01*
G37*
G36*
X62552548Y76132538D02*
G01*
X62710115Y76067271D01*
X62851922Y75972519D01*
X62972519Y75851922D01*
X63067271Y75710115D01*
X63132538Y75552548D01*
X63165811Y75385275D01*
X63165811Y75214725D01*
X63132538Y75047452D01*
X63067271Y74889885D01*
X62972519Y74748078D01*
X62851922Y74627481D01*
X62710115Y74532729D01*
X62552548Y74467462D01*
X62385275Y74434189D01*
X62214725Y74434189D01*
X62047452Y74467462D01*
X61889885Y74532729D01*
X61748078Y74627481D01*
X61627481Y74748078D01*
X61532729Y74889885D01*
X61467462Y75047452D01*
X61434189Y75214725D01*
X61434189Y75385275D01*
X61467462Y75552548D01*
X61532729Y75710115D01*
X61627481Y75851922D01*
X61748078Y75972519D01*
X61889885Y76067271D01*
X62047452Y76132538D01*
X62214725Y76165811D01*
X62385275Y76165811D01*
X62552548Y76132538D01*
G37*
G36*
X65092548Y76132538D02*
G01*
X65250115Y76067271D01*
X65391922Y75972519D01*
X65512519Y75851922D01*
X65607271Y75710115D01*
X65672538Y75552548D01*
X65705811Y75385275D01*
X65705811Y75214725D01*
X65672538Y75047452D01*
X65607271Y74889885D01*
X65512519Y74748078D01*
X65391922Y74627481D01*
X65250115Y74532729D01*
X65092548Y74467462D01*
X64925275Y74434189D01*
X64754725Y74434189D01*
X64587452Y74467462D01*
X64429885Y74532729D01*
X64288078Y74627481D01*
X64167481Y74748078D01*
X64072729Y74889885D01*
X64007462Y75047452D01*
X63974189Y75214725D01*
X63974189Y75385275D01*
X64007462Y75552548D01*
X64072729Y75710115D01*
X64167481Y75851922D01*
X64288078Y75972519D01*
X64429885Y76067271D01*
X64587452Y76132538D01*
X64754725Y76165811D01*
X64925275Y76165811D01*
X65092548Y76132538D01*
G37*
G36*
X67632548Y76132538D02*
G01*
X67790115Y76067271D01*
X67931922Y75972519D01*
X68052519Y75851922D01*
X68147271Y75710115D01*
X68212538Y75552548D01*
X68245811Y75385275D01*
X68245811Y75214725D01*
X68212538Y75047452D01*
X68147271Y74889885D01*
X68052519Y74748078D01*
X67931922Y74627481D01*
X67790115Y74532729D01*
X67632548Y74467462D01*
X67465275Y74434189D01*
X67294725Y74434189D01*
X67127452Y74467462D01*
X66969885Y74532729D01*
X66828078Y74627481D01*
X66707481Y74748078D01*
X66612729Y74889885D01*
X66547462Y75047452D01*
X66514189Y75214725D01*
X66514189Y75385275D01*
X66547462Y75552548D01*
X66612729Y75710115D01*
X66707481Y75851922D01*
X66828078Y75972519D01*
X66969885Y76067271D01*
X67127452Y76132538D01*
X67294725Y76165811D01*
X67465275Y76165811D01*
X67632548Y76132538D01*
G37*
G36*
X70172548Y76132538D02*
G01*
X70330115Y76067271D01*
X70471922Y75972519D01*
X70592519Y75851922D01*
X70687271Y75710115D01*
X70752538Y75552548D01*
X70785811Y75385275D01*
X70785811Y75214725D01*
X70752538Y75047452D01*
X70687271Y74889885D01*
X70592519Y74748078D01*
X70471922Y74627481D01*
X70330115Y74532729D01*
X70172548Y74467462D01*
X70005275Y74434189D01*
X69834725Y74434189D01*
X69667452Y74467462D01*
X69509885Y74532729D01*
X69368078Y74627481D01*
X69247481Y74748078D01*
X69152729Y74889885D01*
X69087462Y75047452D01*
X69054189Y75214725D01*
X69054189Y75385275D01*
X69087462Y75552548D01*
X69152729Y75710115D01*
X69247481Y75851922D01*
X69368078Y75972519D01*
X69509885Y76067271D01*
X69667452Y76132538D01*
X69834725Y76165811D01*
X70005275Y76165811D01*
X70172548Y76132538D01*
G37*
G36*
X72712548Y76132538D02*
G01*
X72870115Y76067271D01*
X73011922Y75972519D01*
X73132519Y75851922D01*
X73227271Y75710115D01*
X73292538Y75552548D01*
X73325811Y75385275D01*
X73325811Y75214725D01*
X73292538Y75047452D01*
X73227271Y74889885D01*
X73132519Y74748078D01*
X73011922Y74627481D01*
X72870115Y74532729D01*
X72712548Y74467462D01*
X72545275Y74434189D01*
X72374725Y74434189D01*
X72207452Y74467462D01*
X72049885Y74532729D01*
X71908078Y74627481D01*
X71787481Y74748078D01*
X71692729Y74889885D01*
X71627462Y75047452D01*
X71594189Y75214725D01*
X71594189Y75385275D01*
X71627462Y75552548D01*
X71692729Y75710115D01*
X71787481Y75851922D01*
X71908078Y75972519D01*
X72049885Y76067271D01*
X72207452Y76132538D01*
X72374725Y76165811D01*
X72545275Y76165811D01*
X72712548Y76132538D01*
G37*
G36*
X75857654Y101568478D02*
G01*
X75864142Y101564142D01*
X75868478Y101557654D01*
X75870000Y101550000D01*
X75870000Y99850000D01*
X75868478Y99842346D01*
X75864142Y99835858D01*
X75857654Y99831522D01*
X75850000Y99830000D01*
X74150000Y99830000D01*
X74142346Y99831522D01*
X74135858Y99835858D01*
X74131522Y99842346D01*
X74130000Y99850000D01*
X74130000Y101550000D01*
X74131522Y101557654D01*
X74135858Y101564142D01*
X74142346Y101568478D01*
X74150000Y101570000D01*
X75850000Y101570000D01*
X75857654Y101568478D01*
G37*
G36*
X21912548Y101532538D02*
G01*
X22070115Y101467271D01*
X22211922Y101372519D01*
X22332519Y101251922D01*
X22427271Y101110115D01*
X22492538Y100952548D01*
X22525811Y100785275D01*
X22525811Y100614725D01*
X22492538Y100447452D01*
X22427271Y100289885D01*
X22332519Y100148078D01*
X22211922Y100027481D01*
X22070115Y99932729D01*
X21912548Y99867462D01*
X21745275Y99834189D01*
X21574725Y99834189D01*
X21407452Y99867462D01*
X21249885Y99932729D01*
X21108078Y100027481D01*
X20987481Y100148078D01*
X20892729Y100289885D01*
X20827462Y100447452D01*
X20794189Y100614725D01*
X20794189Y100785275D01*
X20827462Y100952548D01*
X20892729Y101110115D01*
X20987481Y101251922D01*
X21108078Y101372519D01*
X21249885Y101467271D01*
X21407452Y101532538D01*
X21574725Y101565811D01*
X21745275Y101565811D01*
X21912548Y101532538D01*
G37*
G36*
X24452548Y101532538D02*
G01*
X24610115Y101467271D01*
X24751922Y101372519D01*
X24872519Y101251922D01*
X24967271Y101110115D01*
X25032538Y100952548D01*
X25065811Y100785275D01*
X25065811Y100614725D01*
X25032538Y100447452D01*
X24967271Y100289885D01*
X24872519Y100148078D01*
X24751922Y100027481D01*
X24610115Y99932729D01*
X24452548Y99867462D01*
X24285275Y99834189D01*
X24114725Y99834189D01*
X23947452Y99867462D01*
X23789885Y99932729D01*
X23648078Y100027481D01*
X23527481Y100148078D01*
X23432729Y100289885D01*
X23367462Y100447452D01*
X23334189Y100614725D01*
X23334189Y100785275D01*
X23367462Y100952548D01*
X23432729Y101110115D01*
X23527481Y101251922D01*
X23648078Y101372519D01*
X23789885Y101467271D01*
X23947452Y101532538D01*
X24114725Y101565811D01*
X24285275Y101565811D01*
X24452548Y101532538D01*
G37*
G36*
X26992548Y101532538D02*
G01*
X27150115Y101467271D01*
X27291922Y101372519D01*
X27412519Y101251922D01*
X27507271Y101110115D01*
X27572538Y100952548D01*
X27605811Y100785275D01*
X27605811Y100614725D01*
X27572538Y100447452D01*
X27507271Y100289885D01*
X27412519Y100148078D01*
X27291922Y100027481D01*
X27150115Y99932729D01*
X26992548Y99867462D01*
X26825275Y99834189D01*
X26654725Y99834189D01*
X26487452Y99867462D01*
X26329885Y99932729D01*
X26188078Y100027481D01*
X26067481Y100148078D01*
X25972729Y100289885D01*
X25907462Y100447452D01*
X25874189Y100614725D01*
X25874189Y100785275D01*
X25907462Y100952548D01*
X25972729Y101110115D01*
X26067481Y101251922D01*
X26188078Y101372519D01*
X26329885Y101467271D01*
X26487452Y101532538D01*
X26654725Y101565811D01*
X26825275Y101565811D01*
X26992548Y101532538D01*
G37*
G36*
X29532548Y101532538D02*
G01*
X29690115Y101467271D01*
X29831922Y101372519D01*
X29952519Y101251922D01*
X30047271Y101110115D01*
X30112538Y100952548D01*
X30145811Y100785275D01*
X30145811Y100614725D01*
X30112538Y100447452D01*
X30047271Y100289885D01*
X29952519Y100148078D01*
X29831922Y100027481D01*
X29690115Y99932729D01*
X29532548Y99867462D01*
X29365275Y99834189D01*
X29194725Y99834189D01*
X29027452Y99867462D01*
X28869885Y99932729D01*
X28728078Y100027481D01*
X28607481Y100148078D01*
X28512729Y100289885D01*
X28447462Y100447452D01*
X28414189Y100614725D01*
X28414189Y100785275D01*
X28447462Y100952548D01*
X28512729Y101110115D01*
X28607481Y101251922D01*
X28728078Y101372519D01*
X28869885Y101467271D01*
X29027452Y101532538D01*
X29194725Y101565811D01*
X29365275Y101565811D01*
X29532548Y101532538D01*
G37*
G36*
X32072548Y101532538D02*
G01*
X32230115Y101467271D01*
X32371922Y101372519D01*
X32492519Y101251922D01*
X32587271Y101110115D01*
X32652538Y100952548D01*
X32685811Y100785275D01*
X32685811Y100614725D01*
X32652538Y100447452D01*
X32587271Y100289885D01*
X32492519Y100148078D01*
X32371922Y100027481D01*
X32230115Y99932729D01*
X32072548Y99867462D01*
X31905275Y99834189D01*
X31734725Y99834189D01*
X31567452Y99867462D01*
X31409885Y99932729D01*
X31268078Y100027481D01*
X31147481Y100148078D01*
X31052729Y100289885D01*
X30987462Y100447452D01*
X30954189Y100614725D01*
X30954189Y100785275D01*
X30987462Y100952548D01*
X31052729Y101110115D01*
X31147481Y101251922D01*
X31268078Y101372519D01*
X31409885Y101467271D01*
X31567452Y101532538D01*
X31734725Y101565811D01*
X31905275Y101565811D01*
X32072548Y101532538D01*
G37*
G36*
X34612548Y101532538D02*
G01*
X34770115Y101467271D01*
X34911922Y101372519D01*
X35032519Y101251922D01*
X35127271Y101110115D01*
X35192538Y100952548D01*
X35225811Y100785275D01*
X35225811Y100614725D01*
X35192538Y100447452D01*
X35127271Y100289885D01*
X35032519Y100148078D01*
X34911922Y100027481D01*
X34770115Y99932729D01*
X34612548Y99867462D01*
X34445275Y99834189D01*
X34274725Y99834189D01*
X34107452Y99867462D01*
X33949885Y99932729D01*
X33808078Y100027481D01*
X33687481Y100148078D01*
X33592729Y100289885D01*
X33527462Y100447452D01*
X33494189Y100614725D01*
X33494189Y100785275D01*
X33527462Y100952548D01*
X33592729Y101110115D01*
X33687481Y101251922D01*
X33808078Y101372519D01*
X33949885Y101467271D01*
X34107452Y101532538D01*
X34274725Y101565811D01*
X34445275Y101565811D01*
X34612548Y101532538D01*
G37*
G36*
X37152548Y101532538D02*
G01*
X37310115Y101467271D01*
X37451922Y101372519D01*
X37572519Y101251922D01*
X37667271Y101110115D01*
X37732538Y100952548D01*
X37765811Y100785275D01*
X37765811Y100614725D01*
X37732538Y100447452D01*
X37667271Y100289885D01*
X37572519Y100148078D01*
X37451922Y100027481D01*
X37310115Y99932729D01*
X37152548Y99867462D01*
X36985275Y99834189D01*
X36814725Y99834189D01*
X36647452Y99867462D01*
X36489885Y99932729D01*
X36348078Y100027481D01*
X36227481Y100148078D01*
X36132729Y100289885D01*
X36067462Y100447452D01*
X36034189Y100614725D01*
X36034189Y100785275D01*
X36067462Y100952548D01*
X36132729Y101110115D01*
X36227481Y101251922D01*
X36348078Y101372519D01*
X36489885Y101467271D01*
X36647452Y101532538D01*
X36814725Y101565811D01*
X36985275Y101565811D01*
X37152548Y101532538D01*
G37*
G36*
X39692548Y101532538D02*
G01*
X39850115Y101467271D01*
X39991922Y101372519D01*
X40112519Y101251922D01*
X40207271Y101110115D01*
X40272538Y100952548D01*
X40305811Y100785275D01*
X40305811Y100614725D01*
X40272538Y100447452D01*
X40207271Y100289885D01*
X40112519Y100148078D01*
X39991922Y100027481D01*
X39850115Y99932729D01*
X39692548Y99867462D01*
X39525275Y99834189D01*
X39354725Y99834189D01*
X39187452Y99867462D01*
X39029885Y99932729D01*
X38888078Y100027481D01*
X38767481Y100148078D01*
X38672729Y100289885D01*
X38607462Y100447452D01*
X38574189Y100614725D01*
X38574189Y100785275D01*
X38607462Y100952548D01*
X38672729Y101110115D01*
X38767481Y101251922D01*
X38888078Y101372519D01*
X39029885Y101467271D01*
X39187452Y101532538D01*
X39354725Y101565811D01*
X39525275Y101565811D01*
X39692548Y101532538D01*
G37*
G36*
X42232548Y101532538D02*
G01*
X42390115Y101467271D01*
X42531922Y101372519D01*
X42652519Y101251922D01*
X42747271Y101110115D01*
X42812538Y100952548D01*
X42845811Y100785275D01*
X42845811Y100614725D01*
X42812538Y100447452D01*
X42747271Y100289885D01*
X42652519Y100148078D01*
X42531922Y100027481D01*
X42390115Y99932729D01*
X42232548Y99867462D01*
X42065275Y99834189D01*
X41894725Y99834189D01*
X41727452Y99867462D01*
X41569885Y99932729D01*
X41428078Y100027481D01*
X41307481Y100148078D01*
X41212729Y100289885D01*
X41147462Y100447452D01*
X41114189Y100614725D01*
X41114189Y100785275D01*
X41147462Y100952548D01*
X41212729Y101110115D01*
X41307481Y101251922D01*
X41428078Y101372519D01*
X41569885Y101467271D01*
X41727452Y101532538D01*
X41894725Y101565811D01*
X42065275Y101565811D01*
X42232548Y101532538D01*
G37*
G36*
X44772548Y101532538D02*
G01*
X44930115Y101467271D01*
X45071922Y101372519D01*
X45192519Y101251922D01*
X45287271Y101110115D01*
X45352538Y100952548D01*
X45385811Y100785275D01*
X45385811Y100614725D01*
X45352538Y100447452D01*
X45287271Y100289885D01*
X45192519Y100148078D01*
X45071922Y100027481D01*
X44930115Y99932729D01*
X44772548Y99867462D01*
X44605275Y99834189D01*
X44434725Y99834189D01*
X44267452Y99867462D01*
X44109885Y99932729D01*
X43968078Y100027481D01*
X43847481Y100148078D01*
X43752729Y100289885D01*
X43687462Y100447452D01*
X43654189Y100614725D01*
X43654189Y100785275D01*
X43687462Y100952548D01*
X43752729Y101110115D01*
X43847481Y101251922D01*
X43968078Y101372519D01*
X44109885Y101467271D01*
X44267452Y101532538D01*
X44434725Y101565811D01*
X44605275Y101565811D01*
X44772548Y101532538D01*
G37*
G36*
X47312548Y101532538D02*
G01*
X47470115Y101467271D01*
X47611922Y101372519D01*
X47732519Y101251922D01*
X47827271Y101110115D01*
X47892538Y100952548D01*
X47925811Y100785275D01*
X47925811Y100614725D01*
X47892538Y100447452D01*
X47827271Y100289885D01*
X47732519Y100148078D01*
X47611922Y100027481D01*
X47470115Y99932729D01*
X47312548Y99867462D01*
X47145275Y99834189D01*
X46974725Y99834189D01*
X46807452Y99867462D01*
X46649885Y99932729D01*
X46508078Y100027481D01*
X46387481Y100148078D01*
X46292729Y100289885D01*
X46227462Y100447452D01*
X46194189Y100614725D01*
X46194189Y100785275D01*
X46227462Y100952548D01*
X46292729Y101110115D01*
X46387481Y101251922D01*
X46508078Y101372519D01*
X46649885Y101467271D01*
X46807452Y101532538D01*
X46974725Y101565811D01*
X47145275Y101565811D01*
X47312548Y101532538D01*
G37*
G36*
X49852548Y101532538D02*
G01*
X50010115Y101467271D01*
X50151922Y101372519D01*
X50272519Y101251922D01*
X50367271Y101110115D01*
X50432538Y100952548D01*
X50465811Y100785275D01*
X50465811Y100614725D01*
X50432538Y100447452D01*
X50367271Y100289885D01*
X50272519Y100148078D01*
X50151922Y100027481D01*
X50010115Y99932729D01*
X49852548Y99867462D01*
X49685275Y99834189D01*
X49514725Y99834189D01*
X49347452Y99867462D01*
X49189885Y99932729D01*
X49048078Y100027481D01*
X48927481Y100148078D01*
X48832729Y100289885D01*
X48767462Y100447452D01*
X48734189Y100614725D01*
X48734189Y100785275D01*
X48767462Y100952548D01*
X48832729Y101110115D01*
X48927481Y101251922D01*
X49048078Y101372519D01*
X49189885Y101467271D01*
X49347452Y101532538D01*
X49514725Y101565811D01*
X49685275Y101565811D01*
X49852548Y101532538D01*
G37*
G36*
X52392548Y101532538D02*
G01*
X52550115Y101467271D01*
X52691922Y101372519D01*
X52812519Y101251922D01*
X52907271Y101110115D01*
X52972538Y100952548D01*
X53005811Y100785275D01*
X53005811Y100614725D01*
X52972538Y100447452D01*
X52907271Y100289885D01*
X52812519Y100148078D01*
X52691922Y100027481D01*
X52550115Y99932729D01*
X52392548Y99867462D01*
X52225275Y99834189D01*
X52054725Y99834189D01*
X51887452Y99867462D01*
X51729885Y99932729D01*
X51588078Y100027481D01*
X51467481Y100148078D01*
X51372729Y100289885D01*
X51307462Y100447452D01*
X51274189Y100614725D01*
X51274189Y100785275D01*
X51307462Y100952548D01*
X51372729Y101110115D01*
X51467481Y101251922D01*
X51588078Y101372519D01*
X51729885Y101467271D01*
X51887452Y101532538D01*
X52054725Y101565811D01*
X52225275Y101565811D01*
X52392548Y101532538D01*
G37*
G36*
X54932548Y101532538D02*
G01*
X55090115Y101467271D01*
X55231922Y101372519D01*
X55352519Y101251922D01*
X55447271Y101110115D01*
X55512538Y100952548D01*
X55545811Y100785275D01*
X55545811Y100614725D01*
X55512538Y100447452D01*
X55447271Y100289885D01*
X55352519Y100148078D01*
X55231922Y100027481D01*
X55090115Y99932729D01*
X54932548Y99867462D01*
X54765275Y99834189D01*
X54594725Y99834189D01*
X54427452Y99867462D01*
X54269885Y99932729D01*
X54128078Y100027481D01*
X54007481Y100148078D01*
X53912729Y100289885D01*
X53847462Y100447452D01*
X53814189Y100614725D01*
X53814189Y100785275D01*
X53847462Y100952548D01*
X53912729Y101110115D01*
X54007481Y101251922D01*
X54128078Y101372519D01*
X54269885Y101467271D01*
X54427452Y101532538D01*
X54594725Y101565811D01*
X54765275Y101565811D01*
X54932548Y101532538D01*
G37*
G36*
X57472548Y101532538D02*
G01*
X57630115Y101467271D01*
X57771922Y101372519D01*
X57892519Y101251922D01*
X57987271Y101110115D01*
X58052538Y100952548D01*
X58085811Y100785275D01*
X58085811Y100614725D01*
X58052538Y100447452D01*
X57987271Y100289885D01*
X57892519Y100148078D01*
X57771922Y100027481D01*
X57630115Y99932729D01*
X57472548Y99867462D01*
X57305275Y99834189D01*
X57134725Y99834189D01*
X56967452Y99867462D01*
X56809885Y99932729D01*
X56668078Y100027481D01*
X56547481Y100148078D01*
X56452729Y100289885D01*
X56387462Y100447452D01*
X56354189Y100614725D01*
X56354189Y100785275D01*
X56387462Y100952548D01*
X56452729Y101110115D01*
X56547481Y101251922D01*
X56668078Y101372519D01*
X56809885Y101467271D01*
X56967452Y101532538D01*
X57134725Y101565811D01*
X57305275Y101565811D01*
X57472548Y101532538D01*
G37*
G36*
X60012548Y101532538D02*
G01*
X60170115Y101467271D01*
X60311922Y101372519D01*
X60432519Y101251922D01*
X60527271Y101110115D01*
X60592538Y100952548D01*
X60625811Y100785275D01*
X60625811Y100614725D01*
X60592538Y100447452D01*
X60527271Y100289885D01*
X60432519Y100148078D01*
X60311922Y100027481D01*
X60170115Y99932729D01*
X60012548Y99867462D01*
X59845275Y99834189D01*
X59674725Y99834189D01*
X59507452Y99867462D01*
X59349885Y99932729D01*
X59208078Y100027481D01*
X59087481Y100148078D01*
X58992729Y100289885D01*
X58927462Y100447452D01*
X58894189Y100614725D01*
X58894189Y100785275D01*
X58927462Y100952548D01*
X58992729Y101110115D01*
X59087481Y101251922D01*
X59208078Y101372519D01*
X59349885Y101467271D01*
X59507452Y101532538D01*
X59674725Y101565811D01*
X59845275Y101565811D01*
X60012548Y101532538D01*
G37*
G36*
X62552548Y101532538D02*
G01*
X62710115Y101467271D01*
X62851922Y101372519D01*
X62972519Y101251922D01*
X63067271Y101110115D01*
X63132538Y100952548D01*
X63165811Y100785275D01*
X63165811Y100614725D01*
X63132538Y100447452D01*
X63067271Y100289885D01*
X62972519Y100148078D01*
X62851922Y100027481D01*
X62710115Y99932729D01*
X62552548Y99867462D01*
X62385275Y99834189D01*
X62214725Y99834189D01*
X62047452Y99867462D01*
X61889885Y99932729D01*
X61748078Y100027481D01*
X61627481Y100148078D01*
X61532729Y100289885D01*
X61467462Y100447452D01*
X61434189Y100614725D01*
X61434189Y100785275D01*
X61467462Y100952548D01*
X61532729Y101110115D01*
X61627481Y101251922D01*
X61748078Y101372519D01*
X61889885Y101467271D01*
X62047452Y101532538D01*
X62214725Y101565811D01*
X62385275Y101565811D01*
X62552548Y101532538D01*
G37*
G36*
X65092548Y101532538D02*
G01*
X65250115Y101467271D01*
X65391922Y101372519D01*
X65512519Y101251922D01*
X65607271Y101110115D01*
X65672538Y100952548D01*
X65705811Y100785275D01*
X65705811Y100614725D01*
X65672538Y100447452D01*
X65607271Y100289885D01*
X65512519Y100148078D01*
X65391922Y100027481D01*
X65250115Y99932729D01*
X65092548Y99867462D01*
X64925275Y99834189D01*
X64754725Y99834189D01*
X64587452Y99867462D01*
X64429885Y99932729D01*
X64288078Y100027481D01*
X64167481Y100148078D01*
X64072729Y100289885D01*
X64007462Y100447452D01*
X63974189Y100614725D01*
X63974189Y100785275D01*
X64007462Y100952548D01*
X64072729Y101110115D01*
X64167481Y101251922D01*
X64288078Y101372519D01*
X64429885Y101467271D01*
X64587452Y101532538D01*
X64754725Y101565811D01*
X64925275Y101565811D01*
X65092548Y101532538D01*
G37*
G36*
X67632548Y101532538D02*
G01*
X67790115Y101467271D01*
X67931922Y101372519D01*
X68052519Y101251922D01*
X68147271Y101110115D01*
X68212538Y100952548D01*
X68245811Y100785275D01*
X68245811Y100614725D01*
X68212538Y100447452D01*
X68147271Y100289885D01*
X68052519Y100148078D01*
X67931922Y100027481D01*
X67790115Y99932729D01*
X67632548Y99867462D01*
X67465275Y99834189D01*
X67294725Y99834189D01*
X67127452Y99867462D01*
X66969885Y99932729D01*
X66828078Y100027481D01*
X66707481Y100148078D01*
X66612729Y100289885D01*
X66547462Y100447452D01*
X66514189Y100614725D01*
X66514189Y100785275D01*
X66547462Y100952548D01*
X66612729Y101110115D01*
X66707481Y101251922D01*
X66828078Y101372519D01*
X66969885Y101467271D01*
X67127452Y101532538D01*
X67294725Y101565811D01*
X67465275Y101565811D01*
X67632548Y101532538D01*
G37*
G36*
X70172548Y101532538D02*
G01*
X70330115Y101467271D01*
X70471922Y101372519D01*
X70592519Y101251922D01*
X70687271Y101110115D01*
X70752538Y100952548D01*
X70785811Y100785275D01*
X70785811Y100614725D01*
X70752538Y100447452D01*
X70687271Y100289885D01*
X70592519Y100148078D01*
X70471922Y100027481D01*
X70330115Y99932729D01*
X70172548Y99867462D01*
X70005275Y99834189D01*
X69834725Y99834189D01*
X69667452Y99867462D01*
X69509885Y99932729D01*
X69368078Y100027481D01*
X69247481Y100148078D01*
X69152729Y100289885D01*
X69087462Y100447452D01*
X69054189Y100614725D01*
X69054189Y100785275D01*
X69087462Y100952548D01*
X69152729Y101110115D01*
X69247481Y101251922D01*
X69368078Y101372519D01*
X69509885Y101467271D01*
X69667452Y101532538D01*
X69834725Y101565811D01*
X70005275Y101565811D01*
X70172548Y101532538D01*
G37*
G36*
X72712548Y101532538D02*
G01*
X72870115Y101467271D01*
X73011922Y101372519D01*
X73132519Y101251922D01*
X73227271Y101110115D01*
X73292538Y100952548D01*
X73325811Y100785275D01*
X73325811Y100614725D01*
X73292538Y100447452D01*
X73227271Y100289885D01*
X73132519Y100148078D01*
X73011922Y100027481D01*
X72870115Y99932729D01*
X72712548Y99867462D01*
X72545275Y99834189D01*
X72374725Y99834189D01*
X72207452Y99867462D01*
X72049885Y99932729D01*
X71908078Y100027481D01*
X71787481Y100148078D01*
X71692729Y100289885D01*
X71627462Y100447452D01*
X71594189Y100614725D01*
X71594189Y100785275D01*
X71627462Y100952548D01*
X71692729Y101110115D01*
X71787481Y101251922D01*
X71908078Y101372519D01*
X72049885Y101467271D01*
X72207452Y101532538D01*
X72374725Y101565811D01*
X72545275Y101565811D01*
X72712548Y101532538D01*
G37*
G36*
X18857654Y110868478D02*
G01*
X18864142Y110864142D01*
X18868478Y110857654D01*
X18870000Y110850000D01*
X18870000Y109150000D01*
X18868478Y109142346D01*
X18864142Y109135858D01*
X18857654Y109131522D01*
X18850000Y109130000D01*
X17150000Y109130000D01*
X17142346Y109131522D01*
X17135858Y109135858D01*
X17131522Y109142346D01*
X17130000Y109150000D01*
X17130000Y110850000D01*
X17131522Y110857654D01*
X17135858Y110864142D01*
X17142346Y110868478D01*
X17150000Y110870000D01*
X18850000Y110870000D01*
X18857654Y110868478D01*
G37*
G36*
X58857654Y110868478D02*
G01*
X58864142Y110864142D01*
X58868478Y110857654D01*
X58870000Y110850000D01*
X58870000Y109150000D01*
X58868478Y109142346D01*
X58864142Y109135858D01*
X58857654Y109131522D01*
X58850000Y109130000D01*
X57150000Y109130000D01*
X57142346Y109131522D01*
X57135858Y109135858D01*
X57131522Y109142346D01*
X57130000Y109150000D01*
X57130000Y110850000D01*
X57131522Y110857654D01*
X57135858Y110864142D01*
X57142346Y110868478D01*
X57150000Y110870000D01*
X58850000Y110870000D01*
X58857654Y110868478D01*
G37*
G36*
X20792548Y110832538D02*
G01*
X20950115Y110767271D01*
X21091922Y110672519D01*
X21212519Y110551922D01*
X21307271Y110410115D01*
X21372538Y110252548D01*
X21405811Y110085275D01*
X21405811Y109914725D01*
X21372538Y109747452D01*
X21307271Y109589885D01*
X21212519Y109448078D01*
X21091922Y109327481D01*
X20950115Y109232729D01*
X20792548Y109167462D01*
X20625275Y109134189D01*
X20454725Y109134189D01*
X20287452Y109167462D01*
X20129885Y109232729D01*
X19988078Y109327481D01*
X19867481Y109448078D01*
X19772729Y109589885D01*
X19707462Y109747452D01*
X19674189Y109914725D01*
X19674189Y110085275D01*
X19707462Y110252548D01*
X19772729Y110410115D01*
X19867481Y110551922D01*
X19988078Y110672519D01*
X20129885Y110767271D01*
X20287452Y110832538D01*
X20454725Y110865811D01*
X20625275Y110865811D01*
X20792548Y110832538D01*
G37*
G36*
X23332548Y110832538D02*
G01*
X23490115Y110767271D01*
X23631922Y110672519D01*
X23752519Y110551922D01*
X23847271Y110410115D01*
X23912538Y110252548D01*
X23945811Y110085275D01*
X23945811Y109914725D01*
X23912538Y109747452D01*
X23847271Y109589885D01*
X23752519Y109448078D01*
X23631922Y109327481D01*
X23490115Y109232729D01*
X23332548Y109167462D01*
X23165275Y109134189D01*
X22994725Y109134189D01*
X22827452Y109167462D01*
X22669885Y109232729D01*
X22528078Y109327481D01*
X22407481Y109448078D01*
X22312729Y109589885D01*
X22247462Y109747452D01*
X22214189Y109914725D01*
X22214189Y110085275D01*
X22247462Y110252548D01*
X22312729Y110410115D01*
X22407481Y110551922D01*
X22528078Y110672519D01*
X22669885Y110767271D01*
X22827452Y110832538D01*
X22994725Y110865811D01*
X23165275Y110865811D01*
X23332548Y110832538D01*
G37*
G36*
X25872548Y110832538D02*
G01*
X26030115Y110767271D01*
X26171922Y110672519D01*
X26292519Y110551922D01*
X26387271Y110410115D01*
X26452538Y110252548D01*
X26485811Y110085275D01*
X26485811Y109914725D01*
X26452538Y109747452D01*
X26387271Y109589885D01*
X26292519Y109448078D01*
X26171922Y109327481D01*
X26030115Y109232729D01*
X25872548Y109167462D01*
X25705275Y109134189D01*
X25534725Y109134189D01*
X25367452Y109167462D01*
X25209885Y109232729D01*
X25068078Y109327481D01*
X24947481Y109448078D01*
X24852729Y109589885D01*
X24787462Y109747452D01*
X24754189Y109914725D01*
X24754189Y110085275D01*
X24787462Y110252548D01*
X24852729Y110410115D01*
X24947481Y110551922D01*
X25068078Y110672519D01*
X25209885Y110767271D01*
X25367452Y110832538D01*
X25534725Y110865811D01*
X25705275Y110865811D01*
X25872548Y110832538D01*
G37*
G36*
X28412548Y110832538D02*
G01*
X28570115Y110767271D01*
X28711922Y110672519D01*
X28832519Y110551922D01*
X28927271Y110410115D01*
X28992538Y110252548D01*
X29025811Y110085275D01*
X29025811Y109914725D01*
X28992538Y109747452D01*
X28927271Y109589885D01*
X28832519Y109448078D01*
X28711922Y109327481D01*
X28570115Y109232729D01*
X28412548Y109167462D01*
X28245275Y109134189D01*
X28074725Y109134189D01*
X27907452Y109167462D01*
X27749885Y109232729D01*
X27608078Y109327481D01*
X27487481Y109448078D01*
X27392729Y109589885D01*
X27327462Y109747452D01*
X27294189Y109914725D01*
X27294189Y110085275D01*
X27327462Y110252548D01*
X27392729Y110410115D01*
X27487481Y110551922D01*
X27608078Y110672519D01*
X27749885Y110767271D01*
X27907452Y110832538D01*
X28074725Y110865811D01*
X28245275Y110865811D01*
X28412548Y110832538D01*
G37*
G36*
X30952548Y110832538D02*
G01*
X31110115Y110767271D01*
X31251922Y110672519D01*
X31372519Y110551922D01*
X31467271Y110410115D01*
X31532538Y110252548D01*
X31565811Y110085275D01*
X31565811Y109914725D01*
X31532538Y109747452D01*
X31467271Y109589885D01*
X31372519Y109448078D01*
X31251922Y109327481D01*
X31110115Y109232729D01*
X30952548Y109167462D01*
X30785275Y109134189D01*
X30614725Y109134189D01*
X30447452Y109167462D01*
X30289885Y109232729D01*
X30148078Y109327481D01*
X30027481Y109448078D01*
X29932729Y109589885D01*
X29867462Y109747452D01*
X29834189Y109914725D01*
X29834189Y110085275D01*
X29867462Y110252548D01*
X29932729Y110410115D01*
X30027481Y110551922D01*
X30148078Y110672519D01*
X30289885Y110767271D01*
X30447452Y110832538D01*
X30614725Y110865811D01*
X30785275Y110865811D01*
X30952548Y110832538D01*
G37*
G36*
X33492548Y110832538D02*
G01*
X33650115Y110767271D01*
X33791922Y110672519D01*
X33912519Y110551922D01*
X34007271Y110410115D01*
X34072538Y110252548D01*
X34105811Y110085275D01*
X34105811Y109914725D01*
X34072538Y109747452D01*
X34007271Y109589885D01*
X33912519Y109448078D01*
X33791922Y109327481D01*
X33650115Y109232729D01*
X33492548Y109167462D01*
X33325275Y109134189D01*
X33154725Y109134189D01*
X32987452Y109167462D01*
X32829885Y109232729D01*
X32688078Y109327481D01*
X32567481Y109448078D01*
X32472729Y109589885D01*
X32407462Y109747452D01*
X32374189Y109914725D01*
X32374189Y110085275D01*
X32407462Y110252548D01*
X32472729Y110410115D01*
X32567481Y110551922D01*
X32688078Y110672519D01*
X32829885Y110767271D01*
X32987452Y110832538D01*
X33154725Y110865811D01*
X33325275Y110865811D01*
X33492548Y110832538D01*
G37*
G36*
X36032548Y110832538D02*
G01*
X36190115Y110767271D01*
X36331922Y110672519D01*
X36452519Y110551922D01*
X36547271Y110410115D01*
X36612538Y110252548D01*
X36645811Y110085275D01*
X36645811Y109914725D01*
X36612538Y109747452D01*
X36547271Y109589885D01*
X36452519Y109448078D01*
X36331922Y109327481D01*
X36190115Y109232729D01*
X36032548Y109167462D01*
X35865275Y109134189D01*
X35694725Y109134189D01*
X35527452Y109167462D01*
X35369885Y109232729D01*
X35228078Y109327481D01*
X35107481Y109448078D01*
X35012729Y109589885D01*
X34947462Y109747452D01*
X34914189Y109914725D01*
X34914189Y110085275D01*
X34947462Y110252548D01*
X35012729Y110410115D01*
X35107481Y110551922D01*
X35228078Y110672519D01*
X35369885Y110767271D01*
X35527452Y110832538D01*
X35694725Y110865811D01*
X35865275Y110865811D01*
X36032548Y110832538D01*
G37*
G36*
X38572548Y110832538D02*
G01*
X38730115Y110767271D01*
X38871922Y110672519D01*
X38992519Y110551922D01*
X39087271Y110410115D01*
X39152538Y110252548D01*
X39185811Y110085275D01*
X39185811Y109914725D01*
X39152538Y109747452D01*
X39087271Y109589885D01*
X38992519Y109448078D01*
X38871922Y109327481D01*
X38730115Y109232729D01*
X38572548Y109167462D01*
X38405275Y109134189D01*
X38234725Y109134189D01*
X38067452Y109167462D01*
X37909885Y109232729D01*
X37768078Y109327481D01*
X37647481Y109448078D01*
X37552729Y109589885D01*
X37487462Y109747452D01*
X37454189Y109914725D01*
X37454189Y110085275D01*
X37487462Y110252548D01*
X37552729Y110410115D01*
X37647481Y110551922D01*
X37768078Y110672519D01*
X37909885Y110767271D01*
X38067452Y110832538D01*
X38234725Y110865811D01*
X38405275Y110865811D01*
X38572548Y110832538D01*
G37*
G36*
X41112548Y110832538D02*
G01*
X41270115Y110767271D01*
X41411922Y110672519D01*
X41532519Y110551922D01*
X41627271Y110410115D01*
X41692538Y110252548D01*
X41725811Y110085275D01*
X41725811Y109914725D01*
X41692538Y109747452D01*
X41627271Y109589885D01*
X41532519Y109448078D01*
X41411922Y109327481D01*
X41270115Y109232729D01*
X41112548Y109167462D01*
X40945275Y109134189D01*
X40774725Y109134189D01*
X40607452Y109167462D01*
X40449885Y109232729D01*
X40308078Y109327481D01*
X40187481Y109448078D01*
X40092729Y109589885D01*
X40027462Y109747452D01*
X39994189Y109914725D01*
X39994189Y110085275D01*
X40027462Y110252548D01*
X40092729Y110410115D01*
X40187481Y110551922D01*
X40308078Y110672519D01*
X40449885Y110767271D01*
X40607452Y110832538D01*
X40774725Y110865811D01*
X40945275Y110865811D01*
X41112548Y110832538D01*
G37*
G36*
X43652548Y110832538D02*
G01*
X43810115Y110767271D01*
X43951922Y110672519D01*
X44072519Y110551922D01*
X44167271Y110410115D01*
X44232538Y110252548D01*
X44265811Y110085275D01*
X44265811Y109914725D01*
X44232538Y109747452D01*
X44167271Y109589885D01*
X44072519Y109448078D01*
X43951922Y109327481D01*
X43810115Y109232729D01*
X43652548Y109167462D01*
X43485275Y109134189D01*
X43314725Y109134189D01*
X43147452Y109167462D01*
X42989885Y109232729D01*
X42848078Y109327481D01*
X42727481Y109448078D01*
X42632729Y109589885D01*
X42567462Y109747452D01*
X42534189Y109914725D01*
X42534189Y110085275D01*
X42567462Y110252548D01*
X42632729Y110410115D01*
X42727481Y110551922D01*
X42848078Y110672519D01*
X42989885Y110767271D01*
X43147452Y110832538D01*
X43314725Y110865811D01*
X43485275Y110865811D01*
X43652548Y110832538D01*
G37*
G36*
X46192548Y110832538D02*
G01*
X46350115Y110767271D01*
X46491922Y110672519D01*
X46612519Y110551922D01*
X46707271Y110410115D01*
X46772538Y110252548D01*
X46805811Y110085275D01*
X46805811Y109914725D01*
X46772538Y109747452D01*
X46707271Y109589885D01*
X46612519Y109448078D01*
X46491922Y109327481D01*
X46350115Y109232729D01*
X46192548Y109167462D01*
X46025275Y109134189D01*
X45854725Y109134189D01*
X45687452Y109167462D01*
X45529885Y109232729D01*
X45388078Y109327481D01*
X45267481Y109448078D01*
X45172729Y109589885D01*
X45107462Y109747452D01*
X45074189Y109914725D01*
X45074189Y110085275D01*
X45107462Y110252548D01*
X45172729Y110410115D01*
X45267481Y110551922D01*
X45388078Y110672519D01*
X45529885Y110767271D01*
X45687452Y110832538D01*
X45854725Y110865811D01*
X46025275Y110865811D01*
X46192548Y110832538D01*
G37*
G36*
X48732548Y110832538D02*
G01*
X48890115Y110767271D01*
X49031922Y110672519D01*
X49152519Y110551922D01*
X49247271Y110410115D01*
X49312538Y110252548D01*
X49345811Y110085275D01*
X49345811Y109914725D01*
X49312538Y109747452D01*
X49247271Y109589885D01*
X49152519Y109448078D01*
X49031922Y109327481D01*
X48890115Y109232729D01*
X48732548Y109167462D01*
X48565275Y109134189D01*
X48394725Y109134189D01*
X48227452Y109167462D01*
X48069885Y109232729D01*
X47928078Y109327481D01*
X47807481Y109448078D01*
X47712729Y109589885D01*
X47647462Y109747452D01*
X47614189Y109914725D01*
X47614189Y110085275D01*
X47647462Y110252548D01*
X47712729Y110410115D01*
X47807481Y110551922D01*
X47928078Y110672519D01*
X48069885Y110767271D01*
X48227452Y110832538D01*
X48394725Y110865811D01*
X48565275Y110865811D01*
X48732548Y110832538D01*
G37*
G36*
X51272548Y110832538D02*
G01*
X51430115Y110767271D01*
X51571922Y110672519D01*
X51692519Y110551922D01*
X51787271Y110410115D01*
X51852538Y110252548D01*
X51885811Y110085275D01*
X51885811Y109914725D01*
X51852538Y109747452D01*
X51787271Y109589885D01*
X51692519Y109448078D01*
X51571922Y109327481D01*
X51430115Y109232729D01*
X51272548Y109167462D01*
X51105275Y109134189D01*
X50934725Y109134189D01*
X50767452Y109167462D01*
X50609885Y109232729D01*
X50468078Y109327481D01*
X50347481Y109448078D01*
X50252729Y109589885D01*
X50187462Y109747452D01*
X50154189Y109914725D01*
X50154189Y110085275D01*
X50187462Y110252548D01*
X50252729Y110410115D01*
X50347481Y110551922D01*
X50468078Y110672519D01*
X50609885Y110767271D01*
X50767452Y110832538D01*
X50934725Y110865811D01*
X51105275Y110865811D01*
X51272548Y110832538D01*
G37*
G36*
X60792548Y110832538D02*
G01*
X60950115Y110767271D01*
X61091922Y110672519D01*
X61212519Y110551922D01*
X61307271Y110410115D01*
X61372538Y110252548D01*
X61405811Y110085275D01*
X61405811Y109914725D01*
X61372538Y109747452D01*
X61307271Y109589885D01*
X61212519Y109448078D01*
X61091922Y109327481D01*
X60950115Y109232729D01*
X60792548Y109167462D01*
X60625275Y109134189D01*
X60454725Y109134189D01*
X60287452Y109167462D01*
X60129885Y109232729D01*
X59988078Y109327481D01*
X59867481Y109448078D01*
X59772729Y109589885D01*
X59707462Y109747452D01*
X59674189Y109914725D01*
X59674189Y110085275D01*
X59707462Y110252548D01*
X59772729Y110410115D01*
X59867481Y110551922D01*
X59988078Y110672519D01*
X60129885Y110767271D01*
X60287452Y110832538D01*
X60454725Y110865811D01*
X60625275Y110865811D01*
X60792548Y110832538D01*
G37*
G36*
X63332548Y110832538D02*
G01*
X63490115Y110767271D01*
X63631922Y110672519D01*
X63752519Y110551922D01*
X63847271Y110410115D01*
X63912538Y110252548D01*
X63945811Y110085275D01*
X63945811Y109914725D01*
X63912538Y109747452D01*
X63847271Y109589885D01*
X63752519Y109448078D01*
X63631922Y109327481D01*
X63490115Y109232729D01*
X63332548Y109167462D01*
X63165275Y109134189D01*
X62994725Y109134189D01*
X62827452Y109167462D01*
X62669885Y109232729D01*
X62528078Y109327481D01*
X62407481Y109448078D01*
X62312729Y109589885D01*
X62247462Y109747452D01*
X62214189Y109914725D01*
X62214189Y110085275D01*
X62247462Y110252548D01*
X62312729Y110410115D01*
X62407481Y110551922D01*
X62528078Y110672519D01*
X62669885Y110767271D01*
X62827452Y110832538D01*
X62994725Y110865811D01*
X63165275Y110865811D01*
X63332548Y110832538D01*
G37*
G36*
X65872548Y110832538D02*
G01*
X66030115Y110767271D01*
X66171922Y110672519D01*
X66292519Y110551922D01*
X66387271Y110410115D01*
X66452538Y110252548D01*
X66485811Y110085275D01*
X66485811Y109914725D01*
X66452538Y109747452D01*
X66387271Y109589885D01*
X66292519Y109448078D01*
X66171922Y109327481D01*
X66030115Y109232729D01*
X65872548Y109167462D01*
X65705275Y109134189D01*
X65534725Y109134189D01*
X65367452Y109167462D01*
X65209885Y109232729D01*
X65068078Y109327481D01*
X64947481Y109448078D01*
X64852729Y109589885D01*
X64787462Y109747452D01*
X64754189Y109914725D01*
X64754189Y110085275D01*
X64787462Y110252548D01*
X64852729Y110410115D01*
X64947481Y110551922D01*
X65068078Y110672519D01*
X65209885Y110767271D01*
X65367452Y110832538D01*
X65534725Y110865811D01*
X65705275Y110865811D01*
X65872548Y110832538D01*
G37*
G36*
X68412548Y110832538D02*
G01*
X68570115Y110767271D01*
X68711922Y110672519D01*
X68832519Y110551922D01*
X68927271Y110410115D01*
X68992538Y110252548D01*
X69025811Y110085275D01*
X69025811Y109914725D01*
X68992538Y109747452D01*
X68927271Y109589885D01*
X68832519Y109448078D01*
X68711922Y109327481D01*
X68570115Y109232729D01*
X68412548Y109167462D01*
X68245275Y109134189D01*
X68074725Y109134189D01*
X67907452Y109167462D01*
X67749885Y109232729D01*
X67608078Y109327481D01*
X67487481Y109448078D01*
X67392729Y109589885D01*
X67327462Y109747452D01*
X67294189Y109914725D01*
X67294189Y110085275D01*
X67327462Y110252548D01*
X67392729Y110410115D01*
X67487481Y110551922D01*
X67608078Y110672519D01*
X67749885Y110767271D01*
X67907452Y110832538D01*
X68074725Y110865811D01*
X68245275Y110865811D01*
X68412548Y110832538D01*
G37*
G36*
X70952548Y110832538D02*
G01*
X71110115Y110767271D01*
X71251922Y110672519D01*
X71372519Y110551922D01*
X71467271Y110410115D01*
X71532538Y110252548D01*
X71565811Y110085275D01*
X71565811Y109914725D01*
X71532538Y109747452D01*
X71467271Y109589885D01*
X71372519Y109448078D01*
X71251922Y109327481D01*
X71110115Y109232729D01*
X70952548Y109167462D01*
X70785275Y109134189D01*
X70614725Y109134189D01*
X70447452Y109167462D01*
X70289885Y109232729D01*
X70148078Y109327481D01*
X70027481Y109448078D01*
X69932729Y109589885D01*
X69867462Y109747452D01*
X69834189Y109914725D01*
X69834189Y110085275D01*
X69867462Y110252548D01*
X69932729Y110410115D01*
X70027481Y110551922D01*
X70148078Y110672519D01*
X70289885Y110767271D01*
X70447452Y110832538D01*
X70614725Y110865811D01*
X70785275Y110865811D01*
X70952548Y110832538D01*
G37*
G36*
X5354837Y113478002D02*
G01*
X5581679Y113404297D01*
X5794198Y113296013D01*
X5987161Y113155817D01*
X6155817Y112987161D01*
X6296013Y112794198D01*
X6404297Y112581679D01*
X6478002Y112354837D01*
X6515314Y112119258D01*
X6515314Y111880742D01*
X6478002Y111645163D01*
X6404297Y111418321D01*
X6296013Y111205802D01*
X6155817Y111012839D01*
X5987161Y110844183D01*
X5794198Y110703987D01*
X5581679Y110595703D01*
X5354837Y110521998D01*
X5119258Y110484686D01*
X4880742Y110484686D01*
X4645163Y110521998D01*
X4418321Y110595703D01*
X4205802Y110703987D01*
X4012839Y110844183D01*
X3844183Y111012839D01*
X3703987Y111205802D01*
X3595703Y111418321D01*
X3521998Y111645163D01*
X3484686Y111880742D01*
X3484686Y112119258D01*
X3521998Y112354837D01*
X3595703Y112581679D01*
X3703987Y112794198D01*
X3844183Y112987161D01*
X4012839Y113155817D01*
X4205802Y113296013D01*
X4418321Y113404297D01*
X4645163Y113478002D01*
X4880742Y113515314D01*
X5119258Y113515314D01*
X5354837Y113478002D01*
G37*
G36*
X89854837Y113478002D02*
G01*
X90081679Y113404297D01*
X90294198Y113296013D01*
X90487161Y113155817D01*
X90655817Y112987161D01*
X90796013Y112794198D01*
X90904297Y112581679D01*
X90978002Y112354837D01*
X91015314Y112119258D01*
X91015314Y111880742D01*
X90978002Y111645163D01*
X90904297Y111418321D01*
X90796013Y111205802D01*
X90655817Y111012839D01*
X90487161Y110844183D01*
X90294198Y110703987D01*
X90081679Y110595703D01*
X89854837Y110521998D01*
X89619258Y110484686D01*
X89380742Y110484686D01*
X89145163Y110521998D01*
X88918321Y110595703D01*
X88705802Y110703987D01*
X88512839Y110844183D01*
X88344183Y111012839D01*
X88203987Y111205802D01*
X88095703Y111418321D01*
X88021998Y111645163D01*
X87984686Y111880742D01*
X87984686Y112119258D01*
X88021998Y112354837D01*
X88095703Y112581679D01*
X88203987Y112794198D01*
X88344183Y112987161D01*
X88512839Y113155817D01*
X88705802Y113296013D01*
X88918321Y113404297D01*
X89145163Y113478002D01*
X89380742Y113515314D01*
X89619258Y113515314D01*
X89854837Y113478002D01*
G37*
M02*
