%TF.GenerationSoftware,KiCad,Pcbnew,10.0.6*%
%TF.CreationDate,2026-10-09T10:24:37+08:00*%
%TF.ProjectId,minibox-carrier,6d696e69-626f-4782-9d63-617272696572,rev?*%
%TF.SameCoordinates,Original*%
%TF.FileFunction,Copper,L4,Bot*%
%TF.FilePolarity,Positive*%
%FSLAX46Y46*%
G04 Gerber Fmt 4.6, Leading zero omitted, Abs format (unit mm)*
G04 Created by KiCad (PCBNEW 10.0.6) date 2026-10-09 10:24:37*
%MOMM*%
%LPD*%
G01*
G04 APERTURE LIST*
G04 Aperture macros list*
%AMRoundRect*
0 Rectangle with rounded corners*
0 $1 Rounding radius*
0 $2 $3 $4 $5 $6 $7 $8 $9 X,Y pos of 4 corners*
0 Add a 4 corners polygon primitive as box body*
4,1,4,$2,$3,$4,$5,$6,$7,$8,$9,$2,$3,0*
0 Add four circle primitives for the rounded corners*
1,1,$1+$1,$2,$3*
1,1,$1+$1,$4,$5*
1,1,$1+$1,$6,$7*
1,1,$1+$1,$8,$9*
0 Add four rect primitives between the rounded corners*
20,1,$1+$1,$2,$3,$4,$5,0*
20,1,$1+$1,$4,$5,$6,$7,0*
20,1,$1+$1,$6,$7,$8,$9,0*
20,1,$1+$1,$8,$9,$2,$3,0*%
G04 Aperture macros list end*
%TA.AperFunction,ComponentPad*%
%ADD10R,1.700000X1.700000*%
%TD*%
%TA.AperFunction,ComponentPad*%
%ADD11C,1.700000*%
%TD*%
%TA.AperFunction,ComponentPad*%
%ADD12C,2.100000*%
%TD*%
%TA.AperFunction,ComponentPad*%
%ADD13RoundRect,0.250000X-1.050000X1.050000X-1.050000X-1.050000X1.050000X-1.050000X1.050000X1.050000X0*%
%TD*%
%TA.AperFunction,ComponentPad*%
%ADD14C,2.600000*%
%TD*%
%TA.AperFunction,ComponentPad*%
%ADD15RoundRect,0.250000X1.050000X-1.050000X1.050000X1.050000X-1.050000X1.050000X-1.050000X-1.050000X0*%
%TD*%
%TA.AperFunction,ComponentPad*%
%ADD16C,1.900000*%
%TD*%
%TA.AperFunction,ViaPad*%
%ADD17C,0.600000*%
%TD*%
%TA.AperFunction,Conductor*%
%ADD18C,0.200000*%
%TD*%
G04 APERTURE END LIST*
D10*
%TO.P,J2,1*%
%TO.N,GND*%
X75000000Y75300000D03*
D11*
%TO.P,J2,2*%
%TO.N,N/C*%
X72460000Y75300000D03*
%TO.P,J2,3*%
X69920000Y75300000D03*
%TO.P,J2,4*%
%TO.N,GPIO1*%
X67380000Y75300000D03*
%TO.P,J2,5*%
%TO.N,GPIO2*%
X64840000Y75300000D03*
%TO.P,J2,6*%
%TO.N,N/C*%
X62300000Y75300000D03*
%TO.P,J2,7*%
%TO.N,AUDIO_DIN*%
X59760000Y75300000D03*
%TO.P,J2,8*%
%TO.N,I2S_BCLK*%
X57220000Y75300000D03*
%TO.P,J2,9*%
%TO.N,I2S_WS*%
X54680000Y75300000D03*
%TO.P,J2,10*%
%TO.N,N/C*%
X52140000Y75300000D03*
%TO.P,J2,11*%
X49600000Y75300000D03*
%TO.P,J2,12*%
X47060000Y75300000D03*
%TO.P,J2,13*%
X44520000Y75300000D03*
%TO.P,J2,14*%
X41980000Y75300000D03*
%TO.P,J2,15*%
X39440000Y75300000D03*
%TO.P,J2,16*%
X36900000Y75300000D03*
%TO.P,J2,17*%
%TO.N,AMP_SD*%
X34360000Y75300000D03*
%TO.P,J2,18*%
%TO.N,AMP_GAIN*%
X31820000Y75300000D03*
%TO.P,J2,19*%
%TO.N,N/C*%
X29280000Y75300000D03*
%TO.P,J2,20*%
X26740000Y75300000D03*
%TO.P,J2,21*%
%TO.N,GND*%
X24200000Y75300000D03*
%TO.P,J2,22*%
X21660000Y75300000D03*
%TD*%
D12*
%TO.P,SW3,1*%
%TO.N,BUTTON3*%
X50915000Y13990000D03*
%TO.P,SW3,2*%
%TO.N,GND*%
X57265000Y16530000D03*
%TD*%
D13*
%TO.P,J8,1*%
%TO.N,5V_IN*%
X9000000Y66500000D03*
D14*
%TO.P,J8,2*%
%TO.N,GND*%
X9000000Y61420000D03*
%TD*%
D15*
%TO.P,J7,1*%
%TO.N,5V_IN*%
X83000000Y55000000D03*
D14*
%TO.P,J7,2*%
%TO.N,5V_SW*%
X83000000Y60080000D03*
%TO.P,J7,3*%
%TO.N,GND*%
X83000000Y65160000D03*
%TD*%
D10*
%TO.P,J4,1*%
%TO.N,I2S_WS*%
X35000000Y68000000D03*
D11*
%TO.P,J4,2*%
%TO.N,I2S_BCLK*%
X35000000Y65460000D03*
%TO.P,J4,3*%
%TO.N,AUDIO_DIN*%
X35000000Y62920000D03*
%TO.P,J4,4*%
%TO.N,AMP_GAIN*%
X35000000Y60380000D03*
%TO.P,J4,5*%
%TO.N,AMP_SD*%
X35000000Y57840000D03*
%TO.P,J4,6*%
%TO.N,GND*%
X35000000Y55300000D03*
%TO.P,J4,7*%
%TO.N,5V_SW*%
X35000000Y52760000D03*
%TD*%
D12*
%TO.P,SW1,1*%
%TO.N,BUTTON1*%
X60440000Y33040000D03*
%TO.P,SW1,2*%
%TO.N,GND*%
X66790000Y35580000D03*
%TD*%
D10*
%TO.P,J1,1*%
%TO.N,3V3*%
X75000000Y100700000D03*
D11*
%TO.P,J1,2*%
X72460000Y100700000D03*
%TO.P,J1,3*%
%TO.N,N/C*%
X69920000Y100700000D03*
%TO.P,J1,4*%
%TO.N,BUTTON1*%
X67380000Y100700000D03*
%TO.P,J1,5*%
%TO.N,RECORD*%
X64840000Y100700000D03*
%TO.P,J1,6*%
%TO.N,BUTTON3*%
X62300000Y100700000D03*
%TO.P,J1,7*%
%TO.N,BUTTON4*%
X59760000Y100700000D03*
%TO.P,J1,8*%
%TO.N,RTC_SDA*%
X57220000Y100700000D03*
%TO.P,J1,9*%
%TO.N,RTC_SCL*%
X54680000Y100700000D03*
%TO.P,J1,10*%
%TO.N,MIC_SD*%
X52140000Y100700000D03*
%TO.P,J1,11*%
%TO.N,N/C*%
X49600000Y100700000D03*
%TO.P,J1,12*%
X47060000Y100700000D03*
%TO.P,J1,13*%
X44520000Y100700000D03*
%TO.P,J1,14*%
X41980000Y100700000D03*
%TO.P,J1,15*%
%TO.N,LCD_BL*%
X39440000Y100700000D03*
%TO.P,J1,16*%
%TO.N,LCD_SCK*%
X36900000Y100700000D03*
%TO.P,J1,17*%
%TO.N,LCD_MOSI*%
X34360000Y100700000D03*
%TO.P,J1,18*%
%TO.N,LCD_DC*%
X31820000Y100700000D03*
%TO.P,J1,19*%
%TO.N,LCD_RST*%
X29280000Y100700000D03*
%TO.P,J1,20*%
%TO.N,LCD_CS*%
X26740000Y100700000D03*
%TO.P,J1,21*%
%TO.N,5V_SW*%
X24200000Y100700000D03*
%TO.P,J1,22*%
%TO.N,GND*%
X21660000Y100700000D03*
%TD*%
D13*
%TO.P,J9,1*%
%TO.N,USB_CC1*%
X9000000Y54000000D03*
D14*
%TO.P,J9,2*%
%TO.N,USB_CC2*%
X9000000Y48920000D03*
%TD*%
D10*
%TO.P,J5,1*%
%TO.N,N/C*%
X58000000Y110000000D03*
D11*
%TO.P,J5,2*%
X60540000Y110000000D03*
%TO.P,J5,3*%
%TO.N,RTC_SDA*%
X63080000Y110000000D03*
%TO.P,J5,4*%
%TO.N,RTC_SCL*%
X65620000Y110000000D03*
%TO.P,J5,5*%
%TO.N,3V3*%
X68160000Y110000000D03*
%TO.P,J5,6*%
%TO.N,GND*%
X70700000Y110000000D03*
%TD*%
D10*
%TO.P,J6,1*%
%TO.N,3V3*%
X18000000Y110000000D03*
D11*
%TO.P,J6,2*%
%TO.N,GND*%
X20540000Y110000000D03*
%TO.P,J6,3*%
%TO.N,LCD_CS*%
X23080000Y110000000D03*
%TO.P,J6,4*%
%TO.N,LCD_RST*%
X25620000Y110000000D03*
%TO.P,J6,5*%
%TO.N,LCD_DC*%
X28160000Y110000000D03*
%TO.P,J6,6*%
%TO.N,LCD_MOSI*%
X30700000Y110000000D03*
%TO.P,J6,7*%
%TO.N,LCD_SCK*%
X33240000Y110000000D03*
%TO.P,J6,8*%
%TO.N,LCD_BL*%
X35780000Y110000000D03*
%TO.P,J6,9*%
%TO.N,N/C*%
X38320000Y110000000D03*
%TO.P,J6,10*%
X40860000Y110000000D03*
%TO.P,J6,11*%
X43400000Y110000000D03*
%TO.P,J6,12*%
X45940000Y110000000D03*
%TO.P,J6,13*%
X48480000Y110000000D03*
%TO.P,J6,14*%
X51020000Y110000000D03*
%TD*%
D12*
%TO.P,SW4,1*%
%TO.N,BUTTON4*%
X69965000Y13990000D03*
%TO.P,SW4,2*%
%TO.N,GND*%
X76315000Y16530000D03*
%TD*%
D10*
%TO.P,J3,1*%
%TO.N,3V3*%
X47310000Y34790000D03*
D11*
%TO.P,J3,2*%
%TO.N,GND*%
X39690000Y34790000D03*
%TO.P,J3,3*%
%TO.N,I2S_BCLK*%
X47310000Y32250000D03*
%TO.P,J3,4*%
%TO.N,I2S_WS*%
X39690000Y32250000D03*
%TO.P,J3,5*%
%TO.N,MIC_SD*%
X47310000Y29710000D03*
%TO.P,J3,6*%
%TO.N,GND*%
X39690000Y29710000D03*
%TD*%
D12*
%TO.P,SW2,1*%
%TO.N,RECORD*%
X79490000Y33040000D03*
%TO.P,SW2,2*%
%TO.N,GND*%
X85840000Y35580000D03*
%TD*%
%TO.P,JS1,M1*%
%TO.N,N/C*%
X23325000Y32000000D03*
%TO.P,JS1,M2*%
X23325000Y22000000D03*
%TO.P,JS1,M3*%
X10675000Y32000000D03*
%TO.P,JS1,M4*%
X10675000Y22000000D03*
D16*
%TO.P,JS1,SWA*%
X20250000Y37250000D03*
%TO.P,JS1,SWB*%
X20250000Y32750000D03*
%TO.P,JS1,SWC*%
X13750000Y37250000D03*
%TO.P,JS1,SWD*%
X13750000Y32750000D03*
D11*
%TO.P,JS1,X1*%
%TO.N,GND*%
X8270000Y29500000D03*
%TO.P,JS1,X2*%
%TO.N,GPIO1*%
X8270000Y27000000D03*
%TO.P,JS1,X3*%
%TO.N,3V3*%
X8270000Y24500000D03*
%TO.P,JS1,Y1*%
%TO.N,GND*%
X14500000Y18270000D03*
%TO.P,JS1,Y2*%
%TO.N,GPIO2*%
X17000000Y18270000D03*
%TO.P,JS1,Y3*%
%TO.N,3V3*%
X19500000Y18270000D03*
%TD*%
D17*
%TO.N,GND*%
X39250000Y69000000D03*
X55000000Y34500000D03*
X45000000Y42500000D03*
X40500000Y42500000D03*
X62000000Y59000000D03*
X45000000Y59000000D03*
X45000000Y50750000D03*
X58000000Y49000000D03*
X57750000Y99000000D03*
X48000000Y65500000D03*
X56250000Y63250000D03*
X37500000Y53750000D03*
X19000000Y64750000D03*
X42500000Y32000000D03*
X40500000Y50750000D03*
X45250000Y68000000D03*
X58250000Y30000000D03*
X42000000Y59000000D03*
X73250000Y62000000D03*
X72000000Y98250000D03*
X72000000Y67500000D03*
X56500000Y86750000D03*
X68750000Y73250000D03*
X48500000Y61000000D03*
X62500000Y82750000D03*
X64250000Y72000000D03*
X48500000Y72000000D03*
%TO.N,GPIO2*%
X59000000Y29500000D03*
X64750000Y72750000D03*
%TO.N,I2S_BCLK*%
X45750000Y67250000D03*
%TO.N,I2S_WS*%
X40000000Y68500000D03*
%TO.N,BUTTON3*%
X58500000Y99500000D03*
%TO.N,5V_SW*%
X48500000Y60000000D03*
X20000000Y64750000D03*
X36500000Y53750000D03*
X62000000Y60000000D03*
%TO.N,BUTTON1*%
X72500000Y99000000D03*
X73750000Y62750000D03*
%TO.N,3V3*%
X57250000Y63250000D03*
X69750000Y73250000D03*
X43500000Y32000000D03*
X69750000Y69000000D03*
%TD*%
%TO.N,GPIO2*%
D18*
X63312500Y72750000D02*
X59000000Y68437500D01*
X59000000Y29500000D02*
X59000000Y68437500D01*
X63312500Y72750000D02*
X64750000Y72750000D01*
%TO.N,I2S_BCLK*%
X45750000Y34125000D02*
X46625000Y33250000D01*
X46781250Y33250000D02*
X46625000Y33250000D01*
X46781250Y33250000D02*
X47250000Y32781250D01*
X47310000Y32250000D02*
X47295000Y32250000D01*
X47250000Y32295000D02*
X47250000Y32781250D01*
X47250000Y32295000D02*
X47295000Y32250000D01*
X45750000Y34125000D02*
X45750000Y67250000D01*
%TO.N,I2S_WS*%
X40218750Y33250000D02*
X40375000Y33250000D01*
X40218750Y33250000D02*
X39750000Y32781250D01*
X39690000Y32250000D02*
X39705000Y32250000D01*
X41250000Y34125000D02*
X41250000Y67562500D01*
X39750000Y32295000D02*
X39750000Y32781250D01*
X39750000Y32295000D02*
X39705000Y32250000D01*
X40312500Y68500000D02*
X41250000Y67562500D01*
X41250000Y34125000D02*
X40375000Y33250000D01*
X40312500Y68500000D02*
X40000000Y68500000D01*
%TO.N,AMP_GAIN*%
X34910000Y60500000D02*
X35000000Y60410000D01*
X31750000Y75250000D02*
X31820000Y75300000D01*
X34910000Y60500000D02*
X34187500Y60500000D01*
X31750000Y62937500D02*
X34187500Y60500000D01*
X35000000Y60380000D02*
X35000000Y60410000D01*
X31750000Y62937500D02*
X31750000Y75250000D01*
%TO.N,BUTTON3*%
X58500000Y74375000D02*
X58500000Y99500000D01*
X58500000Y74375000D02*
X58125000Y74000000D01*
X51000000Y14000000D02*
X51000000Y68656250D01*
X56343750Y74000000D02*
X58125000Y74000000D01*
X56343750Y74000000D02*
X51000000Y68656250D01*
X50915000Y13990000D02*
X51000000Y14000000D01*
%TO.N,BUTTON1*%
X73750000Y62750000D02*
X73750000Y98062500D01*
X72812500Y99000000D02*
X73750000Y98062500D01*
X72812500Y99000000D02*
X72500000Y99000000D01*
%TO.N,RECORD*%
X79490000Y33040000D02*
X79500000Y33000000D01*
X79500000Y33000000D02*
X77437500Y33000000D01*
X64750000Y100750000D02*
X64840000Y100700000D01*
X67078125Y99500000D02*
X71250000Y95328125D01*
X71250000Y39187500D02*
X77437500Y33000000D01*
X67078125Y99500000D02*
X65687500Y99500000D01*
X64750000Y100437500D02*
X65687500Y99500000D01*
X64750000Y100437500D02*
X64750000Y100750000D01*
X71250000Y39187500D02*
X71250000Y95328125D01*
%TO.N,BUTTON4*%
X60062500Y100750000D02*
X61000000Y99812500D01*
X64390625Y74000000D02*
X68250000Y70140625D01*
X61000000Y74437500D02*
X61437500Y74000000D01*
X60062500Y100750000D02*
X59750000Y100750000D01*
X68250000Y15312500D02*
X69562500Y14000000D01*
X59750000Y100750000D02*
X59760000Y100700000D01*
X69965000Y13990000D02*
X70000000Y14000000D01*
X70000000Y14000000D02*
X69562500Y14000000D01*
X64390625Y74000000D02*
X61437500Y74000000D01*
X61000000Y74437500D02*
X61000000Y99812500D01*
X68250000Y15312500D02*
X68250000Y70140625D01*
%TO.N,RTC_SCL*%
X58500000Y102000000D02*
X55687500Y102000000D01*
X54750000Y100750000D02*
X54680000Y100700000D01*
X54750000Y101062500D02*
X54750000Y100750000D01*
X65500000Y110000000D02*
X65250000Y110000000D01*
X54750000Y101062500D02*
X55687500Y102000000D01*
X64500000Y109250000D02*
X64500000Y108000000D01*
X58500000Y102000000D02*
X64500000Y108000000D01*
X64500000Y109250000D02*
X65250000Y110000000D01*
X65620000Y110000000D02*
X65500000Y110000000D01*
%TO.N,LCD_SCK*%
X35359375Y102000000D02*
X36062500Y102000000D01*
X33250000Y109992500D02*
X33242500Y110000000D01*
X37000000Y101062500D02*
X36062500Y102000000D01*
X33250000Y109992500D02*
X33250000Y104109375D01*
X33240000Y110000000D02*
X33242500Y110000000D01*
X35359375Y102000000D02*
X33250000Y104109375D01*
X37000000Y100750000D02*
X36900000Y100700000D01*
X37000000Y101062500D02*
X37000000Y100750000D01*
%TD*%
%TA.AperFunction,Conductor*%
%TO.N,GND*%
G36*
X91578190Y115985990D02*
G01*
X91744964Y115899172D01*
X91754296Y115893785D01*
X92013617Y115728579D01*
X92059579Y115675958D01*
X92069797Y115606840D01*
X92041024Y115543169D01*
X91982396Y115505162D01*
X91946990Y115500000D01*
X86000000Y115500000D01*
X86000000Y108500000D01*
X93000000Y108500000D01*
X93000000Y114446991D01*
X93019685Y114514030D01*
X93072489Y114559785D01*
X93141647Y114569729D01*
X93205203Y114540704D01*
X93228577Y114513619D01*
X93393770Y114254320D01*
X93399175Y114244958D01*
X93399183Y114244943D01*
X93485989Y114078192D01*
X93500000Y114020935D01*
X93500000Y99524000D01*
X93480315Y99456961D01*
X93427511Y99411206D01*
X93376000Y99400000D01*
X76195044Y99400000D01*
X76128005Y99419685D01*
X76082250Y99472489D01*
X76072306Y99541647D01*
X76101331Y99605203D01*
X76107363Y99611681D01*
X76139196Y99643515D01*
X76139198Y99643517D01*
X76190573Y99748607D01*
X76200500Y99816740D01*
X76200500Y101583260D01*
X76190573Y101651393D01*
X76139198Y101756483D01*
X76139196Y101756485D01*
X76139196Y101756486D01*
X76056485Y101839197D01*
X75951391Y101890574D01*
X75883261Y101900500D01*
X75883260Y101900500D01*
X74116740Y101900500D01*
X74116739Y101900500D01*
X74048608Y101890574D01*
X73943514Y101839197D01*
X73860803Y101756486D01*
X73809426Y101651392D01*
X73799500Y101583261D01*
X73799500Y101231910D01*
X73779815Y101164871D01*
X73727011Y101119116D01*
X73657853Y101109172D01*
X73594297Y101138197D01*
X73565015Y101175615D01*
X73509784Y101284011D01*
X73486760Y101329199D01*
X73375690Y101482073D01*
X73242073Y101615690D01*
X73089199Y101726760D01*
X73082624Y101730110D01*
X72920836Y101812546D01*
X72741118Y101870941D01*
X72554486Y101900500D01*
X72554481Y101900500D01*
X72365519Y101900500D01*
X72365514Y101900500D01*
X72178881Y101870941D01*
X71999163Y101812546D01*
X71830800Y101726760D01*
X71771355Y101683570D01*
X71677927Y101615690D01*
X71677925Y101615688D01*
X71677924Y101615688D01*
X71544312Y101482076D01*
X71544312Y101482075D01*
X71544310Y101482073D01*
X71505015Y101427988D01*
X71433240Y101329200D01*
X71347454Y101160837D01*
X71307931Y101039197D01*
X71268493Y100981522D01*
X71204134Y100954324D01*
X71135288Y100966239D01*
X71083812Y101013484D01*
X71072069Y101039197D01*
X71042054Y101131572D01*
X71032547Y101160832D01*
X71032545Y101160835D01*
X71032545Y101160837D01*
X70969784Y101284011D01*
X70946760Y101329199D01*
X70835690Y101482073D01*
X70702073Y101615690D01*
X70549199Y101726760D01*
X70542624Y101730110D01*
X70380836Y101812546D01*
X70201118Y101870941D01*
X70014486Y101900500D01*
X70014481Y101900500D01*
X69825519Y101900500D01*
X69825514Y101900500D01*
X69638881Y101870941D01*
X69459163Y101812546D01*
X69290800Y101726760D01*
X69231355Y101683570D01*
X69137927Y101615690D01*
X69137925Y101615688D01*
X69137924Y101615688D01*
X69004312Y101482076D01*
X69004312Y101482075D01*
X69004310Y101482073D01*
X68965015Y101427988D01*
X68893240Y101329200D01*
X68807454Y101160837D01*
X68767931Y101039197D01*
X68728493Y100981522D01*
X68664134Y100954324D01*
X68595288Y100966239D01*
X68543812Y101013484D01*
X68532069Y101039197D01*
X68502054Y101131572D01*
X68492547Y101160832D01*
X68492545Y101160835D01*
X68492545Y101160837D01*
X68429784Y101284011D01*
X68406760Y101329199D01*
X68295690Y101482073D01*
X68162073Y101615690D01*
X68009199Y101726760D01*
X68002624Y101730110D01*
X67840836Y101812546D01*
X67661118Y101870941D01*
X67474486Y101900500D01*
X67474481Y101900500D01*
X67285519Y101900500D01*
X67285514Y101900500D01*
X67098881Y101870941D01*
X66919163Y101812546D01*
X66750800Y101726760D01*
X66691355Y101683570D01*
X66597927Y101615690D01*
X66597925Y101615688D01*
X66597924Y101615688D01*
X66464312Y101482076D01*
X66464312Y101482075D01*
X66464310Y101482073D01*
X66425015Y101427988D01*
X66353240Y101329200D01*
X66267454Y101160837D01*
X66227931Y101039197D01*
X66188493Y100981522D01*
X66124134Y100954324D01*
X66055288Y100966239D01*
X66003812Y101013484D01*
X65992069Y101039197D01*
X65962054Y101131572D01*
X65952547Y101160832D01*
X65952545Y101160835D01*
X65952545Y101160837D01*
X65889784Y101284011D01*
X65866760Y101329199D01*
X65755690Y101482073D01*
X65622073Y101615690D01*
X65469199Y101726760D01*
X65462624Y101730110D01*
X65300836Y101812546D01*
X65121118Y101870941D01*
X64934486Y101900500D01*
X64934481Y101900500D01*
X64745519Y101900500D01*
X64745514Y101900500D01*
X64558881Y101870941D01*
X64379163Y101812546D01*
X64210800Y101726760D01*
X64151355Y101683570D01*
X64057927Y101615690D01*
X64057925Y101615688D01*
X64057924Y101615688D01*
X63924312Y101482076D01*
X63924312Y101482075D01*
X63924310Y101482073D01*
X63885015Y101427988D01*
X63813240Y101329200D01*
X63727454Y101160837D01*
X63687931Y101039197D01*
X63648493Y100981522D01*
X63584134Y100954324D01*
X63515288Y100966239D01*
X63463812Y101013484D01*
X63452069Y101039197D01*
X63422054Y101131572D01*
X63412547Y101160832D01*
X63412545Y101160835D01*
X63412545Y101160837D01*
X63349784Y101284011D01*
X63326760Y101329199D01*
X63215690Y101482073D01*
X63082073Y101615690D01*
X62929199Y101726760D01*
X62922624Y101730110D01*
X62760836Y101812546D01*
X62581118Y101870941D01*
X62394486Y101900500D01*
X62394481Y101900500D01*
X62205519Y101900500D01*
X62205514Y101900500D01*
X62018881Y101870941D01*
X61839163Y101812546D01*
X61670800Y101726760D01*
X61611355Y101683570D01*
X61517927Y101615690D01*
X61517925Y101615688D01*
X61517924Y101615688D01*
X61384312Y101482076D01*
X61384312Y101482075D01*
X61384310Y101482073D01*
X61345015Y101427988D01*
X61273240Y101329200D01*
X61187454Y101160837D01*
X61147931Y101039197D01*
X61108493Y100981522D01*
X61044134Y100954324D01*
X60975288Y100966239D01*
X60923812Y101013484D01*
X60912069Y101039197D01*
X60882054Y101131572D01*
X60872547Y101160832D01*
X60872545Y101160835D01*
X60872545Y101160837D01*
X60809784Y101284011D01*
X60786760Y101329199D01*
X60675690Y101482073D01*
X60542073Y101615690D01*
X60389199Y101726760D01*
X60382624Y101730110D01*
X60220836Y101812546D01*
X60041118Y101870941D01*
X59854486Y101900500D01*
X59854481Y101900500D01*
X59665519Y101900500D01*
X59665514Y101900500D01*
X59478881Y101870941D01*
X59340886Y101826103D01*
X59299168Y101812547D01*
X59299165Y101812546D01*
X59299160Y101812544D01*
X59284126Y101804884D01*
X59215457Y101791989D01*
X59150717Y101818267D01*
X59110461Y101875375D01*
X59107471Y101945180D01*
X59140151Y102003049D01*
X64860489Y107723386D01*
X64919798Y107826113D01*
X64919799Y107826114D01*
X64950500Y107940691D01*
X64950500Y108791425D01*
X64970185Y108858464D01*
X65022989Y108904219D01*
X65092147Y108914163D01*
X65130796Y108901909D01*
X65159161Y108887456D01*
X65159164Y108887456D01*
X65159168Y108887453D01*
X65274436Y108850000D01*
X65338881Y108829060D01*
X65525514Y108799500D01*
X65525519Y108799500D01*
X65714486Y108799500D01*
X65901118Y108829060D01*
X66080832Y108887453D01*
X66249199Y108973240D01*
X66402073Y109084310D01*
X66535690Y109217927D01*
X66646760Y109370801D01*
X66732547Y109539168D01*
X66772069Y109660805D01*
X66811507Y109718479D01*
X66875866Y109745677D01*
X66944712Y109733762D01*
X66996188Y109686518D01*
X67007931Y109660804D01*
X67047454Y109539164D01*
X67083668Y109468091D01*
X67133240Y109370801D01*
X67244310Y109217927D01*
X67377927Y109084310D01*
X67530801Y108973240D01*
X67589136Y108943517D01*
X67699163Y108887455D01*
X67699165Y108887455D01*
X67699168Y108887453D01*
X67772527Y108863617D01*
X67878881Y108829060D01*
X68065514Y108799500D01*
X68065519Y108799500D01*
X68254486Y108799500D01*
X68441118Y108829060D01*
X68620832Y108887453D01*
X68789199Y108973240D01*
X68942073Y109084310D01*
X69075690Y109217927D01*
X69186760Y109370801D01*
X69272547Y109539168D01*
X69330940Y109718882D01*
X69333092Y109732468D01*
X69363021Y109795603D01*
X69422332Y109832535D01*
X69492194Y109831537D01*
X69550427Y109792928D01*
X69576731Y109735332D01*
X69577181Y109735439D01*
X69577733Y109733137D01*
X69578039Y109732468D01*
X69578318Y109730702D01*
X69634251Y109558556D01*
X69634252Y109558553D01*
X69716434Y109397266D01*
X69772545Y109320035D01*
X69772547Y109320035D01*
X70243388Y109790877D01*
X70299901Y109692993D01*
X70392993Y109599901D01*
X70490874Y109543389D01*
X70020032Y109072548D01*
X70020033Y109072547D01*
X70097265Y109016435D01*
X70258552Y108934253D01*
X70258555Y108934252D01*
X70430706Y108878318D01*
X70609494Y108850000D01*
X70790506Y108850000D01*
X70969293Y108878318D01*
X71141444Y108934252D01*
X71141447Y108934253D01*
X71302731Y109016433D01*
X71379965Y109072548D01*
X71379966Y109072548D01*
X70909125Y109543389D01*
X71007007Y109599901D01*
X71100099Y109692993D01*
X71156611Y109790876D01*
X71627452Y109320034D01*
X71627452Y109320035D01*
X71683567Y109397269D01*
X71765747Y109558553D01*
X71765748Y109558556D01*
X71821682Y109730707D01*
X71850000Y109909494D01*
X71850000Y110090507D01*
X71821682Y110269294D01*
X71765748Y110441445D01*
X71765747Y110441448D01*
X71683565Y110602735D01*
X71627453Y110679967D01*
X71627452Y110679968D01*
X71156610Y110209126D01*
X71100099Y110307007D01*
X71007007Y110400099D01*
X70909124Y110456612D01*
X71379965Y110927453D01*
X71379965Y110927455D01*
X71302734Y110983566D01*
X71141447Y111065748D01*
X71141444Y111065749D01*
X70969293Y111121683D01*
X70790506Y111150000D01*
X70609494Y111150000D01*
X70430706Y111121683D01*
X70258555Y111065749D01*
X70258552Y111065748D01*
X70097272Y110983570D01*
X70020033Y110927454D01*
X70490875Y110456612D01*
X70392993Y110400099D01*
X70299901Y110307007D01*
X70243388Y110209125D01*
X69772546Y110679967D01*
X69716430Y110602728D01*
X69634252Y110441448D01*
X69634251Y110441445D01*
X69578317Y110269295D01*
X69578038Y110267530D01*
X69577745Y110266914D01*
X69577181Y110264561D01*
X69576686Y110264680D01*
X69548108Y110204396D01*
X69488796Y110167466D01*
X69418933Y110168464D01*
X69360701Y110207075D01*
X69333092Y110267532D01*
X69330940Y110281119D01*
X69284248Y110424819D01*
X69272547Y110460832D01*
X69272545Y110460835D01*
X69272545Y110460837D01*
X69227290Y110549653D01*
X69186760Y110629199D01*
X69075690Y110782073D01*
X68942073Y110915690D01*
X68789199Y111026760D01*
X68620836Y111112546D01*
X68441118Y111170941D01*
X68254486Y111200500D01*
X68254481Y111200500D01*
X68065519Y111200500D01*
X68065514Y111200500D01*
X67878881Y111170941D01*
X67699163Y111112546D01*
X67530800Y111026760D01*
X67471355Y110983570D01*
X67377927Y110915690D01*
X67377925Y110915688D01*
X67377924Y110915688D01*
X67244312Y110782076D01*
X67244312Y110782075D01*
X67244310Y110782073D01*
X67196610Y110716421D01*
X67133240Y110629200D01*
X67047454Y110460837D01*
X67007931Y110339197D01*
X66968493Y110281522D01*
X66904134Y110254324D01*
X66835288Y110266239D01*
X66783812Y110313484D01*
X66772069Y110339197D01*
X66744248Y110424819D01*
X66732547Y110460832D01*
X66732545Y110460835D01*
X66732545Y110460837D01*
X66687290Y110549653D01*
X66646760Y110629199D01*
X66535690Y110782073D01*
X66402073Y110915690D01*
X66249199Y111026760D01*
X66080836Y111112546D01*
X65901118Y111170941D01*
X65714486Y111200500D01*
X65714481Y111200500D01*
X65525519Y111200500D01*
X65525514Y111200500D01*
X65338881Y111170941D01*
X65159163Y111112546D01*
X64990800Y111026760D01*
X64931355Y110983570D01*
X64837927Y110915690D01*
X64837925Y110915688D01*
X64837924Y110915688D01*
X64704312Y110782076D01*
X64704312Y110782075D01*
X64704310Y110782073D01*
X64656610Y110716421D01*
X64593240Y110629200D01*
X64507454Y110460837D01*
X64467931Y110339197D01*
X64428493Y110281522D01*
X64364134Y110254324D01*
X64295288Y110266239D01*
X64243812Y110313484D01*
X64232069Y110339197D01*
X64204248Y110424819D01*
X64192547Y110460832D01*
X64192545Y110460835D01*
X64192545Y110460837D01*
X64147290Y110549653D01*
X64106760Y110629199D01*
X63995690Y110782073D01*
X63862073Y110915690D01*
X63709199Y111026760D01*
X63540836Y111112546D01*
X63361118Y111170941D01*
X63174486Y111200500D01*
X63174481Y111200500D01*
X62985519Y111200500D01*
X62985514Y111200500D01*
X62798881Y111170941D01*
X62619163Y111112546D01*
X62450800Y111026760D01*
X62391355Y110983570D01*
X62297927Y110915690D01*
X62297925Y110915688D01*
X62297924Y110915688D01*
X62164312Y110782076D01*
X62164312Y110782075D01*
X62164310Y110782073D01*
X62116610Y110716421D01*
X62053240Y110629200D01*
X61967454Y110460837D01*
X61927931Y110339197D01*
X61888493Y110281522D01*
X61824134Y110254324D01*
X61755288Y110266239D01*
X61703812Y110313484D01*
X61692069Y110339197D01*
X61664248Y110424819D01*
X61652547Y110460832D01*
X61652545Y110460835D01*
X61652545Y110460837D01*
X61607290Y110549653D01*
X61566760Y110629199D01*
X61455690Y110782073D01*
X61322073Y110915690D01*
X61169199Y111026760D01*
X61000836Y111112546D01*
X60821118Y111170941D01*
X60634486Y111200500D01*
X60634481Y111200500D01*
X60445519Y111200500D01*
X60445514Y111200500D01*
X60258881Y111170941D01*
X60079163Y111112546D01*
X59910800Y111026760D01*
X59851355Y110983570D01*
X59757927Y110915690D01*
X59757925Y110915688D01*
X59757924Y110915688D01*
X59624312Y110782076D01*
X59624312Y110782075D01*
X59624310Y110782073D01*
X59576610Y110716421D01*
X59513240Y110629200D01*
X59434985Y110475615D01*
X59387010Y110424819D01*
X59319189Y110408024D01*
X59253054Y110430561D01*
X59209603Y110485277D01*
X59200500Y110531910D01*
X59200500Y110883261D01*
X59190573Y110951392D01*
X59190573Y110951393D01*
X59139198Y111056483D01*
X59139196Y111056485D01*
X59139196Y111056486D01*
X59056485Y111139197D01*
X58951391Y111190574D01*
X58883261Y111200500D01*
X58883260Y111200500D01*
X57116740Y111200500D01*
X57116739Y111200500D01*
X57048608Y111190574D01*
X56943514Y111139197D01*
X56860803Y111056486D01*
X56809426Y110951392D01*
X56799500Y110883261D01*
X56799500Y109116740D01*
X56809426Y109048609D01*
X56860803Y108943515D01*
X56943514Y108860804D01*
X56943515Y108860804D01*
X56943517Y108860802D01*
X57048607Y108809427D01*
X57082673Y108804464D01*
X57116739Y108799500D01*
X57116740Y108799500D01*
X58883261Y108799500D01*
X58905971Y108802809D01*
X58951393Y108809427D01*
X59056483Y108860802D01*
X59139198Y108943517D01*
X59190573Y109048607D01*
X59200500Y109116740D01*
X59200500Y109468091D01*
X59220185Y109535130D01*
X59272989Y109580885D01*
X59342147Y109590829D01*
X59405703Y109561804D01*
X59434984Y109524387D01*
X59513240Y109370801D01*
X59624310Y109217927D01*
X59757927Y109084310D01*
X59910801Y108973240D01*
X59969136Y108943517D01*
X60079163Y108887455D01*
X60079165Y108887455D01*
X60079168Y108887453D01*
X60152527Y108863617D01*
X60258881Y108829060D01*
X60445514Y108799500D01*
X60445519Y108799500D01*
X60634486Y108799500D01*
X60821118Y108829060D01*
X61000832Y108887453D01*
X61169199Y108973240D01*
X61322073Y109084310D01*
X61455690Y109217927D01*
X61566760Y109370801D01*
X61652547Y109539168D01*
X61692069Y109660805D01*
X61731507Y109718479D01*
X61795866Y109745677D01*
X61864712Y109733762D01*
X61916188Y109686518D01*
X61927931Y109660804D01*
X61967454Y109539164D01*
X62003668Y109468091D01*
X62053240Y109370801D01*
X62164310Y109217927D01*
X62297927Y109084310D01*
X62450801Y108973240D01*
X62509136Y108943517D01*
X62619163Y108887455D01*
X62619165Y108887455D01*
X62619168Y108887453D01*
X62692527Y108863617D01*
X62798881Y108829060D01*
X62985514Y108799500D01*
X62985519Y108799500D01*
X63174486Y108799500D01*
X63361118Y108829060D01*
X63540832Y108887453D01*
X63709199Y108973240D01*
X63852617Y109077441D01*
X63918420Y109100919D01*
X63986474Y109085094D01*
X64035169Y109034989D01*
X64049500Y108977121D01*
X64049500Y108237965D01*
X64029815Y108170926D01*
X64013181Y108150284D01*
X58349716Y102486819D01*
X58288393Y102453334D01*
X58262035Y102450500D01*
X55628191Y102450500D01*
X55537825Y102426287D01*
X55537824Y102426288D01*
X55513616Y102419801D01*
X55513613Y102419800D01*
X55410886Y102360489D01*
X55410883Y102360487D01*
X54971451Y101921056D01*
X54910128Y101887571D01*
X54864373Y101886264D01*
X54774487Y101900500D01*
X54774481Y101900500D01*
X54585519Y101900500D01*
X54585514Y101900500D01*
X54398881Y101870941D01*
X54219163Y101812546D01*
X54050800Y101726760D01*
X53991355Y101683570D01*
X53897927Y101615690D01*
X53897925Y101615688D01*
X53897924Y101615688D01*
X53764312Y101482076D01*
X53764312Y101482075D01*
X53764310Y101482073D01*
X53725015Y101427988D01*
X53653240Y101329200D01*
X53567454Y101160837D01*
X53527931Y101039197D01*
X53488493Y100981522D01*
X53424134Y100954324D01*
X53355288Y100966239D01*
X53303812Y101013484D01*
X53292069Y101039197D01*
X53262054Y101131572D01*
X53252547Y101160832D01*
X53252545Y101160835D01*
X53252545Y101160837D01*
X53189784Y101284011D01*
X53166760Y101329199D01*
X53055690Y101482073D01*
X52922073Y101615690D01*
X52769199Y101726760D01*
X52762624Y101730110D01*
X52600836Y101812546D01*
X52421118Y101870941D01*
X52234486Y101900500D01*
X52234481Y101900500D01*
X52045519Y101900500D01*
X52045514Y101900500D01*
X51858881Y101870941D01*
X51679163Y101812546D01*
X51510800Y101726760D01*
X51451355Y101683570D01*
X51357927Y101615690D01*
X51357925Y101615688D01*
X51357924Y101615688D01*
X51224312Y101482076D01*
X51224312Y101482075D01*
X51224310Y101482073D01*
X51185015Y101427988D01*
X51113240Y101329200D01*
X51027454Y101160837D01*
X50987931Y101039197D01*
X50948493Y100981522D01*
X50884134Y100954324D01*
X50815288Y100966239D01*
X50763812Y101013484D01*
X50752069Y101039197D01*
X50722054Y101131572D01*
X50712547Y101160832D01*
X50712545Y101160835D01*
X50712545Y101160837D01*
X50649784Y101284011D01*
X50626760Y101329199D01*
X50515690Y101482073D01*
X50382073Y101615690D01*
X50229199Y101726760D01*
X50222624Y101730110D01*
X50060836Y101812546D01*
X49881118Y101870941D01*
X49694486Y101900500D01*
X49694481Y101900500D01*
X49505519Y101900500D01*
X49505514Y101900500D01*
X49318881Y101870941D01*
X49139163Y101812546D01*
X48970800Y101726760D01*
X48911355Y101683570D01*
X48817927Y101615690D01*
X48817925Y101615688D01*
X48817924Y101615688D01*
X48684312Y101482076D01*
X48684312Y101482075D01*
X48684310Y101482073D01*
X48645015Y101427988D01*
X48573240Y101329200D01*
X48487454Y101160837D01*
X48447931Y101039197D01*
X48408493Y100981522D01*
X48344134Y100954324D01*
X48275288Y100966239D01*
X48223812Y101013484D01*
X48212069Y101039197D01*
X48182054Y101131572D01*
X48172547Y101160832D01*
X48172545Y101160835D01*
X48172545Y101160837D01*
X48109784Y101284011D01*
X48086760Y101329199D01*
X47975690Y101482073D01*
X47842073Y101615690D01*
X47689199Y101726760D01*
X47682624Y101730110D01*
X47520836Y101812546D01*
X47341118Y101870941D01*
X47154486Y101900500D01*
X47154481Y101900500D01*
X46965519Y101900500D01*
X46965514Y101900500D01*
X46778881Y101870941D01*
X46599163Y101812546D01*
X46430800Y101726760D01*
X46371355Y101683570D01*
X46277927Y101615690D01*
X46277925Y101615688D01*
X46277924Y101615688D01*
X46144312Y101482076D01*
X46144312Y101482075D01*
X46144310Y101482073D01*
X46105015Y101427988D01*
X46033240Y101329200D01*
X45947454Y101160837D01*
X45907931Y101039197D01*
X45868493Y100981522D01*
X45804134Y100954324D01*
X45735288Y100966239D01*
X45683812Y101013484D01*
X45672069Y101039197D01*
X45642054Y101131572D01*
X45632547Y101160832D01*
X45632545Y101160835D01*
X45632545Y101160837D01*
X45569784Y101284011D01*
X45546760Y101329199D01*
X45435690Y101482073D01*
X45302073Y101615690D01*
X45149199Y101726760D01*
X45142624Y101730110D01*
X44980836Y101812546D01*
X44801118Y101870941D01*
X44614486Y101900500D01*
X44614481Y101900500D01*
X44425519Y101900500D01*
X44425514Y101900500D01*
X44238881Y101870941D01*
X44059163Y101812546D01*
X43890800Y101726760D01*
X43831355Y101683570D01*
X43737927Y101615690D01*
X43737925Y101615688D01*
X43737924Y101615688D01*
X43604312Y101482076D01*
X43604312Y101482075D01*
X43604310Y101482073D01*
X43565015Y101427988D01*
X43493240Y101329200D01*
X43407454Y101160837D01*
X43367931Y101039197D01*
X43328493Y100981522D01*
X43264134Y100954324D01*
X43195288Y100966239D01*
X43143812Y101013484D01*
X43132069Y101039197D01*
X43102054Y101131572D01*
X43092547Y101160832D01*
X43092545Y101160835D01*
X43092545Y101160837D01*
X43029784Y101284011D01*
X43006760Y101329199D01*
X42895690Y101482073D01*
X42762073Y101615690D01*
X42609199Y101726760D01*
X42602624Y101730110D01*
X42440836Y101812546D01*
X42261118Y101870941D01*
X42074486Y101900500D01*
X42074481Y101900500D01*
X41885519Y101900500D01*
X41885514Y101900500D01*
X41698881Y101870941D01*
X41519163Y101812546D01*
X41350800Y101726760D01*
X41291355Y101683570D01*
X41197927Y101615690D01*
X41197925Y101615688D01*
X41197924Y101615688D01*
X41064312Y101482076D01*
X41064312Y101482075D01*
X41064310Y101482073D01*
X41025015Y101427988D01*
X40953240Y101329200D01*
X40867454Y101160837D01*
X40827931Y101039197D01*
X40788493Y100981522D01*
X40724134Y100954324D01*
X40655288Y100966239D01*
X40603812Y101013484D01*
X40592069Y101039197D01*
X40562054Y101131572D01*
X40552547Y101160832D01*
X40552545Y101160835D01*
X40552545Y101160837D01*
X40489784Y101284011D01*
X40466760Y101329199D01*
X40355690Y101482073D01*
X40222073Y101615690D01*
X40069199Y101726760D01*
X40062624Y101730110D01*
X39900836Y101812546D01*
X39721118Y101870941D01*
X39534486Y101900500D01*
X39534481Y101900500D01*
X39345519Y101900500D01*
X39345514Y101900500D01*
X39158881Y101870941D01*
X38979163Y101812546D01*
X38810800Y101726760D01*
X38751355Y101683570D01*
X38657927Y101615690D01*
X38657925Y101615688D01*
X38657924Y101615688D01*
X38524312Y101482076D01*
X38524312Y101482075D01*
X38524310Y101482073D01*
X38485015Y101427988D01*
X38413240Y101329200D01*
X38327454Y101160837D01*
X38287931Y101039197D01*
X38248493Y100981522D01*
X38184134Y100954324D01*
X38115288Y100966239D01*
X38063812Y101013484D01*
X38052069Y101039197D01*
X38022054Y101131572D01*
X38012547Y101160832D01*
X38012545Y101160835D01*
X38012545Y101160837D01*
X37949784Y101284011D01*
X37926760Y101329199D01*
X37815690Y101482073D01*
X37682073Y101615690D01*
X37529199Y101726760D01*
X37522624Y101730110D01*
X37360836Y101812546D01*
X37181118Y101870941D01*
X36994486Y101900500D01*
X36994481Y101900500D01*
X36850465Y101900500D01*
X36783426Y101920185D01*
X36762784Y101936819D01*
X36339116Y102360487D01*
X36339114Y102360489D01*
X36287750Y102390144D01*
X36236388Y102419799D01*
X36224280Y102423043D01*
X36212173Y102426287D01*
X36212170Y102426288D01*
X36173978Y102436522D01*
X36121809Y102450500D01*
X36121808Y102450500D01*
X35597341Y102450500D01*
X35530302Y102470185D01*
X35509660Y102486819D01*
X33736819Y104259660D01*
X33703334Y104320983D01*
X33700500Y104347341D01*
X33700500Y108811297D01*
X33720185Y108878336D01*
X33768205Y108921782D01*
X33869199Y108973240D01*
X34022073Y109084310D01*
X34155690Y109217927D01*
X34266760Y109370801D01*
X34352547Y109539168D01*
X34392069Y109660805D01*
X34431507Y109718479D01*
X34495866Y109745677D01*
X34564712Y109733762D01*
X34616188Y109686518D01*
X34627931Y109660804D01*
X34667454Y109539164D01*
X34703668Y109468091D01*
X34753240Y109370801D01*
X34864310Y109217927D01*
X34997927Y109084310D01*
X35150801Y108973240D01*
X35209136Y108943517D01*
X35319163Y108887455D01*
X35319165Y108887455D01*
X35319168Y108887453D01*
X35392527Y108863617D01*
X35498881Y108829060D01*
X35685514Y108799500D01*
X35685519Y108799500D01*
X35874486Y108799500D01*
X36061118Y108829060D01*
X36240832Y108887453D01*
X36409199Y108973240D01*
X36562073Y109084310D01*
X36695690Y109217927D01*
X36806760Y109370801D01*
X36892547Y109539168D01*
X36932069Y109660805D01*
X36971507Y109718479D01*
X37035866Y109745677D01*
X37104712Y109733762D01*
X37156188Y109686518D01*
X37167931Y109660804D01*
X37207454Y109539164D01*
X37243668Y109468091D01*
X37293240Y109370801D01*
X37404310Y109217927D01*
X37537927Y109084310D01*
X37690801Y108973240D01*
X37749136Y108943517D01*
X37859163Y108887455D01*
X37859165Y108887455D01*
X37859168Y108887453D01*
X37932527Y108863617D01*
X38038881Y108829060D01*
X38225514Y108799500D01*
X38225519Y108799500D01*
X38414486Y108799500D01*
X38601118Y108829060D01*
X38780832Y108887453D01*
X38949199Y108973240D01*
X39102073Y109084310D01*
X39235690Y109217927D01*
X39346760Y109370801D01*
X39432547Y109539168D01*
X39472069Y109660805D01*
X39511507Y109718479D01*
X39575866Y109745677D01*
X39644712Y109733762D01*
X39696188Y109686518D01*
X39707931Y109660804D01*
X39747454Y109539164D01*
X39783668Y109468091D01*
X39833240Y109370801D01*
X39944310Y109217927D01*
X40077927Y109084310D01*
X40230801Y108973240D01*
X40289136Y108943517D01*
X40399163Y108887455D01*
X40399165Y108887455D01*
X40399168Y108887453D01*
X40472527Y108863617D01*
X40578881Y108829060D01*
X40765514Y108799500D01*
X40765519Y108799500D01*
X40954486Y108799500D01*
X41141118Y108829060D01*
X41320832Y108887453D01*
X41489199Y108973240D01*
X41642073Y109084310D01*
X41775690Y109217927D01*
X41886760Y109370801D01*
X41972547Y109539168D01*
X42012069Y109660805D01*
X42051507Y109718479D01*
X42115866Y109745677D01*
X42184712Y109733762D01*
X42236188Y109686518D01*
X42247931Y109660804D01*
X42287454Y109539164D01*
X42323668Y109468091D01*
X42373240Y109370801D01*
X42484310Y109217927D01*
X42617927Y109084310D01*
X42770801Y108973240D01*
X42829136Y108943517D01*
X42939163Y108887455D01*
X42939165Y108887455D01*
X42939168Y108887453D01*
X43012527Y108863617D01*
X43118881Y108829060D01*
X43305514Y108799500D01*
X43305519Y108799500D01*
X43494486Y108799500D01*
X43681118Y108829060D01*
X43860832Y108887453D01*
X44029199Y108973240D01*
X44182073Y109084310D01*
X44315690Y109217927D01*
X44426760Y109370801D01*
X44512547Y109539168D01*
X44552069Y109660805D01*
X44591507Y109718479D01*
X44655866Y109745677D01*
X44724712Y109733762D01*
X44776188Y109686518D01*
X44787931Y109660804D01*
X44827454Y109539164D01*
X44863668Y109468091D01*
X44913240Y109370801D01*
X45024310Y109217927D01*
X45157927Y109084310D01*
X45310801Y108973240D01*
X45369136Y108943517D01*
X45479163Y108887455D01*
X45479165Y108887455D01*
X45479168Y108887453D01*
X45552527Y108863617D01*
X45658881Y108829060D01*
X45845514Y108799500D01*
X45845519Y108799500D01*
X46034486Y108799500D01*
X46221118Y108829060D01*
X46400832Y108887453D01*
X46569199Y108973240D01*
X46722073Y109084310D01*
X46855690Y109217927D01*
X46966760Y109370801D01*
X47052547Y109539168D01*
X47092069Y109660805D01*
X47131507Y109718479D01*
X47195866Y109745677D01*
X47264712Y109733762D01*
X47316188Y109686518D01*
X47327931Y109660804D01*
X47367454Y109539164D01*
X47403668Y109468091D01*
X47453240Y109370801D01*
X47564310Y109217927D01*
X47697927Y109084310D01*
X47850801Y108973240D01*
X47909136Y108943517D01*
X48019163Y108887455D01*
X48019165Y108887455D01*
X48019168Y108887453D01*
X48092527Y108863617D01*
X48198881Y108829060D01*
X48385514Y108799500D01*
X48385519Y108799500D01*
X48574486Y108799500D01*
X48761118Y108829060D01*
X48940832Y108887453D01*
X49109199Y108973240D01*
X49262073Y109084310D01*
X49395690Y109217927D01*
X49506760Y109370801D01*
X49592547Y109539168D01*
X49632069Y109660805D01*
X49671507Y109718479D01*
X49735866Y109745677D01*
X49804712Y109733762D01*
X49856188Y109686518D01*
X49867931Y109660804D01*
X49907454Y109539164D01*
X49943668Y109468091D01*
X49993240Y109370801D01*
X50104310Y109217927D01*
X50237927Y109084310D01*
X50390801Y108973240D01*
X50449136Y108943517D01*
X50559163Y108887455D01*
X50559165Y108887455D01*
X50559168Y108887453D01*
X50632527Y108863617D01*
X50738881Y108829060D01*
X50925514Y108799500D01*
X50925519Y108799500D01*
X51114486Y108799500D01*
X51301118Y108829060D01*
X51480832Y108887453D01*
X51649199Y108973240D01*
X51802073Y109084310D01*
X51935690Y109217927D01*
X52046760Y109370801D01*
X52132547Y109539168D01*
X52190940Y109718882D01*
X52193297Y109733762D01*
X52220500Y109905514D01*
X52220500Y110094487D01*
X52190940Y110281119D01*
X52144248Y110424819D01*
X52132547Y110460832D01*
X52132545Y110460835D01*
X52132545Y110460837D01*
X52087290Y110549653D01*
X52046760Y110629199D01*
X51935690Y110782073D01*
X51802073Y110915690D01*
X51649199Y111026760D01*
X51480836Y111112546D01*
X51301118Y111170941D01*
X51114486Y111200500D01*
X51114481Y111200500D01*
X50925519Y111200500D01*
X50925514Y111200500D01*
X50738881Y111170941D01*
X50559163Y111112546D01*
X50390800Y111026760D01*
X50331355Y110983570D01*
X50237927Y110915690D01*
X50237925Y110915688D01*
X50237924Y110915688D01*
X50104312Y110782076D01*
X50104312Y110782075D01*
X50104310Y110782073D01*
X50056610Y110716421D01*
X49993240Y110629200D01*
X49907454Y110460837D01*
X49867931Y110339197D01*
X49828493Y110281522D01*
X49764134Y110254324D01*
X49695288Y110266239D01*
X49643812Y110313484D01*
X49632069Y110339197D01*
X49604248Y110424819D01*
X49592547Y110460832D01*
X49592545Y110460835D01*
X49592545Y110460837D01*
X49547290Y110549653D01*
X49506760Y110629199D01*
X49395690Y110782073D01*
X49262073Y110915690D01*
X49109199Y111026760D01*
X48940836Y111112546D01*
X48761118Y111170941D01*
X48574486Y111200500D01*
X48574481Y111200500D01*
X48385519Y111200500D01*
X48385514Y111200500D01*
X48198881Y111170941D01*
X48019163Y111112546D01*
X47850800Y111026760D01*
X47791355Y110983570D01*
X47697927Y110915690D01*
X47697925Y110915688D01*
X47697924Y110915688D01*
X47564312Y110782076D01*
X47564312Y110782075D01*
X47564310Y110782073D01*
X47516610Y110716421D01*
X47453240Y110629200D01*
X47367454Y110460837D01*
X47327931Y110339197D01*
X47288493Y110281522D01*
X47224134Y110254324D01*
X47155288Y110266239D01*
X47103812Y110313484D01*
X47092069Y110339197D01*
X47064248Y110424819D01*
X47052547Y110460832D01*
X47052545Y110460835D01*
X47052545Y110460837D01*
X47007290Y110549653D01*
X46966760Y110629199D01*
X46855690Y110782073D01*
X46722073Y110915690D01*
X46569199Y111026760D01*
X46400836Y111112546D01*
X46221118Y111170941D01*
X46034486Y111200500D01*
X46034481Y111200500D01*
X45845519Y111200500D01*
X45845514Y111200500D01*
X45658881Y111170941D01*
X45479163Y111112546D01*
X45310800Y111026760D01*
X45251355Y110983570D01*
X45157927Y110915690D01*
X45157925Y110915688D01*
X45157924Y110915688D01*
X45024312Y110782076D01*
X45024312Y110782075D01*
X45024310Y110782073D01*
X44976610Y110716421D01*
X44913240Y110629200D01*
X44827454Y110460837D01*
X44787931Y110339197D01*
X44748493Y110281522D01*
X44684134Y110254324D01*
X44615288Y110266239D01*
X44563812Y110313484D01*
X44552069Y110339197D01*
X44524248Y110424819D01*
X44512547Y110460832D01*
X44512545Y110460835D01*
X44512545Y110460837D01*
X44467290Y110549653D01*
X44426760Y110629199D01*
X44315690Y110782073D01*
X44182073Y110915690D01*
X44029199Y111026760D01*
X43860836Y111112546D01*
X43681118Y111170941D01*
X43494486Y111200500D01*
X43494481Y111200500D01*
X43305519Y111200500D01*
X43305514Y111200500D01*
X43118881Y111170941D01*
X42939163Y111112546D01*
X42770800Y111026760D01*
X42711355Y110983570D01*
X42617927Y110915690D01*
X42617925Y110915688D01*
X42617924Y110915688D01*
X42484312Y110782076D01*
X42484312Y110782075D01*
X42484310Y110782073D01*
X42436610Y110716421D01*
X42373240Y110629200D01*
X42287454Y110460837D01*
X42247931Y110339197D01*
X42208493Y110281522D01*
X42144134Y110254324D01*
X42075288Y110266239D01*
X42023812Y110313484D01*
X42012069Y110339197D01*
X41984248Y110424819D01*
X41972547Y110460832D01*
X41972545Y110460835D01*
X41972545Y110460837D01*
X41927290Y110549653D01*
X41886760Y110629199D01*
X41775690Y110782073D01*
X41642073Y110915690D01*
X41489199Y111026760D01*
X41320836Y111112546D01*
X41141118Y111170941D01*
X40954486Y111200500D01*
X40954481Y111200500D01*
X40765519Y111200500D01*
X40765514Y111200500D01*
X40578881Y111170941D01*
X40399163Y111112546D01*
X40230800Y111026760D01*
X40171355Y110983570D01*
X40077927Y110915690D01*
X40077925Y110915688D01*
X40077924Y110915688D01*
X39944312Y110782076D01*
X39944312Y110782075D01*
X39944310Y110782073D01*
X39896610Y110716421D01*
X39833240Y110629200D01*
X39747454Y110460837D01*
X39707931Y110339197D01*
X39668493Y110281522D01*
X39604134Y110254324D01*
X39535288Y110266239D01*
X39483812Y110313484D01*
X39472069Y110339197D01*
X39444248Y110424819D01*
X39432547Y110460832D01*
X39432545Y110460835D01*
X39432545Y110460837D01*
X39387290Y110549653D01*
X39346760Y110629199D01*
X39235690Y110782073D01*
X39102073Y110915690D01*
X38949199Y111026760D01*
X38780836Y111112546D01*
X38601118Y111170941D01*
X38414486Y111200500D01*
X38414481Y111200500D01*
X38225519Y111200500D01*
X38225514Y111200500D01*
X38038881Y111170941D01*
X37859163Y111112546D01*
X37690800Y111026760D01*
X37631355Y110983570D01*
X37537927Y110915690D01*
X37537925Y110915688D01*
X37537924Y110915688D01*
X37404312Y110782076D01*
X37404312Y110782075D01*
X37404310Y110782073D01*
X37356610Y110716421D01*
X37293240Y110629200D01*
X37207454Y110460837D01*
X37167931Y110339197D01*
X37128493Y110281522D01*
X37064134Y110254324D01*
X36995288Y110266239D01*
X36943812Y110313484D01*
X36932069Y110339197D01*
X36904248Y110424819D01*
X36892547Y110460832D01*
X36892545Y110460835D01*
X36892545Y110460837D01*
X36847290Y110549653D01*
X36806760Y110629199D01*
X36695690Y110782073D01*
X36562073Y110915690D01*
X36409199Y111026760D01*
X36240836Y111112546D01*
X36061118Y111170941D01*
X35874486Y111200500D01*
X35874481Y111200500D01*
X35685519Y111200500D01*
X35685514Y111200500D01*
X35498881Y111170941D01*
X35319163Y111112546D01*
X35150800Y111026760D01*
X35091355Y110983570D01*
X34997927Y110915690D01*
X34997925Y110915688D01*
X34997924Y110915688D01*
X34864312Y110782076D01*
X34864312Y110782075D01*
X34864310Y110782073D01*
X34816610Y110716421D01*
X34753240Y110629200D01*
X34667454Y110460837D01*
X34627931Y110339197D01*
X34588493Y110281522D01*
X34524134Y110254324D01*
X34455288Y110266239D01*
X34403812Y110313484D01*
X34392069Y110339197D01*
X34364248Y110424819D01*
X34352547Y110460832D01*
X34352545Y110460835D01*
X34352545Y110460837D01*
X34307290Y110549653D01*
X34266760Y110629199D01*
X34155690Y110782073D01*
X34022073Y110915690D01*
X33869199Y111026760D01*
X33700836Y111112546D01*
X33521118Y111170941D01*
X33334486Y111200500D01*
X33334481Y111200500D01*
X33145519Y111200500D01*
X33145514Y111200500D01*
X32958881Y111170941D01*
X32779163Y111112546D01*
X32610800Y111026760D01*
X32551355Y110983570D01*
X32457927Y110915690D01*
X32457925Y110915688D01*
X32457924Y110915688D01*
X32324312Y110782076D01*
X32324312Y110782075D01*
X32324310Y110782073D01*
X32276610Y110716421D01*
X32213240Y110629200D01*
X32127454Y110460837D01*
X32087931Y110339197D01*
X32048493Y110281522D01*
X31984134Y110254324D01*
X31915288Y110266239D01*
X31863812Y110313484D01*
X31852069Y110339197D01*
X31824248Y110424819D01*
X31812547Y110460832D01*
X31812545Y110460835D01*
X31812545Y110460837D01*
X31767290Y110549653D01*
X31726760Y110629199D01*
X31615690Y110782073D01*
X31482073Y110915690D01*
X31329199Y111026760D01*
X31160836Y111112546D01*
X30981118Y111170941D01*
X30794486Y111200500D01*
X30794481Y111200500D01*
X30605519Y111200500D01*
X30605514Y111200500D01*
X30418881Y111170941D01*
X30239163Y111112546D01*
X30070800Y111026760D01*
X30011355Y110983570D01*
X29917927Y110915690D01*
X29917925Y110915688D01*
X29917924Y110915688D01*
X29784312Y110782076D01*
X29784312Y110782075D01*
X29784310Y110782073D01*
X29736610Y110716421D01*
X29673240Y110629200D01*
X29587454Y110460837D01*
X29547931Y110339197D01*
X29508493Y110281522D01*
X29444134Y110254324D01*
X29375288Y110266239D01*
X29323812Y110313484D01*
X29312069Y110339197D01*
X29284248Y110424819D01*
X29272547Y110460832D01*
X29272545Y110460835D01*
X29272545Y110460837D01*
X29227290Y110549653D01*
X29186760Y110629199D01*
X29075690Y110782073D01*
X28942073Y110915690D01*
X28789199Y111026760D01*
X28620836Y111112546D01*
X28441118Y111170941D01*
X28254486Y111200500D01*
X28254481Y111200500D01*
X28065519Y111200500D01*
X28065514Y111200500D01*
X27878881Y111170941D01*
X27699163Y111112546D01*
X27530800Y111026760D01*
X27471355Y110983570D01*
X27377927Y110915690D01*
X27377925Y110915688D01*
X27377924Y110915688D01*
X27244312Y110782076D01*
X27244312Y110782075D01*
X27244310Y110782073D01*
X27196610Y110716421D01*
X27133240Y110629200D01*
X27047454Y110460837D01*
X27007931Y110339197D01*
X26968493Y110281522D01*
X26904134Y110254324D01*
X26835288Y110266239D01*
X26783812Y110313484D01*
X26772069Y110339197D01*
X26744248Y110424819D01*
X26732547Y110460832D01*
X26732545Y110460835D01*
X26732545Y110460837D01*
X26687290Y110549653D01*
X26646760Y110629199D01*
X26535690Y110782073D01*
X26402073Y110915690D01*
X26249199Y111026760D01*
X26080836Y111112546D01*
X25901118Y111170941D01*
X25714486Y111200500D01*
X25714481Y111200500D01*
X25525519Y111200500D01*
X25525514Y111200500D01*
X25338881Y111170941D01*
X25159163Y111112546D01*
X24990800Y111026760D01*
X24931355Y110983570D01*
X24837927Y110915690D01*
X24837925Y110915688D01*
X24837924Y110915688D01*
X24704312Y110782076D01*
X24704312Y110782075D01*
X24704310Y110782073D01*
X24656610Y110716421D01*
X24593240Y110629200D01*
X24507454Y110460837D01*
X24467931Y110339197D01*
X24428493Y110281522D01*
X24364134Y110254324D01*
X24295288Y110266239D01*
X24243812Y110313484D01*
X24232069Y110339197D01*
X24204248Y110424819D01*
X24192547Y110460832D01*
X24192545Y110460835D01*
X24192545Y110460837D01*
X24147290Y110549653D01*
X24106760Y110629199D01*
X23995690Y110782073D01*
X23862073Y110915690D01*
X23709199Y111026760D01*
X23540836Y111112546D01*
X23361118Y111170941D01*
X23174486Y111200500D01*
X23174481Y111200500D01*
X22985519Y111200500D01*
X22985514Y111200500D01*
X22798881Y111170941D01*
X22619163Y111112546D01*
X22450800Y111026760D01*
X22391355Y110983570D01*
X22297927Y110915690D01*
X22297925Y110915688D01*
X22297924Y110915688D01*
X22164312Y110782076D01*
X22164312Y110782075D01*
X22164310Y110782073D01*
X22116610Y110716421D01*
X22053240Y110629200D01*
X21967454Y110460837D01*
X21909059Y110281119D01*
X21909059Y110281118D01*
X21906906Y110267525D01*
X21876973Y110204392D01*
X21817660Y110167464D01*
X21747797Y110168466D01*
X21689567Y110207079D01*
X21663272Y110264670D01*
X21662819Y110264561D01*
X21662261Y110266885D01*
X21661958Y110267549D01*
X21661681Y110269299D01*
X21605748Y110441445D01*
X21605747Y110441448D01*
X21523565Y110602735D01*
X21467453Y110679967D01*
X21467452Y110679968D01*
X20996610Y110209126D01*
X20940099Y110307007D01*
X20847007Y110400099D01*
X20749124Y110456612D01*
X21219965Y110927453D01*
X21219965Y110927455D01*
X21142734Y110983566D01*
X20981447Y111065748D01*
X20981444Y111065749D01*
X20809293Y111121683D01*
X20630506Y111150000D01*
X20449494Y111150000D01*
X20270706Y111121683D01*
X20098555Y111065749D01*
X20098552Y111065748D01*
X19937272Y110983570D01*
X19860033Y110927454D01*
X20330875Y110456612D01*
X20232993Y110400099D01*
X20139901Y110307007D01*
X20083388Y110209125D01*
X19612546Y110679967D01*
X19556430Y110602728D01*
X19474252Y110441448D01*
X19474251Y110441445D01*
X19442431Y110343510D01*
X19402994Y110285834D01*
X19338635Y110258636D01*
X19269789Y110270551D01*
X19218313Y110317795D01*
X19200500Y110381828D01*
X19200500Y110883261D01*
X19190573Y110951392D01*
X19190573Y110951393D01*
X19139198Y111056483D01*
X19139196Y111056485D01*
X19139196Y111056486D01*
X19056485Y111139197D01*
X18951391Y111190574D01*
X18883261Y111200500D01*
X18883260Y111200500D01*
X17116740Y111200500D01*
X17116739Y111200500D01*
X17048608Y111190574D01*
X16943514Y111139197D01*
X16860803Y111056486D01*
X16809426Y110951392D01*
X16799500Y110883261D01*
X16799500Y109116740D01*
X16809426Y109048609D01*
X16860803Y108943515D01*
X16943514Y108860804D01*
X16943515Y108860804D01*
X16943517Y108860802D01*
X17048607Y108809427D01*
X17082673Y108804464D01*
X17116739Y108799500D01*
X17116740Y108799500D01*
X18883261Y108799500D01*
X18905971Y108802809D01*
X18951393Y108809427D01*
X19056483Y108860802D01*
X19139198Y108943517D01*
X19190573Y109048607D01*
X19200500Y109116740D01*
X19200500Y109618173D01*
X19220185Y109685212D01*
X19272989Y109730967D01*
X19342147Y109740911D01*
X19405703Y109711886D01*
X19442431Y109656491D01*
X19474251Y109558556D01*
X19474252Y109558553D01*
X19556434Y109397266D01*
X19612545Y109320035D01*
X19612547Y109320035D01*
X20083388Y109790876D01*
X20139901Y109692993D01*
X20232993Y109599901D01*
X20330874Y109543389D01*
X19860032Y109072548D01*
X19860033Y109072547D01*
X19937265Y109016435D01*
X20098552Y108934253D01*
X20098555Y108934252D01*
X20270706Y108878318D01*
X20449494Y108850000D01*
X20630506Y108850000D01*
X20809293Y108878318D01*
X20981444Y108934252D01*
X20981447Y108934253D01*
X21142731Y109016433D01*
X21219965Y109072548D01*
X21219966Y109072548D01*
X20749125Y109543389D01*
X20847007Y109599901D01*
X20940099Y109692993D01*
X20996611Y109790876D01*
X21467452Y109320034D01*
X21467452Y109320035D01*
X21523567Y109397269D01*
X21605747Y109558553D01*
X21605748Y109558556D01*
X21661681Y109730703D01*
X21661958Y109732450D01*
X21662248Y109733064D01*
X21662819Y109735439D01*
X21663317Y109735320D01*
X21691877Y109795589D01*
X21751183Y109832530D01*
X21821046Y109831543D01*
X21879284Y109792942D01*
X21906906Y109732475D01*
X21909059Y109718884D01*
X21909059Y109718882D01*
X21967454Y109539164D01*
X22003668Y109468091D01*
X22053240Y109370801D01*
X22164310Y109217927D01*
X22297927Y109084310D01*
X22450801Y108973240D01*
X22509136Y108943517D01*
X22619163Y108887455D01*
X22619165Y108887455D01*
X22619168Y108887453D01*
X22692527Y108863617D01*
X22798881Y108829060D01*
X22985514Y108799500D01*
X22985519Y108799500D01*
X23174486Y108799500D01*
X23361118Y108829060D01*
X23540832Y108887453D01*
X23709199Y108973240D01*
X23862073Y109084310D01*
X23995690Y109217927D01*
X24106760Y109370801D01*
X24192547Y109539168D01*
X24232069Y109660805D01*
X24271507Y109718479D01*
X24335866Y109745677D01*
X24404712Y109733762D01*
X24456188Y109686518D01*
X24467931Y109660804D01*
X24507454Y109539164D01*
X24543668Y109468091D01*
X24593240Y109370801D01*
X24704310Y109217927D01*
X24837927Y109084310D01*
X24990801Y108973240D01*
X25049136Y108943517D01*
X25159163Y108887455D01*
X25159165Y108887455D01*
X25159168Y108887453D01*
X25232527Y108863617D01*
X25338881Y108829060D01*
X25525514Y108799500D01*
X25525519Y108799500D01*
X25714486Y108799500D01*
X25901118Y108829060D01*
X26080832Y108887453D01*
X26249199Y108973240D01*
X26402073Y109084310D01*
X26535690Y109217927D01*
X26646760Y109370801D01*
X26732547Y109539168D01*
X26772069Y109660805D01*
X26811507Y109718479D01*
X26875866Y109745677D01*
X26944712Y109733762D01*
X26996188Y109686518D01*
X27007931Y109660804D01*
X27047454Y109539164D01*
X27083668Y109468091D01*
X27133240Y109370801D01*
X27244310Y109217927D01*
X27377927Y109084310D01*
X27530801Y108973240D01*
X27589136Y108943517D01*
X27699163Y108887455D01*
X27699165Y108887455D01*
X27699168Y108887453D01*
X27772527Y108863617D01*
X27878881Y108829060D01*
X28065514Y108799500D01*
X28065519Y108799500D01*
X28254486Y108799500D01*
X28441118Y108829060D01*
X28620832Y108887453D01*
X28789199Y108973240D01*
X28942073Y109084310D01*
X29075690Y109217927D01*
X29186760Y109370801D01*
X29272547Y109539168D01*
X29312069Y109660805D01*
X29351507Y109718479D01*
X29415866Y109745677D01*
X29484712Y109733762D01*
X29536188Y109686518D01*
X29547931Y109660804D01*
X29587454Y109539164D01*
X29623668Y109468091D01*
X29673240Y109370801D01*
X29784310Y109217927D01*
X29917927Y109084310D01*
X30070801Y108973240D01*
X30129136Y108943517D01*
X30239163Y108887455D01*
X30239165Y108887455D01*
X30239168Y108887453D01*
X30312527Y108863617D01*
X30418881Y108829060D01*
X30605514Y108799500D01*
X30605519Y108799500D01*
X30794486Y108799500D01*
X30981118Y108829060D01*
X31160832Y108887453D01*
X31329199Y108973240D01*
X31482073Y109084310D01*
X31615690Y109217927D01*
X31726760Y109370801D01*
X31812547Y109539168D01*
X31852069Y109660805D01*
X31891507Y109718479D01*
X31955866Y109745677D01*
X32024712Y109733762D01*
X32076188Y109686518D01*
X32087931Y109660804D01*
X32127454Y109539164D01*
X32163668Y109468091D01*
X32213240Y109370801D01*
X32324310Y109217927D01*
X32457927Y109084310D01*
X32610801Y108973240D01*
X32731795Y108911591D01*
X32782591Y108863617D01*
X32799500Y108801106D01*
X32799500Y104050067D01*
X32823712Y103959703D01*
X32830200Y103935490D01*
X32830200Y103935489D01*
X32830201Y103935488D01*
X32889511Y103832761D01*
X32889513Y103832759D01*
X34621036Y102101235D01*
X34654521Y102039912D01*
X34649537Y101970220D01*
X34607665Y101914287D01*
X34542201Y101889870D01*
X34513958Y101891081D01*
X34454487Y101900500D01*
X34454481Y101900500D01*
X34265519Y101900500D01*
X34265514Y101900500D01*
X34078881Y101870941D01*
X33899163Y101812546D01*
X33730800Y101726760D01*
X33671355Y101683570D01*
X33577927Y101615690D01*
X33577925Y101615688D01*
X33577924Y101615688D01*
X33444312Y101482076D01*
X33444312Y101482075D01*
X33444310Y101482073D01*
X33405015Y101427988D01*
X33333240Y101329200D01*
X33247454Y101160837D01*
X33207931Y101039197D01*
X33168493Y100981522D01*
X33104134Y100954324D01*
X33035288Y100966239D01*
X32983812Y101013484D01*
X32972069Y101039197D01*
X32942054Y101131572D01*
X32932547Y101160832D01*
X32932545Y101160835D01*
X32932545Y101160837D01*
X32869784Y101284011D01*
X32846760Y101329199D01*
X32735690Y101482073D01*
X32602073Y101615690D01*
X32449199Y101726760D01*
X32442624Y101730110D01*
X32280836Y101812546D01*
X32101118Y101870941D01*
X31914486Y101900500D01*
X31914481Y101900500D01*
X31725519Y101900500D01*
X31725514Y101900500D01*
X31538881Y101870941D01*
X31359163Y101812546D01*
X31190800Y101726760D01*
X31131355Y101683570D01*
X31037927Y101615690D01*
X31037925Y101615688D01*
X31037924Y101615688D01*
X30904312Y101482076D01*
X30904312Y101482075D01*
X30904310Y101482073D01*
X30865015Y101427988D01*
X30793240Y101329200D01*
X30707454Y101160837D01*
X30667931Y101039197D01*
X30628493Y100981522D01*
X30564134Y100954324D01*
X30495288Y100966239D01*
X30443812Y101013484D01*
X30432069Y101039197D01*
X30402054Y101131572D01*
X30392547Y101160832D01*
X30392545Y101160835D01*
X30392545Y101160837D01*
X30329784Y101284011D01*
X30306760Y101329199D01*
X30195690Y101482073D01*
X30062073Y101615690D01*
X29909199Y101726760D01*
X29902624Y101730110D01*
X29740836Y101812546D01*
X29561118Y101870941D01*
X29374486Y101900500D01*
X29374481Y101900500D01*
X29185519Y101900500D01*
X29185514Y101900500D01*
X28998881Y101870941D01*
X28819163Y101812546D01*
X28650800Y101726760D01*
X28591355Y101683570D01*
X28497927Y101615690D01*
X28497925Y101615688D01*
X28497924Y101615688D01*
X28364312Y101482076D01*
X28364312Y101482075D01*
X28364310Y101482073D01*
X28325015Y101427988D01*
X28253240Y101329200D01*
X28167454Y101160837D01*
X28127931Y101039197D01*
X28088493Y100981522D01*
X28024134Y100954324D01*
X27955288Y100966239D01*
X27903812Y101013484D01*
X27892069Y101039197D01*
X27862054Y101131572D01*
X27852547Y101160832D01*
X27852545Y101160835D01*
X27852545Y101160837D01*
X27789784Y101284011D01*
X27766760Y101329199D01*
X27655690Y101482073D01*
X27522073Y101615690D01*
X27369199Y101726760D01*
X27362624Y101730110D01*
X27200836Y101812546D01*
X27021118Y101870941D01*
X26834486Y101900500D01*
X26834481Y101900500D01*
X26645519Y101900500D01*
X26645514Y101900500D01*
X26458881Y101870941D01*
X26279163Y101812546D01*
X26110800Y101726760D01*
X26051355Y101683570D01*
X25957927Y101615690D01*
X25957925Y101615688D01*
X25957924Y101615688D01*
X25824312Y101482076D01*
X25824312Y101482075D01*
X25824310Y101482073D01*
X25785015Y101427988D01*
X25713240Y101329200D01*
X25664659Y101233854D01*
X25616684Y101183058D01*
X25548863Y101166263D01*
X25482728Y101188801D01*
X25443689Y101233854D01*
X25383144Y101352680D01*
X25355051Y101407816D01*
X25355049Y101407819D01*
X25355048Y101407821D01*
X25230109Y101579787D01*
X25079786Y101730110D01*
X24907820Y101855049D01*
X24718414Y101951556D01*
X24718413Y101951557D01*
X24718412Y101951557D01*
X24516243Y102017246D01*
X24516241Y102017247D01*
X24516240Y102017247D01*
X24354957Y102042792D01*
X24306287Y102050500D01*
X24093713Y102050500D01*
X24045042Y102042792D01*
X23883760Y102017247D01*
X23681585Y101951556D01*
X23492179Y101855049D01*
X23320213Y101730110D01*
X23169890Y101579787D01*
X23044951Y101407821D01*
X22948444Y101218417D01*
X22938967Y101189247D01*
X22899529Y101131572D01*
X22835170Y101104374D01*
X22766323Y101116289D01*
X22714848Y101163534D01*
X22710551Y101171271D01*
X22643565Y101302735D01*
X22587453Y101379967D01*
X22587452Y101379968D01*
X22116610Y100909126D01*
X22060099Y101007007D01*
X21967007Y101100099D01*
X21869124Y101156612D01*
X22339965Y101627453D01*
X22339965Y101627455D01*
X22262734Y101683566D01*
X22101447Y101765748D01*
X22101444Y101765749D01*
X21929293Y101821683D01*
X21750506Y101850000D01*
X21569494Y101850000D01*
X21390706Y101821683D01*
X21218555Y101765749D01*
X21218552Y101765748D01*
X21057272Y101683570D01*
X20980033Y101627454D01*
X21450875Y101156612D01*
X21352993Y101100099D01*
X21259901Y101007007D01*
X21203388Y100909125D01*
X20732546Y101379967D01*
X20676430Y101302728D01*
X20594252Y101141448D01*
X20594251Y101141445D01*
X20538317Y100969294D01*
X20510000Y100790507D01*
X20510000Y100609494D01*
X20538317Y100430707D01*
X20594251Y100258556D01*
X20594252Y100258553D01*
X20676434Y100097266D01*
X20732545Y100020035D01*
X20732547Y100020035D01*
X21203388Y100490876D01*
X21259901Y100392993D01*
X21352993Y100299901D01*
X21450874Y100243389D01*
X20980032Y99772548D01*
X20980033Y99772547D01*
X21057265Y99716435D01*
X21218552Y99634253D01*
X21218555Y99634252D01*
X21390706Y99578318D01*
X21569494Y99550000D01*
X21750506Y99550000D01*
X21929293Y99578318D01*
X22101444Y99634252D01*
X22101447Y99634253D01*
X22262731Y99716433D01*
X22339965Y99772548D01*
X22339966Y99772548D01*
X21869125Y100243389D01*
X21967007Y100299901D01*
X22060099Y100392993D01*
X22116611Y100490876D01*
X22587452Y100020034D01*
X22587452Y100020035D01*
X22643567Y100097269D01*
X22710551Y100228730D01*
X22758526Y100279526D01*
X22826347Y100296321D01*
X22892482Y100273783D01*
X22935933Y100219068D01*
X22938967Y100210753D01*
X22948444Y100181586D01*
X23044951Y99992180D01*
X23169890Y99820214D01*
X23320213Y99669891D01*
X23492179Y99544952D01*
X23492181Y99544951D01*
X23492184Y99544949D01*
X23681588Y99448443D01*
X23883757Y99382754D01*
X24093713Y99349500D01*
X24093714Y99349500D01*
X24306286Y99349500D01*
X24306287Y99349500D01*
X24516243Y99382754D01*
X24718412Y99448443D01*
X24907816Y99544949D01*
X24968391Y99588959D01*
X25079786Y99669891D01*
X25079788Y99669894D01*
X25079792Y99669896D01*
X25230104Y99820208D01*
X25230106Y99820212D01*
X25230109Y99820214D01*
X25355048Y99992180D01*
X25355047Y99992180D01*
X25355051Y99992184D01*
X25443689Y100166148D01*
X25491663Y100216943D01*
X25559484Y100233738D01*
X25625619Y100211201D01*
X25664658Y100166148D01*
X25713240Y100070801D01*
X25824310Y99917927D01*
X25957927Y99784310D01*
X26110801Y99673240D01*
X26142725Y99656974D01*
X26279163Y99587455D01*
X26279165Y99587455D01*
X26279168Y99587453D01*
X26351136Y99564069D01*
X26458881Y99529060D01*
X26645514Y99499500D01*
X26645519Y99499500D01*
X26834486Y99499500D01*
X27021118Y99529060D01*
X27040027Y99535204D01*
X27200832Y99587453D01*
X27369199Y99673240D01*
X27522073Y99784310D01*
X27655690Y99917927D01*
X27766760Y100070801D01*
X27852547Y100239168D01*
X27892069Y100360805D01*
X27931507Y100418479D01*
X27995866Y100445677D01*
X28064712Y100433762D01*
X28116188Y100386518D01*
X28127931Y100360804D01*
X28167454Y100239164D01*
X28239754Y100097269D01*
X28253240Y100070801D01*
X28364310Y99917927D01*
X28497927Y99784310D01*
X28650801Y99673240D01*
X28682725Y99656974D01*
X28819163Y99587455D01*
X28819165Y99587455D01*
X28819168Y99587453D01*
X28891136Y99564069D01*
X28998881Y99529060D01*
X29185514Y99499500D01*
X29185519Y99499500D01*
X29374486Y99499500D01*
X29561118Y99529060D01*
X29580027Y99535204D01*
X29740832Y99587453D01*
X29909199Y99673240D01*
X30062073Y99784310D01*
X30195690Y99917927D01*
X30306760Y100070801D01*
X30392547Y100239168D01*
X30432069Y100360805D01*
X30471507Y100418479D01*
X30535866Y100445677D01*
X30604712Y100433762D01*
X30656188Y100386518D01*
X30667931Y100360804D01*
X30707454Y100239164D01*
X30779754Y100097269D01*
X30793240Y100070801D01*
X30904310Y99917927D01*
X31037927Y99784310D01*
X31190801Y99673240D01*
X31222725Y99656974D01*
X31359163Y99587455D01*
X31359165Y99587455D01*
X31359168Y99587453D01*
X31431136Y99564069D01*
X31538881Y99529060D01*
X31725514Y99499500D01*
X31725519Y99499500D01*
X31914486Y99499500D01*
X32101118Y99529060D01*
X32120027Y99535204D01*
X32280832Y99587453D01*
X32449199Y99673240D01*
X32602073Y99784310D01*
X32735690Y99917927D01*
X32846760Y100070801D01*
X32932547Y100239168D01*
X32972069Y100360805D01*
X33011507Y100418479D01*
X33075866Y100445677D01*
X33144712Y100433762D01*
X33196188Y100386518D01*
X33207931Y100360804D01*
X33247454Y100239164D01*
X33319754Y100097269D01*
X33333240Y100070801D01*
X33444310Y99917927D01*
X33577927Y99784310D01*
X33730801Y99673240D01*
X33762725Y99656974D01*
X33899163Y99587455D01*
X33899165Y99587455D01*
X33899168Y99587453D01*
X33971136Y99564069D01*
X34078881Y99529060D01*
X34265514Y99499500D01*
X34265519Y99499500D01*
X34454486Y99499500D01*
X34641118Y99529060D01*
X34660027Y99535204D01*
X34820832Y99587453D01*
X34989199Y99673240D01*
X35142073Y99784310D01*
X35275690Y99917927D01*
X35386760Y100070801D01*
X35472547Y100239168D01*
X35512069Y100360805D01*
X35551507Y100418479D01*
X35615866Y100445677D01*
X35684712Y100433762D01*
X35736188Y100386518D01*
X35747931Y100360804D01*
X35787454Y100239164D01*
X35859754Y100097269D01*
X35873240Y100070801D01*
X35984310Y99917927D01*
X36117927Y99784310D01*
X36270801Y99673240D01*
X36302725Y99656974D01*
X36439163Y99587455D01*
X36439165Y99587455D01*
X36439168Y99587453D01*
X36511136Y99564069D01*
X36618881Y99529060D01*
X36805514Y99499500D01*
X36805519Y99499500D01*
X36994486Y99499500D01*
X37181118Y99529060D01*
X37200027Y99535204D01*
X37360832Y99587453D01*
X37529199Y99673240D01*
X37682073Y99784310D01*
X37815690Y99917927D01*
X37926760Y100070801D01*
X38012547Y100239168D01*
X38052069Y100360805D01*
X38091507Y100418479D01*
X38155866Y100445677D01*
X38224712Y100433762D01*
X38276188Y100386518D01*
X38287931Y100360804D01*
X38327454Y100239164D01*
X38399754Y100097269D01*
X38413240Y100070801D01*
X38524310Y99917927D01*
X38657927Y99784310D01*
X38810801Y99673240D01*
X38842725Y99656974D01*
X38979163Y99587455D01*
X38979165Y99587455D01*
X38979168Y99587453D01*
X39051136Y99564069D01*
X39158881Y99529060D01*
X39345514Y99499500D01*
X39345519Y99499500D01*
X39534486Y99499500D01*
X39721118Y99529060D01*
X39740027Y99535204D01*
X39900832Y99587453D01*
X40069199Y99673240D01*
X40222073Y99784310D01*
X40355690Y99917927D01*
X40466760Y100070801D01*
X40552547Y100239168D01*
X40592069Y100360805D01*
X40631507Y100418479D01*
X40695866Y100445677D01*
X40764712Y100433762D01*
X40816188Y100386518D01*
X40827931Y100360804D01*
X40867454Y100239164D01*
X40939754Y100097269D01*
X40953240Y100070801D01*
X41064310Y99917927D01*
X41197927Y99784310D01*
X41350801Y99673240D01*
X41382725Y99656974D01*
X41519163Y99587455D01*
X41519165Y99587455D01*
X41519168Y99587453D01*
X41591136Y99564069D01*
X41698881Y99529060D01*
X41885514Y99499500D01*
X41885519Y99499500D01*
X42074486Y99499500D01*
X42261118Y99529060D01*
X42280027Y99535204D01*
X42440832Y99587453D01*
X42609199Y99673240D01*
X42762073Y99784310D01*
X42895690Y99917927D01*
X43006760Y100070801D01*
X43092547Y100239168D01*
X43132069Y100360805D01*
X43171507Y100418479D01*
X43235866Y100445677D01*
X43304712Y100433762D01*
X43356188Y100386518D01*
X43367931Y100360804D01*
X43407454Y100239164D01*
X43479754Y100097269D01*
X43493240Y100070801D01*
X43604310Y99917927D01*
X43737927Y99784310D01*
X43890801Y99673240D01*
X43922725Y99656974D01*
X44059163Y99587455D01*
X44059165Y99587455D01*
X44059168Y99587453D01*
X44131136Y99564069D01*
X44238881Y99529060D01*
X44425514Y99499500D01*
X44425519Y99499500D01*
X44614486Y99499500D01*
X44801118Y99529060D01*
X44820027Y99535204D01*
X44980832Y99587453D01*
X45149199Y99673240D01*
X45302073Y99784310D01*
X45435690Y99917927D01*
X45546760Y100070801D01*
X45632547Y100239168D01*
X45672069Y100360805D01*
X45711507Y100418479D01*
X45775866Y100445677D01*
X45844712Y100433762D01*
X45896188Y100386518D01*
X45907931Y100360804D01*
X45947454Y100239164D01*
X46019754Y100097269D01*
X46033240Y100070801D01*
X46144310Y99917927D01*
X46277927Y99784310D01*
X46430801Y99673240D01*
X46462725Y99656974D01*
X46599163Y99587455D01*
X46599165Y99587455D01*
X46599168Y99587453D01*
X46671136Y99564069D01*
X46778881Y99529060D01*
X46965514Y99499500D01*
X46965519Y99499500D01*
X47154486Y99499500D01*
X47341118Y99529060D01*
X47360027Y99535204D01*
X47520832Y99587453D01*
X47689199Y99673240D01*
X47842073Y99784310D01*
X47975690Y99917927D01*
X48086760Y100070801D01*
X48172547Y100239168D01*
X48212069Y100360805D01*
X48251507Y100418479D01*
X48315866Y100445677D01*
X48384712Y100433762D01*
X48436188Y100386518D01*
X48447931Y100360804D01*
X48487454Y100239164D01*
X48559754Y100097269D01*
X48573240Y100070801D01*
X48684310Y99917927D01*
X48817927Y99784310D01*
X48970801Y99673240D01*
X49002725Y99656974D01*
X49139163Y99587455D01*
X49139165Y99587455D01*
X49139168Y99587453D01*
X49211136Y99564069D01*
X49318881Y99529060D01*
X49505514Y99499500D01*
X49505519Y99499500D01*
X49694486Y99499500D01*
X49881118Y99529060D01*
X49900027Y99535204D01*
X50060832Y99587453D01*
X50229199Y99673240D01*
X50382073Y99784310D01*
X50515690Y99917927D01*
X50626760Y100070801D01*
X50712547Y100239168D01*
X50752069Y100360805D01*
X50791507Y100418479D01*
X50855866Y100445677D01*
X50924712Y100433762D01*
X50976188Y100386518D01*
X50987931Y100360804D01*
X51027454Y100239164D01*
X51099754Y100097269D01*
X51113240Y100070801D01*
X51224310Y99917927D01*
X51357927Y99784310D01*
X51510801Y99673240D01*
X51542725Y99656974D01*
X51679163Y99587455D01*
X51679165Y99587455D01*
X51679168Y99587453D01*
X51751136Y99564069D01*
X51858881Y99529060D01*
X52045514Y99499500D01*
X52045519Y99499500D01*
X52234486Y99499500D01*
X52421118Y99529060D01*
X52440027Y99535204D01*
X52600832Y99587453D01*
X52769199Y99673240D01*
X52922073Y99784310D01*
X53055690Y99917927D01*
X53166760Y100070801D01*
X53252547Y100239168D01*
X53292069Y100360805D01*
X53331507Y100418479D01*
X53395866Y100445677D01*
X53464712Y100433762D01*
X53516188Y100386518D01*
X53527931Y100360804D01*
X53567454Y100239164D01*
X53639754Y100097269D01*
X53653240Y100070801D01*
X53764310Y99917927D01*
X53897927Y99784310D01*
X54050801Y99673240D01*
X54082725Y99656974D01*
X54219163Y99587455D01*
X54219165Y99587455D01*
X54219168Y99587453D01*
X54291136Y99564069D01*
X54398881Y99529060D01*
X54585514Y99499500D01*
X54585519Y99499500D01*
X54774486Y99499500D01*
X54961118Y99529060D01*
X54980027Y99535204D01*
X55140832Y99587453D01*
X55309199Y99673240D01*
X55462073Y99784310D01*
X55595690Y99917927D01*
X55706760Y100070801D01*
X55792547Y100239168D01*
X55832069Y100360805D01*
X55871507Y100418479D01*
X55935866Y100445677D01*
X56004712Y100433762D01*
X56056188Y100386518D01*
X56067931Y100360804D01*
X56107454Y100239164D01*
X56179754Y100097269D01*
X56193240Y100070801D01*
X56304310Y99917927D01*
X56437927Y99784310D01*
X56590801Y99673240D01*
X56622725Y99656974D01*
X56759163Y99587455D01*
X56759165Y99587455D01*
X56759168Y99587453D01*
X56831136Y99564069D01*
X56938881Y99529060D01*
X57125514Y99499500D01*
X57125519Y99499500D01*
X57314486Y99499500D01*
X57501118Y99529060D01*
X57520027Y99535204D01*
X57680832Y99587453D01*
X57680835Y99587455D01*
X57685465Y99588959D01*
X57686050Y99587158D01*
X57747504Y99593771D01*
X57809986Y99562503D01*
X57845645Y99502418D01*
X57849500Y99471739D01*
X57849500Y99435931D01*
X57849500Y99435929D01*
X57849499Y99435929D01*
X57874497Y99310262D01*
X57874499Y99310256D01*
X57923533Y99191876D01*
X57923538Y99191867D01*
X57994723Y99085332D01*
X57994725Y99085329D01*
X58013179Y99066876D01*
X58046666Y99005554D01*
X58049500Y98979193D01*
X58049500Y76424597D01*
X58029815Y76357558D01*
X57977011Y76311803D01*
X57907853Y76301859D01*
X57852616Y76324278D01*
X57849202Y76326759D01*
X57680836Y76412546D01*
X57501118Y76470941D01*
X57314486Y76500500D01*
X57314481Y76500500D01*
X57125519Y76500500D01*
X57125514Y76500500D01*
X56938881Y76470941D01*
X56759163Y76412546D01*
X56590800Y76326760D01*
X56531355Y76283570D01*
X56437927Y76215690D01*
X56437925Y76215688D01*
X56437924Y76215688D01*
X56304312Y76082076D01*
X56304312Y76082075D01*
X56304310Y76082073D01*
X56256610Y76016421D01*
X56193240Y75929200D01*
X56107454Y75760837D01*
X56067931Y75639197D01*
X56028493Y75581522D01*
X55964134Y75554324D01*
X55895288Y75566239D01*
X55843812Y75613484D01*
X55832069Y75639197D01*
X55792545Y75760837D01*
X55747290Y75849653D01*
X55706760Y75929199D01*
X55595690Y76082073D01*
X55462073Y76215690D01*
X55309199Y76326760D01*
X55286358Y76338398D01*
X55140836Y76412546D01*
X54961118Y76470941D01*
X54774486Y76500500D01*
X54774481Y76500500D01*
X54585519Y76500500D01*
X54585514Y76500500D01*
X54398881Y76470941D01*
X54219163Y76412546D01*
X54050800Y76326760D01*
X53991355Y76283570D01*
X53897927Y76215690D01*
X53897925Y76215688D01*
X53897924Y76215688D01*
X53764312Y76082076D01*
X53764312Y76082075D01*
X53764310Y76082073D01*
X53716610Y76016421D01*
X53653240Y75929200D01*
X53567454Y75760837D01*
X53527931Y75639197D01*
X53488493Y75581522D01*
X53424134Y75554324D01*
X53355288Y75566239D01*
X53303812Y75613484D01*
X53292069Y75639197D01*
X53252545Y75760837D01*
X53207290Y75849653D01*
X53166760Y75929199D01*
X53055690Y76082073D01*
X52922073Y76215690D01*
X52769199Y76326760D01*
X52746358Y76338398D01*
X52600836Y76412546D01*
X52421118Y76470941D01*
X52234486Y76500500D01*
X52234481Y76500500D01*
X52045519Y76500500D01*
X52045514Y76500500D01*
X51858881Y76470941D01*
X51679163Y76412546D01*
X51510800Y76326760D01*
X51451355Y76283570D01*
X51357927Y76215690D01*
X51357925Y76215688D01*
X51357924Y76215688D01*
X51224312Y76082076D01*
X51224312Y76082075D01*
X51224310Y76082073D01*
X51176610Y76016421D01*
X51113240Y75929200D01*
X51027454Y75760837D01*
X50987931Y75639197D01*
X50948493Y75581522D01*
X50884134Y75554324D01*
X50815288Y75566239D01*
X50763812Y75613484D01*
X50752069Y75639197D01*
X50712545Y75760837D01*
X50667290Y75849653D01*
X50626760Y75929199D01*
X50515690Y76082073D01*
X50382073Y76215690D01*
X50229199Y76326760D01*
X50206358Y76338398D01*
X50060836Y76412546D01*
X49881118Y76470941D01*
X49694486Y76500500D01*
X49694481Y76500500D01*
X49505519Y76500500D01*
X49505514Y76500500D01*
X49318881Y76470941D01*
X49139163Y76412546D01*
X48970800Y76326760D01*
X48911355Y76283570D01*
X48817927Y76215690D01*
X48817925Y76215688D01*
X48817924Y76215688D01*
X48684312Y76082076D01*
X48684312Y76082075D01*
X48684310Y76082073D01*
X48636610Y76016421D01*
X48573240Y75929200D01*
X48487454Y75760837D01*
X48447931Y75639197D01*
X48408493Y75581522D01*
X48344134Y75554324D01*
X48275288Y75566239D01*
X48223812Y75613484D01*
X48212069Y75639197D01*
X48172545Y75760837D01*
X48127290Y75849653D01*
X48086760Y75929199D01*
X47975690Y76082073D01*
X47842073Y76215690D01*
X47689199Y76326760D01*
X47666358Y76338398D01*
X47520836Y76412546D01*
X47341118Y76470941D01*
X47154486Y76500500D01*
X47154481Y76500500D01*
X46965519Y76500500D01*
X46965514Y76500500D01*
X46778881Y76470941D01*
X46599163Y76412546D01*
X46430800Y76326760D01*
X46371355Y76283570D01*
X46277927Y76215690D01*
X46277925Y76215688D01*
X46277924Y76215688D01*
X46144312Y76082076D01*
X46144312Y76082075D01*
X46144310Y76082073D01*
X46096610Y76016421D01*
X46033240Y75929200D01*
X45947454Y75760837D01*
X45907931Y75639197D01*
X45868493Y75581522D01*
X45804134Y75554324D01*
X45735288Y75566239D01*
X45683812Y75613484D01*
X45672069Y75639197D01*
X45632545Y75760837D01*
X45587290Y75849653D01*
X45546760Y75929199D01*
X45435690Y76082073D01*
X45302073Y76215690D01*
X45149199Y76326760D01*
X45126358Y76338398D01*
X44980836Y76412546D01*
X44801118Y76470941D01*
X44614486Y76500500D01*
X44614481Y76500500D01*
X44425519Y76500500D01*
X44425514Y76500500D01*
X44238881Y76470941D01*
X44059163Y76412546D01*
X43890800Y76326760D01*
X43831355Y76283570D01*
X43737927Y76215690D01*
X43737925Y76215688D01*
X43737924Y76215688D01*
X43604312Y76082076D01*
X43604312Y76082075D01*
X43604310Y76082073D01*
X43556610Y76016421D01*
X43493240Y75929200D01*
X43407454Y75760837D01*
X43367931Y75639197D01*
X43328493Y75581522D01*
X43264134Y75554324D01*
X43195288Y75566239D01*
X43143812Y75613484D01*
X43132069Y75639197D01*
X43092545Y75760837D01*
X43047290Y75849653D01*
X43006760Y75929199D01*
X42895690Y76082073D01*
X42762073Y76215690D01*
X42609199Y76326760D01*
X42586358Y76338398D01*
X42440836Y76412546D01*
X42261118Y76470941D01*
X42074486Y76500500D01*
X42074481Y76500500D01*
X41885519Y76500500D01*
X41885514Y76500500D01*
X41698881Y76470941D01*
X41519163Y76412546D01*
X41350800Y76326760D01*
X41291355Y76283570D01*
X41197927Y76215690D01*
X41197925Y76215688D01*
X41197924Y76215688D01*
X41064312Y76082076D01*
X41064312Y76082075D01*
X41064310Y76082073D01*
X41016610Y76016421D01*
X40953240Y75929200D01*
X40867454Y75760837D01*
X40827931Y75639197D01*
X40788493Y75581522D01*
X40724134Y75554324D01*
X40655288Y75566239D01*
X40603812Y75613484D01*
X40592069Y75639197D01*
X40552545Y75760837D01*
X40507290Y75849653D01*
X40466760Y75929199D01*
X40355690Y76082073D01*
X40222073Y76215690D01*
X40069199Y76326760D01*
X40046358Y76338398D01*
X39900836Y76412546D01*
X39721118Y76470941D01*
X39534486Y76500500D01*
X39534481Y76500500D01*
X39345519Y76500500D01*
X39345514Y76500500D01*
X39158881Y76470941D01*
X38979163Y76412546D01*
X38810800Y76326760D01*
X38751355Y76283570D01*
X38657927Y76215690D01*
X38657925Y76215688D01*
X38657924Y76215688D01*
X38524312Y76082076D01*
X38524312Y76082075D01*
X38524310Y76082073D01*
X38476610Y76016421D01*
X38413240Y75929200D01*
X38327454Y75760837D01*
X38287931Y75639197D01*
X38248493Y75581522D01*
X38184134Y75554324D01*
X38115288Y75566239D01*
X38063812Y75613484D01*
X38052069Y75639197D01*
X38012545Y75760837D01*
X37967290Y75849653D01*
X37926760Y75929199D01*
X37815690Y76082073D01*
X37682073Y76215690D01*
X37529199Y76326760D01*
X37506358Y76338398D01*
X37360836Y76412546D01*
X37181118Y76470941D01*
X36994486Y76500500D01*
X36994481Y76500500D01*
X36805519Y76500500D01*
X36805514Y76500500D01*
X36618881Y76470941D01*
X36439163Y76412546D01*
X36270800Y76326760D01*
X36211355Y76283570D01*
X36117927Y76215690D01*
X36117925Y76215688D01*
X36117924Y76215688D01*
X35984312Y76082076D01*
X35984312Y76082075D01*
X35984310Y76082073D01*
X35936610Y76016421D01*
X35873240Y75929200D01*
X35787454Y75760837D01*
X35747931Y75639197D01*
X35708493Y75581522D01*
X35644134Y75554324D01*
X35575288Y75566239D01*
X35523812Y75613484D01*
X35512069Y75639197D01*
X35472545Y75760837D01*
X35427290Y75849653D01*
X35386760Y75929199D01*
X35275690Y76082073D01*
X35142073Y76215690D01*
X34989199Y76326760D01*
X34966358Y76338398D01*
X34820836Y76412546D01*
X34641118Y76470941D01*
X34454486Y76500500D01*
X34454481Y76500500D01*
X34265519Y76500500D01*
X34265514Y76500500D01*
X34078881Y76470941D01*
X33899163Y76412546D01*
X33730800Y76326760D01*
X33671355Y76283570D01*
X33577927Y76215690D01*
X33577925Y76215688D01*
X33577924Y76215688D01*
X33444312Y76082076D01*
X33444312Y76082075D01*
X33444310Y76082073D01*
X33396610Y76016421D01*
X33333240Y75929200D01*
X33247454Y75760837D01*
X33207931Y75639197D01*
X33168493Y75581522D01*
X33104134Y75554324D01*
X33035288Y75566239D01*
X32983812Y75613484D01*
X32972069Y75639197D01*
X32932545Y75760837D01*
X32887290Y75849653D01*
X32846760Y75929199D01*
X32735690Y76082073D01*
X32602073Y76215690D01*
X32449199Y76326760D01*
X32426358Y76338398D01*
X32280836Y76412546D01*
X32101118Y76470941D01*
X31914486Y76500500D01*
X31914481Y76500500D01*
X31725519Y76500500D01*
X31725514Y76500500D01*
X31538881Y76470941D01*
X31359163Y76412546D01*
X31190800Y76326760D01*
X31131355Y76283570D01*
X31037927Y76215690D01*
X31037925Y76215688D01*
X31037924Y76215688D01*
X30904312Y76082076D01*
X30904312Y76082075D01*
X30904310Y76082073D01*
X30856610Y76016421D01*
X30793240Y75929200D01*
X30707454Y75760837D01*
X30667931Y75639197D01*
X30628493Y75581522D01*
X30564134Y75554324D01*
X30495288Y75566239D01*
X30443812Y75613484D01*
X30432069Y75639197D01*
X30392545Y75760837D01*
X30347290Y75849653D01*
X30306760Y75929199D01*
X30195690Y76082073D01*
X30062073Y76215690D01*
X29909199Y76326760D01*
X29886358Y76338398D01*
X29740836Y76412546D01*
X29561118Y76470941D01*
X29374486Y76500500D01*
X29374481Y76500500D01*
X29185519Y76500500D01*
X29185514Y76500500D01*
X28998881Y76470941D01*
X28819163Y76412546D01*
X28650800Y76326760D01*
X28591355Y76283570D01*
X28497927Y76215690D01*
X28497925Y76215688D01*
X28497924Y76215688D01*
X28364312Y76082076D01*
X28364312Y76082075D01*
X28364310Y76082073D01*
X28316610Y76016421D01*
X28253240Y75929200D01*
X28167454Y75760837D01*
X28127931Y75639197D01*
X28088493Y75581522D01*
X28024134Y75554324D01*
X27955288Y75566239D01*
X27903812Y75613484D01*
X27892069Y75639197D01*
X27852545Y75760837D01*
X27807290Y75849653D01*
X27766760Y75929199D01*
X27655690Y76082073D01*
X27522073Y76215690D01*
X27369199Y76326760D01*
X27346358Y76338398D01*
X27200836Y76412546D01*
X27021118Y76470941D01*
X26834486Y76500500D01*
X26834481Y76500500D01*
X26645519Y76500500D01*
X26645514Y76500500D01*
X26458881Y76470941D01*
X26279163Y76412546D01*
X26110800Y76326760D01*
X26051355Y76283570D01*
X25957927Y76215690D01*
X25957925Y76215688D01*
X25957924Y76215688D01*
X25824312Y76082076D01*
X25824312Y76082075D01*
X25824310Y76082073D01*
X25776610Y76016421D01*
X25713240Y75929200D01*
X25627454Y75760837D01*
X25569059Y75581119D01*
X25569059Y75581118D01*
X25566906Y75567525D01*
X25536973Y75504392D01*
X25477660Y75467464D01*
X25407797Y75468466D01*
X25349567Y75507079D01*
X25323272Y75564670D01*
X25322819Y75564561D01*
X25322261Y75566885D01*
X25321958Y75567549D01*
X25321681Y75569299D01*
X25265748Y75741445D01*
X25265747Y75741448D01*
X25183565Y75902735D01*
X25127453Y75979967D01*
X25127452Y75979968D01*
X24656610Y75509126D01*
X24600099Y75607007D01*
X24507007Y75700099D01*
X24409124Y75756612D01*
X24879965Y76227453D01*
X24879965Y76227455D01*
X24802734Y76283566D01*
X24641447Y76365748D01*
X24641444Y76365749D01*
X24469293Y76421683D01*
X24290506Y76450000D01*
X24109494Y76450000D01*
X23930706Y76421683D01*
X23758555Y76365749D01*
X23758552Y76365748D01*
X23597272Y76283570D01*
X23520033Y76227454D01*
X23990875Y75756612D01*
X23892993Y75700099D01*
X23799901Y75607007D01*
X23743388Y75509125D01*
X23272546Y75979967D01*
X23216430Y75902728D01*
X23134252Y75741448D01*
X23134251Y75741445D01*
X23078317Y75569294D01*
X23052473Y75406121D01*
X23022544Y75342986D01*
X22963232Y75306055D01*
X22893370Y75307053D01*
X22835137Y75345663D01*
X22807527Y75406121D01*
X22781682Y75569294D01*
X22725748Y75741445D01*
X22725747Y75741448D01*
X22643565Y75902735D01*
X22587453Y75979967D01*
X22587452Y75979968D01*
X22116610Y75509126D01*
X22060099Y75607007D01*
X21967007Y75700099D01*
X21869124Y75756612D01*
X22339965Y76227453D01*
X22339965Y76227455D01*
X22262734Y76283566D01*
X22101447Y76365748D01*
X22101444Y76365749D01*
X21929293Y76421683D01*
X21750506Y76450000D01*
X21569494Y76450000D01*
X21390706Y76421683D01*
X21218555Y76365749D01*
X21218552Y76365748D01*
X21057272Y76283570D01*
X20980033Y76227454D01*
X21450875Y75756612D01*
X21352993Y75700099D01*
X21259901Y75607007D01*
X21203388Y75509125D01*
X20732546Y75979967D01*
X20676430Y75902728D01*
X20594252Y75741448D01*
X20594251Y75741445D01*
X20538317Y75569294D01*
X20510000Y75390507D01*
X20510000Y75209494D01*
X20538317Y75030707D01*
X20594251Y74858556D01*
X20594252Y74858553D01*
X20676434Y74697266D01*
X20732545Y74620035D01*
X20732547Y74620035D01*
X21203388Y75090876D01*
X21259901Y74992993D01*
X21352993Y74899901D01*
X21450874Y74843389D01*
X20980032Y74372548D01*
X20980033Y74372547D01*
X21057265Y74316435D01*
X21218552Y74234253D01*
X21218555Y74234252D01*
X21390706Y74178318D01*
X21569494Y74150000D01*
X21750506Y74150000D01*
X21929293Y74178318D01*
X22101444Y74234252D01*
X22101447Y74234253D01*
X22262731Y74316433D01*
X22339965Y74372548D01*
X22339966Y74372548D01*
X21869125Y74843389D01*
X21967007Y74899901D01*
X22060099Y74992993D01*
X22116611Y75090876D01*
X22587452Y74620034D01*
X22587452Y74620035D01*
X22643567Y74697269D01*
X22725747Y74858553D01*
X22725748Y74858556D01*
X22781682Y75030707D01*
X22807527Y75193880D01*
X22837456Y75257015D01*
X22896768Y75293946D01*
X22966630Y75292948D01*
X23024863Y75254338D01*
X23052473Y75193880D01*
X23078317Y75030707D01*
X23134251Y74858556D01*
X23134252Y74858553D01*
X23216434Y74697266D01*
X23272545Y74620035D01*
X23272547Y74620035D01*
X23743388Y75090876D01*
X23799901Y74992993D01*
X23892993Y74899901D01*
X23990874Y74843389D01*
X23520032Y74372548D01*
X23520033Y74372547D01*
X23597265Y74316435D01*
X23758552Y74234253D01*
X23758555Y74234252D01*
X23930706Y74178318D01*
X24109494Y74150000D01*
X24290506Y74150000D01*
X24469293Y74178318D01*
X24641444Y74234252D01*
X24641447Y74234253D01*
X24802731Y74316433D01*
X24879965Y74372548D01*
X24879966Y74372548D01*
X24409125Y74843389D01*
X24507007Y74899901D01*
X24600099Y74992993D01*
X24656611Y75090876D01*
X25127452Y74620034D01*
X25127452Y74620035D01*
X25183567Y74697269D01*
X25265747Y74858553D01*
X25265748Y74858556D01*
X25321681Y75030703D01*
X25321958Y75032450D01*
X25322248Y75033064D01*
X25322819Y75035439D01*
X25323317Y75035320D01*
X25351877Y75095589D01*
X25411183Y75132530D01*
X25481046Y75131543D01*
X25539284Y75092942D01*
X25566906Y75032475D01*
X25569059Y75018884D01*
X25569059Y75018882D01*
X25627454Y74839164D01*
X25699754Y74697269D01*
X25713240Y74670801D01*
X25824310Y74517927D01*
X25957927Y74384310D01*
X26110801Y74273240D01*
X26178405Y74238794D01*
X26279163Y74187455D01*
X26279165Y74187455D01*
X26279168Y74187453D01*
X26375497Y74156154D01*
X26458881Y74129060D01*
X26645514Y74099500D01*
X26645519Y74099500D01*
X26834486Y74099500D01*
X27021118Y74129060D01*
X27200832Y74187453D01*
X27369199Y74273240D01*
X27522073Y74384310D01*
X27655690Y74517927D01*
X27766760Y74670801D01*
X27852547Y74839168D01*
X27892069Y74960805D01*
X27931507Y75018479D01*
X27995866Y75045677D01*
X28064712Y75033762D01*
X28116188Y74986518D01*
X28127931Y74960804D01*
X28167454Y74839164D01*
X28239754Y74697269D01*
X28253240Y74670801D01*
X28364310Y74517927D01*
X28497927Y74384310D01*
X28650801Y74273240D01*
X28718405Y74238794D01*
X28819163Y74187455D01*
X28819165Y74187455D01*
X28819168Y74187453D01*
X28915497Y74156154D01*
X28998881Y74129060D01*
X29185514Y74099500D01*
X29185519Y74099500D01*
X29374486Y74099500D01*
X29561118Y74129060D01*
X29740832Y74187453D01*
X29909199Y74273240D01*
X30062073Y74384310D01*
X30195690Y74517927D01*
X30306760Y74670801D01*
X30392547Y74839168D01*
X30432069Y74960805D01*
X30471507Y75018479D01*
X30535866Y75045677D01*
X30604712Y75033762D01*
X30656188Y74986518D01*
X30667931Y74960804D01*
X30707454Y74839164D01*
X30779754Y74697269D01*
X30793240Y74670801D01*
X30904310Y74517927D01*
X31037927Y74384310D01*
X31070714Y74360489D01*
X31190796Y74273243D01*
X31190797Y74273243D01*
X31190801Y74273240D01*
X31231795Y74252353D01*
X31282590Y74204381D01*
X31299500Y74141869D01*
X31299500Y62878189D01*
X31313613Y62825523D01*
X31313614Y62825518D01*
X31330199Y62763616D01*
X31330201Y62763613D01*
X31389511Y62660886D01*
X31389513Y62660884D01*
X33777525Y60272872D01*
X33811010Y60211549D01*
X33812317Y60204589D01*
X33829059Y60098886D01*
X33829060Y60098882D01*
X33887453Y59919168D01*
X33973240Y59750801D01*
X34084310Y59597927D01*
X34217927Y59464310D01*
X34370801Y59353240D01*
X34450347Y59312710D01*
X34539163Y59267455D01*
X34539165Y59267455D01*
X34539168Y59267453D01*
X34628734Y59238351D01*
X34660803Y59227931D01*
X34718478Y59188493D01*
X34745676Y59124134D01*
X34733761Y59055288D01*
X34686516Y59003812D01*
X34660803Y58992069D01*
X34539163Y58952546D01*
X34370800Y58866760D01*
X34283579Y58803390D01*
X34217927Y58755690D01*
X34217925Y58755688D01*
X34217924Y58755688D01*
X34084312Y58622076D01*
X34084312Y58622075D01*
X34084310Y58622073D01*
X34053547Y58579731D01*
X33973240Y58469200D01*
X33887454Y58300837D01*
X33829059Y58121119D01*
X33799500Y57934487D01*
X33799500Y57745514D01*
X33829059Y57558882D01*
X33887454Y57379164D01*
X33973240Y57210801D01*
X34084310Y57057927D01*
X34217927Y56924310D01*
X34370801Y56813240D01*
X34450347Y56772710D01*
X34539163Y56727455D01*
X34539165Y56727455D01*
X34539168Y56727453D01*
X34635497Y56696154D01*
X34718881Y56669060D01*
X34905514Y56639500D01*
X34905519Y56639500D01*
X35094486Y56639500D01*
X35281118Y56669060D01*
X35460832Y56727453D01*
X35629199Y56813240D01*
X35782073Y56924310D01*
X35915690Y57057927D01*
X36026760Y57210801D01*
X36112547Y57379168D01*
X36170940Y57558882D01*
X36200500Y57745514D01*
X36200500Y57934487D01*
X36170940Y58121119D01*
X36119478Y58279500D01*
X36112547Y58300832D01*
X36112545Y58300835D01*
X36112545Y58300837D01*
X36030573Y58461715D01*
X36026760Y58469199D01*
X35915690Y58622073D01*
X35782073Y58755690D01*
X35629199Y58866760D01*
X35583007Y58890296D01*
X35460836Y58952546D01*
X35386472Y58976709D01*
X35339195Y58992070D01*
X35281521Y59031507D01*
X35254323Y59095866D01*
X35266238Y59164712D01*
X35313482Y59216188D01*
X35339194Y59227931D01*
X35460832Y59267453D01*
X35629199Y59353240D01*
X35782073Y59464310D01*
X35915690Y59597927D01*
X36026760Y59750801D01*
X36112547Y59919168D01*
X36170940Y60098882D01*
X36182264Y60170381D01*
X36200500Y60285514D01*
X36200500Y60474487D01*
X36170940Y60661119D01*
X36135562Y60770000D01*
X36112547Y60840832D01*
X36112545Y60840835D01*
X36112545Y60840837D01*
X36067290Y60929653D01*
X36026760Y61009199D01*
X35915690Y61162073D01*
X35782073Y61295690D01*
X35629199Y61406760D01*
X35603212Y61420001D01*
X35460836Y61492546D01*
X35386472Y61516709D01*
X35339195Y61532070D01*
X35281521Y61571507D01*
X35254323Y61635866D01*
X35266238Y61704712D01*
X35313482Y61756188D01*
X35339194Y61767931D01*
X35460832Y61807453D01*
X35629199Y61893240D01*
X35782073Y62004310D01*
X35915690Y62137927D01*
X36026760Y62290801D01*
X36112547Y62459168D01*
X36170940Y62638882D01*
X36176428Y62673534D01*
X36200500Y62825516D01*
X36200500Y63014487D01*
X36170940Y63201119D01*
X36112545Y63380837D01*
X36026759Y63549200D01*
X36020268Y63558134D01*
X35915690Y63702073D01*
X35782073Y63835690D01*
X35629199Y63946760D01*
X35460836Y64032546D01*
X35386472Y64056709D01*
X35339195Y64072070D01*
X35281521Y64111507D01*
X35254323Y64175866D01*
X35266238Y64244712D01*
X35313482Y64296188D01*
X35339194Y64307931D01*
X35460832Y64347453D01*
X35629199Y64433240D01*
X35782073Y64544310D01*
X35915690Y64677927D01*
X36026760Y64830801D01*
X36112547Y64999168D01*
X36170940Y65178882D01*
X36183039Y65255274D01*
X36200500Y65365514D01*
X36200500Y65554487D01*
X36170940Y65741119D01*
X36112545Y65920837D01*
X36026759Y66089200D01*
X35915690Y66242073D01*
X35782073Y66375690D01*
X35629199Y66486760D01*
X35547395Y66528441D01*
X35475615Y66565015D01*
X35424819Y66612990D01*
X35408024Y66680811D01*
X35430561Y66746946D01*
X35485277Y66790397D01*
X35531910Y66799500D01*
X35883261Y66799500D01*
X35905971Y66802809D01*
X35951393Y66809427D01*
X36056483Y66860802D01*
X36139198Y66943517D01*
X36190573Y67048607D01*
X36200500Y67116740D01*
X36200500Y68883260D01*
X36190573Y68951393D01*
X36139198Y69056483D01*
X36139196Y69056485D01*
X36139196Y69056486D01*
X36056485Y69139197D01*
X35951391Y69190574D01*
X35883261Y69200500D01*
X35883260Y69200500D01*
X34116740Y69200500D01*
X34116739Y69200500D01*
X34048608Y69190574D01*
X33943514Y69139197D01*
X33860803Y69056486D01*
X33809426Y68951392D01*
X33799500Y68883261D01*
X33799500Y67116740D01*
X33809426Y67048609D01*
X33860803Y66943515D01*
X33943514Y66860804D01*
X33943515Y66860804D01*
X33943517Y66860802D01*
X34048607Y66809427D01*
X34082673Y66804464D01*
X34116739Y66799500D01*
X34468090Y66799500D01*
X34535129Y66779815D01*
X34580884Y66727011D01*
X34590828Y66657853D01*
X34561803Y66594297D01*
X34524385Y66565015D01*
X34370800Y66486760D01*
X34283579Y66423390D01*
X34217927Y66375690D01*
X34217925Y66375688D01*
X34217924Y66375688D01*
X34084312Y66242076D01*
X34084312Y66242075D01*
X34084310Y66242073D01*
X34036610Y66176421D01*
X33973240Y66089200D01*
X33887454Y65920837D01*
X33829059Y65741119D01*
X33799500Y65554487D01*
X33799500Y65365514D01*
X33829059Y65178882D01*
X33887454Y64999164D01*
X33973240Y64830801D01*
X34084310Y64677927D01*
X34217927Y64544310D01*
X34370801Y64433240D01*
X34450347Y64392710D01*
X34539163Y64347455D01*
X34539165Y64347455D01*
X34539168Y64347453D01*
X34576485Y64335328D01*
X34660803Y64307931D01*
X34718478Y64268493D01*
X34745676Y64204134D01*
X34733761Y64135288D01*
X34686516Y64083812D01*
X34660803Y64072069D01*
X34539163Y64032546D01*
X34370800Y63946760D01*
X34307130Y63900500D01*
X34217927Y63835690D01*
X34217925Y63835688D01*
X34217924Y63835688D01*
X34084312Y63702076D01*
X34084312Y63702075D01*
X34084310Y63702073D01*
X34036610Y63636421D01*
X33973240Y63549200D01*
X33887454Y63380837D01*
X33829059Y63201119D01*
X33799500Y63014487D01*
X33799500Y62825518D01*
X33799499Y62825516D01*
X33829059Y62638882D01*
X33887454Y62459164D01*
X33950550Y62335332D01*
X33973240Y62290801D01*
X34084310Y62137927D01*
X34217927Y62004310D01*
X34370801Y61893240D01*
X34395805Y61880500D01*
X34539163Y61807455D01*
X34539165Y61807455D01*
X34539168Y61807453D01*
X34578510Y61794670D01*
X34660803Y61767931D01*
X34718478Y61728493D01*
X34745676Y61664134D01*
X34733761Y61595288D01*
X34686516Y61543812D01*
X34660803Y61532069D01*
X34539163Y61492546D01*
X34370800Y61406760D01*
X34300910Y61355981D01*
X34217927Y61295690D01*
X34217925Y61295688D01*
X34217924Y61295688D01*
X34211101Y61288864D01*
X34149778Y61255379D01*
X34080086Y61260363D01*
X34035739Y61288864D01*
X32236819Y63087784D01*
X32203334Y63149107D01*
X32200500Y63175465D01*
X32200500Y74071324D01*
X32220185Y74138363D01*
X32272989Y74184118D01*
X32277049Y74185886D01*
X32280820Y74187450D01*
X32280832Y74187453D01*
X32449199Y74273240D01*
X32602073Y74384310D01*
X32735690Y74517927D01*
X32846760Y74670801D01*
X32932547Y74839168D01*
X32972069Y74960805D01*
X33011507Y75018479D01*
X33075866Y75045677D01*
X33144712Y75033762D01*
X33196188Y74986518D01*
X33207931Y74960804D01*
X33247454Y74839164D01*
X33319754Y74697269D01*
X33333240Y74670801D01*
X33444310Y74517927D01*
X33577927Y74384310D01*
X33730801Y74273240D01*
X33798405Y74238794D01*
X33899163Y74187455D01*
X33899165Y74187455D01*
X33899168Y74187453D01*
X33995497Y74156154D01*
X34078881Y74129060D01*
X34265514Y74099500D01*
X34265519Y74099500D01*
X34454486Y74099500D01*
X34641118Y74129060D01*
X34820832Y74187453D01*
X34989199Y74273240D01*
X35142073Y74384310D01*
X35275690Y74517927D01*
X35386760Y74670801D01*
X35472547Y74839168D01*
X35512069Y74960805D01*
X35551507Y75018479D01*
X35615866Y75045677D01*
X35684712Y75033762D01*
X35736188Y74986518D01*
X35747931Y74960804D01*
X35787454Y74839164D01*
X35859754Y74697269D01*
X35873240Y74670801D01*
X35984310Y74517927D01*
X36117927Y74384310D01*
X36270801Y74273240D01*
X36338405Y74238794D01*
X36439163Y74187455D01*
X36439165Y74187455D01*
X36439168Y74187453D01*
X36535497Y74156154D01*
X36618881Y74129060D01*
X36805514Y74099500D01*
X36805519Y74099500D01*
X36994486Y74099500D01*
X37181118Y74129060D01*
X37360832Y74187453D01*
X37529199Y74273240D01*
X37682073Y74384310D01*
X37815690Y74517927D01*
X37926760Y74670801D01*
X38012547Y74839168D01*
X38052069Y74960805D01*
X38091507Y75018479D01*
X38155866Y75045677D01*
X38224712Y75033762D01*
X38276188Y74986518D01*
X38287931Y74960804D01*
X38327454Y74839164D01*
X38399754Y74697269D01*
X38413240Y74670801D01*
X38524310Y74517927D01*
X38657927Y74384310D01*
X38810801Y74273240D01*
X38878405Y74238794D01*
X38979163Y74187455D01*
X38979165Y74187455D01*
X38979168Y74187453D01*
X39075497Y74156154D01*
X39158881Y74129060D01*
X39345514Y74099500D01*
X39345519Y74099500D01*
X39534486Y74099500D01*
X39721118Y74129060D01*
X39900832Y74187453D01*
X40069199Y74273240D01*
X40222073Y74384310D01*
X40355690Y74517927D01*
X40466760Y74670801D01*
X40552547Y74839168D01*
X40592069Y74960805D01*
X40631507Y75018479D01*
X40695866Y75045677D01*
X40764712Y75033762D01*
X40816188Y74986518D01*
X40827931Y74960804D01*
X40867454Y74839164D01*
X40939754Y74697269D01*
X40953240Y74670801D01*
X41064310Y74517927D01*
X41197927Y74384310D01*
X41350801Y74273240D01*
X41418405Y74238794D01*
X41519163Y74187455D01*
X41519165Y74187455D01*
X41519168Y74187453D01*
X41615497Y74156154D01*
X41698881Y74129060D01*
X41885514Y74099500D01*
X41885519Y74099500D01*
X42074486Y74099500D01*
X42261118Y74129060D01*
X42440832Y74187453D01*
X42609199Y74273240D01*
X42762073Y74384310D01*
X42895690Y74517927D01*
X43006760Y74670801D01*
X43092547Y74839168D01*
X43132069Y74960805D01*
X43171507Y75018479D01*
X43235866Y75045677D01*
X43304712Y75033762D01*
X43356188Y74986518D01*
X43367931Y74960804D01*
X43407454Y74839164D01*
X43479754Y74697269D01*
X43493240Y74670801D01*
X43604310Y74517927D01*
X43737927Y74384310D01*
X43890801Y74273240D01*
X43958405Y74238794D01*
X44059163Y74187455D01*
X44059165Y74187455D01*
X44059168Y74187453D01*
X44155497Y74156154D01*
X44238881Y74129060D01*
X44425514Y74099500D01*
X44425519Y74099500D01*
X44614486Y74099500D01*
X44801118Y74129060D01*
X44980832Y74187453D01*
X45149199Y74273240D01*
X45302073Y74384310D01*
X45435690Y74517927D01*
X45546760Y74670801D01*
X45632547Y74839168D01*
X45672069Y74960805D01*
X45711507Y75018479D01*
X45775866Y75045677D01*
X45844712Y75033762D01*
X45896188Y74986518D01*
X45907931Y74960804D01*
X45947454Y74839164D01*
X46019754Y74697269D01*
X46033240Y74670801D01*
X46144310Y74517927D01*
X46277927Y74384310D01*
X46430801Y74273240D01*
X46498405Y74238794D01*
X46599163Y74187455D01*
X46599165Y74187455D01*
X46599168Y74187453D01*
X46695497Y74156154D01*
X46778881Y74129060D01*
X46965514Y74099500D01*
X46965519Y74099500D01*
X47154486Y74099500D01*
X47341118Y74129060D01*
X47520832Y74187453D01*
X47689199Y74273240D01*
X47842073Y74384310D01*
X47975690Y74517927D01*
X48086760Y74670801D01*
X48172547Y74839168D01*
X48212069Y74960805D01*
X48251507Y75018479D01*
X48315866Y75045677D01*
X48384712Y75033762D01*
X48436188Y74986518D01*
X48447931Y74960804D01*
X48487454Y74839164D01*
X48559754Y74697269D01*
X48573240Y74670801D01*
X48684310Y74517927D01*
X48817927Y74384310D01*
X48970801Y74273240D01*
X49038405Y74238794D01*
X49139163Y74187455D01*
X49139165Y74187455D01*
X49139168Y74187453D01*
X49235497Y74156154D01*
X49318881Y74129060D01*
X49505514Y74099500D01*
X49505519Y74099500D01*
X49694486Y74099500D01*
X49881118Y74129060D01*
X50060832Y74187453D01*
X50229199Y74273240D01*
X50382073Y74384310D01*
X50515690Y74517927D01*
X50626760Y74670801D01*
X50712547Y74839168D01*
X50752069Y74960805D01*
X50791507Y75018479D01*
X50855866Y75045677D01*
X50924712Y75033762D01*
X50976188Y74986518D01*
X50987931Y74960804D01*
X51027454Y74839164D01*
X51099754Y74697269D01*
X51113240Y74670801D01*
X51224310Y74517927D01*
X51357927Y74384310D01*
X51510801Y74273240D01*
X51578405Y74238794D01*
X51679163Y74187455D01*
X51679165Y74187455D01*
X51679168Y74187453D01*
X51775497Y74156154D01*
X51858881Y74129060D01*
X52045514Y74099500D01*
X52045519Y74099500D01*
X52234486Y74099500D01*
X52421118Y74129060D01*
X52600832Y74187453D01*
X52769199Y74273240D01*
X52922073Y74384310D01*
X53055690Y74517927D01*
X53166760Y74670801D01*
X53252547Y74839168D01*
X53292069Y74960805D01*
X53331507Y75018479D01*
X53395866Y75045677D01*
X53464712Y75033762D01*
X53516188Y74986518D01*
X53527931Y74960804D01*
X53567454Y74839164D01*
X53639754Y74697269D01*
X53653240Y74670801D01*
X53764310Y74517927D01*
X53897927Y74384310D01*
X54050801Y74273240D01*
X54118405Y74238794D01*
X54219163Y74187455D01*
X54219165Y74187455D01*
X54219168Y74187453D01*
X54315497Y74156154D01*
X54398881Y74129060D01*
X54585514Y74099500D01*
X54585519Y74099500D01*
X54774486Y74099500D01*
X54961118Y74129060D01*
X55140832Y74187453D01*
X55309199Y74273240D01*
X55462073Y74384310D01*
X55595690Y74517927D01*
X55706760Y74670801D01*
X55792547Y74839168D01*
X55832069Y74960805D01*
X55871507Y75018479D01*
X55935866Y75045677D01*
X56004712Y75033762D01*
X56056188Y74986518D01*
X56067931Y74960804D01*
X56107454Y74839164D01*
X56193240Y74670801D01*
X56236028Y74611909D01*
X56259508Y74546103D01*
X56243683Y74478049D01*
X56193577Y74429354D01*
X56177338Y74422985D01*
X56177370Y74422908D01*
X56169856Y74419796D01*
X56067142Y74360495D01*
X56067134Y74360489D01*
X50639513Y68932867D01*
X50639509Y68932861D01*
X50580201Y68830138D01*
X50580200Y68830133D01*
X50549500Y68715559D01*
X50549500Y15433907D01*
X50529815Y15366868D01*
X50477011Y15321113D01*
X50463818Y15315976D01*
X50377396Y15287897D01*
X50377393Y15287896D01*
X50180974Y15187813D01*
X50002641Y15058248D01*
X50002636Y15058244D01*
X49846756Y14902364D01*
X49846752Y14902359D01*
X49717187Y14724026D01*
X49617104Y14527607D01*
X49617103Y14527604D01*
X49548985Y14317953D01*
X49514500Y14100222D01*
X49514500Y13879779D01*
X49548985Y13662048D01*
X49617103Y13452397D01*
X49617104Y13452394D01*
X49685122Y13318904D01*
X49703123Y13283575D01*
X49717187Y13255975D01*
X49846752Y13077642D01*
X49846756Y13077637D01*
X50002636Y12921757D01*
X50002641Y12921753D01*
X50158192Y12808740D01*
X50180978Y12792185D01*
X50309375Y12726763D01*
X50377393Y12692105D01*
X50377396Y12692104D01*
X50482221Y12658045D01*
X50587049Y12623985D01*
X50804778Y12589500D01*
X50804779Y12589500D01*
X51025221Y12589500D01*
X51025222Y12589500D01*
X51242951Y12623985D01*
X51452606Y12692105D01*
X51649022Y12792185D01*
X51827365Y12921758D01*
X51983242Y13077635D01*
X52112815Y13255978D01*
X52212895Y13452394D01*
X52281015Y13662049D01*
X52315500Y13879778D01*
X52315500Y14100222D01*
X52281015Y14317951D01*
X52212895Y14527606D01*
X52212895Y14527607D01*
X52178237Y14595625D01*
X52112815Y14724022D01*
X52096260Y14746808D01*
X51983247Y14902359D01*
X51983243Y14902364D01*
X51827363Y15058244D01*
X51827358Y15058248D01*
X51649023Y15187815D01*
X51518204Y15254472D01*
X51507141Y15264921D01*
X51493297Y15271243D01*
X51482254Y15288426D01*
X51467409Y15302447D01*
X51463168Y15318126D01*
X51455523Y15330021D01*
X51450500Y15364956D01*
X51450500Y16636247D01*
X55915000Y16636247D01*
X55915000Y16423754D01*
X55948242Y16213873D01*
X55948242Y16213870D01*
X56013904Y16011783D01*
X56110377Y15822446D01*
X56194362Y15706852D01*
X56194363Y15706851D01*
X56625150Y16137639D01*
X56682437Y16051903D01*
X56786903Y15947437D01*
X56872637Y15890152D01*
X56441849Y15459364D01*
X56557445Y15375378D01*
X56746782Y15278905D01*
X56948870Y15213243D01*
X57158754Y15180000D01*
X57371246Y15180000D01*
X57581127Y15213243D01*
X57581130Y15213243D01*
X57783217Y15278905D01*
X57972546Y15375374D01*
X57972552Y15375378D01*
X58088148Y15459364D01*
X58088149Y15459364D01*
X57657361Y15890151D01*
X57743097Y15947437D01*
X57847563Y16051903D01*
X57904849Y16137638D01*
X58335636Y15706851D01*
X58335636Y15706852D01*
X58419622Y15822448D01*
X58419626Y15822454D01*
X58516095Y16011783D01*
X58581757Y16213870D01*
X58581757Y16213873D01*
X58615000Y16423754D01*
X58615000Y16636247D01*
X58581757Y16846128D01*
X58581757Y16846131D01*
X58516095Y17048218D01*
X58419622Y17237555D01*
X58335636Y17353150D01*
X58335636Y17353151D01*
X57904848Y16922363D01*
X57847563Y17008097D01*
X57743097Y17112563D01*
X57657361Y17169850D01*
X58088149Y17600637D01*
X58088148Y17600638D01*
X57972554Y17684623D01*
X57783217Y17781096D01*
X57581129Y17846758D01*
X57371246Y17880000D01*
X57158754Y17880000D01*
X56948872Y17846758D01*
X56948869Y17846758D01*
X56746782Y17781096D01*
X56557442Y17684621D01*
X56441850Y17600639D01*
X56441849Y17600638D01*
X56872638Y17169850D01*
X56786903Y17112563D01*
X56682437Y17008097D01*
X56625150Y16922363D01*
X56194362Y17353151D01*
X56194361Y17353150D01*
X56110379Y17237558D01*
X56013904Y17048218D01*
X55948242Y16846131D01*
X55948242Y16846128D01*
X55915000Y16636247D01*
X51450500Y16636247D01*
X51450500Y63185929D01*
X56599499Y63185929D01*
X56624497Y63060262D01*
X56624499Y63060256D01*
X56673533Y62941876D01*
X56673538Y62941867D01*
X56744723Y62835332D01*
X56744726Y62835328D01*
X56835327Y62744727D01*
X56835331Y62744724D01*
X56941866Y62673539D01*
X56941875Y62673534D01*
X56951327Y62669619D01*
X57060256Y62624499D01*
X57060260Y62624499D01*
X57060261Y62624498D01*
X57185928Y62599500D01*
X57185931Y62599500D01*
X57314071Y62599500D01*
X57398615Y62616318D01*
X57439744Y62624499D01*
X57558127Y62673535D01*
X57664669Y62744724D01*
X57755276Y62835331D01*
X57826465Y62941873D01*
X57875501Y63060256D01*
X57896271Y63164669D01*
X57900500Y63185929D01*
X57900500Y63314072D01*
X57875502Y63439739D01*
X57875501Y63439740D01*
X57875501Y63439744D01*
X57826465Y63558127D01*
X57826464Y63558128D01*
X57826461Y63558134D01*
X57755276Y63664669D01*
X57755273Y63664673D01*
X57664672Y63755274D01*
X57664668Y63755277D01*
X57558133Y63826462D01*
X57558124Y63826467D01*
X57439744Y63875501D01*
X57439738Y63875503D01*
X57314071Y63900500D01*
X57314069Y63900500D01*
X57185931Y63900500D01*
X57185929Y63900500D01*
X57060261Y63875503D01*
X57060255Y63875501D01*
X56941875Y63826467D01*
X56941866Y63826462D01*
X56835331Y63755277D01*
X56835327Y63755274D01*
X56744726Y63664673D01*
X56744723Y63664669D01*
X56673538Y63558134D01*
X56673533Y63558125D01*
X56624499Y63439745D01*
X56624497Y63439739D01*
X56599500Y63314072D01*
X56599500Y63314069D01*
X56599500Y63185931D01*
X56599500Y63185929D01*
X56599499Y63185929D01*
X51450500Y63185929D01*
X51450500Y68418285D01*
X51470185Y68485324D01*
X51486819Y68505966D01*
X56494035Y73513181D01*
X56555358Y73546666D01*
X56581716Y73549500D01*
X58184308Y73549500D01*
X58184309Y73549500D01*
X58274673Y73573714D01*
X58298887Y73580201D01*
X58401614Y73639511D01*
X58860489Y74098386D01*
X58919799Y74201113D01*
X58923660Y74215527D01*
X58960021Y74275189D01*
X59022865Y74305723D01*
X59092242Y74297433D01*
X59116322Y74283760D01*
X59130801Y74273240D01*
X59198405Y74238794D01*
X59299163Y74187455D01*
X59299165Y74187455D01*
X59299168Y74187453D01*
X59395497Y74156154D01*
X59478881Y74129060D01*
X59665514Y74099500D01*
X59665519Y74099500D01*
X59854486Y74099500D01*
X60041118Y74129060D01*
X60220832Y74187453D01*
X60389199Y74273240D01*
X60408426Y74287210D01*
X60474227Y74310690D01*
X60542282Y74294869D01*
X60588699Y74248894D01*
X60639511Y74160886D01*
X61160886Y73639511D01*
X61160887Y73639510D01*
X61160889Y73639509D01*
X61220193Y73605271D01*
X61220196Y73605268D01*
X61254437Y73585500D01*
X61263614Y73580201D01*
X61378191Y73549500D01*
X64152660Y73549500D01*
X64219699Y73529815D01*
X64240341Y73513181D01*
X64329107Y73424415D01*
X64362592Y73363092D01*
X64357608Y73293400D01*
X64329107Y73249053D01*
X64316873Y73236819D01*
X64255550Y73203334D01*
X64229192Y73200500D01*
X63253191Y73200500D01*
X63162825Y73176287D01*
X63162824Y73176288D01*
X63138616Y73169801D01*
X63138613Y73169800D01*
X63035886Y73110489D01*
X63035883Y73110487D01*
X58639513Y68714117D01*
X58639509Y68714111D01*
X58580201Y68611388D01*
X58580200Y68611383D01*
X58549500Y68496809D01*
X58549500Y30020808D01*
X58529815Y29953769D01*
X58513181Y29933127D01*
X58494726Y29914673D01*
X58494723Y29914669D01*
X58423538Y29808134D01*
X58423533Y29808125D01*
X58374499Y29689745D01*
X58374497Y29689739D01*
X58349500Y29564072D01*
X58349500Y29564069D01*
X58349500Y29435931D01*
X58349500Y29435929D01*
X58349499Y29435929D01*
X58374497Y29310262D01*
X58374499Y29310256D01*
X58423533Y29191876D01*
X58423538Y29191867D01*
X58494723Y29085332D01*
X58494726Y29085328D01*
X58585327Y28994727D01*
X58585331Y28994724D01*
X58691866Y28923539D01*
X58691872Y28923536D01*
X58691873Y28923535D01*
X58810256Y28874499D01*
X58810260Y28874499D01*
X58810261Y28874498D01*
X58935928Y28849500D01*
X58935931Y28849500D01*
X59064071Y28849500D01*
X59148615Y28866318D01*
X59189744Y28874499D01*
X59308127Y28923535D01*
X59414669Y28994724D01*
X59505276Y29085331D01*
X59576465Y29191873D01*
X59625501Y29310256D01*
X59650500Y29435931D01*
X59650500Y29564069D01*
X59650500Y29564072D01*
X59625502Y29689739D01*
X59625501Y29689740D01*
X59625501Y29689744D01*
X59576465Y29808127D01*
X59576464Y29808128D01*
X59576461Y29808134D01*
X59505276Y29914669D01*
X59505273Y29914673D01*
X59486819Y29933127D01*
X59453334Y29994450D01*
X59450500Y30020808D01*
X59450500Y30644222D01*
X62049500Y30644222D01*
X62049500Y30355779D01*
X62049501Y30355762D01*
X62087149Y30069794D01*
X62087150Y30069789D01*
X62087151Y30069783D01*
X62159303Y29800507D01*
X62161809Y29791156D01*
X62161814Y29791140D01*
X62272191Y29524664D01*
X62272199Y29524648D01*
X62416420Y29274852D01*
X62416431Y29274836D01*
X62592024Y29045998D01*
X62592030Y29045991D01*
X62795990Y28842031D01*
X62795997Y28842025D01*
X62946637Y28726435D01*
X63024844Y28666425D01*
X63024851Y28666421D01*
X63274647Y28522200D01*
X63274663Y28522192D01*
X63541139Y28411815D01*
X63541145Y28411814D01*
X63541155Y28411809D01*
X63819783Y28337151D01*
X64105772Y28299500D01*
X64105779Y28299500D01*
X64394221Y28299500D01*
X64394228Y28299500D01*
X64680217Y28337151D01*
X64958845Y28411809D01*
X64958857Y28411815D01*
X64958860Y28411815D01*
X65225336Y28522192D01*
X65225339Y28522194D01*
X65225345Y28522196D01*
X65475156Y28666425D01*
X65704004Y28842026D01*
X65907974Y29045996D01*
X66083575Y29274844D01*
X66227804Y29524655D01*
X66244858Y29565826D01*
X66338185Y29791140D01*
X66338185Y29791143D01*
X66338191Y29791155D01*
X66412849Y30069783D01*
X66450500Y30355772D01*
X66450500Y30644228D01*
X66412849Y30930217D01*
X66338191Y31208845D01*
X66338186Y31208855D01*
X66338185Y31208861D01*
X66227808Y31475337D01*
X66227800Y31475353D01*
X66083579Y31725149D01*
X66083575Y31725156D01*
X65957256Y31889779D01*
X65907975Y31954003D01*
X65907969Y31954010D01*
X65704009Y32157970D01*
X65704002Y32157976D01*
X65475164Y32333569D01*
X65475162Y32333571D01*
X65475156Y32333575D01*
X65475151Y32333578D01*
X65475148Y32333580D01*
X65225352Y32477801D01*
X65225336Y32477809D01*
X64958860Y32588186D01*
X64958848Y32588190D01*
X64958845Y32588191D01*
X64680217Y32662849D01*
X64680211Y32662850D01*
X64680206Y32662851D01*
X64394238Y32700499D01*
X64394233Y32700500D01*
X64394228Y32700500D01*
X64105772Y32700500D01*
X64105766Y32700500D01*
X64105761Y32700499D01*
X63819793Y32662851D01*
X63819786Y32662850D01*
X63819783Y32662849D01*
X63541155Y32588191D01*
X63541139Y32588186D01*
X63274663Y32477809D01*
X63274647Y32477801D01*
X63024851Y32333580D01*
X63024835Y32333569D01*
X62795997Y32157976D01*
X62795990Y32157970D01*
X62592030Y31954010D01*
X62592024Y31954003D01*
X62416431Y31725165D01*
X62416420Y31725149D01*
X62272199Y31475353D01*
X62272191Y31475337D01*
X62161814Y31208861D01*
X62161809Y31208845D01*
X62104278Y30994134D01*
X62087152Y30930220D01*
X62087149Y30930207D01*
X62049501Y30644239D01*
X62049500Y30644222D01*
X59450500Y30644222D01*
X59450500Y31784437D01*
X59470185Y31851476D01*
X59522989Y31897231D01*
X59592147Y31907175D01*
X59647383Y31884756D01*
X59705978Y31842185D01*
X59768630Y31810262D01*
X59902393Y31742105D01*
X59902396Y31742104D01*
X60007221Y31708045D01*
X60112049Y31673985D01*
X60329778Y31639500D01*
X60329779Y31639500D01*
X60550221Y31639500D01*
X60550222Y31639500D01*
X60767951Y31673985D01*
X60977606Y31742105D01*
X61174022Y31842185D01*
X61352365Y31971758D01*
X61508242Y32127635D01*
X61637815Y32305978D01*
X61737895Y32502394D01*
X61806015Y32712049D01*
X61840500Y32929778D01*
X61840500Y33150222D01*
X61806015Y33367951D01*
X61737895Y33577606D01*
X61737895Y33577607D01*
X61700598Y33650804D01*
X61637815Y33774022D01*
X61573498Y33862547D01*
X61508247Y33952359D01*
X61508243Y33952364D01*
X61352363Y34108244D01*
X61352358Y34108248D01*
X61174025Y34237813D01*
X61174024Y34237814D01*
X61174022Y34237815D01*
X61111096Y34269878D01*
X60977606Y34337896D01*
X60977603Y34337897D01*
X60767952Y34406015D01*
X60590314Y34434150D01*
X60550222Y34440500D01*
X60329778Y34440500D01*
X60289686Y34434150D01*
X60112047Y34406015D01*
X59902396Y34337897D01*
X59902393Y34337896D01*
X59705978Y34237816D01*
X59647385Y34195245D01*
X59581578Y34171766D01*
X59513524Y34187592D01*
X59464830Y34237698D01*
X59450500Y34295564D01*
X59450500Y59935929D01*
X61349499Y59935929D01*
X61374497Y59810262D01*
X61374499Y59810256D01*
X61423533Y59691876D01*
X61423538Y59691867D01*
X61494723Y59585332D01*
X61494726Y59585328D01*
X61585327Y59494727D01*
X61585331Y59494724D01*
X61691866Y59423539D01*
X61691872Y59423536D01*
X61691873Y59423535D01*
X61810256Y59374499D01*
X61810260Y59374499D01*
X61810261Y59374498D01*
X61935928Y59349500D01*
X61935931Y59349500D01*
X62064071Y59349500D01*
X62148615Y59366318D01*
X62189744Y59374499D01*
X62308127Y59423535D01*
X62414669Y59494724D01*
X62505276Y59585331D01*
X62576465Y59691873D01*
X62625501Y59810256D01*
X62650500Y59935931D01*
X62650500Y60064069D01*
X62650500Y60064072D01*
X62625502Y60189739D01*
X62625501Y60189740D01*
X62625501Y60189744D01*
X62576465Y60308127D01*
X62576464Y60308128D01*
X62576461Y60308134D01*
X62505276Y60414669D01*
X62505273Y60414673D01*
X62414672Y60505274D01*
X62414668Y60505277D01*
X62308133Y60576462D01*
X62308124Y60576467D01*
X62189744Y60625501D01*
X62189738Y60625503D01*
X62064071Y60650500D01*
X62064069Y60650500D01*
X61935931Y60650500D01*
X61935929Y60650500D01*
X61810261Y60625503D01*
X61810255Y60625501D01*
X61691875Y60576467D01*
X61691866Y60576462D01*
X61585331Y60505277D01*
X61585327Y60505274D01*
X61494726Y60414673D01*
X61494723Y60414669D01*
X61423538Y60308134D01*
X61423533Y60308125D01*
X61374499Y60189745D01*
X61374497Y60189739D01*
X61349500Y60064072D01*
X61349500Y60064069D01*
X61349500Y59935931D01*
X61349500Y59935929D01*
X61349499Y59935929D01*
X59450500Y59935929D01*
X59450500Y68199535D01*
X59470185Y68266574D01*
X59486819Y68287216D01*
X63462784Y72263181D01*
X63524107Y72296666D01*
X63550465Y72299500D01*
X64229192Y72299500D01*
X64296231Y72279815D01*
X64316873Y72263181D01*
X64335327Y72244727D01*
X64335331Y72244724D01*
X64441866Y72173539D01*
X64441872Y72173536D01*
X64441873Y72173535D01*
X64560256Y72124499D01*
X64560260Y72124499D01*
X64560261Y72124498D01*
X64685928Y72099500D01*
X64685931Y72099500D01*
X64814071Y72099500D01*
X64898615Y72116318D01*
X64939744Y72124499D01*
X65058127Y72173535D01*
X65164669Y72244724D01*
X65199760Y72279815D01*
X65249053Y72329107D01*
X65310376Y72362592D01*
X65380068Y72357608D01*
X65424415Y72329107D01*
X67763181Y69990341D01*
X67796666Y69929018D01*
X67799500Y69902660D01*
X67799500Y36758611D01*
X67779815Y36691572D01*
X67727011Y36645817D01*
X67657853Y36635873D01*
X67602615Y36658293D01*
X67497557Y36734621D01*
X67308217Y36831096D01*
X67106129Y36896758D01*
X66896246Y36930000D01*
X66683754Y36930000D01*
X66473872Y36896758D01*
X66473869Y36896758D01*
X66271782Y36831096D01*
X66082442Y36734621D01*
X65966850Y36650639D01*
X65966849Y36650638D01*
X66397637Y36219850D01*
X66311903Y36162563D01*
X66207437Y36058097D01*
X66150150Y35972363D01*
X65719362Y36403151D01*
X65719361Y36403150D01*
X65635379Y36287558D01*
X65538904Y36098218D01*
X65473242Y35896131D01*
X65473242Y35896128D01*
X65440000Y35686247D01*
X65440000Y35473754D01*
X65473242Y35263873D01*
X65473242Y35263870D01*
X65538904Y35061783D01*
X65635377Y34872446D01*
X65719362Y34756852D01*
X65719362Y34756851D01*
X66150150Y35187640D01*
X66207437Y35101903D01*
X66311903Y34997437D01*
X66397637Y34940152D01*
X65966849Y34509364D01*
X66082445Y34425378D01*
X66271782Y34328905D01*
X66473870Y34263243D01*
X66683754Y34230000D01*
X66896246Y34230000D01*
X67106127Y34263243D01*
X67106130Y34263243D01*
X67308217Y34328905D01*
X67497554Y34425378D01*
X67602614Y34501708D01*
X67668421Y34525188D01*
X67736475Y34509363D01*
X67785170Y34459257D01*
X67799500Y34401390D01*
X67799500Y15253191D01*
X67817018Y15187813D01*
X67830199Y15138616D01*
X67830200Y15138615D01*
X67830201Y15138613D01*
X67889511Y15035886D01*
X67889513Y15035884D01*
X68555466Y14369931D01*
X68588951Y14308608D01*
X68590258Y14262852D01*
X68564500Y14100222D01*
X68564500Y13879779D01*
X68598985Y13662048D01*
X68667103Y13452397D01*
X68667104Y13452394D01*
X68735122Y13318904D01*
X68753123Y13283575D01*
X68767187Y13255975D01*
X68896752Y13077642D01*
X68896756Y13077637D01*
X69052636Y12921757D01*
X69052641Y12921753D01*
X69208192Y12808740D01*
X69230978Y12792185D01*
X69359375Y12726763D01*
X69427393Y12692105D01*
X69427396Y12692104D01*
X69532221Y12658045D01*
X69637049Y12623985D01*
X69854778Y12589500D01*
X69854779Y12589500D01*
X70075221Y12589500D01*
X70075222Y12589500D01*
X70292951Y12623985D01*
X70502606Y12692105D01*
X70699022Y12792185D01*
X70877365Y12921758D01*
X71033242Y13077635D01*
X71162815Y13255978D01*
X71262895Y13452394D01*
X71331015Y13662049D01*
X71365500Y13879778D01*
X71365500Y14100222D01*
X71331015Y14317951D01*
X71262895Y14527606D01*
X71262895Y14527607D01*
X71228237Y14595625D01*
X71162815Y14724022D01*
X71146260Y14746808D01*
X71033247Y14902359D01*
X71033243Y14902364D01*
X70877363Y15058244D01*
X70877358Y15058248D01*
X70699025Y15187813D01*
X70699024Y15187814D01*
X70699022Y15187815D01*
X70636096Y15219878D01*
X70502606Y15287896D01*
X70502603Y15287897D01*
X70292952Y15356015D01*
X70115314Y15384150D01*
X70075222Y15390500D01*
X69854778Y15390500D01*
X69814686Y15384150D01*
X69637047Y15356015D01*
X69427396Y15287897D01*
X69427393Y15287896D01*
X69230979Y15187816D01*
X69230975Y15187813D01*
X69189700Y15157827D01*
X69123893Y15134349D01*
X69055840Y15150176D01*
X69029137Y15170466D01*
X68736819Y15462784D01*
X68703334Y15524107D01*
X68700500Y15550465D01*
X68700500Y16636247D01*
X74965000Y16636247D01*
X74965000Y16423754D01*
X74998242Y16213873D01*
X74998242Y16213870D01*
X75063904Y16011783D01*
X75160377Y15822446D01*
X75244362Y15706852D01*
X75244363Y15706851D01*
X75675150Y16137639D01*
X75732437Y16051903D01*
X75836903Y15947437D01*
X75922637Y15890152D01*
X75491849Y15459364D01*
X75607445Y15375378D01*
X75796782Y15278905D01*
X75998870Y15213243D01*
X76208754Y15180000D01*
X76421246Y15180000D01*
X76631127Y15213243D01*
X76631130Y15213243D01*
X76833217Y15278905D01*
X77022546Y15375374D01*
X77022552Y15375378D01*
X77138148Y15459364D01*
X77138149Y15459364D01*
X76707361Y15890151D01*
X76793097Y15947437D01*
X76897563Y16051903D01*
X76954849Y16137638D01*
X77385636Y15706851D01*
X77385636Y15706852D01*
X77469622Y15822448D01*
X77469626Y15822454D01*
X77566095Y16011783D01*
X77631757Y16213870D01*
X77631757Y16213873D01*
X77665000Y16423754D01*
X77665000Y16636247D01*
X77631757Y16846128D01*
X77631757Y16846131D01*
X77566095Y17048218D01*
X77469622Y17237555D01*
X77385636Y17353150D01*
X77385636Y17353151D01*
X76954848Y16922363D01*
X76897563Y17008097D01*
X76793097Y17112563D01*
X76707361Y17169850D01*
X77138149Y17600637D01*
X77138148Y17600638D01*
X77022554Y17684623D01*
X76833217Y17781096D01*
X76631129Y17846758D01*
X76421246Y17880000D01*
X76208754Y17880000D01*
X75998872Y17846758D01*
X75998869Y17846758D01*
X75796782Y17781096D01*
X75607442Y17684621D01*
X75491850Y17600639D01*
X75491849Y17600638D01*
X75922638Y17169850D01*
X75836903Y17112563D01*
X75732437Y17008097D01*
X75675150Y16922363D01*
X75244362Y17353151D01*
X75244361Y17353150D01*
X75160379Y17237558D01*
X75063904Y17048218D01*
X74998242Y16846131D01*
X74998242Y16846128D01*
X74965000Y16636247D01*
X68700500Y16636247D01*
X68700500Y30644222D01*
X81099500Y30644222D01*
X81099500Y30355779D01*
X81099501Y30355762D01*
X81137149Y30069794D01*
X81137150Y30069789D01*
X81137151Y30069783D01*
X81209303Y29800507D01*
X81211809Y29791156D01*
X81211814Y29791140D01*
X81322191Y29524664D01*
X81322199Y29524648D01*
X81466420Y29274852D01*
X81466431Y29274836D01*
X81642024Y29045998D01*
X81642030Y29045991D01*
X81845990Y28842031D01*
X81845997Y28842025D01*
X81996637Y28726435D01*
X82074844Y28666425D01*
X82074851Y28666421D01*
X82324647Y28522200D01*
X82324663Y28522192D01*
X82591139Y28411815D01*
X82591145Y28411814D01*
X82591155Y28411809D01*
X82869783Y28337151D01*
X83155772Y28299500D01*
X83155779Y28299500D01*
X83444221Y28299500D01*
X83444228Y28299500D01*
X83730217Y28337151D01*
X84008845Y28411809D01*
X84008857Y28411815D01*
X84008860Y28411815D01*
X84275336Y28522192D01*
X84275339Y28522194D01*
X84275345Y28522196D01*
X84525156Y28666425D01*
X84754004Y28842026D01*
X84957974Y29045996D01*
X85133575Y29274844D01*
X85277804Y29524655D01*
X85294858Y29565826D01*
X85388185Y29791140D01*
X85388185Y29791143D01*
X85388191Y29791155D01*
X85462849Y30069783D01*
X85500500Y30355772D01*
X85500500Y30644228D01*
X85462849Y30930217D01*
X85388191Y31208845D01*
X85388186Y31208855D01*
X85388185Y31208861D01*
X85277808Y31475337D01*
X85277800Y31475353D01*
X85133579Y31725149D01*
X85133575Y31725156D01*
X85007256Y31889779D01*
X84957975Y31954003D01*
X84957969Y31954010D01*
X84754009Y32157970D01*
X84754002Y32157976D01*
X84525164Y32333569D01*
X84525162Y32333571D01*
X84525156Y32333575D01*
X84525151Y32333578D01*
X84525148Y32333580D01*
X84275352Y32477801D01*
X84275336Y32477809D01*
X84008860Y32588186D01*
X84008848Y32588190D01*
X84008845Y32588191D01*
X83730217Y32662849D01*
X83730211Y32662850D01*
X83730206Y32662851D01*
X83444238Y32700499D01*
X83444233Y32700500D01*
X83444228Y32700500D01*
X83155772Y32700500D01*
X83155766Y32700500D01*
X83155761Y32700499D01*
X82869793Y32662851D01*
X82869786Y32662850D01*
X82869783Y32662849D01*
X82591155Y32588191D01*
X82591139Y32588186D01*
X82324663Y32477809D01*
X82324647Y32477801D01*
X82074851Y32333580D01*
X82074835Y32333569D01*
X81845997Y32157976D01*
X81845990Y32157970D01*
X81642030Y31954010D01*
X81642024Y31954003D01*
X81466431Y31725165D01*
X81466420Y31725149D01*
X81322199Y31475353D01*
X81322191Y31475337D01*
X81211814Y31208861D01*
X81211809Y31208845D01*
X81154278Y30994134D01*
X81137152Y30930220D01*
X81137149Y30930207D01*
X81099501Y30644239D01*
X81099500Y30644222D01*
X68700500Y30644222D01*
X68700500Y68935929D01*
X69099499Y68935929D01*
X69124497Y68810262D01*
X69124499Y68810256D01*
X69173533Y68691876D01*
X69173538Y68691867D01*
X69244723Y68585332D01*
X69244726Y68585328D01*
X69335327Y68494727D01*
X69335331Y68494724D01*
X69441866Y68423539D01*
X69441875Y68423534D01*
X69468692Y68412426D01*
X69560256Y68374499D01*
X69560260Y68374499D01*
X69560261Y68374498D01*
X69685928Y68349500D01*
X69685931Y68349500D01*
X69814071Y68349500D01*
X69898615Y68366318D01*
X69939744Y68374499D01*
X70058127Y68423535D01*
X70164669Y68494724D01*
X70255276Y68585331D01*
X70326465Y68691873D01*
X70375501Y68810256D01*
X70396271Y68914669D01*
X70400500Y68935929D01*
X70400500Y69064072D01*
X70375502Y69189739D01*
X70375501Y69189740D01*
X70375501Y69189744D01*
X70326465Y69308127D01*
X70326464Y69308128D01*
X70326461Y69308134D01*
X70255276Y69414669D01*
X70255273Y69414673D01*
X70164672Y69505274D01*
X70164668Y69505277D01*
X70058133Y69576462D01*
X70058124Y69576467D01*
X69939744Y69625501D01*
X69939738Y69625503D01*
X69814071Y69650500D01*
X69814069Y69650500D01*
X69685931Y69650500D01*
X69685929Y69650500D01*
X69560261Y69625503D01*
X69560255Y69625501D01*
X69441875Y69576467D01*
X69441866Y69576462D01*
X69335331Y69505277D01*
X69335327Y69505274D01*
X69244726Y69414673D01*
X69244723Y69414669D01*
X69173538Y69308134D01*
X69173533Y69308125D01*
X69124499Y69189745D01*
X69124497Y69189739D01*
X69099500Y69064072D01*
X69099500Y69064069D01*
X69099500Y68935931D01*
X69099500Y68935929D01*
X69099499Y68935929D01*
X68700500Y68935929D01*
X68700500Y70199932D01*
X68700500Y70199934D01*
X68669799Y70314511D01*
X68669797Y70314515D01*
X68644731Y70357931D01*
X68610493Y70417233D01*
X68610487Y70417241D01*
X65096303Y73931425D01*
X65062818Y73992748D01*
X65067802Y74062440D01*
X65109674Y74118373D01*
X65145661Y74137035D01*
X65300832Y74187453D01*
X65469199Y74273240D01*
X65622073Y74384310D01*
X65755690Y74517927D01*
X65866760Y74670801D01*
X65952547Y74839168D01*
X65992069Y74960805D01*
X66031507Y75018479D01*
X66095866Y75045677D01*
X66164712Y75033762D01*
X66216188Y74986518D01*
X66227931Y74960804D01*
X66267454Y74839164D01*
X66339754Y74697269D01*
X66353240Y74670801D01*
X66464310Y74517927D01*
X66597927Y74384310D01*
X66750801Y74273240D01*
X66818405Y74238794D01*
X66919163Y74187455D01*
X66919165Y74187455D01*
X66919168Y74187453D01*
X67015497Y74156154D01*
X67098881Y74129060D01*
X67285514Y74099500D01*
X67285519Y74099500D01*
X67474486Y74099500D01*
X67661118Y74129060D01*
X67840832Y74187453D01*
X68009199Y74273240D01*
X68162073Y74384310D01*
X68295690Y74517927D01*
X68406760Y74670801D01*
X68492547Y74839168D01*
X68532069Y74960805D01*
X68571507Y75018479D01*
X68635866Y75045677D01*
X68704712Y75033762D01*
X68756188Y74986518D01*
X68767931Y74960804D01*
X68807454Y74839164D01*
X68879754Y74697269D01*
X68893240Y74670801D01*
X69004310Y74517927D01*
X69137927Y74384310D01*
X69290801Y74273240D01*
X69358405Y74238794D01*
X69459163Y74187455D01*
X69459165Y74187455D01*
X69459168Y74187453D01*
X69638882Y74129060D01*
X69641135Y74128328D01*
X69698810Y74088890D01*
X69726008Y74024531D01*
X69714093Y73955685D01*
X69666849Y73904209D01*
X69627009Y73888780D01*
X69560260Y73875503D01*
X69560255Y73875501D01*
X69441875Y73826467D01*
X69441866Y73826462D01*
X69335331Y73755277D01*
X69335327Y73755274D01*
X69244726Y73664673D01*
X69244723Y73664669D01*
X69173538Y73558134D01*
X69173533Y73558125D01*
X69124499Y73439745D01*
X69124497Y73439739D01*
X69099500Y73314072D01*
X69099500Y73314069D01*
X69099500Y73185931D01*
X69099500Y73185929D01*
X69099499Y73185929D01*
X69124497Y73060262D01*
X69124499Y73060256D01*
X69173533Y72941876D01*
X69173538Y72941867D01*
X69244723Y72835332D01*
X69244726Y72835328D01*
X69335327Y72744727D01*
X69335331Y72744724D01*
X69441866Y72673539D01*
X69441872Y72673536D01*
X69441873Y72673535D01*
X69560256Y72624499D01*
X69560260Y72624499D01*
X69560261Y72624498D01*
X69685928Y72599500D01*
X69685931Y72599500D01*
X69814071Y72599500D01*
X69898615Y72616318D01*
X69939744Y72624499D01*
X70058127Y72673535D01*
X70164669Y72744724D01*
X70255276Y72835331D01*
X70326465Y72941873D01*
X70375501Y73060256D01*
X70397291Y73169799D01*
X70400500Y73185929D01*
X70400500Y73314072D01*
X70375502Y73439739D01*
X70375501Y73439740D01*
X70375501Y73439744D01*
X70331212Y73546666D01*
X70326466Y73558125D01*
X70326461Y73558134D01*
X70255276Y73664669D01*
X70255273Y73664673D01*
X70164672Y73755274D01*
X70164668Y73755277D01*
X70058133Y73826462D01*
X70058123Y73826467D01*
X69974420Y73861138D01*
X69920017Y73904979D01*
X69897952Y73971273D01*
X69915231Y74038973D01*
X69966369Y74086583D01*
X70009686Y74098629D01*
X70009669Y74098737D01*
X70010611Y74098887D01*
X70012164Y74099318D01*
X70014478Y74099500D01*
X70014481Y74099500D01*
X70014483Y74099501D01*
X70014491Y74099501D01*
X70201118Y74129060D01*
X70380832Y74187453D01*
X70549199Y74273240D01*
X70602615Y74312050D01*
X70668420Y74335529D01*
X70736474Y74319704D01*
X70785169Y74269599D01*
X70799500Y74211731D01*
X70799500Y39128192D01*
X70823712Y39037828D01*
X70830200Y39013615D01*
X70830200Y39013614D01*
X70830201Y39013613D01*
X70889511Y38910886D01*
X77160886Y32639511D01*
X77211154Y32610489D01*
X77263614Y32580201D01*
X77378191Y32549500D01*
X78092116Y32549500D01*
X78159155Y32529815D01*
X78202600Y32481796D01*
X78291091Y32308125D01*
X78292187Y32305975D01*
X78421752Y32127642D01*
X78421756Y32127637D01*
X78577636Y31971757D01*
X78577641Y31971753D01*
X78666526Y31907175D01*
X78755978Y31842185D01*
X78869314Y31784437D01*
X78952393Y31742105D01*
X78952396Y31742104D01*
X79057221Y31708045D01*
X79162049Y31673985D01*
X79379778Y31639500D01*
X79379779Y31639500D01*
X79600221Y31639500D01*
X79600222Y31639500D01*
X79817951Y31673985D01*
X80027606Y31742105D01*
X80224022Y31842185D01*
X80402365Y31971758D01*
X80558242Y32127635D01*
X80687815Y32305978D01*
X80787895Y32502394D01*
X80856015Y32712049D01*
X80890500Y32929778D01*
X80890500Y33150222D01*
X80856015Y33367951D01*
X80787895Y33577606D01*
X80787895Y33577607D01*
X80750598Y33650804D01*
X80687815Y33774022D01*
X80623498Y33862547D01*
X80558247Y33952359D01*
X80558243Y33952364D01*
X80402363Y34108244D01*
X80402358Y34108248D01*
X80224025Y34237813D01*
X80224024Y34237814D01*
X80224022Y34237815D01*
X80161096Y34269878D01*
X80027606Y34337896D01*
X80027603Y34337897D01*
X79817952Y34406015D01*
X79640314Y34434150D01*
X79600222Y34440500D01*
X79379778Y34440500D01*
X79339686Y34434150D01*
X79162047Y34406015D01*
X78952396Y34337897D01*
X78952393Y34337896D01*
X78755974Y34237813D01*
X78577641Y34108248D01*
X78577636Y34108244D01*
X78421756Y33952364D01*
X78421752Y33952359D01*
X78292187Y33774026D01*
X78192103Y33577604D01*
X78178645Y33536182D01*
X78139208Y33478507D01*
X78074849Y33451308D01*
X78060714Y33450500D01*
X77675465Y33450500D01*
X77608426Y33470185D01*
X77587784Y33486819D01*
X75388356Y35686247D01*
X84490000Y35686247D01*
X84490000Y35473754D01*
X84523242Y35263873D01*
X84523242Y35263870D01*
X84588904Y35061783D01*
X84685377Y34872446D01*
X84769362Y34756852D01*
X84769363Y34756851D01*
X85200150Y35187639D01*
X85257437Y35101903D01*
X85361903Y34997437D01*
X85447637Y34940152D01*
X85016849Y34509364D01*
X85132445Y34425378D01*
X85321782Y34328905D01*
X85523870Y34263243D01*
X85733754Y34230000D01*
X85946246Y34230000D01*
X86156127Y34263243D01*
X86156130Y34263243D01*
X86358217Y34328905D01*
X86547546Y34425374D01*
X86547552Y34425378D01*
X86663148Y34509364D01*
X86663149Y34509364D01*
X86232361Y34940151D01*
X86318097Y34997437D01*
X86422563Y35101903D01*
X86479849Y35187638D01*
X86910636Y34756851D01*
X86910636Y34756852D01*
X86994622Y34872448D01*
X86994626Y34872454D01*
X87091095Y35061783D01*
X87156757Y35263870D01*
X87156757Y35263873D01*
X87190000Y35473754D01*
X87190000Y35686247D01*
X87156757Y35896128D01*
X87156757Y35896131D01*
X87091095Y36098218D01*
X86994622Y36287555D01*
X86910636Y36403150D01*
X86910636Y36403151D01*
X86479848Y35972363D01*
X86422563Y36058097D01*
X86318097Y36162563D01*
X86232361Y36219850D01*
X86663149Y36650637D01*
X86663148Y36650638D01*
X86547554Y36734623D01*
X86358217Y36831096D01*
X86156129Y36896758D01*
X85946246Y36930000D01*
X85733754Y36930000D01*
X85523872Y36896758D01*
X85523869Y36896758D01*
X85321782Y36831096D01*
X85132442Y36734621D01*
X85016850Y36650639D01*
X85016849Y36650638D01*
X85447638Y36219850D01*
X85361903Y36162563D01*
X85257437Y36058097D01*
X85200150Y35972363D01*
X84769362Y36403151D01*
X84769361Y36403150D01*
X84685379Y36287558D01*
X84588904Y36098218D01*
X84523242Y35896131D01*
X84523242Y35896128D01*
X84490000Y35686247D01*
X75388356Y35686247D01*
X71736819Y39337784D01*
X71703334Y39399107D01*
X71700500Y39425465D01*
X71700500Y56100017D01*
X81199500Y56100017D01*
X81199500Y53899999D01*
X81199501Y53899982D01*
X81210000Y53797204D01*
X81210001Y53797201D01*
X81262162Y53639792D01*
X81265186Y53630666D01*
X81357288Y53481344D01*
X81481344Y53357288D01*
X81630666Y53265186D01*
X81797203Y53210001D01*
X81899991Y53199500D01*
X84100008Y53199501D01*
X84202797Y53210001D01*
X84369334Y53265186D01*
X84518656Y53357288D01*
X84642712Y53481344D01*
X84734814Y53630666D01*
X84789999Y53797203D01*
X84800500Y53899991D01*
X84800499Y56100008D01*
X84789999Y56202797D01*
X84734814Y56369334D01*
X84642712Y56518656D01*
X84518656Y56642712D01*
X84369334Y56734814D01*
X84202797Y56789999D01*
X84202795Y56790000D01*
X84100010Y56800500D01*
X81899998Y56800500D01*
X81899981Y56800499D01*
X81797203Y56790000D01*
X81797200Y56789999D01*
X81630668Y56734815D01*
X81630663Y56734813D01*
X81481342Y56642711D01*
X81357289Y56518658D01*
X81265187Y56369337D01*
X81265186Y56369334D01*
X81210001Y56202797D01*
X81210001Y56202796D01*
X81210000Y56202796D01*
X81199500Y56100017D01*
X71700500Y56100017D01*
X71700500Y60198005D01*
X81199500Y60198005D01*
X81199500Y59961996D01*
X81199501Y59961980D01*
X81202930Y59935931D01*
X81230307Y59727986D01*
X81239985Y59691867D01*
X81291394Y59500007D01*
X81381714Y59281955D01*
X81381719Y59281944D01*
X81435674Y59188493D01*
X81499727Y59077550D01*
X81499729Y59077547D01*
X81499730Y59077546D01*
X81643406Y58890303D01*
X81643412Y58890296D01*
X81810295Y58723413D01*
X81810301Y58723408D01*
X81997550Y58579727D01*
X82128918Y58503882D01*
X82201943Y58461720D01*
X82201948Y58461718D01*
X82201951Y58461716D01*
X82420007Y58371394D01*
X82647986Y58310307D01*
X82881989Y58279500D01*
X82881996Y58279500D01*
X83118004Y58279500D01*
X83118011Y58279500D01*
X83352014Y58310307D01*
X83579993Y58371394D01*
X83798049Y58461716D01*
X84002450Y58579727D01*
X84189699Y58723408D01*
X84356592Y58890301D01*
X84500273Y59077550D01*
X84618284Y59281951D01*
X84708606Y59500007D01*
X84769693Y59727986D01*
X84800500Y59961989D01*
X84800500Y60198011D01*
X84769693Y60432014D01*
X84708606Y60659993D01*
X84618284Y60878049D01*
X84618282Y60878052D01*
X84618280Y60878057D01*
X84542564Y61009199D01*
X84500273Y61082450D01*
X84356592Y61269699D01*
X84356587Y61269705D01*
X84189704Y61436588D01*
X84189697Y61436594D01*
X84002454Y61580270D01*
X84002453Y61580271D01*
X84002450Y61580273D01*
X83857199Y61664134D01*
X83798056Y61698281D01*
X83798045Y61698286D01*
X83579993Y61788606D01*
X83352010Y61849694D01*
X83118020Y61880499D01*
X83118017Y61880500D01*
X83118011Y61880500D01*
X82881989Y61880500D01*
X82881983Y61880500D01*
X82881979Y61880499D01*
X82647989Y61849694D01*
X82420006Y61788606D01*
X82201954Y61698286D01*
X82201943Y61698281D01*
X81997545Y61580270D01*
X81810302Y61436594D01*
X81810295Y61436588D01*
X81643412Y61269705D01*
X81643406Y61269698D01*
X81499730Y61082455D01*
X81381719Y60878057D01*
X81381714Y60878046D01*
X81291394Y60659994D01*
X81230306Y60432011D01*
X81199501Y60198021D01*
X81199500Y60198005D01*
X71700500Y60198005D01*
X71700500Y74137282D01*
X71720185Y74204321D01*
X71772989Y74250076D01*
X71842147Y74260020D01*
X71880794Y74247768D01*
X71898405Y74238794D01*
X71999163Y74187455D01*
X71999165Y74187455D01*
X71999168Y74187453D01*
X72095497Y74156154D01*
X72178881Y74129060D01*
X72365514Y74099500D01*
X72365519Y74099500D01*
X72554486Y74099500D01*
X72741118Y74129060D01*
X72920832Y74187453D01*
X73089199Y74273240D01*
X73102613Y74282987D01*
X73168419Y74306467D01*
X73236473Y74290642D01*
X73285169Y74240537D01*
X73299500Y74182669D01*
X73299500Y63270808D01*
X73279815Y63203769D01*
X73263181Y63183127D01*
X73244726Y63164673D01*
X73244723Y63164669D01*
X73173538Y63058134D01*
X73173533Y63058125D01*
X73124499Y62939745D01*
X73124497Y62939739D01*
X73099500Y62814072D01*
X73099500Y62814069D01*
X73099500Y62685931D01*
X73099500Y62685929D01*
X73099499Y62685929D01*
X73124497Y62560262D01*
X73124499Y62560256D01*
X73173533Y62441876D01*
X73173538Y62441867D01*
X73244723Y62335332D01*
X73244726Y62335328D01*
X73335327Y62244727D01*
X73335331Y62244724D01*
X73441866Y62173539D01*
X73441872Y62173536D01*
X73441873Y62173535D01*
X73560256Y62124499D01*
X73560260Y62124499D01*
X73560261Y62124498D01*
X73685928Y62099500D01*
X73685931Y62099500D01*
X73814071Y62099500D01*
X73898615Y62116318D01*
X73939744Y62124499D01*
X74058127Y62173535D01*
X74164669Y62244724D01*
X74255276Y62335331D01*
X74326465Y62441873D01*
X74375501Y62560256D01*
X74395518Y62660886D01*
X74400500Y62685929D01*
X74400500Y62814072D01*
X74375502Y62939739D01*
X74375501Y62939740D01*
X74375501Y62939744D01*
X74326465Y63058127D01*
X74326464Y63058128D01*
X74326461Y63058134D01*
X74255276Y63164669D01*
X74255273Y63164673D01*
X74236819Y63183127D01*
X74203334Y63244450D01*
X74200500Y63270808D01*
X74200500Y65285929D01*
X81400000Y65285929D01*
X81400000Y65034072D01*
X81439397Y64785331D01*
X81517219Y64545816D01*
X81631559Y64321414D01*
X81750380Y64157870D01*
X81750381Y64157869D01*
X82432247Y64839735D01*
X82495112Y64745649D01*
X82585649Y64655112D01*
X82679733Y64592248D01*
X81997867Y63910383D01*
X81997868Y63910381D01*
X82161413Y63791560D01*
X82385815Y63677220D01*
X82625330Y63599398D01*
X82874072Y63560000D01*
X83125928Y63560000D01*
X83374669Y63599398D01*
X83614184Y63677220D01*
X83838583Y63791558D01*
X84002130Y63910383D01*
X84002131Y63910383D01*
X83320266Y64592248D01*
X83414351Y64655112D01*
X83504888Y64745649D01*
X83567752Y64839734D01*
X84249617Y64157869D01*
X84249617Y64157870D01*
X84368442Y64321417D01*
X84482780Y64545816D01*
X84560602Y64785331D01*
X84600000Y65034072D01*
X84600000Y65285929D01*
X84560602Y65534670D01*
X84482780Y65774185D01*
X84368440Y65998587D01*
X84249619Y66162132D01*
X84249617Y66162133D01*
X83567752Y65480267D01*
X83504888Y65574351D01*
X83414351Y65664888D01*
X83320264Y65727754D01*
X84002131Y66409619D01*
X84002130Y66409620D01*
X83838586Y66528441D01*
X83614184Y66642781D01*
X83374669Y66720603D01*
X83125928Y66760000D01*
X82874072Y66760000D01*
X82625330Y66720603D01*
X82385815Y66642781D01*
X82161413Y66528441D01*
X81997868Y66409620D01*
X81997868Y66409618D01*
X82679733Y65727753D01*
X82585649Y65664888D01*
X82495112Y65574351D01*
X82432247Y65480267D01*
X81750382Y66162132D01*
X81750380Y66162132D01*
X81631559Y65998587D01*
X81517219Y65774185D01*
X81439397Y65534670D01*
X81400000Y65285929D01*
X74200500Y65285929D01*
X74200500Y74126000D01*
X74220185Y74193039D01*
X74272989Y74238794D01*
X74324500Y74250000D01*
X74875000Y74250000D01*
X74875000Y74815856D01*
X74934174Y74800000D01*
X75065826Y74800000D01*
X75125000Y74815856D01*
X75125000Y74250000D01*
X75869699Y74250000D01*
X75869702Y74250001D01*
X75928033Y74261603D01*
X75928034Y74261604D01*
X75994191Y74305809D01*
X76038396Y74371966D01*
X76038397Y74371967D01*
X76049999Y74430298D01*
X76050000Y74430301D01*
X76050000Y75175000D01*
X75484144Y75175000D01*
X75500000Y75234174D01*
X75500000Y75365826D01*
X75484144Y75425000D01*
X76050000Y75425000D01*
X76050000Y76169699D01*
X76049999Y76169703D01*
X76038397Y76228034D01*
X76038396Y76228035D01*
X75994191Y76294192D01*
X75928034Y76338397D01*
X75928033Y76338398D01*
X75869702Y76350000D01*
X75125000Y76350000D01*
X75125000Y75784145D01*
X75065826Y75800000D01*
X74934174Y75800000D01*
X74875000Y75784145D01*
X74875000Y76350000D01*
X74324500Y76350000D01*
X74257461Y76369685D01*
X74211706Y76422489D01*
X74200500Y76474000D01*
X74200500Y98121807D01*
X74200500Y98121809D01*
X74169799Y98236386D01*
X74169799Y98236387D01*
X74110489Y98339114D01*
X73089114Y99360489D01*
X73063115Y99375500D01*
X73033077Y99392843D01*
X73007398Y99412548D01*
X72982993Y99436953D01*
X72949508Y99498276D01*
X72954492Y99567968D01*
X72996364Y99623901D01*
X73014367Y99635112D01*
X73089199Y99673240D01*
X73242073Y99784310D01*
X73375690Y99917927D01*
X73486760Y100070801D01*
X73565015Y100224387D01*
X73612989Y100275182D01*
X73680810Y100291977D01*
X73746945Y100269440D01*
X73790397Y100214725D01*
X73799500Y100168091D01*
X73799500Y99816740D01*
X73809426Y99748609D01*
X73809427Y99748607D01*
X73845433Y99674954D01*
X73860803Y99643515D01*
X73943514Y99560804D01*
X73943515Y99560804D01*
X73943517Y99560802D01*
X74048607Y99509427D01*
X74075326Y99505534D01*
X74116739Y99499500D01*
X75876000Y99499500D01*
X75943039Y99479815D01*
X75988794Y99427011D01*
X76000000Y99375500D01*
X76000000Y77900000D01*
X93376000Y77900000D01*
X93443039Y77880315D01*
X93488794Y77827511D01*
X93500000Y77776000D01*
X93500000Y2979070D01*
X93485989Y2921813D01*
X93399182Y2755059D01*
X93393774Y2745691D01*
X93228581Y2486388D01*
X93175959Y2440424D01*
X93106840Y2430206D01*
X93043170Y2458978D01*
X93005163Y2517606D01*
X93000000Y2553013D01*
X93000000Y8500000D01*
X86000000Y8500000D01*
X86000000Y1500000D01*
X91946987Y1500000D01*
X92014026Y1480315D01*
X92059781Y1427511D01*
X92069725Y1358353D01*
X92040700Y1294797D01*
X92013612Y1271419D01*
X91754309Y1106226D01*
X91744942Y1100818D01*
X91691894Y1073203D01*
X91578187Y1014011D01*
X91520932Y1000000D01*
X2979065Y1000000D01*
X2921809Y1014011D01*
X2755042Y1100825D01*
X2745686Y1106226D01*
X2541423Y1236357D01*
X2486385Y1271420D01*
X2440421Y1324042D01*
X2430203Y1393160D01*
X2458976Y1456831D01*
X2517604Y1494838D01*
X2553010Y1500000D01*
X8500000Y1500000D01*
X8500000Y8500000D01*
X1500000Y8500000D01*
X1500000Y2553010D01*
X1480315Y2485971D01*
X1427511Y2440216D01*
X1358353Y2430272D01*
X1294797Y2459297D01*
X1271422Y2486382D01*
X1106215Y2745704D01*
X1100831Y2755028D01*
X1014010Y2921811D01*
X1000000Y2979067D01*
X1000000Y11594222D01*
X52524500Y11594222D01*
X52524500Y11305779D01*
X52524501Y11305762D01*
X52562149Y11019794D01*
X52562150Y11019789D01*
X52562151Y11019783D01*
X52562152Y11019781D01*
X52636809Y10741156D01*
X52636814Y10741140D01*
X52747191Y10474664D01*
X52747199Y10474648D01*
X52891420Y10224852D01*
X52891431Y10224836D01*
X53067024Y9995998D01*
X53067030Y9995991D01*
X53270990Y9792031D01*
X53270996Y9792026D01*
X53499844Y9616425D01*
X53499851Y9616421D01*
X53749647Y9472200D01*
X53749663Y9472192D01*
X54016139Y9361815D01*
X54016145Y9361814D01*
X54016155Y9361809D01*
X54294783Y9287151D01*
X54580772Y9249500D01*
X54580779Y9249500D01*
X54869221Y9249500D01*
X54869228Y9249500D01*
X55155217Y9287151D01*
X55433845Y9361809D01*
X55433857Y9361815D01*
X55433860Y9361815D01*
X55700336Y9472192D01*
X55700339Y9472194D01*
X55700345Y9472196D01*
X55950156Y9616425D01*
X56179004Y9792026D01*
X56382974Y9995996D01*
X56558575Y10224844D01*
X56702804Y10474655D01*
X56813191Y10741155D01*
X56887849Y11019783D01*
X56925500Y11305772D01*
X56925500Y11594222D01*
X71574500Y11594222D01*
X71574500Y11305779D01*
X71574501Y11305762D01*
X71612149Y11019794D01*
X71612150Y11019789D01*
X71612151Y11019783D01*
X71612152Y11019781D01*
X71686809Y10741156D01*
X71686814Y10741140D01*
X71797191Y10474664D01*
X71797199Y10474648D01*
X71941420Y10224852D01*
X71941431Y10224836D01*
X72117024Y9995998D01*
X72117030Y9995991D01*
X72320990Y9792031D01*
X72320996Y9792026D01*
X72549844Y9616425D01*
X72549851Y9616421D01*
X72799647Y9472200D01*
X72799663Y9472192D01*
X73066139Y9361815D01*
X73066145Y9361814D01*
X73066155Y9361809D01*
X73344783Y9287151D01*
X73630772Y9249500D01*
X73630779Y9249500D01*
X73919221Y9249500D01*
X73919228Y9249500D01*
X74205217Y9287151D01*
X74483845Y9361809D01*
X74483857Y9361815D01*
X74483860Y9361815D01*
X74750336Y9472192D01*
X74750339Y9472194D01*
X74750345Y9472196D01*
X75000156Y9616425D01*
X75229004Y9792026D01*
X75432974Y9995996D01*
X75608575Y10224844D01*
X75752804Y10474655D01*
X75863191Y10741155D01*
X75937849Y11019783D01*
X75975500Y11305772D01*
X75975500Y11594228D01*
X75937849Y11880217D01*
X75863191Y12158845D01*
X75863186Y12158855D01*
X75863185Y12158861D01*
X75752808Y12425337D01*
X75752800Y12425353D01*
X75608579Y12675149D01*
X75608575Y12675156D01*
X75432974Y12904004D01*
X75432969Y12904010D01*
X75229009Y13107970D01*
X75229002Y13107976D01*
X75000164Y13283569D01*
X75000162Y13283571D01*
X75000156Y13283575D01*
X75000151Y13283578D01*
X75000148Y13283580D01*
X74750352Y13427801D01*
X74750336Y13427809D01*
X74483860Y13538186D01*
X74483848Y13538190D01*
X74483845Y13538191D01*
X74205217Y13612849D01*
X74205211Y13612850D01*
X74205206Y13612851D01*
X73919238Y13650499D01*
X73919233Y13650500D01*
X73919228Y13650500D01*
X73630772Y13650500D01*
X73630766Y13650500D01*
X73630761Y13650499D01*
X73344793Y13612851D01*
X73344786Y13612850D01*
X73344783Y13612849D01*
X73066155Y13538191D01*
X73066139Y13538186D01*
X72799663Y13427809D01*
X72799647Y13427801D01*
X72549851Y13283580D01*
X72549835Y13283569D01*
X72320997Y13107976D01*
X72320990Y13107970D01*
X72117030Y12904010D01*
X72117024Y12904003D01*
X71941431Y12675165D01*
X71941420Y12675149D01*
X71797199Y12425353D01*
X71797191Y12425337D01*
X71686814Y12158861D01*
X71686809Y12158845D01*
X71612152Y11880220D01*
X71612149Y11880207D01*
X71574501Y11594239D01*
X71574500Y11594222D01*
X56925500Y11594222D01*
X56925500Y11594228D01*
X56887849Y11880217D01*
X56813191Y12158845D01*
X56813186Y12158855D01*
X56813185Y12158861D01*
X56702808Y12425337D01*
X56702800Y12425353D01*
X56558579Y12675149D01*
X56558575Y12675156D01*
X56382974Y12904004D01*
X56382969Y12904010D01*
X56179009Y13107970D01*
X56179002Y13107976D01*
X55950164Y13283569D01*
X55950162Y13283571D01*
X55950156Y13283575D01*
X55950151Y13283578D01*
X55950148Y13283580D01*
X55700352Y13427801D01*
X55700336Y13427809D01*
X55433860Y13538186D01*
X55433848Y13538190D01*
X55433845Y13538191D01*
X55155217Y13612849D01*
X55155211Y13612850D01*
X55155206Y13612851D01*
X54869238Y13650499D01*
X54869233Y13650500D01*
X54869228Y13650500D01*
X54580772Y13650500D01*
X54580766Y13650500D01*
X54580761Y13650499D01*
X54294793Y13612851D01*
X54294786Y13612850D01*
X54294783Y13612849D01*
X54016155Y13538191D01*
X54016139Y13538186D01*
X53749663Y13427809D01*
X53749647Y13427801D01*
X53499851Y13283580D01*
X53499835Y13283569D01*
X53270997Y13107976D01*
X53270990Y13107970D01*
X53067030Y12904010D01*
X53067024Y12904003D01*
X52891431Y12675165D01*
X52891420Y12675149D01*
X52747199Y12425353D01*
X52747191Y12425337D01*
X52636814Y12158861D01*
X52636809Y12158845D01*
X52562152Y11880220D01*
X52562149Y11880207D01*
X52524501Y11594239D01*
X52524500Y11594222D01*
X1000000Y11594222D01*
X1000000Y18360507D01*
X13350000Y18360507D01*
X13350000Y18179494D01*
X13378317Y18000707D01*
X13434251Y17828556D01*
X13434252Y17828553D01*
X13516434Y17667266D01*
X13572545Y17590035D01*
X13572547Y17590035D01*
X14043388Y18060876D01*
X14099901Y17962993D01*
X14192993Y17869901D01*
X14290874Y17813389D01*
X13820032Y17342548D01*
X13820033Y17342547D01*
X13897265Y17286435D01*
X14058552Y17204253D01*
X14058555Y17204252D01*
X14230706Y17148318D01*
X14409494Y17120000D01*
X14590506Y17120000D01*
X14769293Y17148318D01*
X14941444Y17204252D01*
X14941447Y17204253D01*
X15102731Y17286433D01*
X15179965Y17342548D01*
X15179966Y17342548D01*
X14709125Y17813389D01*
X14807007Y17869901D01*
X14900099Y17962993D01*
X14956611Y18060876D01*
X15427452Y17590034D01*
X15427452Y17590035D01*
X15483567Y17667269D01*
X15565747Y17828553D01*
X15565749Y17828559D01*
X15605519Y17950959D01*
X15644956Y18008635D01*
X15709314Y18035834D01*
X15778161Y18023920D01*
X15829637Y17976676D01*
X15841381Y17950961D01*
X15887454Y17809164D01*
X15959754Y17667269D01*
X15973240Y17640801D01*
X16084310Y17487927D01*
X16217927Y17354310D01*
X16370801Y17243240D01*
X16447318Y17204253D01*
X16539163Y17157455D01*
X16539165Y17157455D01*
X16539168Y17157453D01*
X16635497Y17126154D01*
X16718881Y17099060D01*
X16905514Y17069500D01*
X16905519Y17069500D01*
X17094486Y17069500D01*
X17281118Y17099060D01*
X17460832Y17157453D01*
X17629199Y17243240D01*
X17782073Y17354310D01*
X17915690Y17487927D01*
X18026760Y17640801D01*
X18112547Y17809168D01*
X18132069Y17869252D01*
X18171507Y17926927D01*
X18235865Y17954125D01*
X18304712Y17942210D01*
X18356187Y17894966D01*
X18367930Y17869254D01*
X18387453Y17809168D01*
X18473240Y17640801D01*
X18584310Y17487927D01*
X18717927Y17354310D01*
X18870801Y17243240D01*
X18947318Y17204253D01*
X19039163Y17157455D01*
X19039165Y17157455D01*
X19039168Y17157453D01*
X19135497Y17126154D01*
X19218881Y17099060D01*
X19405514Y17069500D01*
X19405519Y17069500D01*
X19594486Y17069500D01*
X19781118Y17099060D01*
X19960832Y17157453D01*
X20129199Y17243240D01*
X20282073Y17354310D01*
X20415690Y17487927D01*
X20526760Y17640801D01*
X20612547Y17809168D01*
X20670940Y17988882D01*
X20676267Y18022513D01*
X20700500Y18175514D01*
X20700500Y18364487D01*
X20670940Y18551119D01*
X20612545Y18730837D01*
X20567290Y18819653D01*
X20526760Y18899199D01*
X20415690Y19052073D01*
X20282073Y19185690D01*
X20129199Y19296760D01*
X19960836Y19382546D01*
X19781118Y19440941D01*
X19594486Y19470500D01*
X19594481Y19470500D01*
X19405519Y19470500D01*
X19405514Y19470500D01*
X19218881Y19440941D01*
X19039163Y19382546D01*
X18870800Y19296760D01*
X18811355Y19253570D01*
X18717927Y19185690D01*
X18717925Y19185688D01*
X18717924Y19185688D01*
X18584312Y19052076D01*
X18584312Y19052075D01*
X18584310Y19052073D01*
X18536610Y18986421D01*
X18473240Y18899200D01*
X18387454Y18730837D01*
X18367931Y18670749D01*
X18328493Y18613074D01*
X18264134Y18585876D01*
X18195288Y18597791D01*
X18143812Y18645035D01*
X18132069Y18670749D01*
X18112545Y18730837D01*
X18067290Y18819653D01*
X18026760Y18899199D01*
X17915690Y19052073D01*
X17782073Y19185690D01*
X17629199Y19296760D01*
X17460836Y19382546D01*
X17281118Y19440941D01*
X17094486Y19470500D01*
X17094481Y19470500D01*
X16905519Y19470500D01*
X16905514Y19470500D01*
X16718881Y19440941D01*
X16539163Y19382546D01*
X16370800Y19296760D01*
X16311355Y19253570D01*
X16217927Y19185690D01*
X16217925Y19185688D01*
X16217924Y19185688D01*
X16084312Y19052076D01*
X16084312Y19052075D01*
X16084310Y19052073D01*
X16036610Y18986421D01*
X15973240Y18899200D01*
X15887454Y18730837D01*
X15841381Y18589040D01*
X15801943Y18531365D01*
X15737584Y18504167D01*
X15668737Y18516082D01*
X15617262Y18563327D01*
X15605519Y18589041D01*
X15565748Y18711445D01*
X15565747Y18711448D01*
X15483565Y18872735D01*
X15427453Y18949967D01*
X15427452Y18949968D01*
X14956610Y18479126D01*
X14900099Y18577007D01*
X14807007Y18670099D01*
X14709124Y18726612D01*
X15179965Y19197453D01*
X15179965Y19197455D01*
X15102734Y19253566D01*
X14941447Y19335748D01*
X14941444Y19335749D01*
X14769293Y19391683D01*
X14590506Y19420000D01*
X14409494Y19420000D01*
X14230706Y19391683D01*
X14058555Y19335749D01*
X14058552Y19335748D01*
X13897272Y19253570D01*
X13820033Y19197454D01*
X14290875Y18726612D01*
X14192993Y18670099D01*
X14099901Y18577007D01*
X14043388Y18479125D01*
X13572546Y18949967D01*
X13516430Y18872728D01*
X13434252Y18711448D01*
X13434251Y18711445D01*
X13378317Y18539294D01*
X13350000Y18360507D01*
X1000000Y18360507D01*
X1000000Y22110222D01*
X9274500Y22110222D01*
X9274500Y21889779D01*
X9308985Y21672048D01*
X9377103Y21462397D01*
X9377104Y21462394D01*
X9477187Y21265975D01*
X9606752Y21087642D01*
X9606756Y21087637D01*
X9762636Y20931757D01*
X9762641Y20931753D01*
X9918192Y20818740D01*
X9940978Y20802185D01*
X10069375Y20736763D01*
X10137393Y20702105D01*
X10137396Y20702104D01*
X10242221Y20668045D01*
X10347049Y20633985D01*
X10564778Y20599500D01*
X10564779Y20599500D01*
X10785221Y20599500D01*
X10785222Y20599500D01*
X11002951Y20633985D01*
X11212606Y20702105D01*
X11409022Y20802185D01*
X11587365Y20931758D01*
X11743242Y21087635D01*
X11872815Y21265978D01*
X11972895Y21462394D01*
X12041015Y21672049D01*
X12075500Y21889778D01*
X12075500Y22110222D01*
X21924500Y22110222D01*
X21924500Y21889779D01*
X21958985Y21672048D01*
X22027103Y21462397D01*
X22027104Y21462394D01*
X22127187Y21265975D01*
X22256752Y21087642D01*
X22256756Y21087637D01*
X22412636Y20931757D01*
X22412641Y20931753D01*
X22568192Y20818740D01*
X22590978Y20802185D01*
X22719375Y20736763D01*
X22787393Y20702105D01*
X22787396Y20702104D01*
X22892221Y20668045D01*
X22997049Y20633985D01*
X23214778Y20599500D01*
X23214779Y20599500D01*
X23435221Y20599500D01*
X23435222Y20599500D01*
X23652951Y20633985D01*
X23862606Y20702105D01*
X24059022Y20802185D01*
X24237365Y20931758D01*
X24393242Y21087635D01*
X24522815Y21265978D01*
X24622895Y21462394D01*
X24691015Y21672049D01*
X24725500Y21889778D01*
X24725500Y22110222D01*
X24691015Y22327951D01*
X24622895Y22537606D01*
X24622895Y22537607D01*
X24588237Y22605625D01*
X24522815Y22734022D01*
X24506260Y22756808D01*
X24393247Y22912359D01*
X24393243Y22912364D01*
X24237363Y23068244D01*
X24237358Y23068248D01*
X24059025Y23197813D01*
X24059024Y23197814D01*
X24059022Y23197815D01*
X23996096Y23229878D01*
X23862606Y23297896D01*
X23862603Y23297897D01*
X23652952Y23366015D01*
X23517597Y23387453D01*
X23435222Y23400500D01*
X23214778Y23400500D01*
X23142201Y23389005D01*
X22997047Y23366015D01*
X22787396Y23297897D01*
X22787393Y23297896D01*
X22590974Y23197813D01*
X22412641Y23068248D01*
X22412636Y23068244D01*
X22256756Y22912364D01*
X22256752Y22912359D01*
X22127187Y22734026D01*
X22027104Y22537607D01*
X22027103Y22537604D01*
X21958985Y22327953D01*
X21924500Y22110222D01*
X12075500Y22110222D01*
X12041015Y22327951D01*
X11972895Y22537606D01*
X11972895Y22537607D01*
X11938237Y22605625D01*
X11872815Y22734022D01*
X11856260Y22756808D01*
X11743247Y22912359D01*
X11743243Y22912364D01*
X11587363Y23068244D01*
X11587358Y23068248D01*
X11409025Y23197813D01*
X11409024Y23197814D01*
X11409022Y23197815D01*
X11346096Y23229878D01*
X11212606Y23297896D01*
X11212603Y23297897D01*
X11002952Y23366015D01*
X10867597Y23387453D01*
X10785222Y23400500D01*
X10564778Y23400500D01*
X10492201Y23389005D01*
X10347047Y23366015D01*
X10137396Y23297897D01*
X10137393Y23297896D01*
X9940974Y23197813D01*
X9762641Y23068248D01*
X9762636Y23068244D01*
X9606756Y22912364D01*
X9606752Y22912359D01*
X9477187Y22734026D01*
X9377104Y22537607D01*
X9377103Y22537604D01*
X9308985Y22327953D01*
X9274500Y22110222D01*
X1000000Y22110222D01*
X1000000Y27094487D01*
X7069500Y27094487D01*
X7069500Y26905514D01*
X7099059Y26718882D01*
X7157454Y26539164D01*
X7243240Y26370801D01*
X7354310Y26217927D01*
X7487927Y26084310D01*
X7640801Y25973240D01*
X7720347Y25932710D01*
X7809163Y25887455D01*
X7809165Y25887455D01*
X7809168Y25887453D01*
X7869251Y25867931D01*
X7926926Y25828493D01*
X7954124Y25764134D01*
X7942209Y25695288D01*
X7894965Y25643812D01*
X7869253Y25632070D01*
X7850756Y25626061D01*
X7809163Y25612546D01*
X7640800Y25526760D01*
X7553579Y25463390D01*
X7487927Y25415690D01*
X7487925Y25415688D01*
X7487924Y25415688D01*
X7354312Y25282076D01*
X7354312Y25282075D01*
X7354310Y25282073D01*
X7306610Y25216421D01*
X7243240Y25129200D01*
X7157454Y24960837D01*
X7099059Y24781119D01*
X7069500Y24594487D01*
X7069500Y24405514D01*
X7099059Y24218882D01*
X7157454Y24039164D01*
X7243240Y23870801D01*
X7354310Y23717927D01*
X7487927Y23584310D01*
X7640801Y23473240D01*
X7720347Y23432710D01*
X7809163Y23387455D01*
X7809165Y23387455D01*
X7809168Y23387453D01*
X7875147Y23366015D01*
X7988881Y23329060D01*
X8175514Y23299500D01*
X8175519Y23299500D01*
X8364486Y23299500D01*
X8551118Y23329060D01*
X8730832Y23387453D01*
X8899199Y23473240D01*
X9052073Y23584310D01*
X9185690Y23717927D01*
X9296760Y23870801D01*
X9382547Y24039168D01*
X9440940Y24218882D01*
X9470500Y24405514D01*
X9470500Y24594487D01*
X9440940Y24781119D01*
X9382545Y24960837D01*
X9296759Y25129200D01*
X9185690Y25282073D01*
X9052073Y25415690D01*
X8899199Y25526760D01*
X8730832Y25612547D01*
X8670748Y25632070D01*
X8613073Y25671507D01*
X8585875Y25735865D01*
X8597790Y25804712D01*
X8645034Y25856187D01*
X8670746Y25867931D01*
X8730832Y25887453D01*
X8899199Y25973240D01*
X9052073Y26084310D01*
X9185690Y26217927D01*
X9296760Y26370801D01*
X9382547Y26539168D01*
X9440940Y26718882D01*
X9470500Y26905514D01*
X9470500Y27094487D01*
X9440940Y27281119D01*
X9382545Y27460837D01*
X9296759Y27629200D01*
X9185690Y27782073D01*
X9052073Y27915690D01*
X8899199Y28026760D01*
X8730836Y28112546D01*
X8589039Y28158619D01*
X8531364Y28198057D01*
X8504166Y28262416D01*
X8516081Y28331262D01*
X8563326Y28382738D01*
X8589041Y28394481D01*
X8711441Y28434251D01*
X8711447Y28434253D01*
X8872731Y28516433D01*
X8949965Y28572548D01*
X8949966Y28572548D01*
X8479125Y29043389D01*
X8577007Y29099901D01*
X8670099Y29192993D01*
X8726611Y29290875D01*
X9197452Y28820034D01*
X9197452Y28820035D01*
X9253567Y28897269D01*
X9335747Y29058553D01*
X9335748Y29058556D01*
X9391682Y29230707D01*
X9420000Y29409494D01*
X9420000Y29590507D01*
X9391683Y29769292D01*
X9335748Y29941445D01*
X9335747Y29941448D01*
X9253565Y30102735D01*
X9197453Y30179967D01*
X9197452Y30179968D01*
X8726610Y29709126D01*
X8670099Y29807007D01*
X8577007Y29900099D01*
X8479124Y29956612D01*
X8949965Y30427453D01*
X8949965Y30427455D01*
X8872734Y30483566D01*
X8711447Y30565748D01*
X8711444Y30565749D01*
X8539293Y30621683D01*
X8360506Y30650000D01*
X8179494Y30650000D01*
X8000706Y30621683D01*
X7828555Y30565749D01*
X7828552Y30565748D01*
X7667272Y30483570D01*
X7590033Y30427454D01*
X8060875Y29956612D01*
X7962993Y29900099D01*
X7869901Y29807007D01*
X7813388Y29709125D01*
X7342546Y30179967D01*
X7286430Y30102728D01*
X7204252Y29941448D01*
X7204251Y29941445D01*
X7148317Y29769294D01*
X7120000Y29590507D01*
X7120000Y29409494D01*
X7148317Y29230707D01*
X7204251Y29058556D01*
X7204252Y29058553D01*
X7286434Y28897266D01*
X7342545Y28820035D01*
X7342547Y28820035D01*
X7813388Y29290876D01*
X7869901Y29192993D01*
X7962993Y29099901D01*
X8060874Y29043389D01*
X7590032Y28572548D01*
X7590033Y28572547D01*
X7667265Y28516435D01*
X7828552Y28434253D01*
X7828555Y28434252D01*
X7950959Y28394481D01*
X8008634Y28355044D01*
X8035833Y28290685D01*
X8023919Y28221839D01*
X7976675Y28170363D01*
X7950960Y28158619D01*
X7809163Y28112546D01*
X7640800Y28026760D01*
X7553579Y27963390D01*
X7487927Y27915690D01*
X7487925Y27915688D01*
X7487924Y27915688D01*
X7354312Y27782076D01*
X7354312Y27782075D01*
X7354310Y27782073D01*
X7306610Y27716421D01*
X7243240Y27629200D01*
X7157454Y27460837D01*
X7099059Y27281119D01*
X7069500Y27094487D01*
X1000000Y27094487D01*
X1000000Y32110222D01*
X9274500Y32110222D01*
X9274500Y31889778D01*
X9282038Y31842188D01*
X9308985Y31672048D01*
X9377103Y31462397D01*
X9377104Y31462394D01*
X9477187Y31265975D01*
X9606752Y31087642D01*
X9606756Y31087637D01*
X9762636Y30931757D01*
X9762641Y30931753D01*
X9861991Y30859572D01*
X9940978Y30802185D01*
X10069375Y30736763D01*
X10137393Y30702105D01*
X10137396Y30702104D01*
X10242221Y30668045D01*
X10347049Y30633985D01*
X10564778Y30599500D01*
X10564779Y30599500D01*
X10785221Y30599500D01*
X10785222Y30599500D01*
X11002951Y30633985D01*
X11212606Y30702105D01*
X11409022Y30802185D01*
X11587365Y30931758D01*
X11743242Y31087635D01*
X11872815Y31265978D01*
X11972895Y31462394D01*
X12041015Y31672049D01*
X12075500Y31889778D01*
X12075500Y32110222D01*
X12041015Y32327951D01*
X11983400Y32505274D01*
X11972896Y32537604D01*
X11972895Y32537607D01*
X11872813Y32734025D01*
X11836258Y32784340D01*
X11836257Y32784341D01*
X11786844Y32852352D01*
X12449500Y32852352D01*
X12449500Y32647648D01*
X12453008Y32625501D01*
X12481522Y32445466D01*
X12544781Y32250777D01*
X12593318Y32155519D01*
X12616398Y32110222D01*
X12637715Y32068387D01*
X12758028Y31902787D01*
X12902786Y31758029D01*
X13057749Y31645444D01*
X13068390Y31637713D01*
X13171201Y31585328D01*
X13250776Y31544782D01*
X13250778Y31544782D01*
X13250781Y31544780D01*
X13355137Y31510873D01*
X13445465Y31481523D01*
X13484522Y31475337D01*
X13647648Y31449500D01*
X13647649Y31449500D01*
X13852351Y31449500D01*
X13852352Y31449500D01*
X14054534Y31481523D01*
X14249219Y31544780D01*
X14431610Y31637713D01*
X14524590Y31705268D01*
X14597213Y31758029D01*
X14597215Y31758032D01*
X14597219Y31758034D01*
X14741966Y31902781D01*
X14741968Y31902785D01*
X14741971Y31902787D01*
X14794732Y31975410D01*
X14862287Y32068390D01*
X14955220Y32250781D01*
X15018477Y32445466D01*
X15050500Y32647648D01*
X15050500Y32852352D01*
X18949500Y32852352D01*
X18949500Y32647648D01*
X18953008Y32625501D01*
X18981522Y32445466D01*
X19044781Y32250777D01*
X19093318Y32155519D01*
X19116398Y32110222D01*
X19137715Y32068387D01*
X19258028Y31902787D01*
X19402786Y31758029D01*
X19557749Y31645444D01*
X19568390Y31637713D01*
X19671201Y31585328D01*
X19750776Y31544782D01*
X19750778Y31544782D01*
X19750781Y31544780D01*
X19855137Y31510873D01*
X19945465Y31481523D01*
X19984522Y31475337D01*
X20147648Y31449500D01*
X20147649Y31449500D01*
X20352351Y31449500D01*
X20352352Y31449500D01*
X20554534Y31481523D01*
X20749219Y31544780D01*
X20931610Y31637713D01*
X21024590Y31705268D01*
X21097213Y31758029D01*
X21097215Y31758032D01*
X21097219Y31758034D01*
X21241966Y31902781D01*
X21241968Y31902785D01*
X21241971Y31902787D01*
X21294732Y31975410D01*
X21362287Y32068390D01*
X21383602Y32110222D01*
X21924500Y32110222D01*
X21924500Y31889778D01*
X21932038Y31842188D01*
X21958985Y31672048D01*
X22027103Y31462397D01*
X22027104Y31462394D01*
X22127187Y31265975D01*
X22256752Y31087642D01*
X22256756Y31087637D01*
X22412636Y30931757D01*
X22412641Y30931753D01*
X22511991Y30859572D01*
X22590978Y30802185D01*
X22719375Y30736763D01*
X22787393Y30702105D01*
X22787396Y30702104D01*
X22892221Y30668045D01*
X22997049Y30633985D01*
X23214778Y30599500D01*
X23214779Y30599500D01*
X23435221Y30599500D01*
X23435222Y30599500D01*
X23652951Y30633985D01*
X23862606Y30702105D01*
X24059022Y30802185D01*
X24237365Y30931758D01*
X24393242Y31087635D01*
X24522815Y31265978D01*
X24622895Y31462394D01*
X24691015Y31672049D01*
X24725500Y31889778D01*
X24725500Y32110222D01*
X24691015Y32327951D01*
X24685642Y32344487D01*
X38489500Y32344487D01*
X38489500Y32155514D01*
X38519059Y31968882D01*
X38577454Y31789164D01*
X38627027Y31691873D01*
X38663240Y31620801D01*
X38774310Y31467927D01*
X38907927Y31334310D01*
X39060801Y31223240D01*
X39089053Y31208845D01*
X39229163Y31137455D01*
X39229165Y31137455D01*
X39229168Y31137453D01*
X39325497Y31106154D01*
X39408881Y31079060D01*
X39422468Y31076908D01*
X39485603Y31046979D01*
X39522534Y30987667D01*
X39521536Y30917805D01*
X39482926Y30859572D01*
X39425331Y30833269D01*
X39425439Y30832819D01*
X39423136Y30832267D01*
X39422470Y30831962D01*
X39420705Y30831683D01*
X39248555Y30775749D01*
X39248552Y30775748D01*
X39087272Y30693570D01*
X39010033Y30637454D01*
X39480875Y30166612D01*
X39382993Y30110099D01*
X39289901Y30017007D01*
X39233388Y29919125D01*
X38762546Y30389967D01*
X38706430Y30312728D01*
X38624252Y30151448D01*
X38624251Y30151445D01*
X38568317Y29979294D01*
X38540000Y29800507D01*
X38540000Y29619494D01*
X38568317Y29440707D01*
X38624251Y29268556D01*
X38624252Y29268553D01*
X38706434Y29107266D01*
X38762545Y29030035D01*
X38762547Y29030035D01*
X39233388Y29500876D01*
X39289901Y29402993D01*
X39382993Y29309901D01*
X39480874Y29253389D01*
X39010032Y28782548D01*
X39010033Y28782547D01*
X39087265Y28726435D01*
X39248552Y28644253D01*
X39248555Y28644252D01*
X39420706Y28588318D01*
X39599494Y28560000D01*
X39780506Y28560000D01*
X39959293Y28588318D01*
X40131444Y28644252D01*
X40131447Y28644253D01*
X40292731Y28726433D01*
X40369965Y28782548D01*
X40369966Y28782548D01*
X39899125Y29253389D01*
X39997007Y29309901D01*
X40090099Y29402993D01*
X40146611Y29500876D01*
X40617452Y29030034D01*
X40617452Y29030035D01*
X40673567Y29107269D01*
X40755747Y29268553D01*
X40755748Y29268556D01*
X40811682Y29440707D01*
X40840000Y29619494D01*
X40840000Y29800507D01*
X40811682Y29979294D01*
X40755748Y30151445D01*
X40755747Y30151448D01*
X40673565Y30312735D01*
X40617453Y30389967D01*
X40617452Y30389968D01*
X40146610Y29919126D01*
X40090099Y30017007D01*
X39997007Y30110099D01*
X39899124Y30166612D01*
X40369965Y30637453D01*
X40369965Y30637455D01*
X40292734Y30693566D01*
X40131447Y30775748D01*
X40131444Y30775749D01*
X39959298Y30831682D01*
X39957532Y30831961D01*
X39956912Y30832255D01*
X39954561Y30832819D01*
X39954679Y30833314D01*
X39894397Y30861890D01*
X39857465Y30921202D01*
X39858463Y30991064D01*
X39897072Y31049297D01*
X39957532Y31076908D01*
X39971118Y31079060D01*
X40150832Y31137453D01*
X40319199Y31223240D01*
X40472073Y31334310D01*
X40605690Y31467927D01*
X40716760Y31620801D01*
X40802547Y31789168D01*
X40850233Y31935929D01*
X42849499Y31935929D01*
X42874497Y31810262D01*
X42874499Y31810256D01*
X42923533Y31691876D01*
X42923538Y31691867D01*
X42994723Y31585332D01*
X42994726Y31585328D01*
X43085327Y31494727D01*
X43085331Y31494724D01*
X43191866Y31423539D01*
X43191872Y31423536D01*
X43191873Y31423535D01*
X43310256Y31374499D01*
X43310260Y31374499D01*
X43310261Y31374498D01*
X43435928Y31349500D01*
X43435931Y31349500D01*
X43564071Y31349500D01*
X43648615Y31366318D01*
X43689744Y31374499D01*
X43808127Y31423535D01*
X43914669Y31494724D01*
X44005276Y31585331D01*
X44076465Y31691873D01*
X44125501Y31810256D01*
X44140320Y31884755D01*
X44150500Y31935929D01*
X44150500Y32064072D01*
X44125502Y32189739D01*
X44125501Y32189740D01*
X44125501Y32189744D01*
X44087574Y32281308D01*
X44076466Y32308125D01*
X44076461Y32308134D01*
X44005276Y32414669D01*
X44005273Y32414673D01*
X43914672Y32505274D01*
X43914668Y32505277D01*
X43808133Y32576462D01*
X43808124Y32576467D01*
X43689744Y32625501D01*
X43689738Y32625503D01*
X43564071Y32650500D01*
X43564069Y32650500D01*
X43435931Y32650500D01*
X43435929Y32650500D01*
X43310261Y32625503D01*
X43310255Y32625501D01*
X43191875Y32576467D01*
X43191866Y32576462D01*
X43085331Y32505277D01*
X43085327Y32505274D01*
X42994726Y32414673D01*
X42994723Y32414669D01*
X42923538Y32308134D01*
X42923533Y32308125D01*
X42874499Y32189745D01*
X42874497Y32189739D01*
X42849500Y32064072D01*
X42849500Y32064069D01*
X42849500Y31935931D01*
X42849500Y31935929D01*
X42849499Y31935929D01*
X40850233Y31935929D01*
X40860940Y31968882D01*
X40861396Y31971758D01*
X40880054Y32089559D01*
X40890500Y32155514D01*
X40890500Y32344487D01*
X40860940Y32531119D01*
X40830272Y32625503D01*
X40802547Y32710832D01*
X40732188Y32848919D01*
X40719293Y32917585D01*
X40745569Y32982325D01*
X40754984Y32992883D01*
X41610489Y33848386D01*
X41669799Y33951113D01*
X41677868Y33981230D01*
X41677869Y33981231D01*
X41681817Y33995966D01*
X41700500Y34065691D01*
X41700500Y67185929D01*
X45099499Y67185929D01*
X45124497Y67060262D01*
X45124499Y67060256D01*
X45173533Y66941876D01*
X45173538Y66941867D01*
X45244723Y66835332D01*
X45244725Y66835329D01*
X45263179Y66816876D01*
X45296666Y66755554D01*
X45299500Y66729193D01*
X45299500Y34065691D01*
X45308767Y34031107D01*
X45322131Y33981231D01*
X45322131Y33981230D01*
X45330199Y33951116D01*
X45330200Y33951115D01*
X45330201Y33951113D01*
X45389511Y33848386D01*
X45389513Y33848384D01*
X46245006Y32992891D01*
X46278491Y32931568D01*
X46273507Y32861876D01*
X46267810Y32848915D01*
X46197454Y32710837D01*
X46139059Y32531119D01*
X46109500Y32344487D01*
X46109500Y32155514D01*
X46139059Y31968882D01*
X46197454Y31789164D01*
X46247027Y31691873D01*
X46283240Y31620801D01*
X46394310Y31467927D01*
X46527927Y31334310D01*
X46680801Y31223240D01*
X46709053Y31208845D01*
X46849163Y31137455D01*
X46849165Y31137455D01*
X46849168Y31137453D01*
X46938734Y31108351D01*
X46970803Y31097931D01*
X47028478Y31058493D01*
X47055676Y30994134D01*
X47043761Y30925288D01*
X46996516Y30873812D01*
X46970803Y30862069D01*
X46849163Y30822546D01*
X46680800Y30736760D01*
X46633101Y30702104D01*
X46527927Y30625690D01*
X46527925Y30625688D01*
X46527924Y30625688D01*
X46394312Y30492076D01*
X46394312Y30492075D01*
X46394310Y30492073D01*
X46347362Y30427455D01*
X46283240Y30339200D01*
X46197454Y30170837D01*
X46139059Y29991119D01*
X46109500Y29804487D01*
X46109500Y29615514D01*
X46139059Y29428882D01*
X46197454Y29249164D01*
X46226649Y29191867D01*
X46283240Y29080801D01*
X46394310Y28927927D01*
X46527927Y28794310D01*
X46680801Y28683240D01*
X46757318Y28644253D01*
X46849163Y28597455D01*
X46849165Y28597455D01*
X46849168Y28597453D01*
X46945497Y28566154D01*
X47028881Y28539060D01*
X47215514Y28509500D01*
X47215519Y28509500D01*
X47404486Y28509500D01*
X47591118Y28539060D01*
X47770832Y28597453D01*
X47939199Y28683240D01*
X48092073Y28794310D01*
X48225690Y28927927D01*
X48336760Y29080801D01*
X48422547Y29249168D01*
X48480940Y29428882D01*
X48492204Y29500001D01*
X48510500Y29615514D01*
X48510500Y29804487D01*
X48480940Y29991119D01*
X48422545Y30170837D01*
X48377290Y30259653D01*
X48336760Y30339199D01*
X48225690Y30492073D01*
X48092073Y30625690D01*
X47939199Y30736760D01*
X47770836Y30822546D01*
X47696472Y30846709D01*
X47649195Y30862070D01*
X47591521Y30901507D01*
X47564323Y30965866D01*
X47576238Y31034712D01*
X47623482Y31086188D01*
X47649194Y31097931D01*
X47770832Y31137453D01*
X47939199Y31223240D01*
X48092073Y31334310D01*
X48225690Y31467927D01*
X48336760Y31620801D01*
X48422547Y31789168D01*
X48480940Y31968882D01*
X48481396Y31971758D01*
X48510500Y32155514D01*
X48510500Y32344487D01*
X48480940Y32531119D01*
X48443077Y32647648D01*
X48422547Y32710832D01*
X48422545Y32710836D01*
X48422545Y32710837D01*
X48336759Y32879200D01*
X48225690Y33032073D01*
X48092073Y33165690D01*
X47939199Y33276760D01*
X47897715Y33297897D01*
X47785615Y33355015D01*
X47734819Y33402990D01*
X47718024Y33470811D01*
X47740561Y33536946D01*
X47795277Y33580397D01*
X47841910Y33589500D01*
X48193261Y33589500D01*
X48215971Y33592809D01*
X48261393Y33599427D01*
X48366483Y33650802D01*
X48449198Y33733517D01*
X48500573Y33838607D01*
X48510500Y33906740D01*
X48510500Y35673260D01*
X48500573Y35741393D01*
X48449198Y35846483D01*
X48449196Y35846485D01*
X48449196Y35846486D01*
X48366485Y35929197D01*
X48261391Y35980574D01*
X48193261Y35990500D01*
X48193260Y35990500D01*
X46426740Y35990500D01*
X46426739Y35990500D01*
X46349078Y35979185D01*
X46348788Y35981172D01*
X46291241Y35980363D01*
X46231937Y36017307D01*
X46202022Y36080449D01*
X46200500Y36099819D01*
X46200500Y59935929D01*
X47849499Y59935929D01*
X47874497Y59810262D01*
X47874499Y59810256D01*
X47923533Y59691876D01*
X47923538Y59691867D01*
X47994723Y59585332D01*
X47994726Y59585328D01*
X48085327Y59494727D01*
X48085331Y59494724D01*
X48191866Y59423539D01*
X48191872Y59423536D01*
X48191873Y59423535D01*
X48310256Y59374499D01*
X48310260Y59374499D01*
X48310261Y59374498D01*
X48435928Y59349500D01*
X48435931Y59349500D01*
X48564071Y59349500D01*
X48648615Y59366318D01*
X48689744Y59374499D01*
X48808127Y59423535D01*
X48914669Y59494724D01*
X49005276Y59585331D01*
X49076465Y59691873D01*
X49125501Y59810256D01*
X49150500Y59935931D01*
X49150500Y60064069D01*
X49150500Y60064072D01*
X49125502Y60189739D01*
X49125501Y60189740D01*
X49125501Y60189744D01*
X49076465Y60308127D01*
X49076464Y60308128D01*
X49076461Y60308134D01*
X49005276Y60414669D01*
X49005273Y60414673D01*
X48914672Y60505274D01*
X48914668Y60505277D01*
X48808133Y60576462D01*
X48808124Y60576467D01*
X48689744Y60625501D01*
X48689738Y60625503D01*
X48564071Y60650500D01*
X48564069Y60650500D01*
X48435931Y60650500D01*
X48435929Y60650500D01*
X48310261Y60625503D01*
X48310255Y60625501D01*
X48191875Y60576467D01*
X48191866Y60576462D01*
X48085331Y60505277D01*
X48085327Y60505274D01*
X47994726Y60414673D01*
X47994723Y60414669D01*
X47923538Y60308134D01*
X47923533Y60308125D01*
X47874499Y60189745D01*
X47874497Y60189739D01*
X47849500Y60064072D01*
X47849500Y60064069D01*
X47849500Y59935931D01*
X47849500Y59935929D01*
X47849499Y59935929D01*
X46200500Y59935929D01*
X46200500Y66729193D01*
X46220185Y66796232D01*
X46236821Y66816876D01*
X46255274Y66835329D01*
X46255276Y66835331D01*
X46326465Y66941873D01*
X46375501Y67060256D01*
X46400500Y67185931D01*
X46400500Y67314069D01*
X46400500Y67314072D01*
X46375502Y67439739D01*
X46375501Y67439740D01*
X46375501Y67439744D01*
X46326465Y67558127D01*
X46326464Y67558128D01*
X46326461Y67558134D01*
X46255276Y67664669D01*
X46255273Y67664673D01*
X46164672Y67755274D01*
X46164668Y67755277D01*
X46058133Y67826462D01*
X46058124Y67826467D01*
X45939744Y67875501D01*
X45939738Y67875503D01*
X45814071Y67900500D01*
X45814069Y67900500D01*
X45685931Y67900500D01*
X45685929Y67900500D01*
X45560261Y67875503D01*
X45560255Y67875501D01*
X45441875Y67826467D01*
X45441866Y67826462D01*
X45335331Y67755277D01*
X45335327Y67755274D01*
X45244726Y67664673D01*
X45244723Y67664669D01*
X45173538Y67558134D01*
X45173533Y67558125D01*
X45124499Y67439745D01*
X45124497Y67439739D01*
X45099500Y67314072D01*
X45099500Y67314069D01*
X45099500Y67185931D01*
X45099500Y67185929D01*
X45099499Y67185929D01*
X41700500Y67185929D01*
X41700500Y67621809D01*
X41669799Y67736386D01*
X41669799Y67736387D01*
X41610489Y67839114D01*
X40589114Y68860489D01*
X40569822Y68871627D01*
X40533077Y68892843D01*
X40507398Y68912548D01*
X40414672Y69005274D01*
X40414668Y69005277D01*
X40308133Y69076462D01*
X40308124Y69076467D01*
X40189744Y69125501D01*
X40189738Y69125503D01*
X40064071Y69150500D01*
X40064069Y69150500D01*
X39935931Y69150500D01*
X39935929Y69150500D01*
X39810261Y69125503D01*
X39810255Y69125501D01*
X39691875Y69076467D01*
X39691866Y69076462D01*
X39585331Y69005277D01*
X39585327Y69005274D01*
X39494726Y68914673D01*
X39494723Y68914669D01*
X39423538Y68808134D01*
X39423533Y68808125D01*
X39374499Y68689745D01*
X39374497Y68689739D01*
X39349500Y68564072D01*
X39349500Y68564069D01*
X39349500Y68435931D01*
X39349500Y68435929D01*
X39349499Y68435929D01*
X39374497Y68310262D01*
X39374499Y68310256D01*
X39423533Y68191876D01*
X39423538Y68191867D01*
X39494723Y68085332D01*
X39494726Y68085328D01*
X39585327Y67994727D01*
X39585331Y67994724D01*
X39691866Y67923539D01*
X39691872Y67923536D01*
X39691873Y67923535D01*
X39810256Y67874499D01*
X39810260Y67874499D01*
X39810261Y67874498D01*
X39935928Y67849500D01*
X39935931Y67849500D01*
X40064071Y67849500D01*
X40189739Y67874498D01*
X40189740Y67874498D01*
X40189740Y67874499D01*
X40189744Y67874499D01*
X40191782Y67875344D01*
X40192936Y67875468D01*
X40195572Y67876267D01*
X40195723Y67875768D01*
X40261249Y67882820D01*
X40323732Y67851553D01*
X40326928Y67848469D01*
X40763181Y67412216D01*
X40796666Y67350893D01*
X40799500Y67324535D01*
X40799500Y35589783D01*
X40779815Y35522744D01*
X40727011Y35476989D01*
X40665772Y35466165D01*
X40617452Y35469968D01*
X40146611Y34999125D01*
X40090099Y35097007D01*
X39997007Y35190099D01*
X39899124Y35246612D01*
X40369965Y35717453D01*
X40369965Y35717455D01*
X40292734Y35773566D01*
X40131447Y35855748D01*
X40131444Y35855749D01*
X39959293Y35911683D01*
X39780506Y35940000D01*
X39599494Y35940000D01*
X39420706Y35911683D01*
X39248555Y35855749D01*
X39248552Y35855748D01*
X39087272Y35773570D01*
X39010033Y35717454D01*
X39480875Y35246612D01*
X39382993Y35190099D01*
X39289901Y35097007D01*
X39233388Y34999125D01*
X38762546Y35469967D01*
X38706430Y35392728D01*
X38624252Y35231448D01*
X38624251Y35231445D01*
X38568317Y35059294D01*
X38540000Y34880507D01*
X38540000Y34699494D01*
X38568317Y34520707D01*
X38624251Y34348556D01*
X38624252Y34348553D01*
X38706434Y34187266D01*
X38762545Y34110035D01*
X38762547Y34110035D01*
X39233388Y34580876D01*
X39289901Y34482993D01*
X39382993Y34389901D01*
X39480875Y34333389D01*
X39010032Y33862548D01*
X39010033Y33862547D01*
X39087265Y33806435D01*
X39248552Y33724253D01*
X39248555Y33724252D01*
X39420701Y33668319D01*
X39422451Y33668042D01*
X39423065Y33667751D01*
X39425439Y33667181D01*
X39425319Y33666683D01*
X39485590Y33638121D01*
X39522529Y33578814D01*
X39521541Y33508952D01*
X39482939Y33450714D01*
X39422475Y33423094D01*
X39408882Y33420941D01*
X39408881Y33420941D01*
X39229163Y33362546D01*
X39060800Y33276760D01*
X39022901Y33249224D01*
X38907927Y33165690D01*
X38907925Y33165688D01*
X38907924Y33165688D01*
X38774312Y33032076D01*
X38774312Y33032075D01*
X38774310Y33032073D01*
X38738166Y32982325D01*
X38663240Y32879200D01*
X38577454Y32710837D01*
X38519059Y32531119D01*
X38489500Y32344487D01*
X24685642Y32344487D01*
X24633400Y32505274D01*
X24622896Y32537604D01*
X24622895Y32537607D01*
X24566825Y32647648D01*
X24522815Y32734022D01*
X24439341Y32848915D01*
X24393247Y32912359D01*
X24393243Y32912364D01*
X24237363Y33068244D01*
X24237358Y33068248D01*
X24059025Y33197813D01*
X24059024Y33197814D01*
X24059022Y33197815D01*
X23996096Y33229878D01*
X23862606Y33297896D01*
X23862603Y33297897D01*
X23652952Y33366015D01*
X23544086Y33383258D01*
X23435222Y33400500D01*
X23214778Y33400500D01*
X23142201Y33389005D01*
X22997047Y33366015D01*
X22787396Y33297897D01*
X22787393Y33297896D01*
X22590974Y33197813D01*
X22412641Y33068248D01*
X22412636Y33068244D01*
X22256756Y32912364D01*
X22256752Y32912359D01*
X22127187Y32734026D01*
X22027104Y32537607D01*
X22027103Y32537604D01*
X21958985Y32327953D01*
X21931674Y32155519D01*
X21924500Y32110222D01*
X21383602Y32110222D01*
X21424118Y32189739D01*
X21455218Y32250777D01*
X21455218Y32250778D01*
X21455220Y32250781D01*
X21518477Y32445466D01*
X21550500Y32647648D01*
X21550500Y32852352D01*
X21540168Y32917585D01*
X21518477Y33054535D01*
X21455218Y33249224D01*
X21395709Y33366015D01*
X21362287Y33431610D01*
X21322176Y33486819D01*
X21241971Y33597214D01*
X21097213Y33741972D01*
X20931613Y33862285D01*
X20931612Y33862286D01*
X20931610Y33862287D01*
X20874653Y33891309D01*
X20749223Y33955219D01*
X20554534Y34018478D01*
X20379995Y34046122D01*
X20352352Y34050500D01*
X20147648Y34050500D01*
X20123329Y34046649D01*
X19945465Y34018478D01*
X19750776Y33955219D01*
X19568386Y33862285D01*
X19402786Y33741972D01*
X19258028Y33597214D01*
X19137715Y33431614D01*
X19044781Y33249224D01*
X18981522Y33054535D01*
X18959832Y32917585D01*
X18949500Y32852352D01*
X15050500Y32852352D01*
X15040168Y32917585D01*
X15018477Y33054535D01*
X14955218Y33249224D01*
X14895709Y33366015D01*
X14862287Y33431610D01*
X14822176Y33486819D01*
X14741971Y33597214D01*
X14597213Y33741972D01*
X14431613Y33862285D01*
X14431612Y33862286D01*
X14431610Y33862287D01*
X14374653Y33891309D01*
X14249223Y33955219D01*
X14054534Y34018478D01*
X13879995Y34046122D01*
X13852352Y34050500D01*
X13647648Y34050500D01*
X13623329Y34046649D01*
X13445465Y34018478D01*
X13250776Y33955219D01*
X13068386Y33862285D01*
X12902786Y33741972D01*
X12758028Y33597214D01*
X12637715Y33431614D01*
X12544781Y33249224D01*
X12481522Y33054535D01*
X12459832Y32917585D01*
X12449500Y32852352D01*
X11786844Y32852352D01*
X11743247Y32912359D01*
X11743243Y32912364D01*
X11587363Y33068244D01*
X11587358Y33068248D01*
X11409025Y33197813D01*
X11409024Y33197814D01*
X11409022Y33197815D01*
X11346096Y33229878D01*
X11212606Y33297896D01*
X11212603Y33297897D01*
X11002952Y33366015D01*
X10894086Y33383258D01*
X10785222Y33400500D01*
X10564778Y33400500D01*
X10492201Y33389005D01*
X10347047Y33366015D01*
X10137396Y33297897D01*
X10137393Y33297896D01*
X9940974Y33197813D01*
X9762641Y33068248D01*
X9762636Y33068244D01*
X9606756Y32912364D01*
X9606752Y32912359D01*
X9477187Y32734026D01*
X9377104Y32537607D01*
X9377103Y32537604D01*
X9308985Y32327953D01*
X9281674Y32155519D01*
X9274500Y32110222D01*
X1000000Y32110222D01*
X1000000Y37352352D01*
X12449500Y37352352D01*
X12449500Y37147649D01*
X12481522Y36945466D01*
X12544781Y36750777D01*
X12637715Y36568387D01*
X12758028Y36402787D01*
X12902786Y36258029D01*
X13057749Y36145444D01*
X13068390Y36137713D01*
X13180777Y36080449D01*
X13250776Y36044782D01*
X13250778Y36044782D01*
X13250781Y36044780D01*
X13335334Y36017307D01*
X13445465Y35981523D01*
X13546557Y35965512D01*
X13647648Y35949500D01*
X13647649Y35949500D01*
X13852351Y35949500D01*
X13852352Y35949500D01*
X14054534Y35981523D01*
X14249219Y36044780D01*
X14431610Y36137713D01*
X14524590Y36205268D01*
X14597213Y36258029D01*
X14597215Y36258032D01*
X14597219Y36258034D01*
X14741966Y36402781D01*
X14741968Y36402785D01*
X14741971Y36402787D01*
X14794732Y36475410D01*
X14862287Y36568390D01*
X14955220Y36750781D01*
X15018477Y36945466D01*
X15050500Y37147648D01*
X15050500Y37352352D01*
X18949500Y37352352D01*
X18949500Y37147649D01*
X18981522Y36945466D01*
X19044781Y36750777D01*
X19137715Y36568387D01*
X19258028Y36402787D01*
X19402786Y36258029D01*
X19557749Y36145444D01*
X19568390Y36137713D01*
X19680777Y36080449D01*
X19750776Y36044782D01*
X19750778Y36044782D01*
X19750781Y36044780D01*
X19835334Y36017307D01*
X19945465Y35981523D01*
X20046557Y35965512D01*
X20147648Y35949500D01*
X20147649Y35949500D01*
X20352351Y35949500D01*
X20352352Y35949500D01*
X20554534Y35981523D01*
X20749219Y36044780D01*
X20931610Y36137713D01*
X21024590Y36205268D01*
X21097213Y36258029D01*
X21097215Y36258032D01*
X21097219Y36258034D01*
X21241966Y36402781D01*
X21241968Y36402785D01*
X21241971Y36402787D01*
X21294732Y36475410D01*
X21362287Y36568390D01*
X21455220Y36750781D01*
X21518477Y36945466D01*
X21550500Y37147648D01*
X21550500Y37352352D01*
X21518477Y37554534D01*
X21455220Y37749219D01*
X21455218Y37749222D01*
X21455218Y37749224D01*
X21421503Y37815393D01*
X21362287Y37931610D01*
X21354556Y37942251D01*
X21241971Y38097214D01*
X21097213Y38241972D01*
X20931613Y38362285D01*
X20931612Y38362286D01*
X20931610Y38362287D01*
X20874653Y38391309D01*
X20749223Y38455219D01*
X20554534Y38518478D01*
X20379995Y38546122D01*
X20352352Y38550500D01*
X20147648Y38550500D01*
X20123329Y38546649D01*
X19945465Y38518478D01*
X19750776Y38455219D01*
X19568386Y38362285D01*
X19402786Y38241972D01*
X19258028Y38097214D01*
X19137715Y37931614D01*
X19044781Y37749224D01*
X18981522Y37554535D01*
X18949500Y37352352D01*
X15050500Y37352352D01*
X15018477Y37554534D01*
X14955220Y37749219D01*
X14955218Y37749222D01*
X14955218Y37749224D01*
X14921503Y37815393D01*
X14862287Y37931610D01*
X14854556Y37942251D01*
X14741971Y38097214D01*
X14597213Y38241972D01*
X14431613Y38362285D01*
X14431612Y38362286D01*
X14431610Y38362287D01*
X14374653Y38391309D01*
X14249223Y38455219D01*
X14054534Y38518478D01*
X13879995Y38546122D01*
X13852352Y38550500D01*
X13647648Y38550500D01*
X13623329Y38546649D01*
X13445465Y38518478D01*
X13250776Y38455219D01*
X13068386Y38362285D01*
X12902786Y38241972D01*
X12758028Y38097214D01*
X12637715Y37931614D01*
X12544781Y37749224D01*
X12481522Y37554535D01*
X12449500Y37352352D01*
X1000000Y37352352D01*
X1000000Y49049903D01*
X7349500Y49049903D01*
X7349500Y48790098D01*
X7390140Y48533507D01*
X7470422Y48286424D01*
X7551534Y48127236D01*
X7588366Y48054949D01*
X7741069Y47844771D01*
X7924771Y47661069D01*
X8134949Y47508366D01*
X8282445Y47433213D01*
X8366423Y47390423D01*
X8366425Y47390423D01*
X8366428Y47390421D01*
X8613507Y47310140D01*
X8745706Y47289203D01*
X8870098Y47269500D01*
X8870103Y47269500D01*
X9129902Y47269500D01*
X9243298Y47287461D01*
X9386493Y47310140D01*
X9633572Y47390421D01*
X9865051Y47508366D01*
X10075229Y47661069D01*
X10258931Y47844771D01*
X10411634Y48054949D01*
X10529579Y48286428D01*
X10609860Y48533507D01*
X10632539Y48676702D01*
X10650500Y48790098D01*
X10650500Y49049903D01*
X10628947Y49185979D01*
X10609860Y49306493D01*
X10529579Y49553572D01*
X10529577Y49553575D01*
X10529577Y49553577D01*
X10486787Y49637555D01*
X10411634Y49785051D01*
X10258931Y49995229D01*
X10075229Y50178931D01*
X9865051Y50331634D01*
X9792764Y50368466D01*
X9633576Y50449578D01*
X9386493Y50529860D01*
X9129902Y50570500D01*
X9129897Y50570500D01*
X8870103Y50570500D01*
X8870098Y50570500D01*
X8613506Y50529860D01*
X8366423Y50449578D01*
X8134945Y50331632D01*
X7924774Y50178934D01*
X7924768Y50178929D01*
X7741071Y49995232D01*
X7741066Y49995226D01*
X7588368Y49785055D01*
X7470422Y49553577D01*
X7390140Y49306494D01*
X7349500Y49049903D01*
X1000000Y49049903D01*
X1000000Y55089355D01*
X7349500Y55089355D01*
X7349500Y52910637D01*
X7364953Y52793247D01*
X7364956Y52793238D01*
X7425464Y52647159D01*
X7521718Y52521718D01*
X7647159Y52425464D01*
X7793238Y52364956D01*
X7910639Y52349500D01*
X10089360Y52349501D01*
X10089363Y52349501D01*
X10206753Y52364954D01*
X10206757Y52364956D01*
X10206762Y52364956D01*
X10352841Y52425464D01*
X10478282Y52521718D01*
X10574536Y52647159D01*
X10635044Y52793238D01*
X10644661Y52866287D01*
X33649500Y52866287D01*
X33649500Y52653713D01*
X33682754Y52443757D01*
X33713379Y52349502D01*
X33748444Y52241586D01*
X33844951Y52052180D01*
X33969890Y51880214D01*
X34120213Y51729891D01*
X34292179Y51604952D01*
X34292181Y51604951D01*
X34292184Y51604949D01*
X34481588Y51508443D01*
X34683757Y51442754D01*
X34893713Y51409500D01*
X34893714Y51409500D01*
X35106286Y51409500D01*
X35106287Y51409500D01*
X35316243Y51442754D01*
X35518412Y51508443D01*
X35707816Y51604949D01*
X35729789Y51620914D01*
X35879786Y51729891D01*
X35879788Y51729894D01*
X35879792Y51729896D01*
X36030104Y51880208D01*
X36030106Y51880212D01*
X36030109Y51880214D01*
X36155048Y52052180D01*
X36155047Y52052180D01*
X36155051Y52052184D01*
X36251557Y52241588D01*
X36317246Y52443757D01*
X36350500Y52653713D01*
X36350500Y52866287D01*
X36343476Y52910637D01*
X36336275Y52956103D01*
X36345230Y53025396D01*
X36390226Y53078848D01*
X36456978Y53099487D01*
X36458748Y53099500D01*
X36564071Y53099500D01*
X36648615Y53116318D01*
X36689744Y53124499D01*
X36808127Y53173535D01*
X36914669Y53244724D01*
X37005276Y53335331D01*
X37076465Y53441873D01*
X37125501Y53560256D01*
X37133682Y53601385D01*
X37150500Y53685929D01*
X37150500Y53814072D01*
X37125502Y53939739D01*
X37125501Y53939740D01*
X37125501Y53939744D01*
X37076465Y54058127D01*
X37076464Y54058128D01*
X37076461Y54058134D01*
X37005276Y54164669D01*
X37005273Y54164673D01*
X36914672Y54255274D01*
X36914668Y54255277D01*
X36808133Y54326462D01*
X36808124Y54326467D01*
X36689744Y54375501D01*
X36689738Y54375503D01*
X36564071Y54400500D01*
X36564069Y54400500D01*
X36435931Y54400500D01*
X36435929Y54400500D01*
X36310261Y54375503D01*
X36310255Y54375501D01*
X36191875Y54326467D01*
X36191866Y54326462D01*
X36085331Y54255277D01*
X36085327Y54255274D01*
X35994726Y54164673D01*
X35994723Y54164669D01*
X35923538Y54058134D01*
X35923533Y54058124D01*
X35888157Y53972719D01*
X35844315Y53918315D01*
X35778021Y53896251D01*
X35712257Y53913037D01*
X35712157Y53912839D01*
X35711277Y53913288D01*
X35710322Y53913531D01*
X35708810Y53914442D01*
X35707818Y53915050D01*
X35518414Y54011556D01*
X35518413Y54011557D01*
X35518412Y54011557D01*
X35342003Y54068876D01*
X35284329Y54108313D01*
X35257131Y54172671D01*
X35269046Y54241518D01*
X35316290Y54292993D01*
X35332870Y54301367D01*
X35497359Y54369501D01*
X35497368Y54369506D01*
X35669335Y54484411D01*
X35669339Y54484414D01*
X35815586Y54630661D01*
X35815589Y54630665D01*
X35930494Y54802632D01*
X35930499Y54802642D01*
X36009649Y54993726D01*
X36009651Y54993734D01*
X36045707Y55175000D01*
X35484144Y55175000D01*
X35500000Y55234174D01*
X35500000Y55365826D01*
X35484144Y55425000D01*
X36045708Y55425000D01*
X36045707Y55425001D01*
X36009651Y55606267D01*
X36009649Y55606275D01*
X35930499Y55797359D01*
X35930494Y55797369D01*
X35815589Y55969336D01*
X35815586Y55969340D01*
X35669339Y56115587D01*
X35669335Y56115590D01*
X35497368Y56230495D01*
X35497358Y56230500D01*
X35306274Y56309650D01*
X35306266Y56309652D01*
X35125000Y56345708D01*
X35125000Y55784145D01*
X35065826Y55800000D01*
X34934174Y55800000D01*
X34875000Y55784145D01*
X34875000Y56345708D01*
X34874999Y56345708D01*
X34693733Y56309652D01*
X34693725Y56309650D01*
X34502641Y56230500D01*
X34502631Y56230495D01*
X34330664Y56115590D01*
X34330660Y56115587D01*
X34184413Y55969340D01*
X34184410Y55969336D01*
X34069505Y55797369D01*
X34069500Y55797359D01*
X33990350Y55606275D01*
X33990348Y55606267D01*
X33954292Y55425001D01*
X33954292Y55425000D01*
X34515856Y55425000D01*
X34500000Y55365826D01*
X34500000Y55234174D01*
X34515856Y55175000D01*
X33954292Y55175000D01*
X33990348Y54993734D01*
X33990350Y54993726D01*
X34069500Y54802642D01*
X34069505Y54802632D01*
X34184410Y54630665D01*
X34184413Y54630661D01*
X34330660Y54484414D01*
X34330664Y54484411D01*
X34502631Y54369506D01*
X34502641Y54369501D01*
X34667129Y54301367D01*
X34721532Y54257526D01*
X34743597Y54191232D01*
X34726318Y54123532D01*
X34675180Y54075922D01*
X34657994Y54068875D01*
X34481585Y54011556D01*
X34292179Y53915049D01*
X34120213Y53790110D01*
X33969890Y53639787D01*
X33844951Y53467821D01*
X33748444Y53278415D01*
X33682753Y53076240D01*
X33656525Y52910640D01*
X33649500Y52866287D01*
X10644661Y52866287D01*
X10650500Y52910639D01*
X10650499Y55089360D01*
X10650499Y55089361D01*
X10650499Y55089364D01*
X10635046Y55206754D01*
X10635044Y55206761D01*
X10635044Y55206762D01*
X10574536Y55352841D01*
X10478282Y55478282D01*
X10352841Y55574536D01*
X10276216Y55606275D01*
X10206762Y55635044D01*
X10206760Y55635045D01*
X10089370Y55650499D01*
X10089367Y55650500D01*
X10089361Y55650500D01*
X10089354Y55650500D01*
X7910636Y55650500D01*
X7793246Y55635047D01*
X7793237Y55635044D01*
X7647160Y55574537D01*
X7521718Y55478282D01*
X7425463Y55352840D01*
X7364956Y55206763D01*
X7364955Y55206761D01*
X7360774Y55175000D01*
X7349501Y55089364D01*
X7349500Y55089355D01*
X1000000Y55089355D01*
X1000000Y61545929D01*
X7400000Y61545929D01*
X7400000Y61294072D01*
X7439397Y61045331D01*
X7517219Y60805816D01*
X7631559Y60581414D01*
X7750380Y60417870D01*
X7750381Y60417869D01*
X8432247Y61099735D01*
X8495112Y61005649D01*
X8585649Y60915112D01*
X8679733Y60852248D01*
X7997867Y60170383D01*
X7997868Y60170381D01*
X8161413Y60051560D01*
X8385815Y59937220D01*
X8625330Y59859398D01*
X8874072Y59820000D01*
X9125928Y59820000D01*
X9374669Y59859398D01*
X9614184Y59937220D01*
X9838583Y60051558D01*
X10002130Y60170383D01*
X10002131Y60170383D01*
X9320266Y60852248D01*
X9414351Y60915112D01*
X9504888Y61005649D01*
X9567752Y61099734D01*
X10249617Y60417869D01*
X10249617Y60417870D01*
X10368442Y60581417D01*
X10482780Y60805816D01*
X10560602Y61045331D01*
X10600000Y61294072D01*
X10600000Y61545929D01*
X10560602Y61794670D01*
X10482780Y62034185D01*
X10368440Y62258587D01*
X10249619Y62422132D01*
X10249617Y62422133D01*
X9567752Y61740267D01*
X9504888Y61834351D01*
X9414351Y61924888D01*
X9320264Y61987754D01*
X10002131Y62669619D01*
X10002130Y62669620D01*
X9838586Y62788441D01*
X9614184Y62902781D01*
X9374669Y62980603D01*
X9125928Y63020000D01*
X8874072Y63020000D01*
X8625330Y62980603D01*
X8385815Y62902781D01*
X8161413Y62788441D01*
X7997868Y62669620D01*
X7997868Y62669618D01*
X8679733Y61987753D01*
X8585649Y61924888D01*
X8495112Y61834351D01*
X8432247Y61740267D01*
X7750382Y62422132D01*
X7750380Y62422132D01*
X7631559Y62258587D01*
X7517219Y62034185D01*
X7439397Y61794670D01*
X7400000Y61545929D01*
X1000000Y61545929D01*
X1000000Y64685929D01*
X19349499Y64685929D01*
X19374497Y64560262D01*
X19374499Y64560256D01*
X19423533Y64441876D01*
X19423538Y64441867D01*
X19494723Y64335332D01*
X19494726Y64335328D01*
X19585327Y64244727D01*
X19585331Y64244724D01*
X19691866Y64173539D01*
X19691872Y64173536D01*
X19691873Y64173535D01*
X19810256Y64124499D01*
X19810260Y64124499D01*
X19810261Y64124498D01*
X19935928Y64099500D01*
X19935931Y64099500D01*
X20064071Y64099500D01*
X20169640Y64120500D01*
X20189744Y64124499D01*
X20308127Y64173535D01*
X20414669Y64244724D01*
X20505276Y64335331D01*
X20576465Y64441873D01*
X20625501Y64560256D01*
X20644370Y64655112D01*
X20650500Y64685929D01*
X20650500Y64814072D01*
X20625502Y64939739D01*
X20625501Y64939740D01*
X20625501Y64939744D01*
X20576465Y65058127D01*
X20576464Y65058128D01*
X20576461Y65058134D01*
X20505276Y65164669D01*
X20505273Y65164673D01*
X20414672Y65255274D01*
X20414668Y65255277D01*
X20308133Y65326462D01*
X20308124Y65326467D01*
X20189744Y65375501D01*
X20189738Y65375503D01*
X20064071Y65400500D01*
X20064069Y65400500D01*
X19935931Y65400500D01*
X19935929Y65400500D01*
X19810261Y65375503D01*
X19810255Y65375501D01*
X19691875Y65326467D01*
X19691866Y65326462D01*
X19585331Y65255277D01*
X19585327Y65255274D01*
X19494726Y65164673D01*
X19494723Y65164669D01*
X19423538Y65058134D01*
X19423533Y65058125D01*
X19374499Y64939745D01*
X19374497Y64939739D01*
X19349500Y64814072D01*
X19349500Y64814069D01*
X19349500Y64685931D01*
X19349500Y64685929D01*
X19349499Y64685929D01*
X1000000Y64685929D01*
X1000000Y67600017D01*
X7199500Y67600017D01*
X7199500Y65399999D01*
X7199501Y65399982D01*
X7210000Y65297204D01*
X7210001Y65297201D01*
X7255465Y65160001D01*
X7265186Y65130666D01*
X7357288Y64981344D01*
X7481344Y64857288D01*
X7630666Y64765186D01*
X7797203Y64710001D01*
X7899991Y64699500D01*
X10100008Y64699501D01*
X10202797Y64710001D01*
X10369334Y64765186D01*
X10518656Y64857288D01*
X10642712Y64981344D01*
X10734814Y65130666D01*
X10789999Y65297203D01*
X10800500Y65399991D01*
X10800499Y67600008D01*
X10789999Y67702797D01*
X10734814Y67869334D01*
X10642712Y68018656D01*
X10518656Y68142712D01*
X10369334Y68234814D01*
X10202797Y68289999D01*
X10202795Y68290000D01*
X10100010Y68300500D01*
X7899998Y68300500D01*
X7899981Y68300499D01*
X7797203Y68290000D01*
X7797200Y68289999D01*
X7630668Y68234815D01*
X7630663Y68234813D01*
X7481342Y68142711D01*
X7357289Y68018658D01*
X7265187Y67869337D01*
X7265185Y67869332D01*
X7237349Y67785330D01*
X7210001Y67702797D01*
X7210001Y67702796D01*
X7210000Y67702796D01*
X7199500Y67600017D01*
X1000000Y67600017D01*
X1000000Y114020935D01*
X1014011Y114078192D01*
X1100822Y114244955D01*
X1106217Y114254300D01*
X1271419Y114513616D01*
X1324042Y114559579D01*
X1393160Y114569797D01*
X1456830Y114541024D01*
X1494838Y114482396D01*
X1500000Y114446991D01*
X1500000Y108500000D01*
X8500000Y108500000D01*
X8500000Y115500000D01*
X2553010Y115500000D01*
X2485971Y115519685D01*
X2440216Y115572489D01*
X2430272Y115641647D01*
X2459297Y115705203D01*
X2486385Y115728581D01*
X2745700Y115893783D01*
X2755045Y115899178D01*
X2921809Y115985990D01*
X2979065Y116000000D01*
X91520935Y116000000D01*
X91578190Y115985990D01*
G37*
%TD.AperFunction*%
%TA.AperFunction,Conductor*%
G36*
X63624712Y100433762D02*
G01*
X63676188Y100386518D01*
X63687931Y100360804D01*
X63727454Y100239164D01*
X63799754Y100097269D01*
X63813240Y100070801D01*
X63924310Y99917927D01*
X64057927Y99784310D01*
X64210801Y99673240D01*
X64242725Y99656974D01*
X64379163Y99587455D01*
X64379165Y99587455D01*
X64379168Y99587453D01*
X64451136Y99564069D01*
X64558881Y99529060D01*
X64745514Y99499500D01*
X64745519Y99499500D01*
X64934480Y99499500D01*
X64934481Y99499500D01*
X64972576Y99505534D01*
X65041869Y99496580D01*
X65079655Y99470742D01*
X65410886Y99139511D01*
X65513613Y99080201D01*
X65537821Y99073716D01*
X65537824Y99073714D01*
X65537825Y99073714D01*
X65563345Y99066876D01*
X65628191Y99049500D01*
X66840160Y99049500D01*
X66907199Y99029815D01*
X66927841Y99013181D01*
X70763181Y95177841D01*
X70796666Y95116518D01*
X70799500Y95090160D01*
X70799500Y76388270D01*
X70779815Y76321231D01*
X70727011Y76275476D01*
X70657853Y76265532D01*
X70602615Y76287952D01*
X70549202Y76326758D01*
X70549201Y76326759D01*
X70549199Y76326760D01*
X70472942Y76365615D01*
X70380836Y76412546D01*
X70201118Y76470941D01*
X70014486Y76500500D01*
X70014481Y76500500D01*
X69825519Y76500500D01*
X69825514Y76500500D01*
X69638881Y76470941D01*
X69459163Y76412546D01*
X69290800Y76326760D01*
X69231355Y76283570D01*
X69137927Y76215690D01*
X69137925Y76215688D01*
X69137924Y76215688D01*
X69004312Y76082076D01*
X69004312Y76082075D01*
X69004310Y76082073D01*
X68956610Y76016421D01*
X68893240Y75929200D01*
X68807454Y75760837D01*
X68767931Y75639197D01*
X68728493Y75581522D01*
X68664134Y75554324D01*
X68595288Y75566239D01*
X68543812Y75613484D01*
X68532069Y75639197D01*
X68492545Y75760837D01*
X68447290Y75849653D01*
X68406760Y75929199D01*
X68295690Y76082073D01*
X68162073Y76215690D01*
X68009199Y76326760D01*
X67986358Y76338398D01*
X67840836Y76412546D01*
X67661118Y76470941D01*
X67474486Y76500500D01*
X67474481Y76500500D01*
X67285519Y76500500D01*
X67285514Y76500500D01*
X67098881Y76470941D01*
X66919163Y76412546D01*
X66750800Y76326760D01*
X66691355Y76283570D01*
X66597927Y76215690D01*
X66597925Y76215688D01*
X66597924Y76215688D01*
X66464312Y76082076D01*
X66464312Y76082075D01*
X66464310Y76082073D01*
X66416610Y76016421D01*
X66353240Y75929200D01*
X66267454Y75760837D01*
X66227931Y75639197D01*
X66188493Y75581522D01*
X66124134Y75554324D01*
X66055288Y75566239D01*
X66003812Y75613484D01*
X65992069Y75639197D01*
X65952545Y75760837D01*
X65907290Y75849653D01*
X65866760Y75929199D01*
X65755690Y76082073D01*
X65622073Y76215690D01*
X65469199Y76326760D01*
X65446358Y76338398D01*
X65300836Y76412546D01*
X65121118Y76470941D01*
X64934486Y76500500D01*
X64934481Y76500500D01*
X64745519Y76500500D01*
X64745514Y76500500D01*
X64558881Y76470941D01*
X64379163Y76412546D01*
X64210800Y76326760D01*
X64151355Y76283570D01*
X64057927Y76215690D01*
X64057925Y76215688D01*
X64057924Y76215688D01*
X63924312Y76082076D01*
X63924312Y76082075D01*
X63924310Y76082073D01*
X63876610Y76016421D01*
X63813240Y75929200D01*
X63727454Y75760837D01*
X63687931Y75639197D01*
X63648493Y75581522D01*
X63584134Y75554324D01*
X63515288Y75566239D01*
X63463812Y75613484D01*
X63452069Y75639197D01*
X63412545Y75760837D01*
X63367290Y75849653D01*
X63326760Y75929199D01*
X63215690Y76082073D01*
X63082073Y76215690D01*
X62929199Y76326760D01*
X62906358Y76338398D01*
X62760836Y76412546D01*
X62581118Y76470941D01*
X62394486Y76500500D01*
X62394481Y76500500D01*
X62205519Y76500500D01*
X62205514Y76500500D01*
X62018881Y76470941D01*
X61839163Y76412546D01*
X61670797Y76326758D01*
X61647385Y76309748D01*
X61581579Y76286268D01*
X61513525Y76302094D01*
X61464830Y76352199D01*
X61450500Y76410066D01*
X61450500Y99589935D01*
X61470185Y99656974D01*
X61522989Y99702729D01*
X61592147Y99712673D01*
X61647386Y99690252D01*
X61670801Y99673240D01*
X61702725Y99656974D01*
X61839163Y99587455D01*
X61839165Y99587455D01*
X61839168Y99587453D01*
X61911136Y99564069D01*
X62018881Y99529060D01*
X62205514Y99499500D01*
X62205519Y99499500D01*
X62394486Y99499500D01*
X62581118Y99529060D01*
X62600027Y99535204D01*
X62760832Y99587453D01*
X62929199Y99673240D01*
X63082073Y99784310D01*
X63215690Y99917927D01*
X63326760Y100070801D01*
X63412547Y100239168D01*
X63452069Y100360805D01*
X63491507Y100418479D01*
X63555866Y100445677D01*
X63624712Y100433762D01*
G37*
%TD.AperFunction*%
%TA.AperFunction,Conductor*%
G36*
X71244712Y100433762D02*
G01*
X71296188Y100386518D01*
X71307931Y100360804D01*
X71347454Y100239164D01*
X71419754Y100097269D01*
X71433240Y100070801D01*
X71544310Y99917927D01*
X71677927Y99784310D01*
X71790213Y99702729D01*
X71830802Y99673239D01*
X71911720Y99632010D01*
X71958668Y99608089D01*
X72009464Y99560115D01*
X72026260Y99492294D01*
X72003723Y99426159D01*
X71998232Y99418945D01*
X71994725Y99414673D01*
X71923538Y99308134D01*
X71923533Y99308125D01*
X71874499Y99189745D01*
X71874497Y99189739D01*
X71849500Y99064072D01*
X71849500Y99064069D01*
X71849500Y98935931D01*
X71849500Y98935929D01*
X71849499Y98935929D01*
X71874497Y98810262D01*
X71874499Y98810256D01*
X71923533Y98691876D01*
X71923538Y98691867D01*
X71994723Y98585332D01*
X71994726Y98585328D01*
X72085327Y98494727D01*
X72085331Y98494724D01*
X72191866Y98423539D01*
X72191872Y98423536D01*
X72191873Y98423535D01*
X72310256Y98374499D01*
X72310260Y98374499D01*
X72310261Y98374498D01*
X72435928Y98349500D01*
X72435931Y98349500D01*
X72564071Y98349500D01*
X72689739Y98374498D01*
X72689740Y98374498D01*
X72689740Y98374499D01*
X72689744Y98374499D01*
X72691782Y98375344D01*
X72692936Y98375468D01*
X72695572Y98376267D01*
X72695723Y98375768D01*
X72761249Y98382820D01*
X72823732Y98351553D01*
X72826928Y98348469D01*
X73263181Y97912216D01*
X73296666Y97850893D01*
X73299500Y97824535D01*
X73299500Y76417332D01*
X73279815Y76350293D01*
X73227011Y76304538D01*
X73157853Y76294594D01*
X73102617Y76317012D01*
X73089201Y76326759D01*
X72920836Y76412546D01*
X72741118Y76470941D01*
X72554486Y76500500D01*
X72554481Y76500500D01*
X72365519Y76500500D01*
X72365514Y76500500D01*
X72178881Y76470941D01*
X71999160Y76412545D01*
X71880794Y76352234D01*
X71812125Y76339338D01*
X71747385Y76365615D01*
X71707128Y76422721D01*
X71700500Y76462719D01*
X71700500Y95387432D01*
X71700500Y95387434D01*
X71669799Y95502011D01*
X71669799Y95502012D01*
X71610489Y95604739D01*
X67820373Y99394855D01*
X67786888Y99456178D01*
X67791872Y99525870D01*
X67833744Y99581803D01*
X67851755Y99593019D01*
X68009199Y99673240D01*
X68162073Y99784310D01*
X68295690Y99917927D01*
X68406760Y100070801D01*
X68492547Y100239168D01*
X68532069Y100360805D01*
X68571507Y100418479D01*
X68635866Y100445677D01*
X68704712Y100433762D01*
X68756188Y100386518D01*
X68767931Y100360804D01*
X68807454Y100239164D01*
X68879754Y100097269D01*
X68893240Y100070801D01*
X69004310Y99917927D01*
X69137927Y99784310D01*
X69290801Y99673240D01*
X69322725Y99656974D01*
X69459163Y99587455D01*
X69459165Y99587455D01*
X69459168Y99587453D01*
X69531136Y99564069D01*
X69638881Y99529060D01*
X69825514Y99499500D01*
X69825519Y99499500D01*
X70014486Y99499500D01*
X70201118Y99529060D01*
X70220027Y99535204D01*
X70380832Y99587453D01*
X70549199Y99673240D01*
X70702073Y99784310D01*
X70835690Y99917927D01*
X70946760Y100070801D01*
X71032547Y100239168D01*
X71072069Y100360805D01*
X71111507Y100418479D01*
X71175866Y100445677D01*
X71244712Y100433762D01*
G37*
%TD.AperFunction*%
%TD*%
M02*
