%TF.GenerationSoftware,KiCad,Pcbnew,10.0.6*%
%TF.CreationDate,2026-10-09T10:24:37+08:00*%
%TF.ProjectId,minibox-carrier,6d696e69-626f-4782-9d63-617272696572,rev?*%
%TF.SameCoordinates,Original*%
%TF.FileFunction,Copper,L1,Top*%
%TF.FilePolarity,Positive*%
%FSLAX46Y46*%
G04 Gerber Fmt 4.6, Leading zero omitted, Abs format (unit mm)*
G04 Created by KiCad (PCBNEW 10.0.6) date 2026-10-09 10:24:37*
%MOMM*%
%LPD*%
G01*
G04 APERTURE LIST*
G04 Aperture macros list*
%AMRoundRect*
0 Rectangle with rounded corners*
0 $1 Rounding radius*
0 $2 $3 $4 $5 $6 $7 $8 $9 X,Y pos of 4 corners*
0 Add a 4 corners polygon primitive as box body*
4,1,4,$2,$3,$4,$5,$6,$7,$8,$9,$2,$3,0*
0 Add four circle primitives for the rounded corners*
1,1,$1+$1,$2,$3*
1,1,$1+$1,$4,$5*
1,1,$1+$1,$6,$7*
1,1,$1+$1,$8,$9*
0 Add four rect primitives between the rounded corners*
20,1,$1+$1,$2,$3,$4,$5,0*
20,1,$1+$1,$4,$5,$6,$7,0*
20,1,$1+$1,$6,$7,$8,$9,0*
20,1,$1+$1,$8,$9,$2,$3,0*%
G04 Aperture macros list end*
%TA.AperFunction,ComponentPad*%
%ADD10R,1.700000X1.700000*%
%TD*%
%TA.AperFunction,ComponentPad*%
%ADD11C,1.700000*%
%TD*%
%TA.AperFunction,ComponentPad*%
%ADD12C,2.100000*%
%TD*%
%TA.AperFunction,ComponentPad*%
%ADD13RoundRect,0.250000X-1.050000X1.050000X-1.050000X-1.050000X1.050000X-1.050000X1.050000X1.050000X0*%
%TD*%
%TA.AperFunction,ComponentPad*%
%ADD14C,2.600000*%
%TD*%
%TA.AperFunction,ComponentPad*%
%ADD15RoundRect,0.250000X1.050000X-1.050000X1.050000X1.050000X-1.050000X1.050000X-1.050000X-1.050000X0*%
%TD*%
%TA.AperFunction,SMDPad,CuDef*%
%ADD16RoundRect,0.135000X-0.135000X-0.185000X0.135000X-0.185000X0.135000X0.185000X-0.135000X0.185000X0*%
%TD*%
%TA.AperFunction,ComponentPad*%
%ADD17C,1.900000*%
%TD*%
%TA.AperFunction,ViaPad*%
%ADD18C,0.600000*%
%TD*%
%TA.AperFunction,Conductor*%
%ADD19C,0.200000*%
%TD*%
%TA.AperFunction,Conductor*%
%ADD20C,0.800000*%
%TD*%
%TA.AperFunction,Conductor*%
%ADD21C,0.650000*%
%TD*%
G04 APERTURE END LIST*
D10*
%TO.P,J2,1*%
%TO.N,GND*%
X75000000Y75300000D03*
D11*
%TO.P,J2,2*%
%TO.N,N/C*%
X72460000Y75300000D03*
%TO.P,J2,3*%
X69920000Y75300000D03*
%TO.P,J2,4*%
%TO.N,GPIO1*%
X67380000Y75300000D03*
%TO.P,J2,5*%
%TO.N,GPIO2*%
X64840000Y75300000D03*
%TO.P,J2,6*%
%TO.N,N/C*%
X62300000Y75300000D03*
%TO.P,J2,7*%
%TO.N,AUDIO_DIN*%
X59760000Y75300000D03*
%TO.P,J2,8*%
%TO.N,I2S_BCLK*%
X57220000Y75300000D03*
%TO.P,J2,9*%
%TO.N,I2S_WS*%
X54680000Y75300000D03*
%TO.P,J2,10*%
%TO.N,N/C*%
X52140000Y75300000D03*
%TO.P,J2,11*%
X49600000Y75300000D03*
%TO.P,J2,12*%
X47060000Y75300000D03*
%TO.P,J2,13*%
X44520000Y75300000D03*
%TO.P,J2,14*%
X41980000Y75300000D03*
%TO.P,J2,15*%
X39440000Y75300000D03*
%TO.P,J2,16*%
X36900000Y75300000D03*
%TO.P,J2,17*%
%TO.N,AMP_SD*%
X34360000Y75300000D03*
%TO.P,J2,18*%
%TO.N,AMP_GAIN*%
X31820000Y75300000D03*
%TO.P,J2,19*%
%TO.N,N/C*%
X29280000Y75300000D03*
%TO.P,J2,20*%
X26740000Y75300000D03*
%TO.P,J2,21*%
%TO.N,GND*%
X24200000Y75300000D03*
%TO.P,J2,22*%
X21660000Y75300000D03*
%TD*%
D12*
%TO.P,SW3,1*%
%TO.N,BUTTON3*%
X50915000Y13990000D03*
%TO.P,SW3,2*%
%TO.N,GND*%
X57265000Y16530000D03*
%TD*%
D13*
%TO.P,J8,1*%
%TO.N,5V_IN*%
X9000000Y66500000D03*
D14*
%TO.P,J8,2*%
%TO.N,GND*%
X9000000Y61420000D03*
%TD*%
D15*
%TO.P,J7,1*%
%TO.N,5V_IN*%
X83000000Y55000000D03*
D14*
%TO.P,J7,2*%
%TO.N,5V_SW*%
X83000000Y60080000D03*
%TO.P,J7,3*%
%TO.N,GND*%
X83000000Y65160000D03*
%TD*%
D10*
%TO.P,J4,1*%
%TO.N,I2S_WS*%
X35000000Y68000000D03*
D11*
%TO.P,J4,2*%
%TO.N,I2S_BCLK*%
X35000000Y65460000D03*
%TO.P,J4,3*%
%TO.N,AUDIO_DIN*%
X35000000Y62920000D03*
%TO.P,J4,4*%
%TO.N,AMP_GAIN*%
X35000000Y60380000D03*
%TO.P,J4,5*%
%TO.N,AMP_SD*%
X35000000Y57840000D03*
%TO.P,J4,6*%
%TO.N,GND*%
X35000000Y55300000D03*
%TO.P,J4,7*%
%TO.N,5V_SW*%
X35000000Y52760000D03*
%TD*%
D16*
%TO.P,R2,1*%
%TO.N,USB_CC2*%
X21490000Y57000000D03*
%TO.P,R2,2*%
%TO.N,GND*%
X22510000Y57000000D03*
%TD*%
D12*
%TO.P,SW1,1*%
%TO.N,BUTTON1*%
X60440000Y33040000D03*
%TO.P,SW1,2*%
%TO.N,GND*%
X66790000Y35580000D03*
%TD*%
D16*
%TO.P,R1,1*%
%TO.N,USB_CC1*%
X21490000Y62000000D03*
%TO.P,R1,2*%
%TO.N,GND*%
X22510000Y62000000D03*
%TD*%
D10*
%TO.P,J1,1*%
%TO.N,3V3*%
X75000000Y100700000D03*
D11*
%TO.P,J1,2*%
X72460000Y100700000D03*
%TO.P,J1,3*%
%TO.N,N/C*%
X69920000Y100700000D03*
%TO.P,J1,4*%
%TO.N,BUTTON1*%
X67380000Y100700000D03*
%TO.P,J1,5*%
%TO.N,RECORD*%
X64840000Y100700000D03*
%TO.P,J1,6*%
%TO.N,BUTTON3*%
X62300000Y100700000D03*
%TO.P,J1,7*%
%TO.N,BUTTON4*%
X59760000Y100700000D03*
%TO.P,J1,8*%
%TO.N,RTC_SDA*%
X57220000Y100700000D03*
%TO.P,J1,9*%
%TO.N,RTC_SCL*%
X54680000Y100700000D03*
%TO.P,J1,10*%
%TO.N,MIC_SD*%
X52140000Y100700000D03*
%TO.P,J1,11*%
%TO.N,N/C*%
X49600000Y100700000D03*
%TO.P,J1,12*%
X47060000Y100700000D03*
%TO.P,J1,13*%
X44520000Y100700000D03*
%TO.P,J1,14*%
X41980000Y100700000D03*
%TO.P,J1,15*%
%TO.N,LCD_BL*%
X39440000Y100700000D03*
%TO.P,J1,16*%
%TO.N,LCD_SCK*%
X36900000Y100700000D03*
%TO.P,J1,17*%
%TO.N,LCD_MOSI*%
X34360000Y100700000D03*
%TO.P,J1,18*%
%TO.N,LCD_DC*%
X31820000Y100700000D03*
%TO.P,J1,19*%
%TO.N,LCD_RST*%
X29280000Y100700000D03*
%TO.P,J1,20*%
%TO.N,LCD_CS*%
X26740000Y100700000D03*
%TO.P,J1,21*%
%TO.N,5V_SW*%
X24200000Y100700000D03*
%TO.P,J1,22*%
%TO.N,GND*%
X21660000Y100700000D03*
%TD*%
D13*
%TO.P,J9,1*%
%TO.N,USB_CC1*%
X9000000Y54000000D03*
D14*
%TO.P,J9,2*%
%TO.N,USB_CC2*%
X9000000Y48920000D03*
%TD*%
D10*
%TO.P,J5,1*%
%TO.N,N/C*%
X58000000Y110000000D03*
D11*
%TO.P,J5,2*%
X60540000Y110000000D03*
%TO.P,J5,3*%
%TO.N,RTC_SDA*%
X63080000Y110000000D03*
%TO.P,J5,4*%
%TO.N,RTC_SCL*%
X65620000Y110000000D03*
%TO.P,J5,5*%
%TO.N,3V3*%
X68160000Y110000000D03*
%TO.P,J5,6*%
%TO.N,GND*%
X70700000Y110000000D03*
%TD*%
D10*
%TO.P,J6,1*%
%TO.N,3V3*%
X18000000Y110000000D03*
D11*
%TO.P,J6,2*%
%TO.N,GND*%
X20540000Y110000000D03*
%TO.P,J6,3*%
%TO.N,LCD_CS*%
X23080000Y110000000D03*
%TO.P,J6,4*%
%TO.N,LCD_RST*%
X25620000Y110000000D03*
%TO.P,J6,5*%
%TO.N,LCD_DC*%
X28160000Y110000000D03*
%TO.P,J6,6*%
%TO.N,LCD_MOSI*%
X30700000Y110000000D03*
%TO.P,J6,7*%
%TO.N,LCD_SCK*%
X33240000Y110000000D03*
%TO.P,J6,8*%
%TO.N,LCD_BL*%
X35780000Y110000000D03*
%TO.P,J6,9*%
%TO.N,N/C*%
X38320000Y110000000D03*
%TO.P,J6,10*%
X40860000Y110000000D03*
%TO.P,J6,11*%
X43400000Y110000000D03*
%TO.P,J6,12*%
X45940000Y110000000D03*
%TO.P,J6,13*%
X48480000Y110000000D03*
%TO.P,J6,14*%
X51020000Y110000000D03*
%TD*%
D12*
%TO.P,SW4,1*%
%TO.N,BUTTON4*%
X69965000Y13990000D03*
%TO.P,SW4,2*%
%TO.N,GND*%
X76315000Y16530000D03*
%TD*%
D10*
%TO.P,J3,1*%
%TO.N,3V3*%
X47310000Y34790000D03*
D11*
%TO.P,J3,2*%
%TO.N,GND*%
X39690000Y34790000D03*
%TO.P,J3,3*%
%TO.N,I2S_BCLK*%
X47310000Y32250000D03*
%TO.P,J3,4*%
%TO.N,I2S_WS*%
X39690000Y32250000D03*
%TO.P,J3,5*%
%TO.N,MIC_SD*%
X47310000Y29710000D03*
%TO.P,J3,6*%
%TO.N,GND*%
X39690000Y29710000D03*
%TD*%
D12*
%TO.P,SW2,1*%
%TO.N,RECORD*%
X79490000Y33040000D03*
%TO.P,SW2,2*%
%TO.N,GND*%
X85840000Y35580000D03*
%TD*%
%TO.P,JS1,M1*%
%TO.N,N/C*%
X23325000Y32000000D03*
%TO.P,JS1,M2*%
X23325000Y22000000D03*
%TO.P,JS1,M3*%
X10675000Y32000000D03*
%TO.P,JS1,M4*%
X10675000Y22000000D03*
D17*
%TO.P,JS1,SWA*%
X20250000Y37250000D03*
%TO.P,JS1,SWB*%
X20250000Y32750000D03*
%TO.P,JS1,SWC*%
X13750000Y37250000D03*
%TO.P,JS1,SWD*%
X13750000Y32750000D03*
D11*
%TO.P,JS1,X1*%
%TO.N,GND*%
X8270000Y29500000D03*
%TO.P,JS1,X2*%
%TO.N,GPIO1*%
X8270000Y27000000D03*
%TO.P,JS1,X3*%
%TO.N,3V3*%
X8270000Y24500000D03*
%TO.P,JS1,Y1*%
%TO.N,GND*%
X14500000Y18270000D03*
%TO.P,JS1,Y2*%
%TO.N,GPIO2*%
X17000000Y18270000D03*
%TO.P,JS1,Y3*%
%TO.N,3V3*%
X19500000Y18270000D03*
%TD*%
D18*
%TO.N,GND*%
X39250000Y69000000D03*
X55000000Y34500000D03*
X45000000Y42500000D03*
X40500000Y42500000D03*
X62000000Y59000000D03*
X45000000Y59000000D03*
X45000000Y50750000D03*
X58000000Y49000000D03*
X57750000Y99000000D03*
X48000000Y65500000D03*
X56250000Y63250000D03*
X37500000Y53750000D03*
X19000000Y64750000D03*
X42500000Y32000000D03*
X40500000Y50750000D03*
X45250000Y68000000D03*
X58250000Y30000000D03*
X42000000Y59000000D03*
X73250000Y62000000D03*
X72000000Y98250000D03*
X72000000Y67500000D03*
X56500000Y86750000D03*
X68750000Y73250000D03*
X48500000Y61000000D03*
X62500000Y82750000D03*
X64250000Y72000000D03*
X48500000Y72000000D03*
%TO.N,GPIO2*%
X59000000Y29500000D03*
X64750000Y72750000D03*
%TO.N,I2S_BCLK*%
X45750000Y67250000D03*
%TO.N,I2S_WS*%
X40000000Y68500000D03*
%TO.N,BUTTON3*%
X58500000Y99500000D03*
%TO.N,5V_SW*%
X48500000Y60000000D03*
X20000000Y64750000D03*
X36500000Y53750000D03*
X62000000Y60000000D03*
%TO.N,BUTTON1*%
X72500000Y99000000D03*
X73750000Y62750000D03*
%TO.N,3V3*%
X57250000Y63250000D03*
X69750000Y73250000D03*
X43500000Y32000000D03*
X69750000Y69000000D03*
%TD*%
%TO.N,GPIO1*%
D19*
X8250000Y27015000D02*
X8265000Y27000000D01*
X33210938Y76500000D02*
X66562500Y76500000D01*
X9187500Y28250000D02*
X8250000Y27312500D01*
X67500000Y75250000D02*
X67380000Y75300000D01*
X8250000Y27015000D02*
X8250000Y27312500D01*
X67500000Y75562500D02*
X66562500Y76500000D01*
X33000000Y39062500D02*
X33000000Y76289062D01*
X33210938Y76500000D02*
X33000000Y76289062D01*
X33000000Y39062500D02*
X22187500Y28250000D01*
X8270000Y27000000D02*
X8265000Y27000000D01*
X9187500Y28250000D02*
X22187500Y28250000D01*
X67500000Y75562500D02*
X67500000Y75250000D01*
%TO.N,GPIO2*%
X64750000Y75250000D02*
X64840000Y75300000D01*
X23937500Y27500000D02*
X57500000Y27500000D01*
X17000000Y18270000D02*
X17000000Y18250000D01*
X64750000Y72750000D02*
X64750000Y75250000D01*
X23937500Y27500000D02*
X17000000Y20562500D01*
X17000000Y18250000D02*
X17000000Y20562500D01*
X59000000Y29000000D02*
X59000000Y29500000D01*
X59000000Y29000000D02*
X57500000Y27500000D01*
%TO.N,AUDIO_DIN*%
X40000000Y63315000D02*
X39685000Y63000000D01*
X39500000Y62920000D02*
X39580000Y63000000D01*
X59750000Y69625000D02*
X54875000Y64750000D01*
X59760000Y75300000D02*
X59760000Y71800000D01*
X41312500Y64750000D02*
X54875000Y64750000D01*
X59750000Y69625000D02*
X59750000Y71250000D01*
X40000000Y63315000D02*
X40000000Y63437500D01*
X39580000Y63000000D02*
X39685000Y63000000D01*
X41312500Y64750000D02*
X40000000Y63437500D01*
X59760000Y71800000D02*
X59750000Y71790000D01*
X59750000Y71790000D02*
X59750000Y71250000D01*
X35000000Y62920000D02*
X39500000Y62920000D01*
%TO.N,I2S_BCLK*%
X40000000Y65828125D02*
X39671875Y65500000D01*
X39500000Y65460000D02*
X39540000Y65500000D01*
X57220000Y71800000D02*
X57250000Y71770000D01*
X35000000Y65460000D02*
X39500000Y65460000D01*
X41312500Y67250000D02*
X54250000Y67250000D01*
X39540000Y65500000D02*
X39671875Y65500000D01*
X41312500Y67250000D02*
X40000000Y65937500D01*
X40000000Y65828125D02*
X40000000Y65937500D01*
X57250000Y70250000D02*
X57250000Y71250000D01*
X57220000Y75300000D02*
X57220000Y71800000D01*
X57250000Y71770000D02*
X57250000Y71250000D01*
X57250000Y70250000D02*
X54250000Y67250000D01*
%TO.N,I2S_WS*%
X42437500Y71250000D02*
X40000000Y68812500D01*
X54390000Y71250000D02*
X54750000Y71610000D01*
X40000000Y68375000D02*
X40000000Y68812500D01*
X35000000Y68000000D02*
X39500000Y68000000D01*
X54680000Y71800000D02*
X54750000Y71730000D01*
X54750000Y71730000D02*
X54750000Y71610000D01*
X42437500Y71250000D02*
X54390000Y71250000D01*
X39500000Y68000000D02*
X39625000Y68000000D01*
X40000000Y68375000D02*
X39625000Y68000000D01*
X54680000Y75300000D02*
X54680000Y71800000D01*
%TO.N,AMP_SD*%
X34932500Y57750000D02*
X34687500Y57750000D01*
X33750000Y58687500D02*
X34687500Y57750000D01*
X33750000Y58687500D02*
X33750000Y74875000D01*
X34932500Y57750000D02*
X35000000Y57817500D01*
X34250000Y75250000D02*
X34360000Y75300000D01*
X34125000Y75250000D02*
X34250000Y75250000D01*
X34125000Y75250000D02*
X33750000Y74875000D01*
X35000000Y57840000D02*
X35000000Y57817500D01*
%TO.N,BUTTON3*%
X62250000Y100437500D02*
X62250000Y100750000D01*
X58500000Y99500000D02*
X61312500Y99500000D01*
X62250000Y100437500D02*
X61312500Y99500000D01*
X62250000Y100750000D02*
X62300000Y100700000D01*
%TO.N,5V_SW*%
D20*
X22203125Y99000000D02*
X22937500Y99000000D01*
X24250000Y100312500D02*
X22937500Y99000000D01*
X36500000Y55312500D02*
X36500000Y53750000D01*
X20000000Y64750000D02*
X20000000Y96796875D01*
X24250000Y100750000D02*
X24200000Y100700000D01*
X48500000Y60000000D02*
X41187500Y60000000D01*
X24250000Y100312500D02*
X24250000Y100750000D01*
X83000000Y60080000D02*
X83000000Y60060000D01*
X82940000Y60000000D02*
X62000000Y60000000D01*
X22203125Y99000000D02*
X20000000Y96796875D01*
X82940000Y60000000D02*
X83000000Y60060000D01*
X36500000Y55312500D02*
X41187500Y60000000D01*
%TO.N,USB_CC2*%
D19*
X19500000Y57000000D02*
X16127500Y57000000D01*
X9670000Y49000000D02*
X11500000Y50830000D01*
X9000000Y48940000D02*
X9000000Y48920000D01*
X9670000Y49000000D02*
X9060000Y49000000D01*
X19990000Y57000000D02*
X19500000Y57000000D01*
X11500000Y52372500D02*
X11500000Y50830000D01*
X11500000Y52372500D02*
X16127500Y57000000D01*
X21490000Y57000000D02*
X19990000Y57000000D01*
X9000000Y48940000D02*
X9060000Y49000000D01*
%TO.N,BUTTON1*%
X67500000Y100312500D02*
X67500000Y100750000D01*
X67500000Y100312500D02*
X68812500Y99000000D01*
X60500000Y33000000D02*
X60500000Y59562500D01*
X67500000Y100750000D02*
X67380000Y100700000D01*
X63687500Y62750000D02*
X73750000Y62750000D01*
X60440000Y33040000D02*
X60500000Y33000000D01*
X72500000Y99000000D02*
X68812500Y99000000D01*
X63687500Y62750000D02*
X60500000Y59562500D01*
%TO.N,USB_CC1*%
X19990000Y62000000D02*
X19500000Y62000000D01*
X10750000Y56984375D02*
X10750000Y55312500D01*
X21490000Y62000000D02*
X19990000Y62000000D01*
X9437500Y54000000D02*
X10750000Y55312500D01*
X9437500Y54000000D02*
X9000000Y54000000D01*
X10750000Y56984375D02*
X15765625Y62000000D01*
X19500000Y62000000D02*
X15765625Y62000000D01*
%TO.N,3V3*%
D21*
X75000000Y100712500D02*
X75000000Y100700000D01*
X47310000Y34790000D02*
X47250000Y34750000D01*
X43500000Y32000000D02*
X43500000Y32687500D01*
X72460000Y100700000D02*
X72500000Y100750000D01*
X72500000Y101125000D02*
X71375000Y102250000D01*
X69750000Y69000000D02*
X69750000Y73250000D01*
X68250000Y110375000D02*
X68250000Y110000000D01*
X57250000Y62125000D02*
X57250000Y63250000D01*
X45562500Y34750000D02*
X43500000Y32687500D01*
X19375000Y111500000D02*
X19000000Y111125000D01*
X52218750Y58750000D02*
X53875000Y58750000D01*
X68250000Y110375000D02*
X67125000Y111500000D01*
X68250000Y110000000D02*
X68250000Y104593750D01*
X68160000Y110000000D02*
X68250000Y110000000D01*
X72500000Y101125000D02*
X72500000Y100750000D01*
X75000000Y100712500D02*
X74962500Y100750000D01*
X18000000Y110000000D02*
X18250000Y110000000D01*
X70593750Y102250000D02*
X71375000Y102250000D01*
X52218750Y58750000D02*
X47250000Y53781250D01*
X19375000Y111500000D02*
X67125000Y111500000D01*
X45562500Y34750000D02*
X47250000Y34750000D01*
X19000000Y110750000D02*
X18250000Y110000000D01*
X57250000Y62125000D02*
X53875000Y58750000D01*
X70593750Y102250000D02*
X68250000Y104593750D01*
X19000000Y110750000D02*
X19000000Y111125000D01*
X47250000Y34750000D02*
X47250000Y53781250D01*
X72500000Y100750000D02*
X74962500Y100750000D01*
%TO.N,RTC_SDA*%
D19*
X61750000Y109062500D02*
X61750000Y104671875D01*
X63000000Y110000000D02*
X62687500Y110000000D01*
X57250000Y100750000D02*
X57220000Y100700000D01*
X57250000Y101062500D02*
X58187500Y102000000D01*
X63080000Y110000000D02*
X63000000Y110000000D01*
X59078125Y102000000D02*
X58187500Y102000000D01*
X61750000Y109062500D02*
X62687500Y110000000D01*
X57250000Y101062500D02*
X57250000Y100750000D01*
X59078125Y102000000D02*
X61750000Y104671875D01*
%TO.N,MIC_SD*%
X64233399Y64000000D02*
X67394532Y64000000D01*
X52140000Y100700000D02*
X52140000Y97200000D01*
X52250000Y91937500D02*
X66687500Y77500000D01*
X58750000Y39375000D02*
X58750000Y58516601D01*
X47310000Y29710000D02*
X47250000Y29750000D01*
X52140000Y97200000D02*
X52250000Y97090000D01*
X76500000Y73105468D02*
X76500000Y76140625D01*
X47250000Y29750000D02*
X47250000Y30000000D01*
X52250000Y97090000D02*
X52250000Y96750000D01*
X76500000Y73105468D02*
X67394532Y64000000D01*
X64233399Y64000000D02*
X58750000Y58516601D01*
X48000000Y30750000D02*
X47250000Y30000000D01*
X75140625Y77500000D02*
X76500000Y76140625D01*
X58750000Y39375000D02*
X50125000Y30750000D01*
X48000000Y30750000D02*
X50125000Y30750000D01*
X75140625Y77500000D02*
X66687500Y77500000D01*
X52250000Y91937500D02*
X52250000Y96750000D01*
%TO.N,LCD_BL*%
X37859375Y102000000D02*
X35750000Y104109375D01*
X35750000Y109977500D02*
X35772500Y110000000D01*
X39500000Y100750000D02*
X39440000Y100700000D01*
X37859375Y102000000D02*
X38562500Y102000000D01*
X35750000Y109977500D02*
X35750000Y104109375D01*
X35780000Y110000000D02*
X35772500Y110000000D01*
X39500000Y101062500D02*
X39500000Y100750000D01*
X39500000Y101062500D02*
X38562500Y102000000D01*
%TO.N,LCD_MOSI*%
X34250000Y101875000D02*
X34250000Y100750000D01*
X30750000Y109962500D02*
X30712500Y110000000D01*
X31406250Y104500000D02*
X31625000Y104500000D01*
X34250000Y101875000D02*
X31625000Y104500000D01*
X30700000Y110000000D02*
X30712500Y110000000D01*
X30750000Y109962500D02*
X30750000Y105156250D01*
X34250000Y100750000D02*
X34360000Y100700000D01*
X31406250Y104500000D02*
X30750000Y105156250D01*
%TO.N,LCD_DC*%
X28250000Y109932500D02*
X28182500Y110000000D01*
X31750000Y101500000D02*
X31750000Y100750000D01*
X31750000Y100750000D02*
X31820000Y100700000D01*
X28250000Y109932500D02*
X28250000Y104687500D01*
X31750000Y101500000D02*
X29500000Y103750000D01*
X28159999Y110000000D02*
X28182500Y110000000D01*
X29187500Y103750000D02*
X28250000Y104687500D01*
X29187500Y103750000D02*
X29500000Y103750000D01*
%TO.N,LCD_RST*%
X27046875Y103000000D02*
X25500000Y104546875D01*
X25500000Y109910000D02*
X25500000Y104546875D01*
X29250000Y100750000D02*
X29280000Y100700000D01*
X25620000Y110000000D02*
X25590000Y110000000D01*
X29250000Y101312500D02*
X27562500Y103000000D01*
X25500000Y109910000D02*
X25590000Y110000000D01*
X29250000Y101312500D02*
X29250000Y100750000D01*
X27046875Y103000000D02*
X27562500Y103000000D01*
%TO.N,LCD_CS*%
X24968750Y102250000D02*
X25625000Y102250000D01*
X23000000Y109940000D02*
X23000000Y104218750D01*
X26750000Y101125000D02*
X26750000Y100750000D01*
X26750000Y101125000D02*
X25625000Y102250000D01*
X23000000Y109940000D02*
X23060000Y110000000D01*
X26750000Y100750000D02*
X26740000Y100700000D01*
X23080000Y110000000D02*
X23060000Y110000000D01*
X24968750Y102250000D02*
X23000000Y104218750D01*
%TD*%
%TA.AperFunction,Conductor*%
%TO.N,GND*%
G36*
X91578190Y115985990D02*
G01*
X91744964Y115899172D01*
X91754296Y115893785D01*
X92013617Y115728579D01*
X92059579Y115675958D01*
X92069797Y115606840D01*
X92041024Y115543169D01*
X91982396Y115505162D01*
X91946990Y115500000D01*
X86000000Y115500000D01*
X86000000Y108500000D01*
X93000000Y108500000D01*
X93000000Y114446991D01*
X93019685Y114514030D01*
X93072489Y114559785D01*
X93141647Y114569729D01*
X93205203Y114540704D01*
X93228577Y114513619D01*
X93393770Y114254320D01*
X93399175Y114244958D01*
X93399183Y114244943D01*
X93485989Y114078192D01*
X93500000Y114020935D01*
X93500000Y99524000D01*
X93480315Y99456961D01*
X93427511Y99411206D01*
X93376000Y99400000D01*
X76195044Y99400000D01*
X76128005Y99419685D01*
X76082250Y99472489D01*
X76072306Y99541647D01*
X76101331Y99605203D01*
X76107363Y99611681D01*
X76139196Y99643515D01*
X76139198Y99643517D01*
X76190573Y99748607D01*
X76200500Y99816740D01*
X76200500Y101583260D01*
X76190573Y101651393D01*
X76139198Y101756483D01*
X76139196Y101756485D01*
X76139196Y101756486D01*
X76056485Y101839197D01*
X75951391Y101890574D01*
X75883261Y101900500D01*
X75883260Y101900500D01*
X74116740Y101900500D01*
X74116739Y101900500D01*
X74048608Y101890574D01*
X73943514Y101839197D01*
X73860803Y101756486D01*
X73809426Y101651392D01*
X73799500Y101583261D01*
X73799500Y101549500D01*
X73779815Y101482461D01*
X73727011Y101436706D01*
X73675500Y101425500D01*
X73479974Y101425500D01*
X73412935Y101445185D01*
X73379658Y101476611D01*
X73375690Y101482073D01*
X73242073Y101615690D01*
X73089199Y101726760D01*
X73017719Y101763181D01*
X72920834Y101812546D01*
X72920833Y101812547D01*
X72920832Y101812547D01*
X72829610Y101842187D01*
X72741110Y101870943D01*
X72736376Y101872079D01*
X72736753Y101873651D01*
X72680016Y101900568D01*
X72674894Y101905407D01*
X71805609Y102774693D01*
X71805605Y102774696D01*
X71694975Y102848617D01*
X71694965Y102848622D01*
X71572036Y102899541D01*
X71572028Y102899543D01*
X71441535Y102925500D01*
X71441531Y102925500D01*
X70924913Y102925500D01*
X70857874Y102945185D01*
X70837232Y102961819D01*
X68961819Y104837232D01*
X68928334Y104898555D01*
X68925500Y104924913D01*
X68925500Y109016375D01*
X68934144Y109045816D01*
X68940668Y109075802D01*
X68944422Y109080818D01*
X68945185Y109083414D01*
X68961819Y109104056D01*
X69065251Y109207488D01*
X69075690Y109217927D01*
X69186760Y109370801D01*
X69272547Y109539168D01*
X69330940Y109718882D01*
X69333092Y109732468D01*
X69363021Y109795603D01*
X69422332Y109832535D01*
X69492194Y109831537D01*
X69550427Y109792928D01*
X69576731Y109735332D01*
X69577181Y109735439D01*
X69577733Y109733137D01*
X69578039Y109732468D01*
X69578318Y109730702D01*
X69634251Y109558556D01*
X69634252Y109558553D01*
X69716434Y109397266D01*
X69772545Y109320035D01*
X69772547Y109320035D01*
X70243388Y109790877D01*
X70299901Y109692993D01*
X70392993Y109599901D01*
X70490874Y109543389D01*
X70020032Y109072548D01*
X70020033Y109072547D01*
X70097265Y109016435D01*
X70258552Y108934253D01*
X70258555Y108934252D01*
X70430706Y108878318D01*
X70609494Y108850000D01*
X70790506Y108850000D01*
X70969293Y108878318D01*
X71141444Y108934252D01*
X71141447Y108934253D01*
X71302731Y109016433D01*
X71379965Y109072548D01*
X71379966Y109072548D01*
X70909125Y109543389D01*
X71007007Y109599901D01*
X71100099Y109692993D01*
X71156611Y109790876D01*
X71627452Y109320034D01*
X71627452Y109320035D01*
X71683567Y109397269D01*
X71765747Y109558553D01*
X71765748Y109558556D01*
X71821682Y109730707D01*
X71850000Y109909494D01*
X71850000Y110090507D01*
X71821682Y110269294D01*
X71765748Y110441445D01*
X71765747Y110441448D01*
X71683565Y110602735D01*
X71627453Y110679967D01*
X71627452Y110679968D01*
X71156610Y110209126D01*
X71100099Y110307007D01*
X71007007Y110400099D01*
X70909124Y110456612D01*
X71379965Y110927453D01*
X71379965Y110927455D01*
X71302734Y110983566D01*
X71141447Y111065748D01*
X71141444Y111065749D01*
X70969293Y111121683D01*
X70790506Y111150000D01*
X70609494Y111150000D01*
X70430706Y111121683D01*
X70258555Y111065749D01*
X70258552Y111065748D01*
X70097272Y110983570D01*
X70020033Y110927454D01*
X70490875Y110456612D01*
X70392993Y110400099D01*
X70299901Y110307007D01*
X70243388Y110209125D01*
X69772546Y110679967D01*
X69716430Y110602728D01*
X69634252Y110441448D01*
X69634251Y110441445D01*
X69578317Y110269295D01*
X69578038Y110267530D01*
X69577745Y110266914D01*
X69577181Y110264561D01*
X69576686Y110264680D01*
X69548108Y110204396D01*
X69488796Y110167466D01*
X69418933Y110168464D01*
X69360701Y110207075D01*
X69333092Y110267532D01*
X69330940Y110281119D01*
X69272545Y110460837D01*
X69216850Y110570144D01*
X69186760Y110629199D01*
X69075690Y110782073D01*
X68942073Y110915690D01*
X68789199Y111026760D01*
X68730858Y111056486D01*
X68620834Y111112546D01*
X68620833Y111112547D01*
X68620832Y111112547D01*
X68537012Y111139782D01*
X68441110Y111170943D01*
X68436376Y111172079D01*
X68436753Y111173651D01*
X68380016Y111200568D01*
X68374894Y111205407D01*
X67555609Y112024693D01*
X67555605Y112024696D01*
X67444975Y112098617D01*
X67444965Y112098622D01*
X67322036Y112149541D01*
X67322028Y112149543D01*
X67191535Y112175500D01*
X67191531Y112175500D01*
X19441531Y112175500D01*
X19308469Y112175500D01*
X19308467Y112175500D01*
X19177969Y112149542D01*
X19177959Y112149539D01*
X19055038Y112098624D01*
X19055020Y112098614D01*
X18944398Y112024699D01*
X18944390Y112024693D01*
X18475307Y111555610D01*
X18475304Y111555606D01*
X18401383Y111444976D01*
X18401378Y111444966D01*
X18350459Y111322037D01*
X18350459Y111322036D01*
X18346137Y111300309D01*
X18313753Y111238399D01*
X18253038Y111203824D01*
X18224520Y111200500D01*
X17116739Y111200500D01*
X17048608Y111190574D01*
X16943514Y111139197D01*
X16860803Y111056486D01*
X16809426Y110951392D01*
X16799500Y110883261D01*
X16799500Y109116740D01*
X16809426Y109048609D01*
X16860803Y108943515D01*
X16943514Y108860804D01*
X16943515Y108860804D01*
X16943517Y108860802D01*
X17048607Y108809427D01*
X17082673Y108804464D01*
X17116739Y108799500D01*
X17116740Y108799500D01*
X18883261Y108799500D01*
X18905971Y108802809D01*
X18951393Y108809427D01*
X19056483Y108860802D01*
X19139198Y108943517D01*
X19190573Y109048607D01*
X19200500Y109116740D01*
X19200500Y109618173D01*
X19220185Y109685212D01*
X19272989Y109730967D01*
X19342147Y109740911D01*
X19405703Y109711886D01*
X19442431Y109656491D01*
X19474251Y109558556D01*
X19474252Y109558553D01*
X19556434Y109397266D01*
X19612545Y109320035D01*
X19612547Y109320035D01*
X20083388Y109790877D01*
X20139901Y109692993D01*
X20232993Y109599901D01*
X20330873Y109543390D01*
X19860032Y109072548D01*
X19860033Y109072547D01*
X19937265Y109016435D01*
X20098552Y108934253D01*
X20098555Y108934252D01*
X20270706Y108878318D01*
X20449494Y108850000D01*
X20630506Y108850000D01*
X20809293Y108878318D01*
X20981444Y108934252D01*
X20981447Y108934253D01*
X21142731Y109016433D01*
X21219965Y109072548D01*
X21219966Y109072548D01*
X20749125Y109543389D01*
X20847007Y109599901D01*
X20940099Y109692993D01*
X20996611Y109790876D01*
X21467452Y109320034D01*
X21467452Y109320035D01*
X21523567Y109397269D01*
X21605747Y109558553D01*
X21605748Y109558556D01*
X21661681Y109730703D01*
X21661958Y109732450D01*
X21662248Y109733064D01*
X21662819Y109735439D01*
X21663317Y109735320D01*
X21691877Y109795589D01*
X21751183Y109832530D01*
X21821046Y109831543D01*
X21879284Y109792942D01*
X21906906Y109732475D01*
X21909059Y109718884D01*
X21909059Y109718882D01*
X21967454Y109539164D01*
X22003668Y109468091D01*
X22053240Y109370801D01*
X22164310Y109217927D01*
X22297927Y109084310D01*
X22362208Y109037607D01*
X22450796Y108973243D01*
X22450797Y108973243D01*
X22450801Y108973240D01*
X22481795Y108957448D01*
X22532590Y108909476D01*
X22549500Y108846964D01*
X22549500Y104159442D01*
X22573712Y104069078D01*
X22580200Y104044865D01*
X22580200Y104044864D01*
X22580201Y104044863D01*
X22639511Y103942136D01*
X22639513Y103942134D01*
X24319466Y102262181D01*
X24352951Y102200858D01*
X24347967Y102131166D01*
X24306095Y102075233D01*
X24240631Y102050816D01*
X24231785Y102050500D01*
X24093713Y102050500D01*
X24045042Y102042792D01*
X23883760Y102017247D01*
X23681585Y101951556D01*
X23492179Y101855049D01*
X23320213Y101730110D01*
X23169890Y101579787D01*
X23044951Y101407821D01*
X22948444Y101218417D01*
X22938967Y101189247D01*
X22899529Y101131572D01*
X22835170Y101104374D01*
X22766323Y101116289D01*
X22714848Y101163534D01*
X22710551Y101171271D01*
X22643565Y101302735D01*
X22587453Y101379967D01*
X22587452Y101379968D01*
X22116611Y100909125D01*
X22060099Y101007007D01*
X21967007Y101100099D01*
X21869124Y101156612D01*
X22339965Y101627453D01*
X22339965Y101627455D01*
X22262734Y101683566D01*
X22101447Y101765748D01*
X22101444Y101765749D01*
X21929293Y101821683D01*
X21750506Y101850000D01*
X21569494Y101850000D01*
X21390706Y101821683D01*
X21218555Y101765749D01*
X21218552Y101765748D01*
X21057272Y101683570D01*
X20980033Y101627454D01*
X21450875Y101156612D01*
X21352993Y101100099D01*
X21259901Y101007007D01*
X21203388Y100909125D01*
X20732546Y101379967D01*
X20676430Y101302728D01*
X20594252Y101141448D01*
X20594251Y101141445D01*
X20538317Y100969294D01*
X20510000Y100790507D01*
X20510000Y100609494D01*
X20538317Y100430707D01*
X20594251Y100258556D01*
X20594252Y100258553D01*
X20676434Y100097266D01*
X20732545Y100020035D01*
X20732547Y100020035D01*
X21203388Y100490876D01*
X21259901Y100392993D01*
X21352993Y100299901D01*
X21450875Y100243389D01*
X20980032Y99772548D01*
X20980033Y99772547D01*
X21057265Y99716435D01*
X21218552Y99634253D01*
X21218555Y99634252D01*
X21390702Y99578319D01*
X21434672Y99571355D01*
X21497807Y99541426D01*
X21534739Y99482115D01*
X21533743Y99412252D01*
X21502957Y99361200D01*
X19417050Y97275295D01*
X19417044Y97275287D01*
X19367812Y97201607D01*
X19367813Y97201606D01*
X19334921Y97152379D01*
X19334914Y97152367D01*
X19278342Y97015789D01*
X19278340Y97015783D01*
X19249500Y96870796D01*
X19249500Y96870793D01*
X19249500Y64676082D01*
X19249500Y64676080D01*
X19249499Y64676080D01*
X19278340Y64531093D01*
X19278343Y64531083D01*
X19334912Y64394512D01*
X19334919Y64394499D01*
X19417048Y64271585D01*
X19417051Y64271581D01*
X19521580Y64167052D01*
X19521584Y64167049D01*
X19644498Y64084920D01*
X19644511Y64084913D01*
X19770940Y64032545D01*
X19781087Y64028342D01*
X19781091Y64028342D01*
X19781092Y64028341D01*
X19926079Y63999500D01*
X19926082Y63999500D01*
X20073920Y63999500D01*
X20171462Y64018904D01*
X20218913Y64028342D01*
X20355495Y64084916D01*
X20478416Y64167049D01*
X20582951Y64271584D01*
X20665084Y64394505D01*
X20721658Y64531087D01*
X20750500Y64676082D01*
X20750500Y74295948D01*
X20770185Y74362987D01*
X20822989Y74408742D01*
X20892147Y74418686D01*
X20947385Y74396266D01*
X21057265Y74316435D01*
X21218552Y74234253D01*
X21218555Y74234252D01*
X21390706Y74178318D01*
X21569494Y74150000D01*
X21750506Y74150000D01*
X21929293Y74178318D01*
X22101444Y74234252D01*
X22101447Y74234253D01*
X22262731Y74316433D01*
X22339965Y74372548D01*
X22339966Y74372548D01*
X21869124Y74843389D01*
X21967007Y74899901D01*
X22060099Y74992993D01*
X22116611Y75090876D01*
X22587452Y74620034D01*
X22587452Y74620035D01*
X22643567Y74697269D01*
X22725747Y74858553D01*
X22725748Y74858556D01*
X22781682Y75030707D01*
X22807527Y75193880D01*
X22837456Y75257015D01*
X22896768Y75293946D01*
X22966630Y75292948D01*
X23024863Y75254338D01*
X23052473Y75193880D01*
X23078317Y75030707D01*
X23134251Y74858556D01*
X23134252Y74858553D01*
X23216434Y74697266D01*
X23272545Y74620035D01*
X23272547Y74620035D01*
X23743388Y75090876D01*
X23799901Y74992993D01*
X23892993Y74899901D01*
X23990874Y74843389D01*
X23520032Y74372548D01*
X23520033Y74372547D01*
X23597265Y74316435D01*
X23758552Y74234253D01*
X23758555Y74234252D01*
X23930706Y74178318D01*
X24109494Y74150000D01*
X24290506Y74150000D01*
X24469293Y74178318D01*
X24641444Y74234252D01*
X24641447Y74234253D01*
X24802731Y74316433D01*
X24879965Y74372548D01*
X24879966Y74372548D01*
X24409125Y74843389D01*
X24507007Y74899901D01*
X24600099Y74992993D01*
X24656611Y75090876D01*
X25127452Y74620034D01*
X25127452Y74620035D01*
X25183567Y74697269D01*
X25265747Y74858553D01*
X25265748Y74858556D01*
X25321681Y75030703D01*
X25321958Y75032450D01*
X25322248Y75033064D01*
X25322819Y75035439D01*
X25323317Y75035320D01*
X25351877Y75095589D01*
X25411183Y75132530D01*
X25481046Y75131543D01*
X25539284Y75092942D01*
X25566906Y75032475D01*
X25569059Y75018884D01*
X25569059Y75018882D01*
X25627454Y74839164D01*
X25699754Y74697269D01*
X25713240Y74670801D01*
X25824310Y74517927D01*
X25957927Y74384310D01*
X26110801Y74273240D01*
X26187318Y74234253D01*
X26279163Y74187455D01*
X26279165Y74187455D01*
X26279168Y74187453D01*
X26357516Y74161996D01*
X26458881Y74129060D01*
X26645514Y74099500D01*
X26645519Y74099500D01*
X26834486Y74099500D01*
X27021118Y74129060D01*
X27067526Y74144139D01*
X27200832Y74187453D01*
X27369199Y74273240D01*
X27522073Y74384310D01*
X27655690Y74517927D01*
X27766760Y74670801D01*
X27852547Y74839168D01*
X27892069Y74960805D01*
X27931507Y75018479D01*
X27995866Y75045677D01*
X28064712Y75033762D01*
X28116188Y74986518D01*
X28127931Y74960804D01*
X28167454Y74839164D01*
X28239754Y74697269D01*
X28253240Y74670801D01*
X28364310Y74517927D01*
X28497927Y74384310D01*
X28650801Y74273240D01*
X28727318Y74234253D01*
X28819163Y74187455D01*
X28819165Y74187455D01*
X28819168Y74187453D01*
X28897516Y74161996D01*
X28998881Y74129060D01*
X29185514Y74099500D01*
X29185519Y74099500D01*
X29374486Y74099500D01*
X29561118Y74129060D01*
X29607526Y74144139D01*
X29740832Y74187453D01*
X29909199Y74273240D01*
X30062073Y74384310D01*
X30195690Y74517927D01*
X30306760Y74670801D01*
X30392547Y74839168D01*
X30432069Y74960805D01*
X30471507Y75018479D01*
X30535866Y75045677D01*
X30604712Y75033762D01*
X30656188Y74986518D01*
X30667931Y74960804D01*
X30707454Y74839164D01*
X30779754Y74697269D01*
X30793240Y74670801D01*
X30904310Y74517927D01*
X31037927Y74384310D01*
X31190801Y74273240D01*
X31267318Y74234253D01*
X31359163Y74187455D01*
X31359165Y74187455D01*
X31359168Y74187453D01*
X31437516Y74161996D01*
X31538881Y74129060D01*
X31725514Y74099500D01*
X31725519Y74099500D01*
X31914486Y74099500D01*
X32101118Y74129060D01*
X32109557Y74131802D01*
X32280832Y74187453D01*
X32369205Y74232482D01*
X32437873Y74245378D01*
X32502614Y74219102D01*
X32542872Y74161996D01*
X32549500Y74121997D01*
X32549500Y39300466D01*
X32529815Y39233427D01*
X32513181Y39212785D01*
X24907906Y31607511D01*
X24846583Y31574026D01*
X24776891Y31579010D01*
X24720958Y31620882D01*
X24696541Y31686346D01*
X24697751Y31714583D01*
X24725500Y31889778D01*
X24725500Y32110222D01*
X24691015Y32327951D01*
X24622895Y32537606D01*
X24622895Y32537607D01*
X24566825Y32647648D01*
X24522815Y32734022D01*
X24436844Y32852352D01*
X24393247Y32912359D01*
X24393243Y32912364D01*
X24237363Y33068244D01*
X24237358Y33068248D01*
X24059025Y33197813D01*
X24059024Y33197814D01*
X24059022Y33197815D01*
X23996096Y33229878D01*
X23862606Y33297896D01*
X23862603Y33297897D01*
X23652952Y33366015D01*
X23537523Y33384297D01*
X23435222Y33400500D01*
X23214778Y33400500D01*
X23142201Y33389005D01*
X22997047Y33366015D01*
X22787396Y33297897D01*
X22787393Y33297896D01*
X22590974Y33197813D01*
X22412641Y33068248D01*
X22412636Y33068244D01*
X22256756Y32912364D01*
X22256752Y32912359D01*
X22127187Y32734026D01*
X22027104Y32537607D01*
X22027103Y32537604D01*
X21958985Y32327953D01*
X21924500Y32110222D01*
X21924500Y31889779D01*
X21958985Y31672048D01*
X22027103Y31462397D01*
X22027104Y31462394D01*
X22127187Y31265975D01*
X22256752Y31087642D01*
X22256756Y31087637D01*
X22412636Y30931757D01*
X22412641Y30931753D01*
X22511991Y30859572D01*
X22590978Y30802185D01*
X22719375Y30736763D01*
X22787393Y30702105D01*
X22787396Y30702104D01*
X22892221Y30668045D01*
X22997049Y30633985D01*
X23214778Y30599500D01*
X23214779Y30599500D01*
X23435221Y30599500D01*
X23435222Y30599500D01*
X23610412Y30627248D01*
X23679703Y30618294D01*
X23733155Y30573298D01*
X23753795Y30506546D01*
X23735070Y30439232D01*
X23717489Y30417094D01*
X22037216Y28736819D01*
X21975893Y28703334D01*
X21949535Y28700500D01*
X9353971Y28700500D01*
X9286932Y28720185D01*
X9241177Y28772989D01*
X9231233Y28842147D01*
X9251740Y28892673D01*
X9251022Y28893113D01*
X9253563Y28897261D01*
X9335747Y29058553D01*
X9335748Y29058556D01*
X9391682Y29230707D01*
X9420000Y29409494D01*
X9420000Y29590507D01*
X9391682Y29769294D01*
X9335748Y29941445D01*
X9335747Y29941448D01*
X9253565Y30102735D01*
X9197453Y30179967D01*
X9197452Y30179968D01*
X8726611Y29709125D01*
X8670099Y29807007D01*
X8577007Y29900099D01*
X8479124Y29956612D01*
X8949965Y30427453D01*
X8949965Y30427455D01*
X8872734Y30483566D01*
X8711447Y30565748D01*
X8711444Y30565749D01*
X8539293Y30621683D01*
X8360506Y30650000D01*
X8179494Y30650000D01*
X8000706Y30621683D01*
X7828555Y30565749D01*
X7828552Y30565748D01*
X7667272Y30483570D01*
X7590033Y30427454D01*
X8060875Y29956612D01*
X7962993Y29900099D01*
X7869901Y29807007D01*
X7813388Y29709125D01*
X7342546Y30179967D01*
X7286430Y30102728D01*
X7204252Y29941448D01*
X7204251Y29941445D01*
X7148317Y29769294D01*
X7120000Y29590507D01*
X7120000Y29409494D01*
X7148317Y29230707D01*
X7204251Y29058556D01*
X7204252Y29058553D01*
X7286434Y28897266D01*
X7342545Y28820035D01*
X7342547Y28820035D01*
X7813388Y29290876D01*
X7869901Y29192993D01*
X7962993Y29099901D01*
X8060875Y29043389D01*
X7590032Y28572548D01*
X7590033Y28572547D01*
X7667265Y28516435D01*
X7828552Y28434253D01*
X7828555Y28434252D01*
X7950959Y28394481D01*
X8008634Y28355044D01*
X8035833Y28290685D01*
X8023919Y28221839D01*
X7976675Y28170363D01*
X7950960Y28158619D01*
X7809163Y28112546D01*
X7640800Y28026760D01*
X7585827Y27986819D01*
X7487927Y27915690D01*
X7487925Y27915688D01*
X7487924Y27915688D01*
X7354312Y27782076D01*
X7354312Y27782075D01*
X7354310Y27782073D01*
X7340588Y27763186D01*
X7243240Y27629200D01*
X7157454Y27460837D01*
X7099059Y27281119D01*
X7069500Y27094487D01*
X7069500Y26905514D01*
X7099059Y26718882D01*
X7157454Y26539164D01*
X7243240Y26370801D01*
X7354310Y26217927D01*
X7487927Y26084310D01*
X7640801Y25973240D01*
X7720347Y25932710D01*
X7809163Y25887455D01*
X7809165Y25887455D01*
X7809168Y25887453D01*
X7869251Y25867931D01*
X7926926Y25828493D01*
X7954124Y25764134D01*
X7942209Y25695288D01*
X7894965Y25643812D01*
X7869253Y25632070D01*
X7850756Y25626061D01*
X7809163Y25612546D01*
X7640800Y25526760D01*
X7553579Y25463390D01*
X7487927Y25415690D01*
X7487925Y25415688D01*
X7487924Y25415688D01*
X7354312Y25282076D01*
X7354312Y25282075D01*
X7354310Y25282073D01*
X7306610Y25216421D01*
X7243240Y25129200D01*
X7157454Y24960837D01*
X7099059Y24781119D01*
X7069500Y24594487D01*
X7069500Y24405514D01*
X7099059Y24218882D01*
X7157454Y24039164D01*
X7243240Y23870801D01*
X7354310Y23717927D01*
X7487927Y23584310D01*
X7640801Y23473240D01*
X7720347Y23432710D01*
X7809163Y23387455D01*
X7809165Y23387455D01*
X7809168Y23387453D01*
X7875147Y23366015D01*
X7988881Y23329060D01*
X8175514Y23299500D01*
X8175519Y23299500D01*
X8364486Y23299500D01*
X8551118Y23329060D01*
X8730832Y23387453D01*
X8899199Y23473240D01*
X9052073Y23584310D01*
X9185690Y23717927D01*
X9296760Y23870801D01*
X9382547Y24039168D01*
X9440940Y24218882D01*
X9470500Y24405514D01*
X9470500Y24594487D01*
X9440940Y24781119D01*
X9382545Y24960837D01*
X9296759Y25129200D01*
X9185690Y25282073D01*
X9052073Y25415690D01*
X8899199Y25526760D01*
X8730832Y25612547D01*
X8670748Y25632070D01*
X8613073Y25671507D01*
X8585875Y25735865D01*
X8597790Y25804712D01*
X8645034Y25856187D01*
X8670746Y25867931D01*
X8730832Y25887453D01*
X8899199Y25973240D01*
X9052073Y26084310D01*
X9185690Y26217927D01*
X9296760Y26370801D01*
X9382547Y26539168D01*
X9440940Y26718882D01*
X9470500Y26905514D01*
X9470500Y27094487D01*
X9440940Y27281119D01*
X9382545Y27460837D01*
X9343059Y27538331D01*
X9306282Y27610510D01*
X9293387Y27679177D01*
X9319663Y27743918D01*
X9329092Y27754489D01*
X9337790Y27763186D01*
X9399115Y27796668D01*
X9425466Y27799500D01*
X22246808Y27799500D01*
X22246809Y27799500D01*
X22337173Y27823714D01*
X22361387Y27830201D01*
X22464114Y27889511D01*
X26919090Y32344487D01*
X38489500Y32344487D01*
X38489500Y32155514D01*
X38519059Y31968882D01*
X38577454Y31789164D01*
X38633061Y31680031D01*
X38663240Y31620801D01*
X38774310Y31467927D01*
X38907927Y31334310D01*
X39060801Y31223240D01*
X39089053Y31208845D01*
X39229163Y31137455D01*
X39229165Y31137455D01*
X39229168Y31137453D01*
X39312154Y31110489D01*
X39408881Y31079060D01*
X39422468Y31076908D01*
X39485603Y31046979D01*
X39522534Y30987667D01*
X39521536Y30917805D01*
X39482926Y30859572D01*
X39425331Y30833269D01*
X39425439Y30832819D01*
X39423136Y30832267D01*
X39422470Y30831962D01*
X39420705Y30831683D01*
X39248555Y30775749D01*
X39248552Y30775748D01*
X39087272Y30693570D01*
X39010033Y30637454D01*
X39480875Y30166612D01*
X39382993Y30110099D01*
X39289901Y30017007D01*
X39233388Y29919125D01*
X38762546Y30389967D01*
X38706430Y30312728D01*
X38624252Y30151448D01*
X38624251Y30151445D01*
X38568317Y29979294D01*
X38540000Y29800507D01*
X38540000Y29619494D01*
X38568317Y29440707D01*
X38624251Y29268556D01*
X38624252Y29268553D01*
X38706434Y29107266D01*
X38762545Y29030035D01*
X38762547Y29030035D01*
X39233388Y29500876D01*
X39289901Y29402993D01*
X39382993Y29309901D01*
X39480874Y29253389D01*
X39010032Y28782548D01*
X39010033Y28782547D01*
X39087265Y28726435D01*
X39248552Y28644253D01*
X39248555Y28644252D01*
X39420706Y28588318D01*
X39599494Y28560000D01*
X39780506Y28560000D01*
X39959293Y28588318D01*
X40131444Y28644252D01*
X40131447Y28644253D01*
X40292731Y28726433D01*
X40369965Y28782548D01*
X40369966Y28782548D01*
X39899125Y29253389D01*
X39997007Y29309901D01*
X40090099Y29402993D01*
X40146611Y29500876D01*
X40617452Y29030034D01*
X40617452Y29030035D01*
X40673567Y29107269D01*
X40755747Y29268553D01*
X40755748Y29268556D01*
X40811682Y29440707D01*
X40840000Y29619494D01*
X40840000Y29800507D01*
X40811682Y29979294D01*
X40755748Y30151445D01*
X40755747Y30151448D01*
X40673565Y30312735D01*
X40617453Y30389967D01*
X40617452Y30389968D01*
X40146610Y29919126D01*
X40090099Y30017007D01*
X39997007Y30110099D01*
X39899124Y30166612D01*
X40369965Y30637453D01*
X40369965Y30637455D01*
X40292734Y30693566D01*
X40131447Y30775748D01*
X40131444Y30775749D01*
X39959298Y30831682D01*
X39957532Y30831961D01*
X39956912Y30832255D01*
X39954561Y30832819D01*
X39954679Y30833314D01*
X39894397Y30861890D01*
X39857465Y30921202D01*
X39858463Y30991064D01*
X39897072Y31049297D01*
X39957532Y31076908D01*
X39971118Y31079060D01*
X39997515Y31087637D01*
X40150832Y31137453D01*
X40319199Y31223240D01*
X40472073Y31334310D01*
X40605690Y31467927D01*
X40716760Y31620801D01*
X40802547Y31789168D01*
X40860940Y31968882D01*
X40876700Y32068387D01*
X40890500Y32155514D01*
X40890500Y32344487D01*
X40860940Y32531119D01*
X40823077Y32647648D01*
X40802547Y32710832D01*
X40802545Y32710835D01*
X40802545Y32710837D01*
X40716759Y32879200D01*
X40605690Y33032073D01*
X40472073Y33165690D01*
X40319199Y33276760D01*
X40150836Y33362546D01*
X39971117Y33420941D01*
X39957525Y33423094D01*
X39894392Y33453026D01*
X39857464Y33512339D01*
X39858465Y33582202D01*
X39897077Y33640433D01*
X39954669Y33666728D01*
X39954561Y33667181D01*
X39956886Y33667740D01*
X39957550Y33668042D01*
X39959297Y33668319D01*
X40131444Y33724252D01*
X40131447Y33724253D01*
X40292731Y33806433D01*
X40369965Y33862548D01*
X40369966Y33862548D01*
X39899125Y34333389D01*
X39997007Y34389901D01*
X40090099Y34482993D01*
X40146611Y34580876D01*
X40617452Y34110034D01*
X40617452Y34110035D01*
X40673567Y34187269D01*
X40755747Y34348553D01*
X40755748Y34348556D01*
X40811682Y34520707D01*
X40840000Y34699494D01*
X40840000Y34880507D01*
X40811682Y35059294D01*
X40755748Y35231445D01*
X40755747Y35231448D01*
X40673565Y35392735D01*
X40617453Y35469967D01*
X40617452Y35469968D01*
X40146610Y34999126D01*
X40090099Y35097007D01*
X39997007Y35190099D01*
X39899124Y35246612D01*
X40369965Y35717453D01*
X40369965Y35717455D01*
X40292734Y35773566D01*
X40131447Y35855748D01*
X40131444Y35855749D01*
X39959293Y35911683D01*
X39780506Y35940000D01*
X39599494Y35940000D01*
X39420706Y35911683D01*
X39248555Y35855749D01*
X39248552Y35855748D01*
X39087272Y35773570D01*
X39010033Y35717454D01*
X39480875Y35246612D01*
X39382993Y35190099D01*
X39289901Y35097007D01*
X39233388Y34999125D01*
X38762546Y35469967D01*
X38706430Y35392728D01*
X38624252Y35231448D01*
X38624251Y35231445D01*
X38568317Y35059294D01*
X38540000Y34880507D01*
X38540000Y34699494D01*
X38568317Y34520707D01*
X38624251Y34348556D01*
X38624252Y34348553D01*
X38706434Y34187266D01*
X38762545Y34110035D01*
X38762547Y34110035D01*
X39233388Y34580876D01*
X39289901Y34482993D01*
X39382993Y34389901D01*
X39480874Y34333389D01*
X39010032Y33862548D01*
X39010033Y33862547D01*
X39087265Y33806435D01*
X39248552Y33724253D01*
X39248555Y33724252D01*
X39420701Y33668319D01*
X39422451Y33668042D01*
X39423065Y33667751D01*
X39425439Y33667181D01*
X39425319Y33666683D01*
X39485590Y33638121D01*
X39522529Y33578814D01*
X39521541Y33508952D01*
X39482939Y33450714D01*
X39422475Y33423094D01*
X39408882Y33420941D01*
X39408881Y33420941D01*
X39229163Y33362546D01*
X39060800Y33276760D01*
X39022901Y33249224D01*
X38907927Y33165690D01*
X38907925Y33165688D01*
X38907924Y33165688D01*
X38774312Y33032076D01*
X38774312Y33032075D01*
X38774310Y33032073D01*
X38756439Y33007476D01*
X38663240Y32879200D01*
X38577454Y32710837D01*
X38519059Y32531119D01*
X38489500Y32344487D01*
X26919090Y32344487D01*
X33360489Y38785886D01*
X33419799Y38888613D01*
X33437641Y38955201D01*
X33450500Y39003191D01*
X33450500Y52375658D01*
X33470185Y52442697D01*
X33522989Y52488452D01*
X33592147Y52498396D01*
X33655703Y52469371D01*
X33692429Y52413978D01*
X33748443Y52241588D01*
X33748444Y52241586D01*
X33844951Y52052180D01*
X33969890Y51880214D01*
X34120213Y51729891D01*
X34292179Y51604952D01*
X34292181Y51604951D01*
X34292184Y51604949D01*
X34481588Y51508443D01*
X34683757Y51442754D01*
X34893713Y51409500D01*
X34893714Y51409500D01*
X35106286Y51409500D01*
X35106287Y51409500D01*
X35316243Y51442754D01*
X35518412Y51508443D01*
X35707816Y51604949D01*
X35729789Y51620914D01*
X35879786Y51729891D01*
X35879788Y51729894D01*
X35879792Y51729896D01*
X36030104Y51880208D01*
X36030106Y51880212D01*
X36030109Y51880214D01*
X36155048Y52052180D01*
X36155047Y52052180D01*
X36155051Y52052184D01*
X36251557Y52241588D01*
X36317246Y52443757D01*
X36350500Y52653713D01*
X36350500Y52866287D01*
X36350500Y52871159D01*
X36351674Y52871159D01*
X36364899Y52934139D01*
X36413947Y52983900D01*
X36474158Y52999500D01*
X36573920Y52999500D01*
X36682762Y53021151D01*
X36718913Y53028342D01*
X36824547Y53072098D01*
X36855488Y53084913D01*
X36855488Y53084914D01*
X36855495Y53084916D01*
X36978416Y53167049D01*
X37082951Y53271584D01*
X37165084Y53394505D01*
X37221658Y53531087D01*
X37241467Y53630669D01*
X37250500Y53676080D01*
X37250500Y54950270D01*
X37270185Y55017309D01*
X37286819Y55037951D01*
X41462049Y59213181D01*
X41523372Y59246666D01*
X41549730Y59249500D01*
X48573920Y59249500D01*
X48671462Y59268904D01*
X48718913Y59278342D01*
X48855495Y59334916D01*
X48978416Y59417049D01*
X49082951Y59521584D01*
X49165084Y59644505D01*
X49221658Y59781087D01*
X49231096Y59828538D01*
X49250500Y59926080D01*
X49250500Y60073921D01*
X49221659Y60218908D01*
X49221658Y60218909D01*
X49221658Y60218913D01*
X49194069Y60285519D01*
X49165087Y60355489D01*
X49165080Y60355502D01*
X49082951Y60478416D01*
X49082948Y60478420D01*
X48978419Y60582949D01*
X48978415Y60582952D01*
X48855501Y60665081D01*
X48855488Y60665088D01*
X48718917Y60721657D01*
X48718907Y60721660D01*
X48573920Y60750500D01*
X48573918Y60750500D01*
X41113582Y60750500D01*
X41113580Y60750500D01*
X40968592Y60721660D01*
X40968582Y60721657D01*
X40832008Y60665086D01*
X40832005Y60665085D01*
X40832005Y60665084D01*
X40798882Y60642952D01*
X40798881Y60642953D01*
X40709085Y60582954D01*
X40709078Y60582948D01*
X36034532Y55908402D01*
X35973209Y55874917D01*
X35903517Y55879901D01*
X35847584Y55921773D01*
X35843749Y55927192D01*
X35815589Y55969337D01*
X35669339Y56115587D01*
X35669335Y56115590D01*
X35497368Y56230495D01*
X35497358Y56230500D01*
X35306274Y56309650D01*
X35306266Y56309652D01*
X35125000Y56345708D01*
X35125000Y55784145D01*
X35065826Y55800000D01*
X34934174Y55800000D01*
X34875000Y55784145D01*
X34875000Y56345708D01*
X34874999Y56345708D01*
X34693733Y56309652D01*
X34693725Y56309650D01*
X34502641Y56230500D01*
X34502631Y56230495D01*
X34330664Y56115590D01*
X34330660Y56115587D01*
X34184413Y55969340D01*
X34184410Y55969336D01*
X34069505Y55797369D01*
X34069500Y55797359D01*
X33990350Y55606275D01*
X33990348Y55606267D01*
X33954292Y55425001D01*
X33954292Y55425000D01*
X34515856Y55425000D01*
X34500000Y55365826D01*
X34500000Y55234174D01*
X34515856Y55175000D01*
X33954292Y55175000D01*
X33990348Y54993734D01*
X33990350Y54993726D01*
X34069500Y54802642D01*
X34069505Y54802632D01*
X34184410Y54630665D01*
X34184413Y54630661D01*
X34330660Y54484414D01*
X34330664Y54484411D01*
X34502631Y54369506D01*
X34502641Y54369501D01*
X34667129Y54301367D01*
X34721532Y54257526D01*
X34743597Y54191232D01*
X34726318Y54123532D01*
X34675180Y54075922D01*
X34657994Y54068875D01*
X34481585Y54011556D01*
X34292179Y53915049D01*
X34120213Y53790110D01*
X33969890Y53639787D01*
X33844951Y53467821D01*
X33748444Y53278415D01*
X33748443Y53278413D01*
X33748443Y53278412D01*
X33722804Y53199502D01*
X33692431Y53106025D01*
X33652993Y53048349D01*
X33588635Y53021151D01*
X33519788Y53033066D01*
X33468313Y53080310D01*
X33450500Y53144343D01*
X33450500Y58050535D01*
X33470185Y58117574D01*
X33522989Y58163329D01*
X33592147Y58173273D01*
X33655703Y58144248D01*
X33662181Y58138216D01*
X33763923Y58036474D01*
X33797408Y57975151D01*
X33799861Y57939077D01*
X33799500Y57934484D01*
X33799500Y57745514D01*
X33829059Y57558882D01*
X33887454Y57379164D01*
X33966354Y57224316D01*
X33973240Y57210801D01*
X34084310Y57057927D01*
X34217927Y56924310D01*
X34370801Y56813240D01*
X34444376Y56775752D01*
X34539163Y56727455D01*
X34539165Y56727455D01*
X34539168Y56727453D01*
X34635497Y56696154D01*
X34718881Y56669060D01*
X34905514Y56639500D01*
X34905519Y56639500D01*
X35094486Y56639500D01*
X35281118Y56669060D01*
X35460832Y56727453D01*
X35629199Y56813240D01*
X35782073Y56924310D01*
X35915690Y57057927D01*
X36026760Y57210801D01*
X36112547Y57379168D01*
X36170940Y57558882D01*
X36200500Y57745514D01*
X36200500Y57934487D01*
X36170940Y58121119D01*
X36119478Y58279500D01*
X36112547Y58300832D01*
X36112545Y58300835D01*
X36112545Y58300837D01*
X36030573Y58461715D01*
X36026760Y58469199D01*
X35915690Y58622073D01*
X35782073Y58755690D01*
X35629199Y58866760D01*
X35460836Y58952546D01*
X35369145Y58982338D01*
X35339195Y58992070D01*
X35281521Y59031507D01*
X35254323Y59095866D01*
X35266238Y59164712D01*
X35313482Y59216188D01*
X35339194Y59227931D01*
X35460832Y59267453D01*
X35629199Y59353240D01*
X35782073Y59464310D01*
X35915690Y59597927D01*
X36026760Y59750801D01*
X36112547Y59919168D01*
X36170940Y60098882D01*
X36182264Y60170381D01*
X36200500Y60285514D01*
X36200500Y60474487D01*
X36170940Y60661119D01*
X36134703Y60772643D01*
X36112547Y60840832D01*
X36112545Y60840835D01*
X36112545Y60840837D01*
X36050717Y60962181D01*
X36026760Y61009199D01*
X35915690Y61162073D01*
X35782073Y61295690D01*
X35629199Y61406760D01*
X35460836Y61492546D01*
X35369145Y61522338D01*
X35339195Y61532070D01*
X35281521Y61571507D01*
X35254323Y61635866D01*
X35266238Y61704712D01*
X35313482Y61756188D01*
X35339194Y61767931D01*
X35460832Y61807453D01*
X35629199Y61893240D01*
X35782073Y62004310D01*
X35915690Y62137927D01*
X36026760Y62290801D01*
X36083314Y62401796D01*
X36131288Y62452591D01*
X36193799Y62469500D01*
X39559308Y62469500D01*
X39559309Y62469500D01*
X39649673Y62493714D01*
X39673887Y62500201D01*
X39758102Y62548824D01*
X39787999Y62561208D01*
X39834673Y62573714D01*
X39858887Y62580201D01*
X39961614Y62639511D01*
X40360489Y63038386D01*
X40419798Y63141113D01*
X40419799Y63141114D01*
X40440145Y63217051D01*
X40472237Y63272636D01*
X41462784Y64263181D01*
X41524107Y64296666D01*
X41550465Y64299500D01*
X54934308Y64299500D01*
X54934309Y64299500D01*
X55024673Y64323714D01*
X55048887Y64330201D01*
X55151614Y64389511D01*
X60110489Y69348386D01*
X60169799Y69451113D01*
X60183032Y69500500D01*
X60200500Y69565691D01*
X60200500Y71309309D01*
X60200500Y71309310D01*
X60200500Y71687046D01*
X60204725Y71719139D01*
X60210500Y71740691D01*
X60210500Y74106201D01*
X60230185Y74173240D01*
X60278205Y74216686D01*
X60282947Y74219102D01*
X60389199Y74273240D01*
X60542073Y74384310D01*
X60675690Y74517927D01*
X60786760Y74670801D01*
X60872547Y74839168D01*
X60912069Y74960805D01*
X60951507Y75018479D01*
X61015866Y75045677D01*
X61084712Y75033762D01*
X61136188Y74986518D01*
X61147931Y74960804D01*
X61187454Y74839164D01*
X61259754Y74697269D01*
X61273240Y74670801D01*
X61384310Y74517927D01*
X61517927Y74384310D01*
X61670801Y74273240D01*
X61747318Y74234253D01*
X61839163Y74187455D01*
X61839165Y74187455D01*
X61839168Y74187453D01*
X61917516Y74161996D01*
X62018881Y74129060D01*
X62205514Y74099500D01*
X62205519Y74099500D01*
X62394486Y74099500D01*
X62581118Y74129060D01*
X62627526Y74144139D01*
X62760832Y74187453D01*
X62929199Y74273240D01*
X63082073Y74384310D01*
X63215690Y74517927D01*
X63326760Y74670801D01*
X63412547Y74839168D01*
X63452069Y74960805D01*
X63491507Y75018479D01*
X63555866Y75045677D01*
X63624712Y75033762D01*
X63676188Y74986518D01*
X63687931Y74960804D01*
X63727454Y74839164D01*
X63799754Y74697269D01*
X63813240Y74670801D01*
X63924310Y74517927D01*
X64057927Y74384310D01*
X64210801Y74273240D01*
X64231792Y74262545D01*
X64282589Y74214572D01*
X64299500Y74152059D01*
X64299500Y73270808D01*
X64279815Y73203769D01*
X64263181Y73183127D01*
X64244726Y73164673D01*
X64244723Y73164669D01*
X64173538Y73058134D01*
X64173533Y73058125D01*
X64124499Y72939745D01*
X64124497Y72939739D01*
X64099500Y72814072D01*
X64099500Y72814069D01*
X64099500Y72685931D01*
X64099500Y72685929D01*
X64099499Y72685929D01*
X64124497Y72560262D01*
X64124499Y72560256D01*
X64173533Y72441876D01*
X64173538Y72441867D01*
X64244723Y72335332D01*
X64244726Y72335328D01*
X64335327Y72244727D01*
X64335331Y72244724D01*
X64441866Y72173539D01*
X64441872Y72173536D01*
X64441873Y72173535D01*
X64560256Y72124499D01*
X64560260Y72124499D01*
X64560261Y72124498D01*
X64685928Y72099500D01*
X64685931Y72099500D01*
X64814071Y72099500D01*
X64898615Y72116318D01*
X64939744Y72124499D01*
X65058127Y72173535D01*
X65164669Y72244724D01*
X65255276Y72335331D01*
X65326465Y72441873D01*
X65375501Y72560256D01*
X65400500Y72685931D01*
X65400500Y72814069D01*
X65400500Y72814072D01*
X65375502Y72939739D01*
X65375501Y72939740D01*
X65375501Y72939744D01*
X65331422Y73046160D01*
X65326466Y73058125D01*
X65326461Y73058134D01*
X65255276Y73164669D01*
X65255273Y73164673D01*
X65236819Y73183127D01*
X65203334Y73244450D01*
X65200500Y73270808D01*
X65200500Y74064763D01*
X65220185Y74131802D01*
X65272989Y74177557D01*
X65286173Y74182691D01*
X65300832Y74187453D01*
X65469199Y74273240D01*
X65622073Y74384310D01*
X65755690Y74517927D01*
X65866760Y74670801D01*
X65952547Y74839168D01*
X65992069Y74960805D01*
X66031507Y75018479D01*
X66095866Y75045677D01*
X66164712Y75033762D01*
X66216188Y74986518D01*
X66227931Y74960804D01*
X66267454Y74839164D01*
X66339754Y74697269D01*
X66353240Y74670801D01*
X66464310Y74517927D01*
X66597927Y74384310D01*
X66750801Y74273240D01*
X66827318Y74234253D01*
X66919163Y74187455D01*
X66919165Y74187455D01*
X66919168Y74187453D01*
X66997516Y74161996D01*
X67098881Y74129060D01*
X67285514Y74099500D01*
X67285519Y74099500D01*
X67474486Y74099500D01*
X67661118Y74129060D01*
X67707526Y74144139D01*
X67840832Y74187453D01*
X68009199Y74273240D01*
X68162073Y74384310D01*
X68295690Y74517927D01*
X68406760Y74670801D01*
X68492547Y74839168D01*
X68532069Y74960805D01*
X68571507Y75018479D01*
X68635866Y75045677D01*
X68704712Y75033762D01*
X68756188Y74986518D01*
X68767931Y74960804D01*
X68807454Y74839164D01*
X68879754Y74697269D01*
X68893240Y74670801D01*
X69004310Y74517927D01*
X69137927Y74384310D01*
X69290801Y74273240D01*
X69459168Y74187453D01*
X69592475Y74144139D01*
X69650151Y74104701D01*
X69677349Y74040343D01*
X69665434Y73971496D01*
X69618190Y73920021D01*
X69578353Y73904592D01*
X69552973Y73899543D01*
X69552959Y73899539D01*
X69430038Y73848624D01*
X69430020Y73848614D01*
X69319398Y73774699D01*
X69319390Y73774693D01*
X69225307Y73680610D01*
X69225301Y73680602D01*
X69151386Y73569980D01*
X69151376Y73569962D01*
X69100461Y73447041D01*
X69100458Y73447031D01*
X69074500Y73316534D01*
X69074500Y73316531D01*
X69074500Y68933469D01*
X69074500Y68933467D01*
X69074499Y68933467D01*
X69100458Y68802970D01*
X69100461Y68802960D01*
X69151376Y68680039D01*
X69151386Y68680021D01*
X69225301Y68569399D01*
X69225307Y68569391D01*
X69319390Y68475308D01*
X69319398Y68475302D01*
X69430020Y68401387D01*
X69430023Y68401386D01*
X69430031Y68401380D01*
X69552964Y68350460D01*
X69552968Y68350460D01*
X69552969Y68350459D01*
X69683466Y68324500D01*
X69683469Y68324500D01*
X69816533Y68324500D01*
X69904325Y68341965D01*
X69947036Y68350460D01*
X70069969Y68401380D01*
X70180606Y68475305D01*
X70274695Y68569394D01*
X70348620Y68680031D01*
X70399540Y68802964D01*
X70408035Y68845675D01*
X70425500Y68933467D01*
X70425500Y73316534D01*
X70399541Y73447031D01*
X70399540Y73447032D01*
X70399540Y73447036D01*
X70348620Y73569969D01*
X70274695Y73680606D01*
X70274692Y73680610D01*
X70180609Y73774693D01*
X70180601Y73774699D01*
X70069979Y73848614D01*
X70069973Y73848618D01*
X70069969Y73848620D01*
X70022679Y73868208D01*
X69968276Y73912050D01*
X69946212Y73978344D01*
X69963492Y74046043D01*
X70014629Y74093653D01*
X70050735Y74105242D01*
X70056790Y74106201D01*
X70201118Y74129060D01*
X70380832Y74187453D01*
X70549199Y74273240D01*
X70702073Y74384310D01*
X70835690Y74517927D01*
X70946760Y74670801D01*
X71032547Y74839168D01*
X71072069Y74960805D01*
X71111507Y75018479D01*
X71175866Y75045677D01*
X71244712Y75033762D01*
X71296188Y74986518D01*
X71307931Y74960804D01*
X71347454Y74839164D01*
X71419754Y74697269D01*
X71433240Y74670801D01*
X71544310Y74517927D01*
X71677927Y74384310D01*
X71830801Y74273240D01*
X71907318Y74234253D01*
X71999163Y74187455D01*
X71999165Y74187455D01*
X71999168Y74187453D01*
X72077516Y74161996D01*
X72178881Y74129060D01*
X72365514Y74099500D01*
X72365519Y74099500D01*
X72554486Y74099500D01*
X72741118Y74129060D01*
X72787526Y74144139D01*
X72920832Y74187453D01*
X73089199Y74273240D01*
X73242073Y74384310D01*
X73375690Y74517927D01*
X73486760Y74670801D01*
X73572547Y74839168D01*
X73630940Y75018882D01*
X73633297Y75033762D01*
X73660500Y75205514D01*
X73660500Y75394487D01*
X73630940Y75581119D01*
X73572545Y75760837D01*
X73527290Y75849653D01*
X73486760Y75929199D01*
X73375690Y76082073D01*
X73242073Y76215690D01*
X73089199Y76326760D01*
X73042968Y76350316D01*
X72920836Y76412546D01*
X72741118Y76470941D01*
X72554486Y76500500D01*
X72554481Y76500500D01*
X72365519Y76500500D01*
X72365514Y76500500D01*
X72178881Y76470941D01*
X71999163Y76412546D01*
X71830800Y76326760D01*
X71785975Y76294192D01*
X71677927Y76215690D01*
X71677925Y76215688D01*
X71677924Y76215688D01*
X71544312Y76082076D01*
X71544312Y76082075D01*
X71544310Y76082073D01*
X71520644Y76049500D01*
X71433240Y75929200D01*
X71347454Y75760837D01*
X71307931Y75639197D01*
X71268493Y75581522D01*
X71204134Y75554324D01*
X71135288Y75566239D01*
X71083812Y75613484D01*
X71072069Y75639197D01*
X71032545Y75760837D01*
X70987290Y75849653D01*
X70946760Y75929199D01*
X70835690Y76082073D01*
X70702073Y76215690D01*
X70549199Y76326760D01*
X70502968Y76350316D01*
X70380836Y76412546D01*
X70201118Y76470941D01*
X70014486Y76500500D01*
X70014481Y76500500D01*
X69825519Y76500500D01*
X69825514Y76500500D01*
X69638881Y76470941D01*
X69459163Y76412546D01*
X69290800Y76326760D01*
X69245975Y76294192D01*
X69137927Y76215690D01*
X69137925Y76215688D01*
X69137924Y76215688D01*
X69004312Y76082076D01*
X69004312Y76082075D01*
X69004310Y76082073D01*
X68980644Y76049500D01*
X68893240Y75929200D01*
X68807454Y75760837D01*
X68767931Y75639197D01*
X68728493Y75581522D01*
X68664134Y75554324D01*
X68595288Y75566239D01*
X68543812Y75613484D01*
X68532069Y75639197D01*
X68492545Y75760837D01*
X68447290Y75849653D01*
X68406760Y75929199D01*
X68295690Y76082073D01*
X68162073Y76215690D01*
X68009199Y76326760D01*
X67962968Y76350316D01*
X67840836Y76412546D01*
X67661118Y76470941D01*
X67474486Y76500500D01*
X67474481Y76500500D01*
X67285519Y76500500D01*
X67285518Y76500500D01*
X67273319Y76498568D01*
X67204026Y76507524D01*
X67166242Y76533361D01*
X66861784Y76837819D01*
X66828299Y76899142D01*
X66833283Y76968834D01*
X66875155Y77024767D01*
X66940619Y77049184D01*
X66949465Y77049500D01*
X74902660Y77049500D01*
X74969699Y77029815D01*
X74990341Y77013181D01*
X75441841Y76561681D01*
X75475326Y76500358D01*
X75470342Y76430666D01*
X75428470Y76374733D01*
X75363006Y76350316D01*
X75354160Y76350000D01*
X75125000Y76350000D01*
X75125000Y75784145D01*
X75065826Y75800000D01*
X74934174Y75800000D01*
X74875000Y75784145D01*
X74875000Y76350000D01*
X74130297Y76350000D01*
X74071966Y76338398D01*
X74071965Y76338397D01*
X74005808Y76294192D01*
X73961603Y76228035D01*
X73961602Y76228034D01*
X73950000Y76169703D01*
X73950000Y75425000D01*
X74515856Y75425000D01*
X74500000Y75365826D01*
X74500000Y75234174D01*
X74515856Y75175000D01*
X73950000Y75175000D01*
X73950000Y74430298D01*
X73961602Y74371967D01*
X73961603Y74371966D01*
X74005808Y74305809D01*
X74071965Y74261604D01*
X74071966Y74261603D01*
X74130297Y74250001D01*
X74130301Y74250000D01*
X74875000Y74250000D01*
X74875000Y74815856D01*
X74934174Y74800000D01*
X75065826Y74800000D01*
X75125000Y74815856D01*
X75125000Y74250000D01*
X75869698Y74250000D01*
X75901307Y74256288D01*
X75970898Y74250062D01*
X76026076Y74207200D01*
X76049322Y74141310D01*
X76049500Y74134671D01*
X76049500Y73343433D01*
X76029815Y73276394D01*
X76013181Y73255752D01*
X67244248Y64486819D01*
X67182925Y64453334D01*
X67156567Y64450500D01*
X64174090Y64450500D01*
X64083724Y64426287D01*
X64083723Y64426288D01*
X64059515Y64419801D01*
X64059512Y64419800D01*
X63956785Y64360489D01*
X63956782Y64360487D01*
X58389513Y58793218D01*
X58389511Y58793215D01*
X58330200Y58690488D01*
X58330199Y58690485D01*
X58323712Y58666277D01*
X58323713Y58666276D01*
X58299500Y58575910D01*
X58299500Y39612965D01*
X58279815Y39545926D01*
X58263181Y39525284D01*
X49974716Y31236819D01*
X49913393Y31203334D01*
X49887035Y31200500D01*
X48257625Y31200500D01*
X48190586Y31220185D01*
X48144831Y31272989D01*
X48134887Y31342147D01*
X48163912Y31405703D01*
X48169944Y31412181D01*
X48225690Y31467927D01*
X48336760Y31620801D01*
X48422547Y31789168D01*
X48480940Y31968882D01*
X48496700Y32068387D01*
X48510500Y32155514D01*
X48510500Y32344487D01*
X48480940Y32531119D01*
X48443077Y32647648D01*
X48422547Y32710832D01*
X48422545Y32710835D01*
X48422545Y32710837D01*
X48336759Y32879200D01*
X48225690Y33032073D01*
X48092073Y33165690D01*
X47939199Y33276760D01*
X47897715Y33297897D01*
X47785615Y33355015D01*
X47734819Y33402990D01*
X47718024Y33470811D01*
X47740561Y33536946D01*
X47795277Y33580397D01*
X47841910Y33589500D01*
X48193261Y33589500D01*
X48215971Y33592809D01*
X48261393Y33599427D01*
X48366483Y33650802D01*
X48449198Y33733517D01*
X48500573Y33838607D01*
X48510500Y33906740D01*
X48510500Y35673260D01*
X48500573Y35741393D01*
X48449198Y35846483D01*
X48449196Y35846485D01*
X48449196Y35846486D01*
X48366485Y35929197D01*
X48261391Y35980574D01*
X48193261Y35990500D01*
X48193260Y35990500D01*
X48049500Y35990500D01*
X47982461Y36010185D01*
X47936706Y36062989D01*
X47925500Y36114500D01*
X47925500Y53450087D01*
X47945185Y53517126D01*
X47961819Y53537768D01*
X52462232Y58038181D01*
X52523555Y58071666D01*
X52549913Y58074500D01*
X53941532Y58074500D01*
X53941533Y58074501D01*
X54072036Y58100459D01*
X54194969Y58151380D01*
X54305606Y58225305D01*
X57774695Y61694394D01*
X57796366Y61726827D01*
X57848620Y61805031D01*
X57863534Y61841038D01*
X57899541Y61927964D01*
X57925500Y62058469D01*
X57925500Y62191531D01*
X57925500Y63316531D01*
X57925500Y63316534D01*
X57899541Y63447031D01*
X57899540Y63447032D01*
X57899540Y63447036D01*
X57857223Y63549200D01*
X57848623Y63569962D01*
X57848622Y63569963D01*
X57848620Y63569969D01*
X57841783Y63580201D01*
X57774698Y63680602D01*
X57774692Y63680610D01*
X57680609Y63774693D01*
X57680601Y63774699D01*
X57569979Y63848614D01*
X57569972Y63848618D01*
X57569969Y63848620D01*
X57569965Y63848622D01*
X57569961Y63848624D01*
X57447040Y63899539D01*
X57447030Y63899542D01*
X57316533Y63925500D01*
X57316531Y63925500D01*
X57183469Y63925500D01*
X57183467Y63925500D01*
X57052969Y63899542D01*
X57052959Y63899539D01*
X56930038Y63848624D01*
X56930020Y63848614D01*
X56819398Y63774699D01*
X56819390Y63774693D01*
X56725307Y63680610D01*
X56725301Y63680602D01*
X56651386Y63569980D01*
X56651376Y63569962D01*
X56600461Y63447041D01*
X56600458Y63447031D01*
X56574500Y63316534D01*
X56574500Y62456163D01*
X56554815Y62389124D01*
X56538181Y62368482D01*
X53631518Y59461819D01*
X53570195Y59428334D01*
X53543837Y59425500D01*
X52152214Y59425500D01*
X52021721Y59399544D01*
X52021717Y59399542D01*
X52021715Y59399542D01*
X52021714Y59399541D01*
X51978250Y59381538D01*
X51934784Y59363534D01*
X51934783Y59363535D01*
X51898784Y59348622D01*
X51898781Y59348621D01*
X51898781Y59348620D01*
X51799004Y59281951D01*
X51793601Y59278341D01*
X51788143Y59274695D01*
X51788138Y59274691D01*
X46725307Y54211860D01*
X46725304Y54211856D01*
X46651383Y54101226D01*
X46651378Y54101216D01*
X46600459Y53978287D01*
X46600457Y53978279D01*
X46580477Y53877830D01*
X46580477Y53877828D01*
X46574500Y53847783D01*
X46574500Y36114500D01*
X46554815Y36047461D01*
X46502011Y36001706D01*
X46450500Y35990500D01*
X46426739Y35990500D01*
X46358608Y35980574D01*
X46253514Y35929197D01*
X46170803Y35846486D01*
X46119426Y35741392D01*
X46109500Y35673261D01*
X46109500Y35549500D01*
X46089815Y35482461D01*
X46037011Y35436706D01*
X45985500Y35425500D01*
X45495967Y35425500D01*
X45365469Y35399542D01*
X45365459Y35399539D01*
X45242538Y35348624D01*
X45242525Y35348617D01*
X45132583Y35275157D01*
X45132567Y35275145D01*
X45132339Y35274993D01*
X45131890Y35274693D01*
X42975307Y33118110D01*
X42975304Y33118106D01*
X42901383Y33007476D01*
X42901378Y33007466D01*
X42850459Y32884537D01*
X42850457Y32884529D01*
X42833535Y32799456D01*
X42824500Y32754036D01*
X42824500Y32754031D01*
X42824500Y31933469D01*
X42824500Y31933467D01*
X42824499Y31933467D01*
X42850458Y31802970D01*
X42850461Y31802960D01*
X42901376Y31680039D01*
X42901386Y31680021D01*
X42975301Y31569399D01*
X42975307Y31569391D01*
X43069390Y31475308D01*
X43069398Y31475302D01*
X43180020Y31401387D01*
X43180023Y31401386D01*
X43180031Y31401380D01*
X43302964Y31350460D01*
X43302968Y31350460D01*
X43302969Y31350459D01*
X43433466Y31324500D01*
X43433469Y31324500D01*
X43566533Y31324500D01*
X43655245Y31342147D01*
X43697036Y31350460D01*
X43819969Y31401380D01*
X43930606Y31475305D01*
X44024695Y31569394D01*
X44098620Y31680031D01*
X44149540Y31802964D01*
X44166809Y31889779D01*
X44175500Y31933467D01*
X44175500Y32356337D01*
X44195185Y32423376D01*
X44211819Y32444018D01*
X45805982Y34038181D01*
X45867305Y34071666D01*
X45893663Y34074500D01*
X45985500Y34074500D01*
X46052539Y34054815D01*
X46098294Y34002011D01*
X46109500Y33950500D01*
X46109500Y33906740D01*
X46119426Y33838609D01*
X46119427Y33838607D01*
X46150998Y33774026D01*
X46170803Y33733515D01*
X46253514Y33650804D01*
X46253515Y33650804D01*
X46253517Y33650802D01*
X46358607Y33599427D01*
X46373796Y33597214D01*
X46426739Y33589500D01*
X46778090Y33589500D01*
X46845129Y33569815D01*
X46890884Y33517011D01*
X46900828Y33447853D01*
X46871803Y33384297D01*
X46834385Y33355015D01*
X46680800Y33276760D01*
X46642901Y33249224D01*
X46527927Y33165690D01*
X46527925Y33165688D01*
X46527924Y33165688D01*
X46394312Y33032076D01*
X46394312Y33032075D01*
X46394310Y33032073D01*
X46376439Y33007476D01*
X46283240Y32879200D01*
X46197454Y32710837D01*
X46139059Y32531119D01*
X46109500Y32344487D01*
X46109500Y32155514D01*
X46139059Y31968882D01*
X46197454Y31789164D01*
X46253061Y31680031D01*
X46283240Y31620801D01*
X46394310Y31467927D01*
X46527927Y31334310D01*
X46680801Y31223240D01*
X46709053Y31208845D01*
X46849163Y31137455D01*
X46849165Y31137455D01*
X46849168Y31137453D01*
X46932154Y31110489D01*
X46970803Y31097931D01*
X47028478Y31058493D01*
X47055676Y30994134D01*
X47043761Y30925288D01*
X46996516Y30873812D01*
X46970803Y30862069D01*
X46849163Y30822546D01*
X46680800Y30736760D01*
X46633101Y30702104D01*
X46527927Y30625690D01*
X46527925Y30625688D01*
X46527924Y30625688D01*
X46394312Y30492076D01*
X46394312Y30492075D01*
X46394310Y30492073D01*
X46355919Y30439232D01*
X46283240Y30339200D01*
X46197454Y30170837D01*
X46139059Y29991119D01*
X46109500Y29804487D01*
X46109500Y29615514D01*
X46139059Y29428882D01*
X46197454Y29249164D01*
X46226649Y29191867D01*
X46283240Y29080801D01*
X46394310Y28927927D01*
X46527927Y28794310D01*
X46680801Y28683240D01*
X46757318Y28644253D01*
X46849163Y28597455D01*
X46849165Y28597455D01*
X46849168Y28597453D01*
X46945497Y28566154D01*
X47028881Y28539060D01*
X47215514Y28509500D01*
X47215519Y28509500D01*
X47404486Y28509500D01*
X47591118Y28539060D01*
X47770832Y28597453D01*
X47939199Y28683240D01*
X48092073Y28794310D01*
X48225690Y28927927D01*
X48336760Y29080801D01*
X48422547Y29249168D01*
X48480940Y29428882D01*
X48492204Y29500001D01*
X48510500Y29615514D01*
X48510500Y29804487D01*
X48480940Y29991119D01*
X48468788Y30028515D01*
X48433479Y30137185D01*
X48431484Y30207022D01*
X48467564Y30266855D01*
X48530265Y30297684D01*
X48551411Y30299500D01*
X50184308Y30299500D01*
X50184309Y30299500D01*
X50274673Y30323714D01*
X50298887Y30330201D01*
X50401614Y30389511D01*
X50656325Y30644222D01*
X62049500Y30644222D01*
X62049500Y30355779D01*
X62049501Y30355762D01*
X62087149Y30069794D01*
X62087150Y30069789D01*
X62087151Y30069783D01*
X62159303Y29800507D01*
X62161809Y29791156D01*
X62161814Y29791140D01*
X62272191Y29524664D01*
X62272199Y29524648D01*
X62416420Y29274852D01*
X62416431Y29274836D01*
X62592024Y29045998D01*
X62592030Y29045991D01*
X62795990Y28842031D01*
X62795997Y28842025D01*
X62958953Y28716985D01*
X63024844Y28666425D01*
X63024851Y28666421D01*
X63274647Y28522200D01*
X63274663Y28522192D01*
X63541139Y28411815D01*
X63541145Y28411814D01*
X63541155Y28411809D01*
X63819783Y28337151D01*
X64105772Y28299500D01*
X64105779Y28299500D01*
X64394221Y28299500D01*
X64394228Y28299500D01*
X64680217Y28337151D01*
X64958845Y28411809D01*
X64958857Y28411815D01*
X64958860Y28411815D01*
X65225336Y28522192D01*
X65225339Y28522194D01*
X65225345Y28522196D01*
X65475156Y28666425D01*
X65704004Y28842026D01*
X65907974Y29045996D01*
X66083575Y29274844D01*
X66227804Y29524655D01*
X66244858Y29565826D01*
X66338185Y29791140D01*
X66338185Y29791143D01*
X66338191Y29791155D01*
X66412849Y30069783D01*
X66450500Y30355772D01*
X66450500Y30644222D01*
X81099500Y30644222D01*
X81099500Y30355779D01*
X81099501Y30355762D01*
X81137149Y30069794D01*
X81137150Y30069789D01*
X81137151Y30069783D01*
X81209303Y29800507D01*
X81211809Y29791156D01*
X81211814Y29791140D01*
X81322191Y29524664D01*
X81322199Y29524648D01*
X81466420Y29274852D01*
X81466431Y29274836D01*
X81642024Y29045998D01*
X81642030Y29045991D01*
X81845990Y28842031D01*
X81845997Y28842025D01*
X82008953Y28716985D01*
X82074844Y28666425D01*
X82074851Y28666421D01*
X82324647Y28522200D01*
X82324663Y28522192D01*
X82591139Y28411815D01*
X82591145Y28411814D01*
X82591155Y28411809D01*
X82869783Y28337151D01*
X83155772Y28299500D01*
X83155779Y28299500D01*
X83444221Y28299500D01*
X83444228Y28299500D01*
X83730217Y28337151D01*
X84008845Y28411809D01*
X84008857Y28411815D01*
X84008860Y28411815D01*
X84275336Y28522192D01*
X84275339Y28522194D01*
X84275345Y28522196D01*
X84525156Y28666425D01*
X84754004Y28842026D01*
X84957974Y29045996D01*
X85133575Y29274844D01*
X85277804Y29524655D01*
X85294858Y29565826D01*
X85388185Y29791140D01*
X85388185Y29791143D01*
X85388191Y29791155D01*
X85462849Y30069783D01*
X85500500Y30355772D01*
X85500500Y30644228D01*
X85462849Y30930217D01*
X85388191Y31208845D01*
X85388186Y31208855D01*
X85388185Y31208861D01*
X85277808Y31475337D01*
X85277800Y31475353D01*
X85133579Y31725149D01*
X85133575Y31725156D01*
X84957974Y31954004D01*
X84957969Y31954010D01*
X84754009Y32157970D01*
X84754002Y32157976D01*
X84525164Y32333569D01*
X84525162Y32333571D01*
X84525156Y32333575D01*
X84525151Y32333578D01*
X84525148Y32333580D01*
X84275352Y32477801D01*
X84275336Y32477809D01*
X84008860Y32588186D01*
X84008848Y32588190D01*
X84008845Y32588191D01*
X83730217Y32662849D01*
X83730211Y32662850D01*
X83730206Y32662851D01*
X83444238Y32700499D01*
X83444233Y32700500D01*
X83444228Y32700500D01*
X83155772Y32700500D01*
X83155766Y32700500D01*
X83155761Y32700499D01*
X82869793Y32662851D01*
X82869786Y32662850D01*
X82869783Y32662849D01*
X82591155Y32588191D01*
X82591139Y32588186D01*
X82324663Y32477809D01*
X82324647Y32477801D01*
X82074851Y32333580D01*
X82074835Y32333569D01*
X81845997Y32157976D01*
X81845990Y32157970D01*
X81642030Y31954010D01*
X81642024Y31954003D01*
X81466431Y31725165D01*
X81466420Y31725149D01*
X81322199Y31475353D01*
X81322191Y31475337D01*
X81211814Y31208861D01*
X81211809Y31208845D01*
X81154278Y30994134D01*
X81137152Y30930220D01*
X81137149Y30930207D01*
X81099501Y30644239D01*
X81099500Y30644222D01*
X66450500Y30644222D01*
X66450500Y30644228D01*
X66412849Y30930217D01*
X66338191Y31208845D01*
X66338186Y31208855D01*
X66338185Y31208861D01*
X66227808Y31475337D01*
X66227800Y31475353D01*
X66083579Y31725149D01*
X66083575Y31725156D01*
X65907974Y31954004D01*
X65907969Y31954010D01*
X65704009Y32157970D01*
X65704002Y32157976D01*
X65475164Y32333569D01*
X65475162Y32333571D01*
X65475156Y32333575D01*
X65475151Y32333578D01*
X65475148Y32333580D01*
X65225352Y32477801D01*
X65225336Y32477809D01*
X64958860Y32588186D01*
X64958848Y32588190D01*
X64958845Y32588191D01*
X64680217Y32662849D01*
X64680211Y32662850D01*
X64680206Y32662851D01*
X64394238Y32700499D01*
X64394233Y32700500D01*
X64394228Y32700500D01*
X64105772Y32700500D01*
X64105766Y32700500D01*
X64105761Y32700499D01*
X63819793Y32662851D01*
X63819786Y32662850D01*
X63819783Y32662849D01*
X63541155Y32588191D01*
X63541139Y32588186D01*
X63274663Y32477809D01*
X63274647Y32477801D01*
X63024851Y32333580D01*
X63024835Y32333569D01*
X62795997Y32157976D01*
X62795990Y32157970D01*
X62592030Y31954010D01*
X62592024Y31954003D01*
X62416431Y31725165D01*
X62416420Y31725149D01*
X62272199Y31475353D01*
X62272191Y31475337D01*
X62161814Y31208861D01*
X62161809Y31208845D01*
X62104278Y30994134D01*
X62087152Y30930220D01*
X62087149Y30930207D01*
X62049501Y30644239D01*
X62049500Y30644222D01*
X50656325Y30644222D01*
X59110489Y39098386D01*
X59169799Y39201113D01*
X59179250Y39236387D01*
X59200500Y39315691D01*
X59200500Y58278636D01*
X59220185Y58345675D01*
X59236819Y58366317D01*
X59837819Y58967317D01*
X59899142Y59000802D01*
X59968834Y58995818D01*
X60024767Y58953946D01*
X60049184Y58888482D01*
X60049500Y58879636D01*
X60049500Y34475784D01*
X60029815Y34408745D01*
X59977011Y34362990D01*
X59963818Y34357853D01*
X59902396Y34337897D01*
X59902393Y34337896D01*
X59705974Y34237813D01*
X59527641Y34108248D01*
X59527636Y34108244D01*
X59371756Y33952364D01*
X59371752Y33952359D01*
X59242187Y33774026D01*
X59142104Y33577607D01*
X59142103Y33577604D01*
X59073985Y33367953D01*
X59047038Y33197815D01*
X59039500Y33150222D01*
X59039500Y32929778D01*
X59046666Y32884536D01*
X59073985Y32712048D01*
X59142103Y32502397D01*
X59142104Y32502394D01*
X59171849Y32444018D01*
X59228123Y32333575D01*
X59242187Y32305975D01*
X59371752Y32127642D01*
X59371756Y32127637D01*
X59527636Y31971757D01*
X59527641Y31971753D01*
X59640470Y31889779D01*
X59705978Y31842185D01*
X59834375Y31776763D01*
X59902393Y31742105D01*
X59902396Y31742104D01*
X59987078Y31714590D01*
X60112049Y31673985D01*
X60329778Y31639500D01*
X60329779Y31639500D01*
X60550221Y31639500D01*
X60550222Y31639500D01*
X60767951Y31673985D01*
X60977606Y31742105D01*
X61174022Y31842185D01*
X61352365Y31971758D01*
X61508242Y32127635D01*
X61637815Y32305978D01*
X61737895Y32502394D01*
X61806015Y32712049D01*
X61840500Y32929778D01*
X61840500Y33150222D01*
X78089500Y33150222D01*
X78089500Y32929778D01*
X78096666Y32884536D01*
X78123985Y32712048D01*
X78192103Y32502397D01*
X78192104Y32502394D01*
X78221849Y32444018D01*
X78278123Y32333575D01*
X78292187Y32305975D01*
X78421752Y32127642D01*
X78421756Y32127637D01*
X78577636Y31971757D01*
X78577641Y31971753D01*
X78690470Y31889779D01*
X78755978Y31842185D01*
X78884375Y31776763D01*
X78952393Y31742105D01*
X78952396Y31742104D01*
X79037078Y31714590D01*
X79162049Y31673985D01*
X79379778Y31639500D01*
X79379779Y31639500D01*
X79600221Y31639500D01*
X79600222Y31639500D01*
X79817951Y31673985D01*
X80027606Y31742105D01*
X80224022Y31842185D01*
X80402365Y31971758D01*
X80558242Y32127635D01*
X80687815Y32305978D01*
X80787895Y32502394D01*
X80856015Y32712049D01*
X80890500Y32929778D01*
X80890500Y33150222D01*
X80856015Y33367951D01*
X80801106Y33536946D01*
X80787896Y33577604D01*
X80787895Y33577607D01*
X80750598Y33650804D01*
X80687815Y33774022D01*
X80623498Y33862547D01*
X80558247Y33952359D01*
X80558243Y33952364D01*
X80402363Y34108244D01*
X80402358Y34108248D01*
X80224025Y34237813D01*
X80224024Y34237814D01*
X80224022Y34237815D01*
X80161096Y34269878D01*
X80027606Y34337896D01*
X80027603Y34337897D01*
X79817952Y34406015D01*
X79640314Y34434150D01*
X79600222Y34440500D01*
X79379778Y34440500D01*
X79339686Y34434150D01*
X79162047Y34406015D01*
X78952396Y34337897D01*
X78952393Y34337896D01*
X78755974Y34237813D01*
X78577641Y34108248D01*
X78577636Y34108244D01*
X78421756Y33952364D01*
X78421752Y33952359D01*
X78292187Y33774026D01*
X78192104Y33577607D01*
X78192103Y33577604D01*
X78123985Y33367953D01*
X78097038Y33197815D01*
X78089500Y33150222D01*
X61840500Y33150222D01*
X61806015Y33367951D01*
X61751106Y33536946D01*
X61737896Y33577604D01*
X61737895Y33577607D01*
X61700598Y33650804D01*
X61637815Y33774022D01*
X61573498Y33862547D01*
X61508247Y33952359D01*
X61508243Y33952364D01*
X61352363Y34108244D01*
X61352358Y34108248D01*
X61174023Y34237815D01*
X61018204Y34317210D01*
X61007140Y34327659D01*
X60993297Y34333981D01*
X60982255Y34351162D01*
X60967409Y34365184D01*
X60963167Y34380864D01*
X60955523Y34392759D01*
X60950500Y34427694D01*
X60950500Y35686247D01*
X65440000Y35686247D01*
X65440000Y35473754D01*
X65473242Y35263873D01*
X65473242Y35263870D01*
X65538904Y35061783D01*
X65635377Y34872446D01*
X65719362Y34756852D01*
X65719363Y34756851D01*
X66150150Y35187639D01*
X66207437Y35101903D01*
X66311903Y34997437D01*
X66397637Y34940152D01*
X65966849Y34509364D01*
X66082445Y34425378D01*
X66271782Y34328905D01*
X66473870Y34263243D01*
X66683754Y34230000D01*
X66896246Y34230000D01*
X67106127Y34263243D01*
X67106130Y34263243D01*
X67308217Y34328905D01*
X67497546Y34425374D01*
X67497552Y34425378D01*
X67613148Y34509364D01*
X67613149Y34509364D01*
X67182361Y34940151D01*
X67268097Y34997437D01*
X67372563Y35101903D01*
X67429849Y35187638D01*
X67860636Y34756851D01*
X67860636Y34756852D01*
X67944622Y34872448D01*
X67944626Y34872454D01*
X68041095Y35061783D01*
X68106757Y35263870D01*
X68106757Y35263873D01*
X68140000Y35473754D01*
X68140000Y35686247D01*
X84490000Y35686247D01*
X84490000Y35473754D01*
X84523242Y35263873D01*
X84523242Y35263870D01*
X84588904Y35061783D01*
X84685377Y34872446D01*
X84769362Y34756852D01*
X84769363Y34756851D01*
X85200150Y35187639D01*
X85257437Y35101903D01*
X85361903Y34997437D01*
X85447637Y34940152D01*
X85016849Y34509364D01*
X85132445Y34425378D01*
X85321782Y34328905D01*
X85523870Y34263243D01*
X85733754Y34230000D01*
X85946246Y34230000D01*
X86156127Y34263243D01*
X86156130Y34263243D01*
X86358217Y34328905D01*
X86547546Y34425374D01*
X86547552Y34425378D01*
X86663148Y34509364D01*
X86663149Y34509364D01*
X86232361Y34940151D01*
X86318097Y34997437D01*
X86422563Y35101903D01*
X86479849Y35187638D01*
X86910636Y34756851D01*
X86910636Y34756852D01*
X86994622Y34872448D01*
X86994626Y34872454D01*
X87091095Y35061783D01*
X87156757Y35263870D01*
X87156757Y35263873D01*
X87190000Y35473754D01*
X87190000Y35686247D01*
X87156757Y35896128D01*
X87156757Y35896131D01*
X87091095Y36098218D01*
X86994622Y36287555D01*
X86910636Y36403150D01*
X86910636Y36403151D01*
X86479848Y35972363D01*
X86422563Y36058097D01*
X86318097Y36162563D01*
X86232361Y36219850D01*
X86663149Y36650637D01*
X86663148Y36650638D01*
X86547554Y36734623D01*
X86358217Y36831096D01*
X86156129Y36896758D01*
X85946246Y36930000D01*
X85733754Y36930000D01*
X85523872Y36896758D01*
X85523869Y36896758D01*
X85321782Y36831096D01*
X85132442Y36734621D01*
X85016850Y36650639D01*
X85016849Y36650638D01*
X85447638Y36219850D01*
X85361903Y36162563D01*
X85257437Y36058097D01*
X85200150Y35972363D01*
X84769362Y36403151D01*
X84769361Y36403150D01*
X84685379Y36287558D01*
X84588904Y36098218D01*
X84523242Y35896131D01*
X84523242Y35896128D01*
X84490000Y35686247D01*
X68140000Y35686247D01*
X68106757Y35896128D01*
X68106757Y35896131D01*
X68041095Y36098218D01*
X67944622Y36287555D01*
X67860636Y36403150D01*
X67860636Y36403151D01*
X67429848Y35972363D01*
X67372563Y36058097D01*
X67268097Y36162563D01*
X67182361Y36219850D01*
X67613149Y36650637D01*
X67613148Y36650638D01*
X67497554Y36734623D01*
X67308217Y36831096D01*
X67106129Y36896758D01*
X66896246Y36930000D01*
X66683754Y36930000D01*
X66473872Y36896758D01*
X66473869Y36896758D01*
X66271782Y36831096D01*
X66082442Y36734621D01*
X65966850Y36650639D01*
X65966849Y36650638D01*
X66397638Y36219850D01*
X66311903Y36162563D01*
X66207437Y36058097D01*
X66150150Y35972363D01*
X65719362Y36403151D01*
X65719361Y36403150D01*
X65635379Y36287558D01*
X65538904Y36098218D01*
X65473242Y35896131D01*
X65473242Y35896128D01*
X65440000Y35686247D01*
X60950500Y35686247D01*
X60950500Y56100017D01*
X81199500Y56100017D01*
X81199500Y53899999D01*
X81199501Y53899982D01*
X81210000Y53797204D01*
X81210001Y53797201D01*
X81250137Y53676080D01*
X81265186Y53630666D01*
X81357288Y53481344D01*
X81481344Y53357288D01*
X81630666Y53265186D01*
X81797203Y53210001D01*
X81899991Y53199500D01*
X84100008Y53199501D01*
X84202797Y53210001D01*
X84369334Y53265186D01*
X84518656Y53357288D01*
X84642712Y53481344D01*
X84734814Y53630666D01*
X84789999Y53797203D01*
X84800500Y53899991D01*
X84800499Y56100008D01*
X84789999Y56202797D01*
X84734814Y56369334D01*
X84642712Y56518656D01*
X84518656Y56642712D01*
X84382283Y56726827D01*
X84369336Y56734813D01*
X84369331Y56734815D01*
X84367862Y56735302D01*
X84202797Y56789999D01*
X84202795Y56790000D01*
X84100010Y56800500D01*
X81899998Y56800500D01*
X81899981Y56800499D01*
X81797203Y56790000D01*
X81797200Y56789999D01*
X81630668Y56734815D01*
X81630663Y56734813D01*
X81481342Y56642711D01*
X81357289Y56518658D01*
X81265187Y56369337D01*
X81265186Y56369334D01*
X81210001Y56202797D01*
X81210001Y56202796D01*
X81210000Y56202796D01*
X81199500Y56100017D01*
X60950500Y56100017D01*
X60950500Y59324536D01*
X60970185Y59391575D01*
X60986815Y59412213D01*
X61181691Y59607090D01*
X61243012Y59640573D01*
X61312703Y59635589D01*
X61368637Y59593718D01*
X61372472Y59588298D01*
X61417048Y59521584D01*
X61521580Y59417052D01*
X61521584Y59417049D01*
X61644498Y59334920D01*
X61644511Y59334913D01*
X61717448Y59304702D01*
X61781087Y59278342D01*
X61781091Y59278342D01*
X61781092Y59278341D01*
X61926079Y59249500D01*
X61926082Y59249500D01*
X81328860Y59249500D01*
X81395899Y59229815D01*
X81436247Y59187500D01*
X81499726Y59077551D01*
X81643406Y58890303D01*
X81643412Y58890296D01*
X81810295Y58723413D01*
X81810301Y58723408D01*
X81997550Y58579727D01*
X82128918Y58503882D01*
X82201943Y58461720D01*
X82201948Y58461718D01*
X82201951Y58461716D01*
X82420007Y58371394D01*
X82647986Y58310307D01*
X82881989Y58279500D01*
X82881996Y58279500D01*
X83118004Y58279500D01*
X83118011Y58279500D01*
X83352014Y58310307D01*
X83579993Y58371394D01*
X83798049Y58461716D01*
X84002450Y58579727D01*
X84189699Y58723408D01*
X84356592Y58890301D01*
X84500273Y59077550D01*
X84616200Y59278342D01*
X84618280Y59281944D01*
X84618280Y59281945D01*
X84618284Y59281951D01*
X84708606Y59500007D01*
X84769693Y59727986D01*
X84800500Y59961989D01*
X84800500Y60198011D01*
X84769693Y60432014D01*
X84708606Y60659993D01*
X84618284Y60878049D01*
X84618282Y60878052D01*
X84618280Y60878057D01*
X84542564Y61009199D01*
X84500273Y61082450D01*
X84356592Y61269699D01*
X84356587Y61269705D01*
X84189704Y61436588D01*
X84189697Y61436594D01*
X84002454Y61580270D01*
X84002453Y61580271D01*
X84002450Y61580273D01*
X83871982Y61655599D01*
X83798056Y61698281D01*
X83798045Y61698286D01*
X83579993Y61788606D01*
X83409271Y61834351D01*
X83352014Y61849693D01*
X83352013Y61849694D01*
X83352010Y61849694D01*
X83118020Y61880499D01*
X83118017Y61880500D01*
X83118011Y61880500D01*
X82881989Y61880500D01*
X82881983Y61880500D01*
X82881979Y61880499D01*
X82647989Y61849694D01*
X82420006Y61788606D01*
X82201954Y61698286D01*
X82201943Y61698281D01*
X81997545Y61580270D01*
X81810302Y61436594D01*
X81810295Y61436588D01*
X81643412Y61269705D01*
X81643406Y61269698D01*
X81499730Y61082455D01*
X81381720Y60878058D01*
X81381715Y60878049D01*
X81360589Y60827046D01*
X81316747Y60772643D01*
X81250453Y60750579D01*
X81246029Y60750500D01*
X62624465Y60750500D01*
X62557426Y60770185D01*
X62511671Y60822989D01*
X62501727Y60892147D01*
X62530752Y60955703D01*
X62536784Y60962181D01*
X63106673Y61532069D01*
X63837785Y62263181D01*
X63899108Y62296666D01*
X63925466Y62299500D01*
X73229192Y62299500D01*
X73296231Y62279815D01*
X73316873Y62263181D01*
X73335327Y62244727D01*
X73335331Y62244724D01*
X73441866Y62173539D01*
X73441872Y62173536D01*
X73441873Y62173535D01*
X73560256Y62124499D01*
X73560260Y62124499D01*
X73560261Y62124498D01*
X73685928Y62099500D01*
X73685931Y62099500D01*
X73814071Y62099500D01*
X73898615Y62116318D01*
X73939744Y62124499D01*
X74058127Y62173535D01*
X74164669Y62244724D01*
X74255276Y62335331D01*
X74326465Y62441873D01*
X74375501Y62560256D01*
X74397255Y62669618D01*
X74400500Y62685929D01*
X74400500Y62814072D01*
X74375502Y62939739D01*
X74375501Y62939740D01*
X74375501Y62939744D01*
X74326465Y63058127D01*
X74326464Y63058128D01*
X74326461Y63058134D01*
X74255276Y63164669D01*
X74255273Y63164673D01*
X74164672Y63255274D01*
X74164668Y63255277D01*
X74058133Y63326462D01*
X74058124Y63326467D01*
X73939744Y63375501D01*
X73939738Y63375503D01*
X73814071Y63400500D01*
X73814069Y63400500D01*
X73685931Y63400500D01*
X73685929Y63400500D01*
X73560261Y63375503D01*
X73560255Y63375501D01*
X73441875Y63326467D01*
X73441866Y63326462D01*
X73335331Y63255277D01*
X73335327Y63255274D01*
X73316873Y63236819D01*
X73255550Y63203334D01*
X73229192Y63200500D01*
X64370364Y63200500D01*
X64303325Y63220185D01*
X64257570Y63272989D01*
X64247626Y63342147D01*
X64276651Y63405703D01*
X64282683Y63412181D01*
X64383683Y63513181D01*
X64445006Y63546666D01*
X64471364Y63549500D01*
X67453840Y63549500D01*
X67453841Y63549500D01*
X67544205Y63573714D01*
X67568419Y63580201D01*
X67671146Y63639511D01*
X69317564Y65285929D01*
X81400000Y65285929D01*
X81400000Y65034072D01*
X81439397Y64785331D01*
X81517219Y64545816D01*
X81631559Y64321414D01*
X81750380Y64157870D01*
X81750381Y64157869D01*
X82432247Y64839735D01*
X82495112Y64745649D01*
X82585649Y64655112D01*
X82679733Y64592248D01*
X81997867Y63910383D01*
X81997868Y63910381D01*
X82161413Y63791560D01*
X82385815Y63677220D01*
X82625330Y63599398D01*
X82874072Y63560000D01*
X83125928Y63560000D01*
X83374669Y63599398D01*
X83614184Y63677220D01*
X83838583Y63791558D01*
X84002130Y63910383D01*
X84002131Y63910383D01*
X83320266Y64592248D01*
X83414351Y64655112D01*
X83504888Y64745649D01*
X83567752Y64839734D01*
X84249617Y64157869D01*
X84249617Y64157870D01*
X84368442Y64321417D01*
X84482780Y64545816D01*
X84560602Y64785331D01*
X84600000Y65034072D01*
X84600000Y65285929D01*
X84560602Y65534670D01*
X84482780Y65774185D01*
X84368440Y65998587D01*
X84249619Y66162132D01*
X84249617Y66162133D01*
X83567752Y65480267D01*
X83504888Y65574351D01*
X83414351Y65664888D01*
X83320264Y65727754D01*
X84002131Y66409619D01*
X84002130Y66409620D01*
X83838586Y66528441D01*
X83614184Y66642781D01*
X83374669Y66720603D01*
X83125928Y66760000D01*
X82874072Y66760000D01*
X82625330Y66720603D01*
X82385815Y66642781D01*
X82161413Y66528441D01*
X81997868Y66409620D01*
X81997868Y66409618D01*
X82679733Y65727753D01*
X82585649Y65664888D01*
X82495112Y65574351D01*
X82432247Y65480267D01*
X81750382Y66162132D01*
X81750380Y66162132D01*
X81631559Y65998587D01*
X81517219Y65774185D01*
X81439397Y65534670D01*
X81400000Y65285929D01*
X69317564Y65285929D01*
X76860489Y72828854D01*
X76919798Y72931581D01*
X76919799Y72931582D01*
X76950500Y73046159D01*
X76950500Y76199934D01*
X76919799Y76314511D01*
X76900250Y76348371D01*
X76860490Y76417238D01*
X75417239Y77860489D01*
X75348805Y77900000D01*
X75314513Y77919799D01*
X75302405Y77923043D01*
X75290298Y77926287D01*
X75290295Y77926288D01*
X75252103Y77936522D01*
X75199934Y77950500D01*
X75199933Y77950500D01*
X66925465Y77950500D01*
X66858426Y77970185D01*
X66837784Y77986819D01*
X52736819Y92087784D01*
X52703334Y92149107D01*
X52700500Y92175465D01*
X52700500Y97149307D01*
X52700500Y97149309D01*
X52669799Y97263886D01*
X52669797Y97263890D01*
X52644731Y97307306D01*
X52644730Y97307306D01*
X52607112Y97372464D01*
X52590500Y97434463D01*
X52590500Y99506201D01*
X52610185Y99573240D01*
X52658205Y99616686D01*
X52692682Y99634253D01*
X52769199Y99673240D01*
X52922073Y99784310D01*
X53055690Y99917927D01*
X53166760Y100070801D01*
X53252547Y100239168D01*
X53292069Y100360805D01*
X53331507Y100418479D01*
X53395866Y100445677D01*
X53464712Y100433762D01*
X53516188Y100386518D01*
X53527931Y100360804D01*
X53567454Y100239164D01*
X53639217Y100098323D01*
X53653240Y100070801D01*
X53764310Y99917927D01*
X53897927Y99784310D01*
X54050801Y99673240D01*
X54109136Y99643517D01*
X54219163Y99587455D01*
X54219165Y99587455D01*
X54219168Y99587453D01*
X54291136Y99564069D01*
X54398881Y99529060D01*
X54585514Y99499500D01*
X54585519Y99499500D01*
X54774486Y99499500D01*
X54961118Y99529060D01*
X54999176Y99541426D01*
X55140832Y99587453D01*
X55309199Y99673240D01*
X55462073Y99784310D01*
X55595690Y99917927D01*
X55706760Y100070801D01*
X55792547Y100239168D01*
X55832069Y100360805D01*
X55871507Y100418479D01*
X55935866Y100445677D01*
X56004712Y100433762D01*
X56056188Y100386518D01*
X56067931Y100360804D01*
X56107454Y100239164D01*
X56179217Y100098323D01*
X56193240Y100070801D01*
X56304310Y99917927D01*
X56437927Y99784310D01*
X56590801Y99673240D01*
X56649136Y99643517D01*
X56759163Y99587455D01*
X56759165Y99587455D01*
X56759168Y99587453D01*
X56831136Y99564069D01*
X56938881Y99529060D01*
X57125514Y99499500D01*
X57125519Y99499500D01*
X57314486Y99499500D01*
X57501118Y99529060D01*
X57539176Y99541426D01*
X57680832Y99587453D01*
X57680835Y99587455D01*
X57685465Y99588959D01*
X57686050Y99587158D01*
X57747504Y99593771D01*
X57809986Y99562503D01*
X57845645Y99502418D01*
X57849500Y99471739D01*
X57849500Y99435931D01*
X57849500Y99435929D01*
X57849499Y99435929D01*
X57874497Y99310262D01*
X57874499Y99310256D01*
X57923533Y99191876D01*
X57923538Y99191867D01*
X57994723Y99085332D01*
X57994726Y99085328D01*
X58085327Y98994727D01*
X58085331Y98994724D01*
X58191866Y98923539D01*
X58191872Y98923536D01*
X58191873Y98923535D01*
X58310256Y98874499D01*
X58310260Y98874499D01*
X58310261Y98874498D01*
X58435928Y98849500D01*
X58435931Y98849500D01*
X58564071Y98849500D01*
X58648615Y98866318D01*
X58689744Y98874499D01*
X58808127Y98923535D01*
X58914669Y98994724D01*
X58914672Y98994727D01*
X58933127Y99013181D01*
X58994450Y99046666D01*
X59020808Y99049500D01*
X61371807Y99049500D01*
X61371809Y99049500D01*
X61462938Y99073918D01*
X61486387Y99080201D01*
X61589114Y99139511D01*
X61939487Y99489886D01*
X62000808Y99523369D01*
X62046562Y99524676D01*
X62094036Y99517157D01*
X62205514Y99499500D01*
X62205519Y99499500D01*
X62394486Y99499500D01*
X62581118Y99529060D01*
X62619176Y99541426D01*
X62760832Y99587453D01*
X62929199Y99673240D01*
X63082073Y99784310D01*
X63215690Y99917927D01*
X63326760Y100070801D01*
X63412547Y100239168D01*
X63452069Y100360805D01*
X63491507Y100418479D01*
X63555866Y100445677D01*
X63624712Y100433762D01*
X63676188Y100386518D01*
X63687931Y100360804D01*
X63727454Y100239164D01*
X63799217Y100098323D01*
X63813240Y100070801D01*
X63924310Y99917927D01*
X64057927Y99784310D01*
X64210801Y99673240D01*
X64269136Y99643517D01*
X64379163Y99587455D01*
X64379165Y99587455D01*
X64379168Y99587453D01*
X64451136Y99564069D01*
X64558881Y99529060D01*
X64745514Y99499500D01*
X64745519Y99499500D01*
X64934486Y99499500D01*
X65121118Y99529060D01*
X65159176Y99541426D01*
X65300832Y99587453D01*
X65469199Y99673240D01*
X65622073Y99784310D01*
X65755690Y99917927D01*
X65866760Y100070801D01*
X65952547Y100239168D01*
X65992069Y100360805D01*
X66031507Y100418479D01*
X66095866Y100445677D01*
X66164712Y100433762D01*
X66216188Y100386518D01*
X66227931Y100360804D01*
X66267454Y100239164D01*
X66339217Y100098323D01*
X66353240Y100070801D01*
X66464310Y99917927D01*
X66597927Y99784310D01*
X66750801Y99673240D01*
X66809136Y99643517D01*
X66919163Y99587455D01*
X66919165Y99587455D01*
X66919168Y99587453D01*
X66991136Y99564069D01*
X67098881Y99529060D01*
X67285514Y99499500D01*
X67285519Y99499500D01*
X67474479Y99499500D01*
X67474481Y99499500D01*
X67585956Y99517157D01*
X67655245Y99508203D01*
X67693032Y99482365D01*
X68535886Y98639511D01*
X68535887Y98639510D01*
X68535889Y98639509D01*
X68595193Y98605271D01*
X68595196Y98605268D01*
X68629437Y98585500D01*
X68638614Y98580201D01*
X68753191Y98549500D01*
X71979192Y98549500D01*
X72046231Y98529815D01*
X72066873Y98513181D01*
X72085327Y98494727D01*
X72085331Y98494724D01*
X72191866Y98423539D01*
X72191872Y98423536D01*
X72191873Y98423535D01*
X72310256Y98374499D01*
X72310260Y98374499D01*
X72310261Y98374498D01*
X72435928Y98349500D01*
X72435931Y98349500D01*
X72564071Y98349500D01*
X72689648Y98374480D01*
X72689744Y98374499D01*
X72808127Y98423535D01*
X72914669Y98494724D01*
X73005276Y98585331D01*
X73076465Y98691873D01*
X73125501Y98810256D01*
X73148034Y98923534D01*
X73150500Y98935929D01*
X73150500Y99064072D01*
X73125502Y99189739D01*
X73125501Y99189740D01*
X73125501Y99189744D01*
X73076465Y99308127D01*
X73076464Y99308128D01*
X73076461Y99308134D01*
X73005276Y99414669D01*
X73005273Y99414673D01*
X72982993Y99436953D01*
X72949508Y99498276D01*
X72954492Y99567968D01*
X72996364Y99623901D01*
X73014367Y99635112D01*
X73089199Y99673240D01*
X73242073Y99784310D01*
X73375690Y99917927D01*
X73452311Y100023388D01*
X73507640Y100066051D01*
X73552628Y100074500D01*
X73675500Y100074500D01*
X73742539Y100054815D01*
X73788294Y100002011D01*
X73799500Y99950500D01*
X73799500Y99816740D01*
X73809426Y99748609D01*
X73860803Y99643515D01*
X73943514Y99560804D01*
X73943515Y99560804D01*
X73943517Y99560802D01*
X74048607Y99509427D01*
X74077097Y99505276D01*
X74116739Y99499500D01*
X75876000Y99499500D01*
X75943039Y99479815D01*
X75988794Y99427011D01*
X76000000Y99375500D01*
X76000000Y77900000D01*
X93376000Y77900000D01*
X93443039Y77880315D01*
X93488794Y77827511D01*
X93500000Y77776000D01*
X93500000Y2979070D01*
X93485989Y2921813D01*
X93399182Y2755059D01*
X93393774Y2745691D01*
X93228581Y2486388D01*
X93175959Y2440424D01*
X93106840Y2430206D01*
X93043170Y2458978D01*
X93005163Y2517606D01*
X93000000Y2553013D01*
X93000000Y8500000D01*
X86000000Y8500000D01*
X86000000Y1500000D01*
X91946987Y1500000D01*
X92014026Y1480315D01*
X92059781Y1427511D01*
X92069725Y1358353D01*
X92040700Y1294797D01*
X92013612Y1271419D01*
X91754309Y1106226D01*
X91744942Y1100818D01*
X91691894Y1073203D01*
X91578187Y1014011D01*
X91520932Y1000000D01*
X2979065Y1000000D01*
X2921809Y1014011D01*
X2755042Y1100825D01*
X2745686Y1106226D01*
X2541423Y1236357D01*
X2486385Y1271420D01*
X2440421Y1324042D01*
X2430203Y1393160D01*
X2458976Y1456831D01*
X2517604Y1494838D01*
X2553010Y1500000D01*
X8500000Y1500000D01*
X8500000Y8500000D01*
X1500000Y8500000D01*
X1500000Y2553010D01*
X1480315Y2485971D01*
X1427511Y2440216D01*
X1358353Y2430272D01*
X1294797Y2459297D01*
X1271422Y2486382D01*
X1106215Y2745704D01*
X1100831Y2755028D01*
X1014010Y2921811D01*
X1000000Y2979067D01*
X1000000Y11594222D01*
X52524500Y11594222D01*
X52524500Y11305779D01*
X52524501Y11305762D01*
X52562149Y11019794D01*
X52562150Y11019789D01*
X52562151Y11019783D01*
X52562152Y11019781D01*
X52636809Y10741156D01*
X52636814Y10741140D01*
X52747191Y10474664D01*
X52747199Y10474648D01*
X52891420Y10224852D01*
X52891431Y10224836D01*
X53067024Y9995998D01*
X53067030Y9995991D01*
X53270990Y9792031D01*
X53270996Y9792026D01*
X53499844Y9616425D01*
X53499851Y9616421D01*
X53749647Y9472200D01*
X53749663Y9472192D01*
X54016139Y9361815D01*
X54016145Y9361814D01*
X54016155Y9361809D01*
X54294783Y9287151D01*
X54580772Y9249500D01*
X54580779Y9249500D01*
X54869221Y9249500D01*
X54869228Y9249500D01*
X55155217Y9287151D01*
X55433845Y9361809D01*
X55433857Y9361815D01*
X55433860Y9361815D01*
X55700336Y9472192D01*
X55700339Y9472194D01*
X55700345Y9472196D01*
X55950156Y9616425D01*
X56179004Y9792026D01*
X56382974Y9995996D01*
X56558575Y10224844D01*
X56702804Y10474655D01*
X56813191Y10741155D01*
X56887849Y11019783D01*
X56925500Y11305772D01*
X56925500Y11594222D01*
X71574500Y11594222D01*
X71574500Y11305779D01*
X71574501Y11305762D01*
X71612149Y11019794D01*
X71612150Y11019789D01*
X71612151Y11019783D01*
X71612152Y11019781D01*
X71686809Y10741156D01*
X71686814Y10741140D01*
X71797191Y10474664D01*
X71797199Y10474648D01*
X71941420Y10224852D01*
X71941431Y10224836D01*
X72117024Y9995998D01*
X72117030Y9995991D01*
X72320990Y9792031D01*
X72320996Y9792026D01*
X72549844Y9616425D01*
X72549851Y9616421D01*
X72799647Y9472200D01*
X72799663Y9472192D01*
X73066139Y9361815D01*
X73066145Y9361814D01*
X73066155Y9361809D01*
X73344783Y9287151D01*
X73630772Y9249500D01*
X73630779Y9249500D01*
X73919221Y9249500D01*
X73919228Y9249500D01*
X74205217Y9287151D01*
X74483845Y9361809D01*
X74483857Y9361815D01*
X74483860Y9361815D01*
X74750336Y9472192D01*
X74750339Y9472194D01*
X74750345Y9472196D01*
X75000156Y9616425D01*
X75229004Y9792026D01*
X75432974Y9995996D01*
X75608575Y10224844D01*
X75752804Y10474655D01*
X75863191Y10741155D01*
X75937849Y11019783D01*
X75975500Y11305772D01*
X75975500Y11594228D01*
X75937849Y11880217D01*
X75863191Y12158845D01*
X75863186Y12158855D01*
X75863185Y12158861D01*
X75752808Y12425337D01*
X75752800Y12425353D01*
X75608579Y12675149D01*
X75608575Y12675156D01*
X75432974Y12904004D01*
X75432969Y12904010D01*
X75229009Y13107970D01*
X75229002Y13107976D01*
X75000164Y13283569D01*
X75000162Y13283571D01*
X75000156Y13283575D01*
X75000151Y13283578D01*
X75000148Y13283580D01*
X74750352Y13427801D01*
X74750336Y13427809D01*
X74483860Y13538186D01*
X74483848Y13538190D01*
X74483845Y13538191D01*
X74205217Y13612849D01*
X74205211Y13612850D01*
X74205206Y13612851D01*
X73919238Y13650499D01*
X73919233Y13650500D01*
X73919228Y13650500D01*
X73630772Y13650500D01*
X73630766Y13650500D01*
X73630761Y13650499D01*
X73344793Y13612851D01*
X73344786Y13612850D01*
X73344783Y13612849D01*
X73066155Y13538191D01*
X73066139Y13538186D01*
X72799663Y13427809D01*
X72799647Y13427801D01*
X72549851Y13283580D01*
X72549835Y13283569D01*
X72320997Y13107976D01*
X72320990Y13107970D01*
X72117030Y12904010D01*
X72117024Y12904003D01*
X71941431Y12675165D01*
X71941420Y12675149D01*
X71797199Y12425353D01*
X71797191Y12425337D01*
X71686814Y12158861D01*
X71686809Y12158845D01*
X71612152Y11880220D01*
X71612149Y11880207D01*
X71574501Y11594239D01*
X71574500Y11594222D01*
X56925500Y11594222D01*
X56925500Y11594228D01*
X56887849Y11880217D01*
X56813191Y12158845D01*
X56813186Y12158855D01*
X56813185Y12158861D01*
X56702808Y12425337D01*
X56702800Y12425353D01*
X56558579Y12675149D01*
X56558575Y12675156D01*
X56382974Y12904004D01*
X56382969Y12904010D01*
X56179009Y13107970D01*
X56179002Y13107976D01*
X55950164Y13283569D01*
X55950162Y13283571D01*
X55950156Y13283575D01*
X55950151Y13283578D01*
X55950148Y13283580D01*
X55700352Y13427801D01*
X55700336Y13427809D01*
X55433860Y13538186D01*
X55433848Y13538190D01*
X55433845Y13538191D01*
X55155217Y13612849D01*
X55155211Y13612850D01*
X55155206Y13612851D01*
X54869238Y13650499D01*
X54869233Y13650500D01*
X54869228Y13650500D01*
X54580772Y13650500D01*
X54580766Y13650500D01*
X54580761Y13650499D01*
X54294793Y13612851D01*
X54294786Y13612850D01*
X54294783Y13612849D01*
X54016155Y13538191D01*
X54016139Y13538186D01*
X53749663Y13427809D01*
X53749647Y13427801D01*
X53499851Y13283580D01*
X53499835Y13283569D01*
X53270997Y13107976D01*
X53270990Y13107970D01*
X53067030Y12904010D01*
X53067024Y12904003D01*
X52891431Y12675165D01*
X52891420Y12675149D01*
X52747199Y12425353D01*
X52747191Y12425337D01*
X52636814Y12158861D01*
X52636809Y12158845D01*
X52562152Y11880220D01*
X52562149Y11880207D01*
X52524501Y11594239D01*
X52524500Y11594222D01*
X1000000Y11594222D01*
X1000000Y14100222D01*
X49514500Y14100222D01*
X49514500Y13879779D01*
X49548985Y13662048D01*
X49617103Y13452397D01*
X49617104Y13452394D01*
X49685122Y13318904D01*
X49703123Y13283575D01*
X49717187Y13255975D01*
X49846752Y13077642D01*
X49846756Y13077637D01*
X50002636Y12921757D01*
X50002641Y12921753D01*
X50158192Y12808740D01*
X50180978Y12792185D01*
X50309375Y12726763D01*
X50377393Y12692105D01*
X50377396Y12692104D01*
X50482221Y12658045D01*
X50587049Y12623985D01*
X50804778Y12589500D01*
X50804779Y12589500D01*
X51025221Y12589500D01*
X51025222Y12589500D01*
X51242951Y12623985D01*
X51452606Y12692105D01*
X51649022Y12792185D01*
X51827365Y12921758D01*
X51983242Y13077635D01*
X52112815Y13255978D01*
X52212895Y13452394D01*
X52281015Y13662049D01*
X52315500Y13879778D01*
X52315500Y14100222D01*
X68564500Y14100222D01*
X68564500Y13879779D01*
X68598985Y13662048D01*
X68667103Y13452397D01*
X68667104Y13452394D01*
X68735122Y13318904D01*
X68753123Y13283575D01*
X68767187Y13255975D01*
X68896752Y13077642D01*
X68896756Y13077637D01*
X69052636Y12921757D01*
X69052641Y12921753D01*
X69208192Y12808740D01*
X69230978Y12792185D01*
X69359375Y12726763D01*
X69427393Y12692105D01*
X69427396Y12692104D01*
X69532221Y12658045D01*
X69637049Y12623985D01*
X69854778Y12589500D01*
X69854779Y12589500D01*
X70075221Y12589500D01*
X70075222Y12589500D01*
X70292951Y12623985D01*
X70502606Y12692105D01*
X70699022Y12792185D01*
X70877365Y12921758D01*
X71033242Y13077635D01*
X71162815Y13255978D01*
X71262895Y13452394D01*
X71331015Y13662049D01*
X71365500Y13879778D01*
X71365500Y14100222D01*
X71331015Y14317951D01*
X71262895Y14527606D01*
X71262895Y14527607D01*
X71228237Y14595625D01*
X71162815Y14724022D01*
X71146260Y14746808D01*
X71033247Y14902359D01*
X71033243Y14902364D01*
X70877363Y15058244D01*
X70877358Y15058248D01*
X70699025Y15187813D01*
X70699024Y15187814D01*
X70699022Y15187815D01*
X70636096Y15219878D01*
X70502606Y15287896D01*
X70502603Y15287897D01*
X70292952Y15356015D01*
X70115314Y15384150D01*
X70075222Y15390500D01*
X69854778Y15390500D01*
X69814686Y15384150D01*
X69637047Y15356015D01*
X69427396Y15287897D01*
X69427393Y15287896D01*
X69230974Y15187813D01*
X69052641Y15058248D01*
X69052636Y15058244D01*
X68896756Y14902364D01*
X68896752Y14902359D01*
X68767187Y14724026D01*
X68667104Y14527607D01*
X68667103Y14527604D01*
X68598985Y14317953D01*
X68564500Y14100222D01*
X52315500Y14100222D01*
X52281015Y14317951D01*
X52212895Y14527606D01*
X52212895Y14527607D01*
X52178237Y14595625D01*
X52112815Y14724022D01*
X52096260Y14746808D01*
X51983247Y14902359D01*
X51983243Y14902364D01*
X51827363Y15058244D01*
X51827358Y15058248D01*
X51649025Y15187813D01*
X51649024Y15187814D01*
X51649022Y15187815D01*
X51586096Y15219878D01*
X51452606Y15287896D01*
X51452603Y15287897D01*
X51242952Y15356015D01*
X51065314Y15384150D01*
X51025222Y15390500D01*
X50804778Y15390500D01*
X50764686Y15384150D01*
X50587047Y15356015D01*
X50377396Y15287897D01*
X50377393Y15287896D01*
X50180974Y15187813D01*
X50002641Y15058248D01*
X50002636Y15058244D01*
X49846756Y14902364D01*
X49846752Y14902359D01*
X49717187Y14724026D01*
X49617104Y14527607D01*
X49617103Y14527604D01*
X49548985Y14317953D01*
X49514500Y14100222D01*
X1000000Y14100222D01*
X1000000Y16636247D01*
X55915000Y16636247D01*
X55915000Y16423754D01*
X55948242Y16213873D01*
X55948242Y16213870D01*
X56013904Y16011783D01*
X56110377Y15822446D01*
X56194362Y15706852D01*
X56194363Y15706851D01*
X56625150Y16137639D01*
X56682437Y16051903D01*
X56786903Y15947437D01*
X56872637Y15890152D01*
X56441849Y15459364D01*
X56557445Y15375378D01*
X56746782Y15278905D01*
X56948870Y15213243D01*
X57158754Y15180000D01*
X57371246Y15180000D01*
X57581127Y15213243D01*
X57581130Y15213243D01*
X57783217Y15278905D01*
X57972546Y15375374D01*
X57972552Y15375378D01*
X58088148Y15459364D01*
X58088149Y15459364D01*
X57657361Y15890151D01*
X57743097Y15947437D01*
X57847563Y16051903D01*
X57904849Y16137638D01*
X58335636Y15706851D01*
X58335636Y15706852D01*
X58419622Y15822448D01*
X58419626Y15822454D01*
X58516095Y16011783D01*
X58581757Y16213870D01*
X58581757Y16213873D01*
X58615000Y16423754D01*
X58615000Y16636247D01*
X74965000Y16636247D01*
X74965000Y16423754D01*
X74998242Y16213873D01*
X74998242Y16213870D01*
X75063904Y16011783D01*
X75160377Y15822446D01*
X75244362Y15706852D01*
X75244363Y15706851D01*
X75675150Y16137639D01*
X75732437Y16051903D01*
X75836903Y15947437D01*
X75922637Y15890152D01*
X75491849Y15459364D01*
X75607445Y15375378D01*
X75796782Y15278905D01*
X75998870Y15213243D01*
X76208754Y15180000D01*
X76421246Y15180000D01*
X76631127Y15213243D01*
X76631130Y15213243D01*
X76833217Y15278905D01*
X77022546Y15375374D01*
X77022552Y15375378D01*
X77138148Y15459364D01*
X77138149Y15459364D01*
X76707361Y15890151D01*
X76793097Y15947437D01*
X76897563Y16051903D01*
X76954849Y16137638D01*
X77385636Y15706851D01*
X77385636Y15706852D01*
X77469622Y15822448D01*
X77469626Y15822454D01*
X77566095Y16011783D01*
X77631757Y16213870D01*
X77631757Y16213873D01*
X77665000Y16423754D01*
X77665000Y16636247D01*
X77631757Y16846128D01*
X77631757Y16846131D01*
X77566095Y17048218D01*
X77469622Y17237555D01*
X77385636Y17353150D01*
X77385636Y17353151D01*
X76954848Y16922363D01*
X76897563Y17008097D01*
X76793097Y17112563D01*
X76707361Y17169850D01*
X77138149Y17600637D01*
X77138148Y17600638D01*
X77022554Y17684623D01*
X76833217Y17781096D01*
X76631129Y17846758D01*
X76421246Y17880000D01*
X76208754Y17880000D01*
X75998872Y17846758D01*
X75998869Y17846758D01*
X75796782Y17781096D01*
X75607442Y17684621D01*
X75491850Y17600639D01*
X75491849Y17600638D01*
X75922638Y17169850D01*
X75836903Y17112563D01*
X75732437Y17008097D01*
X75675150Y16922363D01*
X75244362Y17353151D01*
X75244361Y17353150D01*
X75160379Y17237558D01*
X75063904Y17048218D01*
X74998242Y16846131D01*
X74998242Y16846128D01*
X74965000Y16636247D01*
X58615000Y16636247D01*
X58581757Y16846128D01*
X58581757Y16846131D01*
X58516095Y17048218D01*
X58419622Y17237555D01*
X58335636Y17353150D01*
X58335636Y17353151D01*
X57904848Y16922363D01*
X57847563Y17008097D01*
X57743097Y17112563D01*
X57657361Y17169850D01*
X58088149Y17600637D01*
X58088148Y17600638D01*
X57972554Y17684623D01*
X57783217Y17781096D01*
X57581129Y17846758D01*
X57371246Y17880000D01*
X57158754Y17880000D01*
X56948872Y17846758D01*
X56948869Y17846758D01*
X56746782Y17781096D01*
X56557442Y17684621D01*
X56441850Y17600639D01*
X56441849Y17600638D01*
X56872638Y17169850D01*
X56786903Y17112563D01*
X56682437Y17008097D01*
X56625150Y16922363D01*
X56194362Y17353151D01*
X56194361Y17353150D01*
X56110379Y17237558D01*
X56013904Y17048218D01*
X55948242Y16846131D01*
X55948242Y16846128D01*
X55915000Y16636247D01*
X1000000Y16636247D01*
X1000000Y18360507D01*
X13350000Y18360507D01*
X13350000Y18179494D01*
X13378317Y18000707D01*
X13434251Y17828556D01*
X13434252Y17828553D01*
X13516434Y17667266D01*
X13572545Y17590035D01*
X13572547Y17590035D01*
X14043388Y18060876D01*
X14099901Y17962993D01*
X14192993Y17869901D01*
X14290874Y17813389D01*
X13820032Y17342548D01*
X13820033Y17342547D01*
X13897265Y17286435D01*
X14058552Y17204253D01*
X14058555Y17204252D01*
X14230706Y17148318D01*
X14409494Y17120000D01*
X14590506Y17120000D01*
X14769293Y17148318D01*
X14941444Y17204252D01*
X14941447Y17204253D01*
X15102731Y17286433D01*
X15179965Y17342548D01*
X15179966Y17342548D01*
X14709125Y17813389D01*
X14807007Y17869901D01*
X14900099Y17962993D01*
X14956611Y18060876D01*
X15427452Y17590034D01*
X15427452Y17590035D01*
X15483567Y17667269D01*
X15565747Y17828553D01*
X15565749Y17828559D01*
X15605519Y17950959D01*
X15644956Y18008635D01*
X15709314Y18035834D01*
X15778161Y18023920D01*
X15829637Y17976676D01*
X15841381Y17950961D01*
X15887454Y17809164D01*
X15959754Y17667269D01*
X15973240Y17640801D01*
X16084310Y17487927D01*
X16217927Y17354310D01*
X16370801Y17243240D01*
X16447318Y17204253D01*
X16539163Y17157455D01*
X16539165Y17157455D01*
X16539168Y17157453D01*
X16635497Y17126154D01*
X16718881Y17099060D01*
X16905514Y17069500D01*
X16905519Y17069500D01*
X17094486Y17069500D01*
X17281118Y17099060D01*
X17460832Y17157453D01*
X17629199Y17243240D01*
X17782073Y17354310D01*
X17915690Y17487927D01*
X18026760Y17640801D01*
X18112547Y17809168D01*
X18132069Y17869252D01*
X18171507Y17926927D01*
X18235865Y17954125D01*
X18304712Y17942210D01*
X18356187Y17894966D01*
X18367930Y17869254D01*
X18387453Y17809168D01*
X18473240Y17640801D01*
X18584310Y17487927D01*
X18717927Y17354310D01*
X18870801Y17243240D01*
X18947318Y17204253D01*
X19039163Y17157455D01*
X19039165Y17157455D01*
X19039168Y17157453D01*
X19135497Y17126154D01*
X19218881Y17099060D01*
X19405514Y17069500D01*
X19405519Y17069500D01*
X19594486Y17069500D01*
X19781118Y17099060D01*
X19960832Y17157453D01*
X20129199Y17243240D01*
X20282073Y17354310D01*
X20415690Y17487927D01*
X20526760Y17640801D01*
X20612547Y17809168D01*
X20670940Y17988882D01*
X20676267Y18022513D01*
X20700500Y18175514D01*
X20700500Y18364487D01*
X20670940Y18551119D01*
X20612545Y18730837D01*
X20567290Y18819653D01*
X20526760Y18899199D01*
X20415690Y19052073D01*
X20282073Y19185690D01*
X20129199Y19296760D01*
X20129191Y19296764D01*
X19960836Y19382546D01*
X19781118Y19440941D01*
X19594486Y19470500D01*
X19594481Y19470500D01*
X19405519Y19470500D01*
X19405514Y19470500D01*
X19218881Y19440941D01*
X19039163Y19382546D01*
X18870800Y19296760D01*
X18811355Y19253570D01*
X18717927Y19185690D01*
X18717925Y19185688D01*
X18717924Y19185688D01*
X18584312Y19052076D01*
X18584312Y19052075D01*
X18584310Y19052073D01*
X18536610Y18986421D01*
X18473240Y18899200D01*
X18387454Y18730837D01*
X18367931Y18670749D01*
X18328493Y18613074D01*
X18264134Y18585876D01*
X18195288Y18597791D01*
X18143812Y18645035D01*
X18132069Y18670749D01*
X18112545Y18730837D01*
X18067290Y18819653D01*
X18026760Y18899199D01*
X17915690Y19052073D01*
X17782073Y19185690D01*
X17688645Y19253570D01*
X17629194Y19296764D01*
X17518205Y19353316D01*
X17467409Y19401290D01*
X17450500Y19463800D01*
X17450500Y20324535D01*
X17470185Y20391574D01*
X17486819Y20412216D01*
X19184825Y22110222D01*
X21924500Y22110222D01*
X21924500Y21889779D01*
X21958985Y21672048D01*
X22027103Y21462397D01*
X22027104Y21462394D01*
X22127187Y21265975D01*
X22256752Y21087642D01*
X22256756Y21087637D01*
X22412636Y20931757D01*
X22412641Y20931753D01*
X22540145Y20839117D01*
X22590978Y20802185D01*
X22719375Y20736763D01*
X22787393Y20702105D01*
X22787396Y20702104D01*
X22892221Y20668045D01*
X22997049Y20633985D01*
X23214778Y20599500D01*
X23214779Y20599500D01*
X23435221Y20599500D01*
X23435222Y20599500D01*
X23652951Y20633985D01*
X23862606Y20702105D01*
X24059022Y20802185D01*
X24237365Y20931758D01*
X24393242Y21087635D01*
X24522815Y21265978D01*
X24622895Y21462394D01*
X24691015Y21672049D01*
X24725500Y21889778D01*
X24725500Y22110222D01*
X24691015Y22327951D01*
X24622895Y22537606D01*
X24622895Y22537607D01*
X24588237Y22605625D01*
X24522815Y22734022D01*
X24506260Y22756808D01*
X24393247Y22912359D01*
X24393243Y22912364D01*
X24237363Y23068244D01*
X24237358Y23068248D01*
X24059025Y23197813D01*
X24059024Y23197814D01*
X24059022Y23197815D01*
X23996096Y23229878D01*
X23862606Y23297896D01*
X23862603Y23297897D01*
X23652952Y23366015D01*
X23517597Y23387453D01*
X23435222Y23400500D01*
X23214778Y23400500D01*
X23142201Y23389005D01*
X22997047Y23366015D01*
X22787396Y23297897D01*
X22787393Y23297896D01*
X22590974Y23197813D01*
X22412641Y23068248D01*
X22412636Y23068244D01*
X22256756Y22912364D01*
X22256752Y22912359D01*
X22127187Y22734026D01*
X22027104Y22537607D01*
X22027103Y22537604D01*
X21958985Y22327953D01*
X21924500Y22110222D01*
X19184825Y22110222D01*
X19277378Y22202775D01*
X20792529Y23717925D01*
X24087785Y27013181D01*
X24149108Y27046666D01*
X24175466Y27049500D01*
X57559307Y27049500D01*
X57559309Y27049500D01*
X57635744Y27069982D01*
X57651898Y27074309D01*
X57651899Y27074310D01*
X57673887Y27080201D01*
X57776614Y27139511D01*
X59360489Y28723386D01*
X59419798Y28826113D01*
X59419799Y28826114D01*
X59450500Y28940691D01*
X59450500Y28979193D01*
X59470185Y29046232D01*
X59486821Y29066876D01*
X59505274Y29085329D01*
X59505276Y29085331D01*
X59576465Y29191873D01*
X59625501Y29310256D01*
X59650500Y29435931D01*
X59650500Y29564069D01*
X59650500Y29564072D01*
X59625502Y29689739D01*
X59625501Y29689740D01*
X59625501Y29689744D01*
X59576465Y29808127D01*
X59576464Y29808128D01*
X59576461Y29808134D01*
X59505276Y29914669D01*
X59505273Y29914673D01*
X59414672Y30005274D01*
X59414668Y30005277D01*
X59308133Y30076462D01*
X59308124Y30076467D01*
X59189744Y30125501D01*
X59189738Y30125503D01*
X59064071Y30150500D01*
X59064069Y30150500D01*
X58935931Y30150500D01*
X58935929Y30150500D01*
X58810261Y30125503D01*
X58810255Y30125501D01*
X58691875Y30076467D01*
X58691866Y30076462D01*
X58585331Y30005277D01*
X58585327Y30005274D01*
X58494726Y29914673D01*
X58494723Y29914669D01*
X58423538Y29808134D01*
X58423533Y29808125D01*
X58374499Y29689745D01*
X58374497Y29689739D01*
X58349500Y29564072D01*
X58349500Y29564069D01*
X58349500Y29435931D01*
X58349500Y29435929D01*
X58349499Y29435929D01*
X58374497Y29310262D01*
X58374499Y29310256D01*
X58423535Y29191872D01*
X58425897Y29187453D01*
X58440137Y29119050D01*
X58415135Y29053807D01*
X58404218Y29041322D01*
X57349716Y27986819D01*
X57288393Y27953334D01*
X57262035Y27950500D01*
X23878191Y27950500D01*
X23792258Y27927475D01*
X23763613Y27919799D01*
X23660886Y27860491D01*
X23660884Y27860489D01*
X16639513Y20839117D01*
X16639509Y20839111D01*
X16580201Y20736388D01*
X16580200Y20736383D01*
X16549500Y20621809D01*
X16549500Y19463800D01*
X16529815Y19396761D01*
X16481795Y19353316D01*
X16370805Y19296764D01*
X16268885Y19222714D01*
X16217927Y19185690D01*
X16217925Y19185688D01*
X16217924Y19185688D01*
X16084312Y19052076D01*
X16084312Y19052075D01*
X16084310Y19052073D01*
X16036610Y18986421D01*
X15973240Y18899200D01*
X15887454Y18730837D01*
X15841381Y18589040D01*
X15801943Y18531365D01*
X15737584Y18504167D01*
X15668737Y18516082D01*
X15617262Y18563327D01*
X15605519Y18589041D01*
X15565748Y18711445D01*
X15565747Y18711448D01*
X15483565Y18872735D01*
X15427453Y18949967D01*
X15427452Y18949968D01*
X14956610Y18479126D01*
X14900099Y18577007D01*
X14807007Y18670099D01*
X14709124Y18726612D01*
X15179965Y19197453D01*
X15179965Y19197455D01*
X15102734Y19253566D01*
X14941447Y19335748D01*
X14941444Y19335749D01*
X14769293Y19391683D01*
X14590506Y19420000D01*
X14409494Y19420000D01*
X14230706Y19391683D01*
X14058555Y19335749D01*
X14058552Y19335748D01*
X13897272Y19253570D01*
X13820033Y19197454D01*
X14290875Y18726612D01*
X14192993Y18670099D01*
X14099901Y18577007D01*
X14043388Y18479125D01*
X13572546Y18949967D01*
X13516430Y18872728D01*
X13434252Y18711448D01*
X13434251Y18711445D01*
X13378317Y18539294D01*
X13350000Y18360507D01*
X1000000Y18360507D01*
X1000000Y22110222D01*
X9274500Y22110222D01*
X9274500Y21889779D01*
X9308985Y21672048D01*
X9377103Y21462397D01*
X9377104Y21462394D01*
X9477187Y21265975D01*
X9606752Y21087642D01*
X9606756Y21087637D01*
X9762636Y20931757D01*
X9762641Y20931753D01*
X9890145Y20839117D01*
X9940978Y20802185D01*
X10069375Y20736763D01*
X10137393Y20702105D01*
X10137396Y20702104D01*
X10242221Y20668045D01*
X10347049Y20633985D01*
X10564778Y20599500D01*
X10564779Y20599500D01*
X10785221Y20599500D01*
X10785222Y20599500D01*
X11002951Y20633985D01*
X11212606Y20702105D01*
X11409022Y20802185D01*
X11587365Y20931758D01*
X11743242Y21087635D01*
X11872815Y21265978D01*
X11972895Y21462394D01*
X12041015Y21672049D01*
X12075500Y21889778D01*
X12075500Y22110222D01*
X12041015Y22327951D01*
X11972895Y22537606D01*
X11972895Y22537607D01*
X11938237Y22605625D01*
X11872815Y22734022D01*
X11856260Y22756808D01*
X11743247Y22912359D01*
X11743243Y22912364D01*
X11587363Y23068244D01*
X11587358Y23068248D01*
X11409025Y23197813D01*
X11409024Y23197814D01*
X11409022Y23197815D01*
X11346096Y23229878D01*
X11212606Y23297896D01*
X11212603Y23297897D01*
X11002952Y23366015D01*
X10867597Y23387453D01*
X10785222Y23400500D01*
X10564778Y23400500D01*
X10492201Y23389005D01*
X10347047Y23366015D01*
X10137396Y23297897D01*
X10137393Y23297896D01*
X9940974Y23197813D01*
X9762641Y23068248D01*
X9762636Y23068244D01*
X9606756Y22912364D01*
X9606752Y22912359D01*
X9477187Y22734026D01*
X9377104Y22537607D01*
X9377103Y22537604D01*
X9308985Y22327953D01*
X9274500Y22110222D01*
X1000000Y22110222D01*
X1000000Y32110222D01*
X9274500Y32110222D01*
X9274500Y31889779D01*
X9308985Y31672048D01*
X9377103Y31462397D01*
X9377104Y31462394D01*
X9477187Y31265975D01*
X9606752Y31087642D01*
X9606756Y31087637D01*
X9762636Y30931757D01*
X9762641Y30931753D01*
X9861991Y30859572D01*
X9940978Y30802185D01*
X10069375Y30736763D01*
X10137393Y30702105D01*
X10137396Y30702104D01*
X10242221Y30668045D01*
X10347049Y30633985D01*
X10564778Y30599500D01*
X10564779Y30599500D01*
X10785221Y30599500D01*
X10785222Y30599500D01*
X11002951Y30633985D01*
X11212606Y30702105D01*
X11409022Y30802185D01*
X11587365Y30931758D01*
X11743242Y31087635D01*
X11872815Y31265978D01*
X11972895Y31462394D01*
X12041015Y31672049D01*
X12075500Y31889778D01*
X12075500Y32110222D01*
X12041015Y32327951D01*
X11972895Y32537606D01*
X11972895Y32537607D01*
X11872813Y32734025D01*
X11836258Y32784340D01*
X11836257Y32784341D01*
X11786844Y32852352D01*
X12449500Y32852352D01*
X12449500Y32647649D01*
X12481522Y32445466D01*
X12544781Y32250777D01*
X12593318Y32155519D01*
X12616398Y32110222D01*
X12637715Y32068387D01*
X12758028Y31902787D01*
X12902786Y31758029D01*
X13057749Y31645444D01*
X13068390Y31637713D01*
X13183601Y31579010D01*
X13250776Y31544782D01*
X13250778Y31544782D01*
X13250781Y31544780D01*
X13355137Y31510873D01*
X13445465Y31481523D01*
X13484522Y31475337D01*
X13647648Y31449500D01*
X13647649Y31449500D01*
X13852351Y31449500D01*
X13852352Y31449500D01*
X14054534Y31481523D01*
X14249219Y31544780D01*
X14431610Y31637713D01*
X14537423Y31714590D01*
X14597213Y31758029D01*
X14597215Y31758032D01*
X14597219Y31758034D01*
X14741966Y31902781D01*
X14741968Y31902785D01*
X14741971Y31902787D01*
X14794732Y31975410D01*
X14862287Y32068390D01*
X14955220Y32250781D01*
X15018477Y32445466D01*
X15050500Y32647648D01*
X15050500Y32852352D01*
X18949500Y32852352D01*
X18949500Y32647649D01*
X18981522Y32445466D01*
X19044781Y32250777D01*
X19093318Y32155519D01*
X19116398Y32110222D01*
X19137715Y32068387D01*
X19258028Y31902787D01*
X19402786Y31758029D01*
X19557749Y31645444D01*
X19568390Y31637713D01*
X19683601Y31579010D01*
X19750776Y31544782D01*
X19750778Y31544782D01*
X19750781Y31544780D01*
X19855137Y31510873D01*
X19945465Y31481523D01*
X19984522Y31475337D01*
X20147648Y31449500D01*
X20147649Y31449500D01*
X20352351Y31449500D01*
X20352352Y31449500D01*
X20554534Y31481523D01*
X20749219Y31544780D01*
X20931610Y31637713D01*
X21037423Y31714590D01*
X21097213Y31758029D01*
X21097215Y31758032D01*
X21097219Y31758034D01*
X21241966Y31902781D01*
X21241968Y31902785D01*
X21241971Y31902787D01*
X21294732Y31975410D01*
X21362287Y32068390D01*
X21455220Y32250781D01*
X21518477Y32445466D01*
X21550500Y32647648D01*
X21550500Y32852352D01*
X21525932Y33007466D01*
X21518477Y33054535D01*
X21455218Y33249224D01*
X21395709Y33366015D01*
X21362287Y33431610D01*
X21348407Y33450714D01*
X21241971Y33597214D01*
X21097213Y33741972D01*
X20931613Y33862285D01*
X20931612Y33862286D01*
X20931610Y33862287D01*
X20874653Y33891309D01*
X20749223Y33955219D01*
X20554534Y34018478D01*
X20379995Y34046122D01*
X20352352Y34050500D01*
X20147648Y34050500D01*
X20123329Y34046649D01*
X19945465Y34018478D01*
X19750776Y33955219D01*
X19568386Y33862285D01*
X19402786Y33741972D01*
X19258028Y33597214D01*
X19137715Y33431614D01*
X19044781Y33249224D01*
X18981522Y33054535D01*
X18949500Y32852352D01*
X15050500Y32852352D01*
X15025932Y33007466D01*
X15018477Y33054535D01*
X14955218Y33249224D01*
X14895709Y33366015D01*
X14862287Y33431610D01*
X14848407Y33450714D01*
X14741971Y33597214D01*
X14597213Y33741972D01*
X14431613Y33862285D01*
X14431612Y33862286D01*
X14431610Y33862287D01*
X14374653Y33891309D01*
X14249223Y33955219D01*
X14054534Y34018478D01*
X13879995Y34046122D01*
X13852352Y34050500D01*
X13647648Y34050500D01*
X13623329Y34046649D01*
X13445465Y34018478D01*
X13250776Y33955219D01*
X13068386Y33862285D01*
X12902786Y33741972D01*
X12758028Y33597214D01*
X12637715Y33431614D01*
X12544781Y33249224D01*
X12481522Y33054535D01*
X12449500Y32852352D01*
X11786844Y32852352D01*
X11743247Y32912359D01*
X11743243Y32912364D01*
X11587363Y33068244D01*
X11587358Y33068248D01*
X11409025Y33197813D01*
X11409024Y33197814D01*
X11409022Y33197815D01*
X11346096Y33229878D01*
X11212606Y33297896D01*
X11212603Y33297897D01*
X11002952Y33366015D01*
X10887523Y33384297D01*
X10785222Y33400500D01*
X10564778Y33400500D01*
X10492201Y33389005D01*
X10347047Y33366015D01*
X10137396Y33297897D01*
X10137393Y33297896D01*
X9940974Y33197813D01*
X9762641Y33068248D01*
X9762636Y33068244D01*
X9606756Y32912364D01*
X9606752Y32912359D01*
X9477187Y32734026D01*
X9377104Y32537607D01*
X9377103Y32537604D01*
X9308985Y32327953D01*
X9274500Y32110222D01*
X1000000Y32110222D01*
X1000000Y37352352D01*
X12449500Y37352352D01*
X12449500Y37147649D01*
X12481522Y36945466D01*
X12544781Y36750777D01*
X12637715Y36568387D01*
X12758028Y36402787D01*
X12902786Y36258029D01*
X13057749Y36145444D01*
X13068390Y36137713D01*
X13184607Y36078497D01*
X13250776Y36044782D01*
X13250778Y36044782D01*
X13250781Y36044780D01*
X13355137Y36010873D01*
X13445465Y35981523D01*
X13546557Y35965512D01*
X13647648Y35949500D01*
X13647649Y35949500D01*
X13852351Y35949500D01*
X13852352Y35949500D01*
X14054534Y35981523D01*
X14249219Y36044780D01*
X14431610Y36137713D01*
X14524590Y36205268D01*
X14597213Y36258029D01*
X14597215Y36258032D01*
X14597219Y36258034D01*
X14741966Y36402781D01*
X14741968Y36402785D01*
X14741971Y36402787D01*
X14794732Y36475410D01*
X14862287Y36568390D01*
X14955220Y36750781D01*
X15018477Y36945466D01*
X15050500Y37147648D01*
X15050500Y37352352D01*
X18949500Y37352352D01*
X18949500Y37147649D01*
X18981522Y36945466D01*
X19044781Y36750777D01*
X19137715Y36568387D01*
X19258028Y36402787D01*
X19402786Y36258029D01*
X19557749Y36145444D01*
X19568390Y36137713D01*
X19684607Y36078497D01*
X19750776Y36044782D01*
X19750778Y36044782D01*
X19750781Y36044780D01*
X19855137Y36010873D01*
X19945465Y35981523D01*
X20046557Y35965512D01*
X20147648Y35949500D01*
X20147649Y35949500D01*
X20352351Y35949500D01*
X20352352Y35949500D01*
X20554534Y35981523D01*
X20749219Y36044780D01*
X20931610Y36137713D01*
X21024590Y36205268D01*
X21097213Y36258029D01*
X21097215Y36258032D01*
X21097219Y36258034D01*
X21241966Y36402781D01*
X21241968Y36402785D01*
X21241971Y36402787D01*
X21294732Y36475410D01*
X21362287Y36568390D01*
X21455220Y36750781D01*
X21518477Y36945466D01*
X21550500Y37147648D01*
X21550500Y37352352D01*
X21518477Y37554534D01*
X21455220Y37749219D01*
X21455218Y37749222D01*
X21455218Y37749224D01*
X21421503Y37815393D01*
X21362287Y37931610D01*
X21354556Y37942251D01*
X21241971Y38097214D01*
X21097213Y38241972D01*
X20931613Y38362285D01*
X20931612Y38362286D01*
X20931610Y38362287D01*
X20874653Y38391309D01*
X20749223Y38455219D01*
X20554534Y38518478D01*
X20379995Y38546122D01*
X20352352Y38550500D01*
X20147648Y38550500D01*
X20123329Y38546649D01*
X19945465Y38518478D01*
X19750776Y38455219D01*
X19568386Y38362285D01*
X19402786Y38241972D01*
X19258028Y38097214D01*
X19137715Y37931614D01*
X19044781Y37749224D01*
X18981522Y37554535D01*
X18949500Y37352352D01*
X15050500Y37352352D01*
X15018477Y37554534D01*
X14955220Y37749219D01*
X14955218Y37749222D01*
X14955218Y37749224D01*
X14921503Y37815393D01*
X14862287Y37931610D01*
X14854556Y37942251D01*
X14741971Y38097214D01*
X14597213Y38241972D01*
X14431613Y38362285D01*
X14431612Y38362286D01*
X14431610Y38362287D01*
X14374653Y38391309D01*
X14249223Y38455219D01*
X14054534Y38518478D01*
X13879995Y38546122D01*
X13852352Y38550500D01*
X13647648Y38550500D01*
X13623329Y38546649D01*
X13445465Y38518478D01*
X13250776Y38455219D01*
X13068386Y38362285D01*
X12902786Y38241972D01*
X12758028Y38097214D01*
X12637715Y37931614D01*
X12544781Y37749224D01*
X12481522Y37554535D01*
X12449500Y37352352D01*
X1000000Y37352352D01*
X1000000Y49049903D01*
X7349500Y49049903D01*
X7349500Y48790098D01*
X7390140Y48533507D01*
X7470422Y48286424D01*
X7551534Y48127236D01*
X7588366Y48054949D01*
X7741069Y47844771D01*
X7924771Y47661069D01*
X8134949Y47508366D01*
X8282445Y47433213D01*
X8366423Y47390423D01*
X8366425Y47390423D01*
X8366428Y47390421D01*
X8613507Y47310140D01*
X8745706Y47289203D01*
X8870098Y47269500D01*
X8870103Y47269500D01*
X9129902Y47269500D01*
X9243298Y47287461D01*
X9386493Y47310140D01*
X9633572Y47390421D01*
X9865051Y47508366D01*
X10075229Y47661069D01*
X10258931Y47844771D01*
X10411634Y48054949D01*
X10529579Y48286428D01*
X10609860Y48533507D01*
X10632539Y48676702D01*
X10650500Y48790098D01*
X10650500Y49049897D01*
X10650499Y49049903D01*
X10620253Y49240868D01*
X10629207Y49310158D01*
X10655042Y49347941D01*
X11860490Y50553386D01*
X11919799Y50656113D01*
X11926285Y50680325D01*
X11926286Y50680325D01*
X11926286Y50680329D01*
X11950500Y50770691D01*
X11950500Y52134535D01*
X11970185Y52201574D01*
X11986819Y52222216D01*
X16277784Y56513181D01*
X16339107Y56546666D01*
X16365465Y56549500D01*
X19440691Y56549500D01*
X19930691Y56549500D01*
X21103016Y56549500D01*
X21155421Y56537882D01*
X21159595Y56535936D01*
X21159596Y56535935D01*
X21266827Y56485932D01*
X21315683Y56479500D01*
X21315684Y56479500D01*
X21664317Y56479500D01*
X21680601Y56481644D01*
X21713173Y56485932D01*
X21820404Y56535935D01*
X21904065Y56619596D01*
X21904065Y56619597D01*
X21911736Y56627267D01*
X21914455Y56624548D01*
X21953284Y56655599D01*
X22022781Y56662809D01*
X22085143Y56631302D01*
X22088523Y56627403D01*
X22088680Y56627559D01*
X22179887Y56536352D01*
X22286960Y56486423D01*
X22286959Y56486423D01*
X22335736Y56480002D01*
X22335750Y56480001D01*
X22635000Y56480001D01*
X22684256Y56480001D01*
X22733038Y56486423D01*
X22733045Y56486425D01*
X22840112Y56536352D01*
X22923648Y56619888D01*
X22973577Y56726960D01*
X22979998Y56775735D01*
X22980000Y56775752D01*
X22980000Y56875000D01*
X22635000Y56875000D01*
X22635000Y56480001D01*
X22335750Y56480001D01*
X22384999Y56480002D01*
X22385000Y56480002D01*
X22385000Y57125000D01*
X22635000Y57125000D01*
X22979999Y57125000D01*
X22979999Y57224257D01*
X22973577Y57273039D01*
X22973575Y57273046D01*
X22923648Y57380113D01*
X22840112Y57463649D01*
X22733039Y57513578D01*
X22733040Y57513578D01*
X22684265Y57519999D01*
X22684248Y57520000D01*
X22635000Y57520000D01*
X22635000Y57125000D01*
X22385000Y57125000D01*
X22385000Y57520000D01*
X22384999Y57520001D01*
X22335744Y57520000D01*
X22286961Y57513578D01*
X22286954Y57513576D01*
X22179887Y57463649D01*
X22088680Y57372441D01*
X22085895Y57375226D01*
X22047253Y57344368D01*
X21977752Y57337208D01*
X21915412Y57368760D01*
X21911861Y57372859D01*
X21911736Y57372733D01*
X21820404Y57464065D01*
X21713173Y57514068D01*
X21713171Y57514069D01*
X21713172Y57514069D01*
X21664317Y57520500D01*
X21664316Y57520500D01*
X21315684Y57520500D01*
X21315683Y57520500D01*
X21266828Y57514069D01*
X21155421Y57462118D01*
X21103016Y57450500D01*
X16068191Y57450500D01*
X15977825Y57426287D01*
X15977824Y57426288D01*
X15953616Y57419801D01*
X15953613Y57419800D01*
X15850886Y57360489D01*
X15850883Y57360487D01*
X11139513Y52649117D01*
X11139509Y52649111D01*
X11080201Y52546388D01*
X11080200Y52546383D01*
X11049500Y52431809D01*
X11049500Y51067966D01*
X11029815Y51000927D01*
X11013181Y50980285D01*
X10229232Y50196337D01*
X10167909Y50162852D01*
X10098217Y50167836D01*
X10068666Y50183700D01*
X9865054Y50331632D01*
X9865053Y50331633D01*
X9865051Y50331634D01*
X9792764Y50368466D01*
X9633576Y50449578D01*
X9386493Y50529860D01*
X9129902Y50570500D01*
X9129897Y50570500D01*
X8870103Y50570500D01*
X8870098Y50570500D01*
X8613506Y50529860D01*
X8366423Y50449578D01*
X8134945Y50331632D01*
X7924774Y50178934D01*
X7924768Y50178929D01*
X7741071Y49995232D01*
X7741066Y49995226D01*
X7588368Y49785055D01*
X7470422Y49553577D01*
X7390140Y49306494D01*
X7349500Y49049903D01*
X1000000Y49049903D01*
X1000000Y55089355D01*
X7349500Y55089355D01*
X7349500Y52910637D01*
X7364953Y52793247D01*
X7364956Y52793238D01*
X7425464Y52647159D01*
X7521718Y52521718D01*
X7647159Y52425464D01*
X7793238Y52364956D01*
X7910639Y52349500D01*
X10089360Y52349501D01*
X10089363Y52349501D01*
X10206753Y52364954D01*
X10206757Y52364956D01*
X10206762Y52364956D01*
X10352841Y52425464D01*
X10478282Y52521718D01*
X10574536Y52647159D01*
X10635044Y52793238D01*
X10650500Y52910639D01*
X10650499Y54524536D01*
X10670184Y54591574D01*
X10686818Y54612216D01*
X10877244Y54802642D01*
X11110489Y55035886D01*
X11169798Y55138613D01*
X11169799Y55138614D01*
X11200500Y55253191D01*
X11200500Y56746410D01*
X11220185Y56813449D01*
X11236819Y56834091D01*
X15915909Y61513181D01*
X15977232Y61546666D01*
X16003590Y61549500D01*
X19440691Y61549500D01*
X19930691Y61549500D01*
X21103016Y61549500D01*
X21155421Y61537882D01*
X21159595Y61535936D01*
X21159596Y61535935D01*
X21266827Y61485932D01*
X21315683Y61479500D01*
X21315684Y61479500D01*
X21664317Y61479500D01*
X21685888Y61482340D01*
X21713173Y61485932D01*
X21820404Y61535935D01*
X21904065Y61619596D01*
X21904065Y61619597D01*
X21911736Y61627267D01*
X21914455Y61624548D01*
X21953284Y61655599D01*
X22022781Y61662809D01*
X22085143Y61631302D01*
X22088523Y61627403D01*
X22088680Y61627559D01*
X22179887Y61536352D01*
X22286960Y61486423D01*
X22286959Y61486423D01*
X22335736Y61480002D01*
X22335750Y61480001D01*
X22635000Y61480001D01*
X22684256Y61480001D01*
X22733038Y61486423D01*
X22733045Y61486425D01*
X22840112Y61536352D01*
X22923648Y61619888D01*
X22973577Y61726960D01*
X22979998Y61775735D01*
X22980000Y61775752D01*
X22980000Y61875000D01*
X22635000Y61875000D01*
X22635000Y61480001D01*
X22335750Y61480001D01*
X22384999Y61480002D01*
X22385000Y61480002D01*
X22385000Y62125000D01*
X22635000Y62125000D01*
X22979999Y62125000D01*
X22979999Y62224257D01*
X22973577Y62273039D01*
X22973575Y62273046D01*
X22923648Y62380113D01*
X22840112Y62463649D01*
X22733039Y62513578D01*
X22733040Y62513578D01*
X22684265Y62519999D01*
X22684248Y62520000D01*
X22635000Y62520000D01*
X22635000Y62125000D01*
X22385000Y62125000D01*
X22385000Y62520000D01*
X22384999Y62520001D01*
X22335744Y62520000D01*
X22286961Y62513578D01*
X22286954Y62513576D01*
X22179887Y62463649D01*
X22088680Y62372441D01*
X22085895Y62375226D01*
X22047253Y62344368D01*
X21977752Y62337208D01*
X21915412Y62368760D01*
X21911861Y62372859D01*
X21911736Y62372733D01*
X21820404Y62464065D01*
X21808749Y62469500D01*
X21713173Y62514068D01*
X21713171Y62514069D01*
X21713172Y62514069D01*
X21664317Y62520500D01*
X21664316Y62520500D01*
X21315684Y62520500D01*
X21315683Y62520500D01*
X21266828Y62514069D01*
X21180037Y62473598D01*
X21171254Y62469501D01*
X21155421Y62462118D01*
X21103016Y62450500D01*
X15706316Y62450500D01*
X15615950Y62426287D01*
X15615949Y62426288D01*
X15591741Y62419801D01*
X15591738Y62419800D01*
X15489011Y62360489D01*
X15489008Y62360487D01*
X10389513Y57260992D01*
X10389509Y57260986D01*
X10330201Y57158263D01*
X10330200Y57158258D01*
X10299500Y57043684D01*
X10299500Y55764230D01*
X10279815Y55697191D01*
X10227011Y55651436D01*
X10159315Y55641291D01*
X10089371Y55650499D01*
X10089366Y55650500D01*
X10089361Y55650500D01*
X10089354Y55650500D01*
X7910636Y55650500D01*
X7793246Y55635047D01*
X7793237Y55635044D01*
X7647160Y55574537D01*
X7521718Y55478282D01*
X7425463Y55352840D01*
X7364956Y55206763D01*
X7364955Y55206761D01*
X7349501Y55089371D01*
X7349500Y55089355D01*
X1000000Y55089355D01*
X1000000Y61545929D01*
X7400000Y61545929D01*
X7400000Y61294072D01*
X7439397Y61045331D01*
X7517219Y60805816D01*
X7631559Y60581414D01*
X7750380Y60417870D01*
X7750381Y60417869D01*
X8432247Y61099735D01*
X8495112Y61005649D01*
X8585649Y60915112D01*
X8679733Y60852248D01*
X7997867Y60170383D01*
X7997868Y60170381D01*
X8161413Y60051560D01*
X8385815Y59937220D01*
X8625330Y59859398D01*
X8874072Y59820000D01*
X9125928Y59820000D01*
X9374669Y59859398D01*
X9614184Y59937220D01*
X9838583Y60051558D01*
X10002130Y60170383D01*
X10002131Y60170383D01*
X9320266Y60852248D01*
X9414351Y60915112D01*
X9504888Y61005649D01*
X9567752Y61099734D01*
X10249617Y60417869D01*
X10249617Y60417870D01*
X10368442Y60581417D01*
X10482780Y60805816D01*
X10560602Y61045331D01*
X10600000Y61294072D01*
X10600000Y61545929D01*
X10560602Y61794670D01*
X10482780Y62034185D01*
X10368440Y62258587D01*
X10249619Y62422132D01*
X10249617Y62422133D01*
X9567752Y61740267D01*
X9504888Y61834351D01*
X9414351Y61924888D01*
X9320264Y61987754D01*
X10002131Y62669619D01*
X10002130Y62669620D01*
X9838586Y62788441D01*
X9614184Y62902781D01*
X9374669Y62980603D01*
X9125928Y63020000D01*
X8874072Y63020000D01*
X8625330Y62980603D01*
X8385815Y62902781D01*
X8161413Y62788441D01*
X7997868Y62669620D01*
X7997868Y62669618D01*
X8679733Y61987753D01*
X8585649Y61924888D01*
X8495112Y61834351D01*
X8432247Y61740267D01*
X7750382Y62422132D01*
X7750380Y62422132D01*
X7631559Y62258587D01*
X7517219Y62034185D01*
X7439397Y61794670D01*
X7400000Y61545929D01*
X1000000Y61545929D01*
X1000000Y67600017D01*
X7199500Y67600017D01*
X7199500Y65399999D01*
X7199501Y65399982D01*
X7210000Y65297204D01*
X7210001Y65297201D01*
X7255465Y65160001D01*
X7265186Y65130666D01*
X7357288Y64981344D01*
X7481344Y64857288D01*
X7630666Y64765186D01*
X7797203Y64710001D01*
X7899991Y64699500D01*
X10100008Y64699501D01*
X10202797Y64710001D01*
X10369334Y64765186D01*
X10518656Y64857288D01*
X10642712Y64981344D01*
X10734814Y65130666D01*
X10789999Y65297203D01*
X10800500Y65399991D01*
X10800499Y67600008D01*
X10789999Y67702797D01*
X10734814Y67869334D01*
X10642712Y68018656D01*
X10518656Y68142712D01*
X10369334Y68234814D01*
X10202797Y68289999D01*
X10202795Y68290000D01*
X10100010Y68300500D01*
X7899998Y68300500D01*
X7899981Y68300499D01*
X7797203Y68290000D01*
X7797200Y68289999D01*
X7630668Y68234815D01*
X7630663Y68234813D01*
X7481342Y68142711D01*
X7357289Y68018658D01*
X7265187Y67869337D01*
X7265185Y67869332D01*
X7237349Y67785330D01*
X7210001Y67702797D01*
X7210001Y67702796D01*
X7210000Y67702796D01*
X7199500Y67600017D01*
X1000000Y67600017D01*
X1000000Y114020935D01*
X1014011Y114078192D01*
X1100822Y114244955D01*
X1106217Y114254300D01*
X1271419Y114513616D01*
X1324042Y114559579D01*
X1393160Y114569797D01*
X1456830Y114541024D01*
X1494838Y114482396D01*
X1500000Y114446991D01*
X1500000Y108500000D01*
X8500000Y108500000D01*
X8500000Y115500000D01*
X2553010Y115500000D01*
X2485971Y115519685D01*
X2440216Y115572489D01*
X2430272Y115641647D01*
X2459297Y115705203D01*
X2486385Y115728581D01*
X2745700Y115893783D01*
X2755045Y115899178D01*
X2921809Y115985990D01*
X2979065Y116000000D01*
X91520935Y116000000D01*
X91578190Y115985990D01*
G37*
%TD.AperFunction*%
%TA.AperFunction,Conductor*%
G36*
X58544712Y75033762D02*
G01*
X58596188Y74986518D01*
X58607931Y74960804D01*
X58647454Y74839164D01*
X58719754Y74697269D01*
X58733240Y74670801D01*
X58844310Y74517927D01*
X58977927Y74384310D01*
X59130801Y74273240D01*
X59237053Y74219102D01*
X59241795Y74216686D01*
X59292591Y74168712D01*
X59309500Y74106201D01*
X59309500Y71902955D01*
X59305275Y71870863D01*
X59299500Y71849311D01*
X59299500Y69862965D01*
X59279815Y69795926D01*
X59263181Y69775284D01*
X54724716Y65236819D01*
X54663393Y65203334D01*
X54637035Y65200500D01*
X41253191Y65200500D01*
X41184444Y65182080D01*
X41138612Y65169799D01*
X41138607Y65169796D01*
X41095195Y65144733D01*
X41095196Y65144732D01*
X41035889Y65110492D01*
X41035883Y65110487D01*
X39639513Y63714117D01*
X39639509Y63714111D01*
X39580200Y63611386D01*
X39580199Y63611382D01*
X39559852Y63535450D01*
X39527759Y63479864D01*
X39513730Y63465835D01*
X39458144Y63433742D01*
X39430327Y63426288D01*
X39406116Y63419801D01*
X39406113Y63419800D01*
X39372686Y63400500D01*
X39349498Y63387113D01*
X39287499Y63370500D01*
X36193799Y63370500D01*
X36126760Y63390185D01*
X36083314Y63438205D01*
X36033765Y63535450D01*
X36026760Y63549199D01*
X35915690Y63702073D01*
X35782073Y63835690D01*
X35629199Y63946760D01*
X35460836Y64032546D01*
X35369145Y64062338D01*
X35339195Y64072070D01*
X35281521Y64111507D01*
X35254323Y64175866D01*
X35266238Y64244712D01*
X35313482Y64296188D01*
X35339194Y64307931D01*
X35460832Y64347453D01*
X35629199Y64433240D01*
X35782073Y64544310D01*
X35915690Y64677927D01*
X36026760Y64830801D01*
X36083314Y64941796D01*
X36131288Y64992591D01*
X36193799Y65009500D01*
X39559308Y65009500D01*
X39559309Y65009500D01*
X39649673Y65033714D01*
X39657158Y65035720D01*
X39681743Y65042305D01*
X39681899Y65041722D01*
X39721002Y65049500D01*
X39731183Y65049500D01*
X39731184Y65049500D01*
X39821548Y65073714D01*
X39845762Y65080201D01*
X39948489Y65139511D01*
X40360490Y65551511D01*
X40419799Y65654238D01*
X40435342Y65712248D01*
X40467433Y65767832D01*
X41462784Y66763181D01*
X41524107Y66796666D01*
X41550465Y66799500D01*
X45229192Y66799500D01*
X45296231Y66779815D01*
X45316873Y66763181D01*
X45335327Y66744727D01*
X45335331Y66744724D01*
X45441866Y66673539D01*
X45441872Y66673536D01*
X45441873Y66673535D01*
X45560256Y66624499D01*
X45560260Y66624499D01*
X45560261Y66624498D01*
X45685928Y66599500D01*
X45685931Y66599500D01*
X45814071Y66599500D01*
X45898615Y66616318D01*
X45939744Y66624499D01*
X46058127Y66673535D01*
X46164669Y66744724D01*
X46166891Y66746946D01*
X46183127Y66763181D01*
X46244450Y66796666D01*
X46270808Y66799500D01*
X54309308Y66799500D01*
X54309309Y66799500D01*
X54399673Y66823714D01*
X54423887Y66830201D01*
X54526614Y66889511D01*
X57610490Y69973386D01*
X57669799Y70076113D01*
X57676285Y70100325D01*
X57676286Y70100325D01*
X57676286Y70100329D01*
X57700500Y70190691D01*
X57700500Y71309309D01*
X57700500Y71309310D01*
X57700500Y71829309D01*
X57674725Y71925503D01*
X57670500Y71957596D01*
X57670500Y74106201D01*
X57690185Y74173240D01*
X57738205Y74216686D01*
X57742947Y74219102D01*
X57849199Y74273240D01*
X58002073Y74384310D01*
X58135690Y74517927D01*
X58246760Y74670801D01*
X58332547Y74839168D01*
X58372069Y74960805D01*
X58411507Y75018479D01*
X58475866Y75045677D01*
X58544712Y75033762D01*
G37*
%TD.AperFunction*%
%TA.AperFunction,Conductor*%
G36*
X56004712Y75033762D02*
G01*
X56056188Y74986518D01*
X56067931Y74960804D01*
X56107454Y74839164D01*
X56179754Y74697269D01*
X56193240Y74670801D01*
X56304310Y74517927D01*
X56437927Y74384310D01*
X56590801Y74273240D01*
X56697053Y74219102D01*
X56701795Y74216686D01*
X56752591Y74168712D01*
X56769500Y74106201D01*
X56769500Y71740691D01*
X56788257Y71670691D01*
X56795275Y71644497D01*
X56799500Y71612407D01*
X56799500Y70487966D01*
X56779815Y70420927D01*
X56763181Y70400285D01*
X54099716Y67736819D01*
X54038393Y67703334D01*
X54012035Y67700500D01*
X46270808Y67700500D01*
X46203769Y67720185D01*
X46183127Y67736819D01*
X46164672Y67755274D01*
X46164668Y67755277D01*
X46058133Y67826462D01*
X46058124Y67826467D01*
X45939744Y67875501D01*
X45939738Y67875503D01*
X45814071Y67900500D01*
X45814069Y67900500D01*
X45685931Y67900500D01*
X45685929Y67900500D01*
X45560261Y67875503D01*
X45560255Y67875501D01*
X45441875Y67826467D01*
X45441866Y67826462D01*
X45335331Y67755277D01*
X45335327Y67755274D01*
X45316873Y67736819D01*
X45255550Y67703334D01*
X45229192Y67700500D01*
X41253191Y67700500D01*
X41184444Y67682080D01*
X41138612Y67669799D01*
X41138607Y67669796D01*
X41095195Y67644733D01*
X41095196Y67644732D01*
X41035889Y67610492D01*
X41035883Y67610487D01*
X39639513Y66214117D01*
X39639509Y66214111D01*
X39580201Y66111388D01*
X39580200Y66111383D01*
X39580199Y66111384D01*
X39564657Y66053381D01*
X39532566Y65997797D01*
X39510443Y65975673D01*
X39454854Y65943577D01*
X39369969Y65920832D01*
X39369968Y65920833D01*
X39358266Y65917696D01*
X39358109Y65918280D01*
X39318999Y65910500D01*
X36193799Y65910500D01*
X36126760Y65930185D01*
X36083314Y65978205D01*
X36026759Y66089200D01*
X36010642Y66111383D01*
X35915690Y66242073D01*
X35782073Y66375690D01*
X35629199Y66486760D01*
X35547395Y66528441D01*
X35475615Y66565015D01*
X35424819Y66612990D01*
X35408024Y66680811D01*
X35430561Y66746946D01*
X35485277Y66790397D01*
X35531910Y66799500D01*
X35883261Y66799500D01*
X35905971Y66802809D01*
X35951393Y66809427D01*
X36056483Y66860802D01*
X36139198Y66943517D01*
X36190573Y67048607D01*
X36200500Y67116740D01*
X36200500Y67425500D01*
X36220185Y67492539D01*
X36272989Y67538294D01*
X36324500Y67549500D01*
X39684308Y67549500D01*
X39684309Y67549500D01*
X39774673Y67573714D01*
X39798887Y67580201D01*
X39901614Y67639511D01*
X40096810Y67834709D01*
X40158129Y67868191D01*
X40160216Y67868626D01*
X40189744Y67874499D01*
X40308127Y67923535D01*
X40414669Y67994724D01*
X40505276Y68085331D01*
X40576465Y68191873D01*
X40625501Y68310256D01*
X40650500Y68435931D01*
X40650500Y68564069D01*
X40650500Y68564072D01*
X40625502Y68689739D01*
X40625501Y68689742D01*
X40625501Y68689744D01*
X40624649Y68691799D01*
X40624525Y68692961D01*
X40623734Y68695568D01*
X40624228Y68695719D01*
X40617183Y68761268D01*
X40648459Y68823746D01*
X40651502Y68826901D01*
X42587784Y70763181D01*
X42649107Y70796666D01*
X42675465Y70799500D01*
X54449308Y70799500D01*
X54449309Y70799500D01*
X54539673Y70823714D01*
X54563887Y70830201D01*
X54666614Y70889511D01*
X55110489Y71333386D01*
X55169799Y71436113D01*
X55190504Y71513386D01*
X55200500Y71550691D01*
X55200500Y71789309D01*
X55174423Y71886630D01*
X55169799Y71903887D01*
X55169799Y71903888D01*
X55147113Y71943181D01*
X55130500Y72005181D01*
X55130500Y74106201D01*
X55150185Y74173240D01*
X55198205Y74216686D01*
X55202947Y74219102D01*
X55309199Y74273240D01*
X55462073Y74384310D01*
X55595690Y74517927D01*
X55706760Y74670801D01*
X55792547Y74839168D01*
X55832069Y74960805D01*
X55871507Y75018479D01*
X55935866Y75045677D01*
X56004712Y75033762D01*
G37*
%TD.AperFunction*%
%TA.AperFunction,Conductor*%
G36*
X53464712Y75033762D02*
G01*
X53516188Y74986518D01*
X53527931Y74960804D01*
X53567454Y74839164D01*
X53639754Y74697269D01*
X53653240Y74670801D01*
X53764310Y74517927D01*
X53897927Y74384310D01*
X54050801Y74273240D01*
X54157053Y74219102D01*
X54161795Y74216686D01*
X54212591Y74168712D01*
X54229500Y74106201D01*
X54229500Y71824500D01*
X54209815Y71757461D01*
X54157011Y71711706D01*
X54105500Y71700500D01*
X42378191Y71700500D01*
X42266942Y71670691D01*
X42263618Y71669801D01*
X42263607Y71669796D01*
X42160893Y71610495D01*
X42160885Y71610489D01*
X39639512Y69089117D01*
X39607158Y69033079D01*
X39587454Y69007400D01*
X39494723Y68914669D01*
X39423538Y68808134D01*
X39423533Y68808125D01*
X39374499Y68689745D01*
X39374497Y68689739D01*
X39349500Y68564073D01*
X39349330Y68562344D01*
X39348987Y68561497D01*
X39348311Y68558094D01*
X39347665Y68558223D01*
X39323168Y68497557D01*
X39266132Y68457199D01*
X39225927Y68450500D01*
X36324500Y68450500D01*
X36257461Y68470185D01*
X36211706Y68522989D01*
X36200500Y68574500D01*
X36200500Y68883261D01*
X36193185Y68933467D01*
X36190573Y68951393D01*
X36139198Y69056483D01*
X36139196Y69056485D01*
X36139196Y69056486D01*
X36056485Y69139197D01*
X35951391Y69190574D01*
X35883261Y69200500D01*
X35883260Y69200500D01*
X34324500Y69200500D01*
X34257461Y69220185D01*
X34211706Y69272989D01*
X34200500Y69324500D01*
X34200500Y73975500D01*
X34220185Y74042539D01*
X34272989Y74088294D01*
X34324500Y74099500D01*
X34454486Y74099500D01*
X34641118Y74129060D01*
X34687526Y74144139D01*
X34820832Y74187453D01*
X34989199Y74273240D01*
X35142073Y74384310D01*
X35275690Y74517927D01*
X35386760Y74670801D01*
X35472547Y74839168D01*
X35512069Y74960805D01*
X35551507Y75018479D01*
X35615866Y75045677D01*
X35684712Y75033762D01*
X35736188Y74986518D01*
X35747931Y74960804D01*
X35787454Y74839164D01*
X35859754Y74697269D01*
X35873240Y74670801D01*
X35984310Y74517927D01*
X36117927Y74384310D01*
X36270801Y74273240D01*
X36347318Y74234253D01*
X36439163Y74187455D01*
X36439165Y74187455D01*
X36439168Y74187453D01*
X36517516Y74161996D01*
X36618881Y74129060D01*
X36805514Y74099500D01*
X36805519Y74099500D01*
X36994486Y74099500D01*
X37181118Y74129060D01*
X37227526Y74144139D01*
X37360832Y74187453D01*
X37529199Y74273240D01*
X37682073Y74384310D01*
X37815690Y74517927D01*
X37926760Y74670801D01*
X38012547Y74839168D01*
X38052069Y74960805D01*
X38091507Y75018479D01*
X38155866Y75045677D01*
X38224712Y75033762D01*
X38276188Y74986518D01*
X38287931Y74960804D01*
X38327454Y74839164D01*
X38399754Y74697269D01*
X38413240Y74670801D01*
X38524310Y74517927D01*
X38657927Y74384310D01*
X38810801Y74273240D01*
X38887318Y74234253D01*
X38979163Y74187455D01*
X38979165Y74187455D01*
X38979168Y74187453D01*
X39057516Y74161996D01*
X39158881Y74129060D01*
X39345514Y74099500D01*
X39345519Y74099500D01*
X39534486Y74099500D01*
X39721118Y74129060D01*
X39767526Y74144139D01*
X39900832Y74187453D01*
X40069199Y74273240D01*
X40222073Y74384310D01*
X40355690Y74517927D01*
X40466760Y74670801D01*
X40552547Y74839168D01*
X40592069Y74960805D01*
X40631507Y75018479D01*
X40695866Y75045677D01*
X40764712Y75033762D01*
X40816188Y74986518D01*
X40827931Y74960804D01*
X40867454Y74839164D01*
X40939754Y74697269D01*
X40953240Y74670801D01*
X41064310Y74517927D01*
X41197927Y74384310D01*
X41350801Y74273240D01*
X41427318Y74234253D01*
X41519163Y74187455D01*
X41519165Y74187455D01*
X41519168Y74187453D01*
X41597516Y74161996D01*
X41698881Y74129060D01*
X41885514Y74099500D01*
X41885519Y74099500D01*
X42074486Y74099500D01*
X42261118Y74129060D01*
X42307526Y74144139D01*
X42440832Y74187453D01*
X42609199Y74273240D01*
X42762073Y74384310D01*
X42895690Y74517927D01*
X43006760Y74670801D01*
X43092547Y74839168D01*
X43132069Y74960805D01*
X43171507Y75018479D01*
X43235866Y75045677D01*
X43304712Y75033762D01*
X43356188Y74986518D01*
X43367931Y74960804D01*
X43407454Y74839164D01*
X43479754Y74697269D01*
X43493240Y74670801D01*
X43604310Y74517927D01*
X43737927Y74384310D01*
X43890801Y74273240D01*
X43967318Y74234253D01*
X44059163Y74187455D01*
X44059165Y74187455D01*
X44059168Y74187453D01*
X44137516Y74161996D01*
X44238881Y74129060D01*
X44425514Y74099500D01*
X44425519Y74099500D01*
X44614486Y74099500D01*
X44801118Y74129060D01*
X44847526Y74144139D01*
X44980832Y74187453D01*
X45149199Y74273240D01*
X45302073Y74384310D01*
X45435690Y74517927D01*
X45546760Y74670801D01*
X45632547Y74839168D01*
X45672069Y74960805D01*
X45711507Y75018479D01*
X45775866Y75045677D01*
X45844712Y75033762D01*
X45896188Y74986518D01*
X45907931Y74960804D01*
X45947454Y74839164D01*
X46019754Y74697269D01*
X46033240Y74670801D01*
X46144310Y74517927D01*
X46277927Y74384310D01*
X46430801Y74273240D01*
X46507318Y74234253D01*
X46599163Y74187455D01*
X46599165Y74187455D01*
X46599168Y74187453D01*
X46677516Y74161996D01*
X46778881Y74129060D01*
X46965514Y74099500D01*
X46965519Y74099500D01*
X47154486Y74099500D01*
X47341118Y74129060D01*
X47387526Y74144139D01*
X47520832Y74187453D01*
X47689199Y74273240D01*
X47842073Y74384310D01*
X47975690Y74517927D01*
X48086760Y74670801D01*
X48172547Y74839168D01*
X48212069Y74960805D01*
X48251507Y75018479D01*
X48315866Y75045677D01*
X48384712Y75033762D01*
X48436188Y74986518D01*
X48447931Y74960804D01*
X48487454Y74839164D01*
X48559754Y74697269D01*
X48573240Y74670801D01*
X48684310Y74517927D01*
X48817927Y74384310D01*
X48970801Y74273240D01*
X49047318Y74234253D01*
X49139163Y74187455D01*
X49139165Y74187455D01*
X49139168Y74187453D01*
X49217516Y74161996D01*
X49318881Y74129060D01*
X49505514Y74099500D01*
X49505519Y74099500D01*
X49694486Y74099500D01*
X49881118Y74129060D01*
X49927526Y74144139D01*
X50060832Y74187453D01*
X50229199Y74273240D01*
X50382073Y74384310D01*
X50515690Y74517927D01*
X50626760Y74670801D01*
X50712547Y74839168D01*
X50752069Y74960805D01*
X50791507Y75018479D01*
X50855866Y75045677D01*
X50924712Y75033762D01*
X50976188Y74986518D01*
X50987931Y74960804D01*
X51027454Y74839164D01*
X51099754Y74697269D01*
X51113240Y74670801D01*
X51224310Y74517927D01*
X51357927Y74384310D01*
X51510801Y74273240D01*
X51587318Y74234253D01*
X51679163Y74187455D01*
X51679165Y74187455D01*
X51679168Y74187453D01*
X51757516Y74161996D01*
X51858881Y74129060D01*
X52045514Y74099500D01*
X52045519Y74099500D01*
X52234486Y74099500D01*
X52421118Y74129060D01*
X52467526Y74144139D01*
X52600832Y74187453D01*
X52769199Y74273240D01*
X52922073Y74384310D01*
X53055690Y74517927D01*
X53166760Y74670801D01*
X53252547Y74839168D01*
X53292069Y74960805D01*
X53331507Y75018479D01*
X53395866Y75045677D01*
X53464712Y75033762D01*
G37*
%TD.AperFunction*%
%TA.AperFunction,Conductor*%
G36*
X50924712Y100433762D02*
G01*
X50976188Y100386518D01*
X50987931Y100360804D01*
X51027454Y100239164D01*
X51099217Y100098323D01*
X51113240Y100070801D01*
X51224310Y99917927D01*
X51357927Y99784310D01*
X51510801Y99673240D01*
X51569136Y99643517D01*
X51621795Y99616686D01*
X51672591Y99568712D01*
X51689500Y99506201D01*
X51689500Y97140689D01*
X51697592Y97110492D01*
X51697592Y97110489D01*
X51697593Y97110489D01*
X51720201Y97026113D01*
X51779511Y96923386D01*
X51779512Y96923385D01*
X51782887Y96917540D01*
X51799500Y96855539D01*
X51799500Y91878192D01*
X51823712Y91787828D01*
X51830200Y91763615D01*
X51830200Y91763614D01*
X51830201Y91763613D01*
X51889511Y91660886D01*
X51889513Y91660884D01*
X66388216Y77162181D01*
X66421701Y77100858D01*
X66416717Y77031166D01*
X66374845Y76975233D01*
X66309381Y76950816D01*
X66300535Y76950500D01*
X33151629Y76950500D01*
X33082882Y76932080D01*
X33037050Y76919799D01*
X33037045Y76919796D01*
X32993633Y76894733D01*
X32993634Y76894732D01*
X32934327Y76860492D01*
X32934321Y76860487D01*
X32639513Y76565679D01*
X32639509Y76565673D01*
X32580201Y76462950D01*
X32580200Y76462945D01*
X32571987Y76432297D01*
X32535621Y76372637D01*
X32472774Y76342109D01*
X32403398Y76350406D01*
X32395918Y76353908D01*
X32280836Y76412546D01*
X32101118Y76470941D01*
X31914486Y76500500D01*
X31914481Y76500500D01*
X31725519Y76500500D01*
X31725514Y76500500D01*
X31538881Y76470941D01*
X31359163Y76412546D01*
X31190800Y76326760D01*
X31145975Y76294192D01*
X31037927Y76215690D01*
X31037925Y76215688D01*
X31037924Y76215688D01*
X30904312Y76082076D01*
X30904312Y76082075D01*
X30904310Y76082073D01*
X30880644Y76049500D01*
X30793240Y75929200D01*
X30707454Y75760837D01*
X30667931Y75639197D01*
X30628493Y75581522D01*
X30564134Y75554324D01*
X30495288Y75566239D01*
X30443812Y75613484D01*
X30432069Y75639197D01*
X30392545Y75760837D01*
X30347290Y75849653D01*
X30306760Y75929199D01*
X30195690Y76082073D01*
X30062073Y76215690D01*
X29909199Y76326760D01*
X29862968Y76350316D01*
X29740836Y76412546D01*
X29561118Y76470941D01*
X29374486Y76500500D01*
X29374481Y76500500D01*
X29185519Y76500500D01*
X29185514Y76500500D01*
X28998881Y76470941D01*
X28819163Y76412546D01*
X28650800Y76326760D01*
X28605975Y76294192D01*
X28497927Y76215690D01*
X28497925Y76215688D01*
X28497924Y76215688D01*
X28364312Y76082076D01*
X28364312Y76082075D01*
X28364310Y76082073D01*
X28340644Y76049500D01*
X28253240Y75929200D01*
X28167454Y75760837D01*
X28127931Y75639197D01*
X28088493Y75581522D01*
X28024134Y75554324D01*
X27955288Y75566239D01*
X27903812Y75613484D01*
X27892069Y75639197D01*
X27852545Y75760837D01*
X27807290Y75849653D01*
X27766760Y75929199D01*
X27655690Y76082073D01*
X27522073Y76215690D01*
X27369199Y76326760D01*
X27322968Y76350316D01*
X27200836Y76412546D01*
X27021118Y76470941D01*
X26834486Y76500500D01*
X26834481Y76500500D01*
X26645519Y76500500D01*
X26645514Y76500500D01*
X26458881Y76470941D01*
X26279163Y76412546D01*
X26110800Y76326760D01*
X26065975Y76294192D01*
X25957927Y76215690D01*
X25957925Y76215688D01*
X25957924Y76215688D01*
X25824312Y76082076D01*
X25824312Y76082075D01*
X25824310Y76082073D01*
X25800644Y76049500D01*
X25713240Y75929200D01*
X25627454Y75760837D01*
X25569059Y75581119D01*
X25569059Y75581118D01*
X25566906Y75567525D01*
X25536973Y75504392D01*
X25477660Y75467464D01*
X25407797Y75468466D01*
X25349567Y75507079D01*
X25323272Y75564670D01*
X25322819Y75564561D01*
X25322261Y75566885D01*
X25321958Y75567549D01*
X25321681Y75569299D01*
X25265748Y75741445D01*
X25265747Y75741448D01*
X25183565Y75902735D01*
X25127453Y75979967D01*
X25127452Y75979968D01*
X24656610Y75509126D01*
X24600099Y75607007D01*
X24507007Y75700099D01*
X24409124Y75756612D01*
X24879965Y76227453D01*
X24879965Y76227455D01*
X24802734Y76283566D01*
X24641447Y76365748D01*
X24641444Y76365749D01*
X24469293Y76421683D01*
X24290506Y76450000D01*
X24109494Y76450000D01*
X23930706Y76421683D01*
X23758555Y76365749D01*
X23758552Y76365748D01*
X23597272Y76283570D01*
X23520033Y76227454D01*
X23990875Y75756612D01*
X23892993Y75700099D01*
X23799901Y75607007D01*
X23743388Y75509125D01*
X23272546Y75979967D01*
X23216430Y75902728D01*
X23134252Y75741448D01*
X23134251Y75741445D01*
X23078317Y75569294D01*
X23052473Y75406121D01*
X23022544Y75342986D01*
X22963232Y75306055D01*
X22893370Y75307053D01*
X22835137Y75345663D01*
X22807527Y75406121D01*
X22781682Y75569294D01*
X22725748Y75741445D01*
X22725747Y75741448D01*
X22643565Y75902735D01*
X22587453Y75979967D01*
X22587452Y75979968D01*
X22116610Y75509126D01*
X22060099Y75607007D01*
X21967007Y75700099D01*
X21869123Y75756612D01*
X22339965Y76227453D01*
X22339965Y76227455D01*
X22262734Y76283566D01*
X22101447Y76365748D01*
X22101444Y76365749D01*
X21929293Y76421683D01*
X21750506Y76450000D01*
X21569494Y76450000D01*
X21390706Y76421683D01*
X21218555Y76365749D01*
X21218552Y76365748D01*
X21057266Y76283567D01*
X20947384Y76203734D01*
X20881578Y76180255D01*
X20813524Y76196081D01*
X20764830Y76246187D01*
X20750500Y76304053D01*
X20750500Y96434646D01*
X20770185Y96501685D01*
X20786819Y96522327D01*
X22477673Y98213181D01*
X22538996Y98246666D01*
X22565354Y98249500D01*
X23011420Y98249500D01*
X23108962Y98268904D01*
X23156413Y98278342D01*
X23292995Y98334916D01*
X23352235Y98374499D01*
X23415916Y98417048D01*
X24327798Y99328933D01*
X24389119Y99362416D01*
X24396031Y99363715D01*
X24516243Y99382754D01*
X24718412Y99448443D01*
X24907816Y99544949D01*
X24944161Y99571355D01*
X25079786Y99669891D01*
X25079788Y99669894D01*
X25079792Y99669896D01*
X25230104Y99820208D01*
X25230106Y99820212D01*
X25230109Y99820214D01*
X25355048Y99992180D01*
X25355047Y99992180D01*
X25355051Y99992184D01*
X25443689Y100166148D01*
X25491663Y100216943D01*
X25559484Y100233738D01*
X25625619Y100211201D01*
X25664658Y100166148D01*
X25713240Y100070801D01*
X25824310Y99917927D01*
X25957927Y99784310D01*
X26110801Y99673240D01*
X26169136Y99643517D01*
X26279163Y99587455D01*
X26279165Y99587455D01*
X26279168Y99587453D01*
X26351136Y99564069D01*
X26458881Y99529060D01*
X26645514Y99499500D01*
X26645519Y99499500D01*
X26834486Y99499500D01*
X27021118Y99529060D01*
X27059176Y99541426D01*
X27200832Y99587453D01*
X27369199Y99673240D01*
X27522073Y99784310D01*
X27655690Y99917927D01*
X27766760Y100070801D01*
X27852547Y100239168D01*
X27892069Y100360805D01*
X27931507Y100418479D01*
X27995866Y100445677D01*
X28064712Y100433762D01*
X28116188Y100386518D01*
X28127931Y100360804D01*
X28167454Y100239164D01*
X28239217Y100098323D01*
X28253240Y100070801D01*
X28364310Y99917927D01*
X28497927Y99784310D01*
X28650801Y99673240D01*
X28709136Y99643517D01*
X28819163Y99587455D01*
X28819165Y99587455D01*
X28819168Y99587453D01*
X28891136Y99564069D01*
X28998881Y99529060D01*
X29185514Y99499500D01*
X29185519Y99499500D01*
X29374486Y99499500D01*
X29561118Y99529060D01*
X29599176Y99541426D01*
X29740832Y99587453D01*
X29909199Y99673240D01*
X30062073Y99784310D01*
X30195690Y99917927D01*
X30306760Y100070801D01*
X30392547Y100239168D01*
X30432069Y100360805D01*
X30471507Y100418479D01*
X30535866Y100445677D01*
X30604712Y100433762D01*
X30656188Y100386518D01*
X30667931Y100360804D01*
X30707454Y100239164D01*
X30779217Y100098323D01*
X30793240Y100070801D01*
X30904310Y99917927D01*
X31037927Y99784310D01*
X31190801Y99673240D01*
X31249136Y99643517D01*
X31359163Y99587455D01*
X31359165Y99587455D01*
X31359168Y99587453D01*
X31431136Y99564069D01*
X31538881Y99529060D01*
X31725514Y99499500D01*
X31725519Y99499500D01*
X31914486Y99499500D01*
X32101118Y99529060D01*
X32139176Y99541426D01*
X32280832Y99587453D01*
X32449199Y99673240D01*
X32602073Y99784310D01*
X32735690Y99917927D01*
X32846760Y100070801D01*
X32932547Y100239168D01*
X32972069Y100360805D01*
X33011507Y100418479D01*
X33075866Y100445677D01*
X33144712Y100433762D01*
X33196188Y100386518D01*
X33207931Y100360804D01*
X33247454Y100239164D01*
X33319217Y100098323D01*
X33333240Y100070801D01*
X33444310Y99917927D01*
X33577927Y99784310D01*
X33730801Y99673240D01*
X33789136Y99643517D01*
X33899163Y99587455D01*
X33899165Y99587455D01*
X33899168Y99587453D01*
X33971136Y99564069D01*
X34078881Y99529060D01*
X34265514Y99499500D01*
X34265519Y99499500D01*
X34454486Y99499500D01*
X34641118Y99529060D01*
X34679176Y99541426D01*
X34820832Y99587453D01*
X34989199Y99673240D01*
X35142073Y99784310D01*
X35275690Y99917927D01*
X35386760Y100070801D01*
X35472547Y100239168D01*
X35512069Y100360805D01*
X35551507Y100418479D01*
X35615866Y100445677D01*
X35684712Y100433762D01*
X35736188Y100386518D01*
X35747931Y100360804D01*
X35787454Y100239164D01*
X35859217Y100098323D01*
X35873240Y100070801D01*
X35984310Y99917927D01*
X36117927Y99784310D01*
X36270801Y99673240D01*
X36329136Y99643517D01*
X36439163Y99587455D01*
X36439165Y99587455D01*
X36439168Y99587453D01*
X36511136Y99564069D01*
X36618881Y99529060D01*
X36805514Y99499500D01*
X36805519Y99499500D01*
X36994486Y99499500D01*
X37181118Y99529060D01*
X37219176Y99541426D01*
X37360832Y99587453D01*
X37529199Y99673240D01*
X37682073Y99784310D01*
X37815690Y99917927D01*
X37926760Y100070801D01*
X38012547Y100239168D01*
X38052069Y100360805D01*
X38091507Y100418479D01*
X38155866Y100445677D01*
X38224712Y100433762D01*
X38276188Y100386518D01*
X38287931Y100360804D01*
X38327454Y100239164D01*
X38399217Y100098323D01*
X38413240Y100070801D01*
X38524310Y99917927D01*
X38657927Y99784310D01*
X38810801Y99673240D01*
X38869136Y99643517D01*
X38979163Y99587455D01*
X38979165Y99587455D01*
X38979168Y99587453D01*
X39051136Y99564069D01*
X39158881Y99529060D01*
X39345514Y99499500D01*
X39345519Y99499500D01*
X39534486Y99499500D01*
X39721118Y99529060D01*
X39759176Y99541426D01*
X39900832Y99587453D01*
X40069199Y99673240D01*
X40222073Y99784310D01*
X40355690Y99917927D01*
X40466760Y100070801D01*
X40552547Y100239168D01*
X40592069Y100360805D01*
X40631507Y100418479D01*
X40695866Y100445677D01*
X40764712Y100433762D01*
X40816188Y100386518D01*
X40827931Y100360804D01*
X40867454Y100239164D01*
X40939217Y100098323D01*
X40953240Y100070801D01*
X41064310Y99917927D01*
X41197927Y99784310D01*
X41350801Y99673240D01*
X41409136Y99643517D01*
X41519163Y99587455D01*
X41519165Y99587455D01*
X41519168Y99587453D01*
X41591136Y99564069D01*
X41698881Y99529060D01*
X41885514Y99499500D01*
X41885519Y99499500D01*
X42074486Y99499500D01*
X42261118Y99529060D01*
X42299176Y99541426D01*
X42440832Y99587453D01*
X42609199Y99673240D01*
X42762073Y99784310D01*
X42895690Y99917927D01*
X43006760Y100070801D01*
X43092547Y100239168D01*
X43132069Y100360805D01*
X43171507Y100418479D01*
X43235866Y100445677D01*
X43304712Y100433762D01*
X43356188Y100386518D01*
X43367931Y100360804D01*
X43407454Y100239164D01*
X43479217Y100098323D01*
X43493240Y100070801D01*
X43604310Y99917927D01*
X43737927Y99784310D01*
X43890801Y99673240D01*
X43949136Y99643517D01*
X44059163Y99587455D01*
X44059165Y99587455D01*
X44059168Y99587453D01*
X44131136Y99564069D01*
X44238881Y99529060D01*
X44425514Y99499500D01*
X44425519Y99499500D01*
X44614486Y99499500D01*
X44801118Y99529060D01*
X44839176Y99541426D01*
X44980832Y99587453D01*
X45149199Y99673240D01*
X45302073Y99784310D01*
X45435690Y99917927D01*
X45546760Y100070801D01*
X45632547Y100239168D01*
X45672069Y100360805D01*
X45711507Y100418479D01*
X45775866Y100445677D01*
X45844712Y100433762D01*
X45896188Y100386518D01*
X45907931Y100360804D01*
X45947454Y100239164D01*
X46019217Y100098323D01*
X46033240Y100070801D01*
X46144310Y99917927D01*
X46277927Y99784310D01*
X46430801Y99673240D01*
X46489136Y99643517D01*
X46599163Y99587455D01*
X46599165Y99587455D01*
X46599168Y99587453D01*
X46671136Y99564069D01*
X46778881Y99529060D01*
X46965514Y99499500D01*
X46965519Y99499500D01*
X47154486Y99499500D01*
X47341118Y99529060D01*
X47379176Y99541426D01*
X47520832Y99587453D01*
X47689199Y99673240D01*
X47842073Y99784310D01*
X47975690Y99917927D01*
X48086760Y100070801D01*
X48172547Y100239168D01*
X48212069Y100360805D01*
X48251507Y100418479D01*
X48315866Y100445677D01*
X48384712Y100433762D01*
X48436188Y100386518D01*
X48447931Y100360804D01*
X48487454Y100239164D01*
X48559217Y100098323D01*
X48573240Y100070801D01*
X48684310Y99917927D01*
X48817927Y99784310D01*
X48970801Y99673240D01*
X49029136Y99643517D01*
X49139163Y99587455D01*
X49139165Y99587455D01*
X49139168Y99587453D01*
X49211136Y99564069D01*
X49318881Y99529060D01*
X49505514Y99499500D01*
X49505519Y99499500D01*
X49694486Y99499500D01*
X49881118Y99529060D01*
X49919176Y99541426D01*
X50060832Y99587453D01*
X50229199Y99673240D01*
X50382073Y99784310D01*
X50515690Y99917927D01*
X50626760Y100070801D01*
X50712547Y100239168D01*
X50752069Y100360805D01*
X50791507Y100418479D01*
X50855866Y100445677D01*
X50924712Y100433762D01*
G37*
%TD.AperFunction*%
%TD*%
M02*
