%TF.GenerationSoftware,KiCad,Pcbnew,10.0.6*%
%TF.CreationDate,2026-10-09T10:24:38+08:00*%
%TF.ProjectId,minibox-carrier,6d696e69-626f-4782-9d63-617272696572,rev?*%
%TF.SameCoordinates,Original*%
%TF.FileFunction,Soldermask,Top*%
%TF.FilePolarity,Negative*%
%FSLAX46Y46*%
G04 Gerber Fmt 4.6, Leading zero omitted, Abs format (unit mm)*
G04 Created by KiCad (PCBNEW 10.0.6) date 2026-10-09 10:24:38*
%MOMM*%
%LPD*%
G01*
G04 APERTURE LIST*
G04 APERTURE END LIST*
G36*
X5354837Y6478002D02*
G01*
X5581679Y6404297D01*
X5794198Y6296013D01*
X5987161Y6155817D01*
X6155817Y5987161D01*
X6296013Y5794198D01*
X6404297Y5581679D01*
X6478002Y5354837D01*
X6515314Y5119258D01*
X6515314Y4880742D01*
X6478002Y4645163D01*
X6404297Y4418321D01*
X6296013Y4205802D01*
X6155817Y4012839D01*
X5987161Y3844183D01*
X5794198Y3703987D01*
X5581679Y3595703D01*
X5354837Y3521998D01*
X5119258Y3484686D01*
X4880742Y3484686D01*
X4645163Y3521998D01*
X4418321Y3595703D01*
X4205802Y3703987D01*
X4012839Y3844183D01*
X3844183Y4012839D01*
X3703987Y4205802D01*
X3595703Y4418321D01*
X3521998Y4645163D01*
X3484686Y4880742D01*
X3484686Y5119258D01*
X3521998Y5354837D01*
X3595703Y5581679D01*
X3703987Y5794198D01*
X3844183Y5987161D01*
X4012839Y6155817D01*
X4205802Y6296013D01*
X4418321Y6404297D01*
X4645163Y6478002D01*
X4880742Y6515314D01*
X5119258Y6515314D01*
X5354837Y6478002D01*
G37*
G36*
X89854837Y6478002D02*
G01*
X90081679Y6404297D01*
X90294198Y6296013D01*
X90487161Y6155817D01*
X90655817Y5987161D01*
X90796013Y5794198D01*
X90904297Y5581679D01*
X90978002Y5354837D01*
X91015314Y5119258D01*
X91015314Y4880742D01*
X90978002Y4645163D01*
X90904297Y4418321D01*
X90796013Y4205802D01*
X90655817Y4012839D01*
X90487161Y3844183D01*
X90294198Y3703987D01*
X90081679Y3595703D01*
X89854837Y3521998D01*
X89619258Y3484686D01*
X89380742Y3484686D01*
X89145163Y3521998D01*
X88918321Y3595703D01*
X88705802Y3703987D01*
X88512839Y3844183D01*
X88344183Y4012839D01*
X88203987Y4205802D01*
X88095703Y4418321D01*
X88021998Y4645163D01*
X87984686Y4880742D01*
X87984686Y5119258D01*
X88021998Y5354837D01*
X88095703Y5581679D01*
X88203987Y5794198D01*
X88344183Y5987161D01*
X88512839Y6155817D01*
X88705802Y6296013D01*
X88918321Y6404297D01*
X89145163Y6478002D01*
X89380742Y6515314D01*
X89619258Y6515314D01*
X89854837Y6478002D01*
G37*
G36*
X55109328Y13382147D02*
G01*
X55358236Y13315452D01*
X55596309Y13216839D01*
X55819473Y13087995D01*
X56023911Y12931124D01*
X56206124Y12748911D01*
X56362995Y12544473D01*
X56491839Y12321309D01*
X56590452Y12083236D01*
X56657147Y11834328D01*
X56690782Y11578844D01*
X56690782Y11321156D01*
X56657147Y11065672D01*
X56590452Y10816764D01*
X56491839Y10578691D01*
X56362995Y10355527D01*
X56206124Y10151089D01*
X56023911Y9968876D01*
X55819473Y9812005D01*
X55596309Y9683161D01*
X55358236Y9584548D01*
X55109328Y9517853D01*
X54853844Y9484218D01*
X54596156Y9484218D01*
X54340672Y9517853D01*
X54091764Y9584548D01*
X53853691Y9683161D01*
X53630527Y9812005D01*
X53426089Y9968876D01*
X53243876Y10151089D01*
X53087005Y10355527D01*
X52958161Y10578691D01*
X52859548Y10816764D01*
X52792853Y11065672D01*
X52759218Y11321156D01*
X52759218Y11578844D01*
X52792853Y11834328D01*
X52859548Y12083236D01*
X52958161Y12321309D01*
X53087005Y12544473D01*
X53243876Y12748911D01*
X53426089Y12931124D01*
X53630527Y13087995D01*
X53853691Y13216839D01*
X54091764Y13315452D01*
X54340672Y13382147D01*
X54596156Y13415782D01*
X54853844Y13415782D01*
X55109328Y13382147D01*
G37*
G36*
X74159328Y13382147D02*
G01*
X74408236Y13315452D01*
X74646309Y13216839D01*
X74869473Y13087995D01*
X75073911Y12931124D01*
X75256124Y12748911D01*
X75412995Y12544473D01*
X75541839Y12321309D01*
X75640452Y12083236D01*
X75707147Y11834328D01*
X75740782Y11578844D01*
X75740782Y11321156D01*
X75707147Y11065672D01*
X75640452Y10816764D01*
X75541839Y10578691D01*
X75412995Y10355527D01*
X75256124Y10151089D01*
X75073911Y9968876D01*
X74869473Y9812005D01*
X74646309Y9683161D01*
X74408236Y9584548D01*
X74159328Y9517853D01*
X73903844Y9484218D01*
X73646156Y9484218D01*
X73390672Y9517853D01*
X73141764Y9584548D01*
X72903691Y9683161D01*
X72680527Y9812005D01*
X72476089Y9968876D01*
X72293876Y10151089D01*
X72137005Y10355527D01*
X72008161Y10578691D01*
X71909548Y10816764D01*
X71842853Y11065672D01*
X71809218Y11321156D01*
X71809218Y11578844D01*
X71842853Y11834328D01*
X71909548Y12083236D01*
X72008161Y12321309D01*
X72137005Y12544473D01*
X72293876Y12748911D01*
X72476089Y12931124D01*
X72680527Y13087995D01*
X72903691Y13216839D01*
X73141764Y13315452D01*
X73390672Y13382147D01*
X73646156Y13415782D01*
X73903844Y13415782D01*
X74159328Y13382147D01*
G37*
G36*
X51009669Y15054848D02*
G01*
X51019878Y15054848D01*
X51059767Y15046914D01*
X51164747Y15030287D01*
X51198518Y15019314D01*
X51225605Y15013926D01*
X51263830Y14998093D01*
X51324416Y14978407D01*
X51381172Y14949489D01*
X51419395Y14933656D01*
X51442356Y14918314D01*
X51473989Y14902196D01*
X51559983Y14839718D01*
X51593801Y14817121D01*
X51601018Y14809904D01*
X51609806Y14803519D01*
X51728518Y14684807D01*
X51734902Y14676020D01*
X51742121Y14668801D01*
X51764720Y14634979D01*
X51827195Y14548990D01*
X51843311Y14517360D01*
X51858656Y14494395D01*
X51874490Y14456168D01*
X51903406Y14399417D01*
X51923089Y14338839D01*
X51938926Y14300605D01*
X51944314Y14273514D01*
X51955286Y14239748D01*
X51971912Y14134773D01*
X51979848Y14094878D01*
X51979848Y14084670D01*
X51981547Y14073942D01*
X51981547Y13906059D01*
X51979848Y13895332D01*
X51979848Y13885122D01*
X51971911Y13845224D01*
X51955286Y13740253D01*
X51944315Y13706490D01*
X51938926Y13679395D01*
X51923087Y13641159D01*
X51903406Y13580584D01*
X51874492Y13523838D01*
X51858656Y13485605D01*
X51843309Y13462638D01*
X51827195Y13431011D01*
X51764728Y13345035D01*
X51742121Y13311199D01*
X51734899Y13303978D01*
X51728518Y13295194D01*
X51609806Y13176482D01*
X51601022Y13170101D01*
X51593801Y13162879D01*
X51559965Y13140272D01*
X51473989Y13077805D01*
X51442362Y13061691D01*
X51419395Y13046344D01*
X51381162Y13030508D01*
X51324416Y13001594D01*
X51263841Y12981913D01*
X51225605Y12966074D01*
X51198510Y12960685D01*
X51164747Y12949714D01*
X51059776Y12933089D01*
X51019878Y12925152D01*
X51009668Y12925152D01*
X50998941Y12923453D01*
X50831059Y12923453D01*
X50820332Y12925152D01*
X50810122Y12925152D01*
X50770225Y12933089D01*
X50665252Y12949714D01*
X50631486Y12960686D01*
X50604395Y12966074D01*
X50566161Y12981911D01*
X50505583Y13001594D01*
X50448832Y13030510D01*
X50410605Y13046344D01*
X50387640Y13061689D01*
X50356010Y13077805D01*
X50270021Y13140280D01*
X50236199Y13162879D01*
X50228980Y13170098D01*
X50220193Y13176482D01*
X50101481Y13295194D01*
X50095096Y13303982D01*
X50087879Y13311199D01*
X50065282Y13345017D01*
X50002804Y13431011D01*
X49986686Y13462644D01*
X49971344Y13485605D01*
X49955511Y13523828D01*
X49926593Y13580584D01*
X49906907Y13641170D01*
X49891074Y13679395D01*
X49885686Y13706482D01*
X49874713Y13740253D01*
X49858086Y13845233D01*
X49850152Y13885122D01*
X49850152Y13895332D01*
X49848453Y13906059D01*
X49848453Y14073942D01*
X49850152Y14084670D01*
X49850152Y14094878D01*
X49858085Y14134764D01*
X49874713Y14239748D01*
X49885686Y14273522D01*
X49891074Y14300605D01*
X49906905Y14338827D01*
X49926593Y14399417D01*
X49955514Y14456179D01*
X49971344Y14494395D01*
X49986684Y14517354D01*
X50002804Y14548990D01*
X50065290Y14634996D01*
X50087879Y14668801D01*
X50095093Y14676016D01*
X50101481Y14684807D01*
X50220193Y14803519D01*
X50228984Y14809907D01*
X50236199Y14817121D01*
X50270004Y14839710D01*
X50356010Y14902196D01*
X50387646Y14918316D01*
X50410605Y14933656D01*
X50448821Y14949486D01*
X50505583Y14978407D01*
X50566173Y14998095D01*
X50604395Y15013926D01*
X50631478Y15019314D01*
X50665252Y15030287D01*
X50770234Y15046914D01*
X50810122Y15054848D01*
X50820331Y15054848D01*
X50831059Y15056547D01*
X50998941Y15056547D01*
X51009669Y15054848D01*
G37*
G36*
X70059669Y15054848D02*
G01*
X70069878Y15054848D01*
X70109767Y15046914D01*
X70214747Y15030287D01*
X70248518Y15019314D01*
X70275605Y15013926D01*
X70313830Y14998093D01*
X70374416Y14978407D01*
X70431172Y14949489D01*
X70469395Y14933656D01*
X70492356Y14918314D01*
X70523989Y14902196D01*
X70609983Y14839718D01*
X70643801Y14817121D01*
X70651018Y14809904D01*
X70659806Y14803519D01*
X70778518Y14684807D01*
X70784902Y14676020D01*
X70792121Y14668801D01*
X70814720Y14634979D01*
X70877195Y14548990D01*
X70893311Y14517360D01*
X70908656Y14494395D01*
X70924490Y14456168D01*
X70953406Y14399417D01*
X70973089Y14338839D01*
X70988926Y14300605D01*
X70994314Y14273514D01*
X71005286Y14239748D01*
X71021912Y14134773D01*
X71029848Y14094878D01*
X71029848Y14084670D01*
X71031547Y14073942D01*
X71031547Y13906059D01*
X71029848Y13895332D01*
X71029848Y13885122D01*
X71021911Y13845224D01*
X71005286Y13740253D01*
X70994315Y13706490D01*
X70988926Y13679395D01*
X70973087Y13641159D01*
X70953406Y13580584D01*
X70924492Y13523838D01*
X70908656Y13485605D01*
X70893309Y13462638D01*
X70877195Y13431011D01*
X70814728Y13345035D01*
X70792121Y13311199D01*
X70784899Y13303978D01*
X70778518Y13295194D01*
X70659806Y13176482D01*
X70651022Y13170101D01*
X70643801Y13162879D01*
X70609965Y13140272D01*
X70523989Y13077805D01*
X70492362Y13061691D01*
X70469395Y13046344D01*
X70431162Y13030508D01*
X70374416Y13001594D01*
X70313841Y12981913D01*
X70275605Y12966074D01*
X70248510Y12960685D01*
X70214747Y12949714D01*
X70109776Y12933089D01*
X70069878Y12925152D01*
X70059668Y12925152D01*
X70048941Y12923453D01*
X69881059Y12923453D01*
X69870332Y12925152D01*
X69860122Y12925152D01*
X69820225Y12933089D01*
X69715252Y12949714D01*
X69681486Y12960686D01*
X69654395Y12966074D01*
X69616161Y12981911D01*
X69555583Y13001594D01*
X69498832Y13030510D01*
X69460605Y13046344D01*
X69437640Y13061689D01*
X69406010Y13077805D01*
X69320021Y13140280D01*
X69286199Y13162879D01*
X69278980Y13170098D01*
X69270193Y13176482D01*
X69151481Y13295194D01*
X69145096Y13303982D01*
X69137879Y13311199D01*
X69115282Y13345017D01*
X69052804Y13431011D01*
X69036686Y13462644D01*
X69021344Y13485605D01*
X69005511Y13523828D01*
X68976593Y13580584D01*
X68956907Y13641170D01*
X68941074Y13679395D01*
X68935686Y13706482D01*
X68924713Y13740253D01*
X68908086Y13845233D01*
X68900152Y13885122D01*
X68900152Y13895332D01*
X68898453Y13906059D01*
X68898453Y14073942D01*
X68900152Y14084670D01*
X68900152Y14094878D01*
X68908085Y14134764D01*
X68924713Y14239748D01*
X68935686Y14273522D01*
X68941074Y14300605D01*
X68956905Y14338827D01*
X68976593Y14399417D01*
X69005514Y14456179D01*
X69021344Y14494395D01*
X69036684Y14517354D01*
X69052804Y14548990D01*
X69115290Y14634996D01*
X69137879Y14668801D01*
X69145093Y14676016D01*
X69151481Y14684807D01*
X69270193Y14803519D01*
X69278984Y14809907D01*
X69286199Y14817121D01*
X69320004Y14839710D01*
X69406010Y14902196D01*
X69437646Y14918316D01*
X69460605Y14933656D01*
X69498821Y14949486D01*
X69555583Y14978407D01*
X69616173Y14998095D01*
X69654395Y15013926D01*
X69681478Y15019314D01*
X69715252Y15030287D01*
X69820234Y15046914D01*
X69860122Y15054848D01*
X69870331Y15054848D01*
X69881059Y15056547D01*
X70048941Y15056547D01*
X70059669Y15054848D01*
G37*
G36*
X57359669Y17594848D02*
G01*
X57369878Y17594848D01*
X57409767Y17586914D01*
X57514747Y17570287D01*
X57548518Y17559314D01*
X57575605Y17553926D01*
X57613830Y17538093D01*
X57674416Y17518407D01*
X57731172Y17489489D01*
X57769395Y17473656D01*
X57792356Y17458314D01*
X57823989Y17442196D01*
X57909983Y17379718D01*
X57943801Y17357121D01*
X57951018Y17349904D01*
X57959806Y17343519D01*
X58078518Y17224807D01*
X58084902Y17216020D01*
X58092121Y17208801D01*
X58114720Y17174979D01*
X58177195Y17088990D01*
X58193311Y17057360D01*
X58208656Y17034395D01*
X58224490Y16996168D01*
X58253406Y16939417D01*
X58273089Y16878839D01*
X58288926Y16840605D01*
X58294314Y16813514D01*
X58305286Y16779748D01*
X58321912Y16674773D01*
X58329848Y16634878D01*
X58329848Y16624670D01*
X58331547Y16613942D01*
X58331547Y16446059D01*
X58329848Y16435332D01*
X58329848Y16425122D01*
X58321911Y16385224D01*
X58305286Y16280253D01*
X58294315Y16246490D01*
X58288926Y16219395D01*
X58273087Y16181159D01*
X58253406Y16120584D01*
X58224492Y16063838D01*
X58208656Y16025605D01*
X58193309Y16002638D01*
X58177195Y15971011D01*
X58114728Y15885035D01*
X58092121Y15851199D01*
X58084899Y15843978D01*
X58078518Y15835194D01*
X57959806Y15716482D01*
X57951022Y15710101D01*
X57943801Y15702879D01*
X57909965Y15680272D01*
X57823989Y15617805D01*
X57792362Y15601691D01*
X57769395Y15586344D01*
X57731162Y15570508D01*
X57674416Y15541594D01*
X57613841Y15521913D01*
X57575605Y15506074D01*
X57548510Y15500685D01*
X57514747Y15489714D01*
X57409776Y15473089D01*
X57369878Y15465152D01*
X57359668Y15465152D01*
X57348941Y15463453D01*
X57181059Y15463453D01*
X57170332Y15465152D01*
X57160122Y15465152D01*
X57120225Y15473089D01*
X57015252Y15489714D01*
X56981486Y15500686D01*
X56954395Y15506074D01*
X56916161Y15521911D01*
X56855583Y15541594D01*
X56798832Y15570510D01*
X56760605Y15586344D01*
X56737640Y15601689D01*
X56706010Y15617805D01*
X56620021Y15680280D01*
X56586199Y15702879D01*
X56578980Y15710098D01*
X56570193Y15716482D01*
X56451481Y15835194D01*
X56445096Y15843982D01*
X56437879Y15851199D01*
X56415282Y15885017D01*
X56352804Y15971011D01*
X56336686Y16002644D01*
X56321344Y16025605D01*
X56305511Y16063828D01*
X56276593Y16120584D01*
X56256907Y16181170D01*
X56241074Y16219395D01*
X56235686Y16246482D01*
X56224713Y16280253D01*
X56208086Y16385233D01*
X56200152Y16425122D01*
X56200152Y16435332D01*
X56198453Y16446059D01*
X56198453Y16613942D01*
X56200152Y16624670D01*
X56200152Y16634878D01*
X56208085Y16674764D01*
X56224713Y16779748D01*
X56235686Y16813522D01*
X56241074Y16840605D01*
X56256905Y16878827D01*
X56276593Y16939417D01*
X56305514Y16996179D01*
X56321344Y17034395D01*
X56336684Y17057354D01*
X56352804Y17088990D01*
X56415290Y17174996D01*
X56437879Y17208801D01*
X56445093Y17216016D01*
X56451481Y17224807D01*
X56570193Y17343519D01*
X56578984Y17349907D01*
X56586199Y17357121D01*
X56620004Y17379710D01*
X56706010Y17442196D01*
X56737646Y17458316D01*
X56760605Y17473656D01*
X56798821Y17489486D01*
X56855583Y17518407D01*
X56916173Y17538095D01*
X56954395Y17553926D01*
X56981478Y17559314D01*
X57015252Y17570287D01*
X57120234Y17586914D01*
X57160122Y17594848D01*
X57170331Y17594848D01*
X57181059Y17596547D01*
X57348941Y17596547D01*
X57359669Y17594848D01*
G37*
G36*
X76409669Y17594848D02*
G01*
X76419878Y17594848D01*
X76459767Y17586914D01*
X76564747Y17570287D01*
X76598518Y17559314D01*
X76625605Y17553926D01*
X76663830Y17538093D01*
X76724416Y17518407D01*
X76781172Y17489489D01*
X76819395Y17473656D01*
X76842356Y17458314D01*
X76873989Y17442196D01*
X76959983Y17379718D01*
X76993801Y17357121D01*
X77001018Y17349904D01*
X77009806Y17343519D01*
X77128518Y17224807D01*
X77134902Y17216020D01*
X77142121Y17208801D01*
X77164720Y17174979D01*
X77227195Y17088990D01*
X77243311Y17057360D01*
X77258656Y17034395D01*
X77274490Y16996168D01*
X77303406Y16939417D01*
X77323089Y16878839D01*
X77338926Y16840605D01*
X77344314Y16813514D01*
X77355286Y16779748D01*
X77371912Y16674773D01*
X77379848Y16634878D01*
X77379848Y16624670D01*
X77381547Y16613942D01*
X77381547Y16446059D01*
X77379848Y16435332D01*
X77379848Y16425122D01*
X77371911Y16385224D01*
X77355286Y16280253D01*
X77344315Y16246490D01*
X77338926Y16219395D01*
X77323087Y16181159D01*
X77303406Y16120584D01*
X77274492Y16063838D01*
X77258656Y16025605D01*
X77243309Y16002638D01*
X77227195Y15971011D01*
X77164728Y15885035D01*
X77142121Y15851199D01*
X77134899Y15843978D01*
X77128518Y15835194D01*
X77009806Y15716482D01*
X77001022Y15710101D01*
X76993801Y15702879D01*
X76959965Y15680272D01*
X76873989Y15617805D01*
X76842362Y15601691D01*
X76819395Y15586344D01*
X76781162Y15570508D01*
X76724416Y15541594D01*
X76663841Y15521913D01*
X76625605Y15506074D01*
X76598510Y15500685D01*
X76564747Y15489714D01*
X76459776Y15473089D01*
X76419878Y15465152D01*
X76409668Y15465152D01*
X76398941Y15463453D01*
X76231059Y15463453D01*
X76220332Y15465152D01*
X76210122Y15465152D01*
X76170225Y15473089D01*
X76065252Y15489714D01*
X76031486Y15500686D01*
X76004395Y15506074D01*
X75966161Y15521911D01*
X75905583Y15541594D01*
X75848832Y15570510D01*
X75810605Y15586344D01*
X75787640Y15601689D01*
X75756010Y15617805D01*
X75670021Y15680280D01*
X75636199Y15702879D01*
X75628980Y15710098D01*
X75620193Y15716482D01*
X75501481Y15835194D01*
X75495096Y15843982D01*
X75487879Y15851199D01*
X75465282Y15885017D01*
X75402804Y15971011D01*
X75386686Y16002644D01*
X75371344Y16025605D01*
X75355511Y16063828D01*
X75326593Y16120584D01*
X75306907Y16181170D01*
X75291074Y16219395D01*
X75285686Y16246482D01*
X75274713Y16280253D01*
X75258086Y16385233D01*
X75250152Y16425122D01*
X75250152Y16435332D01*
X75248453Y16446059D01*
X75248453Y16613942D01*
X75250152Y16624670D01*
X75250152Y16634878D01*
X75258085Y16674764D01*
X75274713Y16779748D01*
X75285686Y16813522D01*
X75291074Y16840605D01*
X75306905Y16878827D01*
X75326593Y16939417D01*
X75355514Y16996179D01*
X75371344Y17034395D01*
X75386684Y17057354D01*
X75402804Y17088990D01*
X75465290Y17174996D01*
X75487879Y17208801D01*
X75495093Y17216016D01*
X75501481Y17224807D01*
X75620193Y17343519D01*
X75628984Y17349907D01*
X75636199Y17357121D01*
X75670004Y17379710D01*
X75756010Y17442196D01*
X75787646Y17458316D01*
X75810605Y17473656D01*
X75848821Y17489486D01*
X75905583Y17518407D01*
X75966173Y17538095D01*
X76004395Y17553926D01*
X76031478Y17559314D01*
X76065252Y17570287D01*
X76170234Y17586914D01*
X76210122Y17594848D01*
X76220331Y17594848D01*
X76231059Y17596547D01*
X76398941Y17596547D01*
X76409669Y17594848D01*
G37*
G36*
X14752548Y19102538D02*
G01*
X14910115Y19037271D01*
X15051922Y18942519D01*
X15172519Y18821922D01*
X15267271Y18680115D01*
X15332538Y18522548D01*
X15365811Y18355275D01*
X15365811Y18184725D01*
X15332538Y18017452D01*
X15267271Y17859885D01*
X15172519Y17718078D01*
X15051922Y17597481D01*
X14910115Y17502729D01*
X14752548Y17437462D01*
X14585275Y17404189D01*
X14414725Y17404189D01*
X14247452Y17437462D01*
X14089885Y17502729D01*
X13948078Y17597481D01*
X13827481Y17718078D01*
X13732729Y17859885D01*
X13667462Y18017452D01*
X13634189Y18184725D01*
X13634189Y18355275D01*
X13667462Y18522548D01*
X13732729Y18680115D01*
X13827481Y18821922D01*
X13948078Y18942519D01*
X14089885Y19037271D01*
X14247452Y19102538D01*
X14414725Y19135811D01*
X14585275Y19135811D01*
X14752548Y19102538D01*
G37*
G36*
X17252548Y19102538D02*
G01*
X17410115Y19037271D01*
X17551922Y18942519D01*
X17672519Y18821922D01*
X17767271Y18680115D01*
X17832538Y18522548D01*
X17865811Y18355275D01*
X17865811Y18184725D01*
X17832538Y18017452D01*
X17767271Y17859885D01*
X17672519Y17718078D01*
X17551922Y17597481D01*
X17410115Y17502729D01*
X17252548Y17437462D01*
X17085275Y17404189D01*
X16914725Y17404189D01*
X16747452Y17437462D01*
X16589885Y17502729D01*
X16448078Y17597481D01*
X16327481Y17718078D01*
X16232729Y17859885D01*
X16167462Y18017452D01*
X16134189Y18184725D01*
X16134189Y18355275D01*
X16167462Y18522548D01*
X16232729Y18680115D01*
X16327481Y18821922D01*
X16448078Y18942519D01*
X16589885Y19037271D01*
X16747452Y19102538D01*
X16914725Y19135811D01*
X17085275Y19135811D01*
X17252548Y19102538D01*
G37*
G36*
X19752548Y19102538D02*
G01*
X19910115Y19037271D01*
X20051922Y18942519D01*
X20172519Y18821922D01*
X20267271Y18680115D01*
X20332538Y18522548D01*
X20365811Y18355275D01*
X20365811Y18184725D01*
X20332538Y18017452D01*
X20267271Y17859885D01*
X20172519Y17718078D01*
X20051922Y17597481D01*
X19910115Y17502729D01*
X19752548Y17437462D01*
X19585275Y17404189D01*
X19414725Y17404189D01*
X19247452Y17437462D01*
X19089885Y17502729D01*
X18948078Y17597481D01*
X18827481Y17718078D01*
X18732729Y17859885D01*
X18667462Y18017452D01*
X18634189Y18184725D01*
X18634189Y18355275D01*
X18667462Y18522548D01*
X18732729Y18680115D01*
X18827481Y18821922D01*
X18948078Y18942519D01*
X19089885Y19037271D01*
X19247452Y19102538D01*
X19414725Y19135811D01*
X19585275Y19135811D01*
X19752548Y19102538D01*
G37*
G36*
X10769669Y23064848D02*
G01*
X10779878Y23064848D01*
X10819767Y23056914D01*
X10924747Y23040287D01*
X10958518Y23029314D01*
X10985605Y23023926D01*
X11023830Y23008093D01*
X11084416Y22988407D01*
X11141172Y22959489D01*
X11179395Y22943656D01*
X11202356Y22928314D01*
X11233989Y22912196D01*
X11319983Y22849718D01*
X11353801Y22827121D01*
X11361018Y22819904D01*
X11369806Y22813519D01*
X11488518Y22694807D01*
X11494902Y22686020D01*
X11502121Y22678801D01*
X11524720Y22644979D01*
X11587195Y22558990D01*
X11603311Y22527360D01*
X11618656Y22504395D01*
X11634490Y22466168D01*
X11663406Y22409417D01*
X11683089Y22348839D01*
X11698926Y22310605D01*
X11704314Y22283514D01*
X11715286Y22249748D01*
X11731912Y22144773D01*
X11739848Y22104878D01*
X11739848Y22094670D01*
X11741547Y22083942D01*
X11741547Y21916059D01*
X11739848Y21905332D01*
X11739848Y21895122D01*
X11731911Y21855224D01*
X11715286Y21750253D01*
X11704315Y21716490D01*
X11698926Y21689395D01*
X11683087Y21651159D01*
X11663406Y21590584D01*
X11634492Y21533838D01*
X11618656Y21495605D01*
X11603309Y21472638D01*
X11587195Y21441011D01*
X11524728Y21355035D01*
X11502121Y21321199D01*
X11494899Y21313978D01*
X11488518Y21305194D01*
X11369806Y21186482D01*
X11361022Y21180101D01*
X11353801Y21172879D01*
X11319965Y21150272D01*
X11233989Y21087805D01*
X11202362Y21071691D01*
X11179395Y21056344D01*
X11141162Y21040508D01*
X11084416Y21011594D01*
X11023841Y20991913D01*
X10985605Y20976074D01*
X10958510Y20970685D01*
X10924747Y20959714D01*
X10819776Y20943089D01*
X10779878Y20935152D01*
X10769668Y20935152D01*
X10758941Y20933453D01*
X10591059Y20933453D01*
X10580332Y20935152D01*
X10570122Y20935152D01*
X10530225Y20943089D01*
X10425252Y20959714D01*
X10391486Y20970686D01*
X10364395Y20976074D01*
X10326161Y20991911D01*
X10265583Y21011594D01*
X10208832Y21040510D01*
X10170605Y21056344D01*
X10147640Y21071689D01*
X10116010Y21087805D01*
X10030021Y21150280D01*
X9996199Y21172879D01*
X9988980Y21180098D01*
X9980193Y21186482D01*
X9861481Y21305194D01*
X9855096Y21313982D01*
X9847879Y21321199D01*
X9825282Y21355017D01*
X9762804Y21441011D01*
X9746686Y21472644D01*
X9731344Y21495605D01*
X9715511Y21533828D01*
X9686593Y21590584D01*
X9666907Y21651170D01*
X9651074Y21689395D01*
X9645686Y21716482D01*
X9634713Y21750253D01*
X9618086Y21855233D01*
X9610152Y21895122D01*
X9610152Y21905332D01*
X9608453Y21916059D01*
X9608453Y22083942D01*
X9610152Y22094670D01*
X9610152Y22104878D01*
X9618085Y22144764D01*
X9634713Y22249748D01*
X9645686Y22283522D01*
X9651074Y22310605D01*
X9666905Y22348827D01*
X9686593Y22409417D01*
X9715514Y22466179D01*
X9731344Y22504395D01*
X9746684Y22527354D01*
X9762804Y22558990D01*
X9825290Y22644996D01*
X9847879Y22678801D01*
X9855093Y22686016D01*
X9861481Y22694807D01*
X9980193Y22813519D01*
X9988984Y22819907D01*
X9996199Y22827121D01*
X10030004Y22849710D01*
X10116010Y22912196D01*
X10147646Y22928316D01*
X10170605Y22943656D01*
X10208821Y22959486D01*
X10265583Y22988407D01*
X10326173Y23008095D01*
X10364395Y23023926D01*
X10391478Y23029314D01*
X10425252Y23040287D01*
X10530234Y23056914D01*
X10570122Y23064848D01*
X10580331Y23064848D01*
X10591059Y23066547D01*
X10758941Y23066547D01*
X10769669Y23064848D01*
G37*
G36*
X23419669Y23064848D02*
G01*
X23429878Y23064848D01*
X23469767Y23056914D01*
X23574747Y23040287D01*
X23608518Y23029314D01*
X23635605Y23023926D01*
X23673830Y23008093D01*
X23734416Y22988407D01*
X23791172Y22959489D01*
X23829395Y22943656D01*
X23852356Y22928314D01*
X23883989Y22912196D01*
X23969983Y22849718D01*
X24003801Y22827121D01*
X24011018Y22819904D01*
X24019806Y22813519D01*
X24138518Y22694807D01*
X24144902Y22686020D01*
X24152121Y22678801D01*
X24174720Y22644979D01*
X24237195Y22558990D01*
X24253311Y22527360D01*
X24268656Y22504395D01*
X24284490Y22466168D01*
X24313406Y22409417D01*
X24333089Y22348839D01*
X24348926Y22310605D01*
X24354314Y22283514D01*
X24365286Y22249748D01*
X24381912Y22144773D01*
X24389848Y22104878D01*
X24389848Y22094670D01*
X24391547Y22083942D01*
X24391547Y21916059D01*
X24389848Y21905332D01*
X24389848Y21895122D01*
X24381911Y21855224D01*
X24365286Y21750253D01*
X24354315Y21716490D01*
X24348926Y21689395D01*
X24333087Y21651159D01*
X24313406Y21590584D01*
X24284492Y21533838D01*
X24268656Y21495605D01*
X24253309Y21472638D01*
X24237195Y21441011D01*
X24174728Y21355035D01*
X24152121Y21321199D01*
X24144899Y21313978D01*
X24138518Y21305194D01*
X24019806Y21186482D01*
X24011022Y21180101D01*
X24003801Y21172879D01*
X23969965Y21150272D01*
X23883989Y21087805D01*
X23852362Y21071691D01*
X23829395Y21056344D01*
X23791162Y21040508D01*
X23734416Y21011594D01*
X23673841Y20991913D01*
X23635605Y20976074D01*
X23608510Y20970685D01*
X23574747Y20959714D01*
X23469776Y20943089D01*
X23429878Y20935152D01*
X23419668Y20935152D01*
X23408941Y20933453D01*
X23241059Y20933453D01*
X23230332Y20935152D01*
X23220122Y20935152D01*
X23180225Y20943089D01*
X23075252Y20959714D01*
X23041486Y20970686D01*
X23014395Y20976074D01*
X22976161Y20991911D01*
X22915583Y21011594D01*
X22858832Y21040510D01*
X22820605Y21056344D01*
X22797640Y21071689D01*
X22766010Y21087805D01*
X22680021Y21150280D01*
X22646199Y21172879D01*
X22638980Y21180098D01*
X22630193Y21186482D01*
X22511481Y21305194D01*
X22505096Y21313982D01*
X22497879Y21321199D01*
X22475282Y21355017D01*
X22412804Y21441011D01*
X22396686Y21472644D01*
X22381344Y21495605D01*
X22365511Y21533828D01*
X22336593Y21590584D01*
X22316907Y21651170D01*
X22301074Y21689395D01*
X22295686Y21716482D01*
X22284713Y21750253D01*
X22268086Y21855233D01*
X22260152Y21895122D01*
X22260152Y21905332D01*
X22258453Y21916059D01*
X22258453Y22083942D01*
X22260152Y22094670D01*
X22260152Y22104878D01*
X22268085Y22144764D01*
X22284713Y22249748D01*
X22295686Y22283522D01*
X22301074Y22310605D01*
X22316905Y22348827D01*
X22336593Y22409417D01*
X22365514Y22466179D01*
X22381344Y22504395D01*
X22396684Y22527354D01*
X22412804Y22558990D01*
X22475290Y22644996D01*
X22497879Y22678801D01*
X22505093Y22686016D01*
X22511481Y22694807D01*
X22630193Y22813519D01*
X22638984Y22819907D01*
X22646199Y22827121D01*
X22680004Y22849710D01*
X22766010Y22912196D01*
X22797646Y22928316D01*
X22820605Y22943656D01*
X22858821Y22959486D01*
X22915583Y22988407D01*
X22976173Y23008095D01*
X23014395Y23023926D01*
X23041478Y23029314D01*
X23075252Y23040287D01*
X23180234Y23056914D01*
X23220122Y23064848D01*
X23230331Y23064848D01*
X23241059Y23066547D01*
X23408941Y23066547D01*
X23419669Y23064848D01*
G37*
G36*
X8522548Y25332538D02*
G01*
X8680115Y25267271D01*
X8821922Y25172519D01*
X8942519Y25051922D01*
X9037271Y24910115D01*
X9102538Y24752548D01*
X9135811Y24585275D01*
X9135811Y24414725D01*
X9102538Y24247452D01*
X9037271Y24089885D01*
X8942519Y23948078D01*
X8821922Y23827481D01*
X8680115Y23732729D01*
X8522548Y23667462D01*
X8355275Y23634189D01*
X8184725Y23634189D01*
X8017452Y23667462D01*
X7859885Y23732729D01*
X7718078Y23827481D01*
X7597481Y23948078D01*
X7502729Y24089885D01*
X7437462Y24247452D01*
X7404189Y24414725D01*
X7404189Y24585275D01*
X7437462Y24752548D01*
X7502729Y24910115D01*
X7597481Y25051922D01*
X7718078Y25172519D01*
X7859885Y25267271D01*
X8017452Y25332538D01*
X8184725Y25365811D01*
X8355275Y25365811D01*
X8522548Y25332538D01*
G37*
G36*
X8522548Y27832538D02*
G01*
X8680115Y27767271D01*
X8821922Y27672519D01*
X8942519Y27551922D01*
X9037271Y27410115D01*
X9102538Y27252548D01*
X9135811Y27085275D01*
X9135811Y26914725D01*
X9102538Y26747452D01*
X9037271Y26589885D01*
X8942519Y26448078D01*
X8821922Y26327481D01*
X8680115Y26232729D01*
X8522548Y26167462D01*
X8355275Y26134189D01*
X8184725Y26134189D01*
X8017452Y26167462D01*
X7859885Y26232729D01*
X7718078Y26327481D01*
X7597481Y26448078D01*
X7502729Y26589885D01*
X7437462Y26747452D01*
X7404189Y26914725D01*
X7404189Y27085275D01*
X7437462Y27252548D01*
X7502729Y27410115D01*
X7597481Y27551922D01*
X7718078Y27672519D01*
X7859885Y27767271D01*
X8017452Y27832538D01*
X8184725Y27865811D01*
X8355275Y27865811D01*
X8522548Y27832538D01*
G37*
G36*
X64634328Y32432147D02*
G01*
X64883236Y32365452D01*
X65121309Y32266839D01*
X65344473Y32137995D01*
X65548911Y31981124D01*
X65731124Y31798911D01*
X65887995Y31594473D01*
X66016839Y31371309D01*
X66115452Y31133236D01*
X66182147Y30884328D01*
X66215782Y30628844D01*
X66215782Y30371156D01*
X66182147Y30115672D01*
X66115452Y29866764D01*
X66016839Y29628691D01*
X65887995Y29405527D01*
X65731124Y29201089D01*
X65548911Y29018876D01*
X65344473Y28862005D01*
X65121309Y28733161D01*
X64883236Y28634548D01*
X64634328Y28567853D01*
X64378844Y28534218D01*
X64121156Y28534218D01*
X63865672Y28567853D01*
X63616764Y28634548D01*
X63378691Y28733161D01*
X63155527Y28862005D01*
X62951089Y29018876D01*
X62768876Y29201089D01*
X62612005Y29405527D01*
X62483161Y29628691D01*
X62384548Y29866764D01*
X62317853Y30115672D01*
X62284218Y30371156D01*
X62284218Y30628844D01*
X62317853Y30884328D01*
X62384548Y31133236D01*
X62483161Y31371309D01*
X62612005Y31594473D01*
X62768876Y31798911D01*
X62951089Y31981124D01*
X63155527Y32137995D01*
X63378691Y32266839D01*
X63616764Y32365452D01*
X63865672Y32432147D01*
X64121156Y32465782D01*
X64378844Y32465782D01*
X64634328Y32432147D01*
G37*
G36*
X83684328Y32432147D02*
G01*
X83933236Y32365452D01*
X84171309Y32266839D01*
X84394473Y32137995D01*
X84598911Y31981124D01*
X84781124Y31798911D01*
X84937995Y31594473D01*
X85066839Y31371309D01*
X85165452Y31133236D01*
X85232147Y30884328D01*
X85265782Y30628844D01*
X85265782Y30371156D01*
X85232147Y30115672D01*
X85165452Y29866764D01*
X85066839Y29628691D01*
X84937995Y29405527D01*
X84781124Y29201089D01*
X84598911Y29018876D01*
X84394473Y28862005D01*
X84171309Y28733161D01*
X83933236Y28634548D01*
X83684328Y28567853D01*
X83428844Y28534218D01*
X83171156Y28534218D01*
X82915672Y28567853D01*
X82666764Y28634548D01*
X82428691Y28733161D01*
X82205527Y28862005D01*
X82001089Y29018876D01*
X81818876Y29201089D01*
X81662005Y29405527D01*
X81533161Y29628691D01*
X81434548Y29866764D01*
X81367853Y30115672D01*
X81334218Y30371156D01*
X81334218Y30628844D01*
X81367853Y30884328D01*
X81434548Y31133236D01*
X81533161Y31371309D01*
X81662005Y31594473D01*
X81818876Y31798911D01*
X82001089Y31981124D01*
X82205527Y32137995D01*
X82428691Y32266839D01*
X82666764Y32365452D01*
X82915672Y32432147D01*
X83171156Y32465782D01*
X83428844Y32465782D01*
X83684328Y32432147D01*
G37*
G36*
X8522548Y30332538D02*
G01*
X8680115Y30267271D01*
X8821922Y30172519D01*
X8942519Y30051922D01*
X9037271Y29910115D01*
X9102538Y29752548D01*
X9135811Y29585275D01*
X9135811Y29414725D01*
X9102538Y29247452D01*
X9037271Y29089885D01*
X8942519Y28948078D01*
X8821922Y28827481D01*
X8680115Y28732729D01*
X8522548Y28667462D01*
X8355275Y28634189D01*
X8184725Y28634189D01*
X8017452Y28667462D01*
X7859885Y28732729D01*
X7718078Y28827481D01*
X7597481Y28948078D01*
X7502729Y29089885D01*
X7437462Y29247452D01*
X7404189Y29414725D01*
X7404189Y29585275D01*
X7437462Y29752548D01*
X7502729Y29910115D01*
X7597481Y30051922D01*
X7718078Y30172519D01*
X7859885Y30267271D01*
X8017452Y30332538D01*
X8184725Y30365811D01*
X8355275Y30365811D01*
X8522548Y30332538D01*
G37*
G36*
X39942548Y30542538D02*
G01*
X40100115Y30477271D01*
X40241922Y30382519D01*
X40362519Y30261922D01*
X40457271Y30120115D01*
X40522538Y29962548D01*
X40555811Y29795275D01*
X40555811Y29624725D01*
X40522538Y29457452D01*
X40457271Y29299885D01*
X40362519Y29158078D01*
X40241922Y29037481D01*
X40100115Y28942729D01*
X39942548Y28877462D01*
X39775275Y28844189D01*
X39604725Y28844189D01*
X39437452Y28877462D01*
X39279885Y28942729D01*
X39138078Y29037481D01*
X39017481Y29158078D01*
X38922729Y29299885D01*
X38857462Y29457452D01*
X38824189Y29624725D01*
X38824189Y29795275D01*
X38857462Y29962548D01*
X38922729Y30120115D01*
X39017481Y30261922D01*
X39138078Y30382519D01*
X39279885Y30477271D01*
X39437452Y30542538D01*
X39604725Y30575811D01*
X39775275Y30575811D01*
X39942548Y30542538D01*
G37*
G36*
X47562548Y30542538D02*
G01*
X47720115Y30477271D01*
X47861922Y30382519D01*
X47982519Y30261922D01*
X48077271Y30120115D01*
X48142538Y29962548D01*
X48175811Y29795275D01*
X48175811Y29624725D01*
X48142538Y29457452D01*
X48077271Y29299885D01*
X47982519Y29158078D01*
X47861922Y29037481D01*
X47720115Y28942729D01*
X47562548Y28877462D01*
X47395275Y28844189D01*
X47224725Y28844189D01*
X47057452Y28877462D01*
X46899885Y28942729D01*
X46758078Y29037481D01*
X46637481Y29158078D01*
X46542729Y29299885D01*
X46477462Y29457452D01*
X46444189Y29624725D01*
X46444189Y29795275D01*
X46477462Y29962548D01*
X46542729Y30120115D01*
X46637481Y30261922D01*
X46758078Y30382519D01*
X46899885Y30477271D01*
X47057452Y30542538D01*
X47224725Y30575811D01*
X47395275Y30575811D01*
X47562548Y30542538D01*
G37*
G36*
X10769669Y33064848D02*
G01*
X10779878Y33064848D01*
X10819767Y33056914D01*
X10924747Y33040287D01*
X10958518Y33029314D01*
X10985605Y33023926D01*
X11023830Y33008093D01*
X11084416Y32988407D01*
X11141172Y32959489D01*
X11179395Y32943656D01*
X11202356Y32928314D01*
X11233989Y32912196D01*
X11319983Y32849718D01*
X11353801Y32827121D01*
X11361018Y32819904D01*
X11369806Y32813519D01*
X11488518Y32694807D01*
X11494902Y32686020D01*
X11502121Y32678801D01*
X11524720Y32644979D01*
X11587195Y32558990D01*
X11603311Y32527360D01*
X11618656Y32504395D01*
X11634490Y32466168D01*
X11663406Y32409417D01*
X11683089Y32348839D01*
X11698926Y32310605D01*
X11704314Y32283514D01*
X11715286Y32249748D01*
X11731912Y32144773D01*
X11739848Y32104878D01*
X11739848Y32094670D01*
X11741547Y32083942D01*
X11741547Y31916059D01*
X11739848Y31905332D01*
X11739848Y31895122D01*
X11731911Y31855224D01*
X11715286Y31750253D01*
X11704315Y31716490D01*
X11698926Y31689395D01*
X11683087Y31651159D01*
X11663406Y31590584D01*
X11634492Y31533838D01*
X11618656Y31495605D01*
X11603309Y31472638D01*
X11587195Y31441011D01*
X11524728Y31355035D01*
X11502121Y31321199D01*
X11494899Y31313978D01*
X11488518Y31305194D01*
X11369806Y31186482D01*
X11361022Y31180101D01*
X11353801Y31172879D01*
X11319965Y31150272D01*
X11233989Y31087805D01*
X11202362Y31071691D01*
X11179395Y31056344D01*
X11141162Y31040508D01*
X11084416Y31011594D01*
X11023841Y30991913D01*
X10985605Y30976074D01*
X10958510Y30970685D01*
X10924747Y30959714D01*
X10819776Y30943089D01*
X10779878Y30935152D01*
X10769668Y30935152D01*
X10758941Y30933453D01*
X10591059Y30933453D01*
X10580332Y30935152D01*
X10570122Y30935152D01*
X10530225Y30943089D01*
X10425252Y30959714D01*
X10391486Y30970686D01*
X10364395Y30976074D01*
X10326161Y30991911D01*
X10265583Y31011594D01*
X10208832Y31040510D01*
X10170605Y31056344D01*
X10147640Y31071689D01*
X10116010Y31087805D01*
X10030021Y31150280D01*
X9996199Y31172879D01*
X9988980Y31180098D01*
X9980193Y31186482D01*
X9861481Y31305194D01*
X9855096Y31313982D01*
X9847879Y31321199D01*
X9825282Y31355017D01*
X9762804Y31441011D01*
X9746686Y31472644D01*
X9731344Y31495605D01*
X9715511Y31533828D01*
X9686593Y31590584D01*
X9666907Y31651170D01*
X9651074Y31689395D01*
X9645686Y31716482D01*
X9634713Y31750253D01*
X9618086Y31855233D01*
X9610152Y31895122D01*
X9610152Y31905332D01*
X9608453Y31916059D01*
X9608453Y32083942D01*
X9610152Y32094670D01*
X9610152Y32104878D01*
X9618085Y32144764D01*
X9634713Y32249748D01*
X9645686Y32283522D01*
X9651074Y32310605D01*
X9666905Y32348827D01*
X9686593Y32409417D01*
X9715514Y32466179D01*
X9731344Y32504395D01*
X9746684Y32527354D01*
X9762804Y32558990D01*
X9825290Y32644996D01*
X9847879Y32678801D01*
X9855093Y32686016D01*
X9861481Y32694807D01*
X9980193Y32813519D01*
X9988984Y32819907D01*
X9996199Y32827121D01*
X10030004Y32849710D01*
X10116010Y32912196D01*
X10147646Y32928316D01*
X10170605Y32943656D01*
X10208821Y32959486D01*
X10265583Y32988407D01*
X10326173Y33008095D01*
X10364395Y33023926D01*
X10391478Y33029314D01*
X10425252Y33040287D01*
X10530234Y33056914D01*
X10570122Y33064848D01*
X10580331Y33064848D01*
X10591059Y33066547D01*
X10758941Y33066547D01*
X10769669Y33064848D01*
G37*
G36*
X23419669Y33064848D02*
G01*
X23429878Y33064848D01*
X23469767Y33056914D01*
X23574747Y33040287D01*
X23608518Y33029314D01*
X23635605Y33023926D01*
X23673830Y33008093D01*
X23734416Y32988407D01*
X23791172Y32959489D01*
X23829395Y32943656D01*
X23852356Y32928314D01*
X23883989Y32912196D01*
X23969983Y32849718D01*
X24003801Y32827121D01*
X24011018Y32819904D01*
X24019806Y32813519D01*
X24138518Y32694807D01*
X24144902Y32686020D01*
X24152121Y32678801D01*
X24174720Y32644979D01*
X24237195Y32558990D01*
X24253311Y32527360D01*
X24268656Y32504395D01*
X24284490Y32466168D01*
X24313406Y32409417D01*
X24333089Y32348839D01*
X24348926Y32310605D01*
X24354314Y32283514D01*
X24365286Y32249748D01*
X24381912Y32144773D01*
X24389848Y32104878D01*
X24389848Y32094670D01*
X24391547Y32083942D01*
X24391547Y31916059D01*
X24389848Y31905332D01*
X24389848Y31895122D01*
X24381911Y31855224D01*
X24365286Y31750253D01*
X24354315Y31716490D01*
X24348926Y31689395D01*
X24333087Y31651159D01*
X24313406Y31590584D01*
X24284492Y31533838D01*
X24268656Y31495605D01*
X24253309Y31472638D01*
X24237195Y31441011D01*
X24174728Y31355035D01*
X24152121Y31321199D01*
X24144899Y31313978D01*
X24138518Y31305194D01*
X24019806Y31186482D01*
X24011022Y31180101D01*
X24003801Y31172879D01*
X23969965Y31150272D01*
X23883989Y31087805D01*
X23852362Y31071691D01*
X23829395Y31056344D01*
X23791162Y31040508D01*
X23734416Y31011594D01*
X23673841Y30991913D01*
X23635605Y30976074D01*
X23608510Y30970685D01*
X23574747Y30959714D01*
X23469776Y30943089D01*
X23429878Y30935152D01*
X23419668Y30935152D01*
X23408941Y30933453D01*
X23241059Y30933453D01*
X23230332Y30935152D01*
X23220122Y30935152D01*
X23180225Y30943089D01*
X23075252Y30959714D01*
X23041486Y30970686D01*
X23014395Y30976074D01*
X22976161Y30991911D01*
X22915583Y31011594D01*
X22858832Y31040510D01*
X22820605Y31056344D01*
X22797640Y31071689D01*
X22766010Y31087805D01*
X22680021Y31150280D01*
X22646199Y31172879D01*
X22638980Y31180098D01*
X22630193Y31186482D01*
X22511481Y31305194D01*
X22505096Y31313982D01*
X22497879Y31321199D01*
X22475282Y31355017D01*
X22412804Y31441011D01*
X22396686Y31472644D01*
X22381344Y31495605D01*
X22365511Y31533828D01*
X22336593Y31590584D01*
X22316907Y31651170D01*
X22301074Y31689395D01*
X22295686Y31716482D01*
X22284713Y31750253D01*
X22268086Y31855233D01*
X22260152Y31895122D01*
X22260152Y31905332D01*
X22258453Y31916059D01*
X22258453Y32083942D01*
X22260152Y32094670D01*
X22260152Y32104878D01*
X22268085Y32144764D01*
X22284713Y32249748D01*
X22295686Y32283522D01*
X22301074Y32310605D01*
X22316905Y32348827D01*
X22336593Y32409417D01*
X22365514Y32466179D01*
X22381344Y32504395D01*
X22396684Y32527354D01*
X22412804Y32558990D01*
X22475290Y32644996D01*
X22497879Y32678801D01*
X22505093Y32686016D01*
X22511481Y32694807D01*
X22630193Y32813519D01*
X22638984Y32819907D01*
X22646199Y32827121D01*
X22680004Y32849710D01*
X22766010Y32912196D01*
X22797646Y32928316D01*
X22820605Y32943656D01*
X22858821Y32959486D01*
X22915583Y32988407D01*
X22976173Y33008095D01*
X23014395Y33023926D01*
X23041478Y33029314D01*
X23075252Y33040287D01*
X23180234Y33056914D01*
X23220122Y33064848D01*
X23230331Y33064848D01*
X23241059Y33066547D01*
X23408941Y33066547D01*
X23419669Y33064848D01*
G37*
G36*
X39942548Y33082538D02*
G01*
X40100115Y33017271D01*
X40241922Y32922519D01*
X40362519Y32801922D01*
X40457271Y32660115D01*
X40522538Y32502548D01*
X40555811Y32335275D01*
X40555811Y32164725D01*
X40522538Y31997452D01*
X40457271Y31839885D01*
X40362519Y31698078D01*
X40241922Y31577481D01*
X40100115Y31482729D01*
X39942548Y31417462D01*
X39775275Y31384189D01*
X39604725Y31384189D01*
X39437452Y31417462D01*
X39279885Y31482729D01*
X39138078Y31577481D01*
X39017481Y31698078D01*
X38922729Y31839885D01*
X38857462Y31997452D01*
X38824189Y32164725D01*
X38824189Y32335275D01*
X38857462Y32502548D01*
X38922729Y32660115D01*
X39017481Y32801922D01*
X39138078Y32922519D01*
X39279885Y33017271D01*
X39437452Y33082538D01*
X39604725Y33115811D01*
X39775275Y33115811D01*
X39942548Y33082538D01*
G37*
G36*
X47562548Y33082538D02*
G01*
X47720115Y33017271D01*
X47861922Y32922519D01*
X47982519Y32801922D01*
X48077271Y32660115D01*
X48142538Y32502548D01*
X48175811Y32335275D01*
X48175811Y32164725D01*
X48142538Y31997452D01*
X48077271Y31839885D01*
X47982519Y31698078D01*
X47861922Y31577481D01*
X47720115Y31482729D01*
X47562548Y31417462D01*
X47395275Y31384189D01*
X47224725Y31384189D01*
X47057452Y31417462D01*
X46899885Y31482729D01*
X46758078Y31577481D01*
X46637481Y31698078D01*
X46542729Y31839885D01*
X46477462Y31997452D01*
X46444189Y32164725D01*
X46444189Y32335275D01*
X46477462Y32502548D01*
X46542729Y32660115D01*
X46637481Y32801922D01*
X46758078Y32922519D01*
X46899885Y33017271D01*
X47057452Y33082538D01*
X47224725Y33115811D01*
X47395275Y33115811D01*
X47562548Y33082538D01*
G37*
G36*
X14031576Y33678232D02*
G01*
X14207255Y33605464D01*
X14365361Y33499820D01*
X14499820Y33365361D01*
X14605464Y33207255D01*
X14678232Y33031576D01*
X14715329Y32845077D01*
X14715329Y32654923D01*
X14678232Y32468424D01*
X14605464Y32292745D01*
X14499820Y32134639D01*
X14365361Y32000180D01*
X14207255Y31894536D01*
X14031576Y31821768D01*
X13845077Y31784671D01*
X13654923Y31784671D01*
X13468424Y31821768D01*
X13292745Y31894536D01*
X13134639Y32000180D01*
X13000180Y32134639D01*
X12894536Y32292745D01*
X12821768Y32468424D01*
X12784671Y32654923D01*
X12784671Y32845077D01*
X12821768Y33031576D01*
X12894536Y33207255D01*
X13000180Y33365361D01*
X13134639Y33499820D01*
X13292745Y33605464D01*
X13468424Y33678232D01*
X13654923Y33715329D01*
X13845077Y33715329D01*
X14031576Y33678232D01*
G37*
G36*
X20531576Y33678232D02*
G01*
X20707255Y33605464D01*
X20865361Y33499820D01*
X20999820Y33365361D01*
X21105464Y33207255D01*
X21178232Y33031576D01*
X21215329Y32845077D01*
X21215329Y32654923D01*
X21178232Y32468424D01*
X21105464Y32292745D01*
X20999820Y32134639D01*
X20865361Y32000180D01*
X20707255Y31894536D01*
X20531576Y31821768D01*
X20345077Y31784671D01*
X20154923Y31784671D01*
X19968424Y31821768D01*
X19792745Y31894536D01*
X19634639Y32000180D01*
X19500180Y32134639D01*
X19394536Y32292745D01*
X19321768Y32468424D01*
X19284671Y32654923D01*
X19284671Y32845077D01*
X19321768Y33031576D01*
X19394536Y33207255D01*
X19500180Y33365361D01*
X19634639Y33499820D01*
X19792745Y33605464D01*
X19968424Y33678232D01*
X20154923Y33715329D01*
X20345077Y33715329D01*
X20531576Y33678232D01*
G37*
G36*
X60534669Y34104848D02*
G01*
X60544878Y34104848D01*
X60584767Y34096914D01*
X60689747Y34080287D01*
X60723518Y34069314D01*
X60750605Y34063926D01*
X60788830Y34048093D01*
X60849416Y34028407D01*
X60906172Y33999489D01*
X60944395Y33983656D01*
X60967356Y33968314D01*
X60998989Y33952196D01*
X61084983Y33889718D01*
X61118801Y33867121D01*
X61126018Y33859904D01*
X61134806Y33853519D01*
X61253518Y33734807D01*
X61259902Y33726020D01*
X61267121Y33718801D01*
X61289720Y33684979D01*
X61352195Y33598990D01*
X61368311Y33567360D01*
X61383656Y33544395D01*
X61399490Y33506168D01*
X61428406Y33449417D01*
X61448089Y33388839D01*
X61463926Y33350605D01*
X61469314Y33323514D01*
X61480286Y33289748D01*
X61496912Y33184773D01*
X61504848Y33144878D01*
X61504848Y33134670D01*
X61506547Y33123942D01*
X61506547Y32956059D01*
X61504848Y32945332D01*
X61504848Y32935122D01*
X61496911Y32895224D01*
X61480286Y32790253D01*
X61469315Y32756490D01*
X61463926Y32729395D01*
X61448087Y32691159D01*
X61428406Y32630584D01*
X61399492Y32573838D01*
X61383656Y32535605D01*
X61368309Y32512638D01*
X61352195Y32481011D01*
X61289728Y32395035D01*
X61267121Y32361199D01*
X61259899Y32353978D01*
X61253518Y32345194D01*
X61134806Y32226482D01*
X61126022Y32220101D01*
X61118801Y32212879D01*
X61084965Y32190272D01*
X60998989Y32127805D01*
X60967362Y32111691D01*
X60944395Y32096344D01*
X60906162Y32080508D01*
X60849416Y32051594D01*
X60788841Y32031913D01*
X60750605Y32016074D01*
X60723510Y32010685D01*
X60689747Y31999714D01*
X60584776Y31983089D01*
X60544878Y31975152D01*
X60534668Y31975152D01*
X60523941Y31973453D01*
X60356059Y31973453D01*
X60345332Y31975152D01*
X60335122Y31975152D01*
X60295225Y31983089D01*
X60190252Y31999714D01*
X60156486Y32010686D01*
X60129395Y32016074D01*
X60091161Y32031911D01*
X60030583Y32051594D01*
X59973832Y32080510D01*
X59935605Y32096344D01*
X59912640Y32111689D01*
X59881010Y32127805D01*
X59795021Y32190280D01*
X59761199Y32212879D01*
X59753980Y32220098D01*
X59745193Y32226482D01*
X59626481Y32345194D01*
X59620096Y32353982D01*
X59612879Y32361199D01*
X59590282Y32395017D01*
X59527804Y32481011D01*
X59511686Y32512644D01*
X59496344Y32535605D01*
X59480511Y32573828D01*
X59451593Y32630584D01*
X59431907Y32691170D01*
X59416074Y32729395D01*
X59410686Y32756482D01*
X59399713Y32790253D01*
X59383086Y32895233D01*
X59375152Y32935122D01*
X59375152Y32945332D01*
X59373453Y32956059D01*
X59373453Y33123942D01*
X59375152Y33134670D01*
X59375152Y33144878D01*
X59383085Y33184764D01*
X59399713Y33289748D01*
X59410686Y33323522D01*
X59416074Y33350605D01*
X59431905Y33388827D01*
X59451593Y33449417D01*
X59480514Y33506179D01*
X59496344Y33544395D01*
X59511684Y33567354D01*
X59527804Y33598990D01*
X59590290Y33684996D01*
X59612879Y33718801D01*
X59620093Y33726016D01*
X59626481Y33734807D01*
X59745193Y33853519D01*
X59753984Y33859907D01*
X59761199Y33867121D01*
X59795004Y33889710D01*
X59881010Y33952196D01*
X59912646Y33968316D01*
X59935605Y33983656D01*
X59973821Y33999486D01*
X60030583Y34028407D01*
X60091173Y34048095D01*
X60129395Y34063926D01*
X60156478Y34069314D01*
X60190252Y34080287D01*
X60295234Y34096914D01*
X60335122Y34104848D01*
X60345331Y34104848D01*
X60356059Y34106547D01*
X60523941Y34106547D01*
X60534669Y34104848D01*
G37*
G36*
X79584669Y34104848D02*
G01*
X79594878Y34104848D01*
X79634767Y34096914D01*
X79739747Y34080287D01*
X79773518Y34069314D01*
X79800605Y34063926D01*
X79838830Y34048093D01*
X79899416Y34028407D01*
X79956172Y33999489D01*
X79994395Y33983656D01*
X80017356Y33968314D01*
X80048989Y33952196D01*
X80134983Y33889718D01*
X80168801Y33867121D01*
X80176018Y33859904D01*
X80184806Y33853519D01*
X80303518Y33734807D01*
X80309902Y33726020D01*
X80317121Y33718801D01*
X80339720Y33684979D01*
X80402195Y33598990D01*
X80418311Y33567360D01*
X80433656Y33544395D01*
X80449490Y33506168D01*
X80478406Y33449417D01*
X80498089Y33388839D01*
X80513926Y33350605D01*
X80519314Y33323514D01*
X80530286Y33289748D01*
X80546912Y33184773D01*
X80554848Y33144878D01*
X80554848Y33134670D01*
X80556547Y33123942D01*
X80556547Y32956059D01*
X80554848Y32945332D01*
X80554848Y32935122D01*
X80546911Y32895224D01*
X80530286Y32790253D01*
X80519315Y32756490D01*
X80513926Y32729395D01*
X80498087Y32691159D01*
X80478406Y32630584D01*
X80449492Y32573838D01*
X80433656Y32535605D01*
X80418309Y32512638D01*
X80402195Y32481011D01*
X80339728Y32395035D01*
X80317121Y32361199D01*
X80309899Y32353978D01*
X80303518Y32345194D01*
X80184806Y32226482D01*
X80176022Y32220101D01*
X80168801Y32212879D01*
X80134965Y32190272D01*
X80048989Y32127805D01*
X80017362Y32111691D01*
X79994395Y32096344D01*
X79956162Y32080508D01*
X79899416Y32051594D01*
X79838841Y32031913D01*
X79800605Y32016074D01*
X79773510Y32010685D01*
X79739747Y31999714D01*
X79634776Y31983089D01*
X79594878Y31975152D01*
X79584668Y31975152D01*
X79573941Y31973453D01*
X79406059Y31973453D01*
X79395332Y31975152D01*
X79385122Y31975152D01*
X79345225Y31983089D01*
X79240252Y31999714D01*
X79206486Y32010686D01*
X79179395Y32016074D01*
X79141161Y32031911D01*
X79080583Y32051594D01*
X79023832Y32080510D01*
X78985605Y32096344D01*
X78962640Y32111689D01*
X78931010Y32127805D01*
X78845021Y32190280D01*
X78811199Y32212879D01*
X78803980Y32220098D01*
X78795193Y32226482D01*
X78676481Y32345194D01*
X78670096Y32353982D01*
X78662879Y32361199D01*
X78640282Y32395017D01*
X78577804Y32481011D01*
X78561686Y32512644D01*
X78546344Y32535605D01*
X78530511Y32573828D01*
X78501593Y32630584D01*
X78481907Y32691170D01*
X78466074Y32729395D01*
X78460686Y32756482D01*
X78449713Y32790253D01*
X78433086Y32895233D01*
X78425152Y32935122D01*
X78425152Y32945332D01*
X78423453Y32956059D01*
X78423453Y33123942D01*
X78425152Y33134670D01*
X78425152Y33144878D01*
X78433085Y33184764D01*
X78449713Y33289748D01*
X78460686Y33323522D01*
X78466074Y33350605D01*
X78481905Y33388827D01*
X78501593Y33449417D01*
X78530514Y33506179D01*
X78546344Y33544395D01*
X78561684Y33567354D01*
X78577804Y33598990D01*
X78640290Y33684996D01*
X78662879Y33718801D01*
X78670093Y33726016D01*
X78676481Y33734807D01*
X78795193Y33853519D01*
X78803984Y33859907D01*
X78811199Y33867121D01*
X78845004Y33889710D01*
X78931010Y33952196D01*
X78962646Y33968316D01*
X78985605Y33983656D01*
X79023821Y33999486D01*
X79080583Y34028407D01*
X79141173Y34048095D01*
X79179395Y34063926D01*
X79206478Y34069314D01*
X79240252Y34080287D01*
X79345234Y34096914D01*
X79385122Y34104848D01*
X79395331Y34104848D01*
X79406059Y34106547D01*
X79573941Y34106547D01*
X79584669Y34104848D01*
G37*
G36*
X48167654Y35658478D02*
G01*
X48174142Y35654142D01*
X48178478Y35647654D01*
X48180000Y35640000D01*
X48180000Y33940000D01*
X48178478Y33932346D01*
X48174142Y33925858D01*
X48167654Y33921522D01*
X48160000Y33920000D01*
X46460000Y33920000D01*
X46452346Y33921522D01*
X46445858Y33925858D01*
X46441522Y33932346D01*
X46440000Y33940000D01*
X46440000Y35640000D01*
X46441522Y35647654D01*
X46445858Y35654142D01*
X46452346Y35658478D01*
X46460000Y35660000D01*
X48160000Y35660000D01*
X48167654Y35658478D01*
G37*
G36*
X39942548Y35622538D02*
G01*
X40100115Y35557271D01*
X40241922Y35462519D01*
X40362519Y35341922D01*
X40457271Y35200115D01*
X40522538Y35042548D01*
X40555811Y34875275D01*
X40555811Y34704725D01*
X40522538Y34537452D01*
X40457271Y34379885D01*
X40362519Y34238078D01*
X40241922Y34117481D01*
X40100115Y34022729D01*
X39942548Y33957462D01*
X39775275Y33924189D01*
X39604725Y33924189D01*
X39437452Y33957462D01*
X39279885Y34022729D01*
X39138078Y34117481D01*
X39017481Y34238078D01*
X38922729Y34379885D01*
X38857462Y34537452D01*
X38824189Y34704725D01*
X38824189Y34875275D01*
X38857462Y35042548D01*
X38922729Y35200115D01*
X39017481Y35341922D01*
X39138078Y35462519D01*
X39279885Y35557271D01*
X39437452Y35622538D01*
X39604725Y35655811D01*
X39775275Y35655811D01*
X39942548Y35622538D01*
G37*
G36*
X66884669Y36644848D02*
G01*
X66894878Y36644848D01*
X66934767Y36636914D01*
X67039747Y36620287D01*
X67073518Y36609314D01*
X67100605Y36603926D01*
X67138830Y36588093D01*
X67199416Y36568407D01*
X67256172Y36539489D01*
X67294395Y36523656D01*
X67317356Y36508314D01*
X67348989Y36492196D01*
X67434983Y36429718D01*
X67468801Y36407121D01*
X67476018Y36399904D01*
X67484806Y36393519D01*
X67603518Y36274807D01*
X67609902Y36266020D01*
X67617121Y36258801D01*
X67639720Y36224979D01*
X67702195Y36138990D01*
X67718311Y36107360D01*
X67733656Y36084395D01*
X67749490Y36046168D01*
X67778406Y35989417D01*
X67798089Y35928839D01*
X67813926Y35890605D01*
X67819314Y35863514D01*
X67830286Y35829748D01*
X67846912Y35724773D01*
X67854848Y35684878D01*
X67854848Y35674670D01*
X67856547Y35663942D01*
X67856547Y35496059D01*
X67854848Y35485332D01*
X67854848Y35475122D01*
X67846911Y35435224D01*
X67830286Y35330253D01*
X67819315Y35296490D01*
X67813926Y35269395D01*
X67798087Y35231159D01*
X67778406Y35170584D01*
X67749492Y35113838D01*
X67733656Y35075605D01*
X67718309Y35052638D01*
X67702195Y35021011D01*
X67639728Y34935035D01*
X67617121Y34901199D01*
X67609899Y34893978D01*
X67603518Y34885194D01*
X67484806Y34766482D01*
X67476022Y34760101D01*
X67468801Y34752879D01*
X67434965Y34730272D01*
X67348989Y34667805D01*
X67317362Y34651691D01*
X67294395Y34636344D01*
X67256162Y34620508D01*
X67199416Y34591594D01*
X67138841Y34571913D01*
X67100605Y34556074D01*
X67073510Y34550685D01*
X67039747Y34539714D01*
X66934776Y34523089D01*
X66894878Y34515152D01*
X66884668Y34515152D01*
X66873941Y34513453D01*
X66706059Y34513453D01*
X66695332Y34515152D01*
X66685122Y34515152D01*
X66645225Y34523089D01*
X66540252Y34539714D01*
X66506486Y34550686D01*
X66479395Y34556074D01*
X66441161Y34571911D01*
X66380583Y34591594D01*
X66323832Y34620510D01*
X66285605Y34636344D01*
X66262640Y34651689D01*
X66231010Y34667805D01*
X66145021Y34730280D01*
X66111199Y34752879D01*
X66103980Y34760098D01*
X66095193Y34766482D01*
X65976481Y34885194D01*
X65970096Y34893982D01*
X65962879Y34901199D01*
X65940282Y34935017D01*
X65877804Y35021011D01*
X65861686Y35052644D01*
X65846344Y35075605D01*
X65830511Y35113828D01*
X65801593Y35170584D01*
X65781907Y35231170D01*
X65766074Y35269395D01*
X65760686Y35296482D01*
X65749713Y35330253D01*
X65733086Y35435233D01*
X65725152Y35475122D01*
X65725152Y35485332D01*
X65723453Y35496059D01*
X65723453Y35663942D01*
X65725152Y35674670D01*
X65725152Y35684878D01*
X65733085Y35724764D01*
X65749713Y35829748D01*
X65760686Y35863522D01*
X65766074Y35890605D01*
X65781905Y35928827D01*
X65801593Y35989417D01*
X65830514Y36046179D01*
X65846344Y36084395D01*
X65861684Y36107354D01*
X65877804Y36138990D01*
X65940290Y36224996D01*
X65962879Y36258801D01*
X65970093Y36266016D01*
X65976481Y36274807D01*
X66095193Y36393519D01*
X66103984Y36399907D01*
X66111199Y36407121D01*
X66145004Y36429710D01*
X66231010Y36492196D01*
X66262646Y36508316D01*
X66285605Y36523656D01*
X66323821Y36539486D01*
X66380583Y36568407D01*
X66441173Y36588095D01*
X66479395Y36603926D01*
X66506478Y36609314D01*
X66540252Y36620287D01*
X66645234Y36636914D01*
X66685122Y36644848D01*
X66695331Y36644848D01*
X66706059Y36646547D01*
X66873941Y36646547D01*
X66884669Y36644848D01*
G37*
G36*
X85934669Y36644848D02*
G01*
X85944878Y36644848D01*
X85984767Y36636914D01*
X86089747Y36620287D01*
X86123518Y36609314D01*
X86150605Y36603926D01*
X86188830Y36588093D01*
X86249416Y36568407D01*
X86306172Y36539489D01*
X86344395Y36523656D01*
X86367356Y36508314D01*
X86398989Y36492196D01*
X86484983Y36429718D01*
X86518801Y36407121D01*
X86526018Y36399904D01*
X86534806Y36393519D01*
X86653518Y36274807D01*
X86659902Y36266020D01*
X86667121Y36258801D01*
X86689720Y36224979D01*
X86752195Y36138990D01*
X86768311Y36107360D01*
X86783656Y36084395D01*
X86799490Y36046168D01*
X86828406Y35989417D01*
X86848089Y35928839D01*
X86863926Y35890605D01*
X86869314Y35863514D01*
X86880286Y35829748D01*
X86896912Y35724773D01*
X86904848Y35684878D01*
X86904848Y35674670D01*
X86906547Y35663942D01*
X86906547Y35496059D01*
X86904848Y35485332D01*
X86904848Y35475122D01*
X86896911Y35435224D01*
X86880286Y35330253D01*
X86869315Y35296490D01*
X86863926Y35269395D01*
X86848087Y35231159D01*
X86828406Y35170584D01*
X86799492Y35113838D01*
X86783656Y35075605D01*
X86768309Y35052638D01*
X86752195Y35021011D01*
X86689728Y34935035D01*
X86667121Y34901199D01*
X86659899Y34893978D01*
X86653518Y34885194D01*
X86534806Y34766482D01*
X86526022Y34760101D01*
X86518801Y34752879D01*
X86484965Y34730272D01*
X86398989Y34667805D01*
X86367362Y34651691D01*
X86344395Y34636344D01*
X86306162Y34620508D01*
X86249416Y34591594D01*
X86188841Y34571913D01*
X86150605Y34556074D01*
X86123510Y34550685D01*
X86089747Y34539714D01*
X85984776Y34523089D01*
X85944878Y34515152D01*
X85934668Y34515152D01*
X85923941Y34513453D01*
X85756059Y34513453D01*
X85745332Y34515152D01*
X85735122Y34515152D01*
X85695225Y34523089D01*
X85590252Y34539714D01*
X85556486Y34550686D01*
X85529395Y34556074D01*
X85491161Y34571911D01*
X85430583Y34591594D01*
X85373832Y34620510D01*
X85335605Y34636344D01*
X85312640Y34651689D01*
X85281010Y34667805D01*
X85195021Y34730280D01*
X85161199Y34752879D01*
X85153980Y34760098D01*
X85145193Y34766482D01*
X85026481Y34885194D01*
X85020096Y34893982D01*
X85012879Y34901199D01*
X84990282Y34935017D01*
X84927804Y35021011D01*
X84911686Y35052644D01*
X84896344Y35075605D01*
X84880511Y35113828D01*
X84851593Y35170584D01*
X84831907Y35231170D01*
X84816074Y35269395D01*
X84810686Y35296482D01*
X84799713Y35330253D01*
X84783086Y35435233D01*
X84775152Y35475122D01*
X84775152Y35485332D01*
X84773453Y35496059D01*
X84773453Y35663942D01*
X84775152Y35674670D01*
X84775152Y35684878D01*
X84783085Y35724764D01*
X84799713Y35829748D01*
X84810686Y35863522D01*
X84816074Y35890605D01*
X84831905Y35928827D01*
X84851593Y35989417D01*
X84880514Y36046179D01*
X84896344Y36084395D01*
X84911684Y36107354D01*
X84927804Y36138990D01*
X84990290Y36224996D01*
X85012879Y36258801D01*
X85020093Y36266016D01*
X85026481Y36274807D01*
X85145193Y36393519D01*
X85153984Y36399907D01*
X85161199Y36407121D01*
X85195004Y36429710D01*
X85281010Y36492196D01*
X85312646Y36508316D01*
X85335605Y36523656D01*
X85373821Y36539486D01*
X85430583Y36568407D01*
X85491173Y36588095D01*
X85529395Y36603926D01*
X85556478Y36609314D01*
X85590252Y36620287D01*
X85695234Y36636914D01*
X85735122Y36644848D01*
X85745331Y36644848D01*
X85756059Y36646547D01*
X85923941Y36646547D01*
X85934669Y36644848D01*
G37*
G36*
X14031576Y38178232D02*
G01*
X14207255Y38105464D01*
X14365361Y37999820D01*
X14499820Y37865361D01*
X14605464Y37707255D01*
X14678232Y37531576D01*
X14715329Y37345077D01*
X14715329Y37154923D01*
X14678232Y36968424D01*
X14605464Y36792745D01*
X14499820Y36634639D01*
X14365361Y36500180D01*
X14207255Y36394536D01*
X14031576Y36321768D01*
X13845077Y36284671D01*
X13654923Y36284671D01*
X13468424Y36321768D01*
X13292745Y36394536D01*
X13134639Y36500180D01*
X13000180Y36634639D01*
X12894536Y36792745D01*
X12821768Y36968424D01*
X12784671Y37154923D01*
X12784671Y37345077D01*
X12821768Y37531576D01*
X12894536Y37707255D01*
X13000180Y37865361D01*
X13134639Y37999820D01*
X13292745Y38105464D01*
X13468424Y38178232D01*
X13654923Y38215329D01*
X13845077Y38215329D01*
X14031576Y38178232D01*
G37*
G36*
X20531576Y38178232D02*
G01*
X20707255Y38105464D01*
X20865361Y37999820D01*
X20999820Y37865361D01*
X21105464Y37707255D01*
X21178232Y37531576D01*
X21215329Y37345077D01*
X21215329Y37154923D01*
X21178232Y36968424D01*
X21105464Y36792745D01*
X20999820Y36634639D01*
X20865361Y36500180D01*
X20707255Y36394536D01*
X20531576Y36321768D01*
X20345077Y36284671D01*
X20154923Y36284671D01*
X19968424Y36321768D01*
X19792745Y36394536D01*
X19634639Y36500180D01*
X19500180Y36634639D01*
X19394536Y36792745D01*
X19321768Y36968424D01*
X19284671Y37154923D01*
X19284671Y37345077D01*
X19321768Y37531576D01*
X19394536Y37707255D01*
X19500180Y37865361D01*
X19634639Y37999820D01*
X19792745Y38105464D01*
X19968424Y38178232D01*
X20154923Y38215329D01*
X20345077Y38215329D01*
X20531576Y38178232D01*
G37*
G36*
X9308148Y50203528D02*
G01*
X9505142Y50139521D01*
X9689698Y50045485D01*
X9857271Y49923736D01*
X10003736Y49777271D01*
X10125485Y49609698D01*
X10219521Y49425142D01*
X10283528Y49228148D01*
X10315931Y49023566D01*
X10315931Y48816434D01*
X10283528Y48611852D01*
X10219521Y48414858D01*
X10125485Y48230302D01*
X10003736Y48062729D01*
X9857271Y47916264D01*
X9689698Y47794515D01*
X9505142Y47700479D01*
X9308148Y47636472D01*
X9103566Y47604069D01*
X8896434Y47604069D01*
X8691852Y47636472D01*
X8494858Y47700479D01*
X8310302Y47794515D01*
X8142729Y47916264D01*
X7996264Y48062729D01*
X7874515Y48230302D01*
X7780479Y48414858D01*
X7716472Y48611852D01*
X7684069Y48816434D01*
X7684069Y49023566D01*
X7716472Y49228148D01*
X7780479Y49425142D01*
X7874515Y49609698D01*
X7996264Y49777271D01*
X8142729Y49923736D01*
X8310302Y50045485D01*
X8494858Y50139521D01*
X8691852Y50203528D01*
X8896434Y50235931D01*
X9103566Y50235931D01*
X9308148Y50203528D01*
G37*
G36*
X35252548Y53592538D02*
G01*
X35410115Y53527271D01*
X35551922Y53432519D01*
X35672519Y53311922D01*
X35767271Y53170115D01*
X35832538Y53012548D01*
X35865811Y52845275D01*
X35865811Y52674725D01*
X35832538Y52507452D01*
X35767271Y52349885D01*
X35672519Y52208078D01*
X35551922Y52087481D01*
X35410115Y51992729D01*
X35252548Y51927462D01*
X35085275Y51894189D01*
X34914725Y51894189D01*
X34747452Y51927462D01*
X34589885Y51992729D01*
X34448078Y52087481D01*
X34327481Y52208078D01*
X34232729Y52349885D01*
X34167462Y52507452D01*
X34134189Y52674725D01*
X34134189Y52845275D01*
X34167462Y53012548D01*
X34232729Y53170115D01*
X34327481Y53311922D01*
X34448078Y53432519D01*
X34589885Y53527271D01*
X34747452Y53592538D01*
X34914725Y53625811D01*
X35085275Y53625811D01*
X35252548Y53592538D01*
G37*
G36*
X10056411Y55318725D02*
G01*
X10118664Y55310529D01*
X10134324Y55303227D01*
X10153325Y55299447D01*
X10178491Y55282632D01*
X10204422Y55270540D01*
X10220197Y55254765D01*
X10240919Y55240919D01*
X10254764Y55220198D01*
X10270539Y55204423D01*
X10282629Y55178495D01*
X10299447Y55153325D01*
X10303226Y55134323D01*
X10310528Y55118665D01*
X10318722Y55056425D01*
X10320000Y55050000D01*
X10320000Y52950000D01*
X10318721Y52943574D01*
X10310528Y52881336D01*
X10303227Y52865680D01*
X10299447Y52846675D01*
X10282628Y52821504D01*
X10270539Y52795578D01*
X10254766Y52779806D01*
X10240919Y52759081D01*
X10220194Y52745234D01*
X10204422Y52729461D01*
X10178496Y52717372D01*
X10153325Y52700553D01*
X10134320Y52696773D01*
X10118664Y52689472D01*
X10056426Y52681279D01*
X10050000Y52680000D01*
X7950000Y52680000D01*
X7943575Y52681278D01*
X7881335Y52689472D01*
X7865677Y52696774D01*
X7846675Y52700553D01*
X7821505Y52717371D01*
X7795577Y52729461D01*
X7779802Y52745236D01*
X7759081Y52759081D01*
X7745235Y52779803D01*
X7729460Y52795578D01*
X7717368Y52821509D01*
X7700553Y52846675D01*
X7696773Y52865676D01*
X7689471Y52881336D01*
X7681275Y52943589D01*
X7680000Y52950000D01*
X7680000Y55050000D01*
X7681275Y55056410D01*
X7689471Y55118665D01*
X7696773Y55134327D01*
X7700553Y55153325D01*
X7717367Y55178490D01*
X7729460Y55204423D01*
X7745237Y55220201D01*
X7759081Y55240919D01*
X7779799Y55254763D01*
X7795577Y55270540D01*
X7821510Y55282633D01*
X7846675Y55299447D01*
X7865673Y55303227D01*
X7881335Y55310529D01*
X7943590Y55318725D01*
X7950000Y55320000D01*
X10050000Y55320000D01*
X10056411Y55318725D01*
G37*
G36*
X84056411Y56318725D02*
G01*
X84118664Y56310529D01*
X84134324Y56303227D01*
X84153325Y56299447D01*
X84178491Y56282632D01*
X84204422Y56270540D01*
X84220197Y56254765D01*
X84240919Y56240919D01*
X84254764Y56220198D01*
X84270539Y56204423D01*
X84282629Y56178495D01*
X84299447Y56153325D01*
X84303226Y56134323D01*
X84310528Y56118665D01*
X84318722Y56056425D01*
X84320000Y56050000D01*
X84320000Y53950000D01*
X84318721Y53943574D01*
X84310528Y53881336D01*
X84303227Y53865680D01*
X84299447Y53846675D01*
X84282628Y53821504D01*
X84270539Y53795578D01*
X84254766Y53779806D01*
X84240919Y53759081D01*
X84220194Y53745234D01*
X84204422Y53729461D01*
X84178496Y53717372D01*
X84153325Y53700553D01*
X84134320Y53696773D01*
X84118664Y53689472D01*
X84056426Y53681279D01*
X84050000Y53680000D01*
X81950000Y53680000D01*
X81943575Y53681278D01*
X81881335Y53689472D01*
X81865677Y53696774D01*
X81846675Y53700553D01*
X81821505Y53717371D01*
X81795577Y53729461D01*
X81779802Y53745236D01*
X81759081Y53759081D01*
X81745235Y53779803D01*
X81729460Y53795578D01*
X81717368Y53821509D01*
X81700553Y53846675D01*
X81696773Y53865676D01*
X81689471Y53881336D01*
X81681275Y53943589D01*
X81680000Y53950000D01*
X81680000Y56050000D01*
X81681275Y56056410D01*
X81689471Y56118665D01*
X81696773Y56134327D01*
X81700553Y56153325D01*
X81717367Y56178490D01*
X81729460Y56204423D01*
X81745237Y56220201D01*
X81759081Y56240919D01*
X81779799Y56254763D01*
X81795577Y56270540D01*
X81821510Y56282633D01*
X81846675Y56299447D01*
X81865673Y56303227D01*
X81881335Y56310529D01*
X81943590Y56318725D01*
X81950000Y56320000D01*
X84050000Y56320000D01*
X84056411Y56318725D01*
G37*
G36*
X35252548Y56132538D02*
G01*
X35410115Y56067271D01*
X35551922Y55972519D01*
X35672519Y55851922D01*
X35767271Y55710115D01*
X35832538Y55552548D01*
X35865811Y55385275D01*
X35865811Y55214725D01*
X35832538Y55047452D01*
X35767271Y54889885D01*
X35672519Y54748078D01*
X35551922Y54627481D01*
X35410115Y54532729D01*
X35252548Y54467462D01*
X35085275Y54434189D01*
X34914725Y54434189D01*
X34747452Y54467462D01*
X34589885Y54532729D01*
X34448078Y54627481D01*
X34327481Y54748078D01*
X34232729Y54889885D01*
X34167462Y55047452D01*
X34134189Y55214725D01*
X34134189Y55385275D01*
X34167462Y55552548D01*
X34232729Y55710115D01*
X34327481Y55851922D01*
X34448078Y55972519D01*
X34589885Y56067271D01*
X34747452Y56132538D01*
X34914725Y56165811D01*
X35085275Y56165811D01*
X35252548Y56132538D01*
G37*
G36*
X21684316Y57328201D02*
G01*
X21734602Y57294602D01*
X21768201Y57244316D01*
X21780000Y57185000D01*
X21780000Y56815000D01*
X21768201Y56755684D01*
X21734602Y56705398D01*
X21684316Y56671799D01*
X21625000Y56660000D01*
X21355000Y56660000D01*
X21295684Y56671799D01*
X21245398Y56705398D01*
X21211799Y56755684D01*
X21200000Y56815000D01*
X21200000Y57185000D01*
X21211799Y57244316D01*
X21245398Y57294602D01*
X21295684Y57328201D01*
X21355000Y57340000D01*
X21625000Y57340000D01*
X21684316Y57328201D01*
G37*
G36*
X22704316Y57328201D02*
G01*
X22754602Y57294602D01*
X22788201Y57244316D01*
X22800000Y57185000D01*
X22800000Y56815000D01*
X22788201Y56755684D01*
X22754602Y56705398D01*
X22704316Y56671799D01*
X22645000Y56660000D01*
X22375000Y56660000D01*
X22315684Y56671799D01*
X22265398Y56705398D01*
X22231799Y56755684D01*
X22220000Y56815000D01*
X22220000Y57185000D01*
X22231799Y57244316D01*
X22265398Y57294602D01*
X22315684Y57328201D01*
X22375000Y57340000D01*
X22645000Y57340000D01*
X22704316Y57328201D01*
G37*
G36*
X35252548Y58672538D02*
G01*
X35410115Y58607271D01*
X35551922Y58512519D01*
X35672519Y58391922D01*
X35767271Y58250115D01*
X35832538Y58092548D01*
X35865811Y57925275D01*
X35865811Y57754725D01*
X35832538Y57587452D01*
X35767271Y57429885D01*
X35672519Y57288078D01*
X35551922Y57167481D01*
X35410115Y57072729D01*
X35252548Y57007462D01*
X35085275Y56974189D01*
X34914725Y56974189D01*
X34747452Y57007462D01*
X34589885Y57072729D01*
X34448078Y57167481D01*
X34327481Y57288078D01*
X34232729Y57429885D01*
X34167462Y57587452D01*
X34134189Y57754725D01*
X34134189Y57925275D01*
X34167462Y58092548D01*
X34232729Y58250115D01*
X34327481Y58391922D01*
X34448078Y58512519D01*
X34589885Y58607271D01*
X34747452Y58672538D01*
X34914725Y58705811D01*
X35085275Y58705811D01*
X35252548Y58672538D01*
G37*
G36*
X83308148Y61363528D02*
G01*
X83505142Y61299521D01*
X83689698Y61205485D01*
X83857271Y61083736D01*
X84003736Y60937271D01*
X84125485Y60769698D01*
X84219521Y60585142D01*
X84283528Y60388148D01*
X84315931Y60183566D01*
X84315931Y59976434D01*
X84283528Y59771852D01*
X84219521Y59574858D01*
X84125485Y59390302D01*
X84003736Y59222729D01*
X83857271Y59076264D01*
X83689698Y58954515D01*
X83505142Y58860479D01*
X83308148Y58796472D01*
X83103566Y58764069D01*
X82896434Y58764069D01*
X82691852Y58796472D01*
X82494858Y58860479D01*
X82310302Y58954515D01*
X82142729Y59076264D01*
X81996264Y59222729D01*
X81874515Y59390302D01*
X81780479Y59574858D01*
X81716472Y59771852D01*
X81684069Y59976434D01*
X81684069Y60183566D01*
X81716472Y60388148D01*
X81780479Y60585142D01*
X81874515Y60769698D01*
X81996264Y60937271D01*
X82142729Y61083736D01*
X82310302Y61205485D01*
X82494858Y61299521D01*
X82691852Y61363528D01*
X82896434Y61395931D01*
X83103566Y61395931D01*
X83308148Y61363528D01*
G37*
G36*
X35252548Y61212538D02*
G01*
X35410115Y61147271D01*
X35551922Y61052519D01*
X35672519Y60931922D01*
X35767271Y60790115D01*
X35832538Y60632548D01*
X35865811Y60465275D01*
X35865811Y60294725D01*
X35832538Y60127452D01*
X35767271Y59969885D01*
X35672519Y59828078D01*
X35551922Y59707481D01*
X35410115Y59612729D01*
X35252548Y59547462D01*
X35085275Y59514189D01*
X34914725Y59514189D01*
X34747452Y59547462D01*
X34589885Y59612729D01*
X34448078Y59707481D01*
X34327481Y59828078D01*
X34232729Y59969885D01*
X34167462Y60127452D01*
X34134189Y60294725D01*
X34134189Y60465275D01*
X34167462Y60632548D01*
X34232729Y60790115D01*
X34327481Y60931922D01*
X34448078Y61052519D01*
X34589885Y61147271D01*
X34747452Y61212538D01*
X34914725Y61245811D01*
X35085275Y61245811D01*
X35252548Y61212538D01*
G37*
G36*
X9308148Y62703528D02*
G01*
X9505142Y62639521D01*
X9689698Y62545485D01*
X9857271Y62423736D01*
X10003736Y62277271D01*
X10125485Y62109698D01*
X10219521Y61925142D01*
X10283528Y61728148D01*
X10315931Y61523566D01*
X10315931Y61316434D01*
X10283528Y61111852D01*
X10219521Y60914858D01*
X10125485Y60730302D01*
X10003736Y60562729D01*
X9857271Y60416264D01*
X9689698Y60294515D01*
X9505142Y60200479D01*
X9308148Y60136472D01*
X9103566Y60104069D01*
X8896434Y60104069D01*
X8691852Y60136472D01*
X8494858Y60200479D01*
X8310302Y60294515D01*
X8142729Y60416264D01*
X7996264Y60562729D01*
X7874515Y60730302D01*
X7780479Y60914858D01*
X7716472Y61111852D01*
X7684069Y61316434D01*
X7684069Y61523566D01*
X7716472Y61728148D01*
X7780479Y61925142D01*
X7874515Y62109698D01*
X7996264Y62277271D01*
X8142729Y62423736D01*
X8310302Y62545485D01*
X8494858Y62639521D01*
X8691852Y62703528D01*
X8896434Y62735931D01*
X9103566Y62735931D01*
X9308148Y62703528D01*
G37*
G36*
X21684316Y62328201D02*
G01*
X21734602Y62294602D01*
X21768201Y62244316D01*
X21780000Y62185000D01*
X21780000Y61815000D01*
X21768201Y61755684D01*
X21734602Y61705398D01*
X21684316Y61671799D01*
X21625000Y61660000D01*
X21355000Y61660000D01*
X21295684Y61671799D01*
X21245398Y61705398D01*
X21211799Y61755684D01*
X21200000Y61815000D01*
X21200000Y62185000D01*
X21211799Y62244316D01*
X21245398Y62294602D01*
X21295684Y62328201D01*
X21355000Y62340000D01*
X21625000Y62340000D01*
X21684316Y62328201D01*
G37*
G36*
X22704316Y62328201D02*
G01*
X22754602Y62294602D01*
X22788201Y62244316D01*
X22800000Y62185000D01*
X22800000Y61815000D01*
X22788201Y61755684D01*
X22754602Y61705398D01*
X22704316Y61671799D01*
X22645000Y61660000D01*
X22375000Y61660000D01*
X22315684Y61671799D01*
X22265398Y61705398D01*
X22231799Y61755684D01*
X22220000Y61815000D01*
X22220000Y62185000D01*
X22231799Y62244316D01*
X22265398Y62294602D01*
X22315684Y62328201D01*
X22375000Y62340000D01*
X22645000Y62340000D01*
X22704316Y62328201D01*
G37*
G36*
X35252548Y63752538D02*
G01*
X35410115Y63687271D01*
X35551922Y63592519D01*
X35672519Y63471922D01*
X35767271Y63330115D01*
X35832538Y63172548D01*
X35865811Y63005275D01*
X35865811Y62834725D01*
X35832538Y62667452D01*
X35767271Y62509885D01*
X35672519Y62368078D01*
X35551922Y62247481D01*
X35410115Y62152729D01*
X35252548Y62087462D01*
X35085275Y62054189D01*
X34914725Y62054189D01*
X34747452Y62087462D01*
X34589885Y62152729D01*
X34448078Y62247481D01*
X34327481Y62368078D01*
X34232729Y62509885D01*
X34167462Y62667452D01*
X34134189Y62834725D01*
X34134189Y63005275D01*
X34167462Y63172548D01*
X34232729Y63330115D01*
X34327481Y63471922D01*
X34448078Y63592519D01*
X34589885Y63687271D01*
X34747452Y63752538D01*
X34914725Y63785811D01*
X35085275Y63785811D01*
X35252548Y63752538D01*
G37*
G36*
X83308148Y66443528D02*
G01*
X83505142Y66379521D01*
X83689698Y66285485D01*
X83857271Y66163736D01*
X84003736Y66017271D01*
X84125485Y65849698D01*
X84219521Y65665142D01*
X84283528Y65468148D01*
X84315931Y65263566D01*
X84315931Y65056434D01*
X84283528Y64851852D01*
X84219521Y64654858D01*
X84125485Y64470302D01*
X84003736Y64302729D01*
X83857271Y64156264D01*
X83689698Y64034515D01*
X83505142Y63940479D01*
X83308148Y63876472D01*
X83103566Y63844069D01*
X82896434Y63844069D01*
X82691852Y63876472D01*
X82494858Y63940479D01*
X82310302Y64034515D01*
X82142729Y64156264D01*
X81996264Y64302729D01*
X81874515Y64470302D01*
X81780479Y64654858D01*
X81716472Y64851852D01*
X81684069Y65056434D01*
X81684069Y65263566D01*
X81716472Y65468148D01*
X81780479Y65665142D01*
X81874515Y65849698D01*
X81996264Y66017271D01*
X82142729Y66163736D01*
X82310302Y66285485D01*
X82494858Y66379521D01*
X82691852Y66443528D01*
X82896434Y66475931D01*
X83103566Y66475931D01*
X83308148Y66443528D01*
G37*
G36*
X35252548Y66292538D02*
G01*
X35410115Y66227271D01*
X35551922Y66132519D01*
X35672519Y66011922D01*
X35767271Y65870115D01*
X35832538Y65712548D01*
X35865811Y65545275D01*
X35865811Y65374725D01*
X35832538Y65207452D01*
X35767271Y65049885D01*
X35672519Y64908078D01*
X35551922Y64787481D01*
X35410115Y64692729D01*
X35252548Y64627462D01*
X35085275Y64594189D01*
X34914725Y64594189D01*
X34747452Y64627462D01*
X34589885Y64692729D01*
X34448078Y64787481D01*
X34327481Y64908078D01*
X34232729Y65049885D01*
X34167462Y65207452D01*
X34134189Y65374725D01*
X34134189Y65545275D01*
X34167462Y65712548D01*
X34232729Y65870115D01*
X34327481Y66011922D01*
X34448078Y66132519D01*
X34589885Y66227271D01*
X34747452Y66292538D01*
X34914725Y66325811D01*
X35085275Y66325811D01*
X35252548Y66292538D01*
G37*
G36*
X10056411Y67818725D02*
G01*
X10118664Y67810529D01*
X10134324Y67803227D01*
X10153325Y67799447D01*
X10178491Y67782632D01*
X10204422Y67770540D01*
X10220197Y67754765D01*
X10240919Y67740919D01*
X10254764Y67720198D01*
X10270539Y67704423D01*
X10282629Y67678495D01*
X10299447Y67653325D01*
X10303226Y67634323D01*
X10310528Y67618665D01*
X10318722Y67556425D01*
X10320000Y67550000D01*
X10320000Y65450000D01*
X10318721Y65443574D01*
X10310528Y65381336D01*
X10303227Y65365680D01*
X10299447Y65346675D01*
X10282628Y65321504D01*
X10270539Y65295578D01*
X10254766Y65279806D01*
X10240919Y65259081D01*
X10220194Y65245234D01*
X10204422Y65229461D01*
X10178496Y65217372D01*
X10153325Y65200553D01*
X10134320Y65196773D01*
X10118664Y65189472D01*
X10056426Y65181279D01*
X10050000Y65180000D01*
X7950000Y65180000D01*
X7943575Y65181278D01*
X7881335Y65189472D01*
X7865677Y65196774D01*
X7846675Y65200553D01*
X7821505Y65217371D01*
X7795577Y65229461D01*
X7779802Y65245236D01*
X7759081Y65259081D01*
X7745235Y65279803D01*
X7729460Y65295578D01*
X7717368Y65321509D01*
X7700553Y65346675D01*
X7696773Y65365676D01*
X7689471Y65381336D01*
X7681275Y65443589D01*
X7680000Y65450000D01*
X7680000Y67550000D01*
X7681275Y67556410D01*
X7689471Y67618665D01*
X7696773Y67634327D01*
X7700553Y67653325D01*
X7717367Y67678490D01*
X7729460Y67704423D01*
X7745237Y67720201D01*
X7759081Y67740919D01*
X7779799Y67754763D01*
X7795577Y67770540D01*
X7821510Y67782633D01*
X7846675Y67799447D01*
X7865673Y67803227D01*
X7881335Y67810529D01*
X7943590Y67818725D01*
X7950000Y67820000D01*
X10050000Y67820000D01*
X10056411Y67818725D01*
G37*
G36*
X35857654Y68868478D02*
G01*
X35864142Y68864142D01*
X35868478Y68857654D01*
X35870000Y68850000D01*
X35870000Y67150000D01*
X35868478Y67142346D01*
X35864142Y67135858D01*
X35857654Y67131522D01*
X35850000Y67130000D01*
X34150000Y67130000D01*
X34142346Y67131522D01*
X34135858Y67135858D01*
X34131522Y67142346D01*
X34130000Y67150000D01*
X34130000Y68850000D01*
X34131522Y68857654D01*
X34135858Y68864142D01*
X34142346Y68868478D01*
X34150000Y68870000D01*
X35850000Y68870000D01*
X35857654Y68868478D01*
G37*
G36*
X75857654Y76168478D02*
G01*
X75864142Y76164142D01*
X75868478Y76157654D01*
X75870000Y76150000D01*
X75870000Y74450000D01*
X75868478Y74442346D01*
X75864142Y74435858D01*
X75857654Y74431522D01*
X75850000Y74430000D01*
X74150000Y74430000D01*
X74142346Y74431522D01*
X74135858Y74435858D01*
X74131522Y74442346D01*
X74130000Y74450000D01*
X74130000Y76150000D01*
X74131522Y76157654D01*
X74135858Y76164142D01*
X74142346Y76168478D01*
X74150000Y76170000D01*
X75850000Y76170000D01*
X75857654Y76168478D01*
G37*
G36*
X21912548Y76132538D02*
G01*
X22070115Y76067271D01*
X22211922Y75972519D01*
X22332519Y75851922D01*
X22427271Y75710115D01*
X22492538Y75552548D01*
X22525811Y75385275D01*
X22525811Y75214725D01*
X22492538Y75047452D01*
X22427271Y74889885D01*
X22332519Y74748078D01*
X22211922Y74627481D01*
X22070115Y74532729D01*
X21912548Y74467462D01*
X21745275Y74434189D01*
X21574725Y74434189D01*
X21407452Y74467462D01*
X21249885Y74532729D01*
X21108078Y74627481D01*
X20987481Y74748078D01*
X20892729Y74889885D01*
X20827462Y75047452D01*
X20794189Y75214725D01*
X20794189Y75385275D01*
X20827462Y75552548D01*
X20892729Y75710115D01*
X20987481Y75851922D01*
X21108078Y75972519D01*
X21249885Y76067271D01*
X21407452Y76132538D01*
X21574725Y76165811D01*
X21745275Y76165811D01*
X21912548Y76132538D01*
G37*
G36*
X24452548Y76132538D02*
G01*
X24610115Y76067271D01*
X24751922Y75972519D01*
X24872519Y75851922D01*
X24967271Y75710115D01*
X25032538Y75552548D01*
X25065811Y75385275D01*
X25065811Y75214725D01*
X25032538Y75047452D01*
X24967271Y74889885D01*
X24872519Y74748078D01*
X24751922Y74627481D01*
X24610115Y74532729D01*
X24452548Y74467462D01*
X24285275Y74434189D01*
X24114725Y74434189D01*
X23947452Y74467462D01*
X23789885Y74532729D01*
X23648078Y74627481D01*
X23527481Y74748078D01*
X23432729Y74889885D01*
X23367462Y75047452D01*
X23334189Y75214725D01*
X23334189Y75385275D01*
X23367462Y75552548D01*
X23432729Y75710115D01*
X23527481Y75851922D01*
X23648078Y75972519D01*
X23789885Y76067271D01*
X23947452Y76132538D01*
X24114725Y76165811D01*
X24285275Y76165811D01*
X24452548Y76132538D01*
G37*
G36*
X26992548Y76132538D02*
G01*
X27150115Y76067271D01*
X27291922Y75972519D01*
X27412519Y75851922D01*
X27507271Y75710115D01*
X27572538Y75552548D01*
X27605811Y75385275D01*
X27605811Y75214725D01*
X27572538Y75047452D01*
X27507271Y74889885D01*
X27412519Y74748078D01*
X27291922Y74627481D01*
X27150115Y74532729D01*
X26992548Y74467462D01*
X26825275Y74434189D01*
X26654725Y74434189D01*
X26487452Y74467462D01*
X26329885Y74532729D01*
X26188078Y74627481D01*
X26067481Y74748078D01*
X25972729Y74889885D01*
X25907462Y75047452D01*
X25874189Y75214725D01*
X25874189Y75385275D01*
X25907462Y75552548D01*
X25972729Y75710115D01*
X26067481Y75851922D01*
X26188078Y75972519D01*
X26329885Y76067271D01*
X26487452Y76132538D01*
X26654725Y76165811D01*
X26825275Y76165811D01*
X26992548Y76132538D01*
G37*
G36*
X29532548Y76132538D02*
G01*
X29690115Y76067271D01*
X29831922Y75972519D01*
X29952519Y75851922D01*
X30047271Y75710115D01*
X30112538Y75552548D01*
X30145811Y75385275D01*
X30145811Y75214725D01*
X30112538Y75047452D01*
X30047271Y74889885D01*
X29952519Y74748078D01*
X29831922Y74627481D01*
X29690115Y74532729D01*
X29532548Y74467462D01*
X29365275Y74434189D01*
X29194725Y74434189D01*
X29027452Y74467462D01*
X28869885Y74532729D01*
X28728078Y74627481D01*
X28607481Y74748078D01*
X28512729Y74889885D01*
X28447462Y75047452D01*
X28414189Y75214725D01*
X28414189Y75385275D01*
X28447462Y75552548D01*
X28512729Y75710115D01*
X28607481Y75851922D01*
X28728078Y75972519D01*
X28869885Y76067271D01*
X29027452Y76132538D01*
X29194725Y76165811D01*
X29365275Y76165811D01*
X29532548Y76132538D01*
G37*
G36*
X32072548Y76132538D02*
G01*
X32230115Y76067271D01*
X32371922Y75972519D01*
X32492519Y75851922D01*
X32587271Y75710115D01*
X32652538Y75552548D01*
X32685811Y75385275D01*
X32685811Y75214725D01*
X32652538Y75047452D01*
X32587271Y74889885D01*
X32492519Y74748078D01*
X32371922Y74627481D01*
X32230115Y74532729D01*
X32072548Y74467462D01*
X31905275Y74434189D01*
X31734725Y74434189D01*
X31567452Y74467462D01*
X31409885Y74532729D01*
X31268078Y74627481D01*
X31147481Y74748078D01*
X31052729Y74889885D01*
X30987462Y75047452D01*
X30954189Y75214725D01*
X30954189Y75385275D01*
X30987462Y75552548D01*
X31052729Y75710115D01*
X31147481Y75851922D01*
X31268078Y75972519D01*
X31409885Y76067271D01*
X31567452Y76132538D01*
X31734725Y76165811D01*
X31905275Y76165811D01*
X32072548Y76132538D01*
G37*
G36*
X34612548Y76132538D02*
G01*
X34770115Y76067271D01*
X34911922Y75972519D01*
X35032519Y75851922D01*
X35127271Y75710115D01*
X35192538Y75552548D01*
X35225811Y75385275D01*
X35225811Y75214725D01*
X35192538Y75047452D01*
X35127271Y74889885D01*
X35032519Y74748078D01*
X34911922Y74627481D01*
X34770115Y74532729D01*
X34612548Y74467462D01*
X34445275Y74434189D01*
X34274725Y74434189D01*
X34107452Y74467462D01*
X33949885Y74532729D01*
X33808078Y74627481D01*
X33687481Y74748078D01*
X33592729Y74889885D01*
X33527462Y75047452D01*
X33494189Y75214725D01*
X33494189Y75385275D01*
X33527462Y75552548D01*
X33592729Y75710115D01*
X33687481Y75851922D01*
X33808078Y75972519D01*
X33949885Y76067271D01*
X34107452Y76132538D01*
X34274725Y76165811D01*
X34445275Y76165811D01*
X34612548Y76132538D01*
G37*
G36*
X37152548Y76132538D02*
G01*
X37310115Y76067271D01*
X37451922Y75972519D01*
X37572519Y75851922D01*
X37667271Y75710115D01*
X37732538Y75552548D01*
X37765811Y75385275D01*
X37765811Y75214725D01*
X37732538Y75047452D01*
X37667271Y74889885D01*
X37572519Y74748078D01*
X37451922Y74627481D01*
X37310115Y74532729D01*
X37152548Y74467462D01*
X36985275Y74434189D01*
X36814725Y74434189D01*
X36647452Y74467462D01*
X36489885Y74532729D01*
X36348078Y74627481D01*
X36227481Y74748078D01*
X36132729Y74889885D01*
X36067462Y75047452D01*
X36034189Y75214725D01*
X36034189Y75385275D01*
X36067462Y75552548D01*
X36132729Y75710115D01*
X36227481Y75851922D01*
X36348078Y75972519D01*
X36489885Y76067271D01*
X36647452Y76132538D01*
X36814725Y76165811D01*
X36985275Y76165811D01*
X37152548Y76132538D01*
G37*
G36*
X39692548Y76132538D02*
G01*
X39850115Y76067271D01*
X39991922Y75972519D01*
X40112519Y75851922D01*
X40207271Y75710115D01*
X40272538Y75552548D01*
X40305811Y75385275D01*
X40305811Y75214725D01*
X40272538Y75047452D01*
X40207271Y74889885D01*
X40112519Y74748078D01*
X39991922Y74627481D01*
X39850115Y74532729D01*
X39692548Y74467462D01*
X39525275Y74434189D01*
X39354725Y74434189D01*
X39187452Y74467462D01*
X39029885Y74532729D01*
X38888078Y74627481D01*
X38767481Y74748078D01*
X38672729Y74889885D01*
X38607462Y75047452D01*
X38574189Y75214725D01*
X38574189Y75385275D01*
X38607462Y75552548D01*
X38672729Y75710115D01*
X38767481Y75851922D01*
X38888078Y75972519D01*
X39029885Y76067271D01*
X39187452Y76132538D01*
X39354725Y76165811D01*
X39525275Y76165811D01*
X39692548Y76132538D01*
G37*
G36*
X42232548Y76132538D02*
G01*
X42390115Y76067271D01*
X42531922Y75972519D01*
X42652519Y75851922D01*
X42747271Y75710115D01*
X42812538Y75552548D01*
X42845811Y75385275D01*
X42845811Y75214725D01*
X42812538Y75047452D01*
X42747271Y74889885D01*
X42652519Y74748078D01*
X42531922Y74627481D01*
X42390115Y74532729D01*
X42232548Y74467462D01*
X42065275Y74434189D01*
X41894725Y74434189D01*
X41727452Y74467462D01*
X41569885Y74532729D01*
X41428078Y74627481D01*
X41307481Y74748078D01*
X41212729Y74889885D01*
X41147462Y75047452D01*
X41114189Y75214725D01*
X41114189Y75385275D01*
X41147462Y75552548D01*
X41212729Y75710115D01*
X41307481Y75851922D01*
X41428078Y75972519D01*
X41569885Y76067271D01*
X41727452Y76132538D01*
X41894725Y76165811D01*
X42065275Y76165811D01*
X42232548Y76132538D01*
G37*
G36*
X44772548Y76132538D02*
G01*
X44930115Y76067271D01*
X45071922Y75972519D01*
X45192519Y75851922D01*
X45287271Y75710115D01*
X45352538Y75552548D01*
X45385811Y75385275D01*
X45385811Y75214725D01*
X45352538Y75047452D01*
X45287271Y74889885D01*
X45192519Y74748078D01*
X45071922Y74627481D01*
X44930115Y74532729D01*
X44772548Y74467462D01*
X44605275Y74434189D01*
X44434725Y74434189D01*
X44267452Y74467462D01*
X44109885Y74532729D01*
X43968078Y74627481D01*
X43847481Y74748078D01*
X43752729Y74889885D01*
X43687462Y75047452D01*
X43654189Y75214725D01*
X43654189Y75385275D01*
X43687462Y75552548D01*
X43752729Y75710115D01*
X43847481Y75851922D01*
X43968078Y75972519D01*
X44109885Y76067271D01*
X44267452Y76132538D01*
X44434725Y76165811D01*
X44605275Y76165811D01*
X44772548Y76132538D01*
G37*
G36*
X47312548Y76132538D02*
G01*
X47470115Y76067271D01*
X47611922Y75972519D01*
X47732519Y75851922D01*
X47827271Y75710115D01*
X47892538Y75552548D01*
X47925811Y75385275D01*
X47925811Y75214725D01*
X47892538Y75047452D01*
X47827271Y74889885D01*
X47732519Y74748078D01*
X47611922Y74627481D01*
X47470115Y74532729D01*
X47312548Y74467462D01*
X47145275Y74434189D01*
X46974725Y74434189D01*
X46807452Y74467462D01*
X46649885Y74532729D01*
X46508078Y74627481D01*
X46387481Y74748078D01*
X46292729Y74889885D01*
X46227462Y75047452D01*
X46194189Y75214725D01*
X46194189Y75385275D01*
X46227462Y75552548D01*
X46292729Y75710115D01*
X46387481Y75851922D01*
X46508078Y75972519D01*
X46649885Y76067271D01*
X46807452Y76132538D01*
X46974725Y76165811D01*
X47145275Y76165811D01*
X47312548Y76132538D01*
G37*
G36*
X49852548Y76132538D02*
G01*
X50010115Y76067271D01*
X50151922Y75972519D01*
X50272519Y75851922D01*
X50367271Y75710115D01*
X50432538Y75552548D01*
X50465811Y75385275D01*
X50465811Y75214725D01*
X50432538Y75047452D01*
X50367271Y74889885D01*
X50272519Y74748078D01*
X50151922Y74627481D01*
X50010115Y74532729D01*
X49852548Y74467462D01*
X49685275Y74434189D01*
X49514725Y74434189D01*
X49347452Y74467462D01*
X49189885Y74532729D01*
X49048078Y74627481D01*
X48927481Y74748078D01*
X48832729Y74889885D01*
X48767462Y75047452D01*
X48734189Y75214725D01*
X48734189Y75385275D01*
X48767462Y75552548D01*
X48832729Y75710115D01*
X48927481Y75851922D01*
X49048078Y75972519D01*
X49189885Y76067271D01*
X49347452Y76132538D01*
X49514725Y76165811D01*
X49685275Y76165811D01*
X49852548Y76132538D01*
G37*
G36*
X52392548Y76132538D02*
G01*
X52550115Y76067271D01*
X52691922Y75972519D01*
X52812519Y75851922D01*
X52907271Y75710115D01*
X52972538Y75552548D01*
X53005811Y75385275D01*
X53005811Y75214725D01*
X52972538Y75047452D01*
X52907271Y74889885D01*
X52812519Y74748078D01*
X52691922Y74627481D01*
X52550115Y74532729D01*
X52392548Y74467462D01*
X52225275Y74434189D01*
X52054725Y74434189D01*
X51887452Y74467462D01*
X51729885Y74532729D01*
X51588078Y74627481D01*
X51467481Y74748078D01*
X51372729Y74889885D01*
X51307462Y75047452D01*
X51274189Y75214725D01*
X51274189Y75385275D01*
X51307462Y75552548D01*
X51372729Y75710115D01*
X51467481Y75851922D01*
X51588078Y75972519D01*
X51729885Y76067271D01*
X51887452Y76132538D01*
X52054725Y76165811D01*
X52225275Y76165811D01*
X52392548Y76132538D01*
G37*
G36*
X54932548Y76132538D02*
G01*
X55090115Y76067271D01*
X55231922Y75972519D01*
X55352519Y75851922D01*
X55447271Y75710115D01*
X55512538Y75552548D01*
X55545811Y75385275D01*
X55545811Y75214725D01*
X55512538Y75047452D01*
X55447271Y74889885D01*
X55352519Y74748078D01*
X55231922Y74627481D01*
X55090115Y74532729D01*
X54932548Y74467462D01*
X54765275Y74434189D01*
X54594725Y74434189D01*
X54427452Y74467462D01*
X54269885Y74532729D01*
X54128078Y74627481D01*
X54007481Y74748078D01*
X53912729Y74889885D01*
X53847462Y75047452D01*
X53814189Y75214725D01*
X53814189Y75385275D01*
X53847462Y75552548D01*
X53912729Y75710115D01*
X54007481Y75851922D01*
X54128078Y75972519D01*
X54269885Y76067271D01*
X54427452Y76132538D01*
X54594725Y76165811D01*
X54765275Y76165811D01*
X54932548Y76132538D01*
G37*
G36*
X57472548Y76132538D02*
G01*
X57630115Y76067271D01*
X57771922Y75972519D01*
X57892519Y75851922D01*
X57987271Y75710115D01*
X58052538Y75552548D01*
X58085811Y75385275D01*
X58085811Y75214725D01*
X58052538Y75047452D01*
X57987271Y74889885D01*
X57892519Y74748078D01*
X57771922Y74627481D01*
X57630115Y74532729D01*
X57472548Y74467462D01*
X57305275Y74434189D01*
X57134725Y74434189D01*
X56967452Y74467462D01*
X56809885Y74532729D01*
X56668078Y74627481D01*
X56547481Y74748078D01*
X56452729Y74889885D01*
X56387462Y75047452D01*
X56354189Y75214725D01*
X56354189Y75385275D01*
X56387462Y75552548D01*
X56452729Y75710115D01*
X56547481Y75851922D01*
X56668078Y75972519D01*
X56809885Y76067271D01*
X56967452Y76132538D01*
X57134725Y76165811D01*
X57305275Y76165811D01*
X57472548Y76132538D01*
G37*
G36*
X60012548Y76132538D02*
G01*
X60170115Y76067271D01*
X60311922Y75972519D01*
X60432519Y75851922D01*
X60527271Y75710115D01*
X60592538Y75552548D01*
X60625811Y75385275D01*
X60625811Y75214725D01*
X60592538Y75047452D01*
X60527271Y74889885D01*
X60432519Y74748078D01*
X60311922Y74627481D01*
X60170115Y74532729D01*
X60012548Y74467462D01*
X59845275Y74434189D01*
X59674725Y74434189D01*
X59507452Y74467462D01*
X59349885Y74532729D01*
X59208078Y74627481D01*
X59087481Y74748078D01*
X58992729Y74889885D01*
X58927462Y75047452D01*
X58894189Y75214725D01*
X58894189Y75385275D01*
X58927462Y75552548D01*
X58992729Y75710115D01*
X59087481Y75851922D01*
X59208078Y75972519D01*
X59349885Y76067271D01*
X59507452Y76132538D01*
X59674725Y76165811D01*
X59845275Y76165811D01*
X60012548Y76132538D01*
G37*
G36*
X62552548Y76132538D02*
G01*
X62710115Y76067271D01*
X62851922Y75972519D01*
X62972519Y75851922D01*
X63067271Y75710115D01*
X63132538Y75552548D01*
X63165811Y75385275D01*
X63165811Y75214725D01*
X63132538Y75047452D01*
X63067271Y74889885D01*
X62972519Y74748078D01*
X62851922Y74627481D01*
X62710115Y74532729D01*
X62552548Y74467462D01*
X62385275Y74434189D01*
X62214725Y74434189D01*
X62047452Y74467462D01*
X61889885Y74532729D01*
X61748078Y74627481D01*
X61627481Y74748078D01*
X61532729Y74889885D01*
X61467462Y75047452D01*
X61434189Y75214725D01*
X61434189Y75385275D01*
X61467462Y75552548D01*
X61532729Y75710115D01*
X61627481Y75851922D01*
X61748078Y75972519D01*
X61889885Y76067271D01*
X62047452Y76132538D01*
X62214725Y76165811D01*
X62385275Y76165811D01*
X62552548Y76132538D01*
G37*
G36*
X65092548Y76132538D02*
G01*
X65250115Y76067271D01*
X65391922Y75972519D01*
X65512519Y75851922D01*
X65607271Y75710115D01*
X65672538Y75552548D01*
X65705811Y75385275D01*
X65705811Y75214725D01*
X65672538Y75047452D01*
X65607271Y74889885D01*
X65512519Y74748078D01*
X65391922Y74627481D01*
X65250115Y74532729D01*
X65092548Y74467462D01*
X64925275Y74434189D01*
X64754725Y74434189D01*
X64587452Y74467462D01*
X64429885Y74532729D01*
X64288078Y74627481D01*
X64167481Y74748078D01*
X64072729Y74889885D01*
X64007462Y75047452D01*
X63974189Y75214725D01*
X63974189Y75385275D01*
X64007462Y75552548D01*
X64072729Y75710115D01*
X64167481Y75851922D01*
X64288078Y75972519D01*
X64429885Y76067271D01*
X64587452Y76132538D01*
X64754725Y76165811D01*
X64925275Y76165811D01*
X65092548Y76132538D01*
G37*
G36*
X67632548Y76132538D02*
G01*
X67790115Y76067271D01*
X67931922Y75972519D01*
X68052519Y75851922D01*
X68147271Y75710115D01*
X68212538Y75552548D01*
X68245811Y75385275D01*
X68245811Y75214725D01*
X68212538Y75047452D01*
X68147271Y74889885D01*
X68052519Y74748078D01*
X67931922Y74627481D01*
X67790115Y74532729D01*
X67632548Y74467462D01*
X67465275Y74434189D01*
X67294725Y74434189D01*
X67127452Y74467462D01*
X66969885Y74532729D01*
X66828078Y74627481D01*
X66707481Y74748078D01*
X66612729Y74889885D01*
X66547462Y75047452D01*
X66514189Y75214725D01*
X66514189Y75385275D01*
X66547462Y75552548D01*
X66612729Y75710115D01*
X66707481Y75851922D01*
X66828078Y75972519D01*
X66969885Y76067271D01*
X67127452Y76132538D01*
X67294725Y76165811D01*
X67465275Y76165811D01*
X67632548Y76132538D01*
G37*
G36*
X70172548Y76132538D02*
G01*
X70330115Y76067271D01*
X70471922Y75972519D01*
X70592519Y75851922D01*
X70687271Y75710115D01*
X70752538Y75552548D01*
X70785811Y75385275D01*
X70785811Y75214725D01*
X70752538Y75047452D01*
X70687271Y74889885D01*
X70592519Y74748078D01*
X70471922Y74627481D01*
X70330115Y74532729D01*
X70172548Y74467462D01*
X70005275Y74434189D01*
X69834725Y74434189D01*
X69667452Y74467462D01*
X69509885Y74532729D01*
X69368078Y74627481D01*
X69247481Y74748078D01*
X69152729Y74889885D01*
X69087462Y75047452D01*
X69054189Y75214725D01*
X69054189Y75385275D01*
X69087462Y75552548D01*
X69152729Y75710115D01*
X69247481Y75851922D01*
X69368078Y75972519D01*
X69509885Y76067271D01*
X69667452Y76132538D01*
X69834725Y76165811D01*
X70005275Y76165811D01*
X70172548Y76132538D01*
G37*
G36*
X72712548Y76132538D02*
G01*
X72870115Y76067271D01*
X73011922Y75972519D01*
X73132519Y75851922D01*
X73227271Y75710115D01*
X73292538Y75552548D01*
X73325811Y75385275D01*
X73325811Y75214725D01*
X73292538Y75047452D01*
X73227271Y74889885D01*
X73132519Y74748078D01*
X73011922Y74627481D01*
X72870115Y74532729D01*
X72712548Y74467462D01*
X72545275Y74434189D01*
X72374725Y74434189D01*
X72207452Y74467462D01*
X72049885Y74532729D01*
X71908078Y74627481D01*
X71787481Y74748078D01*
X71692729Y74889885D01*
X71627462Y75047452D01*
X71594189Y75214725D01*
X71594189Y75385275D01*
X71627462Y75552548D01*
X71692729Y75710115D01*
X71787481Y75851922D01*
X71908078Y75972519D01*
X72049885Y76067271D01*
X72207452Y76132538D01*
X72374725Y76165811D01*
X72545275Y76165811D01*
X72712548Y76132538D01*
G37*
G36*
X75857654Y101568478D02*
G01*
X75864142Y101564142D01*
X75868478Y101557654D01*
X75870000Y101550000D01*
X75870000Y99850000D01*
X75868478Y99842346D01*
X75864142Y99835858D01*
X75857654Y99831522D01*
X75850000Y99830000D01*
X74150000Y99830000D01*
X74142346Y99831522D01*
X74135858Y99835858D01*
X74131522Y99842346D01*
X74130000Y99850000D01*
X74130000Y101550000D01*
X74131522Y101557654D01*
X74135858Y101564142D01*
X74142346Y101568478D01*
X74150000Y101570000D01*
X75850000Y101570000D01*
X75857654Y101568478D01*
G37*
G36*
X21912548Y101532538D02*
G01*
X22070115Y101467271D01*
X22211922Y101372519D01*
X22332519Y101251922D01*
X22427271Y101110115D01*
X22492538Y100952548D01*
X22525811Y100785275D01*
X22525811Y100614725D01*
X22492538Y100447452D01*
X22427271Y100289885D01*
X22332519Y100148078D01*
X22211922Y100027481D01*
X22070115Y99932729D01*
X21912548Y99867462D01*
X21745275Y99834189D01*
X21574725Y99834189D01*
X21407452Y99867462D01*
X21249885Y99932729D01*
X21108078Y100027481D01*
X20987481Y100148078D01*
X20892729Y100289885D01*
X20827462Y100447452D01*
X20794189Y100614725D01*
X20794189Y100785275D01*
X20827462Y100952548D01*
X20892729Y101110115D01*
X20987481Y101251922D01*
X21108078Y101372519D01*
X21249885Y101467271D01*
X21407452Y101532538D01*
X21574725Y101565811D01*
X21745275Y101565811D01*
X21912548Y101532538D01*
G37*
G36*
X24452548Y101532538D02*
G01*
X24610115Y101467271D01*
X24751922Y101372519D01*
X24872519Y101251922D01*
X24967271Y101110115D01*
X25032538Y100952548D01*
X25065811Y100785275D01*
X25065811Y100614725D01*
X25032538Y100447452D01*
X24967271Y100289885D01*
X24872519Y100148078D01*
X24751922Y100027481D01*
X24610115Y99932729D01*
X24452548Y99867462D01*
X24285275Y99834189D01*
X24114725Y99834189D01*
X23947452Y99867462D01*
X23789885Y99932729D01*
X23648078Y100027481D01*
X23527481Y100148078D01*
X23432729Y100289885D01*
X23367462Y100447452D01*
X23334189Y100614725D01*
X23334189Y100785275D01*
X23367462Y100952548D01*
X23432729Y101110115D01*
X23527481Y101251922D01*
X23648078Y101372519D01*
X23789885Y101467271D01*
X23947452Y101532538D01*
X24114725Y101565811D01*
X24285275Y101565811D01*
X24452548Y101532538D01*
G37*
G36*
X26992548Y101532538D02*
G01*
X27150115Y101467271D01*
X27291922Y101372519D01*
X27412519Y101251922D01*
X27507271Y101110115D01*
X27572538Y100952548D01*
X27605811Y100785275D01*
X27605811Y100614725D01*
X27572538Y100447452D01*
X27507271Y100289885D01*
X27412519Y100148078D01*
X27291922Y100027481D01*
X27150115Y99932729D01*
X26992548Y99867462D01*
X26825275Y99834189D01*
X26654725Y99834189D01*
X26487452Y99867462D01*
X26329885Y99932729D01*
X26188078Y100027481D01*
X26067481Y100148078D01*
X25972729Y100289885D01*
X25907462Y100447452D01*
X25874189Y100614725D01*
X25874189Y100785275D01*
X25907462Y100952548D01*
X25972729Y101110115D01*
X26067481Y101251922D01*
X26188078Y101372519D01*
X26329885Y101467271D01*
X26487452Y101532538D01*
X26654725Y101565811D01*
X26825275Y101565811D01*
X26992548Y101532538D01*
G37*
G36*
X29532548Y101532538D02*
G01*
X29690115Y101467271D01*
X29831922Y101372519D01*
X29952519Y101251922D01*
X30047271Y101110115D01*
X30112538Y100952548D01*
X30145811Y100785275D01*
X30145811Y100614725D01*
X30112538Y100447452D01*
X30047271Y100289885D01*
X29952519Y100148078D01*
X29831922Y100027481D01*
X29690115Y99932729D01*
X29532548Y99867462D01*
X29365275Y99834189D01*
X29194725Y99834189D01*
X29027452Y99867462D01*
X28869885Y99932729D01*
X28728078Y100027481D01*
X28607481Y100148078D01*
X28512729Y100289885D01*
X28447462Y100447452D01*
X28414189Y100614725D01*
X28414189Y100785275D01*
X28447462Y100952548D01*
X28512729Y101110115D01*
X28607481Y101251922D01*
X28728078Y101372519D01*
X28869885Y101467271D01*
X29027452Y101532538D01*
X29194725Y101565811D01*
X29365275Y101565811D01*
X29532548Y101532538D01*
G37*
G36*
X32072548Y101532538D02*
G01*
X32230115Y101467271D01*
X32371922Y101372519D01*
X32492519Y101251922D01*
X32587271Y101110115D01*
X32652538Y100952548D01*
X32685811Y100785275D01*
X32685811Y100614725D01*
X32652538Y100447452D01*
X32587271Y100289885D01*
X32492519Y100148078D01*
X32371922Y100027481D01*
X32230115Y99932729D01*
X32072548Y99867462D01*
X31905275Y99834189D01*
X31734725Y99834189D01*
X31567452Y99867462D01*
X31409885Y99932729D01*
X31268078Y100027481D01*
X31147481Y100148078D01*
X31052729Y100289885D01*
X30987462Y100447452D01*
X30954189Y100614725D01*
X30954189Y100785275D01*
X30987462Y100952548D01*
X31052729Y101110115D01*
X31147481Y101251922D01*
X31268078Y101372519D01*
X31409885Y101467271D01*
X31567452Y101532538D01*
X31734725Y101565811D01*
X31905275Y101565811D01*
X32072548Y101532538D01*
G37*
G36*
X34612548Y101532538D02*
G01*
X34770115Y101467271D01*
X34911922Y101372519D01*
X35032519Y101251922D01*
X35127271Y101110115D01*
X35192538Y100952548D01*
X35225811Y100785275D01*
X35225811Y100614725D01*
X35192538Y100447452D01*
X35127271Y100289885D01*
X35032519Y100148078D01*
X34911922Y100027481D01*
X34770115Y99932729D01*
X34612548Y99867462D01*
X34445275Y99834189D01*
X34274725Y99834189D01*
X34107452Y99867462D01*
X33949885Y99932729D01*
X33808078Y100027481D01*
X33687481Y100148078D01*
X33592729Y100289885D01*
X33527462Y100447452D01*
X33494189Y100614725D01*
X33494189Y100785275D01*
X33527462Y100952548D01*
X33592729Y101110115D01*
X33687481Y101251922D01*
X33808078Y101372519D01*
X33949885Y101467271D01*
X34107452Y101532538D01*
X34274725Y101565811D01*
X34445275Y101565811D01*
X34612548Y101532538D01*
G37*
G36*
X37152548Y101532538D02*
G01*
X37310115Y101467271D01*
X37451922Y101372519D01*
X37572519Y101251922D01*
X37667271Y101110115D01*
X37732538Y100952548D01*
X37765811Y100785275D01*
X37765811Y100614725D01*
X37732538Y100447452D01*
X37667271Y100289885D01*
X37572519Y100148078D01*
X37451922Y100027481D01*
X37310115Y99932729D01*
X37152548Y99867462D01*
X36985275Y99834189D01*
X36814725Y99834189D01*
X36647452Y99867462D01*
X36489885Y99932729D01*
X36348078Y100027481D01*
X36227481Y100148078D01*
X36132729Y100289885D01*
X36067462Y100447452D01*
X36034189Y100614725D01*
X36034189Y100785275D01*
X36067462Y100952548D01*
X36132729Y101110115D01*
X36227481Y101251922D01*
X36348078Y101372519D01*
X36489885Y101467271D01*
X36647452Y101532538D01*
X36814725Y101565811D01*
X36985275Y101565811D01*
X37152548Y101532538D01*
G37*
G36*
X39692548Y101532538D02*
G01*
X39850115Y101467271D01*
X39991922Y101372519D01*
X40112519Y101251922D01*
X40207271Y101110115D01*
X40272538Y100952548D01*
X40305811Y100785275D01*
X40305811Y100614725D01*
X40272538Y100447452D01*
X40207271Y100289885D01*
X40112519Y100148078D01*
X39991922Y100027481D01*
X39850115Y99932729D01*
X39692548Y99867462D01*
X39525275Y99834189D01*
X39354725Y99834189D01*
X39187452Y99867462D01*
X39029885Y99932729D01*
X38888078Y100027481D01*
X38767481Y100148078D01*
X38672729Y100289885D01*
X38607462Y100447452D01*
X38574189Y100614725D01*
X38574189Y100785275D01*
X38607462Y100952548D01*
X38672729Y101110115D01*
X38767481Y101251922D01*
X38888078Y101372519D01*
X39029885Y101467271D01*
X39187452Y101532538D01*
X39354725Y101565811D01*
X39525275Y101565811D01*
X39692548Y101532538D01*
G37*
G36*
X42232548Y101532538D02*
G01*
X42390115Y101467271D01*
X42531922Y101372519D01*
X42652519Y101251922D01*
X42747271Y101110115D01*
X42812538Y100952548D01*
X42845811Y100785275D01*
X42845811Y100614725D01*
X42812538Y100447452D01*
X42747271Y100289885D01*
X42652519Y100148078D01*
X42531922Y100027481D01*
X42390115Y99932729D01*
X42232548Y99867462D01*
X42065275Y99834189D01*
X41894725Y99834189D01*
X41727452Y99867462D01*
X41569885Y99932729D01*
X41428078Y100027481D01*
X41307481Y100148078D01*
X41212729Y100289885D01*
X41147462Y100447452D01*
X41114189Y100614725D01*
X41114189Y100785275D01*
X41147462Y100952548D01*
X41212729Y101110115D01*
X41307481Y101251922D01*
X41428078Y101372519D01*
X41569885Y101467271D01*
X41727452Y101532538D01*
X41894725Y101565811D01*
X42065275Y101565811D01*
X42232548Y101532538D01*
G37*
G36*
X44772548Y101532538D02*
G01*
X44930115Y101467271D01*
X45071922Y101372519D01*
X45192519Y101251922D01*
X45287271Y101110115D01*
X45352538Y100952548D01*
X45385811Y100785275D01*
X45385811Y100614725D01*
X45352538Y100447452D01*
X45287271Y100289885D01*
X45192519Y100148078D01*
X45071922Y100027481D01*
X44930115Y99932729D01*
X44772548Y99867462D01*
X44605275Y99834189D01*
X44434725Y99834189D01*
X44267452Y99867462D01*
X44109885Y99932729D01*
X43968078Y100027481D01*
X43847481Y100148078D01*
X43752729Y100289885D01*
X43687462Y100447452D01*
X43654189Y100614725D01*
X43654189Y100785275D01*
X43687462Y100952548D01*
X43752729Y101110115D01*
X43847481Y101251922D01*
X43968078Y101372519D01*
X44109885Y101467271D01*
X44267452Y101532538D01*
X44434725Y101565811D01*
X44605275Y101565811D01*
X44772548Y101532538D01*
G37*
G36*
X47312548Y101532538D02*
G01*
X47470115Y101467271D01*
X47611922Y101372519D01*
X47732519Y101251922D01*
X47827271Y101110115D01*
X47892538Y100952548D01*
X47925811Y100785275D01*
X47925811Y100614725D01*
X47892538Y100447452D01*
X47827271Y100289885D01*
X47732519Y100148078D01*
X47611922Y100027481D01*
X47470115Y99932729D01*
X47312548Y99867462D01*
X47145275Y99834189D01*
X46974725Y99834189D01*
X46807452Y99867462D01*
X46649885Y99932729D01*
X46508078Y100027481D01*
X46387481Y100148078D01*
X46292729Y100289885D01*
X46227462Y100447452D01*
X46194189Y100614725D01*
X46194189Y100785275D01*
X46227462Y100952548D01*
X46292729Y101110115D01*
X46387481Y101251922D01*
X46508078Y101372519D01*
X46649885Y101467271D01*
X46807452Y101532538D01*
X46974725Y101565811D01*
X47145275Y101565811D01*
X47312548Y101532538D01*
G37*
G36*
X49852548Y101532538D02*
G01*
X50010115Y101467271D01*
X50151922Y101372519D01*
X50272519Y101251922D01*
X50367271Y101110115D01*
X50432538Y100952548D01*
X50465811Y100785275D01*
X50465811Y100614725D01*
X50432538Y100447452D01*
X50367271Y100289885D01*
X50272519Y100148078D01*
X50151922Y100027481D01*
X50010115Y99932729D01*
X49852548Y99867462D01*
X49685275Y99834189D01*
X49514725Y99834189D01*
X49347452Y99867462D01*
X49189885Y99932729D01*
X49048078Y100027481D01*
X48927481Y100148078D01*
X48832729Y100289885D01*
X48767462Y100447452D01*
X48734189Y100614725D01*
X48734189Y100785275D01*
X48767462Y100952548D01*
X48832729Y101110115D01*
X48927481Y101251922D01*
X49048078Y101372519D01*
X49189885Y101467271D01*
X49347452Y101532538D01*
X49514725Y101565811D01*
X49685275Y101565811D01*
X49852548Y101532538D01*
G37*
G36*
X52392548Y101532538D02*
G01*
X52550115Y101467271D01*
X52691922Y101372519D01*
X52812519Y101251922D01*
X52907271Y101110115D01*
X52972538Y100952548D01*
X53005811Y100785275D01*
X53005811Y100614725D01*
X52972538Y100447452D01*
X52907271Y100289885D01*
X52812519Y100148078D01*
X52691922Y100027481D01*
X52550115Y99932729D01*
X52392548Y99867462D01*
X52225275Y99834189D01*
X52054725Y99834189D01*
X51887452Y99867462D01*
X51729885Y99932729D01*
X51588078Y100027481D01*
X51467481Y100148078D01*
X51372729Y100289885D01*
X51307462Y100447452D01*
X51274189Y100614725D01*
X51274189Y100785275D01*
X51307462Y100952548D01*
X51372729Y101110115D01*
X51467481Y101251922D01*
X51588078Y101372519D01*
X51729885Y101467271D01*
X51887452Y101532538D01*
X52054725Y101565811D01*
X52225275Y101565811D01*
X52392548Y101532538D01*
G37*
G36*
X54932548Y101532538D02*
G01*
X55090115Y101467271D01*
X55231922Y101372519D01*
X55352519Y101251922D01*
X55447271Y101110115D01*
X55512538Y100952548D01*
X55545811Y100785275D01*
X55545811Y100614725D01*
X55512538Y100447452D01*
X55447271Y100289885D01*
X55352519Y100148078D01*
X55231922Y100027481D01*
X55090115Y99932729D01*
X54932548Y99867462D01*
X54765275Y99834189D01*
X54594725Y99834189D01*
X54427452Y99867462D01*
X54269885Y99932729D01*
X54128078Y100027481D01*
X54007481Y100148078D01*
X53912729Y100289885D01*
X53847462Y100447452D01*
X53814189Y100614725D01*
X53814189Y100785275D01*
X53847462Y100952548D01*
X53912729Y101110115D01*
X54007481Y101251922D01*
X54128078Y101372519D01*
X54269885Y101467271D01*
X54427452Y101532538D01*
X54594725Y101565811D01*
X54765275Y101565811D01*
X54932548Y101532538D01*
G37*
G36*
X57472548Y101532538D02*
G01*
X57630115Y101467271D01*
X57771922Y101372519D01*
X57892519Y101251922D01*
X57987271Y101110115D01*
X58052538Y100952548D01*
X58085811Y100785275D01*
X58085811Y100614725D01*
X58052538Y100447452D01*
X57987271Y100289885D01*
X57892519Y100148078D01*
X57771922Y100027481D01*
X57630115Y99932729D01*
X57472548Y99867462D01*
X57305275Y99834189D01*
X57134725Y99834189D01*
X56967452Y99867462D01*
X56809885Y99932729D01*
X56668078Y100027481D01*
X56547481Y100148078D01*
X56452729Y100289885D01*
X56387462Y100447452D01*
X56354189Y100614725D01*
X56354189Y100785275D01*
X56387462Y100952548D01*
X56452729Y101110115D01*
X56547481Y101251922D01*
X56668078Y101372519D01*
X56809885Y101467271D01*
X56967452Y101532538D01*
X57134725Y101565811D01*
X57305275Y101565811D01*
X57472548Y101532538D01*
G37*
G36*
X60012548Y101532538D02*
G01*
X60170115Y101467271D01*
X60311922Y101372519D01*
X60432519Y101251922D01*
X60527271Y101110115D01*
X60592538Y100952548D01*
X60625811Y100785275D01*
X60625811Y100614725D01*
X60592538Y100447452D01*
X60527271Y100289885D01*
X60432519Y100148078D01*
X60311922Y100027481D01*
X60170115Y99932729D01*
X60012548Y99867462D01*
X59845275Y99834189D01*
X59674725Y99834189D01*
X59507452Y99867462D01*
X59349885Y99932729D01*
X59208078Y100027481D01*
X59087481Y100148078D01*
X58992729Y100289885D01*
X58927462Y100447452D01*
X58894189Y100614725D01*
X58894189Y100785275D01*
X58927462Y100952548D01*
X58992729Y101110115D01*
X59087481Y101251922D01*
X59208078Y101372519D01*
X59349885Y101467271D01*
X59507452Y101532538D01*
X59674725Y101565811D01*
X59845275Y101565811D01*
X60012548Y101532538D01*
G37*
G36*
X62552548Y101532538D02*
G01*
X62710115Y101467271D01*
X62851922Y101372519D01*
X62972519Y101251922D01*
X63067271Y101110115D01*
X63132538Y100952548D01*
X63165811Y100785275D01*
X63165811Y100614725D01*
X63132538Y100447452D01*
X63067271Y100289885D01*
X62972519Y100148078D01*
X62851922Y100027481D01*
X62710115Y99932729D01*
X62552548Y99867462D01*
X62385275Y99834189D01*
X62214725Y99834189D01*
X62047452Y99867462D01*
X61889885Y99932729D01*
X61748078Y100027481D01*
X61627481Y100148078D01*
X61532729Y100289885D01*
X61467462Y100447452D01*
X61434189Y100614725D01*
X61434189Y100785275D01*
X61467462Y100952548D01*
X61532729Y101110115D01*
X61627481Y101251922D01*
X61748078Y101372519D01*
X61889885Y101467271D01*
X62047452Y101532538D01*
X62214725Y101565811D01*
X62385275Y101565811D01*
X62552548Y101532538D01*
G37*
G36*
X65092548Y101532538D02*
G01*
X65250115Y101467271D01*
X65391922Y101372519D01*
X65512519Y101251922D01*
X65607271Y101110115D01*
X65672538Y100952548D01*
X65705811Y100785275D01*
X65705811Y100614725D01*
X65672538Y100447452D01*
X65607271Y100289885D01*
X65512519Y100148078D01*
X65391922Y100027481D01*
X65250115Y99932729D01*
X65092548Y99867462D01*
X64925275Y99834189D01*
X64754725Y99834189D01*
X64587452Y99867462D01*
X64429885Y99932729D01*
X64288078Y100027481D01*
X64167481Y100148078D01*
X64072729Y100289885D01*
X64007462Y100447452D01*
X63974189Y100614725D01*
X63974189Y100785275D01*
X64007462Y100952548D01*
X64072729Y101110115D01*
X64167481Y101251922D01*
X64288078Y101372519D01*
X64429885Y101467271D01*
X64587452Y101532538D01*
X64754725Y101565811D01*
X64925275Y101565811D01*
X65092548Y101532538D01*
G37*
G36*
X67632548Y101532538D02*
G01*
X67790115Y101467271D01*
X67931922Y101372519D01*
X68052519Y101251922D01*
X68147271Y101110115D01*
X68212538Y100952548D01*
X68245811Y100785275D01*
X68245811Y100614725D01*
X68212538Y100447452D01*
X68147271Y100289885D01*
X68052519Y100148078D01*
X67931922Y100027481D01*
X67790115Y99932729D01*
X67632548Y99867462D01*
X67465275Y99834189D01*
X67294725Y99834189D01*
X67127452Y99867462D01*
X66969885Y99932729D01*
X66828078Y100027481D01*
X66707481Y100148078D01*
X66612729Y100289885D01*
X66547462Y100447452D01*
X66514189Y100614725D01*
X66514189Y100785275D01*
X66547462Y100952548D01*
X66612729Y101110115D01*
X66707481Y101251922D01*
X66828078Y101372519D01*
X66969885Y101467271D01*
X67127452Y101532538D01*
X67294725Y101565811D01*
X67465275Y101565811D01*
X67632548Y101532538D01*
G37*
G36*
X70172548Y101532538D02*
G01*
X70330115Y101467271D01*
X70471922Y101372519D01*
X70592519Y101251922D01*
X70687271Y101110115D01*
X70752538Y100952548D01*
X70785811Y100785275D01*
X70785811Y100614725D01*
X70752538Y100447452D01*
X70687271Y100289885D01*
X70592519Y100148078D01*
X70471922Y100027481D01*
X70330115Y99932729D01*
X70172548Y99867462D01*
X70005275Y99834189D01*
X69834725Y99834189D01*
X69667452Y99867462D01*
X69509885Y99932729D01*
X69368078Y100027481D01*
X69247481Y100148078D01*
X69152729Y100289885D01*
X69087462Y100447452D01*
X69054189Y100614725D01*
X69054189Y100785275D01*
X69087462Y100952548D01*
X69152729Y101110115D01*
X69247481Y101251922D01*
X69368078Y101372519D01*
X69509885Y101467271D01*
X69667452Y101532538D01*
X69834725Y101565811D01*
X70005275Y101565811D01*
X70172548Y101532538D01*
G37*
G36*
X72712548Y101532538D02*
G01*
X72870115Y101467271D01*
X73011922Y101372519D01*
X73132519Y101251922D01*
X73227271Y101110115D01*
X73292538Y100952548D01*
X73325811Y100785275D01*
X73325811Y100614725D01*
X73292538Y100447452D01*
X73227271Y100289885D01*
X73132519Y100148078D01*
X73011922Y100027481D01*
X72870115Y99932729D01*
X72712548Y99867462D01*
X72545275Y99834189D01*
X72374725Y99834189D01*
X72207452Y99867462D01*
X72049885Y99932729D01*
X71908078Y100027481D01*
X71787481Y100148078D01*
X71692729Y100289885D01*
X71627462Y100447452D01*
X71594189Y100614725D01*
X71594189Y100785275D01*
X71627462Y100952548D01*
X71692729Y101110115D01*
X71787481Y101251922D01*
X71908078Y101372519D01*
X72049885Y101467271D01*
X72207452Y101532538D01*
X72374725Y101565811D01*
X72545275Y101565811D01*
X72712548Y101532538D01*
G37*
G36*
X18857654Y110868478D02*
G01*
X18864142Y110864142D01*
X18868478Y110857654D01*
X18870000Y110850000D01*
X18870000Y109150000D01*
X18868478Y109142346D01*
X18864142Y109135858D01*
X18857654Y109131522D01*
X18850000Y109130000D01*
X17150000Y109130000D01*
X17142346Y109131522D01*
X17135858Y109135858D01*
X17131522Y109142346D01*
X17130000Y109150000D01*
X17130000Y110850000D01*
X17131522Y110857654D01*
X17135858Y110864142D01*
X17142346Y110868478D01*
X17150000Y110870000D01*
X18850000Y110870000D01*
X18857654Y110868478D01*
G37*
G36*
X58857654Y110868478D02*
G01*
X58864142Y110864142D01*
X58868478Y110857654D01*
X58870000Y110850000D01*
X58870000Y109150000D01*
X58868478Y109142346D01*
X58864142Y109135858D01*
X58857654Y109131522D01*
X58850000Y109130000D01*
X57150000Y109130000D01*
X57142346Y109131522D01*
X57135858Y109135858D01*
X57131522Y109142346D01*
X57130000Y109150000D01*
X57130000Y110850000D01*
X57131522Y110857654D01*
X57135858Y110864142D01*
X57142346Y110868478D01*
X57150000Y110870000D01*
X58850000Y110870000D01*
X58857654Y110868478D01*
G37*
G36*
X20792548Y110832538D02*
G01*
X20950115Y110767271D01*
X21091922Y110672519D01*
X21212519Y110551922D01*
X21307271Y110410115D01*
X21372538Y110252548D01*
X21405811Y110085275D01*
X21405811Y109914725D01*
X21372538Y109747452D01*
X21307271Y109589885D01*
X21212519Y109448078D01*
X21091922Y109327481D01*
X20950115Y109232729D01*
X20792548Y109167462D01*
X20625275Y109134189D01*
X20454725Y109134189D01*
X20287452Y109167462D01*
X20129885Y109232729D01*
X19988078Y109327481D01*
X19867481Y109448078D01*
X19772729Y109589885D01*
X19707462Y109747452D01*
X19674189Y109914725D01*
X19674189Y110085275D01*
X19707462Y110252548D01*
X19772729Y110410115D01*
X19867481Y110551922D01*
X19988078Y110672519D01*
X20129885Y110767271D01*
X20287452Y110832538D01*
X20454725Y110865811D01*
X20625275Y110865811D01*
X20792548Y110832538D01*
G37*
G36*
X23332548Y110832538D02*
G01*
X23490115Y110767271D01*
X23631922Y110672519D01*
X23752519Y110551922D01*
X23847271Y110410115D01*
X23912538Y110252548D01*
X23945811Y110085275D01*
X23945811Y109914725D01*
X23912538Y109747452D01*
X23847271Y109589885D01*
X23752519Y109448078D01*
X23631922Y109327481D01*
X23490115Y109232729D01*
X23332548Y109167462D01*
X23165275Y109134189D01*
X22994725Y109134189D01*
X22827452Y109167462D01*
X22669885Y109232729D01*
X22528078Y109327481D01*
X22407481Y109448078D01*
X22312729Y109589885D01*
X22247462Y109747452D01*
X22214189Y109914725D01*
X22214189Y110085275D01*
X22247462Y110252548D01*
X22312729Y110410115D01*
X22407481Y110551922D01*
X22528078Y110672519D01*
X22669885Y110767271D01*
X22827452Y110832538D01*
X22994725Y110865811D01*
X23165275Y110865811D01*
X23332548Y110832538D01*
G37*
G36*
X25872548Y110832538D02*
G01*
X26030115Y110767271D01*
X26171922Y110672519D01*
X26292519Y110551922D01*
X26387271Y110410115D01*
X26452538Y110252548D01*
X26485811Y110085275D01*
X26485811Y109914725D01*
X26452538Y109747452D01*
X26387271Y109589885D01*
X26292519Y109448078D01*
X26171922Y109327481D01*
X26030115Y109232729D01*
X25872548Y109167462D01*
X25705275Y109134189D01*
X25534725Y109134189D01*
X25367452Y109167462D01*
X25209885Y109232729D01*
X25068078Y109327481D01*
X24947481Y109448078D01*
X24852729Y109589885D01*
X24787462Y109747452D01*
X24754189Y109914725D01*
X24754189Y110085275D01*
X24787462Y110252548D01*
X24852729Y110410115D01*
X24947481Y110551922D01*
X25068078Y110672519D01*
X25209885Y110767271D01*
X25367452Y110832538D01*
X25534725Y110865811D01*
X25705275Y110865811D01*
X25872548Y110832538D01*
G37*
G36*
X28412548Y110832538D02*
G01*
X28570115Y110767271D01*
X28711922Y110672519D01*
X28832519Y110551922D01*
X28927271Y110410115D01*
X28992538Y110252548D01*
X29025811Y110085275D01*
X29025811Y109914725D01*
X28992538Y109747452D01*
X28927271Y109589885D01*
X28832519Y109448078D01*
X28711922Y109327481D01*
X28570115Y109232729D01*
X28412548Y109167462D01*
X28245275Y109134189D01*
X28074725Y109134189D01*
X27907452Y109167462D01*
X27749885Y109232729D01*
X27608078Y109327481D01*
X27487481Y109448078D01*
X27392729Y109589885D01*
X27327462Y109747452D01*
X27294189Y109914725D01*
X27294189Y110085275D01*
X27327462Y110252548D01*
X27392729Y110410115D01*
X27487481Y110551922D01*
X27608078Y110672519D01*
X27749885Y110767271D01*
X27907452Y110832538D01*
X28074725Y110865811D01*
X28245275Y110865811D01*
X28412548Y110832538D01*
G37*
G36*
X30952548Y110832538D02*
G01*
X31110115Y110767271D01*
X31251922Y110672519D01*
X31372519Y110551922D01*
X31467271Y110410115D01*
X31532538Y110252548D01*
X31565811Y110085275D01*
X31565811Y109914725D01*
X31532538Y109747452D01*
X31467271Y109589885D01*
X31372519Y109448078D01*
X31251922Y109327481D01*
X31110115Y109232729D01*
X30952548Y109167462D01*
X30785275Y109134189D01*
X30614725Y109134189D01*
X30447452Y109167462D01*
X30289885Y109232729D01*
X30148078Y109327481D01*
X30027481Y109448078D01*
X29932729Y109589885D01*
X29867462Y109747452D01*
X29834189Y109914725D01*
X29834189Y110085275D01*
X29867462Y110252548D01*
X29932729Y110410115D01*
X30027481Y110551922D01*
X30148078Y110672519D01*
X30289885Y110767271D01*
X30447452Y110832538D01*
X30614725Y110865811D01*
X30785275Y110865811D01*
X30952548Y110832538D01*
G37*
G36*
X33492548Y110832538D02*
G01*
X33650115Y110767271D01*
X33791922Y110672519D01*
X33912519Y110551922D01*
X34007271Y110410115D01*
X34072538Y110252548D01*
X34105811Y110085275D01*
X34105811Y109914725D01*
X34072538Y109747452D01*
X34007271Y109589885D01*
X33912519Y109448078D01*
X33791922Y109327481D01*
X33650115Y109232729D01*
X33492548Y109167462D01*
X33325275Y109134189D01*
X33154725Y109134189D01*
X32987452Y109167462D01*
X32829885Y109232729D01*
X32688078Y109327481D01*
X32567481Y109448078D01*
X32472729Y109589885D01*
X32407462Y109747452D01*
X32374189Y109914725D01*
X32374189Y110085275D01*
X32407462Y110252548D01*
X32472729Y110410115D01*
X32567481Y110551922D01*
X32688078Y110672519D01*
X32829885Y110767271D01*
X32987452Y110832538D01*
X33154725Y110865811D01*
X33325275Y110865811D01*
X33492548Y110832538D01*
G37*
G36*
X36032548Y110832538D02*
G01*
X36190115Y110767271D01*
X36331922Y110672519D01*
X36452519Y110551922D01*
X36547271Y110410115D01*
X36612538Y110252548D01*
X36645811Y110085275D01*
X36645811Y109914725D01*
X36612538Y109747452D01*
X36547271Y109589885D01*
X36452519Y109448078D01*
X36331922Y109327481D01*
X36190115Y109232729D01*
X36032548Y109167462D01*
X35865275Y109134189D01*
X35694725Y109134189D01*
X35527452Y109167462D01*
X35369885Y109232729D01*
X35228078Y109327481D01*
X35107481Y109448078D01*
X35012729Y109589885D01*
X34947462Y109747452D01*
X34914189Y109914725D01*
X34914189Y110085275D01*
X34947462Y110252548D01*
X35012729Y110410115D01*
X35107481Y110551922D01*
X35228078Y110672519D01*
X35369885Y110767271D01*
X35527452Y110832538D01*
X35694725Y110865811D01*
X35865275Y110865811D01*
X36032548Y110832538D01*
G37*
G36*
X38572548Y110832538D02*
G01*
X38730115Y110767271D01*
X38871922Y110672519D01*
X38992519Y110551922D01*
X39087271Y110410115D01*
X39152538Y110252548D01*
X39185811Y110085275D01*
X39185811Y109914725D01*
X39152538Y109747452D01*
X39087271Y109589885D01*
X38992519Y109448078D01*
X38871922Y109327481D01*
X38730115Y109232729D01*
X38572548Y109167462D01*
X38405275Y109134189D01*
X38234725Y109134189D01*
X38067452Y109167462D01*
X37909885Y109232729D01*
X37768078Y109327481D01*
X37647481Y109448078D01*
X37552729Y109589885D01*
X37487462Y109747452D01*
X37454189Y109914725D01*
X37454189Y110085275D01*
X37487462Y110252548D01*
X37552729Y110410115D01*
X37647481Y110551922D01*
X37768078Y110672519D01*
X37909885Y110767271D01*
X38067452Y110832538D01*
X38234725Y110865811D01*
X38405275Y110865811D01*
X38572548Y110832538D01*
G37*
G36*
X41112548Y110832538D02*
G01*
X41270115Y110767271D01*
X41411922Y110672519D01*
X41532519Y110551922D01*
X41627271Y110410115D01*
X41692538Y110252548D01*
X41725811Y110085275D01*
X41725811Y109914725D01*
X41692538Y109747452D01*
X41627271Y109589885D01*
X41532519Y109448078D01*
X41411922Y109327481D01*
X41270115Y109232729D01*
X41112548Y109167462D01*
X40945275Y109134189D01*
X40774725Y109134189D01*
X40607452Y109167462D01*
X40449885Y109232729D01*
X40308078Y109327481D01*
X40187481Y109448078D01*
X40092729Y109589885D01*
X40027462Y109747452D01*
X39994189Y109914725D01*
X39994189Y110085275D01*
X40027462Y110252548D01*
X40092729Y110410115D01*
X40187481Y110551922D01*
X40308078Y110672519D01*
X40449885Y110767271D01*
X40607452Y110832538D01*
X40774725Y110865811D01*
X40945275Y110865811D01*
X41112548Y110832538D01*
G37*
G36*
X43652548Y110832538D02*
G01*
X43810115Y110767271D01*
X43951922Y110672519D01*
X44072519Y110551922D01*
X44167271Y110410115D01*
X44232538Y110252548D01*
X44265811Y110085275D01*
X44265811Y109914725D01*
X44232538Y109747452D01*
X44167271Y109589885D01*
X44072519Y109448078D01*
X43951922Y109327481D01*
X43810115Y109232729D01*
X43652548Y109167462D01*
X43485275Y109134189D01*
X43314725Y109134189D01*
X43147452Y109167462D01*
X42989885Y109232729D01*
X42848078Y109327481D01*
X42727481Y109448078D01*
X42632729Y109589885D01*
X42567462Y109747452D01*
X42534189Y109914725D01*
X42534189Y110085275D01*
X42567462Y110252548D01*
X42632729Y110410115D01*
X42727481Y110551922D01*
X42848078Y110672519D01*
X42989885Y110767271D01*
X43147452Y110832538D01*
X43314725Y110865811D01*
X43485275Y110865811D01*
X43652548Y110832538D01*
G37*
G36*
X46192548Y110832538D02*
G01*
X46350115Y110767271D01*
X46491922Y110672519D01*
X46612519Y110551922D01*
X46707271Y110410115D01*
X46772538Y110252548D01*
X46805811Y110085275D01*
X46805811Y109914725D01*
X46772538Y109747452D01*
X46707271Y109589885D01*
X46612519Y109448078D01*
X46491922Y109327481D01*
X46350115Y109232729D01*
X46192548Y109167462D01*
X46025275Y109134189D01*
X45854725Y109134189D01*
X45687452Y109167462D01*
X45529885Y109232729D01*
X45388078Y109327481D01*
X45267481Y109448078D01*
X45172729Y109589885D01*
X45107462Y109747452D01*
X45074189Y109914725D01*
X45074189Y110085275D01*
X45107462Y110252548D01*
X45172729Y110410115D01*
X45267481Y110551922D01*
X45388078Y110672519D01*
X45529885Y110767271D01*
X45687452Y110832538D01*
X45854725Y110865811D01*
X46025275Y110865811D01*
X46192548Y110832538D01*
G37*
G36*
X48732548Y110832538D02*
G01*
X48890115Y110767271D01*
X49031922Y110672519D01*
X49152519Y110551922D01*
X49247271Y110410115D01*
X49312538Y110252548D01*
X49345811Y110085275D01*
X49345811Y109914725D01*
X49312538Y109747452D01*
X49247271Y109589885D01*
X49152519Y109448078D01*
X49031922Y109327481D01*
X48890115Y109232729D01*
X48732548Y109167462D01*
X48565275Y109134189D01*
X48394725Y109134189D01*
X48227452Y109167462D01*
X48069885Y109232729D01*
X47928078Y109327481D01*
X47807481Y109448078D01*
X47712729Y109589885D01*
X47647462Y109747452D01*
X47614189Y109914725D01*
X47614189Y110085275D01*
X47647462Y110252548D01*
X47712729Y110410115D01*
X47807481Y110551922D01*
X47928078Y110672519D01*
X48069885Y110767271D01*
X48227452Y110832538D01*
X48394725Y110865811D01*
X48565275Y110865811D01*
X48732548Y110832538D01*
G37*
G36*
X51272548Y110832538D02*
G01*
X51430115Y110767271D01*
X51571922Y110672519D01*
X51692519Y110551922D01*
X51787271Y110410115D01*
X51852538Y110252548D01*
X51885811Y110085275D01*
X51885811Y109914725D01*
X51852538Y109747452D01*
X51787271Y109589885D01*
X51692519Y109448078D01*
X51571922Y109327481D01*
X51430115Y109232729D01*
X51272548Y109167462D01*
X51105275Y109134189D01*
X50934725Y109134189D01*
X50767452Y109167462D01*
X50609885Y109232729D01*
X50468078Y109327481D01*
X50347481Y109448078D01*
X50252729Y109589885D01*
X50187462Y109747452D01*
X50154189Y109914725D01*
X50154189Y110085275D01*
X50187462Y110252548D01*
X50252729Y110410115D01*
X50347481Y110551922D01*
X50468078Y110672519D01*
X50609885Y110767271D01*
X50767452Y110832538D01*
X50934725Y110865811D01*
X51105275Y110865811D01*
X51272548Y110832538D01*
G37*
G36*
X60792548Y110832538D02*
G01*
X60950115Y110767271D01*
X61091922Y110672519D01*
X61212519Y110551922D01*
X61307271Y110410115D01*
X61372538Y110252548D01*
X61405811Y110085275D01*
X61405811Y109914725D01*
X61372538Y109747452D01*
X61307271Y109589885D01*
X61212519Y109448078D01*
X61091922Y109327481D01*
X60950115Y109232729D01*
X60792548Y109167462D01*
X60625275Y109134189D01*
X60454725Y109134189D01*
X60287452Y109167462D01*
X60129885Y109232729D01*
X59988078Y109327481D01*
X59867481Y109448078D01*
X59772729Y109589885D01*
X59707462Y109747452D01*
X59674189Y109914725D01*
X59674189Y110085275D01*
X59707462Y110252548D01*
X59772729Y110410115D01*
X59867481Y110551922D01*
X59988078Y110672519D01*
X60129885Y110767271D01*
X60287452Y110832538D01*
X60454725Y110865811D01*
X60625275Y110865811D01*
X60792548Y110832538D01*
G37*
G36*
X63332548Y110832538D02*
G01*
X63490115Y110767271D01*
X63631922Y110672519D01*
X63752519Y110551922D01*
X63847271Y110410115D01*
X63912538Y110252548D01*
X63945811Y110085275D01*
X63945811Y109914725D01*
X63912538Y109747452D01*
X63847271Y109589885D01*
X63752519Y109448078D01*
X63631922Y109327481D01*
X63490115Y109232729D01*
X63332548Y109167462D01*
X63165275Y109134189D01*
X62994725Y109134189D01*
X62827452Y109167462D01*
X62669885Y109232729D01*
X62528078Y109327481D01*
X62407481Y109448078D01*
X62312729Y109589885D01*
X62247462Y109747452D01*
X62214189Y109914725D01*
X62214189Y110085275D01*
X62247462Y110252548D01*
X62312729Y110410115D01*
X62407481Y110551922D01*
X62528078Y110672519D01*
X62669885Y110767271D01*
X62827452Y110832538D01*
X62994725Y110865811D01*
X63165275Y110865811D01*
X63332548Y110832538D01*
G37*
G36*
X65872548Y110832538D02*
G01*
X66030115Y110767271D01*
X66171922Y110672519D01*
X66292519Y110551922D01*
X66387271Y110410115D01*
X66452538Y110252548D01*
X66485811Y110085275D01*
X66485811Y109914725D01*
X66452538Y109747452D01*
X66387271Y109589885D01*
X66292519Y109448078D01*
X66171922Y109327481D01*
X66030115Y109232729D01*
X65872548Y109167462D01*
X65705275Y109134189D01*
X65534725Y109134189D01*
X65367452Y109167462D01*
X65209885Y109232729D01*
X65068078Y109327481D01*
X64947481Y109448078D01*
X64852729Y109589885D01*
X64787462Y109747452D01*
X64754189Y109914725D01*
X64754189Y110085275D01*
X64787462Y110252548D01*
X64852729Y110410115D01*
X64947481Y110551922D01*
X65068078Y110672519D01*
X65209885Y110767271D01*
X65367452Y110832538D01*
X65534725Y110865811D01*
X65705275Y110865811D01*
X65872548Y110832538D01*
G37*
G36*
X68412548Y110832538D02*
G01*
X68570115Y110767271D01*
X68711922Y110672519D01*
X68832519Y110551922D01*
X68927271Y110410115D01*
X68992538Y110252548D01*
X69025811Y110085275D01*
X69025811Y109914725D01*
X68992538Y109747452D01*
X68927271Y109589885D01*
X68832519Y109448078D01*
X68711922Y109327481D01*
X68570115Y109232729D01*
X68412548Y109167462D01*
X68245275Y109134189D01*
X68074725Y109134189D01*
X67907452Y109167462D01*
X67749885Y109232729D01*
X67608078Y109327481D01*
X67487481Y109448078D01*
X67392729Y109589885D01*
X67327462Y109747452D01*
X67294189Y109914725D01*
X67294189Y110085275D01*
X67327462Y110252548D01*
X67392729Y110410115D01*
X67487481Y110551922D01*
X67608078Y110672519D01*
X67749885Y110767271D01*
X67907452Y110832538D01*
X68074725Y110865811D01*
X68245275Y110865811D01*
X68412548Y110832538D01*
G37*
G36*
X70952548Y110832538D02*
G01*
X71110115Y110767271D01*
X71251922Y110672519D01*
X71372519Y110551922D01*
X71467271Y110410115D01*
X71532538Y110252548D01*
X71565811Y110085275D01*
X71565811Y109914725D01*
X71532538Y109747452D01*
X71467271Y109589885D01*
X71372519Y109448078D01*
X71251922Y109327481D01*
X71110115Y109232729D01*
X70952548Y109167462D01*
X70785275Y109134189D01*
X70614725Y109134189D01*
X70447452Y109167462D01*
X70289885Y109232729D01*
X70148078Y109327481D01*
X70027481Y109448078D01*
X69932729Y109589885D01*
X69867462Y109747452D01*
X69834189Y109914725D01*
X69834189Y110085275D01*
X69867462Y110252548D01*
X69932729Y110410115D01*
X70027481Y110551922D01*
X70148078Y110672519D01*
X70289885Y110767271D01*
X70447452Y110832538D01*
X70614725Y110865811D01*
X70785275Y110865811D01*
X70952548Y110832538D01*
G37*
G36*
X5354837Y113478002D02*
G01*
X5581679Y113404297D01*
X5794198Y113296013D01*
X5987161Y113155817D01*
X6155817Y112987161D01*
X6296013Y112794198D01*
X6404297Y112581679D01*
X6478002Y112354837D01*
X6515314Y112119258D01*
X6515314Y111880742D01*
X6478002Y111645163D01*
X6404297Y111418321D01*
X6296013Y111205802D01*
X6155817Y111012839D01*
X5987161Y110844183D01*
X5794198Y110703987D01*
X5581679Y110595703D01*
X5354837Y110521998D01*
X5119258Y110484686D01*
X4880742Y110484686D01*
X4645163Y110521998D01*
X4418321Y110595703D01*
X4205802Y110703987D01*
X4012839Y110844183D01*
X3844183Y111012839D01*
X3703987Y111205802D01*
X3595703Y111418321D01*
X3521998Y111645163D01*
X3484686Y111880742D01*
X3484686Y112119258D01*
X3521998Y112354837D01*
X3595703Y112581679D01*
X3703987Y112794198D01*
X3844183Y112987161D01*
X4012839Y113155817D01*
X4205802Y113296013D01*
X4418321Y113404297D01*
X4645163Y113478002D01*
X4880742Y113515314D01*
X5119258Y113515314D01*
X5354837Y113478002D01*
G37*
G36*
X89854837Y113478002D02*
G01*
X90081679Y113404297D01*
X90294198Y113296013D01*
X90487161Y113155817D01*
X90655817Y112987161D01*
X90796013Y112794198D01*
X90904297Y112581679D01*
X90978002Y112354837D01*
X91015314Y112119258D01*
X91015314Y111880742D01*
X90978002Y111645163D01*
X90904297Y111418321D01*
X90796013Y111205802D01*
X90655817Y111012839D01*
X90487161Y110844183D01*
X90294198Y110703987D01*
X90081679Y110595703D01*
X89854837Y110521998D01*
X89619258Y110484686D01*
X89380742Y110484686D01*
X89145163Y110521998D01*
X88918321Y110595703D01*
X88705802Y110703987D01*
X88512839Y110844183D01*
X88344183Y111012839D01*
X88203987Y111205802D01*
X88095703Y111418321D01*
X88021998Y111645163D01*
X87984686Y111880742D01*
X87984686Y112119258D01*
X88021998Y112354837D01*
X88095703Y112581679D01*
X88203987Y112794198D01*
X88344183Y112987161D01*
X88512839Y113155817D01*
X88705802Y113296013D01*
X88918321Y113404297D01*
X89145163Y113478002D01*
X89380742Y113515314D01*
X89619258Y113515314D01*
X89854837Y113478002D01*
G37*
M02*
