M48
; DRILL file KiCad 10.0.6 date 2026-10-09T10:24:39
; FORMAT={-:-/ absolute / metric / decimal}
; #@! TF.CreationDate,2026-10-09T10:24:39+08:00
; #@! TF.GenerationSoftware,Kicad,Pcbnew,10.0.6
; #@! TF.FileFunction,Plated,1,4,PTH
FMAT,2
METRIC
; #@! TA.AperFunction,Plated,PTH,ViaDrill
T1C0.300
; #@! TA.AperFunction,Plated,PTH,ComponentDrill
T2C1.000
; #@! TA.AperFunction,Plated,PTH,ComponentDrill
T3C1.200
; #@! TA.AperFunction,Plated,PTH,ComponentDrill
T4C1.300
; #@! TA.AperFunction,Plated,PTH,ComponentDrill
T5C1.500
%
G90
G05
T1
X19.0Y64.75
X20.0Y64.75
X36.5Y53.75
X37.5Y53.75
X39.25Y69.0
X40.0Y68.5
X40.5Y50.75
X40.5Y42.5
X42.0Y59.0
X42.5Y32.0
X43.5Y32.0
X45.0Y59.0
X45.0Y50.75
X45.0Y42.5
X45.25Y68.0
X45.75Y67.25
X48.0Y65.5
X48.5Y72.0
X48.5Y61.0
X48.5Y60.0
X55.0Y34.5
X56.25Y63.25
X56.5Y86.75
X57.25Y63.25
X57.75Y99.0
X58.0Y49.0
X58.25Y30.0
X58.5Y99.5
X59.0Y29.5
X62.0Y60.0
X62.0Y59.0
X62.5Y82.75
X64.25Y72.0
X64.75Y72.75
X68.75Y73.25
X69.75Y73.25
X69.75Y69.0
X72.0Y98.25
X72.0Y67.5
X72.5Y99.0
X73.25Y62.0
X73.75Y62.75
T2
X8.27Y29.5
X8.27Y27.0
X8.27Y24.5
X14.5Y18.27
X17.0Y18.27
X18.0Y110.0
X19.5Y18.27
X20.54Y110.0
X21.66Y100.7
X21.66Y75.3
X23.08Y110.0
X24.2Y100.7
X24.2Y75.3
X25.62Y110.0
X26.74Y100.7
X26.74Y75.3
X28.16Y110.0
X29.28Y100.7
X29.28Y75.3
X30.7Y110.0
X31.82Y100.7
X31.82Y75.3
X33.24Y110.0
X34.36Y100.7
X34.36Y75.3
X35.0Y68.0
X35.0Y65.46
X35.0Y62.92
X35.0Y60.38
X35.0Y57.84
X35.0Y55.3
X35.0Y52.76
X35.78Y110.0
X36.9Y100.7
X36.9Y75.3
X38.32Y110.0
X39.44Y100.7
X39.44Y75.3
X39.69Y34.79
X39.69Y32.25
X39.69Y29.71
X40.86Y110.0
X41.98Y100.7
X41.98Y75.3
X43.4Y110.0
X44.52Y100.7
X44.52Y75.3
X45.94Y110.0
X47.06Y100.7
X47.06Y75.3
X47.31Y34.79
X47.31Y32.25
X47.31Y29.71
X48.48Y110.0
X49.6Y100.7
X49.6Y75.3
X51.02Y110.0
X52.14Y100.7
X52.14Y75.3
X54.68Y100.7
X54.68Y75.3
X57.22Y100.7
X57.22Y75.3
X58.0Y110.0
X59.76Y100.7
X59.76Y75.3
X60.54Y110.0
X62.3Y100.7
X62.3Y75.3
X63.08Y110.0
X64.84Y100.7
X64.84Y75.3
X65.62Y110.0
X67.38Y100.7
X67.38Y75.3
X68.16Y110.0
X69.92Y100.7
X69.92Y75.3
X70.7Y110.0
X72.46Y100.7
X72.46Y75.3
X75.0Y100.7
X75.0Y75.3
T3
X13.75Y37.25
X13.75Y32.75
X20.25Y37.25
X20.25Y32.75
T4
X9.0Y66.5
X9.0Y61.42
X9.0Y54.0
X9.0Y48.92
X83.0Y65.16
X83.0Y60.08
X83.0Y55.0
T5
X10.675Y32.0
X10.675Y22.0
X23.325Y32.0
X23.325Y22.0
X50.915Y13.99
X57.265Y16.53
X60.44Y33.04
X66.79Y35.58
X69.965Y13.99
X76.315Y16.53
X79.49Y33.04
X85.84Y35.58
M30
