M48
; DRILL file KiCad 10.0.6 date 2026-10-09T15:43:51
; FORMAT={-:-/ absolute / metric / decimal}
; #@! TF.CreationDate,2026-10-09T15:43:51+08:00
; #@! TF.GenerationSoftware,Kicad,Pcbnew,10.0.6
; #@! TF.FileFunction,Plated,1,4,PTH
FMAT,2
METRIC
; #@! TA.AperFunction,Plated,PTH,ViaDrill
T1C0.300
; #@! TA.AperFunction,Plated,PTH,ComponentDrill
T2C1.000
; #@! TA.AperFunction,Plated,PTH,ComponentDrill
T3C1.200
; #@! TA.AperFunction,Plated,PTH,ComponentDrill
T4C1.500
%
G90
G05
T1
X13.5Y64.25
X14.5Y64.25
X18.0Y63.75
X19.0Y64.75
X22.75Y73.75
X22.75Y71.75
X24.0Y72.5
X27.0Y69.25
X27.0Y68.25
X27.0Y64.75
X28.0Y64.75
X29.25Y71.75
X30.0Y73.0
X30.5Y73.75
X31.25Y79.5
X31.75Y78.75
X32.0Y49.25
X33.0Y49.25
X34.0Y106.5
X34.5Y95.5
X36.5Y51.75
X37.25Y94.75
X37.5Y53.75
X37.75Y95.5
X39.0Y67.75
X39.25Y69.0
X43.75Y67.25
X45.25Y68.0
X48.0Y65.5
X49.25Y95.5
X50.5Y96.25
X51.0Y97.0
X52.5Y61.0
X52.5Y60.0
X54.25Y79.5
X54.75Y78.75
X56.5Y98.25
X57.75Y99.0
X58.5Y106.5
X59.5Y27.0
X60.25Y26.5
X62.5Y96.25
X63.0Y97.0
X63.0Y95.5
X63.0Y79.5
X63.5Y78.75
X72.25Y33.75
X72.75Y33.0
T2
X7.02Y25.0
X7.02Y22.5
X7.02Y20.0
X13.25Y13.77
X15.75Y13.77
X18.0Y110.0
X18.25Y13.77
X20.54Y110.0
X21.66Y100.7
X21.66Y75.3
X23.08Y110.0
X24.2Y100.7
X24.2Y75.3
X25.62Y110.0
X26.74Y100.7
X26.74Y75.3
X28.16Y110.0
X29.28Y100.7
X29.28Y75.3
X30.7Y110.0
X31.82Y100.7
X31.82Y75.3
X33.24Y110.0
X34.36Y100.7
X34.36Y75.3
X35.0Y68.0
X35.0Y65.46
X35.0Y62.92
X35.0Y60.38
X35.0Y57.84
X35.0Y55.3
X35.0Y52.76
X35.78Y110.0
X36.9Y100.7
X36.9Y75.3
X37.69Y32.29
X37.69Y29.75
X37.69Y27.21
X38.32Y110.0
X39.44Y100.7
X39.44Y75.3
X40.86Y110.0
X41.98Y100.7
X41.98Y75.3
X43.4Y110.0
X44.52Y100.7
X44.52Y75.3
X45.31Y32.29
X45.31Y29.75
X45.31Y27.21
X45.94Y110.0
X47.06Y100.7
X47.06Y75.3
X48.48Y110.0
X49.6Y100.7
X49.6Y75.3
X51.02Y110.0
X52.14Y100.7
X52.14Y75.3
X54.68Y100.7
X54.68Y75.3
X57.22Y100.7
X57.22Y75.3
X58.0Y110.0
X59.76Y100.7
X59.76Y75.3
X60.54Y110.0
X62.3Y100.7
X62.3Y75.3
X63.08Y110.0
X64.84Y100.7
X64.84Y75.3
X65.62Y110.0
X67.38Y100.7
X67.38Y75.3
X68.16Y110.0
X69.92Y100.7
X69.92Y75.3
X70.7Y110.0
X72.46Y100.7
X72.46Y75.3
X75.0Y100.7
X75.0Y75.3
T3
X12.5Y32.75
X12.5Y28.25
X19.0Y32.75
X19.0Y28.25
T4
X9.0Y67.5
X9.0Y62.42
X9.0Y55.0
X9.0Y49.92
X9.425Y27.5
X9.425Y17.5
X22.075Y27.5
X22.075Y17.5
X52.515Y13.99
X58.865Y16.53
X62.04Y33.04
X68.39Y35.58
X71.565Y13.99
X77.915Y16.53
X81.09Y33.04
X83.0Y65.16
X83.0Y60.08
X83.0Y55.0
X87.44Y35.58
M30
